<svg fill="none" height="48" viewBox="0 0 48 48" width="48" xmlns="http://www.w3.org/2000/svg"><g fill="#333"><path d="m32.4853 5.5148c1.1143 1.1143 1.9982 2.43717 2.6013 3.89308.603 1.45592.9134 3.01632.9134 4.59222 0 1.5758-.3104 3.1363-.9134 4.5922-.6031 1.4559-1.487 2.7788-2.6013 3.8931l1.4142 1.4142c1.3-1.3 2.3313-2.8434 3.0348-4.5419.7036-1.6986 1.0657-3.5191 1.0657-5.3576s-.3621-3.659-1.0657-5.35759c-.7035-1.69855-1.7348-3.2419-3.0348-4.54192z"/><path d="m18.75 31c.6904 0 1.25.5596 1.25 1.25 0 .3701-.1596.7016-.4169.9319-.0095.0085-.0188.0172-.028.026l-5.25 5.073c-.2931.2832-.385.716-.2322 1.0938.1527.3779.5195.6253.9271.6253h6c.5523 0 1-.4477 1-1s-.4477-1-1-1h-3.526l3.4584-3.3417c.6543-.5933 1.0676-1.4532 1.0676-2.4083 0-1.7949-1.4551-3.25-3.25-3.25h-1.5c-1.4166 0-2.6191.9058-3.0648 2.1668-.1841.5207.0889 1.092.6096 1.276.5207.1841 1.092-.0888 1.2761-.6096.172-.4868.6364-.8332 1.1791-.8332z"/><path d="m32.7526 31.7742c.3682-.4116.333-1.0438-.0787-1.412-.7322-.655-1.6281-1.1033-2.5953-1.2957-1.0676-.2124-2.1741-.1034-3.1797.3132-1.0057.4165-1.8652 1.1219-2.4699 2.027-.6048.905-.9275 1.969-.9275 3.0575s.3227 2.1526.9275 3.0576c.6047.905 1.4642 1.6104 2.4699 2.027 1.0056.4165 2.1121.5255 3.1797.3132.9672-.1924 1.8631-.6407 2.5953-1.2957.2121-.1897.3334-.4608.3334-.7454v-3.3567c0-.5523-.4477-1-1-1h-3.0024c-.5522 0-1 .4477-1 1s.4478 1 1 1h2.0024v1.8749c-.3945.2748-.8431.4667-1.3189.5613-.6796.1352-1.384.0658-2.0242-.1994-.6402-.2651-1.1873-.7142-1.5723-1.2903-.385-.5762-.5904-1.2535-.5904-1.9465 0-.6929.2054-1.3703.5904-1.9464s.9321-1.0252 1.5723-1.2904c.6402-.2651 1.3446-.3345 2.0242-.1993.6158.1224 1.186.4078 1.6522.8248.4116.3682 1.0438.3329 1.412-.0787z"/><path clip-rule="evenodd" d="m10 28c0-1.6569 1.3431-3 3-3h22c1.6569 0 3 1.3431 3 3v13c0 1.6569-1.3431 3-3 3h-22c-1.6569 0-3-1.3431-3-3zm2 0c0-.5523.4477-1 1-1h22c.5523 0 1 .4477 1 1v13c0 .5523-.4477 1-1 1h-22c-.5523 0-1-.4477-1-1z" fill-rule="evenodd"/><path d="m29.5433 11.704c-.3015-.7279-.7435-1.3894-1.3007-1.94652l1.4143-1.41422c.7428.74287 1.3321 1.62478 1.7341 2.59534.4021.9707.609 2.0109.609 3.0615s-.2069 2.0909-.609 3.0615c-.402.9706-.9913 1.8525-1.7341 2.5954l-1.4143-1.4142c.5572-.5572.9992-1.2186 1.3007-1.9466.3015-.7279.4567-1.5082.4567-2.2961s-.1552-1.5681-.4567-2.2961z"/><path d="m18.4567 11.704c.3016-.7279.7435-1.3894 1.3007-1.94652l-1.4143-1.41422c-.7428.74287-1.3321 1.62478-1.7341 2.59534-.4021.9707-.609 2.0109-.609 3.0615s.2069 2.0909.609 3.0615c.402.9706.9913 1.8525 1.7341 2.5954l1.4143-1.4142c-.5572-.5572-.9991-1.2186-1.3007-1.9466-.3015-.7279-.4567-1.5082-.4567-2.2961s.1552-1.5681.4567-2.2961z"/><path d="m15.5147 5.5148c-1.1143 1.1143-1.9982 2.43717-2.6013 3.89308-.603 1.45592-.9134 3.01632-.9134 4.59222 0 1.5758.3104 3.1363.9134 4.5922.6031 1.4559 1.487 2.7788 2.6013 3.8931l-1.4142 1.4142c-1.3-1.3-2.3312-2.8434-3.0348-4.542-.7036-1.6985-1.0657-3.519-1.0657-5.3575s.3621-3.659 1.0657-5.35759c.7036-1.69856 1.7348-3.2419 3.0348-4.54192z"/><path d="m24 16c1.1046 0 2-.8954 2-2s-.8954-2-2-2-2 .8954-2 2 .8954 2 2 2z"/></g></svg>