<svg fill="none" height="48" viewBox="0 0 48 48" width="48" xmlns="http://www.w3.org/2000/svg"><g clip-rule="evenodd" fill="#333" fill-rule="evenodd"><path d="m32 9c0-1.65685 1.3431-3 3-3h4c1.6569 0 3 1.34315 3 3v30c0 1.6569-1.3431 3-3 3h-4c-1.6569 0-3-1.3431-3-3zm3-1c-.5523 0-1 .44772-1 1v1.1716l2.1716-2.1716zm4 0-5 5v2.1716l6-6.00004v-.17156c0-.55228-.4477-1-1-1zm1 4-6 6v2.1716l6-6zm0 5-6 6v2.1716l6-6zm0 5-6 6v2.1716l6-6zm0 5-6 6v2.1716l6-6zm0 5-6 6v1c0 .3199.1502.6046.3838.7877l5.6162-5.6162zm0 5-3 3h2c.5523 0 1-.4477 1-1z"/><path d="m19 21c0-1.6569 1.3431-3 3-3h4c1.6569 0 3 1.3431 3 3v18c0 1.6569-1.3431 3-3 3h-4c-1.6569 0-3-1.3431-3-3zm5-1h2c.0541 0 .1072.0043.159.0126l-5.159 5.159v-2.1716zm-3 10.1716v-2.1716l6-6v2.1716zm6-1v-2.1716l-6 6v2.1716zm-6 9.8284v-1l6-6v2.1717l-5.6161 5.616c-.2337-.183-.3839-.4678-.3839-.7877zm3.0001 1 2.9999-2.9999v1.9999c0 .5523-.4477 1-1 1z"/><path d="m9 30c-1.65685 0-3 1.3431-3 3v6c0 1.6569 1.34315 3 3 3h4c1.6569 0 3-1.3431 3-3v-6c0-1.6569-1.3431-3-3-3zm-1 3c0-.5523.44772-1 1-1h2.1716l-3.1716 3.1716zm0 5 5.7071-5.7071c.181.181.2929.431.2929.7071v1.1716l-5.61611 5.6161c-.2337-.183-.38389-.4678-.38389-.7877zm3 2h2c.5523 0 1-.4477 1-1v-2z"/></g></svg>