<svg fill="none" height="48" viewBox="0 0 48 48" width="48" xmlns="http://www.w3.org/2000/svg"><path d="m7.29289 37.2929 6.36401-6.364m-4.5711 9.5711 5.8891-5.8891m20.0251 6.3891h4c1.1046 0 2-.8954 2-2v-30c0-1.10457-.8954-2-2-2h-4c-1.1046 0-2 .89543-2 2v30c0 1.1046.8954 2 2 2zm-13 0h4c1.1046 0 2-.8954 2-2v-18c0-1.1046-.8954-2-2-2h-4c-1.1046 0-2 .8954-2 2v18c0 1.1046.8954 2 2 2zm-13 0h4c1.1046 0 2-.8954 2-2v-6c0-1.1046-.8954-2-2-2h-4c-1.10457 0-2 .8954-2 2v6c0 1.1046.89543 2 2 2z" stroke="#333" stroke-width="2"/></svg>