<svg fill="none" height="48" viewBox="0 0 48 48" width="48" xmlns="http://www.w3.org/2000/svg"><path clip-rule="evenodd" d="m32 9c0-1.65685 1.3431-3 3-3h4c1.6569 0 3 1.34315 3 3v30c0 1.6569-1.3431 3-3 3h-4c-1.6569 0-3-1.3431-3-3zm3-1c-.5523 0-1 .44772-1 1v30c0 .5523.4477 1 1 1h4c.5523 0 1-.4477 1-1v-30c0-.55228-.4477-1-1-1zm-16 13c0-1.6569 1.3431-3 3-3h4c1.6569 0 3 1.3431 3 3v18c0 1.6569-1.3431 3-3 3h-4c-1.6569 0-3-1.3431-3-3zm5-1-3 3v2.1716l5.159-5.159c-.0518-.0083-.1049-.0126-.159-.0126zm3 2-6 6v2.1716l6-6zm0 5-6 6v2.1716l6-6zm0 5-6 6v1c0 .3199.1502.6046.3839.7877l5.6161-5.6162zm0 5-3 3h2c.5523 0 1-.4477 1-1zm-21-4c0-1.6569 1.34315-3 3-3h4c1.6569 0 3 1.3431 3 3v6c0 1.6569-1.3431 3-3 3h-4c-1.65685 0-3-1.3431-3-3zm3-1c-.55228 0-1 .4477-1 1v2.1716l3.1716-3.1716zm4.7071.2929-5.7071 5.7071v1c0 .3199.15018.6047.38388.7877l5.61612-5.6161v-1.1716c0-.2761-.1119-.5261-.2929-.7071zm.2929 4.7071-3 3h2c.5523 0 1-.4477 1-1z" fill="#333" fill-rule="evenodd"/></svg>