<svg fill="none" height="48" viewBox="0 0 48 48" width="48" xmlns="http://www.w3.org/2000/svg"><path clip-rule="evenodd" d="m20.9525 10.4616c-1.2405-1.37877-2.9899-2.29065-4.9525-2.43995v-3.02165h-2v3.13723c-2.098.40868-3.8803 1.7003-4.94448 3.47237l-2.55552-1.4754-1 1.732 2.76322 1.5954c-.1716.6265-.26322 1.286-.26322 1.967 0 2.0151.24257 3.9735.7001 5.8477l-2.95895.7928.51764 1.9319 2.99502-.8025c.86889 2.6089 2.16349 5.0233 3.80119 7.1608l-2.7621 2.7621 1.4143 1.4142 2.6331-2.6331c1.5498 1.7141 3.338 3.2085 5.3122 4.4312l-1.5186 2.6302 1.7321 1 1.5284-2.6473c2.6295 1.3454 5.5335 2.231 8.6056 2.5505v3.1329h2v-3.0065c.19.0043.3804.0065.5714.0065 2.2973 0 4.3511-1.0428 5.7137-2.6809l2.679 1.5467 1-1.732-2.6176-1.5113c.4198-.9308.6535-1.9636.6535-3.0511 0-2.7316-1.4744-5.1189-3.6708-6.4094l1.5369-2.662-1.7321-1-1.6668 2.887c-.6052-.1593-1.2406-.2441-1.8958-.2441-2.3223 0-4.4543-.815-6.1256-2.1744l2.2613-2.2613-1.4143-1.4142-2.2612 2.2612c-1.3595-1.6713-2.1745-3.8033-2.1745-6.1256 0-1.1778-.2741-2.2916-.762-3.2811l2.4403-2.44032-1.4142-1.41421zm-5.9525 4.5384c-.5523 0-1 .4477-1 1s.4477 1 1 1 1-.4477 1-1-.4477-1-1-1zm-3 1c0-1.6569 1.3431-3 3-3s3 1.3431 3 3-1.3431 3-3 3-3-1.3431-3-3zm12 13c-.5523 0-1 .4477-1 1s.4477 1 1 1 1-.4477 1-1-.4477-1-1-1zm-3 1c0-1.6569 1.3431-3 3-3s3 1.3431 3 3-1.3431 3-3 3-3-1.3431-3-3zm-4-4c1.1046 0 2-.8954 2-2s-.8954-2-2-2-2 .8954-2 2 .8954 2 2 2zm17 6c0 1.1046-.8954 2-2 2s-2-.8954-2-2 .8954-2 2-2 2 .8954 2 2z" fill="#333" fill-rule="evenodd"/></svg>