<svg fill="none" height="48" viewBox="0 0 48 48" width="48" xmlns="http://www.w3.org/2000/svg"><path clip-rule="evenodd" d="m12.1538 18c0-6.0751 5.3037-11 11.8461-11s11.846 4.9249 11.846 11c0 3.8069-2.0817 7.1627-5.2507 9.139-2.6881 1.6763-5.5184 4.3149-5.5184 7.7723v.0887c0 3.3137-2.8929 6-6.4615 6s-6.4615-2.6863-6.4615-6v-2h-2.1538v2c0 4.4183 3.8572 8 8.6153 8s8.6153-3.5817 8.6153-8v-.0887c0-2.4038 2.0134-4.5205 4.5654-6.112 3.7393-2.3319 6.2038-6.2981 6.2038-10.7993 0-7.1797-6.268-13-13.9999-13s-13.9999 5.8203-13.9999 13zm10.8462-4c-1.9477 0-3.528 1.3146-3.9112 3.0195l.0278.0014c.8135.0412 1.918.157 3.0382.4635 1.1114.304 2.3119.8155 3.2469 1.6965.9648.909 1.5983 2.1689 1.5983 3.8267 0 .0303-.0014.0605-.0041.0906-.1464 1.609-.5404 2.8395-1.1368 3.762-.6056.9368-1.3862 1.503-2.202 1.8239-.7978.314-1.5982.3817-2.249.3817-.3272 0-.6291-.0174-.8777-.0332l-.0989-.0064c-.1194-.0077-.217-.014-.2999-.018-.0122.021-.0261.0464-.0418.0768-.1011.1968-.1774.4041-.2767.6741-.0639.1739-.1375.3739-.2334.6138-.2099.525-.5109 1.1779-1.0172 1.6993-.5434.5595-1.2837.9278-2.2512.9278-.8379 0-1.5323-.1924-2.0768-.5649-.547-.374-.8601-.8731-1.031-1.3407-.1672-.4572-.2035-.8948-.2035-1.202 0-.1571.0095-.2898.0197-.3868.0051-.0488.0104-.0893.0149-.1201.0023-.0155.0043-.0285.0061-.0391l.0023-.014.001-.0055.0004-.0024.0002-.0011c.0001-.0006.0002-.0011.9839.1787s.9838.1793.9839.1788l.0005-.0027.0005-.0028.0005-.0032c0 .0005-.0003.002-.0005.0032-.0008.0058-.0025.0184-.0045.0379-.0042.0395-.0089.102-.0089.1791 0 .1612.0207.348.0819.5153.0573.1569.1437.2823.2816.3766.1402.0959.4161.2157.9478.2157.4022 0 .6321-.1313.8163-.3211.2214-.228.4054-.5743.595-1.0485.046-.115.0974-.2531.1526-.4015.1303-.3507.2821-.7591.4359-1.0582.0335-.0653.073-.1374.1191-.2129.5569-1.4228 1.4174-3.9151 1.0698-4.9578-.2326-.6979-.6817-1.3957-1.0955-1.9426-.5046-.4228-.8887-.83-1.1205-1.3186-.2863-.6035-.2852-1.2346-.2841-1.8145l.0001-.1034c0-3.2489 2.721-5.8209 6-5.8209s6 2.572 6 5.8209h-2c0-2.0762-1.7562-3.8209-4-3.8209zm-2.8077 14.9192c0 .0005-.003.0043-.0091.01.006-.0076.0091-.0104.0091-.01z" fill="#333" fill-rule="evenodd"/></svg>