<svg fill="none" height="48" viewBox="0 0 48 48" width="48" xmlns="http://www.w3.org/2000/svg"><g fill="#333"><path clip-rule="evenodd" d="m6.25587 15.1285c-.49121-.7875-.24018-1.676.56038-2.4045.38978-.3547.84227-.592 1.23262-.6828.39968-.093.6016-.0109.68305.0544 1.80638 1.448 2.97568 1.8231 3.99458 1.9122.2899.0253.5089.0323.6874.038.4447.0141.6376.0203 1.0466.2825l1.0796-1.6836c-.9132-.5855-1.7331-.6032-2.2974-.6154-.1277-.0028-.2423-.0052-.342-.0139-.5328-.0466-1.3385-.2143-2.91787-1.4803-.72436-.58066-1.6307-.61792-2.38723-.4419-.76586.1782-1.51754.5984-2.12541 1.1516-1.19474 1.0871-2.11289 3.0158-.91126 4.9422.62078.9951 1.30996 1.8495 1.94542 2.5415.09117-.1711.20832-.3278.35227-.4666.36308-.3499.85132-.5418 1.40294-.5864-.64225-.6661-1.36753-1.5272-2.00369-2.547z" fill-rule="evenodd"/><path d="m12.895 20.1427c1.6803 1.5489 2.149 3.6657 1.0467 4.7281-1.1022 1.0623-3.358.668-5.03833-.8809-1.68036-1.5488-2.14901-3.6656-1.04675-4.728 1.10225-1.0624 3.35798-.668 5.03838.8808z"/><path clip-rule="evenodd" d="m12.447 23.0879c-.0953-.4306-.4031-1.0144-.992-1.5572-.5889-.5429-1.215-.8199-1.67391-.9001-.25446-.0445-.38862-.0238-.44651-.0064-.01714.0549-.03608.1818.01678.4206.09534.4306.40312 1.0144.99204 1.5572.5889.5428 1.215.8198 1.6739.9.2544.0445.3886.0238.4465.0065.0171-.055.0361-.1818-.0168-.4206zm.0015.4547c-.0003-.0002.0012-.0031.0053-.0084-.003.0059-.005.0086-.0053.0084zm.0423-.0441c.0056-.004.0087-.0055.0088-.0052.0002.0003-.0025.0023-.0088.0052zm-3.14092-2.9084c.00028.0001-.00119.0031-.0053.0084.00296-.0059.00501-.0086.0053-.0084zm-.04236.0441c-.00553.004-.00863.0054-.0088.0052-.00018-.0003.00259-.0023.0088-.0052zm4.63418 4.2366c1.1023-1.0624.6336-3.1792-1.0467-4.7281-1.6804-1.5488-3.93613-1.9432-5.03838-.8808-1.10226 1.0624-.63361 3.1792 1.04675 4.728 1.68033 1.5489 3.93613 1.9432 5.03833.8809z" fill-rule="evenodd"/><path clip-rule="evenodd" d="m41.7441 15.1285c.4912-.7875.2402-1.676-.5604-2.4045-.3897-.3547-.8422-.592-1.2326-.6828-.3997-.093-.6016-.0109-.683.0544-1.8064 1.448-2.9757 1.8231-3.9946 1.9122-.2899.0253-.5089.0323-.6874.038-.4447.0141-.6376.0203-1.0466.2825l-1.0796-1.6836c.9132-.5855 1.7331-.6032 2.2974-.6154.1277-.0028.2423-.0052.342-.0139.5328-.0466 1.3385-.2143 2.9179-1.4803.7243-.58066 1.6307-.61792 2.3872-.4419.7659.1782 1.5175.5984 2.1254 1.1516 1.1947 1.0871 2.1129 3.0158.9113 4.9422-.6339 1.0161-1.339 1.8854-1.9855 2.5849-.0941-.188-.2187-.3596-.3747-.51-.3504-.3377-.8174-.5282-1.3455-.5812.6435-.6668 1.3709-1.5297 2.0087-2.5522z" fill-rule="evenodd"/><path d="m35.0425 20.1427c-1.6803 1.5489-2.149 3.6657-1.0467 4.7281 1.1022 1.0623 3.358.668 5.0383-.8809 1.6804-1.5488 2.149-3.6656 1.0468-4.728-1.1023-1.0624-3.358-.668-5.0384.8808z"/><path clip-rule="evenodd" d="m35.4905 23.0879c.0953-.4306.4031-1.0144.992-1.5572.5889-.5429 1.215-.8199 1.6739-.9001.2545-.0445.3886-.0238.4465-.0064.0172.0549.0361.1818-.0168.4206-.0953.4306-.4031 1.0144-.992 1.5572s-1.215.8198-1.6739.9c-.2544.0445-.3886.0238-.4465.0065-.0171-.055-.0361-.1818.0168-.4206zm-.0015.4547c.0003-.0002-.0012-.0031-.0053-.0084.003.0059.005.0086.0053.0084zm-.0423-.0441c-.0056-.004-.0087-.0055-.0088-.0052-.0002.0003.0025.0023.0088.0052zm3.1409-2.9084c-.0003.0001.0012.0031.0053.0084-.0029-.0059-.005-.0086-.0053-.0084zm.0424.0441c.0055.004.0086.0054.0088.0052.0002-.0003-.0026-.0023-.0088-.0052zm-4.6342 4.2366c-1.1023-1.0624-.6336-3.1792 1.0467-4.7281 1.6804-1.5488 3.9361-1.9432 5.0384-.8808 1.1022 1.0624.6336 3.1792-1.0468 4.728-1.6803 1.5489-3.9361 1.9432-5.0383.8809z" fill-rule="evenodd"/><path d="m24.0101 12c-10.4261 0-6.6942 8.0193-4.6666 10.057s.8785 10.6615 2.3904 14.6879c.3519.9373 1.5908-1.01 2.2762-1.01.6853 0 1.6925 1.9473 2.0144 1.01 1.383-4.0264-.5436-11.9974 2.1336-14.6879 2.6773-2.6906 6.278-10.057-4.148-10.057z"/><path clip-rule="evenodd" d="m18.6615 19.2121c.4331.9527.984 1.7306 1.3909 2.1395.7451.7489 1.0895 1.9523 1.2927 3.1228.2125 1.224.3082 2.6744.3856 4.1276.0153.2867.0298.5737.0444.8602.0603 1.1887.1201 2.3686.2279 3.479.0957.9852.2256 1.87.4114 2.6153.1294-.1121.2697-.2315.3902-.3242.1313-.1011.2916-.2143.4686-.3052.1681-.0862.4265-.1922.7369-.1922.3167 0 .5772.1098.7509.205.1789.0981.3349.2194.4586.3255.0401.0343.0812.0712.1226.1094.1211-.6693.1886-1.4374.2235-2.2862.0366-.892.0364-1.8143.0361-2.7625-.0001-.4722-.0002-.9508.0042-1.4352.013-1.4225.066-2.8707.3001-4.15.2316-1.266.6637-2.5054 1.5432-3.3893.5971-.6001 1.2634-1.4816 1.7675-2.4594.5093-.9878.8084-1.9867.7815-2.8413-.0251-.8008-.3303-1.4935-1.1241-2.0287-.8505-.5734-2.3491-1.0222-4.8641-1.0222-2.5007 0-3.9816.4845-4.8271 1.0954-.8024.5798-1.1324 1.345-1.1776 2.2206-.0473.9146.2229 1.9432.6561 2.8961zm-.6498-6.7378c1.3237-.9564 3.286-1.4743 5.9984-1.4743 2.698 0 4.6591.472 5.9821 1.3639 1.3796.9301 1.9619 2.2472 2.0051 3.6242.0416 1.3234-.4099 2.6706-1.0029 3.8207-.5982 1.1602-1.3859 2.2084-2.1274 2.9535-.4592.4615-.7903 1.2273-.9936 2.3385-.2008 1.0978-.2546 2.3984-.2675 3.8083-.004.4425-.004.8992-.0039 1.3608.0002.973.0003 1.9684-.038 2.9008-.0566 1.3782-.1992 2.7504-.5937 3.8991-.0745.2167-.2301.5433-.5755.7542-.3877.2369-.7849.1935-1.0442.106-.2355-.0794-.4233-.213-.5429-.3071-.1296-.1021-.2517-.2171-.3536-.3168-.0825-.0808-.1528-.1516-.2162-.2157-.0922-.0929-.17-.1714-.2501-.2446-.1039.0819-.1966.1634-.3052.2588-.0838.0735-.1769.1553-.2919.252-.1964.1653-.5605.4683-.9725.5869-.2429.0699-.6097.1076-.9812-.089-.3618-.1914-.5459-.5094-.6393-.7581-.4256-1.1335-.6467-2.5344-.7853-3.9619-.1127-1.1611-.1755-2.3996-.2359-3.5917-.0142-.2813-.0283-.56-.043-.8344-.0777-1.4608-.1694-2.8001-.3589-3.8919-.1989-1.1454-.4712-1.7841-.7399-2.0542-.6069-.6098-1.2829-1.5985-1.7939-2.7225-.511-1.1239-.9023-2.4821-.8328-3.8271.0716-1.3839.6368-2.7509 2.0037-3.7384zm5.7889 24.22c-.0032-.0016-.0037-.0021-.0012-.0007.0003.0002.0008.0004.0012.0007z" fill-rule="evenodd"/></g></svg>