<svg fill="none" height="48" viewBox="0 0 48 48" width="48" xmlns="http://www.w3.org/2000/svg"><path clip-rule="evenodd" d="m20.0003 6h4v2.64383c1.2723-.07748 2.5055-.0034 3.6136.23052-4.7004 1.85005-6.863 6.60445-7.2171 7.38305l-.0218.0477c-1.1486-.1744-2.393-.3194-3.5705-.3086-1.2134.1034-2.3907.2827-4.3296 1.3748-.2734.1932-.642.5101-1.1429.9933-.0364-.0262-.0754-.0505-.1264-.0824-.0408-.0255-.0895-.0558-.1507-.0958-.2769-.1809-.6812-.4257-1.1742-.6702-1.01558-.5039-2.26137-.9336-3.48226-.9336v-3.8783c2.11105 0 4.00906.7167 5.30426 1.3593.4493.2229.8436.4457 1.1699.6437.2887-.6162.6696-1.1893 1.125-1.7177l-2.1966-3.44688 3.521-2.28654 2.0265 3.18012c.8346-.4304 1.7298-.78754 2.6518-1.06822zm10.7564 8.691c-1.4577.6757-2.7195 1.7864-3.8571 3.9244 0 0-2.5239-1.1542-4.5715-1.7541 1.5715-3.186 3.4002-4.9786 6.0969-6.2286 2.6086-1.20917 5.7206-1.51878 9.4175-1.39103l-.175 4.75843c-3.4111-.1179-5.3651-.0256-6.9108.6909zm-17.4757 4.5285c-7.26267 6.478 3.1125 22.673 11.4128 22.673 8.3002 0 19.7294-16.1806 11.4128-23.5984-.1919-.1712-.3599-.3252-.5159-.4682l-.0001-.0001c-.6874-.6303-1.1448-1.0496-2.4132-1.8038-2.5523 0-4.0904 2.5531-4.7906 4.1085-.0356.079-.0795.1527-.1303.2203l-1.6142 4.4906-.5817 2.0882c-.0614.2205-.0454.4553.0455.6654l.6794 1.5702 3.518-.4083.2306 1.9866-3.3087.3841.215 3.1518-1.9953.1361-.2683-3.9318-.9062-2.0945c-.2727-.6302-.3209-1.3349-.1367-1.9963l.0174-.0624-2.034.9198-1.3299 3.3618-1.8598-.7357 1.0533-2.6624-3.2105-.7564.4586-1.9467 4.0055.9437 3.6565-1.6537 1.2296-3.4205c-3.168-1.4884-9.6737-3.9848-12.8396-1.1609z" fill="#333" fill-rule="evenodd"/></svg>