<svg fill="none" height="48" viewBox="0 0 48 48" width="48" xmlns="http://www.w3.org/2000/svg"><g fill="#333"><path d="m12.548 30.7532c-10.86423-4.5822-6.57663-20.049.965-22.60455 3.1286-1.06013 6.5808 2.45695 6.5587 4.64065-.0096.9442-.4968 1.8648-1.0044 2.8239-.6664 1.2593-1.368 2.585-1.0701 4.1176.5249 2.7001 1.1128 7.256-.402 9.4186-1.5149 2.1626-3.0383 2.4511-5.0472 1.6038z"/><path d="m34.3473 8.14865c7.5417 2.55555 11.8293 18.02235.9651 22.60455-2.009.8473-3.5324.5588-5.0472-1.6038s-.9269-6.7185-.4021-9.4186c.2979-1.5326-.4036-2.8583-1.0701-4.1176-.5076-.9591-.9948-1.8797-1.0043-2.8239-.0221-2.1837 3.4301-5.70078 6.5586-4.64065z"/><path d="m28.6181 22.7796c.0686.9977.0692.9976.0698.9976l.0012-.0001.0022-.0002.0039-.0003.0055-.0004.0029-.0003c-.0017.0002-.0102.0012-.0245.0035-.0287.0046-.079.0142-.1434.0324-.1311.0372-.3039.1052-.4731.2258-.2897.2063-.7157.6645-.7157 1.8207v14.4661c0 .0001 0 .0001-1 .0001s-1-.0004-1-.0005v-14.4657c0-1.7664.7096-2.8475 1.5555-3.4499.3986-.2838.7936-.4374 1.0883-.5209.1486-.0421.2758-.0675.3712-.0828.0478-.0077.0882-.0129.1197-.0164.0158-.0018.0295-.0032.0408-.0042l.0153-.0013.0064-.0004.0028-.0002.0013-.0001c.0007-.0001.0013-.0001.0699.9975z"/><path d="m19.2423 22.7796c-.0686.9977-.0693.9976-.0699.9976l-.0011-.0001-.0023-.0002-.0038-.0003-.0056-.0004c-.0019-.0002-.0029-.0003-.0031-.0003.0017.0002.0105.0012.0247.0035.0288.0046.0791.0142.1434.0324.1311.0372.3039.1052.4732.2258.2897.2063.7157.6645.7157 1.8207v14.4661c0 .0001 0 .0001 1 .0001s1-.0004 1-.0005v-14.4657c0-1.7664-.7097-2.8475-1.5556-3.4499-.3985-.2838-.7935-.4374-1.0883-.5209-.1485-.0421-.2757-.0675-.3711-.0828-.0479-.0077-.0882-.0129-.1198-.0164-.0158-.0018-.0294-.0032-.0408-.0042l-.0153-.0013-.0063-.0004-.0028-.0002-.0014-.0001c-.0006-.0001-.0013-.0001-.0698.9975z"/></g></svg>