<svg fill="none" height="48" viewBox="0 0 48 48" width="48" xmlns="http://www.w3.org/2000/svg"><path d="m16.542 11.991c5.8501.0048 5.3116 7.9617 5.3091 11.1447-.0033 4.0623.994 12.2615-2.1399 15.3824-3.1935 3.1803-9.5766 4.7665-12.76533 2.1115-3.18874-2.6551 2.15075-28.6447 9.59613-28.6386z" fill="#333"/><path d="m31.4826 12.0033c-5.85-.0047-5.3246 7.953-5.3272 11.136-.0034 4.0623-1.0141 12.2599 2.1146 15.3859 3.1883 3.1855 9.5688 4.7822 12.7619 2.1324 3.193-2.6498-2.1039-28.6482-9.5493-28.6543z" fill="#333"/><g stroke="#333" stroke-width="2"><path d="m24.0174 6.00002s-.009 10.99468-.0118 14.49298c-.0029 3.4984-3.0008 3.4959-3.0008 3.4959"/><path d="m24.0175 5.99998s-.009 10.99472-.0119 14.49302c-.0028 3.4983 2.9951 3.5008 2.9951 3.5008"/></g></svg>