<svg fill="none" height="48" viewBox="0 0 48 48" width="48" xmlns="http://www.w3.org/2000/svg"><g clip-rule="evenodd" fill="#333" fill-rule="evenodd"><path d="m29.5844 22.8706c1.1594 0 2.2919-.3157 3.2494-.9058.9722.589 2.1196.8978 3.2904.8855l3.7191-1.2217c1.048-.7799 1.7674-1.8611 2.038-3.0625.2705-1.2015.0756-2.4504-.552-3.5377s-1.6499-1.9471-2.8957-2.4353c-.2845-1.1633-1.001-2.2037-2.0307-2.94867l-3.6304-1.14692h-.4087c-.8075-1.0636-2.0198-1.82228-3.4064-2.1318l-7.7833-.39501c-1.2938.09705-2.5138.58418-3.4636 1.38301-.4488-.09552-.9082-.14503-1.3693-.14759-1.1165.00207-2.2085.29582-3.1441.84579-.9356.54996-1.6749 1.33264-2.1286 2.25359l-2.95735 1.8911c-.73587.9-1.13202 1.9897-1.13007 3.1084-.00728.4677.06158.9339.20437 1.3836-.77588.9089-1.19309 2.0257-1.18534 3.1731-.00185 1.3308.56131 2.6116 1.57364 3.579.0817.9527.45049 1.8672 1.06647 2.6443.61598.7772 1.45568 1.3875 2.42828 1.7649 1.1206.6342 2.0695 1.4871 2.7768 2.4959.7074 1.0089 1.1552 2.1481 1.3106 3.3338h2.7184v-7.7432l-2.6418-2.3482-1.7874 1.7875c-.3906.3905-1.0237.3905-1.4143 0-.3905-.3905-.3905-1.0237 0-1.4142l2.084-2.084-.6351-3.4927-2.8253-1.4127c-.494-.247-.69422-.8477-.4472-1.3417.247-.4939.8476-.6942 1.3416-.4472l2.7668 1.3834 3.4617-2.2028-1.0666-2.8441c-.1939-.5171.0681-1.0935.5852-1.2875.5171-.1939 1.0936.0681 1.2875.5852l1.1376 3.0336h1.3989l.6492-1.2984-.9503-2.2174c-.2175-.50762.0176-1.0955.5252-1.31306.5077-.21755 1.0956.0176 1.3131.52523l.8258 1.92683 3.2997.5999c.0185-.0173.0378-.034.0579-.05l2.0455-1.6364c.4313-.345 1.0606-.2751 1.4056.1562.345.4312.275 1.0605-.1562 1.4055l-1.4717 1.1774 1.7292 2.2231.6779-1.3558c.1694-.3388.5157-.5528.8944-.5528h2.4546c.5523 0 1 .4477 1 1s-.4477 1-1 1h-1.8365l-.4193.8386 2.0636.4585c.0798.0178.1571.0452.2303.0818l1.6363.8182c.494.247.6942.8476.4473 1.3416-.247.494-.8477.6942-1.3417.4472l-1.5262-.7631-3.5617-.7915c-.2271-.0505-.4296-.1786-.5724-.3622l-2.6291-3.3803-3.2633-.5933c-.0617.0575-.1315.1078-.2086.1491l-.7006 1.4012v.8087h1.4546c.1553 0 .3084.0362.4472.1056l3.2728 1.6364c.4939.247.6942.8476.4472 1.3416s-.8477.6942-1.3417.4472l-3.0616-1.5308h-1.2185v1.8643c0 .5523-.4477 1-1 1s-1-.4477-1-1v-3.9091h-1.5724l-3.6871 2.3463.6362 3.4991 3.4241 3.0435c.2134.1898.3356.4618.3356.7474v8.1923h2.9172v-5.5346c-.0014-.9826.3023-1.946.8767-2.7808.5743-.8347 1.3963-1.5075 2.3728-1.942.5491-.1896.6842-.4449.8497-.7577.1103-.2085.2342-.4425.503-.6997.2336.1439.4145.2716.5715.3822v.0001c.4866.3431.7425.5235 1.6192.5235z"/><path d="m23 38h-8v-2h8z"/><path d="m23 42h-8v-2h8z"/></g></svg>