<svg fill="none" height="48" viewBox="0 0 48 48" width="48" xmlns="http://www.w3.org/2000/svg"><g clip-rule="evenodd" fill="#333" fill-rule="evenodd"><path d="m16.2058 6.24184c-.6225-.12006-1.2058.3531-1.2058.98711v.65764c0 .55229-.4477 1-1 1h-1c-.5523 0-1 .44772-1 1v1.84871c0 .5523.4477 1 1 1h1c.5523 0 1 .4477 1 1v1.11c0 .4569.3106.8567.7544.9654 6.466 1.5845 10.3219 1.5853 16.5017.0058.4387-.1122.7439-.5096.7439-.9624v-1.1188c0-.5523.4477-1 1-1h1c.5523 0 1-.4477 1-1v-1.84871c0-.55228-.4477-1-1-1h-1c-.5523 0-1-.44771-1-1v-.65448c0-.63504-.585-1.10842-1.2084-.98708-5.9034 1.14914-9.6831 1.13518-15.5858-.00319zm2.7942 3.75826c0-.5523-.4477-1.00002-1-1.00002s-1 .44772-1 1.00002v3c0 .5523.4477 1 1 1s1-.4477 1-1z"/><path d="m16.2058 18.2418c-.6225-.12-1.2058.3531-1.2058.9872v.6576c0 .5523-.4477 1-1 1h-1c-.5523 0-1 .4477-1 1v1.8487c0 .5523.4477 1 1 1h1c.5523 0 1 .4477 1 1v1.11c0 .4569.3106.8567.7544.9654 6.466 1.5845 10.3219 1.5853 16.5017.0058.4387-.1122.7439-.5096.7439-.9624v-1.1188c0-.5523.4477-1 1-1h1c.5523 0 1-.4477 1-1v-1.8487c0-.5523-.4477-1-1-1h-1c-.5523 0-1-.4477-1-1v-.6545c0-.635-.585-1.1084-1.2084-.9871-5.9034 1.1492-9.6831 1.1352-15.5858-.0032zm2.7942 3.7583c0-.5523-.4477-1-1-1s-1 .4477-1 1v3c0 .5523.4477 1 1 1s1-.4477 1-1z"/><path d="m16.2058 30.2418c-.6225-.12-1.2058.3531-1.2058.9872v.6576c0 .5523-.4477 1-1 1h-1c-.5523 0-1 .4477-1 1v1.8487c0 .5523.4477 1 1 1h1c.5523 0 1 .4477 1 1v1.11c0 .4569.3106.8567.7544.9654 6.466 1.5845 10.3219 1.5853 16.5017.0058.4387-.1122.7439-.5096.7439-.9624v-1.1188c0-.5523.4477-1 1-1h1c.5523 0 1-.4477 1-1v-1.8487c0-.5523-.4477-1-1-1h-1c-.5523 0-1-.4477-1-1v-.6545c0-.635-.585-1.1084-1.2084-.9871-5.9034 1.1492-9.6831 1.1352-15.5858-.0032zm2.7942 3.7583c0-.5523-.4477-1-1-1s-1 .4477-1 1v3c0 .5523.4477 1 1 1s1-.4477 1-1z"/></g></svg>