<svg fill="none" height="48" viewBox="0 0 48 48" width="48" xmlns="http://www.w3.org/2000/svg"><path clip-rule="evenodd" d="m16.7155 15.074c1.1799 1.2863 3.1733 1.838 6.8265 1.9162.2083-2.7591 1.271-4.9325 2.8437-6.458 1.7482-1.6957 4.0666-2.5322 6.3666-2.5322 2.2999 0 4.6183.8365 6.3665 2.5322 1.76 1.7071 2.8812 4.2254 2.8812 7.4678v11c0 3.0823-.5133 6.3013-2.0665 8.7808-1.5984 2.5518-4.2384 4.2192-8.1903 4.2192-4.041 0-6.8547-2.3981-9.4274-4.6179l-.112-.0966c-2.5907-2.2358-5.0046-4.319-8.4369-4.7853-1.6831.0128-2.8161.5271-3.6071 1.2312-.82037.7301-1.34943 1.7337-1.6797 2.8116-.32963 1.0757-.44367 2.1692-.47219 3.0067-.01415.4155-.00701.7604.00341.9984.0052.1188.0112.2105.01569.2705.00225.03.00412.052.00532.0655l.00126.0138.00011.0012c-.00003-.0003-.00007-.0007-.99489.1009-.99483.1016-.99487.1012-.99492.1007l-.00011-.0011-.00029-.0029-.00081-.0084-.00248-.0269c-.002-.0225-.00463-.0538-.0076-.0934-.00593-.0791-.0132-.1915-.01937-.3325-.01232-.2815-.02033-.6788-.00416-1.1539.03214-.9438.16068-2.2253.55879-3.5246.39748-1.2971 1.08132-2.6685 2.26224-3.7196 1.2002-1.0683 2.8382-1.7374 5.0009-1.7374.503 0 .9769.0114 1.4322.0224.846.0204 1.6278.0392 2.4123-.0196 1.1546-.0865 2.1069-.3382 2.8938-.928 1.5062-1.1289 2.8118-3.8241 2.927-10.5847-3.719-.077-6.4804-.63-8.2546-2.5641-.9636-1.0505-1.5585-2.4251-1.9173-4.1258-.3575-1.6945-.4934-3.77521-.4934-6.3002h2c0 2.47501.1353 4.3943.4503 5.8873.3137 1.4868.7925 2.4872 1.4342 3.1867zm23.2845 11.1666v-8.2406c0-2.7576-.9407-4.7393-2.2737-6.0322-1.3446-1.3043-3.1501-1.9678-4.974-1.9678s-3.6294.6635-4.9741 1.9678c-1.3329 1.2929-2.2736 3.2746-2.2736 6.0322 0 2.7689-.1783 5.0401-.5249 6.8953 3.3382-1.8045 5.8691-.5194 8.2524.6908 2.2078 1.121 4.2889 2.1777 6.7679.6545z" fill="#333" fill-rule="evenodd"/></svg>