<svg fill="none" height="48" viewBox="0 0 48 48" width="48" xmlns="http://www.w3.org/2000/svg"><path clip-rule="evenodd" d="m20.9591 9.2814c-4.3373-2.44124-8.1799-1.29333-11.37376 2.5843-3.08256 3.7426-.98089 10.4887.52996 15.3382.3602 1.1563.6869 2.2048.9016 3.079 1.1155 4.5408 2.1827 7.3703 4.6162 9.4181 1.2052 1.014 2.5717-.7286 4.0134-2.5672 1.25-1.594 2.5565-3.2601 3.8633-3.2641 1.2856-.0039 2.5714 1.6596 3.804 3.2542 1.4228 1.8407 2.7748 3.5896 3.9736 2.5771 1.8587-1.5699 2.7029-2.7217 3.7242-5.956 1.1138-3.5271 2.9122-7.745 4.342-12.607 1.006-3.4209 1.1265-6.9035-1.7728-10.2653-4.1394-4.79955-9.8768-2.32047-12.5476-.7331l3.6176 3.1012c.4193.3594.4679.9907.1084 1.41-.3594.4193-.9907.4679-1.41.1084z" fill="#333" fill-rule="evenodd"/></svg>