<svg fill="none" height="48" viewBox="0 0 48 48" width="48" xmlns="http://www.w3.org/2000/svg"><path clip-rule="evenodd" d="m10 29c0-1.6569 1.3431-3 3-3h22c1.6569 0 3 1.3431 3 3v12c0 1.6569-1.3431 3-3 3h-22c-1.6569 0-3-1.3431-3-3zm8.75 2c.6904 0 1.25.5596 1.25 1.25 0 .3701-.1596.7016-.4169.9319-.0095.0085-.0188.0172-.028.026l-5.25 5.073c-.2931.2832-.385.716-.2322 1.0938.1527.3779.5195.6253.9271.6253h6c.5523 0 1-.4477 1-1s-.4477-1-1-1h-3.526l3.4584-3.3417c.6543-.5933 1.0676-1.4532 1.0676-2.4083 0-1.7949-1.4551-3.25-3.25-3.25h-1.5c-1.4166 0-2.6191.9058-3.0648 2.1668-.1841.5207.0889 1.092.6096 1.276.5207.1841 1.092-.0888 1.2761-.6096.172-.4868.6364-.8332 1.1791-.8332zm14.0026.7739c.3682-.4116.333-1.0438-.0787-1.412-.7322-.655-1.6281-1.1033-2.5953-1.2957-1.0676-.2123-2.1741-.1033-3.1798.3132-1.0056.4165-1.8651 1.1219-2.4698 2.027-.6048.905-.9276 1.9691-.9276 3.0576 0 1.0884.3228 2.1525.9276 3.0575.6047.9051 1.4642 1.6105 2.4698 2.027 1.0057.4166 2.1122.5256 3.1798.3132.9672-.1924 1.8631-.6407 2.5953-1.2957.2121-.1897.3334-.4608.3334-.7453v-3.3567c0-.5523-.4478-1-1-1h-3.0024c-.5523 0-1 .4477-1 1 0 .5522.4477 1 1 1h2.0024v1.8749c-.3945.2747-.8431.4666-1.3189.5612-.6796.1352-1.384.0658-2.0242-.1993-.6402-.2652-1.1873-.7143-1.5723-1.2904-.385-.5762-.5905-1.2535-.5905-1.9464 0-.693.2055-1.3703.5905-1.9465.385-.5761.9321-1.0252 1.5723-1.2903.6402-.2652 1.3446-.3346 2.0242-.1994.6157.1225 1.186.4079 1.6522.8248.4116.3682 1.0438.333 1.412-.0787z" fill="#333" fill-rule="evenodd"/><g stroke="#333" stroke-width="2"><path d="m33.1924 4.80762c1.2071 1.20716 2.1647 2.64027 2.818 4.2175.6533 1.57728.9896 3.26768.9896 4.97488s-.3363 3.3977-.9896 4.9749-1.6109 3.0103-2.818 4.2175"/><path d="m28.9497 9.05029c.65.65001 1.1657 1.42171 1.5174 2.27101.3518.8492.5329 1.7595.5329 2.6787 0 .9193-.1811 1.8295-.5329 2.6788-.3517.8493-.8674 1.621-1.5174 2.271"/><path d="m19.0503 18.9498c-.6501-.65-1.1657-1.4217-1.5175-2.271-.3517-.8493-.5328-1.7595-.5328-2.6788 0-.9192.1811-1.8295.5328-2.6787.3518-.8493.8674-1.621 1.5175-2.27101"/><path d="m14.8076 23.1924c-1.2072-1.2072-2.1647-2.6403-2.818-4.2175s-.9896-3.2677-.9896-4.9749.3363-3.3976.9896-4.97488c.6533-1.57723 1.6109-3.01034 2.818-4.2175"/></g><circle cx="24" cy="14" fill="#333" r="2"/></svg>