<svg fill="none" height="48" viewBox="0 0 48 48" width="48" xmlns="http://www.w3.org/2000/svg"><g fill="#333"><path d="m12.9134 9.40788c.6031-1.45591 1.487-2.77878 2.6013-3.89308l-1.4142-1.41421c-1.3 1.30002-2.3312 2.84336-3.0348 4.54192-.7036 1.69859-1.0657 3.51909-1.0657 5.35759s.3621 3.659 1.0657 5.3575c.7036 1.6986 1.7348 3.242 3.0348 4.542l1.4142-1.4142c-1.1143-1.1143-1.9982-2.4372-2.6013-3.8931-.603-1.4559-.9134-3.0164-.9134-4.5922 0-1.5759.3104-3.1363.9134-4.59222z"/><path d="m32.4853 5.5148c1.1143 1.1143 1.9982 2.43717 2.6013 3.89308.603 1.45592.9134 3.01632.9134 4.59222 0 1.5758-.3104 3.1363-.9134 4.5922-.6031 1.4559-1.487 2.7788-2.6013 3.8931l1.4142 1.4142c1.3-1.3 2.3313-2.8434 3.0348-4.5419.7036-1.6986 1.0657-3.5191 1.0657-5.3576s-.3621-3.659-1.0657-5.35759c-.7035-1.69855-1.7348-3.2419-3.0348-4.54192z"/><path d="m28.2426 9.75748c.5572.55712.9992 1.21862 1.3007 1.94652.3015.728.4567 1.5082.4567 2.2961s-.1552 1.5682-.4567 2.2961c-.3015.728-.7435 1.3894-1.3007 1.9466l1.4143 1.4142c.7428-.7429 1.3321-1.6248 1.7341-2.5954.4021-.9706.609-2.0109.609-3.0615s-.2069-2.0908-.609-3.0615c-.402-.97056-.9913-1.85247-1.7341-2.59534z"/><path d="m19.7574 9.75748c-.5572.55712-.9991 1.21862-1.3007 1.94652-.3015.728-.4567 1.5082-.4567 2.2961s.1552 1.5682.4567 2.2961c.3016.728.7435 1.3894 1.3007 1.9466l-1.4143 1.4142c-.7428-.7429-1.3321-1.6248-1.7341-2.5954-.4021-.9706-.609-2.0109-.609-3.0615s.2069-2.0908.609-3.0615c.402-.97056.9913-1.85247 1.7341-2.59534z"/><path d="m26 14c0 1.1046-.8954 2-2 2s-2-.8954-2-2 .8954-2 2-2 2 .8954 2 2z"/><path clip-rule="evenodd" d="m13 26c-1.6569 0-3 1.3431-3 3v12c0 1.6569 1.3431 3 3 3h22c1.6569 0 3-1.3431 3-3v-12c0-1.6569-1.3431-3-3-3zm7 6.25c0-.6701-.5612-1.25-1.2991-1.25h-1.5327c-.5775 0-1.0544.36-1.2277.8397-.1876.5194-.7607.7884-1.2802.6008-.5194-.1876-.7884-.7607-.6008-1.2802.4579-1.2681 1.6842-2.1603 3.1087-2.1603h1.5327c1.8016 0 3.2991 1.4349 3.2991 3.25 0 .8792-.3513 1.6691-.9183 2.25.567.5809.9183 1.3708.9183 2.25 0 1.8151-1.4975 3.25-3.2991 3.25h-1.5327c-1.4245 0-2.6508-.8922-3.1087-2.1603-.1876-.5195.0814-1.0926.6008-1.2802.5195-.1876 1.0926.0814 1.2802.6008.1733.4797.6502.8397 1.2277.8397h1.5327c.7379 0 1.2991-.5799 1.2991-1.25s-.5612-1.25-1.2991-1.25h-1.5327c-.5522 0-1-.4477-1-1s.4478-1 1-1h1.5327c.7379 0 1.2991-.5799 1.2991-1.25zm12.6739-1.8881c.4117.3682.4469 1.0004.0787 1.412-.3682.4117-1.0004.4469-1.412.0787-.4662-.417-1.0365-.7024-1.6522-.8248-.6796-.1352-1.384-.0658-2.0242.1993-.6402.2652-1.1873.7143-1.5723 1.2904s-.5905 1.2535-.5905 1.9464c0 .693.2055 1.3703.5905 1.9465.385.5761.9321 1.0252 1.5723 1.2903.6402.2652 1.3446.3346 2.0242.1994.4758-.0946.9244-.2865 1.3189-.5612v-1.875h-2.0024c-.5523 0-1-.4477-1-1 0-.5522.4477-1 1-1h3.0024c.5522 0 1 .4478 1 1v3.3567c0 .2846-.1213.5557-.3334.7454-.7322.655-1.6281 1.1033-2.5953 1.2957-1.0676.2123-2.1741.1033-3.1798-.3132-1.0056-.4165-1.8651-1.1219-2.4698-2.027-.6048-.905-.9276-1.9691-.9276-3.0576 0-1.0884.3228-2.1525.9276-3.0575.6047-.9051 1.4642-1.6105 2.4698-2.027 1.0057-.4166 2.1122-.5256 3.1798-.3132.9672.1924 1.8631.6407 2.5953 1.2957z" fill-rule="evenodd"/></g></svg>