<svg fill="none" height="48" viewBox="0 0 48 48" width="48" xmlns="http://www.w3.org/2000/svg"><g fill="#333"><path d="m19 21c0-1.6569 1.3431-3 3-3h4c1.6569 0 3 1.3431 3 3v18c0 1.6569-1.3431 3-3 3h-4c-1.6569 0-3-1.3431-3-3z"/><path d="m6 33c0-1.6569 1.34315-3 3-3h4c1.6569 0 3 1.3431 3 3v6c0 1.6569-1.3431 3-3 3h-4c-1.65685 0-3-1.3431-3-3z"/><path clip-rule="evenodd" d="m32 9c0-1.65685 1.3431-3 3-3h4c1.6569 0 3 1.34315 3 3v30c0 1.6569-1.3431 3-3 3h-4c-1.6569 0-3-1.3431-3-3zm3-1c-.5523 0-1 .44772-1 1v30c0 .5523.4477 1 1 1h4c.5523 0 1-.4477 1-1v-30c0-.55228-.4477-1-1-1z" fill-rule="evenodd"/></g></svg>