<svg fill="none" height="48" viewBox="0 0 48 48" width="48" xmlns="http://www.w3.org/2000/svg"><g fill="#333"><g clip-rule="evenodd" fill-rule="evenodd"><path d="m35.0866 9.40788c-.6031-1.45591-1.487-2.77878-2.6013-3.89308l1.4142-1.41421c1.3 1.30002 2.3312 2.84337 3.0348 4.54192.7036 1.69859 1.0657 3.51909 1.0657 5.35759s-.3621 3.659-1.0657 5.3576c-.7036 1.6985-1.7348 3.2419-3.0348 4.5419l-1.4142-1.4142c1.1143-1.1143 1.9982-2.4372 2.6013-3.8931.603-1.4559.9134-3.0164.9134-4.5922 0-1.5759-.3104-3.1363-.9134-4.59222z"/><path d="m29.5433 11.704c-.3016-.7279-.7435-1.3894-1.3007-1.94652l1.4143-1.41422c.7428.74287 1.3321 1.62478 1.7341 2.59534.4021.9707.609 2.0109.609 3.0615s-.2069 2.0909-.609 3.0615c-.402.9706-.9913 1.8525-1.7341 2.5954l-1.4143-1.4142c.5572-.5572.9991-1.2186 1.3007-1.9466.3015-.7279.4567-1.5082.4567-2.2961s-.1552-1.5681-.4567-2.2961z"/><path d="m19.7574 9.75748c-.5572.55712-.9991 1.21862-1.3007 1.94652-.3015.728-.4567 1.5082-.4567 2.2961s.1552 1.5682.4567 2.2961c.3016.728.7435 1.3894 1.3007 1.9466l-1.4143 1.4142c-.7428-.7429-1.3321-1.6248-1.7341-2.5954-.4021-.9706-.609-2.0109-.609-3.0615s.2069-2.0908.609-3.0615c.402-.97056.9913-1.85247 1.7341-2.59534z"/><path d="m15.5147 5.5148c-1.1143 1.1143-1.9982 2.43717-2.6013 3.89308-.603 1.45592-.9134 3.01632-.9134 4.59222 0 1.5758.3104 3.1363.9134 4.5922.6031 1.4559 1.487 2.7788 2.6013 3.8931l-1.4142 1.4142c-1.3-1.3-2.3312-2.8434-3.0348-4.542-.7036-1.6985-1.0657-3.519-1.0657-5.3575s.3621-3.659 1.0657-5.35759c.7036-1.69856 1.7348-3.2419 3.0348-4.54192z"/></g><path d="m26 14.0001c0 1.1045-.8954 2-2 2s-2-.8955-2-2c0-1.1046.8954-2 2-2s2 .8954 2 2z"/><path clip-rule="evenodd" d="m10 29.0001c0-1.6569 1.3431-3 3-3h22c1.6569 0 3 1.3431 3 3v12c0 1.6568-1.3431 3-3 3h-22c-1.6569 0-3-1.3432-3-3zm12 1c0-.5523-.4477-1-1-1h-5.25c-.4767 0-.8871.3364-.9806.8039l-.75 3.75c-.0793.3966.0881.8019.4242 1.027.336.225.7746.2255 1.1111.0011.211-.1406 1.1431-.582 2.4453-.582 1.1046 0 2 .8954 2 2 0 1.1045-.8954 2-2 2h-.8318c-.5775 0-1.0544-.36-1.2277-.8397-.1876-.5195-.7607-.7885-1.2802-.6009-.5194.1876-.7884.7608-.6008 1.2803.4579 1.2681 1.6842 2.1603 3.1087 2.1603h.8318c2.2091 0 4-1.7909 4-4 0-2.2092-1.7909-4-4-4-.6109 0-1.1726.0723-1.6665.1816l.2363-1.1816h4.4302c.5523 0 1-.4477 1-1zm10.7526 1.7739c.3682-.4117.333-1.0438-.0787-1.412-.7322-.655-1.6281-1.1033-2.5953-1.2957-1.0676-.2124-2.1741-.1034-3.1798.3132-1.0056.4165-1.8651 1.1219-2.4698 2.0269-.6048.9051-.9276 1.9691-.9276 3.0576s.3228 2.1525.9276 3.0576c.6047.905 1.4642 1.6104 2.4698 2.027 1.0057.4165 2.1122.5255 3.1798.3132.9672-.1924 1.8631-.6408 2.5953-1.2957.2121-.1897.3334-.4608.3334-.7454v-3.3567c0-.5523-.4478-1-1-1h-3.0024c-.5523 0-1 .4477-1 1s.4477 1 1 1h2.0024v1.8749c-.3945.2747-.8431.4666-1.3189.5613-.6796.1352-1.384.0658-2.0242-.1994s-1.1873-.7142-1.5723-1.2904c-.385-.5761-.5905-1.2535-.5905-1.9464s.2055-1.3703.5905-1.9464c.385-.5762.9321-1.0252 1.5723-1.2904s1.3446-.3345 2.0242-.1994c.6157.1225 1.186.4079 1.6522.8249.4116.3682 1.0438.3329 1.412-.0787z" fill-rule="evenodd"/></g></svg>