<svg fill="none" height="48" viewBox="0 0 48 48" width="48" xmlns="http://www.w3.org/2000/svg"><g clip-rule="evenodd" fill="#333" fill-rule="evenodd"><path d="m21 11.8182c0-1.644 1.435-2.8182 3-2.8182s3 1.1742 3 2.8182v16.3636c0 1.644-1.435 2.8182-3 2.8182s-3-1.1742-3-2.8182zm3-.8182c-.6441 0-1 .4539-1 .8182v16.3636c0 .3643.3559.8182 1 .8182s1-.4539 1-.8182v-16.3636c0-.3643-.3559-.8182-1-.8182z"/><path d="m24 35c-.5523 0-1 .4477-1 1s.4477 1 1 1 1-.4477 1-1-.4477-1-1-1zm-3 1c0-1.6569 1.3431-3 3-3s3 1.3431 3 3-1.3431 3-3 3-3-1.3431-3-3z"/></g></svg>