<svg fill="none" height="48" viewBox="0 0 48 48" width="48" xmlns="http://www.w3.org/2000/svg"><path clip-rule="evenodd" d="m13 18c0-4.9706 4.0294-9 9-9h4c2.3033 0 4.4106.86913 6.0007 2.2924 1.8363 1.6435 2.9993 4.0416 2.9993 6.7076v12c0 4.9706-4.0294 9-9 9h-4c-2.666 0-5.0641-1.163-6.7076-2.9993-1.4233-1.5901-2.2924-3.6974-2.2924-6.0007zm9-7c-3.866 0-7 3.134-7 7v12c0 1.7921.6747 3.4291 1.7827 4.6669 1.2804 1.4307 3.1442 2.3331 5.2173 2.3331h4c3.866 0 7-3.134 7-7v-12c0-2.0731-.9024-3.9369-2.3331-5.2173-1.2378-1.108-2.8748-1.7827-4.6669-1.7827zm0 4c-1.6569 0-3 1.3431-3 3v7.8173l6.5902-10.8173zm-5 3c0-2.7614 2.2386-5 5-5h4c.5437 0 1.0687.0867 1.5613.2483.2901.0953.5208.3178.6264.6042.1056.2865.0746.6055-.0842.8663l-9.2495 15.1823c-.2332.3828-.6926.5636-1.1242.4425-.4315-.1211-.7298-.5146-.7298-.9628zm13.1631-1.543c.4137.0855.7291.4217.7879.8401.0324.2302.049.4649.049.7029v12c0 2.7614-2.2386 5-5 5h-4c-.8341 0-1.6232-.2042-2.3179-.5683-.2448-.1283-.4256-.3522-.4994-.6185-.0739-.2664-.0342-.5514.1096-.7875l9.8144-16.1096c.2198-.3608.6427-.5446 1.0564-.4591zm-8.5018 16.5243c.111.0123.224.0187.3387.0187h4c1.6569 0 3-1.3431 3-3v-9.0646z" fill="#333" fill-rule="evenodd"/></svg>