<svg fill="none" height="48" viewBox="0 0 48 48" width="48" xmlns="http://www.w3.org/2000/svg"><path clip-rule="evenodd" d="m24.8787 9.87877c.858-.858 2.1483-1.11466 3.2694-.65032 1.121.46434 1.8519 1.55825 1.8519 2.77165v24c0 1.6568-1.3431 3-3 3s-3-1.3432-3-3v-16.7638c-1.1779 1.0553-2.9894 1.0171-4.1213-.1149-1.1716-1.1716-1.1716-3.0711 0-4.2426zm2.504 1.19743c-.3737-.1548-.8038-.0692-1.0898.2168l-5 5c-.3905.3905-.3905 1.0237 0 1.4142s1.0237.3905 1.4142 0l1.5858-1.5858c.286-.286.7161-.3715 1.0898-.2168.3737.1548.6173.5195.6173.9239v19.1716c0 .5523.4477 1 1 1s1-.4477 1-1v-24c0-.4045-.2436-.7691-.6173-.9239z" fill="#333" fill-rule="evenodd"/></svg>