<svg fill="none" height="48" viewBox="0 0 48 48" width="48" xmlns="http://www.w3.org/2000/svg"><path clip-rule="evenodd" d="m35 18c0-4.9706-4.0294-9-9-9h-4c-3.9239 0-7.2532 2.5093-8.4871 6.0003-.5521 1.5621.2666 3.2761 1.8288 3.8282 1.5621.5522 3.2761-.2666 3.8282-1.8288.4129-1.1682 1.5275-1.9997 2.8301-1.9997h4c1.6569 0 3 1.3431 3 3 0 .8886-.3825 1.6835-1.0007 2.2368-.0285.0255-.0565.0515-.0839.078l-14 13.5278c-.8793.8497-1.155 2.148-.6968 3.2816.4582 1.1337 1.5586 1.8758 2.7814 1.8758h16c1.6569 0 3-1.3431 3-3s-1.3431-3-3-3h-8.578l8.6256-8.3346c1.8092-1.6422 2.9524-4.0222 2.9524-6.6654zm-9-7c3.866 0 7 3.134 7 7 0 2.0602-.8912 3.9137-2.3065 5.1934-.0081.0074-.0162.0149-.0241.0226l-10.4162 10.0649c-.2932.2832-.385.716-.2323 1.0938.1527.3779.5195.6253.9271.6253h11.052c.5523 0 1 .4477 1 1s-.4477 1-1 1h-16c-.4076 0-.7744-.2474-.9271-.6253-.1528-.3778-.0609-.8106.2322-1.0938l14-13.5278-.6948-.7191.6948.7191c.0092-.0089.0185-.0175.028-.026 1.0248-.9173 1.6669-2.2468 1.6669-3.7271 0-2.7614-2.2386-5-5-5h-4c-2.1744 0-4.0285 1.3889-4.7157 3.3332-.1841.5208-.7554.7937-1.2761.6096-.5208-.184-.7937-.7553-.6096-1.276.9606-2.718 3.5525-4.6668 6.6014-4.6668z" fill="#333" fill-rule="evenodd"/></svg>