<svg fill="none" height="48" viewBox="0 0 48 48" width="48" xmlns="http://www.w3.org/2000/svg"><path clip-rule="evenodd" d="m35 18c0-5.0327-4.1509-9-9.1308-9h-4.0872c-3.9399 0-7.3349 2.468-8.6036 5.981-.5628 1.5583.2442 3.2778 1.8026 3.8406 1.5583.5628 3.2778-.2442 3.8406-1.8026.4145-1.1475 1.5612-2.019 2.9604-2.019h4.0872c1.7874 0 3.1308 1.4008 3.1308 3s-1.3434 3-3.1308 3h-4.0872c-1.6569 0-3 1.3431-3 3s1.3431 3 3 3h4.0872c1.7874 0 3.1308 1.4008 3.1308 3s-1.3434 3-3.1308 3h-4.0872c-1.3992 0-2.5459-.8715-2.9604-2.019-.5628-1.5584-2.2823-2.3654-3.8406-1.8026-1.5584.5628-2.3654 2.2823-1.8026 3.8406 1.2687 3.513 4.6637 5.981 8.6036 5.981h4.0872c4.9799 0 9.1308-3.9673 9.1308-9 0-2.3187-.8846-4.4162-2.3244-6 1.4398-1.5838 2.3244-3.6813 2.3244-6zm-9.1308-7c3.9193 0 7.1308 3.1153 7.1308 7 0 2.0978-.9317 3.9644-2.4082 5.2444-.2191.19-.3449.4656-.3449.7556s.1258.5656.3449.7556c1.4765 1.28 2.4082 3.1466 2.4082 5.2444 0 3.8847-3.2115 7-7.1308 7h-4.0872c-3.0928 0-5.7385-1.9356-6.7225-4.6603-.1876-.5195.0814-1.0926.6008-1.2802.5195-.1876 1.0926.0814 1.2802.6008.6994 1.9363 2.5957 3.3397 4.8415 3.3397h4.0872c2.8572 0 5.1308-2.2618 5.1308-5s-2.2736-5-5.1308-5h-4.0872c-.5523 0-1-.4477-1-1s.4477-1 1-1h4.0872c2.8572 0 5.1308-2.2618 5.1308-5s-2.2736-5-5.1308-5h-4.0872c-2.2458 0-4.1421 1.4034-4.8415 3.3397-.1876.5194-.7607.7884-1.2802.6008-.5194-.1876-.7884-.7607-.6008-1.2802.984-2.7247 3.6297-4.6603 6.7225-4.6603z" fill="#333" fill-rule="evenodd"/></svg>