<svg fill="none" height="48" viewBox="0 0 48 48" width="48" xmlns="http://www.w3.org/2000/svg"><path clip-rule="evenodd" d="m25.5039 10.3361c.7333-1.09994 2.1002-1.59024 3.3655-1.20714 1.2652.38309 2.1306 1.54924 2.1306 2.87124v15.0001h1c1.6569 0 3 1.3431 3 3 0 1.6568-1.3431 3-3 3h-1v2.9999c0 1.6569-1.3431 3-3 3-1.6568 0-3-1.3431-3-3v-2.9999h-9c-1.1064 0-2.123-.609-2.645-1.5845l.8755-.4685-.8755.4685c-.5221-.9754-.4649-2.1591.1489-3.0796zm2.7859.707c-.4218-.1277-.8774.0358-1.1218.4024l-12 18.0001c-.2046.3068-.2237.7014-.0497 1.0265.174.3252.5129.5282.8817.5282h10c.5523 0 1 .4477 1 1v3.9999c0 .5523.4477 1 1 1s1-.4477 1-1v-3.9999c0-.5523.4477-1 1-1h2c.5523 0 1-.4478 1-1 0-.5523-.4477-1-1-1h-2c-.5523 0-1-.4478-1-1v-16.0001c0-.4406-.2885-.8294-.7102-.9571zm-2 6.6056c.4217.1277.7102.5164.7102.9571v9.3945c0 .5522-.4477 1-1 1h-6.263c-.3688 0-.7076-.203-.8816-.5282-.1741-.3251-.155-.7197.0496-1.0265l6.263-9.3945c.2444-.3667.7-.5301 1.1218-.4024zm-4.6842 9.3516h3.3944v-5.0917z" fill="#333" fill-rule="evenodd"/></svg>