<svg fill="none" height="48" viewBox="0 0 48 48" width="48" xmlns="http://www.w3.org/2000/svg"><path clip-rule="evenodd" d="m35 12c0-1.6569-1.3431-3-3-3h-14c-1.4301 0-2.6613 1.0094-2.9418 2.4117l-2 10c-.2379 1.1898.2643 2.4058 1.2724 3.081 1.0082.6751 2.3238.6765 3.3334.0035.5081-.3387 2.9292-1.4962 6.336-1.4962 2.7614 0 5 2.2386 5 5s-2.2386 5-5 5h-2.2181c-1.3991 0-2.5459-.8715-2.9603-2.019-.5628-1.5584-2.2823-2.3654-3.8407-1.8026-1.5583.5628-2.3654 2.2823-1.8026 3.8406 1.2688 3.513 4.6637 5.981 8.6036 5.981h2.2181c6.0751 0 11-4.9249 11-11s-4.9249-11-11-11c-1.4558 0-2.8066.1515-4.0183.3885l.4777-2.3885h11.5406c1.6569 0 3-1.3431 3-3zm-3-1c.5523 0 1 .4477 1 1s-.4477 1-1 1h-12.3604c-.4767 0-.8871.3365-.9806.8039l-.9439 4.7194c-.0682.3408.0455.6926.3003.9291.2547.2364.614.3236.9488.2303 1.4112-.3933 3.1224-.6827 5.0358-.6827 4.9706 0 9 4.0294 9 9s-4.0294 9-9 9h-2.2181c-3.0928 0-5.7384-1.9356-6.7225-4.6603-.1876-.5195.0814-1.0926.6009-1.2802.5194-.1876 1.0926.0814 1.2802.6008.6993 1.9363 2.5957 3.3397 4.8414 3.3397h2.2181c3.866 0 7-3.134 7-7s-3.134-7-7-7c-3.8022 0-6.6093 1.2747-7.4453 1.8321-.3366.2243-.7751.2238-1.1112-.0012-.336-.2251-.5034-.6304-.4241-1.027l2-10c.0935-.4674.5039-.8039.9806-.8039z" fill="#333" fill-rule="evenodd"/></svg>