<svg fill="none" height="48" viewBox="0 0 48 48" width="48" xmlns="http://www.w3.org/2000/svg"><path clip-rule="evenodd" d="m13 12c0-1.6569 1.3431-3 3-3h16c1.173 0 2.2383.68361 2.7271 1.7499.4888 1.0662.3113 2.3196-.4543 3.2082-1.7077 1.9822-4.2706 5.6009-6.5581 9.8016-2.303 4.2292-4.1803 8.7831-4.7459 12.6721-.2385 1.6396-1.761 2.7754-3.4006 2.537-1.6396-.2385-2.7754-1.761-2.537-3.4006.7143-4.9109 2.9704-10.1903 5.4141-14.6779 1.1555-2.122 2.3839-4.1229 3.57-5.8903h-10.0153c-1.6569 0-3-1.3431-3-3zm3-1c-.5523 0-1 .4477-1 1s.4477 1 1 1h11.9223c.3745 0 .7175.2092.889.542.1715.3329.1426.7336-.0747 1.0385-1.4619 2.0506-3.0596 4.5572-4.5348 7.2663-2.3968 4.4013-4.5266 9.4389-5.1914 14.0093-.0795.5465.2991 1.054.8457 1.1335.5465.0795 1.054-.2991 1.1335-.8457.6152-4.2297 2.6188-9.0255 4.9686-13.3407 2.3448-4.3058 4.9857-8.0453 6.7994-10.1505.2552-.2962.3144-.714.1514-1.0694-.1629-.3554-.518-.5833-.909-.5833z" fill="#333" fill-rule="evenodd"/></svg>