<svg fill="none" height="48" viewBox="0 0 48 48" width="48" xmlns="http://www.w3.org/2000/svg"><path clip-rule="evenodd" d="m35 18c0-4.986-4.0593-9-9.0321-9h-3.9358c-4.9728 0-9.0321 4.014-9.0321 9 0 2.3085.8718 4.4104 2.2998 6-1.428 1.5896-2.2998 3.6915-2.2998 6 0 4.986 4.0593 9 9.0321 9h3.9358c4.9728 0 9.0321-4.014 9.0321-9 0-2.3085-.8717-4.4104-2.2998-6 1.4281-1.5896 2.2998-3.6915 2.2998-6zm-9.0321-7c3.8791 0 7.0321 3.1294 7.0321 7 0 2.0924-.9193 3.9657-2.3794 5.2488-.2161.1899-.34.4636-.34.7512s.1239.5613.34.7512c1.4601 1.2831 2.3794 3.1564 2.3794 5.2488 0 3.8706-3.153 7-7.0321 7h-3.9358c-3.879 0-7.0321-3.1294-7.0321-7 0-2.0924.9193-3.9657 2.3795-5.2488.2161-.1899.3399-.4636.3399-.7512s-.1238-.5613-.3399-.7512c-1.4602-1.2831-2.3795-3.1564-2.3795-5.2488 0-3.8706 3.1531-7 7.0321-7zm0 4c1.6889 0 3.0321 1.3575 3.0321 3s-1.3432 3-3.0321 3h-3.9358c-1.6889 0-3.0321-1.3575-3.0321-3s1.3432-3 3.0321-3zm5.0321 3c0-2.7556-2.2471-5-5.0321-5h-3.9358c-2.7849 0-5.0321 2.2444-5.0321 5s2.2472 5 5.0321 5h3.9358c2.785 0 5.0321-2.2444 5.0321-5zm-5.0321 9c1.6889 0 3.0321 1.3575 3.0321 3s-1.3432 3-3.0321 3h-3.9358c-1.6889 0-3.0321-1.3575-3.0321-3s1.3432-3 3.0321-3zm5.0321 3c0-2.7556-2.2471-5-5.0321-5h-3.9358c-2.7849 0-5.0321 2.2444-5.0321 5s2.2472 5 5.0321 5h3.9358c2.785 0 5.0321-2.2444 5.0321-5z" fill="#333" fill-rule="evenodd"/></svg>