<svg fill="none" height="48" viewBox="0 0 48 48" width="48" xmlns="http://www.w3.org/2000/svg"><path clip-rule="evenodd" d="m13.5164 33.0045c1.2425 3.4966 4.588 5.9955 8.5157 5.9955h3.9358c4.9728 0 9.0321-4.014 9.0321-9v-12c0-4.986-4.0593-9-9.0321-9h-3.9358c-4.9728 0-9.0321 4.014-9.0321 9s4.0593 9 9.0321 9h3.9358c1.062 0 2.0832-.1833 3.0321-.5203v3.5203c0 1.6425-1.3432 3-3.0321 3h-3.9358c-1.3264 0-2.4488-.8415-2.862-2.0045-.5548-1.5612-2.2701-2.3771-3.8314-1.8223-1.5612.5547-2.3771 2.2701-1.8223 3.8313zm8.5157 3.9955c-3.0596 0-5.6647-1.9455-6.6311-4.6652-.185-.5204.087-1.0922.6074-1.2771s1.0922.0871 1.2771.6075c.6902 1.9423 2.5547 3.3348 4.7466 3.3348h3.9358c2.7849 0 5.0321-2.2444 5.0321-5v-5.0799c0-.3575-.1909-.6878-.5006-.8664-.3098-.1785-.6912-.1781-1.0006.001-1.0378.6011-2.2434.9453-3.5309.9453h-3.9358c-3.8791 0-7.0321-3.1294-7.0321-7s3.153-7 7.0321-7h3.9358c3.879 0 7.0321 3.1294 7.0321 7v12c0 3.8706-3.1531 7-7.0321 7zm0-16c-1.6889 0-3.0321-1.3575-3.0321-3s1.3432-3 3.0321-3h3.9358c1.6889 0 3.0321 1.3575 3.0321 3s-1.3432 3-3.0321 3zm-5.0321-3c0 2.7556 2.2472 5 5.0321 5h3.9358c2.7849 0 5.0321-2.2444 5.0321-5s-2.2472-5-5.0321-5h-3.9358c-2.7849 0-5.0321 2.2444-5.0321 5z" fill="#333" fill-rule="evenodd"/></svg>