<svg fill="none" height="48" viewBox="0 0 48 48" width="48" xmlns="http://www.w3.org/2000/svg"><g clip-rule="evenodd" fill="#333" fill-rule="evenodd"><path d="m24.1188 9.00123c-.0288-.00082-.0577-.00123-.0867-.00123h-.0642c-.0289 0-.0578.00041-.0866.00123-4.9039.08031-8.8813 4.06327-8.8813 8.99877 0 1.6569 1.3432 3 3 3 1.6569 0 3-1.3431 3-3 0-1.6321 1.3263-2.9828 3-2.9998 1.6737.017 3 1.3677 3 2.9998 0 1.6425-1.3432 3-3.0321 3-1.6568 0-3 1.3431-3 3v4c0 1.6569 1.3432 3 3 3 1.6569 0 3-1.3431 3-3v-1.509c3.506-1.2305 6.0321-4.5578 6.0321-8.491 0-4.9355-3.9774-8.91846-8.8812-8.99877zm-.0867 1.99877c.0109 0 .0217.0002.0325.0005l.0157.0004c3.8273.0596 6.9197 3.1659 6.9197 6.9991 0 3.2662-2.2451 6.0059-5.2796 6.7809-.4427.1131-.7525.5119-.7525.9689v2.2502c0 .5523-.4477 1-1 1s-1-.4477-1-1v-4c0-.5523.4477-1 1-1 2.785 0 5.0321-2.2444 5.0321-5 0-2.7425-2.2257-4.9785-4.9923-4.9998h-.0154c-2.7666.0213-4.9923 2.2573-4.9923 4.9998 0 .5523-.4477 1-1 1-.5522 0-1-.4477-1-1 0-3.8332 3.0925-6.9395 6.9197-6.9991l.0158-.0004c.0107-.0003.0215-.0005.0324-.0005z"/><path d="m24 35c-.5523 0-1 .4477-1 1s.4477 1 1 1 1-.4477 1-1-.4477-1-1-1zm-3 1c0-1.6569 1.3431-3 3-3s3 1.3431 3 3-1.3431 3-3 3-3-1.3431-3-3z"/></g></svg>