<svg fill="none" height="48" viewBox="0 0 48 48" width="48" xmlns="http://www.w3.org/2000/svg"><path clip-rule="evenodd" d="m21.2306 10.8462c.4658-1.11799 1.5581-1.8462 2.7692-1.8462s2.3034.72821 2.7692 1.8462l7.4789 17.9491c.0149.0341.0292.0685.0429.1032l2.4782 5.9477c.6373 1.5294-.0859 3.2858-1.6153 3.923-1.5294.6373-3.2859-.0859-3.9231-1.6154l-1.7308-4.1538h-11l-1.7308 4.1538c-.6372 1.5295-2.3936 2.2527-3.923 1.6154-1.5294-.6372-2.2527-2.3936-1.6154-3.923l2.4782-5.9477c.0137-.0347.028-.0691.0429-.1031zm2.7692.1538c-.4037 0-.7678.2427-.9231.6154l-7.4828 17.9587-.009.021c-.0061.0138-.0119.0277-.0174.0418l-.0086.0213-2.4822 5.9572c-.2124.5098.0287 1.0953.5385 1.3077s1.0953-.0287 1.3077-.5385l1.9872-4.7692c.1552-.3727.5193-.6154.923-.6154h12.3334c.4037 0 .7678.2427.9231.6154l1.9871 4.7692c.2124.5098.7979.7509 1.3077.5385s.7509-.7979.5385-1.3077l-2.4822-5.9572-.0085-.0213c-.0031-.0078-.0062-.0155-.0095-.0232-.0026-.0062-.0052-.0124-.008-.0186l-.009-.021-7.4828-17.9587c-.1553-.3727-.5194-.6154-.9231-.6154zm0 5.2c.4037 0 .7678.2427.9231.6154l4.5 10.8c.1286.3086.0944.6611-.091.9393-.1855.2782-.4977.4453-.8321.4453h-9c-.3343 0-.6466-.1671-.832-.4453-.1855-.2782-.2197-.6307-.0911-.9393l4.5-10.8c.1553-.3727.5194-.6154.9231-.6154zm-3 10.8h6l-3-7.2z" fill="#333" fill-rule="evenodd"/></svg>