<svg fill="none" height="48" viewBox="0 0 48 48" width="48" xmlns="http://www.w3.org/2000/svg"><path clip-rule="evenodd" d="m13 12c0-1.6569 1.3431-3 3-3h10c4.9706 0 9 4.0294 9 9 0 2.3051-.8675 4.4085-2.2917 6 1.4242 1.5915 2.2917 3.6949 2.2917 6 0 4.9706-4.0294 9-9 9h-10c-.7957 0-1.5587-.3161-2.1213-.8787s-.8787-1.3256-.8787-2.1213zm3-1c-.5523 0-1 .4477-1 1v24c0 .2652.1054.5196.2929.7071s.4419.2929.7071.2929h10c3.866 0 7-3.134 7-7 0-2.0906-.9152-3.9661-2.3701-5.2503-.2151-.1898-.3383-.4628-.3383-.7497s.1232-.5599.3383-.7497c1.4549-1.2842 2.3701-3.1597 2.3701-5.2503 0-3.866-3.134-7-7-7zm1 3c0-.5523.4477-1 1-1h8c2.7614 0 5 2.2386 5 5s-2.2386 5-5 5h-8c-.5523 0-1-.4477-1-1zm2 1v6h7c1.6569 0 3-1.3431 3-3s-1.3431-3-3-3zm-2 11c0-.5523.4477-1 1-1h8c2.7614 0 5 2.2386 5 5s-2.2386 5-5 5h-8c-.5523 0-1-.4477-1-1zm2 1v6h7c1.6569 0 3-1.3431 3-3s-1.3431-3-3-3z" fill="#333" fill-rule="evenodd"/></svg>