<svg fill="none" height="48" viewBox="0 0 48 48" width="48" xmlns="http://www.w3.org/2000/svg"><path clip-rule="evenodd" d="m18.2597 10.1418c2.7409-1.1353 5.7569-1.43235 8.6667-.85357 2.9097.57878 5.5824 2.00737 7.6802 4.10517 1.1716 1.1716 1.1716 3.0711 0 4.2426-1.1716 1.1716-3.0711 1.1716-4.2426 0-1.2587-1.2586-2.8624-2.1158-4.6082-2.4631-1.7458-.3472-3.5554-.169-5.1999.5122-1.6446.6812-3.0502 1.8347-4.0391 3.3148-.989 1.48-1.5168 3.2201-1.5168 5.0001s.5278 3.5201 1.5168 5.0001c.9889 1.4801 2.3945 2.6336 4.0391 3.3148 1.6445.6812 3.4541.8594 5.1999.5122 1.7458-.3473 3.3495-1.2045 4.6082-2.4631 1.1715-1.1716 3.071-1.1716 4.2426 0 1.1716 1.1715 1.1716 3.071 0 4.2426-2.0978 2.0978-4.7705 3.5264-7.6802 4.1052-2.9098.5788-5.9258.2817-8.6666-.8536-2.7409-1.1353-5.0836-3.0579-6.7318-5.5246-1.64826-2.4668-2.528-5.3669-2.528-8.3336s.87973-5.8668 2.528-8.3335c1.6482-2.4668 3.9909-4.3894 6.7317-5.5247zm8.2765 1.108c-2.5218-.5016-5.1356-.2442-7.5111.7398-2.3754.9839-4.4057 2.6502-5.8342 4.788s-2.1909 4.6512-2.1909 7.2224.7624 5.0846 2.1909 7.2224c1.4285 2.1379 3.4588 3.8041 5.8342 4.788 2.3755.984 4.9893 1.2414 7.5111.7398 2.5217-.5016 4.8381-1.7397 6.6562-3.5578.3905-.3905.3905-1.0237 0-1.4142s-1.0237-.3905-1.4142 0c-1.5384 1.5384-3.4984 2.586-5.6322 3.0104-2.1338.4245-4.3455.2066-6.3555-.6259-2.01-.8326-3.728-2.2425-4.9367-4.0514-1.2087-1.809-1.8538-3.9357-1.8538-6.1113s.6451-4.3023 1.8538-6.1113c1.2087-1.8089 2.9267-3.2188 4.9367-4.0514 2.01-.8325 4.2217-1.0504 6.3555-.6259 2.1338.4244 4.0938 1.4721 5.6322 3.0104.3905.3906 1.0237.3906 1.4142 0 .3905-.3905.3905-1.0237 0-1.4142-1.8181-1.8181-4.1345-3.0562-6.6562-3.5578z" fill="#333" fill-rule="evenodd"/></svg>