<svg fill="none" height="48" viewBox="0 0 48 48" width="48" xmlns="http://www.w3.org/2000/svg"><path clip-rule="evenodd" d="m24 7c-.5523 0-1 .44772-1 1v3h-1c-3.866 0-7 3.134-7 7s3.134 7 7 7h1v10h-1c-2.1744 0-4.0285-1.3889-4.7157-3.3332-.1841-.5208-.7554-.7937-1.2761-.6096-.5208.184-.7937.7553-.6096 1.276.9606 2.718 3.5525 4.6668 6.6014 4.6668h1v3c0 .5523.4477 1 1 1s1-.4477 1-1v-3h1c3.866 0 7-3.134 7-7s-3.134-7-7-7h-1v-10h1c2.1744 0 4.0285 1.3889 4.7157 3.3332.1841.5208.7554.7937 1.2761.6096.5208-.184.7937-.7553.6096-1.276-.9606-2.718-3.5525-4.6668-6.6014-4.6668h-1v-3c0-.55228-.4477-1-1-1zm-3 1c0-1.65685 1.3431-3 3-3s3 1.34314 3 3v1.0549c3.482.38476 6.3595 2.7551 7.4871 5.9454.5521 1.5621-.2666 3.2761-1.8288 3.8282-1.5621.5522-3.2761-.2666-3.8282-1.8288-.3019-.854-.9788-1.5282-1.8301-1.829v5.8842c4.5.4975 8 4.3125 8 8.9451s-3.5 8.4476-8 8.9451v1.0549c0 1.6569-1.3431 3-3 3s-3-1.3431-3-3v-1.0549c-3.482-.3848-6.3595-2.7551-7.4871-5.9454-.5521-1.5621.2666-3.2761 1.8288-3.8282 1.5621-.5522 3.2761.2666 3.8282 1.8288.3019.854.9788 1.5282 1.8301 1.829v-5.8842c-4.5-.4975-8-4.3125-8-8.9451s3.5-8.44763 8-8.94507zm-4 10c0-2.7614 2.2386-5 5-5h1v10h-1c-2.7614 0-5-2.2386-5-5zm4-2.8293c-1.1652.4118-2 1.5231-2 2.8293s.8348 2.4175 2 2.8293zm4 9.8293h1c2.7614 0 5 2.2386 5 5s-2.2386 5-5 5h-1zm2 2.1707v5.6586c1.1652-.4118 2-1.5231 2-2.8293s-.8348-2.4175-2-2.8293z" fill="#333" fill-rule="evenodd"/></svg>