<svg fill="none" height="48" viewBox="0 0 48 48" width="48" xmlns="http://www.w3.org/2000/svg"><path clip-rule="evenodd" d="m15 12c0-1.6569 1.3431-3 3-3h12c1.6569 0 3 1.3431 3 3s-1.3431 3-3 3h-9v6h9c1.6569 0 3 1.3431 3 3s-1.3431 3-3 3h-9v9c0 1.6569-1.3431 3-3 3s-3-1.3431-3-3zm3-1c-.5523 0-1 .4477-1 1v24c0 .5523.4477 1 1 1s1-.4477 1-1v-10c0-.5523.4477-1 1-1h10c.5523 0 1-.4477 1-1s-.4477-1-1-1h-10c-.5523 0-1-.4477-1-1v-8c0-.5523.4477-1 1-1h10c.5523 0 1-.4477 1-1s-.4477-1-1-1z" fill="#333" fill-rule="evenodd"/></svg>