<svg fill="none" height="48" viewBox="0 0 48 48" width="48" xmlns="http://www.w3.org/2000/svg"><path clip-rule="evenodd" d="m18.2597 10.1418c2.7409-1.1353 5.7569-1.43235 8.6667-.85357 2.6361.52437 5.0778 1.74627 7.0736 3.53147 1.235 1.1046 1.3406 3.0011.236 4.236-1.1045 1.235-3.0011 1.3407-4.236.2361-1.1975-1.0711-2.6625-1.8042-4.2442-2.1189-1.7458-.3472-3.5554-.169-5.1999.5122-1.6446.6812-3.0502 1.8347-4.0391 3.3148-.989 1.48-1.5168 3.2201-1.5168 5.0001s.5278 3.5201 1.5168 5.0001c.9889 1.4801 2.3945 2.6336 4.0391 3.3148 1.6445.6812 3.4541.8594 5.1999.5122 1.1648-.2317 2.2662-.6904 3.2442-1.3438v-4.4833h-5c-1.6569 0-3-1.3431-3-3 0-1.6568 1.3431-3 3-3h8c1.6569 0 3 1.3432 3 3v8.9443c0 .8537-.3637 1.6669-1 2.236-1.9958 1.7852-4.4375 3.0071-7.0736 3.5315-2.9098.5788-5.9258.2817-8.6667-.8536-2.7408-1.1353-5.0835-3.0579-6.7317-5.5246-1.64826-2.4668-2.528-5.3669-2.528-8.3336s.87973-5.8668 2.528-8.3335c1.6482-2.4668 3.9909-4.3894 6.7317-5.5247zm8.2765 1.108c-2.5218-.5016-5.1356-.2442-7.5111.7398-2.3754.9839-4.4057 2.6502-5.8342 4.788s-2.1909 4.6512-2.1909 7.2224.7624 5.0846 2.1909 7.2224c1.4285 2.1379 3.4588 3.8041 5.8342 4.788 2.3755.984 4.9893 1.2414 7.5111.7398 2.2847-.4544 4.4008-1.5134 6.1305-3.0606.2121-.1897.3333-.4608.3333-.7453v-8.9443c0-.5523-.4477-1-1-1h-8c-.5523 0-1 .4477-1 1s.4477 1 1 1h6c.5523 0 1 .4477 1 1v6c0 .3148-.1482.6112-.4.8-1.3119.9839-2.8328 1.6662-4.454 1.9886-2.1338.4245-4.3455.2066-6.3555-.6259-2.01-.8326-3.728-2.2425-4.9367-4.0514-1.2087-1.809-1.8538-3.9357-1.8538-6.1113s.6451-4.3023 1.8538-6.1113c1.2087-1.8089 2.9267-3.2188 4.9367-4.0514 2.01-.8325 4.2217-1.0504 6.3555-.6259 1.9332.3845 3.7237 1.2806 5.1873 2.5897.4117.3682 1.0439.3329 1.412-.0787.3682-.4116.333-1.0438-.0786-1.412-1.7297-1.5471-3.8458-2.6061-6.1305-3.0606z" fill="#333" fill-rule="evenodd"/></svg>