<svg fill="none" height="48" viewBox="0 0 48 48" width="48" xmlns="http://www.w3.org/2000/svg"><path clip-rule="evenodd" d="m24 7c-.5523 0-1 .44772-1 1v2.98l-.8572.1237c-1.0652.1538-2.1128.44-3.1177.8562-2.3754.984-4.4057 2.6502-5.8342 4.7881-1.4285 2.1378-2.1909 4.6512-2.1909 7.2224 0 2.5711.7624 5.0846 2.1909 7.2224s3.4588 3.8041 5.8342 4.788c1.0049.4163 2.0525.7025 3.1177.8562l.8572.1238v3.0392c0 .5523.4477 1 1 1s1-.4477 1-1v-3.0392l.8571-.1238c.227-.0327.4534-.0715.6791-.1164 2.5217-.5016 4.8381-1.7398 6.6562-3.5578.3905-.3906.3905-1.0237 0-1.4142-.3905-.3906-1.0237-.3906-1.4142 0-1.5254 1.5253-3.4654 2.5683-5.5782 2.9995l-1.2.245v-22.0454l1.2.2449c2.1128.4313 4.0528 1.4742 5.5782 2.9996.3905.3905 1.0237.3905 1.4142 0s.3905-1.0237 0-1.4142c-1.8181-1.8181-4.1345-3.0562-6.6562-3.5578-.2257-.0449-.4521-.0837-.6791-.1165l-.8571-.1237v-2.98c0-.55228-.4477-1-1-1zm-3 1c0-1.65685 1.3431-3 3-3 1.6568 0 3 1.34314 3 3v1.27344c2.8812.58811 5.5265 2.01026 7.6066 4.09036 1.1716 1.1716 1.1716 3.071 0 4.2426s-3.0711 1.1716-4.2426 0c-.953-.9529-2.1036-1.6757-3.364-2.1213v16.9706c1.2604-.4457 2.411-1.1684 3.364-2.1214 1.1715-1.1715 3.071-1.1715 4.2426 0 1.1716 1.1716 1.1716 3.0711 0 4.2427-2.0801 2.0801-4.7254 3.5022-7.6066 4.0903v1.3327c0 1.6569-1.3431 3-3 3s-3-1.3431-3-3v-1.3327c-.9337-.1906-1.8514-.4706-2.7403-.8387-2.7408-1.1353-5.0835-3.0579-6.7317-5.5247-1.64826-2.4667-2.528-5.3668-2.528-8.3335s.87973-5.8668 2.528-8.3336c1.6482-2.4667 3.9909-4.3893 6.7317-5.5246.8889-.36817 1.8066-.64818 2.7403-.83876zm2 4.9477v22.0454l-1.2-.245c-.6847-.1397-1.3577-.3451-2.0095-.615-2.01-.8326-3.728-2.2425-4.9367-4.0514-1.2087-1.809-1.8538-3.9357-1.8538-6.1113s.6451-4.3024 1.8538-6.1113 2.9267-3.2188 4.9367-4.0514c.6518-.27 1.3248-.4753 2.0095-.6151zm-2 2.5374c-.1493.0528-.2974.1096-.4442.1704-1.6445.6812-3.0501 1.8347-4.039 3.3147-.989 1.4801-1.5168 3.2201-1.5168 5.0002 0 1.78.5278 3.5201 1.5168 5.0001.9889 1.4801 2.3945 2.6336 4.0391 3.3148.1467.0608.2948.1176.4441.1704z" fill="#333" fill-rule="evenodd"/></svg>