<svg fill="none" height="48" viewBox="0 0 48 48" width="48" xmlns="http://www.w3.org/2000/svg"><path clip-rule="evenodd" d="m13 12c0-1.6569 1.3431-3 3-3s3 1.3431 3 3v9h10v-9c0-1.6569 1.3431-3 3-3s3 1.3431 3 3v24c0 1.6569-1.3431 3-3 3s-3-1.3431-3-3v-9h-10v9c0 1.6569-1.3431 3-3 3s-3-1.3431-3-3zm3-1c-.5523 0-1 .4477-1 1v24c0 .5523.4477 1 1 1s1-.4477 1-1v-11h14v11c0 .5523.4477 1 1 1s1-.4477 1-1v-24c0-.5523-.4477-1-1-1s-1 .4477-1 1v11h-14v-11c0-.5523-.4477-1-1-1z" fill="#333" fill-rule="evenodd"/></svg>