<svg fill="none" height="48" viewBox="0 0 48 48" width="48" xmlns="http://www.w3.org/2000/svg"><path clip-rule="evenodd" d="m13 12c0-1.6569 1.3431-3 3-3h16c1.6569 0 3 1.3431 3 3s-1.3431 3-3 3h-5v18h5c1.6569 0 3 1.3431 3 3s-1.3431 3-3 3h-16c-1.6569 0-3-1.3431-3-3s1.3431-3 3-3h5v-18h-5c-1.6569 0-3-1.3431-3-3zm3-1c-.5523 0-1 .4477-1 1s.4477 1 1 1h7v22h-7c-.5523 0-1 .4477-1 1s.4477 1 1 1h16c.5523 0 1-.4477 1-1s-.4477-1-1-1h-7v-22h7c.5523 0 1-.4477 1-1s-.4477-1-1-1z" fill="#333" fill-rule="evenodd"/></svg>