<svg fill="none" height="48" viewBox="0 0 48 48" width="48" xmlns="http://www.w3.org/2000/svg"><path clip-rule="evenodd" d="m13 36v-24c0-1.6569 1.3431-3 3-3.00001 1.6569 0 3 1.34311 3 3.00001v8.7574l10.8787-10.87873c1.1715-1.17157 3.071-1.17157 4.2426 0 1.1716 1.17163 1.1716 3.07103 0 4.24263l-9.8787 9.8787 9.8787 9.8787c1.1716 1.1716 1.1716 3.071 0 4.2426l-.7061-.7061.7061.7061c-1.1716 1.1716-3.071 1.1716-4.2426 0l-9.8787-9.8787-1 1v6.7574c0 1.6569-1.3431 3-3 3s-3-1.3431-3-3zm2-24v24c0 .5523.4477 1 1 1s1-.4477 1-1v-7.1716c0-.2652.1054-.5195.2929-.7071l2-2c.1875-.1875.4419-.2929.7071-.2929s.5196.1054.7071.2929l10.5858 10.5858c.3905.3905 1.0237.3905 1.4142 0s.3905-1.0237 0-1.4142l-10.5858-10.5858c-.3905-.3905-.3905-1.0237 0-1.4142l10.5858-10.5858c.3905-.3905.3905-1.0237 0-1.4142s-1.0237-.3905-1.4142 0l-12.5858 12.5858c-.286.286-.7161.3715-1.0898.2167-.3737-.1547-.6173-.5194-.6173-.9238v-11.1716c0-.5523-.4477-1-1-1s-1 .4477-1 1z" fill="#333" fill-rule="evenodd"/></svg>