<svg fill="none" height="48" viewBox="0 0 48 48" width="48" xmlns="http://www.w3.org/2000/svg"><path clip-rule="evenodd" d="m11 36v-24c0-1.2631.7911-2.39084 1.9787-2.82082s2.5174-.07005 3.326.90022l7.6953 9.2344 7.6953-9.2344c.8086-.97027 2.1384-1.3302 3.326-.90022s1.9787 1.55772 1.9787 2.82082v24c0 1.6569-1.3431 3-3 3s-3-1.3431-3-3v-15.7139l-4.6953 5.6344c-.57.684-1.4144 1.0795-2.3047 1.0795s-1.7347-.3955-2.3047-1.0795l-4.6953-5.6344v15.7139c0 1.6569-1.3431 3-3 3s-3-1.3431-3-3zm2-24v24c0 .5523.4477 1 1 1s1-.4477 1-1v-18.4759c0-.421.2637-.797.6596-.9403.3958-.1433.8391-.0233 1.1086.3001l6.4636 7.7563c.19.228.4714.3598.7682.3598s.5782-.1318.7682-.3598l6.4636-7.7563c.2695-.3234.7127-.4434 1.1086-.3001.3959.1434.6596.5193.6596.9403v18.4759c0 .5523.4477 1 1 1s1-.4477 1-1v-24c0-.421-.2637-.797-.6596-.9403s-.8391-.0233-1.1086.3001l-8.4636 10.1563c-.19.228-.4714.3598-.7682.3598s-.5782-.1318-.7682-.3598l-8.4636-10.1563c-.2695-.3234-.7128-.4434-1.1086-.3001-.3959.1433-.6596.5193-.6596.9403z" fill="#333" fill-rule="evenodd"/></svg>