<svg fill="none" height="48" viewBox="0 0 48 48" width="48" xmlns="http://www.w3.org/2000/svg"><path clip-rule="evenodd" d="m11 35.9998v-24c0-1.263.7911-2.39079 1.9787-2.82077s2.5174-.07005 3.326.90027l14.6953 17.6344v-15.7139c0-1.6568 1.3431-2.99996 3-2.99996s3 1.34316 3 2.99996v24c0 1.2631-.7911 2.3909-1.9787 2.8209-1.1876.4299-2.5174.07-3.326-.9003l-14.6953-17.6344v15.7138c0 1.6569-1.3431 3-3 3s-3-1.3431-3-3zm2-24v24c0 .5523.4477 1 1 1s1-.4477 1-1v-18.4759c0-.421.2637-.7969.6596-.9402.3958-.1434.8391-.0234 1.1086.3001l16.4636 19.7562c.2695.3235.7127.4434 1.1086.3001s.6596-.5192.6596-.9403v-24c0-.5522-.4477-1-1-1s-1 .4478-1 1v18.4759c0 .4211-.2637.797-.6596.9403s-.8391.0234-1.1086-.3001l-16.4636-19.7562.7682-.6402-.7682.6402c-.2695-.3235-.7128-.4435-1.1086-.3001-.3959.1433-.6596.5192-.6596.9402z" fill="#333" fill-rule="evenodd"/></svg>