<svg fill="none" height="48" viewBox="0 0 48 48" width="48" xmlns="http://www.w3.org/2000/svg"><path clip-rule="evenodd" d="m13 12c0-1.6569 1.3431-3 3-3h10c4.9706 0 9 4.0294 9 9s-4.0294 9-9 9h-7v9c0 1.6569-1.3431 3-3 3s-3-1.3431-3-3zm3-1c-.5523 0-1 .4477-1 1v24c0 .5523.4477 1 1 1s1-.4477 1-1v-10c0-.5523.4477-1 1-1h8c3.866 0 7-3.134 7-7s-3.134-7-7-7zm1 3c0-.5523.4477-1 1-1h8c2.7614 0 5 2.2386 5 5s-2.2386 5-5 5h-8c-.5523 0-1-.4477-1-1zm2 1v6h7c1.6569 0 3-1.3431 3-3s-1.3431-3-3-3z" fill="#333" fill-rule="evenodd"/></svg>