<svg fill="none" height="48" viewBox="0 0 48 48" width="48" xmlns="http://www.w3.org/2000/svg"><path clip-rule="evenodd" d="m9 24c0-8.2843 6.7157-15 15-15s15 6.7157 15 15c0 3.0559-.9148 5.9006-2.4853 8.2721l1.6066 1.6066c1.1716 1.1716 1.1716 3.071 0 4.2426s-3.071 1.1716-4.2426 0l-1.6066-1.6066c-2.3715 1.5705-5.2162 2.4853-8.2721 2.4853-8.2843 0-15-6.7157-15-15zm15-13c-7.1797 0-13 5.8203-13 13s5.8203 13 13 13c2.9212 0 5.6148-.9623 7.7849-2.5876l.6937-.5196 2.8143 2.8143c.3905.3905 1.0237.3905 1.4142 0s.3905-1.0237 0-1.4142l-2.8143-2.8143.5196-.6937c1.6253-2.1701 2.5876-4.8637 2.5876-7.7849 0-7.1797-5.8203-13-13-13zm0 4c-4.9706 0-9 4.0294-9 9s4.0294 9 9 9c1.3907 0 2.7061-.3148 3.8804-.8769l-2.0017-2.0018c-1.1716-1.1716-1.1716-3.071 0-4.2426s3.071-1.1716 4.2426 0l2.0018 2.0017c.5621-1.1743.8769-2.4897.8769-3.8804 0-4.9706-4.0294-9-9-9zm-11 9c0-6.0751 4.9249-11 11-11s11 4.9249 11 11c0 2.2405-.6709 4.3274-1.8231 6.067l-.6756 1.0201-3.7942-3.7942c-.3905-.3905-1.0237-.3905-1.4142 0s-.3905 1.0237 0 1.4142l3.7942 3.7942-1.0201.6756c-1.7396 1.1522-3.8265 1.8231-6.067 1.8231-6.0751 0-11-4.9249-11-11z" fill="#333" fill-rule="evenodd"/></svg>