<svg fill="none" height="48" viewBox="0 0 48 48" width="48" xmlns="http://www.w3.org/2000/svg"><path clip-rule="evenodd" d="m13 12c0-1.6569 1.3431-3 3-3h10c4.9706 0 9 4.0294 9 9 0 3.4119-1.8983 6.3785-4.6936 7.9045l4.3769 8.7539c.7409 1.4819.1403 3.2839-1.3417 4.0249-1.4819.7409-3.2839.1403-4.0249-1.3417l-5.1708-10.3416h-5.1459v9c0 1.6569-1.3431 3-3 3s-3-1.3431-3-3zm3-1c-.5523 0-1 .4477-1 1v24c0 .5523.4477 1 1 1s1-.4477 1-1v-10c0-.5523.4477-1 1-1h6.7639c.3788 0 .7251.214.8945.5528l5.4472 10.8944c.247.494.8476.6942 1.3416.4472s.6942-.8476.4472-1.3416l-4.8344-9.6688c-.1252-.2505-.1397-.542-.0399-.8036s.3047-.4694.5649-.5729c2.5882-1.0291 4.415-3.5562 4.415-6.5075 0-3.866-3.134-7-7-7zm1 3c0-.5523.4477-1 1-1h8c2.7614 0 5 2.2386 5 5s-2.2386 5-5 5h-8c-.5523 0-1-.4477-1-1zm2 1v6h7c1.6569 0 3-1.3431 3-3s-1.3431-3-3-3z" fill="#333" fill-rule="evenodd"/></svg>