<svg fill="none" height="48" viewBox="0 0 48 48" width="48" xmlns="http://www.w3.org/2000/svg"><path clip-rule="evenodd" d="m15 12c0-1.6569 1.3432-3 3-3h12c1.6569 0 3 1.3431 3 3s-1.3431 3-3 3c1.6569 0 3 1.3431 3 3s-1.3431 3-3 3h-1.5124c-.8788 2.4865-2.818 4.4706-5.2756 5.4097l5.2842 7.9262c.919 1.3786.5465 3.2412-.8321 4.1603-1.3786.919-3.2412.5465-4.1602-.8321l-8-12c-.6138-.9206-.671-2.1042-.1489-3.0797.522-.9754 1.5386-1.5844 2.645-1.5844-1.6568 0-3-1.3431-3-3s1.3432-3 3-3c-1.6568 0-3-1.3431-3-3zm3-1c-.5523 0-1 .4477-1 1s.4477 1 1 1h2c1.852 0 3.4675 1.0074 4.3305 2.4993.1789.3094.1792.6907.0006 1.0003s-.5088.5004-.8662.5004h-5.4649c-.5523 0-1 .4477-1 1s.4477 1 1 1h5.4649c.3574 0 .6876.1908.8662.5004s.1783.6909-.0006 1.0003c-.863 1.4919-2.4785 2.4993-4.3305 2.4993h-2c-.3688 0-.7077.203-.8817.5281-.174.3252-.1549.7197.0497 1.0266l8 12c.3063.4595.9272.5837 1.3867.2774.4595-.3064.5837-.9273.2774-1.3868l-6.0374-9.0561c-.1845-.2767-.2193-.6269-.0931-.9345.1263-.3076.3972-.5323.7228-.5995 2.612-.5396 4.6945-2.5379 5.3551-5.1045.1138-.4418.5122-.7507.9685-.7507h2.252c.5523 0 1-.4477 1-1s-.4477-1-1-1h-2.252c-.4563 0-.8547-.3089-.9685-.7507-.1596-.6201-.4021-1.2071-.7154-1.7486-.1789-.3094-.1792-.6907-.0006-1.0003s.5088-.5004.8662-.5004h3.0703c.5523 0 1-.4477 1-1s-.4477-1-1-1z" fill="#333" fill-rule="evenodd"/></svg>