<svg fill="none" height="48" viewBox="0 0 48 48" width="48" xmlns="http://www.w3.org/2000/svg"><path clip-rule="evenodd" d="m13 18c0-4.9706 4.0294-9 9-9h4c3.9239 0 7.2532 2.5093 8.4871 6.0003.5521 1.5621-.2666 3.2761-1.8288 3.8282-1.5621.5522-3.2761-.2666-3.8282-1.8288-.4129-1.1682-1.5275-1.9997-2.8301-1.9997h-4c-1.6569 0-3 1.3431-3 3s1.3431 3 3 3h4c4.9706 0 9 4.0294 9 9s-4.0294 9-9 9h-4c-3.9239 0-7.2532-2.5093-8.4871-6.0003-.5521-1.5621.2666-3.2761 1.8288-3.8282 1.5621-.5522 3.2761.2666 3.8282 1.8288.4129 1.1682 1.5275 1.9997 2.8301 1.9997h4c1.6569 0 3-1.3431 3-3s-1.3431-3-3-3h-4c-4.9706 0-9-4.0294-9-9zm9-7c-3.866 0-7 3.134-7 7s3.134 7 7 7h4c2.7614 0 5 2.2386 5 5s-2.2386 5-5 5h-4c-2.1744 0-4.0285-1.3889-4.7157-3.3332-.1841-.5208-.7554-.7937-1.2761-.6096-.5208.184-.7937.7553-.6096 1.276.9606 2.718 3.5525 4.6668 6.6014 4.6668h4c3.866 0 7-3.134 7-7s-3.134-7-7-7h-4c-2.7614 0-5-2.2386-5-5s2.2386-5 5-5h4c2.1744 0 4.0285 1.3889 4.7157 3.3332.1841.5208.7554.7937 1.2761.6096.5208-.184.7937-.7553.6096-1.276-.9606-2.718-3.5525-4.6668-6.6014-4.6668z" fill="#333" fill-rule="evenodd"/></svg>