<svg fill="none" height="48" viewBox="0 0 48 48" width="48" xmlns="http://www.w3.org/2000/svg"><path clip-rule="evenodd" d="m21.2306 37.1538c.4658 1.118 1.5581 1.8462 2.7692 1.8462s2.3034-.7282 2.7692-1.8462l10-24c.6373-1.5294-.0859-3.28578-1.6153-3.92303s-3.2859.08598-3.9231 1.61543l-7.2308 17.3538-7.2308-17.3538c-.6372-1.52945-2.3936-2.25268-3.923-1.61543s-2.2527 2.39363-1.6154 3.92303zm2.7692-.1538c-.4037 0-.7678-.2427-.9231-.6154l-10-24c-.2124-.5098.0287-1.0953.5385-1.3077s1.0953.0287 1.3077.5385l8.1538 19.5692c.1553.3727.5194.6154.9231.6154s.7678-.2427.9231-.6154l8.1538-19.5692c.2124-.5098.7979-.7509 1.3077-.5385s.7509.7979.5385 1.3077l-10 24c-.1553.3727-.5194.6154-.9231.6154z" fill="#333" fill-rule="evenodd"/></svg>