<svg fill="none" height="48" viewBox="0 0 48 48" width="48" xmlns="http://www.w3.org/2000/svg"><path clip-rule="evenodd" d="m11.5068 9.04055c-1.63433.27239-2.73839 1.81805-2.466 3.45235l4 24c.2086 1.2516 1.182 2.2366 2.4309 2.46 1.249.2234 2.5035-.3631 3.133-1.4647l5.3953-9.4418 5.3953 9.4418c.6295 1.1016 1.8839 1.6881 3.1329 1.4647s2.2224-1.2084 2.431-2.46l4-24c.2724-1.6343-.8317-3.17996-2.466-3.45234-1.6343-.27239-3.18.83167-3.4524 2.46594l-2.6152 15.6914-3.8209-6.6866c-.5341-.9347-1.5282-1.5116-2.6047-1.5116-1.0766 0-2.0706.5769-2.6048 1.5116l-3.8208 6.6865-2.6152-15.6913c-.2724-1.63427-1.8181-2.73833-3.4524-2.46595zm-.4932 3.12355c-.0908-.5447.2772-1.06.822-1.1508s1.06.2773 1.1508.822l3.0768 18.4609c.0695.4172.394.7455.8103.82s.8345-.121 1.0443-.4882l5.2139-9.1244c.1781-.3116.5094-.5039.8683-.5039.3588 0 .6902.1923.8682.5039l5.2139 9.1244c.2099.3672.628.5627 1.0444.4882.4163-.0745.7407-.4028.8103-.82l3.0768-18.4609c.0908-.5447.606-.9128 1.1508-.822s.9128.6061.822 1.1508l-4 24c-.0696.4172-.394.7455-.8103.82-.4164.0745-.8345-.121-1.0444-.4882l-6.2635-10.9612c-.178-.3115-.5094-.5038-.8682-.5038-.3589 0-.6902.1923-.8683.5038l-6.2635 10.9612c-.2098.3672-.628.5627-1.0443.4882s-.7408-.4028-.8103-.82z" fill="#333" fill-rule="evenodd"/></svg>