<svg fill="none" height="48" viewBox="0 0 48 48" width="48" xmlns="http://www.w3.org/2000/svg"><path clip-rule="evenodd" d="m31.6954 10.0795c1.0607-1.27281 2.9524-1.44478 4.2252-.38409 1.2729 1.06069 1.4448 2.95239.3841 4.22519l-8.3995 10.0795 8.3995 10.0794c1.0607 1.2729.8888 3.1646-.3841 4.2252-1.2728 1.0607-3.1645.8888-4.2252-.3841l-7.6953-9.2344-7.6954 9.2344c-1.0607 1.2729-2.9523 1.4448-4.2252.3841-1.2728-1.0606-1.4448-2.9523-.3841-4.2252l8.3996-10.0794-8.3996-10.0795c-1.0607-1.2728-.8887-3.1645.3841-4.22519 1.2729-1.06069 3.1645-.88872 4.2252.38409l7.6954 9.2344zm2.9449 1.1524c-.4243-.3536-1.0549-.2963-1.4084.128l-.7683-.6402.7683.6402-8.4636 10.1563c-.19.228-.4714.3598-.7682.3598s-.5783-.1318-.7682-.3598l-8.4636-10.1563c-.3536-.4243-.9841-.4816-1.4084-.128-.4243.3535-.4816.9841-.128 1.4084l8.933 10.7196c.309.3708.309.9095 0 1.2804l-8.933 10.7196c-.3536.4243-.2963 1.0548.128 1.4084s1.0548.2962 1.4084-.128l8.4636-10.1563c.1899-.228.4714-.3598.7682-.3598s.5782.1318.7682.3598l8.4636 10.1563c.3535.4242.9841.4816 1.4084.128.4242-.3536.4816-.9841.128-1.4084l-8.933-10.7196c-.3091-.3709-.3091-.9096 0-1.2804l8.933-10.7196c.3536-.4243.2962-1.0549-.128-1.4084z" fill="#333" fill-rule="evenodd"/></svg>