<svg fill="none" height="48" viewBox="0 0 48 48" width="48" xmlns="http://www.w3.org/2000/svg"><path clip-rule="evenodd" d="m31.6954 10.0795c1.0607-1.27281 2.9524-1.44478 4.2252-.38409 1.2729 1.06069 1.4448 2.95239.3841 4.22519l-.7682-.6402.7682.6402-9.3046 11.1656v10.9139c0 1.6568-1.3432 3-3 3-1.6569 0-3-1.3432-3-3v-10.9139l-9.3047-11.1656c-1.0607-1.2728-.8887-3.1645.3841-4.22519l.6402.76819-.6402-.76819c1.2729-1.06069 3.1645-.88872 4.2252.38409l7.6954 9.2344zm2.9449 1.1524c-.4243-.3536-1.0549-.2963-1.4085.128l-8.4635 10.1563c-.19.228-.4714.3598-.7682.3598s-.5783-.1318-.7682-.3598l-8.4636-10.1563c-.3536-.4243-.9841-.4816-1.4084-.128-.4243.3535-.4816.9841-.128 1.4084l9.5364 11.4437c.1498.1797.2318.4062.2318.6402v11.2759c0 .5523.4477 1 1 1s1-.4477 1-1v-11.2759c0-.234.082-.4605.2318-.6402l9.5364-11.4437c.3536-.4243.2962-1.0549-.128-1.4084z" fill="#333" fill-rule="evenodd"/></svg>