<svg fill="none" height="48" viewBox="0 0 48 48" width="48" xmlns="http://www.w3.org/2000/svg"><path clip-rule="evenodd" d="m31.6954 10.0795c1.0607-1.27281 2.9524-1.44478 4.2252-.38409 1.2729 1.06069 1.4448 2.95239.3841 4.22519l-.7682-.6402.7682.6402-5.9199 7.1039c1.4752.1889 2.6153 1.4491 2.6153 2.9756 0 1.656-1.3419 2.9987-2.9976 3 1.6557.0013 2.9976 1.3439 2.9976 3 0 1.6568-1.3432 3-3 3h-3v3c0 1.6568-1.3432 3-3 3-1.6569 0-3-1.3432-3-3v-3h-3c-1.6569 0-3-1.3432-3-3 0-1.6561 1.3418-2.9987 2.9976-3-1.6558-.0013-2.9976-1.344-2.9976-3 0-1.5265 1.1401-2.7867 2.6152-2.9756l-5.9199-7.1039c-1.0607-1.2728-.8887-3.1645.3841-4.22519l.6402.76819-.6402-.76819c1.2729-1.06069 3.1645-.88872 4.2252.38409l7.6954 9.2344zm2.9449 1.1524c-.4243-.3536-1.0549-.2963-1.4085.128l-8.4635 10.1563c-.19.228-.4714.3598-.7682.3598s-.5783-.1318-.7682-.3598l-8.4636-10.1563c-.3536-.4243-.9841-.4816-1.4084-.128-.4243.3535-.4816.9841-.128 1.4084l7.2663 8.7196c.2484.2981.302.713.1374 1.0643-.1646.3514-.5176.5759-.9056.5759h-1.7299c-.5523 0-1 .4477-1 1s.4477 1 1 1h4c.5523 0 1 .4477 1 1v2c0 .5523-.4477 1-1 1h-4c-.5523 0-1 .4477-1 1s.4477 1 1 1h4c.5523 0 1 .4477 1 1v4c0 .5523.4477 1 1 1s1-.4477 1-1v-4c0-.5523.4477-1 1-1h4c.5523 0 1-.4477 1-1s-.4477-1-1-1h-4c-.5523 0-1-.4477-1-1v-2c0-.5523.4477-1 1-1h4c.5523 0 1-.4477 1-1s-.4477-1-1-1h-1.7299c-.3881 0-.7411-.2245-.9056-.5759-.1646-.3513-.1111-.7662.1373-1.0643l7.2664-8.7196c.3536-.4243.2962-1.0549-.128-1.4084z" fill="#333" fill-rule="evenodd"/></svg>