<svg fill="none" height="48" viewBox="0 0 48 48" width="48" xmlns="http://www.w3.org/2000/svg"><path clip-rule="evenodd" d="m14 9h20c1.1641 0 2.2231.67338 2.7168 1.7275l-.9056.4242.9056-.4242c.4937 1.0542.3331 2.2988-.4121 3.1931l-15.8995 19.0794h13.5948c1.6569 0 3 1.3432 3 3 0 1.6569-1.3431 3-3 3h-20c-1.164 0-2.223-.6734-2.7167-1.7275l.9026-.4228-.9026.4228c-.4938-1.0542-.3331-2.2988.4121-3.193l15.8995-19.0795h-13.5949c-1.6568 0-3-1.3431-3-3s1.3432-3 3-3zm20 2h-20c-.5522 0-1 .4477-1 1s.4478 1 1 1h15.73c.388 0 .741.2245.9055.5758.1646.3514.1111.7663-.1373 1.0644l-17.2664 20.7196c-.2484.2981-.3019.713-.1374 1.0644.1646.3513.5176.5758.9056.5758h20c.5523 0 1-.4477 1-1s-.4477-1-1-1h-15.7299c-.388 0-.741-.2245-.9056-.5758-.1646-.3514-.111-.7663.1374-1.0644l17.2664-20.7196c.2484-.2981.3019-.713.1373-1.0644-.1646-.3513-.5175-.5758-.9056-.5758z" fill="#333" fill-rule="evenodd"/></svg>