<svg fill="none" height="48" viewBox="0 0 48 48" width="48" xmlns="http://www.w3.org/2000/svg"><g fill="#333"><path clip-rule="evenodd" d="m32 6h-16c-1.1046 0-2 .89543-2 2v32c0 1.1046.8954 2 2 2h16c1.1046 0 2-.8954 2-2v-32c0-1.10457-.8954-2-2-2zm-16-2c-2.2091 0-4 1.79086-4 4v32c0 2.2091 1.7909 4 4 4h16c2.2091 0 4-1.7909 4-4v-32c0-2.20914-1.7909-4-4-4z" fill-rule="evenodd"/><path d="m24.6 42.806c.3314 0 .6.2673.6.597s-.2686.597-.6.597-.6-.2673-.6-.597.2686-.597.6-.597z"/><path d="m24.6 39.8209c.3314 0 .6.2673.6.597s-.2686.597-.6.597-.6-.2673-.6-.597.2686-.597.6-.597z"/><path d="m24.6 36.8358c.3314 0 .6.2672.6.597 0 .3297-.2686.597-.6.597s-.6-.2673-.6-.597c0-.3298.2686-.597.6-.597z"/><path d="m24.6 33.8509c.3314 0 .6.2673.6.597s-.2686.597-.6.597-.6-.2673-.6-.597.2686-.597.6-.597z"/><path d="m24.6 30.8658c.3314 0 .6.2673.6.597s-.2686.597-.6.597-.6-.2673-.6-.597.2686-.597.6-.597z"/><path d="m24.6 27.8807c.3314 0 .6.2673.6.597s-.2686.597-.6.597-.6-.2673-.6-.597.2686-.597.6-.597z"/><path d="m24.6 24.8956c.3314 0 .6.2673.6.597s-.2686.597-.6.597-.6-.2673-.6-.597.2686-.597.6-.597z"/><path d="m24.6 21.9105c.3314 0 .6.2673.6.597s-.2686.597-.6.597-.6-.2673-.6-.597.2686-.597.6-.597z"/><path d="m24.6 18.9254c.3314 0 .6.2672.6.597 0 .3297-.2686.597-.6.597s-.6-.2673-.6-.597c0-.3298.2686-.597.6-.597z"/><path d="m24.6 15.9402c.3314 0 .6.2673.6.5971 0 .3297-.2686.597-.6.597s-.6-.2673-.6-.597c0-.3298.2686-.5971.6-.5971z"/><path d="m24.6 12.9551c.3314 0 .6.2673.6.5971 0 .3297-.2686.597-.6.597s-.6-.2673-.6-.597c0-.3298.2686-.5971.6-.5971z"/><path d="m24.6 9.97028c.3314 0 .6.26732.6.59702s-.2686.597-.6.597-.6-.2673-.6-.597.2686-.59702.6-.59702z"/><path d="m24.6 6.98517c.3314 0 .6.26729.6.59701 0 .32973-.2686.59702-.6.59702s-.6-.26729-.6-.59702c0-.32972.2686-.59701.6-.59701z"/><path d="m24.6 4.00006c.3314 0 .6.26729.6.59702 0 .32972-.2686.59701-.6.59701s-.6-.26729-.6-.59701c0-.32973.2686-.59702.6-.59702z"/><path d="m17.8407 6.83578c.4616-.46159 1.2099-.46159 1.6715 0 .4616.4616.4616 1.20998 0 1.67157l-1.6715 1.67155c-.4616.4616-1.21.4616-1.6716 0-.4616-.46157-.4616-1.20995 0-1.67155z"/><path d="m17.8407 11.8358c.4616-.4616 1.2099-.4616 1.6715 0s.4616 1.21 0 1.6716l-1.6715 1.6715c-.4616.4616-1.21.4616-1.6716 0s-.4616-1.21 0-1.6715z"/><path d="m17.8407 16.8358c.4616-.4616 1.2099-.4616 1.6715 0s.4616 1.21 0 1.6716l-1.6715 1.6715c-.4616.4616-1.21.4616-1.6716 0s-.4616-1.21 0-1.6715z"/><path d="m17.8407 21.8358c.4616-.4616 1.2099-.4616 1.6715 0s.4616 1.21 0 1.6716l-1.6715 1.6715c-.4616.4616-1.21.4616-1.6716 0s-.4616-1.21 0-1.6715z"/><path d="m17.8407 26.8358c.4616-.4616 1.2099-.4616 1.6715 0s.4616 1.21 0 1.6716l-1.6715 1.6715c-.4616.4616-1.21.4616-1.6716 0s-.4616-1.21 0-1.6715z"/><path d="m17.8407 31.8358c.4616-.4616 1.2099-.4616 1.6715 0s.4616 1.21 0 1.6716l-1.6715 1.6715c-.4616.4616-1.21.4616-1.6716 0s-.4616-1.21 0-1.6715z"/><path d="m17.8407 36.8358c.4616-.4616 1.2099-.4616 1.6715 0s.4616 1.21 0 1.6716l-1.6715 1.6715c-.4616.4616-1.21.4616-1.6716 0s-.4616-1.21 0-1.6715z"/><path d="m29.8407 6.83578c.4616-.46159 1.2099-.46159 1.6715 0 .4616.4616.4616 1.20998 0 1.67157l-1.6715 1.67155c-.4616.4616-1.21.4616-1.6716 0-.4616-.46157-.4616-1.20995 0-1.67155z"/><path d="m29.8407 11.8358c.4616-.4616 1.2099-.4616 1.6715 0s.4616 1.21 0 1.6716l-1.6715 1.6715c-.4616.4616-1.21.4616-1.6716 0s-.4616-1.21 0-1.6715z"/><path d="m29.8407 16.8358c.4616-.4616 1.2099-.4616 1.6715 0s.4616 1.21 0 1.6716l-1.6715 1.6715c-.4616.4616-1.21.4616-1.6716 0s-.4616-1.21 0-1.6715z"/><path d="m29.8407 21.8358c.4616-.4616 1.2099-.4616 1.6715 0s.4616 1.21 0 1.6716l-1.6715 1.6715c-.4616.4616-1.21.4616-1.6716 0s-.4616-1.21 0-1.6715z"/><path d="m29.8407 26.8358c.4616-.4616 1.2099-.4616 1.6715 0s.4616 1.21 0 1.6716l-1.6715 1.6715c-.4616.4616-1.21.4616-1.6716 0s-.4616-1.21 0-1.6715z"/><path d="m29.8407 31.8358c.4616-.4616 1.2099-.4616 1.6715 0s.4616 1.21 0 1.6716l-1.6715 1.6715c-.4616.4616-1.21.4616-1.6716 0s-.4616-1.21 0-1.6715z"/><path d="m29.8407 36.8358c.4616-.4616 1.2099-.4616 1.6715 0s.4616 1.21 0 1.6716l-1.6715 1.6715c-.4616.4616-1.21.4616-1.6716 0s-.4616-1.21 0-1.6715z"/></g></svg>