<svg fill="none" height="48" viewBox="0 0 48 48" width="48" xmlns="http://www.w3.org/2000/svg"><g fill="#333"><path clip-rule="evenodd" d="m32 6h-16c-1.1046 0-2 .89543-2 2v32c0 1.1046.8954 2 2 2h16c1.1046 0 2-.8954 2-2v-32c0-1.10457-.8954-2-2-2zm-16-2c-2.2091 0-4 1.79086-4 4v32c0 2.2091 1.7909 4 4 4h16c2.2091 0 4-1.7909 4-4v-32c0-2.20914-1.7909-4-4-4z" fill-rule="evenodd"/><path d="m17.5074 8.83578c.4615-.46159 1.2099-.46159 1.6715 0 .4616.4616.4616 1.21002 0 1.67162l-1.6715 1.6715c-.4616.4616-1.21.4616-1.6716 0s-.4616-1.21 0-1.6715z"/><path d="m21.8407 8.83578c.4616-.46159 1.2099-.46159 1.6715 0 .4616.4616.4616 1.21002 0 1.67162l-1.6715 1.6715c-.4616.4616-1.21.4616-1.6716 0s-.4616-1.21 0-1.6715z"/><path d="m26.174 8.83578c.4616-.46159 1.21-.46159 1.6716 0 .4616.4616.4616 1.21002 0 1.67162l-1.6716 1.6715c-.4616.4616-1.2099.4616-1.6715 0s-.4616-1.21 0-1.6715z"/><path d="m30.5074 8.83578c.4615-.46159 1.2099-.46159 1.6715 0 .4616.4616.4616 1.21002 0 1.67162l-1.6715 1.6715c-.4616.4616-1.21.4616-1.6716 0s-.4616-1.21 0-1.6715z"/><path d="m17.5074 14.8358c.4615-.4616 1.2099-.4616 1.6715 0s.4616 1.21 0 1.6716l-1.6715 1.6715c-.4616.4616-1.21.4616-1.6716 0s-.4616-1.21 0-1.6715z"/><path d="m21.8407 14.8358c.4616-.4616 1.2099-.4616 1.6715 0s.4616 1.21 0 1.6716l-1.6715 1.6715c-.4616.4616-1.21.4616-1.6716 0s-.4616-1.21 0-1.6715z"/><path d="m26.174 14.8358c.4616-.4616 1.21-.4616 1.6716 0s.4616 1.21 0 1.6716l-1.6716 1.6715c-.4616.4616-1.2099.4616-1.6715 0s-.4616-1.21 0-1.6715z"/><path d="m30.5074 14.8358c.4615-.4616 1.2099-.4616 1.6715 0s.4616 1.21 0 1.6716l-1.6715 1.6715c-.4616.4616-1.21.4616-1.6716 0s-.4616-1.21 0-1.6715z"/><path d="m17.5074 29.8358c.4615-.4616 1.2099-.4616 1.6715 0s.4616 1.21 0 1.6716l-1.6715 1.6715c-.4616.4616-1.21.4616-1.6716 0s-.4616-1.21 0-1.6715z"/><path d="m21.8407 29.8358c.4616-.4616 1.2099-.4616 1.6715 0s.4616 1.21 0 1.6716l-1.6715 1.6715c-.4616.4616-1.21.4616-1.6716 0s-.4616-1.21 0-1.6715z"/><path d="m26.174 29.8358c.4616-.4616 1.21-.4616 1.6716 0s.4616 1.21 0 1.6716l-1.6716 1.6715c-.4616.4616-1.2099.4616-1.6715 0s-.4616-1.21 0-1.6715z"/><path d="m30.5074 29.8358c.4615-.4616 1.2099-.4616 1.6715 0s.4616 1.21 0 1.6716l-1.6715 1.6715c-.4616.4616-1.21.4616-1.6716 0s-.4616-1.21 0-1.6715z"/><path d="m17.5074 35.8358c.4615-.4616 1.2099-.4616 1.6715 0s.4616 1.21 0 1.6716l-1.6715 1.6715c-.4616.4616-1.21.4616-1.6716 0s-.4616-1.21 0-1.6715z"/><path d="m21.8407 35.8358c.4616-.4616 1.2099-.4616 1.6715 0s.4616 1.21 0 1.6716l-1.6715 1.6715c-.4616.4616-1.21.4616-1.6716 0s-.4616-1.21 0-1.6715z"/><path d="m26.174 35.8358c.4616-.4616 1.21-.4616 1.6716 0s.4616 1.21 0 1.6716l-1.6716 1.6715c-.4616.4616-1.2099.4616-1.6715 0s-.4616-1.21 0-1.6715z"/><path d="m30.5074 35.8358c.4615-.4616 1.2099-.4616 1.6715 0s.4616 1.21 0 1.6716l-1.6715 1.6715c-.4616.4616-1.21.4616-1.6716 0s-.4616-1.21 0-1.6715z"/><path d="m15 24c0 .5523-.4477 1-1 1s-1-.4477-1-1 .4477-1 1-1 1 .4477 1 1z"/><path d="m19 24c0 .5523-.4477 1-1 1s-1-.4477-1-1 .4477-1 1-1 1 .4477 1 1z"/><path d="m23 24c0 .5523-.4477 1-1 1s-1-.4477-1-1 .4477-1 1-1 1 .4477 1 1z"/><path d="m27 24c0 .5523-.4477 1-1 1s-1-.4477-1-1 .4477-1 1-1 1 .4477 1 1z"/><path d="m31 24c0 .5523-.4477 1-1 1s-1-.4477-1-1 .4477-1 1-1 1 .4477 1 1z"/><path d="m35 24c0 .5523-.4477 1-1 1s-1-.4477-1-1 .4477-1 1-1 1 .4477 1 1z"/></g></svg>