<svg fill="none" height="48" viewBox="0 0 48 48" width="48" xmlns="http://www.w3.org/2000/svg"><g fill="#333"><path clip-rule="evenodd" d="m32 6h-16c-1.1046 0-2 .89543-2 2v32c0 1.1046.8954 2 2 2h16c1.1046 0 2-.8954 2-2v-32c0-1.10457-.8954-2-2-2zm-16-2c-2.2091 0-4 1.79086-4 4v32c0 2.2091 1.7909 4 4 4h16c2.2091 0 4-1.7909 4-4v-32c0-2.20914-1.7909-4-4-4z" fill-rule="evenodd"/><path d="m19.2426 11.4142c.7811-.781 2.0474-.781 2.8285 0 .781.7811.781 2.0474 0 2.8284l-2.8285 2.8285c-.781.781-2.0473.781-2.8284 0-.781-.7811-.781-2.0474 0-2.8285z"/><path d="m28.2426 11.4142c.7811-.781 2.0474-.781 2.8285 0 .781.7811.781 2.0474 0 2.8284l-2.8285 2.8285c-.781.781-2.0473.781-2.8284 0-.781-.7811-.781-2.0474 0-2.8285z"/><path d="m19.2426 30.4142c.7811-.781 2.0474-.781 2.8285 0 .781.7811.781 2.0474 0 2.8284l-2.8285 2.8285c-.781.781-2.0473.781-2.8284 0-.781-.7811-.781-2.0474 0-2.8285z"/><path d="m28.2426 30.4142c.7811-.781 2.0474-.781 2.8285 0 .781.7811.781 2.0474 0 2.8284l-2.8285 2.8285c-.781.781-2.0473.781-2.8284 0-.781-.7811-.781-2.0474 0-2.8285z"/><path d="m15 24c0 .5523-.4477 1-1 1s-1-.4477-1-1 .4477-1 1-1 1 .4477 1 1z"/><path d="m19 24c0 .5523-.4477 1-1 1s-1-.4477-1-1 .4477-1 1-1 1 .4477 1 1z"/><path d="m23 24c0 .5523-.4477 1-1 1s-1-.4477-1-1 .4477-1 1-1 1 .4477 1 1z"/><path d="m27 24c0 .5523-.4477 1-1 1s-1-.4477-1-1 .4477-1 1-1 1 .4477 1 1z"/><path d="m31 24c0 .5523-.4477 1-1 1s-1-.4477-1-1 .4477-1 1-1 1 .4477 1 1z"/><path d="m35 24c0 .5523-.4477 1-1 1s-1-.4477-1-1 .4477-1 1-1 1 .4477 1 1z"/></g></svg>