<svg fill="none" height="48" viewBox="0 0 48 48" width="48" xmlns="http://www.w3.org/2000/svg"><g fill="#333"><path d="m24.6 42.806c.3314 0 .6.2673.6.597s-.2686.597-.6.597-.6-.2673-.6-.597.2686-.597.6-.597z"/><path d="m24.6 39.8209c.3314 0 .6.2673.6.597s-.2686.597-.6.597-.6-.2673-.6-.597.2686-.597.6-.597z"/><path d="m24.6 36.8358c.3314 0 .6.2672.6.597 0 .3297-.2686.597-.6.597s-.6-.2673-.6-.597c0-.3298.2686-.597.6-.597z"/><path d="m24.6 33.8506c.3314 0 .6.2673.6.5971 0 .3297-.2686.597-.6.597s-.6-.2673-.6-.597c0-.3298.2686-.5971.6-.5971z"/><path d="m24.6 30.8655c.3314 0 .6.2673.6.5971 0 .3297-.2686.597-.6.597s-.6-.2673-.6-.597c0-.3298.2686-.5971.6-.5971z"/><path d="m24.6 27.8807c.3314 0 .6.2673.6.597s-.2686.597-.6.597-.6-.2673-.6-.597.2686-.597.6-.597z"/><path d="m24.6 24.8956c.3314 0 .6.2673.6.597s-.2686.597-.6.597-.6-.2673-.6-.597.2686-.597.6-.597z"/><path d="m24.6 21.9105c.3314 0 .6.2673.6.597s-.2686.597-.6.597-.6-.2673-.6-.597.2686-.597.6-.597z"/><path d="m24.6 18.9254c.3314 0 .6.2672.6.597 0 .3297-.2686.597-.6.597s-.6-.2673-.6-.597c0-.3298.2686-.597.6-.597z"/><path d="m24.6 15.9402c.3314 0 .6.2673.6.5971 0 .3297-.2686.597-.6.597s-.6-.2673-.6-.597c0-.3298.2686-.5971.6-.5971z"/><path d="m24.6 12.9551c.3314 0 .6.2673.6.5971 0 .3297-.2686.597-.6.597s-.6-.2673-.6-.597c0-.3298.2686-.5971.6-.5971z"/><path d="m24.6 9.97003c.3314 0 .6.26727.6.59697 0 .3298-.2686.5971-.6.5971s-.6-.2673-.6-.5971c0-.3297.2686-.59697.6-.59697z"/><path d="m24.6 6.98492c.3314 0 .6.2673.6.59702s-.2686.59702-.6.59702-.6-.2673-.6-.59702.2686-.59702.6-.59702z"/><path d="m24.6 4.00006c.3314 0 .6.26729.6.59702 0 .32972-.2686.59701-.6.59701s-.6-.26729-.6-.59701c0-.32973.2686-.59702.6-.59702z"/><path d="m20 8.67662c0 .82431-.6716 1.49258-1.5 1.49258s-1.5-.66827-1.5-1.49258.6716-1.49254 1.5-1.49254 1.5.66823 1.5 1.49254z"/><path d="m20 13.6517c0 .8243-.6716 1.4926-1.5 1.4926s-1.5-.6683-1.5-1.4926.6716-1.4925 1.5-1.4925 1.5.6682 1.5 1.4925z"/><path d="m20 18.6268c0 .8243-.6716 1.4926-1.5 1.4926s-1.5-.6683-1.5-1.4926.6716-1.4925 1.5-1.4925 1.5.6682 1.5 1.4925z"/><path d="m20 23.6019c0 .8243-.6716 1.4926-1.5 1.4926s-1.5-.6683-1.5-1.4926.6716-1.4925 1.5-1.4925 1.5.6682 1.5 1.4925z"/><path d="m20 28.577c0 .8243-.6716 1.4926-1.5 1.4926s-1.5-.6683-1.5-1.4926.6716-1.4925 1.5-1.4925 1.5.6682 1.5 1.4925z"/><path d="m20 33.5521c0 .8243-.6716 1.4925-1.5 1.4925s-1.5-.6682-1.5-1.4925.6716-1.4925 1.5-1.4925 1.5.6682 1.5 1.4925z"/><path d="m20 38.5275c0 .8243-.6716 1.4925-1.5 1.4925s-1.5-.6682-1.5-1.4925c0-.8244.6716-1.4926 1.5-1.4926s1.5.6682 1.5 1.4926z"/><path d="m32 8.67662c0 .82431-.6716 1.49258-1.5 1.49258s-1.5-.66827-1.5-1.49258.6716-1.49254 1.5-1.49254 1.5.66823 1.5 1.49254z"/><path d="m32 13.6517c0 .8243-.6716 1.4926-1.5 1.4926s-1.5-.6683-1.5-1.4926.6716-1.4925 1.5-1.4925 1.5.6682 1.5 1.4925z"/><path d="m32 18.6268c0 .8243-.6716 1.4926-1.5 1.4926s-1.5-.6683-1.5-1.4926.6716-1.4925 1.5-1.4925 1.5.6682 1.5 1.4925z"/><path d="m32 23.6019c0 .8243-.6716 1.4926-1.5 1.4926s-1.5-.6683-1.5-1.4926.6716-1.4925 1.5-1.4925 1.5.6682 1.5 1.4925z"/><path d="m32 28.577c0 .8243-.6716 1.4926-1.5 1.4926s-1.5-.6683-1.5-1.4926.6716-1.4925 1.5-1.4925 1.5.6682 1.5 1.4925z"/><path d="m32 33.5521c0 .8243-.6716 1.4925-1.5 1.4925s-1.5-.6682-1.5-1.4925.6716-1.4925 1.5-1.4925 1.5.6682 1.5 1.4925z"/><path d="m32 38.5275c0 .8243-.6716 1.4925-1.5 1.4925s-1.5-.6682-1.5-1.4925c0-.8244.6716-1.4926 1.5-1.4926s1.5.6682 1.5 1.4926z"/><path clip-rule="evenodd" d="m32 6h-16c-1.1046 0-2 .89543-2 2v32c0 1.1046.8954 2 2 2h16c1.1046 0 2-.8954 2-2v-32c0-1.10457-.8954-2-2-2zm-16-2c-2.2091 0-4 1.79086-4 4v32c0 2.2091 1.7909 4 4 4h16c2.2091 0 4-1.7909 4-4v-32c0-2.20914-1.7909-4-4-4z" fill-rule="evenodd"/></g></svg>