<svg fill="none" height="48" viewBox="0 0 48 48" width="48" xmlns="http://www.w3.org/2000/svg"><g clip-rule="evenodd" fill="#333" fill-rule="evenodd"><path d="m14.8106 10.013c-.0015.0018-.0045.0056-.0085.0122l-6.7921 11.1152c.00052.0004.00104.0007.00156.0011.00195.0013.00503.003.01036.0048.00503.0018.01635.005.03632.0064l11.86636.8467c.02.0015.0322-.0001.0384-.0013.0066-.0012.0112-.0029.0149-.0047.0048-.0022.0096-.0054.0139-.0093l-5.0557-11.9602c-.0019-.0045-.0035-.0075-.0045-.0094-.0059-.0034-.0239-.0119-.0537-.0141-.033-.00231-.0551.005-.0623.0085l-.0024.0014c-.0001 0-.0011.0009-.0026.0027zm1.9676-.76784c-.6475-1.53181-2.8129-1.68632-3.6827-.26278l-6.80269 11.13242c-.78472 1.2842.09266 2.9237 1.62309 3.0329l11.8664.8467c1.5304.1092 2.6438-1.3882 2.0597-2.7701z"/><path d="m34 20c3.3137 0 6-2.6863 6-6s-2.6863-6-6-6-6 2.6863-6 6 2.6863 6 6 6zm0 2c4.4183 0 8-3.5817 8-8 0-4.41828-3.5817-8-8-8s-8 3.58172-8 8c0 4.4183 3.5817 8 8 8z"/><path d="m38.2823 14.9846c-.1237.5383-.6604.8743-1.1986.7505l-6.6157-1.5209c-.5382-.1237-.8742-.6604-.7505-1.1986.1238-.5383.6604-.8743 1.1986-.7505l6.6157 1.5209c.5382.1237.8743.6604.7505 1.1986z"/><path d="m31.1587 27.2961-10.8757 5.0714c-2.0022.9337-2.8684 3.3136-1.9348 5.3157.9337 2.0022 3.3136 2.8684 5.3158 1.9348l10.8756-5.0714c2.0022-.9336 2.8684-3.3136 1.9348-5.3157-.9336-2.0022-3.3135-2.8684-5.3157-1.9348zm-11.7209 3.2588c-3.0033 1.4005-4.3026 4.9703-2.9022 7.9736 1.4005 3.0032 4.9703 4.3026 7.9736 2.9021l10.8757-5.0714c3.0032-1.4004 4.3026-4.9703 2.9021-7.9736-1.4004-3.0032-4.9703-4.3025-7.9735-2.9021z"/><path d="m24.7494 30.2858-4.4664 2.0817c-2.0022.9337-2.8684 3.3136-1.9348 5.3157.9337 2.0022 3.3136 2.8684 5.3158 1.9348l4.4664-2.0818zm.9674-2.6579 5.0714 10.8757-6.279 2.927c-3.0033 1.4005-6.5731.1011-7.9736-2.9021-1.4004-3.0033-.1011-6.5731 2.9022-7.9736z"/></g></svg>