<svg fill="none" height="48" viewBox="0 0 48 48" width="48" xmlns="http://www.w3.org/2000/svg"><g clip-rule="evenodd" fill="#333" fill-rule="evenodd"><path d="m22.8919 30.2321-6.0621 3.5c-1.9132 1.1046-2.5687 3.551-1.4641 5.4641 1.1045 1.9132 3.5509 2.5687 5.4641 1.4641l6.0621-3.5zm-7.0621 1.768c-2.8698 1.6568-3.853 5.3264-2.1962 8.1961 1.6569 2.8698 5.3264 3.853 8.1962 2.1962l7.3612-4.25c.2391-.1381.3211-.4439.183-.683l-5.5-9.5263c-.1381-.2392-.4439-.3211-.683-.183z"/><path d="m24.874 29.6651 6.4952-3.75c1.674-.9665 3.8146-.3929 4.7811 1.2811.9665 1.6741.3929 3.8146-1.2811 4.7811l-6.4952 3.75zm5.4952-5.482c2.6306-1.5188 5.9943-.6175 7.5131 2.0131s.6175 5.9944-2.0131 7.5132l-7.7942 4.5c-.2392.138-.545.0561-.6831-.183l-5-8.6603c-.138-.2391-.0561-.5449.1831-.683z"/><path d="m29.374 37.4594c.1381.2391.0561.5449-.183.683l-7.3612 4.25c-2.8698 1.6568-6.5393.6736-8.1962-2.1962-1.6568-2.8697-.6736-6.5393 2.1962-8.1961l7.3612-4.25c.2391-.1381.5449-.0562.683.183l6.4952-3.75c2.6306-1.5188 5.9943-.6175 7.5131 2.0131s.6175 5.9944-2.0131 7.5132zm-4.5-7.7943 3.5 6.0622 6.4952-3.75c1.674-.9665 2.2476-3.107 1.2811-4.7811-.9665-1.674-3.1071-2.2476-4.7811-1.2811zm-4.0442 10.9952c-1.9132 1.1046-4.3596.4491-5.4641-1.4641-1.1046-1.9131-.4491-4.3595 1.4641-5.4641l6.0621-3.5 4 6.9282z"/><path d="m29.391 17.2426c2.3431 2.3432 6.1421 2.3432 8.4852 0 2.3432-2.3431 2.3432-6.1421 0-8.48524-2.3431-2.34315-6.1421-2.34315-8.4852 0-2.3432 2.34314-2.3432 6.14214 0 8.48524zm-1.4142 1.4143c3.1241 3.1241 8.1895 3.1241 11.3137 0 3.1242-3.1242 3.1242-8.1896 0-11.31375-3.1242-3.1242-8.1896-3.1242-11.3137 0-3.1242 3.12415-3.1242 8.18955 0 11.31375z"/><path d="m38.053 18.4806-9.8995-9.89949 1.0607-1.06066 9.8995 9.89945z"/><path d="m19.8706 22.4025-4.9061-11.9182-6.59094 11.0759zm-3.0567-12.67951c-.6274-1.52402-2.7253-1.67774-3.5681-.26144l-6.59095 11.07585c-.7603 1.2777.08977 2.9088 1.57256 3.0174l11.49709.8424c1.4827.1086 2.5615-1.3811 1.9955-2.756z"/></g></svg>