<svg fill="none" height="48" viewBox="0 0 48 48" width="48" xmlns="http://www.w3.org/2000/svg" xmlns:xlink="http://www.w3.org/1999/xlink"><clipPath id="a"><path d="m0 0h48v48h-48z"/></clipPath><g clip-path="url(#a)" fill="#333"><path clip-rule="evenodd" d="m33.5459 4.34832-29.69845 29.69848c-.39052.3905-.39052 1.0237 0 1.4142l9.19235 9.1924c.3906.3905 1.0237.3905 1.4143 0l29.6984-29.6985c.3906-.3905.3906-1.0237 0-1.4142l-9.1923-9.19238c-.3906-.39053-1.0237-.39053-1.4143 0zm-31.11266 28.28428c-1.17157 1.1716-1.17157 3.0711 0 4.2426l9.19236 9.1924c1.1716 1.1716 3.0711 1.1716 4.2427 0l29.6985-29.6985c1.1715-1.1715 1.1715-3.071 0-4.2426l-9.1924-9.1924c-1.1716-1.17157-3.0711-1.17157-4.2427 0z" fill-rule="evenodd"/><path d="m10.565 30.8632c.5858.5858.5858 1.5355 0 2.1213-.58581.5858-1.53556.5858-2.12134 0-.58579-.5858-.58579-1.5355 0-2.1213.58578-.5858 1.53553-.5858 2.12134 0z"/><path d="m13.3934 28.035c.5858.5858.5858 1.5356 0 2.1214-.5858.5857-1.5355.5857-2.1213 0-.5858-.5858-.5858-1.5356 0-2.1214.5858-.5857 1.5355-.5857 2.1213 0z"/><path d="m16.2218 25.2069c.5858.5858.5858 1.5356 0 2.1213-.5858.5858-1.5355.5858-2.1213 0-.5858-.5857-.5858-1.5355 0-2.1213s1.5355-.5858 2.1213 0z"/><path d="m19.0503 22.3788c.5858.5858.5858 1.5355 0 2.1213s-1.5356.5858-2.1214 0c-.5857-.5858-.5857-1.5355 0-2.1213.5858-.5858 1.5356-.5858 2.1214 0z"/><path d="m21.8787 19.5507c.5858.5858.5858 1.5355 0 2.1213s-1.5355.5858-2.1213 0-.5858-1.5355 0-2.1213 1.5355-.5858 2.1213 0z"/><path d="m24.7071 16.7225c.5858.5858.5858 1.5356 0 2.1214-.5858.5857-1.5355.5857-2.1213 0-.5858-.5858-.5858-1.5356 0-2.1214.5858-.5857 1.5355-.5857 2.1213 0z"/><path d="m27.5355 13.8925c.5858.5858.5858 1.5355 0 2.1213s-1.5355.5858-2.1213 0-.5858-1.5355 0-2.1213 1.5355-.5858 2.1213 0z"/><path d="m30.364 11.0643c.5857.5858.5857 1.5356 0 2.1214-.5858.5857-1.5356.5857-2.1214 0-.5857-.5858-.5857-1.5356 0-2.1214.5858-.5857 1.5356-.5857 2.1214 0z"/><path d="m33.1924 8.23621c.5858.58579.5858 1.53554 0 2.12129-.5858.5858-1.5355.5858-2.1213 0-.5858-.58575-.5858-1.5355 0-2.12129.5858-.58578 1.5355-.58578 2.1213 0z"/><path d="m17.636 37.9354c.5858.5858.5858 1.5356 0 2.1214-.5858.5857-1.5355.5857-2.1213 0-.5858-.5858-.5858-1.5356 0-2.1214s1.5355-.5858 2.1213 0z"/><path d="m13.3934 37.9354c.5858.5858.5858 1.5356 0 2.1214-.5858.5857-1.5355.5857-2.1213 0-.5858-.5858-.5858-1.5356 0-2.1214s1.5355-.5858 2.1213 0z"/><path d="m20.4645 35.1073c.5857.5858.5857 1.5355 0 2.1213-.5858.5858-1.5356.5858-2.1214 0s-.5858-1.5355 0-2.1213 1.5356-.5858 2.1214 0z"/><path d="m23.2929 32.2772c.5858.5858.5858 1.5356 0 2.1214-.5858.5857-1.5356.5857-2.1213 0-.5858-.5858-.5858-1.5356 0-2.1214.5857-.5858 1.5355-.5858 2.1213 0z"/><path d="m26.1213 29.4491c.5858.5858.5858 1.5355 0 2.1213s-1.5355.5858-2.1213 0-.5858-1.5355 0-2.1213 1.5355-.5858 2.1213 0z"/><path d="m28.9497 26.621c.5858.5858.5858 1.5355 0 2.1213-.5857.5858-1.5355.5858-2.1213 0s-.5858-1.5355 0-2.1213 1.5356-.5858 2.1213 0z"/><path d="m31.7782 23.7929c.5858.5857.5858 1.5355 0 2.1213s-1.5356.5858-2.1213 0c-.5858-.5858-.5858-1.5356 0-2.1213.5857-.5858 1.5355-.5858 2.1213 0z"/><path d="m34.6066 20.9647c.5858.5858.5858 1.5356 0 2.1214-.5858.5857-1.5355.5857-2.1213 0-.5858-.5858-.5858-1.5356 0-2.1214s1.5355-.5858 2.1213 0z"/><path d="m37.435 18.1366c.5858.5858.5858 1.5355 0 2.1213s-1.5355.5858-2.1213 0-.5858-1.5355 0-2.1213 1.5355-.5858 2.1213 0z"/><path d="m40.2635 15.3085c.5857.5858.5857 1.5355 0 2.1213-.5858.5858-1.5356.5858-2.1214 0-.5857-.5858-.5857-1.5355 0-2.1213.5858-.5858 1.5356-.5858 2.1214 0z"/><path d="m40.2635 11.0643c.5857.5858.5857 1.5356 0 2.1214-.5858.5857-1.5356.5857-2.1214 0-.5857-.5858-.5857-1.5356 0-2.1214.5858-.5857 1.5356-.5857 2.1214 0z"/><path d="m37.435 8.23621c.5858.58579.5858 1.53554 0 2.12129-.5858.5858-1.5355.5858-2.1213 0-.5858-.58575-.5858-1.5355 0-2.12129.5858-.58578 1.5355-.58578 2.1213 0z"/><path d="m7.86067 34.0606-.67244 2.5096-1.83711-1.8371z"/><path clip-rule="evenodd" d="m33.5459 4.34832-29.69845 29.69848c-.39052.3905-.39052 1.0237 0 1.4142l9.19235 9.1924c.3906.3905 1.0237.3905 1.4143 0l29.6984-29.6985c.3906-.3905.3906-1.0237 0-1.4142l-9.1923-9.19238c-.3906-.39053-1.0237-.39053-1.4143 0zm-31.11266 28.28428c-1.17157 1.1716-1.17157 3.0711 0 4.2426l9.19236 9.1924c1.1716 1.1716 3.0711 1.1716 4.2427 0l29.6985-29.6985c1.1715-1.1715 1.1715-3.071 0-4.2426l-9.1924-9.1924c-1.1716-1.17157-3.0711-1.17157-4.2427 0z" fill-rule="evenodd"/><path d="m10.565 30.8632c.5858.5858.5858 1.5355 0 2.1213-.58581.5858-1.53556.5858-2.12134 0-.58579-.5858-.58579-1.5355 0-2.1213.58578-.5858 1.53553-.5858 2.12134 0z"/><path d="m13.3934 28.035c.5858.5858.5858 1.5356 0 2.1214-.5858.5857-1.5355.5857-2.1213 0-.5858-.5858-.5858-1.5356 0-2.1214.5858-.5857 1.5355-.5857 2.1213 0z"/><path d="m16.2218 25.2069c.5858.5858.5858 1.5356 0 2.1213-.5858.5858-1.5355.5858-2.1213 0-.5858-.5857-.5858-1.5355 0-2.1213s1.5355-.5858 2.1213 0z"/><path d="m19.0503 22.3788c.5858.5858.5858 1.5355 0 2.1213s-1.5356.5858-2.1214 0c-.5857-.5858-.5857-1.5355 0-2.1213.5858-.5858 1.5356-.5858 2.1214 0z"/><path d="m21.8787 19.5507c.5858.5858.5858 1.5355 0 2.1213s-1.5355.5858-2.1213 0-.5858-1.5355 0-2.1213 1.5355-.5858 2.1213 0z"/><path d="m24.7071 16.7225c.5858.5858.5858 1.5356 0 2.1214-.5858.5857-1.5355.5857-2.1213 0-.5858-.5858-.5858-1.5356 0-2.1214.5858-.5857 1.5355-.5857 2.1213 0z"/><path d="m27.5355 13.8925c.5858.5858.5858 1.5355 0 2.1213s-1.5355.5858-2.1213 0-.5858-1.5355 0-2.1213 1.5355-.5858 2.1213 0z"/><path d="m30.364 11.0643c.5857.5858.5857 1.5356 0 2.1214-.5858.5857-1.5356.5857-2.1214 0-.5857-.5858-.5857-1.5356 0-2.1214.5858-.5857 1.5356-.5857 2.1214 0z"/><path d="m33.1924 8.23621c.5858.58579.5858 1.53554 0 2.12129-.5858.5858-1.5355.5858-2.1213 0-.5858-.58575-.5858-1.5355 0-2.12129.5858-.58578 1.5355-.58578 2.1213 0z"/><path d="m17.636 37.9354c.5858.5858.5858 1.5356 0 2.1214-.5858.5857-1.5355.5857-2.1213 0-.5858-.5858-.5858-1.5356 0-2.1214s1.5355-.5858 2.1213 0z"/><path d="m13.3934 37.9354c.5858.5858.5858 1.5356 0 2.1214-.5858.5857-1.5355.5857-2.1213 0-.5858-.5858-.5858-1.5356 0-2.1214s1.5355-.5858 2.1213 0z"/><path d="m20.4645 35.1073c.5857.5858.5857 1.5355 0 2.1213-.5858.5858-1.5356.5858-2.1214 0s-.5858-1.5355 0-2.1213 1.5356-.5858 2.1214 0z"/><path d="m23.2929 32.2772c.5858.5858.5858 1.5356 0 2.1214-.5858.5857-1.5356.5857-2.1213 0-.5858-.5858-.5858-1.5356 0-2.1214.5857-.5858 1.5355-.5858 2.1213 0z"/><path d="m26.1213 29.4491c.5858.5858.5858 1.5355 0 2.1213s-1.5355.5858-2.1213 0-.5858-1.5355 0-2.1213 1.5355-.5858 2.1213 0z"/><path d="m28.9497 26.621c.5858.5858.5858 1.5355 0 2.1213-.5857.5858-1.5355.5858-2.1213 0s-.5858-1.5355 0-2.1213 1.5356-.5858 2.1213 0z"/><path d="m31.7782 23.7929c.5858.5857.5858 1.5355 0 2.1213s-1.5356.5858-2.1213 0c-.5858-.5858-.5858-1.5356 0-2.1213.5857-.5858 1.5355-.5858 2.1213 0z"/><path d="m34.6066 20.9647c.5858.5858.5858 1.5356 0 2.1214-.5858.5857-1.5355.5857-2.1213 0-.5858-.5858-.5858-1.5356 0-2.1214s1.5355-.5858 2.1213 0z"/><path d="m37.435 18.1366c.5858.5858.5858 1.5355 0 2.1213s-1.5355.5858-2.1213 0-.5858-1.5355 0-2.1213 1.5355-.5858 2.1213 0z"/><path d="m40.2635 15.3085c.5857.5858.5857 1.5355 0 2.1213-.5858.5858-1.5356.5858-2.1214 0-.5857-.5858-.5857-1.5355 0-2.1213.5858-.5858 1.5356-.5858 2.1214 0z"/><path d="m40.2635 11.0643c.5857.5858.5857 1.5356 0 2.1214-.5858.5857-1.5356.5857-2.1214 0-.5857-.5858-.5857-1.5356 0-2.1214.5858-.5857 1.5356-.5857 2.1214 0z"/><path d="m37.435 8.23621c.5858.58579.5858 1.53554 0 2.12129-.5858.5858-1.5355.5858-2.1213 0-.5858-.58575-.5858-1.5355 0-2.12129.5858-.58578 1.5355-.58578 2.1213 0z"/><path d="m7.86067 34.0606-.67244 2.5096-1.83711-1.8371z"/></g></svg>