<svg fill="none" height="48" viewBox="0 0 48 48" width="48" xmlns="http://www.w3.org/2000/svg" xmlns:xlink="http://www.w3.org/1999/xlink"><clipPath id="a"><path d="m0 0h48v48h-48z"/></clipPath><g clip-path="url(#a)" fill="#333"><g clip-rule="evenodd" fill-rule="evenodd"><path d="m29.0962 3.84738-24.74875 24.74872c-.39052.3905-.39052 1.0237 0 1.4142l14.14215 14.1422c.3905.3905 1.0237.3905 1.4142 0l24.7487-24.7488c.3906-.3905.3906-1.0237 0-1.4142l-14.1421-14.14212c-.3905-.39053-1.0237-.39052-1.4142 0zm-26.16296 23.33452c-1.17157 1.1716-1.17157 3.0711 0 4.2426l14.14216 14.1422c1.1715 1.1716 3.071 1.1716 4.2426 0l24.7488-24.7488c1.1715-1.1715 1.1715-3.071 0-4.2426l-14.1422-14.14213c-1.1716-1.17158-3.0711-1.17158-4.2426 0z"/><path d="m8.94365 29.6568c.19527-.1953.19527-.5119 0-.7071-.19526-.1953-.51184-.1953-.7071 0-.19526.1952-.19526.5118 0 .7071.19526.1952.51184.1952.7071 0zm.70711.7071c.58574-.5858.58574-1.5356 0-2.1213-.58579-.5858-1.53553-.5858-2.12132 0-.58579.5857-.58579 1.5355 0 2.1213s1.53553.5858 2.12132 0z"/><path d="m12.4792 26.1214c.1952-.1953.1952-.5119 0-.7071-.1953-.1953-.5119-.1953-.7071 0-.1953.1952-.1953.5118 0 .7071.1952.1952.5118.1952.7071 0zm.7071.7071c.5858-.5858.5858-1.5356 0-2.1213-.5858-.5858-1.5356-.5858-2.1213 0-.5858.5857-.5858 1.5355 0 2.1213.5857.5858 1.5355.5858 2.1213 0z"/><path d="m16.0147 22.5857c.1953-.1952.1953-.5118 0-.7071-.1952-.1952-.5118-.1952-.7071 0-.1952.1953-.1952.5119 0 .7071.1953.1953.5119.1953.7071 0zm.7071.7071c.5858-.5857.5858-1.5355 0-2.1213s-1.5355-.5858-2.1213 0-.5858 1.5356 0 2.1213c.5858.5858 1.5355.5858 2.1213 0z"/><path d="m19.5503 19.0503c.1952-.1952.1952-.5118 0-.7071-.1953-.1952-.5119-.1952-.7072 0-.1952.1953-.1952.5119 0 .7071.1953.1953.5119.1953.7072 0zm.7071.7071c.5857-.5857.5857-1.5355 0-2.1213-.5858-.5858-1.5356-.5858-2.1214 0-.5857.5858-.5857 1.5356 0 2.1213.5858.5858 1.5356.5858 2.1214 0z"/><path d="m23.0858 15.5147c.1952-.1953.1952-.5119 0-.7071-.1953-.1953-.5119-.1953-.7071 0-.1953.1952-.1953.5118 0 .7071.1952.1952.5118.1952.7071 0zm.7071.7071c.5858-.5858.5858-1.5355 0-2.1213s-1.5356-.5858-2.1213 0c-.5858.5858-.5858 1.5355 0 2.1213.5857.5858 1.5355.5858 2.1213 0z"/><path d="m26.6213 11.9793c.1953-.1953.1953-.5119 0-.7071-.1952-.1953-.5118-.1953-.7071 0-.1952.1952-.1952.5118 0 .7071.1953.1952.5119.1952.7071 0zm.7071.7071c.5858-.5858.5858-1.5355 0-2.1213-.5858-.58581-1.5355-.58581-2.1213 0-.5858.5858-.5858 1.5355 0 2.1213s1.5355.5858 2.1213 0z"/><path d="m30.1569 8.44364c.1952-.19526.1952-.51184 0-.70711-.1953-.19526-.5119-.19526-.7072 0-.1952.19527-.1952.51185 0 .70711.1953.19526.5119.19526.7072 0zm.7071.70711c.5857-.58579.5857-1.53554 0-2.12132-.5858-.58579-1.5356-.58579-2.1214 0-.5857.58578-.5857 1.53553 0 2.12132.5858.58578 1.5356.58578 2.1214 0z"/><path d="m12.4792 33.1924c.1952-.1952.1952-.5118 0-.7071-.1953-.1952-.5119-.1952-.7071 0-.1953.1953-.1953.5119 0 .7071.1952.1953.5118.1953.7071 0zm.7071.7071c.5858-.5858.5858-1.5355 0-2.1213s-1.5356-.5858-2.1213 0c-.5858.5858-.5858 1.5355 0 2.1213.5857.5858 1.5355.5858 2.1213 0z"/><path d="m16.0147 29.6568c.1953-.1953.1953-.5119 0-.7071-.1952-.1953-.5118-.1953-.7071 0-.1952.1952-.1952.5118 0 .7071.1953.1952.5119.1952.7071 0zm.7071.7071c.5858-.5858.5858-1.5356 0-2.1213-.5858-.5858-1.5355-.5858-2.1213 0-.5858.5857-.5858 1.5355 0 2.1213s1.5355.5858 2.1213 0z"/><path d="m19.5503 26.1214c.1952-.1953.1952-.5119 0-.7071-.1953-.1953-.5119-.1953-.7072 0-.1952.1952-.1952.5118 0 .7071.1953.1952.5119.1952.7072 0zm.7071.7071c.5857-.5858.5857-1.5356 0-2.1213-.5858-.5858-1.5356-.5858-2.1214 0-.5857.5857-.5857 1.5355 0 2.1213.5858.5858 1.5356.5858 2.1214 0z"/><path d="m23.0858 22.5857c.1952-.1952.1952-.5118 0-.7071-.1953-.1952-.5119-.1952-.7071 0-.1953.1953-.1953.5119 0 .7071.1952.1953.5118.1953.7071 0zm.7071.7071c.5858-.5857.5858-1.5355 0-2.1213s-1.5356-.5858-2.1213 0c-.5858.5858-.5858 1.5356 0 2.1213.5857.5858 1.5355.5858 2.1213 0z"/><path d="m26.6213 19.0503c.1953-.1952.1953-.5118 0-.7071-.1952-.1952-.5118-.1952-.7071 0-.1952.1953-.1952.5119 0 .7071.1953.1953.5119.1953.7071 0zm.7071.7071c.5858-.5857.5858-1.5355 0-2.1213s-1.5355-.5858-2.1213 0-.5858 1.5356 0 2.1213c.5858.5858 1.5355.5858 2.1213 0z"/><path d="m30.1569 15.5147c.1952-.1953.1952-.5119 0-.7071-.1953-.1953-.5119-.1953-.7072 0-.1952.1952-.1952.5118 0 .7071.1953.1952.5119.1952.7072 0zm.7071.7071c.5857-.5858.5857-1.5355 0-2.1213-.5858-.5858-1.5356-.5858-2.1214 0-.5857.5858-.5857 1.5355 0 2.1213.5858.5858 1.5356.5858 2.1214 0z"/><path d="m33.6924 11.9793c.1952-.1953.1952-.5119 0-.7071-.1953-.1953-.5119-.1953-.7071 0-.1953.1952-.1953.5118 0 .7071.1952.1952.5118.1952.7071 0zm.7071.7071c.5858-.5858.5858-1.5355 0-2.1213-.5858-.58581-1.5355-.58581-2.1213 0-.5858.5858-.5858 1.5355 0 2.1213s1.5355.5858 2.1213 0z"/><path d="m16.0147 36.7278c.1953-.1952.1953-.5118 0-.7071-.1952-.1952-.5118-.1952-.7071 0-.1952.1953-.1952.5119 0 .7071.1953.1953.5119.1953.7071 0zm.7071.7071c.5858-.5858.5858-1.5355 0-2.1213s-1.5355-.5858-2.1213 0-.5858 1.5355 0 2.1213 1.5355.5858 2.1213 0z"/><path d="m19.5503 33.1924c.1952-.1952.1952-.5118 0-.7071-.1953-.1952-.5119-.1952-.7072 0-.1952.1953-.1952.5119 0 .7071.1953.1953.5119.1953.7072 0zm.7071.7071c.5857-.5858.5857-1.5355 0-2.1213-.5858-.5858-1.5356-.5858-2.1214 0-.5857.5858-.5857 1.5355 0 2.1213.5858.5858 1.5356.5858 2.1214 0z"/><path d="m23.0858 29.6568c.1952-.1953.1952-.5119 0-.7071-.1953-.1953-.5119-.1953-.7071 0-.1953.1952-.1953.5118 0 .7071.1952.1952.5118.1952.7071 0zm.7071.7071c.5858-.5858.5858-1.5356 0-2.1213-.5858-.5858-1.5356-.5858-2.1213 0-.5858.5857-.5858 1.5355 0 2.1213.5857.5858 1.5355.5858 2.1213 0z"/><path d="m26.6213 26.1214c.1953-.1953.1953-.5119 0-.7071-.1952-.1953-.5118-.1953-.7071 0-.1952.1952-.1952.5118 0 .7071.1953.1952.5119.1952.7071 0zm.7071.7071c.5858-.5858.5858-1.5356 0-2.1213-.5858-.5858-1.5355-.5858-2.1213 0-.5858.5857-.5858 1.5355 0 2.1213s1.5355.5858 2.1213 0z"/><path d="m30.1569 22.5857c.1952-.1952.1952-.5118 0-.7071-.1953-.1952-.5119-.1952-.7072 0-.1952.1953-.1952.5119 0 .7071.1953.1953.5119.1953.7072 0zm.7071.7071c.5857-.5857.5857-1.5355 0-2.1213-.5858-.5858-1.5356-.5858-2.1214 0-.5857.5858-.5857 1.5356 0 2.1213.5858.5858 1.5356.5858 2.1214 0z"/><path d="m33.6924 19.0503c.1952-.1952.1952-.5118 0-.7071-.1953-.1952-.5119-.1952-.7071 0-.1953.1953-.1953.5119 0 .7071.1952.1953.5118.1953.7071 0zm.7071.7071c.5858-.5857.5858-1.5355 0-2.1213s-1.5355-.5858-2.1213 0-.5858 1.5356 0 2.1213c.5858.5858 1.5355.5858 2.1213 0z"/><path d="m37.2279 15.5147c.1953-.1953.1953-.5119 0-.7071-.1952-.1953-.5118-.1953-.7071 0-.1952.1952-.1952.5118 0 .7071.1953.1952.5119.1952.7071 0zm.7071.7071c.5858-.5858.5858-1.5355 0-2.1213s-1.5355-.5858-2.1213 0-.5858 1.5355 0 2.1213 1.5355.5858 2.1213 0z"/></g><path d="m20.2574 38.8493c.5857.5857.5857 1.5355 0 2.1213-.5858.5858-1.5356.5858-2.1214 0-.5857-.5858-.5857-1.5356 0-2.1213.5858-.5858 1.5356-.5858 2.1214 0z"/><path clip-rule="evenodd" d="m19.5503 40.2635c.1952-.1953.1952-.5119 0-.7071-.1953-.1953-.5119-.1953-.7072 0-.1952.1952-.1952.5118 0 .7071.1953.1952.5119.1952.7072 0zm.7071.7071c.5857-.5858.5857-1.5356 0-2.1213-.5858-.5858-1.5356-.5858-2.1214 0-.5857.5857-.5857 1.5355 0 2.1213.5858.5858 1.5356.5858 2.1214 0z" fill-rule="evenodd"/><path d="m23.7929 35.3136c.5858.5858.5858 1.5355 0 2.1213s-1.5356.5858-2.1213 0c-.5858-.5858-.5858-1.5355 0-2.1213.5857-.5858 1.5355-.5858 2.1213 0z"/><path clip-rule="evenodd" d="m23.0858 36.7278c.1952-.1952.1952-.5118 0-.7071-.1953-.1952-.5119-.1952-.7071 0-.1953.1953-.1953.5119 0 .7071.1952.1953.5118.1953.7071 0zm.7071.7071c.5858-.5858.5858-1.5355 0-2.1213s-1.5356-.5858-2.1213 0c-.5858.5858-.5858 1.5355 0 2.1213.5857.5858 1.5355.5858 2.1213 0z" fill-rule="evenodd"/><path d="m27.3284 31.7782c.5858.5858.5858 1.5355 0 2.1213s-1.5355.5858-2.1213 0-.5858-1.5355 0-2.1213 1.5355-.5858 2.1213 0z"/><path clip-rule="evenodd" d="m26.6213 33.1924c.1953-.1952.1953-.5118 0-.7071-.1952-.1952-.5118-.1952-.7071 0-.1952.1953-.1952.5119 0 .7071.1953.1953.5119.1953.7071 0zm.7071.7071c.5858-.5858.5858-1.5355 0-2.1213s-1.5355-.5858-2.1213 0-.5858 1.5355 0 2.1213 1.5355.5858 2.1213 0z" fill-rule="evenodd"/><path d="m30.864 28.2426c.5857.5857.5857 1.5355 0 2.1213-.5858.5858-1.5356.5858-2.1214 0-.5857-.5858-.5857-1.5356 0-2.1213.5858-.5858 1.5356-.5858 2.1214 0z"/><path clip-rule="evenodd" d="m30.1569 29.6568c.1952-.1953.1952-.5119 0-.7071-.1953-.1953-.5119-.1953-.7072 0-.1952.1952-.1952.5118 0 .7071.1953.1952.5119.1952.7072 0zm.7071.7071c.5857-.5858.5857-1.5356 0-2.1213-.5858-.5858-1.5356-.5858-2.1214 0-.5857.5857-.5857 1.5355 0 2.1213.5858.5858 1.5356.5858 2.1214 0z" fill-rule="evenodd"/><path d="m34.3995 24.7072c.5858.5857.5858 1.5355 0 2.1213s-1.5355.5858-2.1213 0-.5858-1.5356 0-2.1213c.5858-.5858 1.5355-.5858 2.1213 0z"/><path clip-rule="evenodd" d="m33.6924 26.1214c.1952-.1953.1952-.5119 0-.7071-.1953-.1953-.5119-.1953-.7071 0-.1953.1952-.1953.5118 0 .7071.1952.1952.5118.1952.7071 0zm.7071.7071c.5858-.5858.5858-1.5356 0-2.1213-.5858-.5858-1.5355-.5858-2.1213 0-.5858.5857-.5858 1.5355 0 2.1213s1.5355.5858 2.1213 0z" fill-rule="evenodd"/><path d="m37.935 21.1715c.5858.5858.5858 1.5356 0 2.1213-.5858.5858-1.5355.5858-2.1213 0-.5858-.5857-.5858-1.5355 0-2.1213s1.5355-.5858 2.1213 0z"/><path clip-rule="evenodd" d="m37.2279 22.5857c.1953-.1952.1953-.5118 0-.7071-.1952-.1952-.5118-.1952-.7071 0-.1952.1953-.1952.5119 0 .7071.1953.1953.5119.1953.7071 0zm.7071.7071c.5858-.5857.5858-1.5355 0-2.1213s-1.5355-.5858-2.1213 0-.5858 1.5356 0 2.1213c.5858.5858 1.5355.5858 2.1213 0z" fill-rule="evenodd"/><path d="m41.4706 17.6361c.5857.5858.5857 1.5356 0 2.1213-.5858.5858-1.5356.5858-2.1214 0-.5858-.5857-.5858-1.5355 0-2.1213s1.5356-.5858 2.1214 0z"/><path clip-rule="evenodd" d="m40.7634 19.0503c.1953-.1952.1953-.5118 0-.7071-.1952-.1952-.5118-.1952-.7071 0-.1952.1953-.1952.5119 0 .7071.1953.1953.5119.1953.7071 0zm.7072.7071c.5857-.5857.5857-1.5355 0-2.1213-.5858-.5858-1.5356-.5858-2.1214 0s-.5858 1.5356 0 2.1213c.5858.5858 1.5356.5858 2.1214 0z" fill-rule="evenodd"/></g></svg>