<svg fill="none" height="48" viewBox="0 0 48 48" width="48" xmlns="http://www.w3.org/2000/svg"><g clip-rule="evenodd" fill="#333" fill-rule="evenodd"><path d="m24 21c3.5899 0 6.5-2.9101 6.5-6.5s-2.9101-6.5-6.5-6.5-6.5 2.9101-6.5 6.5 2.9101 6.5 6.5 6.5zm0 2c4.6944 0 8.5-3.8056 8.5-8.5 0-4.69442-3.8056-8.5-8.5-8.5s-8.5 3.80558-8.5 8.5c0 4.6944 3.8056 8.5 8.5 8.5z"/><path d="m24.3845 9.91006c.5504.0461.9592.52964.9131 1.07994l-.6021 7.1874c-.0461.5503-.5296.9591-1.08.913-.5503-.0461-.9591-.5296-.913-1.08l.6021-7.1873c.0461-.5504.5296-.95915 1.0799-.91304z"/><path d="m14.5 40c3.5899 0 6.5-2.9101 6.5-6.5s-2.9101-6.5-6.5-6.5-6.5 2.9101-6.5 6.5 2.9101 6.5 6.5 6.5zm0 2c4.6944 0 8.5-3.8056 8.5-8.5s-3.8056-8.5-8.5-8.5c-4.69442 0-8.5 3.8056-8.5 8.5s3.80558 8.5 8.5 8.5z"/><path d="m17.7571 36.7573c-.3905.3906-1.0236.3906-1.4142 0l-5.1-5.1c-.3905-.3905-.3905-1.0237 0-1.4142.3906-.3905 1.0237-.3905 1.4142 0l5.1 5.1c.3906.3905.3906 1.0237 0 1.4142z"/><path d="m33.5 38c3.5899 0 6.5-2.9101 6.5-6.5s-2.9101-6.5-6.5-6.5-6.5 2.9101-6.5 6.5 2.9101 6.5 6.5 6.5zm0 2c4.6944 0 8.5-3.8056 8.5-8.5s-3.8056-8.5-8.5-8.5-8.5 3.8056-8.5 8.5 3.8056 8.5 8.5 8.5z"/><path d="m37.7588 29.745c.2105.5106-.0329 1.0951-.5435 1.3056l-6.6684 2.7481c-.5107.2104-1.0952-.0329-1.3056-.5436-.2105-.5106.0329-1.0951.5435-1.3055l6.6684-2.7482c.5107-.2104 1.0952.033 1.3056.5436z"/></g></svg>