<svg fill="none" height="48" viewBox="0 0 48 48" width="48" xmlns="http://www.w3.org/2000/svg"><g clip-rule="evenodd" fill="#333" fill-rule="evenodd"><path d="m14.5 21c3.5899 0 6.5-2.9101 6.5-6.5s-2.9101-6.5-6.5-6.5-6.5 2.9101-6.5 6.5 2.9101 6.5 6.5 6.5zm0 2c4.6944 0 8.5-3.8056 8.5-8.5 0-4.69442-3.8056-8.5-8.5-8.5-4.69442 0-8.5 3.80558-8.5 8.5 0 4.6944 3.80558 8.5 8.5 8.5z"/><path d="m18.3396 11.9556c.3051.4603.1792 1.0808-.2811 1.3859l-6.012 3.9846c-.4604.3051-1.0809.1792-1.386-.2812-.3051-.4603-.1793-1.0808.2811-1.3859l6.012-3.9846c.4603-.3051 1.0809-.1792 1.386.2812z"/><path d="m33.5 21c3.5899 0 6.5-2.9101 6.5-6.5s-2.9101-6.5-6.5-6.5-6.5 2.9101-6.5 6.5 2.9101 6.5 6.5 6.5zm0 2c4.6944 0 8.5-3.8056 8.5-8.5 0-4.69442-3.8056-8.5-8.5-8.5s-8.5 3.80558-8.5 8.5c0 4.6944 3.8056 8.5 8.5 8.5z"/><path d="m31.9029 10.1797c.5181-.19145 1.0932.0733 1.2847.5913l2.5008 6.7651c.1915.518-.0732 1.0932-.5913 1.2847-.518.1914-1.0932-.0733-1.2847-.5913l-2.5007-6.7651c-.1915-.518.0732-1.0932.5912-1.2847z"/><path d="m14.5 40c3.5899 0 6.5-2.9101 6.5-6.5s-2.9101-6.5-6.5-6.5-6.5 2.9101-6.5 6.5 2.9101 6.5 6.5 6.5zm0 2c4.6944 0 8.5-3.8056 8.5-8.5s-3.8056-8.5-8.5-8.5c-4.69442 0-8.5 3.8056-8.5 8.5s3.80558 8.5 8.5 8.5z"/><path d="m16.2747 37.7509c-.5096.2127-1.0953-.0279-1.3081-.5376l-2.7787-6.6557c-.2128-.5096.0278-1.0953.5375-1.3081.5096-.2127 1.0953.0279 1.3081.5376l2.7787 6.6557c.2128.5096-.0278 1.0953-.5375 1.3081z"/><path d="m33.5 40c3.5899 0 6.5-2.9101 6.5-6.5s-2.9101-6.5-6.5-6.5-6.5 2.9101-6.5 6.5 2.9101 6.5 6.5 6.5zm0 2c4.6944 0 8.5-3.8056 8.5-8.5s-3.8056-8.5-8.5-8.5-8.5 3.8056-8.5 8.5 3.8056 8.5 8.5 8.5z"/><path d="m36.9885 30.4922c.3607.4183.314 1.0497-.1043 1.4104l-5.4623 4.7099c-.4182.3607-1.0497.314-1.4103-.1043-.3607-.4182-.314-1.0497.1043-1.4103l5.4622-4.71c.4183-.3606 1.0497-.3139 1.4104.1043z"/></g></svg>