<svg fill="none" height="48" viewBox="0 0 48 48" width="48" xmlns="http://www.w3.org/2000/svg"><g fill="#333"><path d="m20.3036 15.308c.5106-.2104.754-.7949.5436-1.3056-.2105-.5106-.795-.7539-1.3056-.5435l-7.8452 3.2331c-.5106.2104-.754.7949-.5436 1.3056.2105.5106.795.7539 1.3056.5435z"/><path clip-rule="evenodd" d="m26 16c0 5.5228-4.4772 10-10 10s-10-4.4772-10-10 4.4772-10 10-10 10 4.4772 10 10zm-2 0c0 4.4183-3.5817 8-8 8s-8-3.5817-8-8 3.5817-8 8-8 8 3.5817 8 8z" fill-rule="evenodd"/><path d="m35.9107 33.9251c.5383.1238 1.0749-.2122 1.1987-.7505.1237-.5382-.2123-1.0749-.7506-1.1986l-8.2695-1.9011c-.5383-.1238-1.0749.2122-1.1987.7505-.1237.5382.2123 1.0749.7506 1.1986z"/><path clip-rule="evenodd" d="m32 42c5.5228 0 10-4.4772 10-10s-4.4772-10-10-10-10 4.4772-10 10 4.4772 10 10 10zm0-2c4.4183 0 8-3.5817 8-8s-3.5817-8-8-8-8 3.5817-8 8 3.5817 8 8 8z" fill-rule="evenodd"/></g></svg>