<svg fill="none" height="48" viewBox="0 0 48 48" width="48" xmlns="http://www.w3.org/2000/svg"><g fill="#333"><path clip-rule="evenodd" d="m36.9228 21c.5523 0 1 .4477 1 1 0 1.3228.0197 2.692.0392 4.0465.0223 1.546.0442.0728.0363 1.4895-.0152 2.7189-.1359 5.3058-.578 7.5458-.441 2.2345-1.2217 4.2316-2.6409 5.6719-1.4487 1.4701-3.4483 2.2463-6.0762 2.2463-4.393 0-6.8759-1.6368-8.2305-3.4218-.6606-.8704-1.0249-1.7394-1.2249-2.3923-.1002-.3274-.1602-.6039-.1956-.8043-.0178-.1003-.0295-.1821-.037-.2421-.0037-.03-.0065-.0546-.0084-.0735l-.0023-.024-.0008-.0086-.0002-.0035-.0002-.0015s-.0001-.0014.9967-.081l-.9968.0796-.0796-.9968 1.9936-.1593.0791.9906.0002.002c.0004.004.0014.0134.0032.0277.0036.0286.0104.0769.0219.1421.0231.1305.0651.3269.1386.567.1476.4819.4178 1.1261.9056 1.7689.9421 1.2413 2.8107 2.6308 6.6374 2.6308 2.2071 0 3.6524-.6361 4.6516-1.6501 1.0285-1.0438 1.6983-2.6026 2.1034-4.6554.404-2.0472.5251-4.479.5402-7.1697.0081-1.4538-.0135.0913-.0356-1.4028-.0198-1.3336-.04-2.6985-.04-4.122 0-.5523.4477-1 1-1z" fill-rule="evenodd"/><path clip-rule="evenodd" d="m23.0033 11.4695c.0003 0-.0001.0034-.0022.0102.0008-.0068.0019-.0102.0022-.0102zm-.0099.0305c-.0208-.0481-.0817-.1529-.2483-.314-.3132-.303-.8712-.6679-1.7242-1.0169-1.6962-.69388-4.1774-1.1691-7.0209-1.1691s-5.32474.47522-7.02091 1.1691c-.85298.349-1.41099.7139-1.72422 1.0169-.16655.1611-.22744.2659-.24827.314.02083.0481.08172.1529.24827.314.31323.303.87124.6679 1.72422 1.0169 1.69617.6939 4.17741 1.1691 7.02091 1.1691s5.3247-.4752 7.0209-1.1691c.853-.349 1.411-.7139 1.7242-1.0169.1666-.1611.2275-.2659.2483-.314zm-17.9967-.0305c.00032 0 .00137.0034.00221.0102-.00211-.0068-.00253-.0102-.00221-.0102zm0 .061c-.00032 0 .0001-.0034.00221-.0102-.00084.0068-.00189.0102-.00221.0102zm18.0044-.0102c.0021.0068.0025.0102.0022.0102s-.0014-.0034-.0022-.0102zm-9.0011 4.4797c6.0751 0 11-2.0147 11-4.5 0-2.48528-4.9249-4.5-11-4.5-6.07513 0-11 2.01472-11 4.5 0 2.4853 4.92487 4.5 11 4.5z" fill-rule="evenodd"/><path d="m4 14 9 2.3158v19.6842l-9-2.3158z"/><path clip-rule="evenodd" d="m25 12s-.694.5138-2 1.1161c-1.8499.8531-4.9276 1.8839-9 1.8839-4.15593 0-7.185-1.0042-9-1.8506-1.3221-.6166-2-1.1494-2-1.1494v22s3.47368 3 11 3c7.5263 0 11-3 11-3v-2.0619c-.3276.0409-.6613.0619-1 .0619s-.6724-.021-1-.0619v1.0051c-.349.2041-.8288.4544-1.4435.7093-1.5766.6535-4.0669 1.3475-7.5565 1.3475s-5.97995-.694-7.55648-1.3475c-.61474-.2549-1.0945-.5052-1.44352-.7093v-17.612l.05561.0226c2.06373.8357 5.06799 1.6462 8.94439 1.6462 3.7658 0 6.7672-.8136 8.8458-1.6422.052-.0207.1034-.0414.1542-.0621v.7662c.3276-.0409.6613-.0619 1-.0619s.6724.021 1 .0619z" fill-rule="evenodd"/><path clip-rule="evenodd" d="m24 30c3.3137 0 6-2.6863 6-6s-2.6863-6-6-6-6 2.6863-6 6 2.6863 6 6 6zm0 2c4.4183 0 8-3.5817 8-8s-3.5817-8-8-8-8 3.5817-8 8 3.5817 8 8 8z" fill-rule="evenodd"/><path d="m26 24c0 1.1046-.8954 2-2 2s-2-.8954-2-2 .8954-2 2-2 2 .8954 2 2z"/><path d="m23 20c0-.5523.4477-1 1-1s1 .4477 1 1v3c0 .5523-.4477 1-1 1s-1-.4477-1-1z"/><g clip-rule="evenodd" fill-rule="evenodd"><path d="m38.0396 19.7624c.5577-1.1155.9604-2.7964.9604-4.7624s-.4027-3.6469-.9604-4.7624c-.2786-.55721-.5587-.89956-.7743-1.08198-.1032-.08728-.1772-.12594-.2167-.1421-.0195-.00797-.0318-.01104-.0377-.01224-.0057-.00115-.0088-.00128-.0109-.00128s-.0052.00013-.0109.00128c-.0059.0012-.0182.00427-.0377.01224-.0395.01616-.1135.05482-.2167.1421-.2156.18242-.4957.52477-.7743 1.08198-.5577 1.1155-.9604 2.7964-.9604 4.7624s.4027 3.6469.9604 4.7624c.2786.5572.5587.8996.7743 1.082.1032.0873.1772.1259.2167.1421.0195.008.0318.011.0377.0122.0057.0012.0088.0013.0109.0013s.0052-.0001.0109-.0013c.0059-.0012.0182-.0042.0377-.0122.0395-.0162.1135-.0548.2167-.1421.2156-.1824.4957-.5248.7743-1.082zm-1.0396 3.2376c2.2091 0 4-3.5817 4-8s-1.7909-8-4-8-4 3.5817-4 8 1.7909 8 4 8z"/><path d="m38.0396 19.7624c.5577-1.1155.9604-2.7964.9604-4.7624s-.4027-3.6469-.9604-4.7624c-.2786-.55721-.5587-.89956-.7743-1.08198-.1032-.08728-.1772-.12594-.2167-.1421-.0195-.00797-.0318-.01104-.0377-.01224-.0057-.00115-.0088-.00128-.0109-.00128s-.0052.00013-.0109.00128c-.0059.0012-.0182.00427-.0377.01224-.0395.01616-.1135.05482-.2167.1421-.2156.18242-.4957.52477-.7743 1.08198-.5577 1.1155-.9604 2.7964-.9604 4.7624s.4027 3.6469.9604 4.7624c.2786.5572.5587.8996.7743 1.082.1032.0873.1772.1259.2167.1421.0195.008.0318.011.0377.0122.0057.0012.0088.0013.0109.0013s.0052-.0001.0109-.0013c.0059-.0012.0182-.0042.0377-.0122.0395-.0162.1135-.0548.2167-.1421.2156-.1824.4957-.5248.7743-1.082zm-1.0396 3.2376c2.2091 0 4-3.5817 4-8s-1.7909-8-4-8-4 3.5817-4 8 1.7909 8 4 8z"/></g></g></svg>