<svg fill="none" height="48" viewBox="0 0 48 48" width="48" xmlns="http://www.w3.org/2000/svg"><g fill="#333"><path d="m10.3446 11.9881c-1.45998 1.8579-2.3446 4.3963-2.3446 7.0464 0 5.9408 3.9647 10.9276 8.1509 14.5166 2.0726 1.777 4.1501 3.1681 5.7116 4.1155.7796.473 1.4279.8337 1.8788 1.0751.0899.0481.1719.0914.2455.1299.0755-.0416.1598-.0886.2525-.1409.452-.2549 1.1014-.6344 1.8824-1.1284.337-.2132.6981-.4474 1.0779-.7018.5855.4398 1.2185.8198 1.8898 1.131-.6849.4772-1.3257.8987-1.8986 1.261-.8128.5142-1.4915.911-1.9691 1.1803-.2389.1347-.4277.2377-.5581.3076-.0651.035-.1157.0617-.1507.08l-.0405.0211-.0113.0058-.0033.0018-.0011.0005c-.0004.0002-.0007.0004-.4567-.8896-.4338.901-.4341.9009-.4345.9007l-.0045-.0022-.0114-.0056-.0409-.02c-.0352-.0174-.086-.0427-.1514-.0758-.1309-.0663-.3202-.1639-.5596-.292-.4787-.2562-1.1586-.6347-1.9727-1.1286-1.626-.9866-3.7985-2.4403-5.9759-4.307-4.3138-3.6984-8.8491-9.1943-8.8491-16.035 0-3.0753 1.02123-6.0541 2.77202-8.2821 1.75558-2.23417 4.28408-3.7524 7.25918-3.7524 3.5036 0 6.1679 1.96337 7.9688 4.7338 1.8008-2.7703 4.4651-4.7338 7.9688-4.7338 2.9754 0 5.5039 1.5185 7.2594 3.7527 1.7507 2.2282 2.7718 5.207 2.7718 8.2818 0 .9963-.1041 1.9678-.2957 2.9121-.5165-.6459-1.1078-1.2294-1.7606-1.7375.0371-.3881.0563-.7797.0563-1.1746 0-2.6497-.8845-5.1881-2.3444-7.0461-1.4551-1.8519-3.4422-2.9884-5.6868-2.9884-3.1028 0-5.5094 2.0208-7.0712 5.2018l-.8976 1.8283-.8976-1.8283c-1.5619-3.1812-3.9685-5.2018-7.0712-5.2018-2.2444 0-4.2315 1.1363-5.6866 2.9881z"/><path d="m24 40 .4567.8896-.4428.2269-.4484-.2158z"/><path d="m34 31c1.1046 0 2-.8954 2-2s-.8954-2-2-2c-.2373 0-.4649.0413-.676.1171l-2.2989-2.2989-1.4143 1.4142 2.4194 2.4194c-.0198.1131-.0302.2294-.0302.3482 0 1.1046.8954 2 2 2z"/><path clip-rule="evenodd" d="m42 28.5c0 4.6944-3.8056 8.5-8.5 8.5s-8.5-3.8056-8.5-8.5 3.8056-8.5 8.5-8.5 8.5 3.8056 8.5 8.5zm-2 0c0 3.5899-2.9101 6.5-6.5 6.5s-6.5-2.9101-6.5-6.5 2.9101-6.5 6.5-6.5 6.5 2.9101 6.5 6.5z" fill-rule="evenodd"/></g></svg>