<svg fill="none" height="48" viewBox="0 0 48 48" width="48" xmlns="http://www.w3.org/2000/svg"><g clip-rule="evenodd" fill="#333" fill-rule="evenodd"><path d="m22 9v2.6875c0 .6531-.4174 1.2087-1 1.4146v25.8979c0 1.6569 1.3431 3 3 3s3-1.3431 3-3v-25.8979c-.5826-.2059-1-.7615-1-1.4146v-2.6875h2v2.2729c.5826.2059 1 .7615 1 1.4146v26.3125c0 2.7614-2.2386 5-5 5s-5-2.2386-5-5v-26.3125c0-.6531.4174-1.2087 1-1.4146v-2.2729z"/><path d="m20 6v2h8v-2zm-1-2c-.5523 0-1 .44772-1 1v4c0 .55228.4477 1 1 1h10c.5523 0 1-.44772 1-1v-4c0-.55228-.4477-1-1-1z"/><path d="m28 20h-8v-2h8z"/></g></svg>