<svg fill="none" height="48" viewBox="0 0 48 48" width="48" xmlns="http://www.w3.org/2000/svg"><g fill="#333"><path clip-rule="evenodd" d="m34 8h-20c-3.3137 0-6 2.6863-6 6v20c0 3.3137 2.6863 6 6 6h20c3.3137 0 6-2.6863 6-6v-20c0-3.3137-2.6863-6-6-6zm-20-2c-4.41828 0-8 3.58172-8 8v20c0 4.4183 3.58172 8 8 8h20c4.4183 0 8-3.5817 8-8v-20c0-4.41828-3.5817-8-8-8z" fill-rule="evenodd"/><path clip-rule="evenodd" d="m29.9 16.1h-11.8c-1.1046 0-2 .8954-2 2v11.8c0 1.1046.8954 2 2 2h11.8c1.1046 0 2-.8954 2-2v-11.8c0-1.1046-.8954-2-2-2zm-11.8-2c-2.2091 0-4 1.7909-4 4v11.8c0 2.2091 1.7909 4 4 4h11.8c2.2091 0 4-1.7909 4-4v-11.8c0-2.2091-1.7909-4-4-4z" fill-rule="evenodd"/><path d="m21.3 18.6c0 .4971-.4029.9-.9.9s-.9-.4029-.9-.9.4029-.9.9-.9.9.4029.9.9z"/><path d="m23.1 21.3c0 .4971-.4029.9-.9.9s-.9-.4029-.9-.9.4029-.9.9-.9.9.4029.9.9z"/><path d="m19.5 21.3c0 .4971-.4029.9-.9.9s-.9-.4029-.9-.9.4029-.9.9-.9.9.4029.9.9z"/><path d="m21.3 24c0 .4971-.4029.9-.9.9s-.9-.4029-.9-.9.4029-.9.9-.9.9.4029.9.9z"/><path d="m23.1 26.7c0 .4971-.4029.9-.9.9s-.9-.4029-.9-.9.4029-.9.9-.9.9.4029.9.9z"/><path d="m19.5 26.7c0 .4971-.4029.9-.9.9s-.9-.4029-.9-.9.4029-.9.9-.9.9.4029.9.9z"/><path d="m21.3 29.4c0 .4971-.4029.9-.9.9s-.9-.4029-.9-.9.4029-.9.9-.9.9.4029.9.9z"/><path d="m24.9 18.6c0 .4971-.4029.9-.9.9s-.9-.4029-.9-.9.4029-.9.9-.9.9.4029.9.9z"/><path d="m26.7 21.3c0 .4971-.4029.9-.9.9s-.9-.4029-.9-.9.4029-.9.9-.9.9.4029.9.9z"/><path d="m24.9 24c0 .4971-.4029.9-.9.9s-.9-.4029-.9-.9.4029-.9.9-.9.9.4029.9.9z"/><path d="m26.7 26.7c0 .4971-.4029.9-.9.9s-.9-.4029-.9-.9.4029-.9.9-.9.9.4029.9.9z"/><path d="m24.9 29.4c0 .4971-.4029.9-.9.9s-.9-.4029-.9-.9.4029-.9.9-.9.9.4029.9.9z"/><path d="m28.5 18.6c0 .4971-.4029.9-.9.9s-.9-.4029-.9-.9.4029-.9.9-.9.9.4029.9.9z"/><path d="m30.3 21.3c0 .4971-.4029.9-.9.9s-.9-.4029-.9-.9.4029-.9.9-.9.9.4029.9.9z"/><path d="m28.5 24c0 .4971-.4029.9-.9.9s-.9-.4029-.9-.9.4029-.9.9-.9.9.4029.9.9z"/><path d="m30.3 26.7c0 .4971-.4029.9-.9.9s-.9-.4029-.9-.9.4029-.9.9-.9.9.4029.9.9z"/><path d="m28.5 29.4c0 .4971-.4029.9-.9.9s-.9-.4029-.9-.9.4029-.9.9-.9.9.4029.9.9z"/></g></svg>