<svg fill="none" height="48" viewBox="0 0 48 48" width="48" xmlns="http://www.w3.org/2000/svg"><path clip-rule="evenodd" d="m10.1012 25.571c-.0274 1.8292.4251 3.0678 1.0203 3.6276.4425.4162.4639 1.1123.0477 1.5549-.4162.4425-1.1123.4639-1.5549.0477-.9977-.9382-1.50597-2.3866-1.66138-3.9677-.64247.367-1.17041.8939-1.48614 1.4875-.43013.8087-.47946 1.7484.13255 2.7007.64434 1.0026 2.10055 2.1358 4.94837 3.0149 2.8327.8744 6.9367 1.4633 12.7055 1.4633 5.7741 0 9.8176-.5587 12.5663-1.3943 2.7658-.8408 4.0934-1.9214 4.6458-2.8621.5219-.8887.4494-1.8229-.0265-2.7072-.3271-.6078-.8341-1.1613-1.4177-1.5866-.1627 1.3525-.5818 2.6138-1.2942 3.6667-.3405.5031-1.0243.635-1.5275.2945-.5031-.3404-.635-1.0243-.2945-1.5275.7516-1.1107 1.1096-2.7158.9629-4.5866-.1458-1.859-.7864-3.8986-1.9251-5.7926-2.2661-3.7693-6.4636-6.9043-12.5486-6.9043-5.9958 0-9.8485 3.5396-11.804 7.5679-.9816 2.022-1.4624 4.1301-1.4889 5.9032zm-5.40019 1.8109c.67057-1.2608 1.87104-2.2474 3.24415-2.7377.15471-1.8906.70749-3.9632 1.66577-5.9372 2.23147-4.5967 6.75277-8.8071 13.78317-8.8071 6.9411 0 11.8154 3.615 14.4341 7.9707 1.3037 2.1686 2.0588 4.5351 2.2328 6.7542l.0026.033c1.2667.5974 2.446 1.6478 3.1364 2.9307.7349 1.3656.9362 3.0564-.0101 4.6678-.9157 1.5593-2.798 2.8537-5.7887 3.7628-3.0079.9144-7.2675 1.4808-13.148 1.4808-5.8856 0-10.2058-.5986-13.2954-1.5523-3.07435-.949-5.03848-2.2847-6.04097-3.8446-1.03483-1.6102-.95747-3.3267-.21582-4.7211zm15.92539-10.106c.5289-.1592.8285-.7169.6693-1.2458-.1591-.5288-.7169-.8285-1.2458-.6693-1.7372.523-3.2616 1.5881-4.3501 3.0395-1.0885 1.4515-1.6841 3.2131-1.6995 5.0273-.0047.5523.4392 1.0038.9914 1.0085.5523.0047 1.0038-.4392 1.0085-.9914.0118-1.3874.4672-2.7345 1.2996-3.8444.8324-1.11 1.9981-1.9245 3.3266-2.3244z" fill="#333" fill-rule="evenodd"/></svg>