<svg fill="none" height="48" viewBox="0 0 48 48" width="48" xmlns="http://www.w3.org/2000/svg"><g fill="#333"><g clip-rule="evenodd" fill-rule="evenodd"><path d="m23 38h-14c-.55228 0-1 .4477-1 1s.44772 1 1 1h14c.5523 0 1-.4477 1-1s-.4477-1-1-1zm-14-2c-1.65685 0-3 1.3431-3 3s1.34315 3 3 3h14c1.6569 0 3-1.3431 3-3s-1.3431-3-3-3z"/><path d="m11.4545 30.9984v5.0016h9.091v-5.0016c0-.6477.2462-1.2677.3772-1.5866.1293-.3149.2947-.6675.4398-.9768.0337-.0718.0663-.1413.0971-.2075.1802-.3871.3264-.7162.4284-1.0034.086-.2422.106-.3622.1106-.3901.0001-.0006.0002-.0012.0003-.0018-.0001-.0006-.0002-.0012-.0003-.0019-.0046-.0278-.0246-.1478-.1106-.39-.102-.2872-.2482-.6163-.4284-1.0034-.0308-.0662-.0634-.1357-.0971-.2075-.145-.3092-.3105-.6619-.4398-.9768-.131-.3189-.3772-.9389-.3772-1.5866v-.4167c0-.6855.2697-1.2955.4141-1.6056.1373-.295.3138-.6207.4588-.8884.0327-.0602.0637-.1176.0924-.1709.1787-.3328.3119-.596.4019-.8238.0615-.1557.08-.2394.0854-.2661-.0056-.0332-.0272-.1531-.1101-.3867-.102-.2872-.2482-.6163-.4284-1.0034-.0308-.0661-.0634-.1356-.0971-.2075-.1451-.3092-.3105-.6619-.4398-.9768-.131-.3189-.3772-.9389-.3772-1.5866v-1.2499c0-1.8712-.634-3.10361-1.432-3.87134-.8229-.79152-1.9482-1.21226-3.1135-1.21226s-2.2906.42074-3.1135 1.21226c-.798.76773-1.432 2.00014-1.432 3.87134v1.2499c0 .6477-.2462 1.2677-.3772 1.5866-.1293.3149-.2947.6676-.4398.9768-.0337.0718-.0663.1413-.0971.2075-.1802.3871-.3264.7162-.4284 1.0034-.0829.2336-.1045.3535-.1101.3867.0054.0267.0239.1104.0854.2661.09.2278.2232.491.4019.8238.0287.0533.0597.1107.0924.1709.145.2677.3215.5934.4588.8884.1444.3101.4141.9201.4141 1.6056v.4167c0 .6477-.2462 1.2677-.3772 1.5866-.1293.3148-.2947.6675-.4398.9768-.0337.0718-.0663.1413-.0971.2075-.1802.3871-.3264.7162-.4284 1.0034-.086.2422-.106.3622-.1106.39-.0001.0007-.0002.0013-.0003.0019.0001.0006.0002.0012.0003.0018.0046.0279.0246.1479.1106.3901.102.2872.2482.6163.4284 1.0034.0308.0662.0634.1357.0971.2075.1451.3093.3105.6619.4398.9768.131.3189.3772.9389.3772 1.5866zm11.091 0c0-.3745.2938-1.0016.6174-1.692.3963-.8455.8371-1.7861.8371-2.4742s-.4408-1.6287-.8371-2.4742c-.3236-.6904-.6174-1.3175-.6174-1.692v-.4167c0-.3745.2938-.9174.6174-1.5151.3963-.7321.8371-1.5464.8371-2.2345s-.4408-1.6286-.8371-2.4742c-.3236-.6904-.6174-1.3175-.6174-1.692v-1.2499c0-9.4448-13.09095-9.4448-13.09095 0v1.2499c0 .3745-.29388 1.0016-.61745 1.692-.39628.8456-.8371 1.7861-.8371 2.4742s.44082 1.5024.8371 2.2345c.32357.5977.61745 1.1406.61745 1.5151v.4167c0 .3745-.29388 1.0016-.61745 1.692-.39628.8455-.8371 1.7861-.8371 2.4742s.44082 1.6287.8371 2.4742c.32357.6904.61745 1.3175.61745 1.692v7.0016h13.09095z"/><path d="m17 12c-1.1046 0-2 .8954-2 2 0 .5523-.4477 1-1 1s-1-.4477-1-1c0-2.2091 1.7909-4 4-4 .5523 0 1 .4477 1 1s-.4477 1-1 1z"/><path d="m34 24c3.3137 0 6-2.6863 6-6s-2.6863-6-6-6-6 2.6863-6 6 2.6863 6 6 6zm0 2c4.4183 0 8-3.5817 8-8s-3.5817-8-8-8-8 3.5817-8 8 3.5817 8 8 8z"/><path d="m33 36v-11h2v11c0 .5523-.4477 1-1 1s-1-.4477-1-1z"/><path d="m29 30c0-.5523.4477-1 1-1h8c.5523 0 1 .4477 1 1s-.4477 1-1 1h-8c-.5523 0-1-.4477-1-1z"/></g><path d="m17 12c-1.1046 0-2 .8954-2 2 0 .5523-.4477 1-1 1s-1-.4477-1-1c0-2.2091 1.7909-4 4-4 .5523 0 1 .4477 1 1s-.4477 1-1 1z"/><path clip-rule="evenodd" d="m9.45455 36v-5.0016c0-.3745-.29388-1.0016-.61745-1.692-.39628-.8455-.8371-1.7861-.8371-2.4742s.44082-1.6287.8371-2.4742c.32357-.6904.61745-1.3175.61745-1.692v-.4167c0-.3745-.29388-.9174-.61745-1.5151-.39628-.7321-.8371-1.5464-.8371-2.2345s.44082-1.6286.8371-2.4742c.32357-.6904.61745-1.3175.61745-1.692v-1.2499c0-9.4448 13.09095-9.4448 13.09095 0v1.2499c0 .3745.2938 1.0016.6174 1.692.3963.8456.8371 1.7861.8371 2.4742s-.4408 1.5024-.8371 2.2345c-.3236.5977-.6174 1.1406-.6174 1.5151v.4167c0 .3745.2938 1.0016.6174 1.692.3963.8455.8371 1.7861.8371 2.4742s-.4408 1.6287-.8371 2.4742c-.3236.6904-.6174 1.3175-.6174 1.692v5.0016h.4545c1.6569 0 3 1.3431 3 3s-1.3431 3-3 3h-14c-1.65685 0-3-1.3431-3-3s1.34315-3 3-3zm1.99995 0v-5.0016c0-.6477-.2462-1.2677-.3772-1.5866-.1293-.3148-.2947-.6675-.4397-.9767l-.0022-.0046c-.0329-.0702-.0648-.1382-.095-.203-.1802-.3871-.3264-.7162-.4284-1.0034-.086-.2422-.106-.3622-.1106-.3901l-.0003-.0018.0003-.0019c.0046-.0278.0246-.1478.1106-.39.102-.2872.2482-.6163.4284-1.0034.0308-.066.0633-.1353.0969-.207.145-.3092.3107-.6625.44-.9773.131-.3189.3772-.9389.3772-1.5866v-.4167c0-.6855-.2697-1.2955-.4141-1.6056-.1373-.295-.3138-.6207-.4588-.8884-.0327-.0602-.0637-.1176-.0924-.1709-.1787-.3328-.3119-.596-.4019-.8238-.0615-.1557-.08-.2394-.0854-.2661.0056-.0332.0272-.1531.1101-.3867.102-.2872.2482-.6163.4284-1.0034.0305-.0654.0627-.1341.096-.2052l.0011-.0022c.145-.3092.3105-.662.4398-.9769.131-.3189.3772-.9389.3772-1.5866v-1.2499c0-1.8712.634-3.10361 1.432-3.87134.8229-.79152 1.9482-1.21226 3.1135-1.21226s2.2906.42074 3.1135 1.21226c.798.76773 1.432 2.00014 1.432 3.87134v1.2499c0 .6477.2462 1.2677.3772 1.5866.1293.3149.2947.6676.4398.9768l.0006.0013c.0335.0714.0659.1405.0965.2062.1802.3871.3264.7162.4284 1.0034.0829.2336.1045.3535.1101.3867-.0054.0267-.0239.1104-.0854.2661-.09.2278-.2232.491-.4019.8238-.0287.0533-.0597.1107-.0924.1709-.145.2677-.3215.5934-.4588.8884-.1444.3101-.4141.9201-.4141 1.6056v.4167c0 .6477.2462 1.2677.3772 1.5866.1293.3149.2948.6676.4398.9768.0337.0718.0663.1413.0971.2075.1802.3871.3264.7162.4284 1.0034.086.2422.106.3622.1106.39l.0003.0019-.0003.0018c-.0046.0279-.0246.1479-.1106.3901-.102.2872-.2482.6163-.4284 1.0034-.0308.0662-.0634.1357-.0971.2075-.1451.3092-.3105.662-.4398.9768-.131.3189-.3772.9389-.3772 1.5866v5.0016zm-2.4545 2c-.55228 0-1 .4477-1 1s.44772 1 1 1h14c.5523 0 1-.4477 1-1s-.4477-1-1-1z" fill-rule="evenodd"/><path clip-rule="evenodd" d="m42 18c0 4.0796-3.0537 7.446-7 7.9381v3.0619h3c.5523 0 1 .4477 1 1s-.4477 1-1 1h-3v5c0 .5523-.4477 1-1 1s-1-.4477-1-1v-5h-3c-.5523 0-1-.4477-1-1s.4477-1 1-1h3v-3.0619c-3.9463-.4921-7-3.8585-7-7.9381 0-4.4183 3.5817-8 8-8s8 3.5817 8 8zm-2 0c0 3.3137-2.6863 6-6 6s-6-2.6863-6-6 2.6863-6 6-6 6 2.6863 6 6z" fill-rule="evenodd"/></g></svg>