<svg fill="none" height="48" viewBox="0 0 48 48" width="48" xmlns="http://www.w3.org/2000/svg"><g fill="#333"><path clip-rule="evenodd" d="m24.0305 29.4311c.101.706-.1815 1.4122-.7415 1.8538-1.3977 1.102-2.289 2.8039-2.289 4.7151 0 3.3137 2.6863 6 6 6s6-2.6863 6-6c0-1.9112-.8913-3.6131-2.289-4.7151-.56-.4416-.8425-1.1478-.7415-1.8538.02-.1397.0305-.2836.0305-.4311v-20c0-1.65685-1.3431-3-3-3s-3 1.34315-3 3v20c0 .1475.0105.2914.0305.4311zm-2.0305-20.4311c0-2.76142 2.2386-5 5-5s5 2.23858 5 5v20c0 .2425-.0173.4811-.0506.7144 1.8579 1.4649 3.0506 3.736 3.0506 6.2856 0 4.4183-3.5817 8-8 8s-8-3.5817-8-8c0-2.5496 1.1927-4.8207 3.0506-6.2856-.0333-.2333-.0506-.4719-.0506-.7144z" fill-rule="evenodd"/><path d="m27 11c0-.5523.4477-1 1-1h2v2h-2c-.5523 0-1-.4477-1-1z"/><path d="m27 15c0-.5523.4477-1 1-1h2v2h-2c-.5523 0-1-.4477-1-1z"/><path d="m27 19c0-.5523.4477-1 1-1h2v2h-2c-.5523 0-1-.4477-1-1z"/><g clip-rule="evenodd" fill-rule="evenodd"><path d="m22.3076 30.2932 10 9.9999 1.4142-1.4142-10-9.9999z"/><path d="m22.3076 26.2932 11 10.9999 1.4142-1.4142-11-10.9999z"/><path d="m23.7219 23.7074 6.5 6.5 1.4142-1.4142-6.5-6.5z"/><path d="m27.7221 23.7073 2.4999 2.4999 1.4142-1.4142-2.4998-2.4999z"/><path d="m23 22.0002h8.0001v2h-8.0001z"/><path d="m21.0147 33.0004 10 10 1.4143-1.4142-10-10z"/><path d="m19.7217 35.7074 8.0001 8 1.4142-1.4142-8-8z"/><path d="m13 30v-12h2v12z"/><path d="m14 13-2.5981 4.5h5.1961zm.866-2.5c-.3849-.66667-1.3472-.66667-1.7321 0l-4.3301 7.5c-.3849.6667.09623 1.5.86603 1.5h8.66027c.7698 0 1.2509-.8333.866-1.5z"/></g></g></svg>