<svg fill="none" height="48" viewBox="0 0 48 48" width="48" xmlns="http://www.w3.org/2000/svg"><g fill="#333"><g clip-rule="evenodd" fill-rule="evenodd"><path d="m29 8v-2h2v2c0 .55228.4477 1 1 1h6c1.1046 0 2 .89543 2 2v13c0 .5523-.4477 1-1 1s-1-.4477-1-1v-13h-6c-1.6569 0-3-1.34315-3-3z"/><path d="m31 14v4h2v-4zm-1-2c-.5523 0-1 .4477-1 1v6c0 .5523.4477 1 1 1h4c.5523 0 1-.4477 1-1v-6c0-.5523-.4477-1-1-1z"/><path d="m31 12.5v-3.5h2v3.5z"/><path d="m38.0662 25.0664h-17.9562c-.6168 0-1.205-.247-1.6364-.6813l1.4189-1.4095c.0577.0581.136.0908.2175.0908h17.9562c2.1726 0 3.9338 1.7759 3.9338 3.9666 0 2.1908-1.7612 3.9667-3.9338 3.9667h-20.994c-.2989 0-.5855-.1196-.797-.3325l-8.10817-8.163c-1.55604-1.5666-1.55604-4.1091 0-5.6757 1.55255-1.563 4.06717-1.563 5.61967 0l6.1058 6.1471-1.4189 1.4095-6.1059-6.1471c-.7704-.7757-2.0113-.7757-2.7817 0-.78133.7866-.78133 2.0701 0 2.8568l7.8519 7.9049h20.6283c1.0524 0 1.9338-.8648 1.9338-1.9667s-.8815-1.9666-1.9338-1.9666z"/></g><path d="m9 23 2 1.1818v11.8182h-2z"/><path d="m36 30.5234h2v5.6757h-2z"/><path clip-rule="evenodd" d="m42 36h-36v-2h36z" fill-rule="evenodd"/><path clip-rule="evenodd" d="m11.5 40c.8284 0 1.5-.6716 1.5-1.5s-.6716-1.5-1.5-1.5-1.5.6716-1.5 1.5.6716 1.5 1.5 1.5zm0 2c1.933 0 3.5-1.567 3.5-3.5s-1.567-3.5-3.5-3.5-3.5 1.567-3.5 3.5 1.567 3.5 3.5 3.5z" fill-rule="evenodd"/><path clip-rule="evenodd" d="m36.5 40c.8284 0 1.5-.6716 1.5-1.5s-.6716-1.5-1.5-1.5-1.5.6716-1.5 1.5.6716 1.5 1.5 1.5zm0 2c1.933 0 3.5-1.567 3.5-3.5s-1.567-3.5-3.5-3.5-3.5 1.567-3.5 3.5 1.567 3.5 3.5 3.5z" fill-rule="evenodd"/><path clip-rule="evenodd" d="m12.7632 15.1034c1.4732-1.4719 3.8608-1.4711 5.3329.0018l1.8002 1.8011c1.4723 1.473 1.4715 3.8604-.0018 5.3324l-1.47 1.4687-1.4136-1.4148 1.47-1.4687c.6918-.6912.6922-1.8121.0009-2.5037l-1.8002-1.8011c-.6914-.6918-1.8129-.6922-2.5048-.0009l-1.47 1.4687-1.4136-1.4148z" fill-rule="evenodd"/></g></svg>