<svg fill="none" height="48" viewBox="0 0 48 48" width="48" xmlns="http://www.w3.org/2000/svg"><g fill="#333"><path clip-rule="evenodd" d="m39.0662 21.0664h-20.9562c-.6168 0-1.205-.247-1.6364-.6813l1.4189-1.4095c.0577.0581.136.0908.2175.0908h20.9562c2.1726 0 3.9338 1.7759 3.9338 3.9666 0 2.1908-1.7612 3.9667-3.9338 3.9667h-23.994c-.2989 0-.5855-.1196-.797-.3325l-8.10817-8.163c-1.55604-1.5666-1.55604-4.1091 0-5.6757 1.55255-1.563 4.06717-1.563 5.61967 0l6.1058 6.1471-1.4189 1.4095-6.1059-6.1471c-.77039-.7757-2.01127-.7757-2.7817 0-.78133.7866-.78133 2.0701 0 2.8568l7.8519 7.9049h23.6283c1.0524 0 1.9338-.8648 1.9338-1.9667s-.8815-1.9666-1.9338-1.9666z" fill-rule="evenodd"/><path d="m7 19 2 1.1818v11.8182h-2z"/><path d="m38 26.5234h2v5.6757h-2z"/><g clip-rule="evenodd" fill-rule="evenodd"><path d="m44 32h-40v-2h40z"/><path d="m8.5 36c.82843 0 1.5-.6716 1.5-1.5s-.67157-1.5-1.5-1.5-1.5.6716-1.5 1.5.67157 1.5 1.5 1.5zm0 2c1.933 0 3.5-1.567 3.5-3.5s-1.567-3.5-3.5-3.5-3.5 1.567-3.5 3.5 1.567 3.5 3.5 3.5z"/><path d="m39.5 36c.8284 0 1.5-.6716 1.5-1.5s-.6716-1.5-1.5-1.5-1.5.6716-1.5 1.5.6716 1.5 1.5 1.5zm0 2c1.933 0 3.5-1.567 3.5-3.5s-1.567-3.5-3.5-3.5-3.5 1.567-3.5 3.5 1.567 3.5 3.5 3.5z"/><path d="m10.7632 11.1034c1.4732-1.4719 3.8608-1.47108 5.3329.0018l1.8002 1.8011c1.4723 1.473 1.4715 3.8604-.0018 5.3324l-1.47 1.4687-1.4136-1.4148 1.47-1.4687c.6918-.6912.6922-1.8121.0009-2.5037l-1.8002-1.8011c-.6914-.6918-1.8129-.6922-2.5048-.0009l-1.47 1.4687-1.41359-1.4148z"/></g></g></svg>