<svg fill="none" height="48" viewBox="0 0 48 48" width="48" xmlns="http://www.w3.org/2000/svg"><g fill="#333"><g clip-rule="evenodd" fill-rule="evenodd"><path d="m27.9915 8.11433c-.5402 0-1.0575-.21852-1.434-.60584l-1.1321-1.16436c-.7853-.8078-2.0826-.8078-2.8679-.00001l-1.1321 1.16437c-.3765.38732-.8937.60584-1.4339.60584h-6c-1.1046 0-2 .89543-2 1.99997v23.8857c0 1.1046.8954 2 2 2h20c1.1045 0 2-.8954 2-1.9999v-23.8858c0-1.10454-.8955-1.99997-2-1.99997zm10 1.99997v23.8858c0 2.2091-1.7909 3.9999-4 3.9999h-20c-2.2092 0-4.00004-1.7908-4.00004-4v-23.8857c0-2.20911 1.79084-3.99997 4.00004-3.99997h6l1.132-1.16436c1.5707-1.61558 4.1652-1.61558 5.7359 0l1.1321 1.16436h6c2.2091 0 4 1.79086 4 3.99997z"/><path d="m26.9912 44v-8h2v8z"/><path d="m33 40h-18v-2h18z"/><path d="m34.0604 28.6419c-1.294-.753-3.1545-1.2003-5.5608.2194-2.9571 1.7447-5.7422 2.1974-8.5838 2.2578-1.2344.0263-2.4949-.0216-3.7713-.07-.1751-.0067-.3506-.0133-.5263-.0198-1.468-.0542-2.9769-.0971-4.5851-.0301l-.0833-1.9983c1.6918-.0705 3.2671-.0247 4.7421.0297.1785.0066.3551.0133.5302.02 1.2834.0486 2.4803.0939 3.6512.069 2.6271-.0559 5.0421-.4658 7.61-1.9808 3.1187-1.84 5.7582-1.2874 7.583-.2255.8876.5166 1.5696 1.1428 2.0274 1.634.2303.2471.4078.4643.5301.6231.0612.0795.1088.1447.1425.1922.0169.0238.0303.0431.0402.0576l.0123.0181.0042.0062.0022.0034c.0003.0004.0006.0009-.8337.5521-.8344.5512-.8341.5516-.8339.552l-.0015-.0022c-.0036-.0052-.0103-.015-.0203-.0289-.0198-.028-.0523-.0726-.0969-.1305-.0893-.1162-.2265-.2844-.4083-.4795-.3664-.3932-.8985-.878-1.5702-1.269z"/></g><path d="m17 39.9522c0-1.1046.8954-2 2-2h2c1.1046 0 2 .8954 2 2s-.8954 2-2 2h-2c-1.1046 0-2-.8954-2-2z"/><path clip-rule="evenodd" d="m32 11.4522h4.5v2h-4.5z" fill-rule="evenodd"/><path clip-rule="evenodd" d="m32 16.4522h4.5v2h-4.5z" fill-rule="evenodd"/><path clip-rule="evenodd" d="m32 21.4522h4.5v2h-4.5z" fill-rule="evenodd"/><path d="m26 9.95219c0 1.10461-.8954 2.00001-2 2.00001s-2-.8954-2-2.00001c0-1.10457.8954-2 2-2s2 .89543 2 2z"/></g></svg>