<svg fill="none" height="48" viewBox="0 0 48 48" width="48" xmlns="http://www.w3.org/2000/svg"><g stroke="#333"><g stroke-width="2"><path d="m28 12c0 .3392-.2344.8171-.979 1.2638-.7247.4348-1.7904.7362-3.021.7362s-2.2963-.3014-3.021-.7362c-.7446-.4467-.979-.9246-.979-1.2638s.2344-.8171.979-1.2638c.7247-.4348 1.7904-.7362 3.021-.7362s2.2963.3014 3.021.7362c.7446.4467.979.9246.979 1.2638z"/><path d="m24 11v-5"/><path d="m20 13.5-1 3" stroke-linecap="round"/><path d="m16.5553 19.3225-2.1106 2.3548" stroke-linecap="round"/><path d="m11 23.5-2 1v3" stroke-linecap="round"/><path d="m7 41.5 2-1v-3" stroke-linecap="round"/><path d="m9 31v3" stroke-linecap="round"/><path d="m28 13.5 1 3" stroke-linecap="round"/><path d="m31.4447 19.3225 2.1106 2.3548" stroke-linecap="round"/><path d="m37 23.5 2 1v3" stroke-linecap="round"/><path d="m41 41.5-2-1v-3" stroke-linecap="round"/><path d="m39 31v3" stroke-linecap="round"/><path d="m17 27v15"/><path d="m17 37h15v5"/></g><path d="m32 33.5h-12" stroke-linecap="round" stroke-width="3"/></g></svg>