<svg fill="none" height="48" viewBox="0 0 48 48" width="48" xmlns="http://www.w3.org/2000/svg"><g clip-rule="evenodd" fill="#333" fill-rule="evenodd"><path d="m31.2622 9.99025.7325-2.84985-4.1087-1.1404-20.7957 12.5174-1.0903 4.2698 2.73351.7636-.73244 2.8499 2.73353.7636-.7325 2.8498 2.7336.7637-.7325 2.8498 2.7335.7636-.7324 2.8499 2.7335.7636-.7325 2.8499 4.1003 1.1454 20.7874-12.5124 1.107-4.2798-2.7335-.7636.7324-2.8499-2.7335-.7636.7325-2.8499-2.7336-.7636.7325-2.8499-2.7335-.7636.7324-2.8498zm.3089 2.16285-2.7335-.7636.7316-2.8467-1.389-.38553-19.35518 11.65033-.40333 1.5795 2.73641.7645-.7324 2.8498 2.7335.7636-.7324 2.8499 2.7335.7636-.7325 2.8499 2.7335.7636-.7324 2.8499 2.7335.7636-.7324 2.8498 1.3831.3864 19.3483-11.6462.4111-1.5893-2.7306-.7628.7324-2.8499-2.7335-.7636.7324-2.8498-2.7335-.7636.7325-2.8499-2.7335-.7636z"/><path d="m24.0001 30.9993c3.866 0 7-3.134 7-7s-3.134-7-7-7-7 3.134-7 7 3.134 7 7 7zm0 2c4.9705 0 9-4.0294 9-9s-4.0295-9-9-9c-4.9706 0-9 4.0294-9 9s4.0294 9 9 9z"/><path d="m24.0001 27.0003c1.6568 0 3-1.3432 3-3 0-1.6569-1.3432-3-3-3-1.6569 0-3 1.3431-3 3 0 1.6568 1.3431 3 3 3zm0 2c2.7614 0 5-2.2386 5-5 0-2.7615-2.2386-5-5-5-2.7615 0-5 2.2385-5 5 0 2.7614 2.2385 5 5 5z"/></g></svg>