<svg fill="none" height="48" viewBox="0 0 48 48" width="48" xmlns="http://www.w3.org/2000/svg"><g fill="#333"><path d="m30.2425 20.0299-6.2425-1.5607-6.2425 1.5607c-.5358.1339-.8616.6769-.7276 1.2126.1339.5358.6768.8616 1.2126.7277l5.7575-1.4394 5.7575 1.4394c.5358.1339 1.0787-.1919 1.2126-.7277.134-.5357-.1918-1.0787-.7276-1.2126z"/><path clip-rule="evenodd" d="m9.00001 16.8683c0-4.2264 11.16039-4.2264 11.16039-4.2264l.9006-1.6156c.3531-.6336 1.0216-1.0263 1.7469-1.0263h2.5591c.7253 0 1.3937.3926 1.7468 1.0261l.9006 1.6154s10.9856.0004 10.9856 4.2268c0 .0556-.0001.1111-.0003.1665l1.7309.42c1.921.4661 3.2134 2.2655 3.0416 4.2347l-.5538 6.3497c-.1374 1.5761-1.191 2.9231-2.6877 3.4362l-7.0911 2.431c-4.0958 4.0936-8.9557 4.0936-8.9557 4.0936h-.9678s-4.8656 0-8.9629-4.1008l-7.19185-2.7968c-1.40912-.548-2.38885-1.8437-2.53219-3.3488l-.5734-6.0207c-.19135-2.0092 1.14406-3.8461 3.11426-4.284l1.63051-.3623c-.00035-.0725-.00052-.1453-.00052-.2183zm.05785 2.2543-1.25398.2787c-.9851.2189-1.6528 1.1374-1.55713 2.142l.5734 6.0207c.07167.7525.56154 1.4004 1.2661 1.6744l4.09635 1.593c-1.6276-2.7307-2.85059-6.5015-3.12474-11.7088zm26.64844 11.8925 4.1759-1.4316c.7483-.2565 1.2751-.93 1.3438-1.7181l.5538-6.3496c.0859-.9847-.5603-1.8844-1.5208-2.1174l-1.3146-.319c-.2757 5.3476-1.5507 9.1837-3.2381 11.9357zm-12.9029-19.0044c-.1255.2216-.2405.4351-.3497.638-.6334 1.1762-1.0763 1.9986-2.2753 1.9986-5.9417 0-8.988 1.5724-8.988 2.1444 0 16.4456 8.9732 19.0278 12.5918 19.1986.0711.0065.1436.0097.2177.0097.0296 0 .0598-.0002.0904-.0005.0306.0003.0608.0005.0904.0005.074 0 .1466-.0032.2176-.0097 3.6187-.1708 12.5918-2.753 12.5918-19.1986 0-.572-3.0462-2.1444-8.9879-2.1444-1.1991 0-1.6419-.8223-2.2752-1.9985-.1093-.2028-.2244-.4166-.3498-.6381z" fill-rule="evenodd"/></g></svg>