<svg fill="none" height="48" viewBox="0 0 48 48" width="48" xmlns="http://www.w3.org/2000/svg"><path clip-rule="evenodd" d="m19.7725 8.30157 1.4903-.84797.9807 1.69856c1.3249-.43373 2.8211.10082 3.5486 1.35184l4.5227 7.7768c.8329 1.4323.3428 3.2613-1.0946 4.0852l-.8485.4864.6771 1.3086-2.6739 1.3623-.6091-1.1773-.6672.3824c-1.4375.8239-3.278.3308-4.1109-1.1015l-2.9218-5.0241c-2.5629 1.4741-4.3303 3.1201-5.2783 5.0024-.7979 1.5842-1.0602 3.4259-.6188 5.6371 1.4321-.7917 3.079-1.2423 4.8312-1.2423 3.2697 0 6.1729 1.5692 7.9975 3.9957l12.0861-6.8111.9928 1.7362-12.0422 6.7862c.6192 1.3008.9658 2.7564.9658 4.293 0 .6849-.0689 1.3538-.2 2h13.2c.5523 0 1 .4477 1 1s-.4477 1-1 1h-32.16791c-.53519-1.2249-.83209-2.5778-.83209-4 0-2.9954 1.31701-5.6832 3.4036-7.516-.76141-2.9274-.54508-5.5092.5977-7.7784 1.1853-2.3535 3.3059-4.2467 6.0592-5.8317l-.5955-1.0239c-.64-1.1004-.4989-2.4351.2528-3.3681l-1.0613-1.8383 1.5083-.85818-1.2412-2.22743 2.63-1.44398zm8.8071 10.97383-4.5227-7.7769c-.2776-.4774-.8911-.6418-1.3703-.3671l-4.1215 2.3624c-.4792.2746-.6425.8843-.3649 1.3617l4.5227 7.7768c.2776.4775.8911.6419 1.3703.3672l4.1215-2.3624c.4792-.2746.6425-.8843.3649-1.3617zm-3.8311 20.7246c.164-.638.2515-1.3078.2515-2 0-1.1797-.2553-2.2997-.7138-3.3079l-4.804 2.7073-.9927-1.7362 4.7465-2.6749c-1.4663-1.8222-3.715-2.9883-6.236-2.9883-4.4183 0-8 3.5817-8 8 0 .6922.08747 1.362.25153 2z" fill="#333" fill-rule="evenodd"/></svg>