<svg fill="none" height="48" viewBox="0 0 48 48" width="48" xmlns="http://www.w3.org/2000/svg"><g clip-rule="evenodd" fill="#333" fill-rule="evenodd"><path d="m31.9635 6.33869-15.9999.0131c-.5523.00045-.9997.44853-.9992 1.00082l.0278 33.99999c.0005.5523.4486.9996 1.0008.9992l16-.0131c.5523-.0005.9997-.4486.9992-1.0008l-.0278-34.00003c-.0005-.55229-.4486-.99964-1.0009-.99918zm-16.0016-1.9869c-1.6568.00136-2.9989 1.3456-2.9975 3.00246l.0278 33.99995c.0014 1.6569 1.3456 2.9989 3.0025 2.9976l16-.0131c1.6568-.0014 2.9989-1.3456 2.9975-3.0025l-.0278-33.99997c-.0014-1.65685-1.3456-2.9989-3.0025-2.99754z"/><path d="m16.9644 7.35107c-.5523.00045-.9996.44853-.9992 1.00082l.0221 27.00001c.0005.5523.4486.9996 1.0008.9992l14-.0115c.5523-.0005.9997-.4485.9992-1.0008l-.0221-27.00002c-.0004-.55228-.4485-.99963-1.0008-.99918zm6.2277 20.18843.0002.0002.7897.6566.7879-.6523.0003-.0003.0159-.0132.0003-.0003c1.5792-1.3151 2.8779-2.3965 3.7843-3.4127.9078-1.0177 1.4059-1.9527 1.4051-2.9705-.0013-1.6563-1.4228-2.9545-3.2332-2.953-1.0242.0008-2.0092.4385-2.6512 1.1293l-.117.1259-.1172-.1257c-.6431-.6898-1.6289-1.1258-2.653-1.125-1.8105.0015-3.2297 1.3021-3.2284 2.9583.0008 1.0179.5006 1.952 1.41 2.9675.9112 1.0175 2.2175 2.0994 3.8063 3.4152z"/><path d="m23.9923 41.3453c1.1046-.0009 1.9993-.8971 1.9984-2.0017-.001-1.1045-.8971-1.9992-2.0017-1.9983s-1.9993.8971-1.9983 2.0016c.0009 1.1046.897 1.9993 2.0016 1.9984z"/></g></svg>