<svg fill="none" height="48" viewBox="0 0 48 48" width="48" xmlns="http://www.w3.org/2000/svg"><g clip-rule="evenodd" fill="#333" fill-rule="evenodd"><path d="m32.342 29.1912c-.2577-.1222-.5473-.1912-.8562-.1912h-3.8192l-12.6184 4.5426.3994 1.7306zm-16.0421 9.7752 16.7954-6.0464.3393-1.4703c.0424-.1838.0582-.3664.05-.5442l-17.5841 6.3303zm16.2604-3.7281-15.5472 5.597c.4864.6285 1.2128 1.0505 2.0266 1.1447l13.0489-4.6976zm-3.9469 6.7617h-3.7246l6.6648-2.3993-.017.0739c-.3141 1.3612-1.5262 2.3254-2.9232 2.3254zm-12.0994-13h5.248l-7.1667 2.58-.03-.1303c-.2892-1.2532.6626-2.4497 1.9487-2.4497z"/><path d="m24.6343 10.7809c-.7183.4947-1.6744.4668-2.3627-.0689-2.8182-2.19358-5.2099-2.87442-7.2156-2.68028-2.0154.19509-4.0211 1.31028-5.98449 3.47618-1.38989 1.5333-1.33141 3.5951-.37703 6.9264.22456.7838.48214 1.5869.75414 2.4351l.0136.0423c.27346.8528.56028 1.7486.81768 2.6524.395 1.3866.7433 2.8653.8819 4.3744.6849.1403 1.6573.2741 2.8648.3912 2.5378.246 5.9009.3984 9.3023.4293 3.4035.031 6.7878-.0603 9.3729-.2902 1.3014-.1157 2.338-.2614 3.0536-.4261.0301-.0069.0591-.0137.0871-.0205.1933-1.525.7009-2.998 1.2405-4.3405.2849-.7088.5984-1.4265.8996-2.1162.0661-.1512.1315-.301.1959-.449.3657-.8405.7072-1.6444.9977-2.438.5862-1.602.9034-3.0078.8066-4.3038-.0916-1.2282-.5657-2.5049-1.8558-3.8641-2.4737-2.60624-5.604-2.69917-8.4707-1.95435-1.4258.37044-2.6962.93274-3.6185 1.41071-.4576.23714-.8206.44894-1.064.59784-.1215.0743-.2126.1327-.2702.1702-.0287.0188-.0491.0323-.0606.04l-.0086.0058zm-1.1343-1.64722c-6.1795-4.80974-11.5483-3.78101-15.9103 1.03102-2.71425 2.9943-1.41725 7.0384-.05007 11.3013.82998 2.5879 1.68582 5.2564 1.68582 7.8197.77455 1.7143 27.27455 2.2143 28.53465 0 0-2.2137 1.0145-4.5365 2.051-6.9096 1.9065-4.3652 3.8874-8.9008-.2335-13.24237-6.3612-6.70184-16.0776-.00005-16.0776-.00005zm12.9772 18.68282c.0011.0004-.0103.0074-.0375.0201.0228-.0141.0364-.0204.0375-.0201zm-26.0718-.0801c0-.0001.0019.0007.0053.0024-.0036-.0016-.0053-.0024-.0053-.0024z"/><path d="m22.1922 9.4108c.3255-.44616.9511-.54396 1.3973-.21844l6.4911 4.73594c.4461.3255.5439.951.2184 1.3972s-.9511.544-1.3972.2184l-6.4911-4.7359c-.4462-.3255-.544-.95104-.2185-1.3972z"/></g></svg>