<svg fill="none" height="48" viewBox="0 0 48 48" width="48" xmlns="http://www.w3.org/2000/svg"><path clip-rule="evenodd" d="m22.2544 12.6476c.7262.622 1.7908.6429 2.5408.0505l.0024-.0019.0055-.0042c.0093-.0072.0262-.0201.0504-.0383.0484-.0365.1259-.0936.2296-.1668.2079-.1467.5186-.3561.9105-.5913.7921-.4756 1.8737-1.0318 3.0788-1.4052 2.3929-.74154 4.9293-.70533 6.9938 1.6885 1.2454 1.444 1.7653 2.8404 1.898 4.211.0964.9957-.0061 2.0366-.2565 3.1412-1.3209-.9629-2.9479-1.5311-4.7077-1.5311-4.4183 0-8 3.5817-8 8 0 4.3582 3.485 7.9025 7.8203 7.998-.3251.9259-.6193 1.572-.9274 2.0873-.3635.6081-.7836 1.0971-1.4314 1.6828-.3266-.3095-.7396-.8043-1.2848-1.5052-.0859-.1104-.1749-.2258-.2668-.3447l-.0001-.0002c-.562-.7279-1.2279-1.5904-1.9068-2.2791-.7169-.7271-1.9234-1.774-3.4992-1.7692-1.5686.0048-2.7783 1.035-3.5101 1.7672-.6889.6893-1.3643 1.5516-1.9344 2.2795-.0927.1184-.1827.2333-.2694.3433-.5566.7053-.9773 1.2022-1.3099 1.5115-1.6113-1.5741-2.4996-3.8083-3.5208-7.9654-.2309-.9397-.5836-2.0717-.948-3.2407v-.0001c-.1045-.3352-.2099-.6735-.3136-1.0111-.4809-1.5647-.9584-3.2121-1.2857-4.8388-.68725-3.4157-.55751-6.0302.7172-7.5778 1.695-2.0579 3.3797-2.9941 5.0017-3.1216 1.629-.12816 3.6608.5222 6.1236 2.6319zm12.7572 21.0974c-1.0213 3.2343-1.8655 4.3861-3.7242 5.956-1.1988 1.0125-2.5508-.7364-3.9736-2.5771-1.2326-1.5946-2.5184-3.2581-3.804-3.2542-1.3068.004-2.6133 1.6701-3.8633 3.2641-1.4417 1.8386-2.8082 3.5812-4.0134 2.5672-2.4335-2.0478-3.5007-4.8773-4.6162-9.4181-.2147-.8742-.5414-1.9227-.9016-3.079-1.51085-4.8495-3.61252-11.5956-.52996-15.3382 3.81756-4.63488 8.56206-5.36977 13.97026-.7371 0 0 8.4579-6.71105 14.0252-.2559 2.8993 3.3618 2.7788 6.8444 1.7728 10.2653 1.0327 1.3476 1.6464 3.0331 1.6464 4.862 0 3.7235-2.5438 6.8529-5.9884 7.745zm3.9884-7.745c0 3.3137-2.6863 6-6 6s-6-2.6863-6-6 2.6863-6 6-6 6 2.6863 6 6zm-6-4c-.5523 0-1 .4477-1 1v2h-2c-.5523 0-1 .4477-1 1s.4477 1 1 1h2v2c0 .5523.4477 1 1 1s1-.4477 1-1v-2h2c.5523 0 1-.4477 1-1s-.4477-1-1-1h-2v-2c0-.5523-.4477-1-1-1z" fill="#333" fill-rule="evenodd"/></svg>