<svg fill="none" height="48" viewBox="0 0 48 48" width="48" xmlns="http://www.w3.org/2000/svg"><path clip-rule="evenodd" d="m17 6h2v-2h-6v2h2v2h-2.1707c-.4118-1.16519-1.5231-2-2.8293-2-1.65685 0-3 1.34315-3 3 0 1.6569 1.34315 3 3 3 1.3062 0 2.4175-.8348 2.8293-2h2.1707v2.083c-2.8377.476-5 2.944-5 5.917v25c0 .5523.4477 1 1 1h10c.5523 0 1-.4477 1-1v-25c0-2.973-2.1623-5.441-5-5.917v-2.083h5v-2h-5zm-1 8c-2.2091 0-4 1.7909-4 4v2h8v-2c0-2.2091-1.7909-4-4-4zm-4 28v-20h8v20zm-3-33c0-.55228.44772-1 1-1 .5523 0 1 .44772 1 1s-.4477 1-1 1c-.55228 0-1-.44772-1-1zm17 12c0-2.2091 1.7909-4 4-4s4 1.7909 4 4v6c0 2.2091-1.7909 4-4 4s-4-1.7909-4-4zm4-2c-1.1046 0-2 .8954-2 2v6c0 1.1046.8954 2 2 2s2-.8954 2-2v-6c0-1.1046-.8954-2-2-2zm8 7h-3v-2h3c1.6569 0 3 1.3431 3 3s-1.3431 3-3 3c-.5523 0-1 .4477-1 1v1h4v2h-5c-.5523 0-1-.4477-1-1v-2c0-1.6569 1.3431-3 3-3 .5523 0 1-.4477 1-1s-.4477-1-1-1z" fill="#333" fill-rule="evenodd"/></svg>