<svg fill="none" height="48" viewBox="0 0 48 48" width="48" xmlns="http://www.w3.org/2000/svg"><g fill="#333"><path clip-rule="evenodd" d="m28 8.17071c.3128-.11056.6494-.17071 1-.17071 1.6569 0 3 1.34315 3 3v10.1492l1.0557-1.3196c.9732-1.2165 2.6639-1.5878 4.0573-.8911 1.7775.8887 2.3738 3.1341 1.2714 4.7876l-3.4583 5.1876c-1.1963 1.7944-2.8544 3.1841-4.7587 4.054l.8291 9.9493c.0233.2786-.0713.5543-.2606.7601-.1894.2058-.4562.3229-.7359.3229h-12c-.2797 0-.5465-.1171-.7359-.3229-.1893-.2058-.2839-.4815-.2606-.7601l.807-9.6845c-2.2612-1.1594-3.8105-3.514-3.8105-6.2325v-14c0-1.6569 1.3431-3 3-3 .3506 0 .6872.0602 1 .1707v-1.1707c0-1.65685 1.3431-3 3-3 .3902 0 .7631.07451 1.1051.21009.3467-1.27362 1.5114-2.21009 2.8949-2.21009 1.6569 0 3 1.34315 3 3zm-3-2.17071c-.5523 0-1 .44772-1 1v13h-2v-11c0-.55228-.4477-1-1-1s-1 .44772-1 1v11h-2v-7c0-.5523-.4477-1-1-1s-1 .4477-1 1v14c0 2.1335 1.3366 3.9572 3.2217 4.6748.4164.1585.6777.5735.6407 1.0176l-.7756 9.3076h9.8264l-.7993-9.5913c-.037-.4448.2252-.8603.6426-1.0183 1.814-.6866 3.3991-1.9266 4.5055-3.5861l3.4583-5.1876c.4351-.6525.1997-1.5386-.5017-1.8894-.5499-.2749-1.2171-.1284-1.6012.3517l-2.8365 3.5457c-.2653.3316-.7112.4595-1.1119.3189-.4008-.1405-.669-.5189-.669-.9436v-13c0-.5523-.4477-1-1-1s-1 .4477-1 1v9h-2v-13c0-.55228-.4477-1-1-1z" fill-rule="evenodd"/><path d="m10 14h2v2h-2z"/><path d="m10 16v13.0002c0 2.7185 1.5493 5.0731 3.8105 6.2325l-.564 6.7675h2.007l.6089-7.3076c.037-.4441-.2243-.8591-.6407-1.0176-1.8851-.7176-3.2217-2.5413-3.2217-4.6748v-13.0002z"/></g></svg>