<svg fill="none" height="48" viewBox="0 0 48 48" width="48" xmlns="http://www.w3.org/2000/svg"><path clip-rule="evenodd" d="m12.6596 8.52595c.2444-2.56617 2.3997-4.52595 4.9775-4.52595h1.3629 1 1c0 1.65685 1.3431 3 3 3s3-1.34315 3-3h1 1 1.3629c2.5778 0 4.7331 1.95978 4.9775 4.52595l1.4466 15.18965c.1272 1.3354-.6383 2.5339-1.787 3.0354v3.249c0 .5523-.4477 1-1 1h-2v12c0 .5523-.4477 1-1 1h-14c-.5523 0-1-.4477-1-1v-12h-2c-.5523 0-1-.4477-1-1v-3.249c-1.1487-.5015-1.9142-1.7-1.787-3.0354zm17.3404 21.47405v-3h-12v3 12h12zm2-3v2h1v-2zm0-2v-14h-2v14h-12v-14h-2v14h-1.8005c-.5898 0-1.0514-.5077-.9955-1.0948l1.4466-15.18963c.1467-1.5397 1.4398-2.71557 2.9865-2.71557h1.7789c.7716 1.7659 2.5337 3 4.584 3s3.8124-1.2341 4.584-3h1.7789c1.5467 0 2.8398 1.17587 2.9865 2.71557l1.4466 15.18963c.0559.5871-.4057 1.0948-.9955 1.0948zm-16 2v2h-1v-2z" fill="#333" fill-rule="evenodd"/></svg>