<svg fill="none" height="48" viewBox="0 0 48 48" width="48" xmlns="http://www.w3.org/2000/svg"><path clip-rule="evenodd" d="m12.3682 10.9961c.2916-.5103.8556-1.29996 1.5592-1.94805.7262-.66886 1.4486-1.04805 2.0726-1.04805h7v6h-4c-1.1046 0-2 .8954-2 2v2h-1c-3.3137 0-6 2.6863-6 6v15c0 1.6569 1.3431 3 3 3h22c1.6569 0 3-1.3431 3-3v-15c0-3.3137-2.6863-6-6-6h-1v-2c0-1.1046-.8954-2-2-2h-4v-6h8v-2h-17c-1.3761 0-2.5704.78748-3.4275 1.57695-.8797.81024-1.5657 1.77055-1.9408 2.42695zm18.6318 9.0039h-14-1c-2.2091 0-4 1.7909-4 4v15c0 .5523.4477 1 1 1h22c.5523 0 1-.4477 1-1v-15c0-2.2091-1.7909-4-4-4zm-2-2v-2h-10v2zm1 11h-5v-5h-2v5h-5v2h5v5h2v-5h5z" fill="#333" fill-rule="evenodd"/></svg>