<svg fill="none" height="48" viewBox="0 0 48 48" width="48" xmlns="http://www.w3.org/2000/svg"><g fill="#333"><g clip-rule="evenodd" fill-rule="evenodd"><path d="m31 21h-14c-1.1046 0-2 .8954-2 2v17c0 1.1046.8954 2 2 2h14c1.1046 0 2-.8954 2-2v-17c0-1.1046-.8954-2-2-2zm-14-2c-2.2091 0-4 1.7909-4 4v17c0 2.2091 1.7909 4 4 4h14c2.2091 0 4-1.7909 4-4v-17c0-2.2091-1.7909-4-4-4z"/><path d="m21 22h-3c-1.1046 0-2 .8954-2 2v11 2h2 3v-2h-3v-11h3zm6 2h3v11h-3v2h3 2v-2-11c0-1.1046-.8954-2-2-2h-3z"/><path d="m24 33c1.6569 0 3-1.3431 3-3s-1.3431-3-3-3-3 1.3431-3 3 1.3431 3 3 3zm0 2c2.7614 0 5-2.2386 5-5s-2.2386-5-5-5-5 2.2386-5 5 2.2386 5 5 5z"/><path d="m23 26v-5h2v5z"/><path d="m23 37v-3h2v3z"/></g><path d="m22 20h4v2c0 .5523-.4477 1-1 1h-2c-.5523 0-1-.4477-1-1z"/><path clip-rule="evenodd" d="m23 6 2-2v7h-2zm0 13h-4v-2h2v-5c0-.5523.4477-1 1-1h1zm2 0h4v-2h-2v-5c0-.5523-.4477-1-1-1h-1z" fill-rule="evenodd"/></g></svg>