<svg fill="none" height="48" viewBox="0 0 48 48" width="48" xmlns="http://www.w3.org/2000/svg"><g fill="#333"><path d="m12 10c1.1046 0 2-.89543 2-2s-.8954-2-2-2c-.7403 0-1.3866.4022-1.7324 1h-.2676c-1.65685 0-3 1.34315-3 3v9h2v-9c0-.55228.44772-1 1-1h.2676c.3458.5978.9921 1 1.7324 1z"/><path clip-rule="evenodd" d="m10.1602 19h-1.1602-2c-.55228 0-1.00469.4487-.95457.9987.23249 2.5512 1.35025 4.9533 3.17643 6.7795 1.33914 1.3391 2.98794 2.2973 4.77814 2.8048v2.417c0 1.3064.835 2.4177 2.0004 2.8294.0426 3.9675 3.2721 7.1706 7.2496 7.1706 4.0041 0 7.25-3.2459 7.25-7.25v-4c0-2.0711 1.6789-3.75 3.75-3.75s3.75 1.6789 3.75 3.75v2.4207c-1.1652.4118-2 1.5231-2 2.8293 0 1.6569 1.3431 3 3 3s3-1.3431 3-3c0-1.3062-.8348-2.4175-2-2.8293v-2.4207c0-3.1756-2.5744-5.75-5.75-5.75s-5.75 2.5744-5.75 5.75v4c0 2.8995-2.3505 5.25-5.25 5.25-2.8731 0-5.2071-2.3079-5.2494-5.1709 1.1649-.412 1.9994-1.5231 1.9994-2.8291v-2.417c1.7902-.5075 3.4391-1.4657 4.7782-2.8048 1.8262-1.8262 2.9439-4.2283 3.1764-6.7795.0502-.55-.4023-.9987-.9546-.9987v-9c0-1.65685-1.3431-3-3-3h-.2676c-.3458-.5978-.9921-1-1.7324-1-1.1046 0-2 .89543-2 2s.8954 2 2 2c.7403 0 1.3866-.4022 1.7324-1h.2676c.5523 0 1 .44772 1 1v9h-1.1601c-.5523 0-.9913.4509-1.0854.9952-.204 1.1794-.7673 2.2765-1.6251 3.1342-1.0951 1.0952-2.5805 1.7105-4.1294 1.7105-1.5488 0-3.0342-.6153-4.1294-1.7105-.8577-.8577-1.4211-1.9548-1.6251-3.1342-.0941-.5443-.5331-.9952-1.0853-.9952zm14.4203 2h1.1945c-.3737 1.6396-1.2029 3.1559-2.411 4.364-1.6878 1.6878-3.977 2.636-6.364 2.636-2.3869 0-4.6761-.9482-6.3639-2.636-1.20813-1.2081-2.03733-2.7244-2.41108-4.364h1.19451c.35071 1.3291 1.04807 2.5548 2.03687 3.5436 1.4703 1.4703 3.4644 2.2963 5.5436 2.2963 2.0793 0 4.0734-.826 5.5437-2.2963.9888-.9888 1.6861-2.2145 2.0368-3.5436zm14.4195 14c.5523 0 1 .4477 1 1s-.4477 1-1 1-1-.4477-1-1 .4477-1 1-1zm-21-5v2c0 .5523-.4477 1-1 1s-1-.4477-1-1v-2z" fill-rule="evenodd"/></g></svg>