<svg fill="none" height="48" viewBox="0 0 48 48" width="48" xmlns="http://www.w3.org/2000/svg"><g clip-rule="evenodd" fill="#333" fill-rule="evenodd"><path d="m24 36c.8063 0 1.5568.2385 2.1849.6489l1.8166-32.6489.9985.05555.9984-.05555 1.8166 32.6489c.6282-.4104 1.3787-.6489 2.185-.6489 2.2091 0 4 1.7909 4 4s-1.7909 4-4 4c-2.1991 0-3.9837-1.7746-3.9999-3.9698l-.2236-4.018h-1.5531l-.2235 4.018c-.0163 2.1952-1.8009 3.9698-3.9999 3.9698-2.2092 0-4-1.7909-4-4s1.7908-4 4-4zm5-13.9442.6652 11.9564h-1.3305zm0-3.021c.5523 0 1-.4471 1-.9986s-.4477-.9986-1-.9986-1 .4471-1 .9986.4477.9986 1 .9986zm-5 18.9652c-1.1046 0-2 .8954-2 2s.8954 2 2 2 2-.8954 2-2-.8954-2-2-2zm8 2c0-1.1046.8954-2 2-2s2 .8954 2 2-.8954 2-2 2-2-.8954-2-2z"/><path d="m16 4.23381-1.5145.9087.5145.85749c-.5145-.85749-.5159-.85665-.5159-.85665l-.0015.0009-.0032.00195-.0074.00452-.0184.01155c-.0139.00883-.031.01995-.0511.03347-.0401.02706-.0922.06374-.1547.11103-.1249.09459-.291.23148-.4853.41834-.3892.37426-.8885.94626-1.3955 1.77535-1.0163 1.66239-2.0418 4.32284-2.3033 8.43284-.07968 1.2526.6449 2.3082 1.6788 2.7887-.4584.4532-.7425 1.0824-.7425 1.778v21c0 1.3807 1.1193 2.5 2.5 2.5s2.5-1.1193 2.5-2.5v-21c0-.8936-.4688-1.6776-1.1739-2.1197.7138-.5484 1.1739-1.4106 1.1739-2.3803zm-3.9403 11.82649c.2363-3.714 1.1321-6.0256 1.9403-7.39439v7.33409c0 .5523-.4477 1-1 1-.5686 0-.9712-.4539-.9403-.9397zm1.9403 4.5255v-.0858c0-.2761-.2239-.5-.5-.5-.2762 0-.5.2239-.5.5v1.0858zm0 2.8284v1.1716l-1 1v-1.1716zm0 5.1716v-1.1716l-1 1v1.1716zm0 2.8284v10.0858c0 .2761-.2239.5-.5.5-.2762 0-.5-.2239-.5-.5v-9.0858z"/></g></svg>