<svg fill="none" height="48" viewBox="0 0 48 48" width="48" xmlns="http://www.w3.org/2000/svg"><g clip-rule="evenodd" fill="#333" fill-rule="evenodd"><path d="m8.34524 21.6765h-2.6v6.8h8.59996v-.8c0-3.3137-2.6862-6-5.99996-6zm-4.6-2v10.8h12.59996v-2.8c0-4.4183-3.5817-8-7.99996-8z"/><path d="m23.9952 28.4766c2.6234 0 4.75-2.1267 4.75-4.75 0-2.6234-2.1266-4.75-4.75-4.75-2.6233 0-4.75 2.1266-4.75 4.75 0 2.6233 2.1267 4.75 4.75 4.75zm0 2c3.728 0 6.75-3.0221 6.75-6.75 0-3.728-3.022-6.75-6.75-6.75-3.7279 0-6.75 3.022-6.75 6.75 0 3.7279 3.0221 6.75 6.75 6.75z"/><path d="m2.74524 34.9765c0-1.5464 1.2536-2.8 2.8-2.8h29.69996v2h-29.69996c-.44183 0-.8.3582-.8.8s.35817.8.8.8h25.22096v2h-25.22096c-1.5464 0-2.8-1.2536-2.8-2.8z"/><path d="m8.80295 12.783c3.46465-4.61263 8.98415-7.59941 15.20085-7.59941 10.4934 0 19 8.50661 19 19.00001s-8.5066 19-19 19c-5.3148 0-10.1215-2.1836-13.5686-5.7l-1.66663-1.7h8.51733l.2263.1256c1.9223 1.0666 4.1345 1.6744 6.4917 1.6744 7.4006 0 13.4-5.9994 13.4-13.4s-5.9994-13.4-13.4-13.4c-3.3991 0-6.5005 1.2643-8.8633 3.3497l-.2835.2503h-7.25639zm2.96315-.3994h2.3418c2.6758-2.2462 6.1289-3.60001 9.896-3.60001 8.5051 0 15.4 6.89481 15.4 15.40001s-6.8949 15.4-15.4 15.4c-2.6117 0-5.0741-.6509-7.2311-1.8h-2.9708c2.8419 2.1355 6.3736 3.4 10.2018 3.4 9.3889 0 17-7.6112 17-17s-7.6111-17.00001-17-17.00001c-4.8052 0-9.1448 1.99291-12.2377 5.20001z"/></g></svg>