<svg fill="none" height="48" viewBox="0 0 48 48" width="48" xmlns="http://www.w3.org/2000/svg"><g fill="#333"><path clip-rule="evenodd" d="m21.013 29.5111c.1016.7059-.1804 1.4124-.74 1.8544-1.3967 1.1031-2.2867 2.8057-2.2851 4.717.0027 3.3137 2.6912 5.9978 6.0049 5.995 3.3137-.0027 5.9978-2.6912 5.9951-6.0049-.0016-1.9112-.8943-3.6123-2.2929-4.7132-.5603-.4411-.8434-1.1471-.743-1.8531.0199-.1399.0303-.2837.0301-.4312l-.0163-20c-.0014-1.65686-1.3456-2.9989-3.0025-2.99755-1.6568.00136-2.9989 1.34561-2.9975 3.00246l.0163 19.99999c.0002.1475.0108.2913.0309.4311zm-2.0472-20.42945c-.0023-2.76142 2.2344-5.00183 4.9959-5.0041 2.7614-.00226 5.0018 2.23449 5.0041 4.99591l.0163 20.00004c.0002.2425-.0168.481-.05.7144 1.8591 1.4634 3.0537 3.7335 3.0558 6.2831.0036 4.4183-3.5752 8.0029-7.9935 8.0065-4.4182.0037-8.0029-3.5751-8.0065-7.9934-.0021-2.5496 1.1888-4.8217 3.0455-6.2881-.0336-.2333-.0511-.4718-.0513-.7144z" fill-rule="evenodd"/><path d="m23.9674 11.0775c-.0005-.5523.4469-1.0004.9992-1.0008l2-.0016.0016 2-2 .0016c-.5523.0004-1.0004-.4469-1.0008-.9992z"/><path d="m23.9707 15.0775c-.0005-.5523.4469-1.0004.9991-1.0008l2-.0016.0017 2-2 .0016c-.5523.0004-1.0004-.4469-1.0008-.9992z"/><path d="m23.974 19.0775c-.0005-.5523.4469-1.0004.9991-1.0008l2-.0016.0017 2-2 .0016c-.5523.0004-1.0004-.4469-1.0008-.9992z"/><g clip-rule="evenodd" fill-rule="evenodd"><path d="m19.2907 30.3743 10.0082 9.9918 1.413-1.4154-10.0082-9.9917z"/><path d="m19.2874 26.3743 11.009 10.9909 1.4131-1.4154-11.009-10.9909z"/><path d="m20.6997 23.7874 6.5053 6.4947 1.413-1.4154-6.5053-6.4947z"/><path d="m24.6999 23.7841 2.5019 2.4978 1.4131-1.4153-2.502-2.4979z"/><path d="m19.9763 22.0808 8.0001-.0066.0016 2-8.0001.0066z"/><path d="m18 33.0825 10.0082 9.9918 1.4131-1.4154-10.0082-9.9918z"/><path d="m16.7094 35.7907 8.0066 7.9934 1.413-1.4153-8.0066-7.9935z"/></g></g></svg>