<svg fill="none" height="48" viewBox="0 0 48 48" width="48" xmlns="http://www.w3.org/2000/svg"><path clip-rule="evenodd" d="m35 6h-2v2h1v2 9c0 2.3266-1.3533 4.6533-2.4856 6.1928-.8144 1.1072-1.5144 1.8072-1.5144 1.8072.7867 0 1.5204.2271 2.139.6194.5456.3459 1.0017.8203 1.3259 1.3806h.5351 1v-2h5v2h-4c3.3137 0 6 2.6863 6 6v2h-2-1-2v-2c0-.5523-.4477-1-1-1h-2v.5014 3.4986c0 1.4806-.8044 2.7733-2 3.4649v2.5351h-2v-2h-20v2h-2v-2.5351c-1.1956-.6916-2-1.9843-2-3.4649v-3.4983-2.5017-1c0-1.4224.74247-2.6714 1.86101-3.3806.61862-.3923 1.35228-.6194 2.13899-.6194 0 0-.70003-.7-1.5144-1.8072-1.13229-1.5395-2.4856-3.8662-2.4856-6.1928v-9-2h1v-2h-2v-2h30zm-3 26v1.3466c-2.4444 1.1973-4.8889.7494-7.3333-1.3466-.5556.4762-1.1111.8673-1.6667 1.1735v-4.1735h2v-6h-2v6h-2v-6h-2v6h-2v-6h-2v6h2v4.1735c-.5556-.3062-1.1111-.6973-1.6667-1.1735-2.4444 2.0952-4.8889 2.5442-7.3333 1.3469v-2.3469c0-1.1046.89543-2 2-2h4.8284l-1.8284-1.8284v-4.1716h-2v2.1339c-.0339-.0388-.0695-.0798-.1065-.123-.3363-.3923-.7843-.9526-1.2294-1.6203-.93359-1.4004-1.6641-2.9918-1.6641-4.3906v-1h24v1c0 1.3988-.7305 2.9902-1.6641 4.3906-.4451.6677-.8931 1.228-1.2294 1.6203-.037.0432-.0726.0842-.1065.123v-2.1339h-2v4.1716l-1.8284 1.8284h4.8284c1.1046 0 2 .8954 2 2zm-13-3h2v4.9082c-.6667.1224-1.3333.1224-2 0zm20 6c0-1.6569-1.3431-3-3-3h-2v-1h2c2.2091 0 4 1.7909 4 4zm-31 .5186v2.4814c0 1.1046.89543 2 2 2h20c1.1046 0 2-.8954 2-2v-2.4817c-.8571.3125-1.7467.4815-2.6664.4817-1.6581.0002-3.2185-.5484-4.6671-1.4982-1.4483.9494-3.0085 1.4982-4.6665 1.4982s-3.2183-.5488-4.6667-1.4983c-1.4484.9495-3.0086 1.4983-4.6666 1.4983-.91981 0-1.8095-.1689-2.6667-.4814zm1-29.5186h22v2h-22zm23 10h-24v-6h24zm7.5 27c.8284 0 1.5-.814 1.5-1.8182 0-1.5909-1.5-3.1818-1.5-3.1818s-1.5 1.5909-1.5 3.1818c0 1.0042.6716 1.8182 1.5 1.8182z" fill="#333" fill-rule="evenodd"/></svg>