<svg fill="none" height="48" viewBox="0 0 48 48" width="48" xmlns="http://www.w3.org/2000/svg"><g clip-rule="evenodd" fill="#333" fill-rule="evenodd"><path d="m35.8513 16.2506c.742.8182.5146 2.0757-.3897 2.71l-4.8723 3.4175c-.9043.6343-2.1398.3783-3.0333-.271-.2287-.1663-.4695-.3167-.7207-.45-.8431-.4475-1.7802-.689-2.7346-.7049s-1.8991.1944-2.7566.6135c-.2556.1249-.5012.2672-.7353.4258-.9146.6193-2.1579.834-3.0406.17l-4.7559-3.5778c-.8827-.664-1.0682-1.9284-.2993-2.7214 1.2851-1.3254 2.7936-2.4222 4.4614-3.2373 2.2685-1.1087 4.7672-1.6648 7.2918-1.6228s5.0035.6809 7.2338 1.8645c1.6397.8701 3.1109 2.0165 4.3513 3.3839zm-1.6557 1.1551c-1.048-1.1136-2.2744-2.0513-3.6331-2.7723-1.9515-1.0357-4.1205-1.5947-6.3296-1.6315-2.209-.0367-4.3954.4499-6.3803 1.42-1.3819.6754-2.6389 1.5718-3.7233 2.6499l4.6373 3.4885c.015.0049.0539.0124.131.0054.1568-.0141.3768-.0861.5899-.2303.3115-.211.6384-.4004.9783-.5666 1.1412-.5577 2.3982-.8374 3.6681-.8163.0511.0008.1021.0022.153.004.0382-.0801.0877-.1565.1488-.2267l2.7464-3.1579c.3625-.4167.9941-.4607 1.4108-.0983.4168.3625.4608.9941.0983 1.4108l-2.1544 2.4772c.4247.141.8382.3177 1.236.5288.3343.1774.6547.3776.959.5988.2081.1513.4257.2306.5819.2498.0768.0095.116.0033.1311-.0011zm-4.7431 3.329c.0003.0002-.0025.0017-.0077.0032.0044-.0025.0075-.0035.0077-.0032zm-10.6935-.178c.0002-.0002.0033.0009.0076.0036-.0051-.0018-.0079-.0033-.0076-.0036z"/><path d="m36.2161 42c2.1229 0 3.876-1.6584 3.9938-3.7781l1.5556-28c.1273-2.29282-1.6975-4.2219-3.9939-4.2219h-27.5432c-2.29634 0-4.12122 1.92907-3.99384 4.2219l1.55555 28c.11776 2.1196 1.87091 3.7781 3.99379 3.7781zm-24.4322-2h24.4322c1.0614 0 1.938-.8292 1.9969-1.8891l1.5555-28c.0637-1.14636-.8487-2.1109-1.9969-2.1109h-27.5432c-1.14817 0-2.06061.96454-1.99692 2.1109l1.55555 28c.05888 1.0599.93547 1.8891 1.99687 1.8891z"/></g></svg>