<svg fill="none" height="48" viewBox="0 0 48 48" width="48" xmlns="http://www.w3.org/2000/svg"><g fill="#333"><path d="m16.9998 32c0 .5523-.4478 1-1 1-.5523 0-1-.4477-1-1s.4477-1 1-1c.5522 0 1 .4477 1 1z"/><g clip-rule="evenodd" fill-rule="evenodd"><path d="m9.99976 32c0-3.3137 2.68624-6 6.00004-6 3.3137 0 6 2.6863 6 6s-2.6863 6-6 6c-3.3138 0-6.00004-2.6863-6.00004-6zm6.00004-4c-2.2092 0-4 1.7909-4 4s1.7908 4 4 4c2.2091 0 4-1.7909 4-4s-1.7909-4-4-4z"/><path d="m8 6v2h3.2192l3.5197 14.0787c-4.92763.62-8.73914 4.8255-8.73914 9.9213 0 5.5228 4.47714 10 10.00004 10 5.5228 0 10-4.4772 10-10 0-1.0452-.1604-2.053-.4578-3h5.458v7.1706c-1.1653.4118-2.0002 1.5231-2.0002 2.8294 0 1.6569 1.3431 3 3 3 1.6568 0 3-1.3431 3-3 0-1.3061-.8347-2.4173-1.9998-2.8292v-5.9283l6.0713 6.0712 3.5355-3.5355-1.4142-1.4142-2.1213 2.1213-6.0713-6.0713v-1.414c0-1.6569-1.3431-3-3-3h-1v-3c0-1.6569-1.3431-3-3-3h-10.4692l-2.75-11zm8.0308 13 .7576 3.0306c1.2737.0994 2.4804.4374 3.5755.9694h6.6361v-3c0-.5523-.4477-1-1-1zm14.9692 8h-6.3381c-.4223-.73-.9342-1.4017-1.5207-2h6.8588c.5523 0 1 .4477 1 1zm-15.0002-3c-4.4183 0-8.00004 3.5817-8.00004 8s3.58174 8 8.00004 8c4.4182 0 8-3.5817 8-8s-3.5818-8-8-8zm15 15c0-.5523.4477-1 1-1 .5522 0 1 .4477 1 1s-.4478 1-1 1c-.5523 0-1-.4477-1-1z"/></g></g></svg>