<svg fill="none" height="48" viewBox="0 0 48 48" width="48" xmlns="http://www.w3.org/2000/svg"><g clip-rule="evenodd" fill="#333" fill-rule="evenodd"><path d="m24 11c1.6569 0 3 1.3431 3 3v12c0 1.6569-1.3431 3-3 3s-3-1.3431-3-3v-12c0-1.6569 1.3431-3 3-3zm-1 15v-12c0-.5523.4477-1 1-1s1 .4477 1 1v12c0 .5523-.4477 1-1 1s-1-.4477-1-1z"/><path d="m27 34c0-1.6569-1.3431-3-3-3s-3 1.3431-3 3 1.3431 3 3 3 3-1.3431 3-3zm-3 1c.5523 0 1-.4477 1-1s-.4477-1-1-1-1 .4477-1 1 .4477 1 1 1z"/><path d="m24 4c-11.0457 0-20 8.9543-20 20s8.9543 20 20 20 20-8.9543 20-20-8.9543-20-20-20zm0 2c-9.9411 0-18 8.0589-18 18s8.0589 18 18 18 18-8.0589 18-18-8.0589-18-18-18z"/></g></svg>