<svg fill="none" height="48" viewBox="0 0 48 48" width="48" xmlns="http://www.w3.org/2000/svg"><g fill="#333"><path d="m24 7 .8944-.44721c-.1694-.33879-.5156-.55279-.8944-.55279s-.725.214-.8944.55279zm17 34v1c.3466 0 .6684-.1795.8507-.4743.1822-.2948.1987-.6629.0437-.9729zm-34 0-.89443-.4472c-.15499.31-.13843.6781.04378.9729s.50407.4743.85065.4743zm34-1h-34v2h34zm-33.10557 1.4472 16.99997-33.99999-1.7888-.89442-17.00003 34.00001zm15.21117-33.99999 17 33.99999 1.7888-.8944-17-34.00001z"/><path clip-rule="evenodd" d="m25 19v9c0 .5523-.4477 1-1 1s-1-.4477-1-1v-9c0-.5523.4477-1 1-1s1 .4477 1 1zm-4 0c0-1.6569 1.3431-3 3-3s3 1.3431 3 3v9c0 1.6569-1.3431 3-3 3s-3-1.3431-3-3zm3 18c-.5523 0-1-.4477-1-1s.4477-1 1-1 1 .4477 1 1-.4477 1-1 1zm-3-1c0-1.6569 1.3431-3 3-3s3 1.3431 3 3-1.3431 3-3 3-3-1.3431-3-3z" fill-rule="evenodd"/></g></svg>