<svg fill="none" height="48" viewBox="0 0 48 48" width="48" xmlns="http://www.w3.org/2000/svg"><path clip-rule="evenodd" d="m23.999 6c-7.1797 0-13 5.8203-13 13 0 5.4045 3.298 10.0388 7.9912 12h.0099v.0041c1.5389.6416 3.2275.9959 4.9989.9959 1.7722 0 3.4616-.3546 5.0011-.9968v-.0032h.0077c4.6932-1.9612 7.9912-6.5955 7.9912-12 0-7.1797-5.8203-13-13-13zm7.0011 26.2693c4.7572-2.5151 7.9989-7.5137 7.9989-13.2693 0-8.2843-6.7157-15-15-15-8.2842 0-14.99998 6.7157-14.99998 15 0 5.7565 3.24268 10.7557 8.00108 13.2705v10.7295c0 .3688.203.7077.5282.8817.3251.174.7197.1549 1.0265-.0496l5.4453-3.6302 5.4453 3.6302c.3069.2045.7014.2236 1.0266.0496.3251-.174.5281-.5129.5281-.8817zm-2 .8768c-1.5642.553-3.2475.8539-5.0011.8539-1.7527 0-3.4353-.3006-4.9989-.8531v7.9846l4.4453-2.9636c.3359-.2239.7735-.2239 1.1094 0l4.4453 2.9636zm-5-21.1461c-3.866 0-7 3.134-7 7s3.134 7 7 7 7-3.134 7-7-3.134-7-7-7zm-9 7c0-4.9706 4.0295-9 9-9 4.9706 0 9 4.0294 9 9s-4.0294 9-9 9c-4.9705 0-9-4.0294-9-9z" fill="#333" fill-rule="evenodd"/></svg>