<svg fill="none" height="48" viewBox="0 0 49 48" width="49" xmlns="http://www.w3.org/2000/svg"><g clip-rule="evenodd" fill="#333" fill-rule="evenodd"><path d="m29.4882 32.2841c4.7099-1.1007 7.3497-5.2864 6.4512-9.0268-.8985-3.7403-5.1619-6.3128-9.8718-5.2121-4.7099 1.1006-7.3497 5.2863-6.4512 9.0267.8986 3.7404 5.1619 6.3128 9.8718 5.2122zm.4672 1.9446c5.583-1.3047 9.1341-6.4205 7.9315-11.4265s-6.7034-8.0064-12.2864-6.7017c-5.5831 1.3047-9.1342 6.4205-7.9316 11.4265s6.7034 8.0064 12.2865 6.7017z"/><path d="m32.0279 27.8221c.2255 0 .3611-.1731.3611-.3288 0-.1556-.1356-.3287-.3611-.3287-.2256 0-.3612.1731-.3612.3287 0 .1557.1356.3288.3612.3288zm0 2c1.304 0 2.3611-1.0426 2.3611-2.3288 0-1.2861-1.0571-2.3287-2.3611-2.3287s-2.3612 1.0426-2.3612 2.3287c0 1.2862 1.0572 2.3288 2.3612 2.3288z"/><path d="m12.3577 14.6069c.5767-1.498 2.0413-2.552 3.7435-2.552 1.1007 0 2.1002.4404 2.8252 1.1544.4055-.1442.8421-.2226 1.296-.2226 2.104 0 3.8333 1.6859 3.8333 3.7945v.1644l-.0526.1558c-.3491 1.0328-.9303 1.8892-1.7529 2.5283-.7654 1.0748-2.2048 2.3119-4.575 2.0922-.2352-.0219-.3842.0203-.4874.0744-.1089.0572-.2277.1602-.3471.3456-.255.3957-.4355 1.0472-.5072 1.8898-.0698.8199-.0282 1.7163.075 2.5139.0802.6193.1919 1.1356.2979 1.4863 1.0139.7155 1.6826 1.8923 1.6826 3.2296 0 .7444-.2079 1.4409-.5676 2.0351.364.6134.5676 1.3447.5676 2.1147 0 .6196-.1316 1.2123-.3713 1.7386.2369.4558.3713.9736.3713 1.5219 0 1.8513-1.5178 3.3287-3.3611 3.3287-1.8432 0-3.3611-1.4774-3.3611-3.3287 0-.5483.1344-1.0661.3713-1.5219-.2397-.5263-.3713-1.119-.3713-1.7386 0-.384.0505-.7574.1458-1.1109-.8732-.7246-1.4337-1.8142-1.4337-3.0389 0-.1754.0116-.3482.034-.5179-1.51859-.5591-2.60976-2.0047-2.60976-3.7162 0-.5167.10027-1.0108.28222-1.4638-.70338-.7124-1.14078-1.689-1.14078-2.7704 0-1.3984.7296-2.6197 1.82342-3.3243-.06948-.2924-.10623-.5971-.10623-.9098 0-2.098 1.63943-3.7963 3.69593-3.9522zm3.7435-.552c-1.0284 0-1.8613.7542-1.9881 1.7061l-.1342 1.0075-1.0052-.1506c-.0995-.0149-.2019-.0227-.3069-.0227-1.1204 0-2.005.8922-2.005 1.9639 0 .3382.0864.6542.2388.9307l.5873 1.0658-1.1595.3696c-.81184.2587-1.38382 1.0048-1.38382 1.868 0 .6955.36923 1.3127.93965 1.6642l.91647.5647-.6306.8724c-.23189.3208-.36696.7104-.36696 1.1329 0 1.0416.83556 1.9136 1.91116 1.9618l1.5157.0678-.66 1.3662c-.1224.2533-.1911.5367-.1911.8383 0 .7589.4407 1.4261 1.1011 1.7536l.9265.4596-.4905.9106c-.1537.2853-.2492.6368-.2492 1.026 0 .4772.1433.8959.3598 1.2062l.438.6275-.4914.5868c-.193.2304-.3064.5217-.3064.84 0 .7209.5963 1.3287 1.3611 1.3287s1.3611-.6078 1.3611-1.3287c0-.3183-.1134-.6096-.3064-.84l-.4913-.5868.4379-.6275c.2165-.3103.3598-.729.3598-1.2062 0-.6-.2257-1.1021-.5336-1.4167l-.6768-.6915.6689-.6992c.3381-.3535.5415-.8246.5415-1.3424 0-.7212-.3974-1.3589-1.0041-1.7022l-.3014-.1706-.1313-.3206c-.2241-.5468-.412-1.3763-.5271-2.2657-.1171-.9045-.1689-1.9474-.0844-2.9402.0825-.97.3037-2.0043.8187-2.8036.2655-.4121.6237-.7838 1.099-1.0332.4809-.2524 1.0232-.3486 1.6014-.295 1.5071.1397 2.3446-.632 2.8277-1.3572l.1003-.1507.1468-.1059c.4891-.3529.8634-.837 1.1143-1.4906-.0801-.9078-.8557-1.6393-1.8265-1.6393-.38 0-.7293.112-1.0197.3028l-.8509.5591-.5437-.8608c-.3527-.5584-.9829-.9329-1.7069-.9329z"/><path d="m31.7098 17.301.0017-.0079c.0018-.0086.0049-.0231.0093-.043.0088-.0398.023-.1013.043-.1818.0401-.1611.1033-.3969.1937-.6845.1816-.5779.4686-1.3513.8893-2.1437.8595-1.6188 2.1646-3.1158 4.0848-3.4687.5467-.1005.9087-.6192.8085-1.1586-.1002-.53935-.6248-.89511-1.1716-.79461-2.8279.5198-4.5368 2.68171-5.5042 4.50371-.4928.9281-.8226 1.8205-1.0294 2.4783-.1037.3303-.1776.6048-.226.7996-.0243.0975-.0422.1752-.0545.2303-.0061.0275-.0108.0494-.0141.0652l-.004.0192-.0012.0061-.0005.0022c0 .0004-.0003.0016.9873.1899l-.9876-.1883c-.1069.5387.2486 1.0597.7941 1.1637.5453.104 1.0742-.2487 1.1814-.7871l-.0002.001m0 0 .0002-.001z"/><path d="m6.64464 6.06531c.51623-.19628 1.09383.0631 1.29011.57933.54564 1.43512 1.79727 2.14991 3.13815 2.14991 1.3501 0 2.7678-.73292 3.5352-2.24669.1626-.32076.4849-.5295.8441-.54669s.7.15983.8925.46359c1.0571 1.66818 2.3118 2.32979 3.4053 2.32979s2.3483-.66161 3.4053-2.32979c.1925-.30376.5333-.48078.8925-.46359s.6816.22593.8442.54669c.8 1.57817 2.0182 2.2467 3.1809 2.2467 1.183.00001 2.5455-.6934 3.5824-2.32979.1834-.28937.5021-.46474.8447-.46474s.6613.17536.8447.46473c1.0571 1.66818 2.3118 2.32979 3.4053 2.32979s2.3483-.66161 3.4053-2.32979c.2957-.4665.9135-.60504 1.38-.30942s.605.91344.3094 1.37995c-1.304 2.05786-3.1187 3.25921-5.0947 3.25921-1.5818 0-3.0603-.7699-4.2561-2.13273-1.2417 1.37883-2.8115 2.13283-4.421 2.13283-1.5757 0-3.0463-.7235-4.1343-2.05674-1.1838 1.31544-2.6364 2.05664-4.1886 2.05664-1.5587 0-3.017-.7475-4.2036-2.0734-1.1809 1.3745-2.8428 2.0734-4.4735 2.0734-2.08265 0-4.13657-1.14818-5.00759-3.43909-.19628-.51623.0631-1.09383.57933-1.2901z"/></g></svg>