<svg fill="none" height="48" viewBox="0 0 48 48" width="48" xmlns="http://www.w3.org/2000/svg"><g fill="#333"><g clip-rule="evenodd" fill-rule="evenodd"><path d="m17 25h-2v2h2zm-2-2c-1.1046 0-2 .8954-2 2v2c0 1.1046.8954 2 2 2h2c1.1046 0 2-.8954 2-2v-2c0-1.1046-.8954-2-2-2z"/><path d="m25 25h-2v2h2zm-2-2c-1.1046 0-2 .8954-2 2v2c0 1.1046.8954 2 2 2h2c1.1046 0 2-.8954 2-2v-2c0-1.1046-.8954-2-2-2z"/><path d="m33 25h-2v2h2zm-2-2c-1.1046 0-2 .8954-2 2v2c0 1.1046.8954 2 2 2h2c1.1046 0 2-.8954 2-2v-2c0-1.1046-.8954-2-2-2z"/><path d="m17 33h-2v2h2zm-2-2c-1.1046 0-2 .8954-2 2v2c0 1.1046.8954 2 2 2h2c1.1046 0 2-.8954 2-2v-2c0-1.1046-.8954-2-2-2z"/><path d="m25 33h-2v2h2zm-2-2c-1.1046 0-2 .8954-2 2v2c0 1.1046.8954 2 2 2h2c1.1046 0 2-.8954 2-2v-2c0-1.1046-.8954-2-2-2z"/><path d="m33 33h-2v2h2zm-2-2c-1.1046 0-2 .8954-2 2v2c0 1.1046.8954 2 2 2h2c1.1046 0 2-.8954 2-2v-2c0-1.1046-.8954-2-2-2z"/><path d="m10 11c-.55228 0-1 .4477-1 1v27c0 .5523.44772 1 1 1h28c.5509 0 1-.4485 1-1.0022v-26.9956c0-.5537-.4491-1.0022-1-1.0022h-3v-2h3c1.6583 0 3 1.3467 3 3.0022v26.9956c0 1.6555-1.3417 3.0022-3 3.0022h-28c-1.65685 0-3-1.3431-3-3v-27c0-1.6569 1.34315-3 3-3h5v2zm21 0h-12v-2h12z"/><path d="m39 20h-30v-2h30z"/></g><path d="m15 7c0-.55228.4477-1 1-1s1 .44772 1 1v7c0 .5523-.4477 1-1 1s-1-.4477-1-1z"/><path d="m31 7c0-.55228.4477-1 1-1s1 .44772 1 1v7c0 .5523-.4477 1-1 1s-1-.4477-1-1z"/></g></svg>