<svg fill="none" height="48" viewBox="0 0 48 48" width="48" xmlns="http://www.w3.org/2000/svg"><path clip-rule="evenodd" d="m24.8592 5.48839c-.1803-.30284-.5067-.48839-.8592-.48839s-.6789.18555-.8592.48839c-1.9924 3.34607-3.1408 7.29161-3.1408 11.51161 0 .4071.0107.8117.0318 1.2134-.3203-.3741-.6573-.7384-1.011-1.0921-2.7388-2.7388-6.1157-4.4753-9.69536-5.2216-.33014-.0688-.67273.0334-.9112.2719-.23846.2384-.34067.581-.27184.9112.74629 3.5797 2.4828 6.9566 5.2216 9.6954.8492.8492 1.7597 1.602 2.7186 2.2588-.3581-.0245-.719-.037-1.0826-.037-3.5315 0-6.81863 1.1757-9.58842 3.1914-.2586.1882-.41158.4888-.41158.8086s.15298.6204.41158.8086c2.76979 2.0157 6.05692 3.1914 9.58842 3.1914 1.072 0 2.1214-.1083 3.1407-.3156l-.0067.0116c-1.2152 2.1048-1.6436 4.4662-1.3963 6.8014.0337.3181.2174.6008.4944.7607.277.16.6137.1777.906.0479 1.9598-.8707 3.6566-2.2403 4.8619-4.0744v4.7684h2v-4.7684c1.2053 1.8341 2.9021 3.2037 4.8619 4.0744.2923.1298.629.1121.906-.0479.277-.1599.4607-.4426.4944-.7607.2473-2.3352-.1811-4.6966-1.3963-6.8014l-.0067-.0116c1.0193.2073 2.0687.3156 3.1407.3156 3.5315 0 6.8186-1.1757 9.5884-3.1914.2586-.1882.4116-.4888.4116-.8086s-.153-.6204-.4116-.8086c-2.7698-2.0157-6.0569-3.1914-9.5884-3.1914-.3636 0-.7245.0125-1.0826.037.9589-.6568 1.8694-1.4096 2.7186-2.2588 2.7388-2.7388 4.4753-6.1157 5.2216-9.6954.0688-.3302-.0334-.6728-.2718-.9112-.2385-.2385-.5811-.3407-.9112-.2719-3.5797.7463-6.9566 2.4828-9.6954 5.2216-.3537.3537-.6907.718-1.011 1.0921.0211-.4017.0318-.8063.0318-1.2134 0-4.22-1.1484-8.16554-3.1408-11.51161zm-.8592 20.30291c.3271-1.2352.7752-2.4406 1.3446-3.5976.4273-1.6548.6554-3.3959.6554-5.1937 0-3.1961-.7209-6.2127-2-8.88429-1.2791 2.67159-2 5.68819-2 8.88429 0 1.7978.2281 3.5389.6554 5.1937.5694 1.157 1.0175 2.3624 1.3446 3.5976zm9.2218-4.4273c-1.9894 1.9894-4.3549 3.3892-6.8948 4.2045.3527-.8618.6537-1.752.8992-2.6661.8005-1.5805 1.8557-3.0554 3.1672-4.3669 2.0419-2.0419 4.48-3.4627 7.0963-4.2679-.8051 2.6163-2.226 5.0544-4.2679 7.0964zm-12.448 1.5384c.2455.9141.5465 1.8043.8992 2.6661-2.5399-.8153-4.9054-2.2151-6.8948-4.2045-2.0419-2.042-3.4628-4.4801-4.2679-7.0964 2.6163.8052 5.0544 2.226 7.0963 4.2679 1.3115 1.3115 2.3667 2.7864 3.1672 4.3669zm1.9855 8.0719c-.3834.2118-.7744.4084-1.1724.5892-.6725.6105-1.2535 1.323-1.7208 2.1325-.7255 1.2566-1.1118 2.6336-1.1834 4.0497 1.1906-.7701 2.1899-1.7931 2.9154-3.0497.6694-1.1594 1.05-2.4212 1.1612-3.7217zm-7.7593-3.9743c2.4644 0 4.8043.6559 6.901 1.837-.4933.3046-.9629.6455-1.4042 1.022-1.7183.7398-3.5695 1.141-5.4968 1.141-2.5756 0-5.01512-.7164-7.18331-2 2.16819-1.2836 4.60771-2 7.18331-2zm12.5032 2.859c-.4413-.3765-.9109-.7174-1.4042-1.022 2.0967-1.1811 4.4366-1.837 6.901-1.837 2.5756 0 5.0151.7164 7.1833 2-2.1682 1.2836-4.6077 2-7.1833 2-1.9273 0-3.7785-.4012-5.4968-1.141zm-2.2625 1.1153c.1112 1.3005.4918 2.5623 1.1612 3.7217.7255 1.2566 1.7248 2.2796 2.9154 3.0497-.0716-1.4161-.4579-2.7931-1.1834-4.0497-.4673-.8095-1.0483-1.522-1.7208-2.1325-.398-.1808-.789-.3774-1.1724-.5892z" fill="#333" fill-rule="evenodd"/></svg>