<svg fill="none" height="48" viewBox="0 0 48 48" width="48" xmlns="http://www.w3.org/2000/svg"><path clip-rule="evenodd" d="m17 7c0-1.65685 1.3431-3 3-3h8c1.6569 0 3 1.34315 3 3h4c1.6569 0 3 1.34315 3 3v31c0 1.6569-1.3431 3-3 3h-22c-1.6569 0-3-1.3431-3-3v-31c0-1.65685 1.3431-3 3-3zm0 2h-4c-.5523 0-1 .44772-1 1v10.9886h5.6326l3.3881-6.0232 2.117 7.4096 2.5907-3.3308h5.4891c.5523 0 1 .4477 1 1s-.4477 1-1 1h-4.5109l-4.4094 5.6691-1.8829-6.5903-1.612 2.8656h-6.8023v18.0114c0 .5523.4477 1 1 1h22c.5523 0 1-.4477 1-1v-31c0-.55229-.4477-1-1-1h-4c0 1.6569-1.3431 3-3 3h-8c-1.6569 0-3-1.3431-3-3zm3-3c-.5523 0-1 .44772-1 1v2c0 .55228.4477 1 1 1h8c.5523 0 1-.44772 1-1v-2c0-.55228-.4477-1-1-1zm-4 25c0-.5523.4477-1 1-1h14c.5523 0 1 .4477 1 1s-.4477 1-1 1h-14c-.5523 0-1-.4477-1-1zm0 6c0-.5523.4477-1 1-1h6c.5523 0 1 .4477 1 1s-.4477 1-1 1h-6c-.5523 0-1-.4477-1-1z" fill="#333" fill-rule="evenodd"/></svg>