<svg fill="none" height="48" viewBox="0 0 48 48" width="48" xmlns="http://www.w3.org/2000/svg"><g fill="#333"><path d="m12 29c-.5523 0-1 .4477-1 1s.4477 1 1 1h14c.5523 0 1-.4477 1-1s-.4477-1-1-1z"/><path d="m11 35c0-.5523.4477-1 1-1h8c.5523 0 1 .4477 1 1s-.4477 1-1 1h-8c-.5523 0-1-.4477-1-1z"/><g clip-rule="evenodd" fill-rule="evenodd"><path d="m12 9c0-1.65685 1.3431-3 3-3h8c1.6569 0 3 1.34315 3 3h3c1.6569 0 3 1.3431 3 3v27c0 1.6569-1.3431 3-3 3h-20c-1.65685 0-3-1.3431-3-3v-27c0-1.6569 1.34315-3 3-3zm-4 14h6.1713l1.4698-2.4662 1.815 6.6614 4.0335-5.1952h4.2784c.5523 0 1-.4478 1-1 0-.5523-.4477-1-1-1h-5.2576l-2.1776 2.8047-1.9995-7.3386-3.2983 5.5339h-5.035v-9c0-.5523.44772-1 1-1h3c0 1.6569 1.3431 3 3 3h8c1.6569 0 3-1.3431 3-3h3c.5523 0 1 .4477 1 1v27c0 .5523-.4477 1-1 1h-20c-.55228 0-1-.4477-1-1zm16-14v2c0 .5523-.4477 1-1 1h-8c-.5523 0-1-.4477-1-1v-2c0-.55228.4477-1 1-1h8c.5523 0 1 .44772 1 1z"/><path d="m39 14c-1.6569 0-3 1.3431-3 3v20.3028l3 4.5 3-4.5v-20.3028c0-1.6569-1.3431-3-3-3zm-1 3c0-.5523.4477-1 1-1s1 .4477 1 1v2h-2zm0 19.6972v-15.6972h2v15.6972l-1 1.5z"/></g></g></svg>