<svg fill="none" height="48" viewBox="0 0 48 48" width="48" xmlns="http://www.w3.org/2000/svg"><g fill="#333"><path d="m35.5344 6h1.8606c3.126 7.8479 4.7129 14.1062 4.705 19.8515-.0077 5.6146-1.5376 10.6599-4.5044 16.1486h-1.9817c3.1921-5.6582 4.7642-10.6353 4.7718-16.1512.0076-5.5609-1.5742-11.7582-4.8513-19.8489z"/><path d="m10.8051 6h1.8606c-3.27714 8.0907-4.85892 14.288-4.85128 19.8489.00757 5.5159 1.57971 10.493 4.77178 16.1512h-1.9817c-2.96683-5.4887-4.49667-10.534-4.50437-16.1486-.00789-5.7453 1.57896-12.0036 4.70497-19.8515z"/><path d="m23.243 31.5463v10.4537h1.7143v-10.4539l7.022-7.373-1.2122-1.2728-6.6671 7.0003-6.667-7.0003-1.2122 1.2728z"/><path clip-rule="evenodd" d="m25.2532 16.3001 1.5813-1.8448c1.0513-1.2265 1.0043-3.1023-.1069-4.2691-.3574-.37527-.8422-.5861-1.3476-.5861h-2.5598c-.5055 0-.9903.21083-1.3477.5861-1.1112 1.1668-1.1581 3.0426-.1069 4.2691l1.5813 1.8448-3.7697 4.3979 1.2743 1.2042 3.6486-4.2567 3.6486 4.2567 1.2742-1.2042zm-2.433-4.9c-.0508 0-.0996.0212-.1355.0589-.4665.4898-.4862 1.2773-.0449 1.7921l1.4603 1.7036 1.4602-1.7036c.4413-.5148.4216-1.3023-.0449-1.7921-.0359-.0377-.0846-.0589-.1354-.0589z" fill-rule="evenodd"/></g></svg>