<svg fill="none" height="48" viewBox="0 0 48 48" width="48" xmlns="http://www.w3.org/2000/svg"><g clip-rule="evenodd" fill="#333" fill-rule="evenodd"><path d="m8 40v-33h-2v34c0 .5523.44772 1 1 1h34v-2z"/><path d="m14.7719 27.1357-6.99997 8.5-1.54386-1.2714 7.00003-8.5z"/><path d="m24.6154 28.4231-6-2.5.7692-1.8462 6 2.5z"/><path d="m36.7809 19.1247-6 7.5-1.5618-1.2494 6-7.5z"/><path d="m16 26c1.1046 0 2-.8954 2-2s-.8954-2-2-2-2 .8954-2 2 .8954 2 2 2zm0 2c2.2091 0 4-1.7909 4-4s-1.7909-4-4-4-4 1.7909-4 4 1.7909 4 4 4z"/><path d="m28 30c1.1046 0 2-.8954 2-2s-.8954-2-2-2-2 .8954-2 2 .8954 2 2 2zm0 2c2.2091 0 4-1.7909 4-4s-1.7909-4-4-4-4 1.7909-4 4 1.7909 4 4 4z"/><path d="m38 18c1.1046 0 2-.8954 2-2s-.8954-2-2-2-2 .8954-2 2 .8954 2 2 2zm0 2c2.2091 0 4-1.7909 4-4s-1.7909-4-4-4-4 1.7909-4 4 1.7909 4 4 4z"/></g></svg>