<svg fill="none" height="48" viewBox="0 0 48 48" width="48" xmlns="http://www.w3.org/2000/svg"><g clip-rule="evenodd" fill="#333" fill-rule="evenodd"><path d="m8 40v-33h-2v34c0 .5523.44772 1 1 1h34v-2z"/><path d="m11 25c0-.5523.4477-1 1-1h6c.5523 0 1 .4477 1 1v16c0 .5523-.4477 1-1 1h-6c-.5523 0-1-.4477-1-1zm2 1v14h4v-14z"/><path d="m11 33c0-.5523.4477-1 1-1h6c.5523 0 1 .4477 1 1v8c0 .5523-.4477 1-1 1h-6c-.5523 0-1-.4477-1-1zm2 1v6h4v-6z"/><path d="m21 21c0-.5523.4477-1 1-1h6c.5523 0 1 .4477 1 1v20c0 .5523-.4477 1-1 1h-6c-.5523 0-1-.4477-1-1zm2 1v18h4v-18z"/><path d="m21 29c0-.5523.4477-1 1-1h6c.5523 0 1 .4477 1 1v12c0 .5523-.4477 1-1 1h-6c-.5523 0-1-.4477-1-1zm2 1v10h4v-10z"/><path d="m31 13c0-.5523.4477-1 1-1h6c.5523 0 1 .4477 1 1v28c0 .5523-.4477 1-1 1h-6c-.5523 0-1-.4477-1-1zm2 1v26h4v-26z"/><path d="m31 25c0-.5523.4477-1 1-1h6c.5523 0 1 .4477 1 1v16c0 .5523-.4477 1-1 1h-6c-.5523 0-1-.4477-1-1zm2 1v14h4v-14z"/></g></svg>