<svg fill="none" height="48" viewBox="0 0 48 48" width="48" xmlns="http://www.w3.org/2000/svg"><g fill="#333"><g clip-rule="evenodd" fill-rule="evenodd"><path d="m24 6h-14v-2h14c5.5228 0 10 4.47715 10 10v1h-8v-2c0-.5523-.4477-1-1-1h-15v-2h15c1.6569 0 3 1.3431 3 3h3.9381c-.4921-3.94631-3.8585-7-7.9381-7z"/><path d="m24 13h12v6h-12zm2 2v2h8v-2z"/><path d="m30 42c3.2309 0 6-2.7644 6-6.3636 0-3.004-1.6812-6.2293-3.6163-8.8846-.8503-1.1667-1.7037-2.1615-2.3837-2.9009-.68.7394-1.5334 1.7342-2.3837 2.9009-1.9351 2.6553-3.6163 5.8806-3.6163 8.8846 0 3.5992 2.7691 6.3636 6 6.3636zm0 2c4.4183 0 8-3.7445 8-8.3636 0-7.3182-8-14.6364-8-14.6364s-8 7.3182-8 14.6364c0 4.6191 3.5817 8.3636 8 8.3636z"/><path d="m27.0296 33.5175c-.5522.0065-1.0052-.4359-1.0117-.9881-.0163-1.3806 1.0897-2.5131 2.4703-2.5294.5522-.0065 1.0052.4359 1.0117.9882.0066.5522-.4358 1.0052-.9881 1.0117-.2761.0033-.4973.2297-.494.5059.0065.5522-.4359 1.0052-.9882 1.0117z"/><path d="m31 32c0-.5523.4477-1 1-1 1.3807 0 2.5 1.1193 2.5 2.5 0 .5523-.4477 1-1 1s-1-.4477-1-1c0-.2761-.2239-.5-.5-.5-.5523 0-1-.4477-1-1z"/><path d="m29.7634 38.2507c.1184.5394-.2229 1.0727-.7624 1.1911-1.3486.2961-2.6818-.5572-2.9779-1.9058-.1184-.5394.2229-1.0727.7624-1.1912.5394-.1184 1.0727.2229 1.1911.7624.0592.2697.3259.4404.5956.3811.5395-.1184 1.0728.2229 1.1912.7624z"/></g><path d="m34 38c0 .5523-.4477 1-1 1s-1-.4477-1-1 .4477-1 1-1 1 .4477 1 1z"/><path d="m31 28c0 .5523-.4477 1-1 1s-1-.4477-1-1 .4477-1 1-1 1 .4477 1 1z"/><path d="m31 35c0 .5523-.4477 1-1 1s-1-.4477-1-1 .4477-1 1-1 1 .4477 1 1z"/></g></svg>