<svg fill="none" height="48" viewBox="0 0 48 48" width="48" xmlns="http://www.w3.org/2000/svg"><g fill="#333"><path d="m19 15v3h-3v2h3v3h2v-3h3v-2h-3v-3z"/><path d="m17 26c-.5523 0-1 .4477-1 1s.4477 1 1 1h14c.5523 0 1-.4477 1-1s-.4477-1-1-1z"/><path d="m16 32c0-.5523.4477-1 1-1h14c.5523 0 1 .4477 1 1s-.4477 1-1 1h-14c-.5523 0-1-.4477-1-1z"/><path d="m17 36c-.5523 0-1 .4477-1 1s.4477 1 1 1h14c.5523 0 1-.4477 1-1s-.4477-1-1-1z"/><path clip-rule="evenodd" d="m17 7c0-1.65685 1.3431-3 3-3h8c1.6569 0 3 1.34315 3 3h4c1.6569 0 3 1.34315 3 3v31c0 1.6569-1.3431 3-3 3h-22c-1.6569 0-3-1.3431-3-3v-31c0-1.65685 1.3431-3 3-3zm11 5c1.6569 0 3-1.3431 3-3h4c.5523 0 1 .44772 1 1v31c0 .5523-.4477 1-1 1h-22c-.5523 0-1-.4477-1-1v-31c0-.55228.4477-1 1-1h4c0 1.6569 1.3431 3 3 3zm-8-6c-.5523 0-1 .44772-1 1v2c0 .55228.4477 1 1 1h8c.5523 0 1-.44772 1-1v-2c0-.55228-.4477-1-1-1z" fill-rule="evenodd"/></g></svg>