<svg fill="none" height="48" viewBox="0 0 48 48" width="48" xmlns="http://www.w3.org/2000/svg"><g fill="#333"><path d="m11 30c0-.5523.4477-1 1-1h14c.5523 0 1 .4477 1 1s-.4477 1-1 1h-14c-.5523 0-1-.4477-1-1z"/><path d="m12 34c-.5523 0-1 .4477-1 1s.4477 1 1 1h14c.5523 0 1-.4477 1-1s-.4477-1-1-1z"/><path d="m14 21v-3h2v3h3v2h-3v3h-2v-3h-3v-2z"/><g clip-rule="evenodd" fill-rule="evenodd"><path d="m15 6c-1.6569 0-3 1.34315-3 3h-3c-1.65685 0-3 1.3431-3 3v27c0 1.6569 1.34315 3 3 3h20c1.6569 0 3-1.3431 3-3v-27c0-1.6569-1.3431-3-3-3h-3c0-1.65685-1.3431-3-3-3zm8 6c.5523 0 1-.4477 1-1v-2c0-.55228-.4477-1-1-1h-8c-.5523 0-1 .44772-1 1v2c0 .5523.4477 1 1 1zm-11-1c0 1.6569 1.3431 3 3 3h8c1.6569 0 3-1.3431 3-3h3c.5523 0 1 .4477 1 1v27c0 .5523-.4477 1-1 1h-20c-.55228 0-1-.4477-1-1v-27c0-.5523.44772-1 1-1z"/><path d="m36 17c0-1.6569 1.3431-3 3-3s3 1.3431 3 3v20.3028l-3 4.5-3-4.5zm3-1c-.5523 0-1 .4477-1 1v2h2v-2c0-.5523-.4477-1-1-1zm0 22.1972 1-1.5v-15.6972h-2v15.6972z"/></g></g></svg>