<svg fill="none" height="48" viewBox="0 0 48 48" width="48" xmlns="http://www.w3.org/2000/svg"><g fill="#333"><g clip-rule="evenodd" fill-rule="evenodd"><path d="m34.8077 31.537c-.1893-2.1352-.5737-4.0555-1.429-5.5014l3.0508-3.0507c3.1132-.2202 5.5705-2.8156 5.5705-5.9849 0-3.3137-2.6863-6-6-6-.0438 0-.0874.0005-.131.0014-.7529-2.8384-4.661-5.0014-9.369-5.0014-4.1641 0-7.7025 1.69212-8.9854 4.047-3.6765.3539-6.5146 2.6604-6.5146 5.453 0 3.0376 3.3579 5.5 7.5 5.5 1.9929 0 3.8043-.57 5.1475-1.4999.0542.0998.112.2051.1735.3152.4578.8205 1.1198 1.9206 1.932 3.0267.8081 1.1003 1.7897 2.2407 2.8939 3.1148.9368.7416 2.0289 1.3442 3.2263 1.5043.4874 1.0254.7816 2.4391.9423 4.2525.1837 2.0714.1845 4.5228.1845 7.2864v1h2v-1.0345c0-2.7233 0-5.2597-.1923-7.4285zm-2.7896-14.1527c-.0551-.5811-.3612-1.1091-.8381-1.4456s-1.0771-.4479-1.643-.3049c-.9259.234-1.9514.3662-3.037.3662-.3778 0-.7487-.016-1.111-.0468-.7209-.0614-1.4188.2714-1.8249.8702-.7699 1.1353-2.6148 2.1766-5.0641 2.1766-1.6905 0-3.1409-.5053-4.1206-1.2237-.9809-.7194-1.3794-1.5477-1.3794-2.2763 0-1.2959 1.513-3.1548 4.7062-3.4622.6609-.0636 1.2471-.451 1.5647-1.034.7893-1.44879 3.4387-3.0038 7.2291-3.0038 2.0625 0 3.8834.47629 5.2179 1.1964 1.3639.73595 2.0303 1.6103 2.218 2.3178.2366.8922 1.0531 1.5065 1.9759 1.4867.0294-.0006.0588-.0009.0882-.0009 2.2091 0 4 1.7909 4 4s-1.7909 4-4 4c-.9316 0-1.7892-.3188-2.4693-.853l-.3366-.2962c-.6519-.6414-1.0849-1.5044-1.176-2.4665zm-1.0999 2.8071c-.1698-.2699-.3188-.5543-.4446-.8509-.234-.5518-.3877-1.1459-.4466-1.7676-.6279.1586-1.2888.2762-1.9745.3474-.5052.0524-1.0238.0797-1.5525.0797-.4343 0-.8618-.0184-1.2806-.054-.0245.0361-.0495.072-.0751.1076.1078.2088.25.4768.4232.7872.4315.7732 1.049 1.7981 1.7975 2.8173.0368.0501.0739.1002.1112.15l-.0001-.146c1.1051-.0009 2.2646-.5973 3.2271-1.3077.0737-.0544.1455-.1088.215-.163zm-2.0328 3.2838c.3252.334.6605.6425 1.0029.9135.4929.3902.9742.6824 1.4395.8694l2.6187-2.6187c-.6184-.2253-1.1894-.5494-1.6938-.9532-.1151.0916-.2359.1844-.3618.2774-.7757.5726-1.8224 1.2052-3.0055 1.5116z"/><path d="m18.002 25.5003c.0012 1.3807-1.1172 2.5009-2.4979 2.502-1.3807.0012-2.5009-1.1172-2.5021-2.4979-.0011-1.3807 1.1173-2.5009 2.498-2.5021 1.3807-.0011 2.5009 1.1173 2.502 2.498zm-2 .0016c.0003.2762-.2234.5002-.4995.5004-.2762.0003-.5002-.2234-.5005-.4995-.0002-.2762.2235-.5002.4996-.5005.2762-.0002.5002.2235.5004.4996z"/><path d="m11.002 29.5003c.0012 1.3807-1.11719 2.5009-2.49791 2.502-1.38071.0012-2.50091-1.1172-2.50204-2.4979s1.11724-2.5009 2.49795-2.5021c1.38071-.0011 2.5009 1.1173 2.502 2.498zm-1.99995.0016c.00022.2762-.22345.5002-.49959.5004-.27615.0003-.50019-.2234-.50041-.4995-.00023-.2762.22345-.5002.49959-.5005.27614-.0002.50018.2235.50041.4996z"/><path d="m25.5041 32.0021c1.3807-.0011 2.4991-1.1213 2.4979-2.502-.0011-1.3808-1.1213-2.4991-2.502-2.498s-2.4991 1.1213-2.498 2.5021c.0012 1.3807 1.1214 2.499 2.5021 2.4979zm-.0016-2c.2761-.0002.4998-.2243.4995-.5004-.0002-.2762-.2242-.4998-.5004-.4996-.2761.0002-.4998.2243-.4996.5004.0003.2762.2243.4998.5005.4996z"/></g><path d="m15 29c1.1046 0 2 .8954 2 2v2h2c1.1046 0 2 .8954 2 2s-.8954 2-2 2h-4c-1.1046 0-2-.8954-2-2v-4c0-1.1046.8954-2 2-2z"/><path d="m10 35c0-1.1046-.89543-2-2-2s-2 .8954-2 2v5c0 1.1046.89543 2 2 2h4c1.1046 0 2-.8954 2-2s-.8954-2-2-2h-2z"/><path d="m26 33c-1.1046 0-2 .8954-2 2v3h-2c-1.1046 0-2 .8954-2 2s.8954 2 2 2h4c1.1046 0 2-.8954 2-2v-5c0-1.1046-.8954-2-2-2z"/></g></svg>