<svg fill="none" height="48" viewBox="0 0 48 48" width="48" xmlns="http://www.w3.org/2000/svg"><g clip-rule="evenodd" fill="#333" fill-rule="evenodd"><path d="m26 33h3.5c6.9036 0 12.5-5.5964 12.5-12.5s-5.5964-12.5-12.5-12.5h-11c-6.9036 0-12.5 5.5964-12.5 12.5 0 7.9145 5.2167 12.7537 10.9239 15.7262 2.8346 1.4763 5.6897 2.4304 7.8489 3.0152.4421.1197.8532.2235 1.2272.3128zm2 9s-.7561-.1103-2-.3923c-5.7638-1.307-22-6.3027-22-21.1077 0-8.0081 6.4919-14.5 14.5-14.5h11c8.0081 0 14.5 6.4919 14.5 14.5s-6.4919 14.5-14.5 14.5h-1.5z"/><path d="m24 22c.5523 0 1-.4477 1-1s-.4477-1-1-1-1 .4477-1 1 .4477 1 1 1zm0 2c1.6569 0 3-1.3431 3-3s-1.3431-3-3-3-3 1.3431-3 3 1.3431 3 3 3z"/><path d="m32 22c.5523 0 1-.4477 1-1s-.4477-1-1-1-1 .4477-1 1 .4477 1 1 1zm0 2c1.6569 0 3-1.3431 3-3s-1.3431-3-3-3-3 1.3431-3 3 1.3431 3 3 3z"/><path d="m16 22c.5523 0 1-.4477 1-1s-.4477-1-1-1-1 .4477-1 1 .4477 1 1 1zm0 2c1.6569 0 3-1.3431 3-3s-1.3431-3-3-3-3 1.3431-3 3 1.3431 3 3 3z"/></g></svg>