<svg fill="none" height="48" viewBox="0 0 48 48" width="48" xmlns="http://www.w3.org/2000/svg"><g clip-rule="evenodd" fill="#333" fill-rule="evenodd"><path d="m26 33h3.5c6.9036 0 12.5-5.5964 12.5-12.5s-5.5964-12.5-12.5-12.5h-11c-6.9036 0-12.5 5.5964-12.5 12.5 0 7.9145 5.2167 12.7537 10.9239 15.7262 2.8346 1.4763 5.6897 2.4304 7.8489 3.0152.4421.1197.8532.2235 1.2272.3128zm2 9s-.7561-.1103-2-.3923c-5.7638-1.307-22-6.3027-22-21.1077 0-8.0081 6.4919-14.5 14.5-14.5h11c8.0081 0 14.5 6.4919 14.5 14.5s-6.4919 14.5-14.5 14.5h-1.5z"/><path d="m25.4068 12.05c-1.3218-.0421-2.7059.2048-3.8589.7641-1.1537.5596-2.1707 1.4858-2.5165 2.833-.1373.5349.185 1.0799.72 1.2172.5349.1373 1.0799-.185 1.2172-.72.1519-.5916.626-1.13 1.4522-1.5308.8155-.3955 1.8689-.598 2.9224-.5645 1.0592.0337 2.0187.3021 2.6809.7428.2836.1887.5455.4256.7282.7426.1892.328.2477.662.2477.9656 0 .4899-.1419.8425-.3524 1.1194-.2212.291-.5529.5422-.9833.7505-.877.4245-1.9746.5817-2.7311.6323-.5252.0352-.9332.4714-.9332.9978v1.5c0 .5523.4477 1 1 1 .5114 0 .9343-.3847.993-.88.0501-.4233.363-.7683.7794-.8594.5855-.128 1.1968-.3163 1.7633-.5905 1.2655-.6125 2.4643-1.7475 2.4643-3.6701 0-1.5137-.7781-2.6479-1.8678-3.3732-1.056-.7028-2.4087-1.0349-3.7254-1.0768zm-4.7318-1.0354c1.4907-.7231 3.2055-1.0142 4.7954-.9636 1.5738.05 3.3198.4458 4.7698 1.4108 1.5425 1.0266 2.7598 2.7388 2.7598 5.0382 0 2.9627-1.9231 4.6621-3.593 5.4704-.5334.2581-1.0797.4505-1.6018.5947-.4298 1.1313-1.5231 1.9349-2.8052 1.9349-1.6569 0-3-1.3432-3-3v-1.5c0-1.5791 1.2241-2.8879 2.7996-2.9933.6727-.045 1.4641-.1808 1.9934-.437.068-.0329.1203-.0625.16-.0873-.0109-.0079-.0232-.0164-.037-.0256-.2693-.1793-.8361-.3834-1.6364-.4088-.7848-.025-1.5076.133-1.9859.365-.267.1295-.3681.2314-.3988.27-.4292 1.58-2.0498 2.5269-3.6408 2.1185-1.6048-.4119-2.5719-2.0469-2.1599-3.6517.5394-2.1012 2.0978-3.4158 3.5808-4.1352zm2.2085 5.6851c-.0002 0 .0011-.0027.0046-.0078-.0026.0054-.0044.0079-.0046.0078zm4.1718-.2905.1194.0908zm-2.0553 10.5908c-.5523 0-1 .4477-1 1s.4477 1 1 1 1-.4477 1-1-.4477-1-1-1zm-3 1c0-1.6568 1.3431-3 3-3 1.6568 0 3 1.3432 3 3 0 1.6569-1.3432 3-3 3-1.6569 0-3-1.3431-3-3z"/></g></svg>