<svg fill="none" height="48" viewBox="0 0 48 48" width="48" xmlns="http://www.w3.org/2000/svg"><g fill="#333"><path clip-rule="evenodd" d="m24.8 33h2.7c6.9036 0 12.5-5.5964 12.5-12.5s-5.5964-12.5-12.5-12.5h-7c-6.9036 0-12.5 5.5964-12.5 12.5 0 8.0608 4.5962 12.8807 9.4302 15.7857 2.426 1.458 4.8694 2.4 6.7163 2.9772.2279.0712.4461.1367.6535.1968zm2 9s-.7643-.1286-2-.4633c-5.2102-1.4114-18.8-6.4872-18.8-21.0367 0-8.0081 6.4919-14.5 14.5-14.5h7c8.0081 0 14.5 6.4919 14.5 14.5s-6.4919 14.5-14.5 14.5h-.7z" fill-rule="evenodd"/><path clip-rule="evenodd" d="m27.6911 12.4815c1.0297.6849 1.8064 1.7939 1.8064 3.2797 0 1.5786-.6368 2.7386-1.6679 3.4491-.4273.2945-.8872.4868-1.3298.6133v1.5324c0 .8284-.6716 1.5-1.5 1.5-.8285 0-1.5-.6716-1.5-1.5v-2.7974c0-.7895.612-1.4439 1.3998-1.4966.5541-.0371.9744-.1474 1.2277-.322.1067-.0734.1832-.1577.2406-.2722.0596-.1192.1296-.3339.1296-.7066 0-.3127-.123-.5524-.4679-.7818-.392-.2608-1.022-.4528-1.7785-.4769-.7485-.0238-1.4753.1225-2.0095.3815-.537.2603-.7332.5518-.7885.7673-.2061.8024-1.0236 1.2858-1.826 1.0797s-1.2858-1.0236-1.0797-1.826c.3445-1.3413 1.3479-2.2175 2.3854-2.7205 1.0403-.5043 2.2628-.7171 3.4136-.6805 1.1429.0363 2.3623.3241 3.3447.9775z" fill-rule="evenodd"/><path d="m27 27c0 1.1046-.8954 2-2 2s-2-.8954-2-2 .8954-2 2-2 2 .8954 2 2z"/></g></svg>