<svg fill="none" height="48" viewBox="0 0 48 48" width="48" xmlns="http://www.w3.org/2000/svg"><g fill="#333"><path d="m21.3465 25.6737-1.9188-1.9187c-.2322.5412-.3057 1.1728-.1487 1.8535l.6808 2.9531c.2093.9079-.8275 1.5835-1.5736 1.0253l-.4855-.3633c-2.1838-1.634-5.2385.2579-4.7485 2.941l.2591 1.4187 1.9675-.3593-.2591-1.4187c-.1633-.8944.8549-1.525 1.5828-.9803l.4856.3633c2.2381 1.6746 5.3485-.3522 4.7206-3.076z"/><g clip-rule="evenodd" fill-rule="evenodd"><path d="m29.6336 25.4755c.3158-.538.4675-1.1937.3669-1.9214l-.2942-2.1292c1.2498.1052 2.6641-.4184 3.7631-1.5174 1.7587-1.7586 2.0438-4.3248.6369-5.7317s-3.9731-1.1218-5.7317.6368c-1.6684 1.6684-2.0107 4.0637-.8401 5.5063l.4848 3.509c.0018.0127.0033.0254.0046.038zm.1552-9.2487c1.2884-1.2883 2.5556-.9845 2.9033-.6368s.6515 1.6149-.6369 2.9033c-1.2883 1.2884-2.5556.9845-2.9033.6368-.3477-.3476-.6515-1.6149.6369-2.9033z"/><path d="m43 24c0 10.4934-8.5066 19-19 19s-19-8.5066-19-19 8.5066-19 19-19 19 8.5066 19 19zm-7.707 12.7072c-3.0027 2.6705-6.9584 4.2928-11.293 4.2928-9.3888 0-17-7.6112-17-17 0-4.3346 1.62226-8.2903 4.2928-11.293zm1.4142-1.4142-24.0002-24.0002c3.0027-2.67054 6.9584-4.2928 11.293-4.2928 9.3888 0 17 7.6112 17 17 0 4.3346-1.6223 8.2903-4.2928 11.293z"/></g></g></svg>