<svg fill="none" height="48" viewBox="0 0 48 48" width="48" xmlns="http://www.w3.org/2000/svg"><g clip-rule="evenodd" fill="#333" fill-rule="evenodd"><path d="m12.822 33.9969c.0939.0034.2038.0056.3318.0056 1.0204 0 1.9658.2313 2.7655.7615.8019.5317 1.2951 1.2563 1.592 1.965.419 1.0001.4976 2.1218.5117 2.9313.1737.0475.4145.0994.7377.1461 1.3058.1889 3.1331.1936 5.2393.1936s3.9335-.0047 5.2393-.1936c.3232-.0467.564-.0986.7377-.1461.0141-.8096.0927-1.9312.5117-2.9313.2969-.7087.7901-1.4333 1.592-1.965.7997-.5302 1.7451-.7615 2.7655-.7615.128 0 .2379-.0022.3318-.0056.0005-.0912-.0003-.194-.0023-.3104-.0028-.1709-.0088-.3796-.0155-.6165-.0142-.4987-.032-1.1222-.032-1.7798 0-2.1492.7898-3.3932 1.3651-4.2995.1208-.1903.2322-.3657.3248-.5314.5077-.9088 1.1819-2.4765 1.1819-6.7357 0-3.9154-1.6801-6.7714-4.2126-8.7022-2.588-1.97321-6.1383-3.0214-9.7874-3.0214s-7.1994 1.04819-9.7874 3.0214c-2.5325 1.9308-4.21262 4.7868-4.2126 8.7022 0 4.2592.6742 5.8269 1.1819 6.7357.0926.1657.204.3411.3248.5314.5753.9063 1.3651 2.1503 1.3651 4.2995 0 .6576-.0178 1.2811-.032 1.7798-.0067.2369-.0127.4457-.0155.6165-.002.1164-.0028.2192-.0023.3104zm-1.98-1.0386c-.0705 2.446-.0878 3.0442 2.3118 3.0442 2.8718 0 2.8718 2.5704 2.8718 4.2839 0 1.7136 3.8719 1.7136 7.9744 1.7136s7.9744 0 7.9744-1.7136c0-1.7135 0-4.2839 2.8718-4.2839 2.3996 0 2.3823-.5982 2.3118-3.0442-.0139-.4813-.0298-1.0342-.0298-1.6681 0-1.5254.4496-2.2461.9929-3.1173.83-1.3307 1.8789-3.0123 1.8789-8.4493.0001-18.29814-32.00009-18.29814-32 0 .00003 5.437 1.04892 7.1186 1.8789 8.4493.5433.8712.9929 1.5919.9929 3.1173 0 .6339-.0159 1.1868-.0298 1.6681z"/><path d="m35.0044 27.9922c.0022 2.7615-2.0108 5.0018-4.4961 5.0039-2.4853.0022-4.5017-2.2347-4.5039-4.9961s2.0108-5.0017 4.4961-5.0039c2.4853-.0021 4.5017 2.2347 4.5039 4.9961zm-2 .0018c.0015 1.8602-1.3099 3.0011-2.4977 3.0021-1.1877.001-2.5008-1.1376-2.5023-2.9978-.0015-1.8603 1.3099-3.0012 2.4977-3.0022 1.1877-.001 2.5008 1.1376 2.5023 2.9979z"/><path d="m22.0011 28c.0003 2.7614-2.0142 5-4.4995 5s-4.5002-2.2386-4.5005-5c-.0004-2.7614 2.0141-5 4.4994-5s4.5002 2.2386 4.5006 5zm-2 0c.0002 1.8603-1.312 3-2.4997 3s-2.5001-1.1397-2.5003-3c-.0003-1.8603 1.3119-3 2.4996-3s2.5001 1.1397 2.5004 3z"/><path d="m23.9701 33.0084c.0119-.0056.0182-.0084.0182-.0084s.0061.0026.0178.0078c.2471.1092 2.9822 1.3612 2.9822 3.2681 0 .8303-.5795 1.6046-1.3993 1.7115-.0634.0083-.1283.0126-.1945.0126-.6392 0-1.1134-.3722-1.4062-.9002-.2928.528-.7671.9002-1.4063.9002-.0661 0-.131-.0043-.1944-.0126-.8199-.1069-1.3993-.8813-1.3993-1.7115 0-1.8273 2.7321-3.1504 2.9818-3.2675zm-1.7423 3.1402c-.0007.001-.001.0014-.001.0014zm3.5209 0c.0008.0009.0011.0014.0011.0014z"/></g></svg>