<svg fill="none" height="48" viewBox="0 0 48 48" width="48" xmlns="http://www.w3.org/2000/svg"><g clip-rule="evenodd" fill="#333" fill-rule="evenodd"><path d="m10 10c0-1.10457.8954-2 2-2h18c1.1046 0 2 .89543 2 2v14.0549c.6935.0767 1.3632.2321 2 .4572v-14.5121c0-2.20914-1.7909-4-4-4h-18c-2.20914 0-4 1.79086-4 4v24c0 2.2091 1.79086 4 4 4h11.5155c-.413-.617-.7517-1.2879-1.0034-2h-10.5121c-1.1046 0-2-.8954-2-2z"/><path d="m12 14c0-.5523.4477-1 1-1h16c.5523 0 1 .4477 1 1s-.4477 1-1 1h-16c-.5523 0-1-.4477-1-1zm0 5c0-.5523.4477-1 1-1h16c.5523 0 1 .4477 1 1s-.4477 1-1 1h-16c-.5523 0-1-.4477-1-1zm1 4c-.5523 0-1 .4477-1 1s.4477 1 1 1h8c.5523 0 1-.4477 1-1s-.4477-1-1-1zm-1 6c0-.5523.4477-1 1-1h5c.5523 0 1 .4477 1 1s-.4477 1-1 1h-5c-.5523 0-1-.4477-1-1z"/><path d="m31 40c3.866 0 7-3.134 7-7s-3.134-7-7-7-7 3.134-7 7 3.134 7 7 7zm0 2c4.9706 0 9-4.0294 9-9s-4.0294-9-9-9-9 4.0294-9 9 4.0294 9 9 9z"/><path d="m34.9973 29.0278c-.3905-.3906-1.0237-.3906-1.4142 0l-.791.7909 1.4142 1.4142.791-.7909c.3905-.3905.3905-1.0237 0-1.4142zm-1.4981 2.9122-1.4142-1.4142-5.0689 5.0688.0001 1.4143h1.4142z"/></g></svg>