<svg fill="none" height="48" viewBox="0 0 48 48" width="48" xmlns="http://www.w3.org/2000/svg"><g clip-rule="evenodd" fill="#333" fill-rule="evenodd"><path d="m33 44c3.866 0 7-3.134 7-7s-3.134-7-7-7-7 3.134-7 7 3.134 7 7 7zm0 2c4.9706 0 9-4.0294 9-9s-4.0294-9-9-9-9 4.0294-9 9 4.0294 9 9 9z"/><path d="m34 6h-20c-1.1046 0-2 .89543-2 2v30c0 1.1046.8954 2 2 2h12.6736c.3561.7496.8415 1.4259 1.4274 2h-14.101c-2.2091 0-4-1.7909-4-4v-30c0-2.20914 1.7909-4 4-4h20c2.2091 0 4 1.79086 4 4v24.101c-.5741-.5859-1.2504-1.0713-2-1.4274v-22.6736c0-1.10457-.8954-2-2-2zm-20 6c0-.5523.4477-1 1-1h18c.5523 0 1 .4477 1 1s-.4477 1-1 1h-18c-.5523 0-1-.4477-1-1zm1 3c-.5523 0-1 .4477-1 1s.4477 1 1 1h18c.5523 0 1-.4477 1-1s-.4477-1-1-1zm-1 9c0-.5523.4477-1 1-1h18c.5523 0 1 .4477 1 1s-.4477 1-1 1h-18c-.5523 0-1-.4477-1-1zm1-5c-.5523 0-1 .4477-1 1s.4477 1 1 1h18c.5523 0 1-.4477 1-1s-.4477-1-1-1zm-1 9c0-.5523.4477-1 1-1h9c.5523 0 1 .4477 1 1s-.4477 1-1 1h-9c-.5523 0-1-.4477-1-1z"/><path d="m36.9973 33.0278c-.3905-.3906-1.0237-.3906-1.4142-.0001l-.791.791 1.4142 1.4142.791-.7909c.3905-.3906.3905-1.0237 0-1.4142zm-1.4981 2.9122-1.4142-1.4142-5.0689 5.0688.0001 1.4143h1.4142z"/></g></svg>