<svg fill="none" height="48" viewBox="0 0 48 48" width="48" xmlns="http://www.w3.org/2000/svg"><g fill="#333"><path d="m24.9589 15.3012 9.329 5.9052-1.7397 1.2658-8.6227-5.4581-8.5395 5.4559-1.7282-1.2692 9.2271-5.8951c.6353-.406 1.437-.4077 2.074-.0045z"/><path clip-rule="evenodd" d="m6.83537 20.9127c-1.15791-.8504-1.10227-2.6487.10583-3.4206l15.9437-10.18645c.6353-.40593 1.437-.40765 2.074-.00445l16.0929 10.1868c1.2174.7706 1.2732 2.5807.1057 3.4302l-16.0924 11.7088c-.6862.4992-1.6015.4972-2.2856-.0052zm1.18262-1.7352 15.90751-10.1634 16.0566 10.1638c.0048.003.0055.0042.0047.0033-.0005-.0005.0001 0 .0016.0027.0037.0068.0107.0246.0115.0512.0008.0267-.005.0459-.009.0545-.0017.0036-.0029.0051-.0031.0054 0 0-.0015.002-.0069.0059l-16.0549 11.6815-15.9068-11.6817c-.0052-.0039-.00679-.0059-.00693-.0061-.00031-.0004-.0015-.0019-.00321-.0056-.00404-.0087-.0098-.0278-.00898-.0542.00081-.0265.0077-.0441.01143-.051.00152-.0028.00221-.0034.00176-.0029-.0007.0008.00006-.0004.00472-.0034z" fill-rule="evenodd"/><path d="m8.23713 24.6641 1.72823 1.2692-1.94737 1.2442c-.0028.0018-.00419.0029-.00471.0034-.00024.0003-.00086.0012-.00177.0029-.00373.0069-.01062.0245-.01143.051-.00082.0264.00494.0455.00898.0542.00076.0017.00142.0029.00195.0038.00064.001.00108.0016.00125.0018.00014.0002.00174.0022.00694.0061l15.9068 11.6817 16.0549-11.6815c.0054-.0039.0069-.0059.0069-.0059.0001-.0002.0006-.0007.0012-.0018.0005-.0008.0011-.002.0019-.0036.004-.0086.0098-.0278.009-.0545-.0008-.0266-.0078-.0444-.0115-.0512l-.0016-.0027c-.0001-.0002-.0002-.0002 0 0-.0005-.0005-.002-.0016-.0047-.0033l-1.9803-1.2536 1.7397-1.2658 1.3103.8295c1.2174.7706 1.2732 2.5807.1057 3.4302l-16.0924 11.7088c-.6862.4992-1.6015.4972-2.2856-.0052l-15.94413-11.7091c-1.15791-.8504-1.10227-2.6487.10583-3.4206z"/></g></svg>