<svg fill="none" height="48" viewBox="0 0 48 48" width="48" xmlns="http://www.w3.org/2000/svg"><g fill="#333"><path clip-rule="evenodd" d="m41.9753 20.6815c-.0006-.729-.592-1.3195-1.321-1.3189l-16.9257.0138c-2.2358.0019-2.7893-3.1081-.6901-3.8777l2.2851-.8379c.8351-.3061 1.0746-1.3728.4507-2.0067-.3358-.3412-.8399-.4552-1.2898-.2916l-11.9805 4.3556c-3.91965 1.425-6.52772 5.1515-6.5243 9.3221.00448 5.4734 4.4452 9.9069 9.9186 9.9024l11.0635-.0091c.5522-.0004.9996-.4485.9991-1.0008l-.0005-.6399c-.0004-.5523-.4485-.9997-1.0008-.9992l-3.7359.003-.0017-2 7.1068-.0058c.5523-.0004.9996-.4485.9992-1.0008l-.0006-.6399c-.0004-.5523-.4485-.9997-1.0008-.9992l-4.827.004-.0016-2 5.5828-.0046c.5523-.0005.9996-.4486.9992-1.0008l-.0005-.64c-.0005-.5523-.4486-.9996-1.0009-.9991l-5.5828.0045-.0016-2 15.1622-.0124c.729-.0006 1.3195-.592 1.3189-1.321zm-8.0674 3.3265 6.7502-.0055c1.8335-.0015 3.3187-1.4891 3.3172-3.3227-.0015-1.8335-1.4891-3.3187-3.3227-3.3172l-16.9256.0138 2.2851-.8378c2.2002-.8067 2.8315-3.6173 1.1876-5.2875-.8849-.899-2.213-1.1992-3.3986-.7682l-11.9804 4.3555c-4.71071 1.7126-7.84511 6.1911-7.841 11.2035.00538 6.5779 5.34225 11.9061 11.9202 11.9007l11.0635-.0091c1.6568-.0013 2.9989-1.3456 2.9975-3.0024l-.0005-.64c-.0003-.3506-.0607-.6871-.1715-.9998l.5415-.0005c1.6569-.0013 2.9989-1.3456 2.9976-3.0024l-.0006-.64c-.0004-.5843-.168-1.1295-.4574-1.5905.735-.5473 1.2108-1.4232 1.21-2.4101l-.0005-.6399c-.0003-.3506-.0608-.6872-.1716-.9999z" fill-rule="evenodd"/><path d="m40.9835 30.5648c.0013 1.6-1.3177 2.8582-2.9977 2.8596s-3.001-1.2547-3.0023-2.8547c-.0014-1.6 2.9957-5.1453 2.9957-5.1453s3.003 3.6547 3.0043 5.1404z"/><path d="m39.9763 21.9229c.0007.8284-.8942 1.5007-1.9987 1.5016-1.1046.0009-2.0006-.6699-2.0013-1.4984-.0007-.8284.8942-1.5007 1.9988-1.5016s2.0005.6699 2.0012 1.4984z"/></g></svg>