<svg fill="none" height="48" viewBox="0 0 48 48" width="48" xmlns="http://www.w3.org/2000/svg"><g fill="#333"><g clip-rule="evenodd" fill-rule="evenodd"><path d="m32.9558 8.19629-18 .01474.0148 17.99997 17.9999-.0147zm-8.9888 13.67411c2.24-.0019 3.9986-1.6795 3.9969-3.8128-.0016-1.981-4.0056-6.8539-4.0056-6.8539s-3.9962 4.7271-3.9944 6.8604c.0017 2.1333 1.7631 3.8081 4.0031 3.8063z"/><path d="m15.9845 28.9868c-.0005-.5523.4469-1.0004.9991-1.0008l4-.0033c.5523-.0004 1.0004.4469 1.0009.9992.0004.5523-.4469 1.0004-.9992 1.0008l-4 .0033c-.5523.0004-1.0004-.4469-1.0008-.9992z"/><path d="m25.9845 28.9788c-.0005-.5523.4469-1.0004.9991-1.0009l4-.0032c.5523-.0005 1.0004.4469 1.0009.9991.0004.5523-.4469 1.0004-.9992 1.0009l-4 .0032c-.5523.0005-1.0004-.4469-1.0008-.9991z"/><path d="m12.9543 6.2126 22-.01802c.5522-.00045 1.0003.4469 1.0008.99918l.0204 25.00004c.0005.5522-.4468 1.0003-.9991 1.0008l-6 .0049.0016 2 6-.0049c1.6569-.0014 2.9989-1.3456 2.9975-3.0025l-.0204-24.99998c-.0014-1.65685-1.3456-2.9989-3.0025-2.99754l-22 .01802c-1.6568.00136-2.99888 1.3456-2.99752 3.00246l.02048 24.99994c.00135 1.6569 1.34564 2.9989 3.00244 2.9976l6-.0049-.0016-2-6 .0049c-.5523.0004-1.0004-.4469-1.0008-.9992l-.0205-24.99998c-.0005-.55229.4469-1.00037.9992-1.00082z"/><path d="m27.9762 33.2003-8 .0066.0074 9 8-.0066zm-10.0016-1.9918.0107 13 12-.0098-.0107-13z"/></g><path d="m25.9804 38.202c.0009 1.1046-.8938 2.0008-1.9984 2.0017-1.1045.0009-2.0007-.8938-2.0016-1.9984-.0009-1.1045.8938-2.0007 1.9984-2.0016 1.1045-.0009 2.0007.8938 2.0016 1.9983z"/></g></svg>