<svg fill="none" height="48" viewBox="0 0 48 48" width="48" xmlns="http://www.w3.org/2000/svg"><path d="m31.5 42h2.1003 3.0002l2.2558-9.0251-2.2558-10.0251c.9113.7531 1.6707 1.2599 2.897 3.2786.4851.8039 1.4345.2138 2.1039.0055.4106-.3086.5231-.9198.2475-1.3766l-1.1026-1.815c-1.5863-2.6114-4.2358-4.1671-7.0934-4.1671h-13.253l-4.5677-5.0128c-2.8322-.4506-2.7492-5.0356-5.1978-7.71647-.2025-.22224-.54-.1852-.69749.07408-.69191 1.14825-.5794 5.71629.34309 6.72879.1857.2037.4107.3271.6357.463-.1238.1049-.2644.1913-.36.3333l-4.19645 6.1302c-.41064.5988-.47252 1.4014-.16876 2.0681l.80441 1.7656c.30377.6667.92817 1.0927 1.60882 1.0927h1.74378c.4782 0 .9338-.2099 1.2714-.5803l2.3811-3.3047 2.7997 7.836 1 6.707-1 4.707s-1.7997-.6667-1.7997 1.8333h1.7997 3.1717s.4944-1.2978.4285-3c-.108-2.7865-.6523-6.6565.5715-7.6901 2.1865 2.4234 4.5286 2.1901 6.8802.6901 1.2034-.333 4.1589-3.3803 4.7487-1.6901.5898 1.6901 2.5469 1.525 2.434 2.665 1.5662 4.0251-1.3344 5.4548-1.8442 7.1918m-1.6901 1.8333c0-2.3949 1.5076-1.7361 1.6759-1.818m-1.6759 1.818 1.6759-1.818m.0142-.0153c-.002.0067-.0068.0118-.0142.0153m.0142-.0153-.0142.0153" stroke="#333" stroke-linecap="round" stroke-linejoin="round" stroke-width="2"/></svg>