<svg fill="none" height="48" viewBox="0 0 48 48" width="48" xmlns="http://www.w3.org/2000/svg"><g fill="#333"><path clip-rule="evenodd" d="m32 13.8439v13.3543c0 1.4509-.5478 2.6006-1.4487 3.3624-.8792.7433-2.0135 1.0501-3.0983 1.0047-1.2544-.0525-2.5643-.5968-3.4441-1.6135-.227 1.8311.427 3.0475.7244 3.3683l.6799.7334-1.4667 1.3597-.6798-.7333c-.8136-.8775-1.6877-2.9472-1.1285-5.6494-.8645.1819-1.7718.1796-2.5954.0051-.8967-.1899-1.7784-.5986-2.4469-1.2853-.6843-.703-1.0959-1.6496-1.0959-2.7918 0-1.6438.5875-2.8318 1.6358-3.6995.9707-.8034 2.287-1.2846 3.6188-1.7156.3123-.1011.6314-.2013.9562-.3032 2.5387-.797 5.4244-1.703 8.1433-4.0036zm-7.0388 13.2918c.4209-.7719.9998-1.5976 1.7821-2.4667l.6689-.7433-1.4866-1.338-.6689.7433c-.9904 1.1005-1.7132 2.1693-2.225 3.1851-.7513.5523-1.9617.7986-3.0745.5629-.6033-.1278-1.0966-.3831-1.4281-.7237-.3157-.3242-.5291-.7682-.5291-1.3968 0-1.0854.35-1.6943.9111-2.1588.6386-.5286 1.6036-.9147 2.9593-1.3535.2956-.0956.6051-.1923.9267-.2928 2.0788-.6493 4.659-1.4552 7.2029-3.1518v9.1966c0 .915-.3272 1.486-.7401 1.8351-.4346.3675-1.0529.5618-1.7233.5337-1.3278-.0555-2.5097-.9236-2.5754-2.4313z" fill-rule="evenodd"/><path clip-rule="evenodd" d="m24 41c-.435.9004-.4353.9003-.4357.9001l-.0012-.0006-.0035-.0017-.012-.0058-.043-.0212c-.0371-.0184-.0907-.0452-.1598-.0803-.1382-.0702-.3382-.1737-.5913-.3096-.5061-.2718-1.225-.6734-2.086-1.1976-1.7199-1.0471-4.0174-2.5898-6.3197-4.5705-4.56421-3.9267-9.3478-9.75-9.3478-16.9887 0-3.2532 1.07675-6.4041 2.92147-8.75978 1.84946-2.36174 4.51093-3.96432 7.64103-3.96432 3.7169 0 6.5384 2.10708 8.4375 5.0778 1.899-2.97058 4.7205-5.0778 8.4375-5.0778 3.1304 0 5.7919 1.60286 7.6413 3.96473 1.8446 2.35577 2.9212 5.50667 2.9212 8.75937 0 6.9641-4.7919 12.7883-9.3411 16.7728-2.2989 2.0136-4.5931 3.6076-6.3105 4.6977-.8597.5458-1.5775.9668-2.0825 1.2526-.2525.1429-.4521.2521-.5898.3262-.0688.0371-.1222.0654-.159.0847l-.0427.0224-.0118.0061-.0046.0024c-.0004.0002-.0007.0003-.458-.889zm-14.50389-29.8026c-1.55489 1.9856-2.49611 4.6968-2.49611 7.5267 0 6.3417 4.2164 11.6564 8.6522 15.4725 2.1977 1.8907 4.4002 3.3707 6.0553 4.3784.8265.5032 1.5138.887 1.9921 1.1438.1064.0571.2023.1079.2872.1524.0866-.0479.1849-.1028.2942-.1646.4793-.2713 1.1678-.6751 1.9956-1.2005 1.6576-1.0522 3.8634-2.5858 6.0645-4.5137 4.4508-3.8983 8.6589-9.212 8.6589-15.2683 0-2.8294-.9411-5.5407-2.4959-7.5264-1.5501-1.9796-3.6698-3.1977-6.0666-3.1977-3.3139 0-5.8791 2.1674-7.5392 5.5606l-.8983 1.8359-.8982-1.8359c-1.6604-3.3934-4.2255-5.5606-7.5393-5.5606-2.3965 0-4.5162 1.21789-6.06639 3.1974z" fill-rule="evenodd"/><path d="m24 41 .458.889-.4441.2283-.4496-.2172z"/></g></svg>