<svg fill="none" height="48" viewBox="0 0 48 48" width="48" xmlns="http://www.w3.org/2000/svg"><g fill="#333"><path d="m25 12-6 9h4v6l6-9h-4z"/><path clip-rule="evenodd" d="m37.9094 19.2725c-.2995 2.5671-1.3332 4.9992-2.9821 7.016-.9625 1.1743-3.4076 4.5308-3.9273 6.7115h-14c-.5197-2.1824-2.9676-5.5389-3.9301-6.7149-1.6482-2.0173-2.6811-4.4497-2.9798-7.017-.29873-2.5673.149-5.165 1.2915-7.4939 1.1424-2.32889 2.9333-4.29425 5.1661-5.66967 2.2329-1.37542 4.8169-2.10494 7.4545-2.10453s5.2215.73075 7.4539 2.10687 4.0226 3.34204 5.1643 5.67133c1.1417 2.3292 1.5886 4.9271 1.289 7.4943zm-8.3257 11.7275h-11.1673c-.4263-.9835-.9958-1.968-1.5258-2.8049-.8433-1.3316-1.7434-2.5295-2.2719-3.1754-1.4085-1.724-2.2879-3.7981-2.542-5.9827-.2542-2.1845.1263-4.3963 1.1004-6.3819.9743-1.986 2.5045-3.66803 4.4196-4.84772 1.9154-1.17991 4.1359-1.80774 6.4052-1.80738 2.2694.00036 4.4896.62888 6.4047 1.80939 1.9147 1.18029 3.4443 2.86271 4.4179 4.84901.9735 1.9859 1.3533 4.1979 1.0984 6.3823-.2549 2.1843-1.1347 4.258-2.5436 5.9814-.5295.6463-1.4292 1.8442-2.2716 3.1751-.5294.8365-1.0981 1.8203-1.524 2.8028z" fill-rule="evenodd"/><path d="m17 36c0-.5523.4477-1 1-1h12c.5523 0 1 .4477 1 1s-.4477 1-1 1h-12c-.5523 0-1-.4477-1-1z"/><path clip-rule="evenodd" d="m17 39h14v3c0 1.1046-.8954 2-2 2h-10c-1.1046 0-2-.8954-2-2zm2 2h10v1h-10z" fill-rule="evenodd"/></g></svg>