<svg fill="none" height="48" viewBox="0 0 48 48" width="48" xmlns="http://www.w3.org/2000/svg"><g fill="#333"><path clip-rule="evenodd" d="m23 6.77491v34.45029l11-3.6667v-27.1169zm-.6838-2.33611c-.6475-.21584-1.3162.26613-1.3162.94868v37.22512c0 .6826.6687 1.1646 1.3162.9487l13-4.3333c.4084-.1361.6838-.5183.6838-.9487v-28.55848c0-.43043-.2754-.81257-.6838-.94868z" fill-rule="evenodd"/><path d="m27 23.0001c0 1.1045-.4477 2-1 2s-1-.8955-1-2c0-1.1046.4477-2 1-2s1 .8954 1 2z"/><path clip-rule="evenodd" d="m21 8.00006h-9v31.00004h9v-2h-7v-27h7z" fill-rule="evenodd"/></g></svg>