<svg fill="none" height="48" viewBox="0 0 48 48" width="48" xmlns="http://www.w3.org/2000/svg"><path clip-rule="evenodd" d="m15 8c0-1.10457.8059-2 1.8-2h23.4c.9941 0 1.8.89543 1.8 2v32c0 1.1046-.8059 2-1.8 2h-23.4c-.9941 0-1.8-.8954-1.8-2v-6h-7.2c-.99411 0-1.8-.8954-1.8-2v-16c0-1.1046.80589-2 1.8-2h7.2zm13 6v-6h-11v6zm2-6v6h10v-6zm-2 8h-4v7h4zm2 7v-7h10v7zm-2 2h-4v7h4zm2 7v-7h10v7zm-2 2h-11v6h11zm2 6v-6h10v6zm-8-24v16h-14.2v-16zm-10.7742 3h2.1474l1.7424 3.754 1.8414-3.754h2.0061l-2.7639 5 2.8269 5h-2.1159l-1.899-3.93-1.8909 3.93h-2.1474l2.8737-5.018z" fill="#333" fill-rule="evenodd"/></svg>