<svg fill="none" height="48" viewBox="0 0 48 48" width="48" xmlns="http://www.w3.org/2000/svg"><path clip-rule="evenodd" d="m31 14c0-.5523.4477-1 1-1h4c.5523 0 1 .4477 1 1v2h3c.5523 0 1 .4477 1 1v6h3v2h-3v6c0 .5523-.4477 1-1 1h-3v2c0 .5523-.4477 1-1 1h-4c-.5523 0-1-.4477-1-1v-9h-14v9c0 .5523-.4477 1-1 1h-4c-.5523 0-1-.4477-1-1v-2h-3c-.55228 0-1-.4477-1-1v-6h-3v-2h3v-6c0-.5523.44772-1 1-1h3v-2c0-.5523.4477-1 1-1h4c.5523 0 1 .4477 1 1v9h14zm-18 19h2v-18h-2zm-2-15h-2v12h2zm26 12v-12h2v12zm-2-15v18h-2v-18z" fill="#333" fill-rule="evenodd"/></svg>