<svg fill="none" height="48" viewBox="0 0 48 48" width="48" xmlns="http://www.w3.org/2000/svg"><path clip-rule="evenodd" d="m15.5168 11.5352c2.2509-2.26426 5.3025-3.5352 8.4832-3.5352s6.2323 1.27094 8.4832 3.5352c2.2511 2.2644 3.5168 5.3368 3.5168 8.5417 0 5.5266-3.0639 10.5278-6.2565 14.2211-1.5843 1.8327-3.1712 3.3095-4.3621 4.3278-.566.4839-1.0409.8629-1.3814 1.1259-.3405-.263-.8154-.642-1.3814-1.1259-1.1909-1.0183-2.7778-2.4951-4.3621-4.3278-3.1926-3.6933-6.2565-8.6945-6.2565-14.2211 0-3.2049 1.2657-6.2773 3.5168-8.5417zm7.9068 30.282c.0004.0002.0007.0004.5764-.8172.5757.8176.576.8174.5764.8172-.3453.2431-.8075.2431-1.1528 0zm0 0 .5764-.8172.5764.8172.0036-.0026.0091-.0064.0318-.0228c.0273-.0196.0666-.048.117-.085.1008-.0741.2463-.1826.4302-.3239.3676-.2827.889-.6971 1.513-1.2306 1.2466-1.0659 2.9097-2.6131 4.5754-4.54 3.3074-3.826 6.7435-9.2864 6.7435-15.529 0-3.7315-1.4736-7.3114-4.0984-9.9518-2.6251-2.64056-6.1867-4.1251-9.9016-4.1251s-7.2765 1.48454-9.9016 4.1251c-2.6248 2.6404-4.0984 6.2203-4.0984 9.9518 0 6.2426 3.4361 11.703 6.7435 15.529 1.6657 1.9269 3.3288 3.4741 4.5754 4.54.624.5335 1.1454.9479 1.513 1.2306.1839.1413.3294.2498.4302.3239.0504.037.0897.0654.117.085l.0318.0228.0091.0064zm-3.4236-21.8172c0-2.2091 1.7909-4 4-4s4 1.7909 4 4-1.7909 4-4 4-4-1.7909-4-4zm4-6c-3.3137 0-6 2.6863-6 6s2.6863 6 6 6 6-2.6863 6-6-2.6863-6-6-6z" fill="#333" fill-rule="evenodd"/></svg>