<svg fill="none" height="48" viewBox="0 0 48 48" width="48" xmlns="http://www.w3.org/2000/svg"><g clip-rule="evenodd" fill="#333" fill-rule="evenodd"><path d="m31.9154 37.4402-4.2148-7.44c-.4399.3387-.9305.6184-1.4592.8267-.6916.2723-1.4481.4224-2.2409.4224-.793 0-1.5496-.1501-2.2413-.4226-.5286-.2082-1.0192-.4879-1.459-.8267l-4.2158 7.4402c-.0859.151-.1072.3285-.0593.4945.0477.166.161.3073.3152.3935 4.667 2.61 10.6535 2.61 15.3178 0 .1548-.0858.2685-.227.3166-.3931.0482-.1661.0269-.3438-.0593-.4949zm-10.8483-4.7367-2.5365 4.4764c3.44 1.4746 7.5007 1.4743 10.9385-.0003l-2.5356-4.4759c-.9096.3525-1.9.5456-2.933.5456-1.0332 0-2.0237-.1931-2.9334-.5458z"/><path d="m8.59885 24.063 8.55065.0699c-.0734-.5503-.0703-1.1151.0137-1.677.1099-.7351.3582-1.4653.7546-2.1519.3965-.6867.9048-1.267 1.4866-1.7297.4447-.3537.9322-.6387 1.4455-.8502l-4.3355-7.3712c-.0878-.1498-.2309-.2571-.3986-.2985-.1676-.0417-.3466-.0143-.4984.0762-4.5938 2.7367-7.58705 7.9212-7.65893 13.2656-.00306.177.06236.3461.18218.4708.11969.1247.28428.1952.4582.196zm9.52635-7.0266-2.6085-4.4347c-2.997 2.2417-5.0272 5.7586-5.469 9.4731l5.1441.0421c.1495-.964.4774-1.9183.994-2.8129.5165-.8948 1.1791-1.656 1.9394-2.2676z"/><path d="m31.4857 10.496-4.3358 7.3701c.5133.2116 1.0008.4967 1.4455.8504.5816.4627 1.0899 1.0429 1.4863 1.7295.3965.6867.6448 1.4171.7547 2.1523.0839.5619.087 1.1266.0135 1.6769l8.5514-.0691c.1736-.0011.3381-.0714.4578-.1959.1199-.1244.1857-.2931.1832-.4698-.0732-5.3466-3.0664-10.5311-7.6589-13.2656-.1517-.0911-.3309-.119-.4988-.0776-.1679.0413-.3112.1486-.3989.2988zm1.3221 11.7633 5.1448-.0416c-.4429-3.7164-2.4735-7.2329-5.4695-9.4728l-2.6084 4.4338c.7601.6115 1.4225 1.3726 1.939 2.2673.5166.8947.8446 1.8491.9941 2.8133z"/><path d="m24 26.9999c1.6568 0 3-1.3432 3-3 0-1.6569-1.3432-3-3-3s-3 1.3431-3 3c0 1.6568 1.3432 3 3 3zm0 2c2.7614 0 5-2.2386 5-5s-2.2386-5-5-5-5 2.2386-5 5 2.2386 5 5 5z"/><path d="m24 42c9.9411 0 18-8.0589 18-18s-8.0589-18-18-18-18 8.0589-18 18 8.0589 18 18 18zm0 2c11.0457 0 20-8.9543 20-20s-8.9543-20-20-20-20 8.9543-20 20 8.9543 20 20 20z"/></g></svg>