<svg fill="none" height="48" viewBox="0 0 48 48" width="48" xmlns="http://www.w3.org/2000/svg"><path clip-rule="evenodd" d="m20 4c-1.6569 0-3 1.34315-3 3h-3c-1.6569 0-3 1.34315-3 3v28c0 1.6569 1.3431 3 3 3h12v-2h-12c-.5523 0-1-.4477-1-1v-28c0-.55228.4477-1 1-1h3c0 1.6569 1.3431 3 3 3h8c1.6569 0 3-1.3431 3-3h3c.5523 0 1 .44772 1 1v15h2v-15c0-1.65685-1.3431-3-3-3h-3c0-1.65685-1.3431-3-3-3zm-1 3c0-.55228.4477-1 1-1h8c.5523 0 1 .44772 1 1v2c0 .55228-.4477 1-1 1h-8c-.5523 0-1-.44772-1-1zm4 12v-3h2v3h3v2h-3v3h-2v-3h-3v-2zm4 9c0-.5523.4477-1 1-1h12c.5523 0 1 .4477 1 1v6.7889c0 2.3405-1.1697 4.5261-3.1171 5.8244l-3.3282 2.2188c-.3359.2239-.7735.2239-1.1094 0l-3.3282-2.2188c-1.9474-1.2983-3.1171-3.4839-3.1171-5.8244zm2 1v5.7889c0 1.6718.8355 3.2329 2.2265 4.1603l2.7735 1.8489 2.7735-1.8489c1.391-.9274 2.2265-2.4885 2.2265-4.1603v-5.7889zm4.7071 7.7072 4-4-1.4143-1.4142-3.2928 3.2929-1.2929-1.2929-1.4143 1.4142 2 2c.3906.3905 1.0237.3905 1.4143 0z" fill="#333" fill-rule="evenodd"/></svg>