<svg fill="none" height="48" viewBox="0 0 48 48" width="48" xmlns="http://www.w3.org/2000/svg"><g fill="#333"><g clip-rule="evenodd" fill-rule="evenodd"><path d="m18 7h-4c-2.2091 0-4 1.79086-4 4v28c0 2.2091 1.7909 4 4 4h20c2.2091 0 4-1.7909 4-4v-28c0-2.20914-1.7909-4-4-4h-4v2h4c1.1046 0 2 .89543 2 2v28c0 1.1046-.8954 2-2 2h-20c-1.1046 0-2-.8954-2-2v-28c0-1.10457.8954-2 2-2h4z"/><path d="m17 7c0-1.65685 1.3431-3 3-3h8c1.6569 0 3 1.34315 3 3v2c0 1.6569-1.3431 3-3 3h-8c-1.6569 0-3-1.3431-3-3zm3-1c-.5523 0-1 .44772-1 1v2c0 .55228.4477 1 1 1h8c.5523 0 1-.44772 1-1v-2c0-.55228-.4477-1-1-1z"/><path d="m15 21c0-.5523.4477-1 1-1h7c.5523 0 1 .4477 1 1s-.4477 1-1 1h-7c-.5523 0-1-.4477-1-1z"/><path d="m15 16c0-.5523.4477-1 1-1h15.5c.5523 0 1 .4477 1 1s-.4477 1-1 1h-15.5c-.5523 0-1-.4477-1-1z"/></g><path d="m27.6961 22c-.919 0-1.671.7385-1.671 1.641 0 .9026.752 1.6411 1.671 1.6411s1.671-.7385 1.671-1.6411c0-.9025-.752-1.641-1.671-1.641z"/><path d="m25.5898 27.6565h-4.7543c-.4595 0-.8355-.3692-.8355-.8205s.376-.8205.8355-.8205h13.329c.4595 0 .8355.3692.8355.8205s-.376.8205-.8355.8205h-4.7543l2.8846 9.8462c0 .4513-.3759.8205-.8355.8205-1.2939 0-2.1653-3.9727-2.5662-4.9231h-2.7862c-.4009.9504-1.2723 4.9231-2.5662 4.9231-.4595 0-.8355-.3692-.8355-.8205z"/><path clip-rule="evenodd" d="m17 32v2h2v-2zm-1-2c-.5523 0-1 .4477-1 1v4c0 .5523.4477 1 1 1h4c.5523 0 1-.4477 1-1v-4c0-.5523-.4477-1-1-1z" fill-rule="evenodd"/></g></svg>