<svg fill="none" height="48" viewBox="0 0 48 48" width="48" xmlns="http://www.w3.org/2000/svg"><g clip-rule="evenodd" fill="#333" fill-rule="evenodd"><path d="m13.8227 36.991c2.4483 2.2113 5.1303 4.037 8.1587 5.4766 1.6221.7711 3.546.7008 5.1011-.1863 2.6229-1.4962 4.9055-3.2969 7.1126-5.2903 4.6784-4.2256 7.4057-10.0412 7.5849-16.174l.2089-7.1511c.0243-.8324.0012-2.6659.0012-2.6659-1.0469-.1728-2.1054-.2995-3.1624-.4261-3.2696-.3915-6.5252-.78126-9.3822-2.52744l-2.0379-1.24554c-1.7473-1.06789-3.9894-1.0679-5.7366 0l-1.9515 1.19275c-3.2661 1.99619-7.2473 2.37453-11.10078 2.74073-.87289.0829-1.73922.1652-2.5892.2656 0 0-.02467 1.8445 0 2.6887l.20826 7.1283c.17918 6.1328 2.90644 11.9484 7.58492 16.174zm-5.80393-24.1891c.00076.3184.00362.6138.00989.8284l.20827 7.1283c.16277 5.5709 2.64007 10.8768 6.92627 14.7481 2.3116 2.0878 4.8326 3.8025 7.6769 5.1546 1.0335.4913 2.2667.4446 3.2514-.1172 2.4552-1.4005 4.6194-3.1013 6.763-5.0374 4.2863-3.8713 6.7635-9.1772 6.9263-14.7482l.2089-7.151c.0066-.2239.0095-.5381.0102-.8747-.4681-.0603-.9435-.1172-1.4295-.1754l-.0545-.0065c-1.0752-.1288-2.2024-.2646-3.3221-.4546-2.244-.3808-4.5917-.999-6.7913-2.34334l-2.0379-1.24553c-1.107-.67657-2.5436-.67657-3.6506 0l-1.9515 1.19275c-2.3186 1.41712-4.8799 2.08862-7.3466 2.48562-1.5298.2462-3.1775.4036-4.72122.5512-.2278.0217-.45334.0433-.67591.0649z"/><path d="m21.9988 32.9994.001-17.9995 4 .0002-.001 17.9995z"/><path d="m32.9998 25.9998h-18v-4h18z"/></g></svg>