<svg fill="none" height="48" viewBox="0 0 48 48" width="48" xmlns="http://www.w3.org/2000/svg"><g fill="#333"><path d="m27 37c0 1.6569-1.3431 3-3 3s-3-1.3431-3-3c0-1.6568 1.3431-3 3-3s3 1.3432 3 3z"/><g clip-rule="evenodd" fill-rule="evenodd"><path d="m28.4081 10.4272c-1.3756.2033-2.8258.4762-4.4081.8129-1.5823-.3366-3.0324-.6096-4.4081-.8128 1.245.4888 2.5105 1.0768 3.845 1.7213.3446.1664.5631.5159.5631.8985 0-.3826.2185-.7321.5631-.8985 1.3345-.6445 2.6-1.2325 3.845-1.7214zm-4.4081 24.9739c0 .5776-.4731.999-1 1.0072v.1964c-6.2687-1.061-10.6976-1.1274-17-.022v-23.5494c.69172-.1577 1.3564-.2965 2-.4171v-2.0328c-1.02593.1835-2.10001.4118-3.24341.6873-.4454.1073-.75659.5076-.75659.9657v25.5385c0 .6328.58268 1.1055 1.20425.9869 7.07555-1.3498 11.52505-1.27 18.60375.0154.0649.0118.1294.0171.1927.0165.0629.0005.1269-.0048.1913-.0165 7.0787-1.2854 11.5282-1.3653 18.6037-.0154.6216.1186 1.2043-.3541 1.2043-.9869v-25.5385c0-.4581-.3112-.8584-.7566-.9657-1.1434-.2755-2.2175-.5038-3.2434-.6873v2.0328c.6436.1205 1.3083.2594 2 .4171v23.5494c-6.3024-1.1054-10.7313-1.039-17 .022v-.1964c-.5269-.0082-1-.4296-1-1.0072z"/><path d="m9 10.5065v22.5487c.00104.0015.00329.005.00746.0083.01437.0115.03288.0166.05299.0129 5.33965-.9798 9.35205.2194 13.91485 2.329.0052.0024.0078.0029.0082.0029l.0015.0001c.0018-.0001.0065-.0011.0118-.0045.0014-.0008.0024-.0016.0032-.0023 0-.0001 0 .0002 0 0v-22.3535c-4.9792-2.4045-8.7339-3.88072-14-2.5416zm14 2.5416c0-.0001 0-.0001 0 0zm-14.52611-4.47139c6.01871-1.54108 10.34681.23204 15.39791 2.67139.6914.3339 1.1282 1.0341 1.1282 1.799v22.354c0 1.4871-1.5475 2.4284-2.8641 1.8197-4.3804-2.0253-7.949-3.0516-12.71451-2.1773-1.21099.2222-2.42139-.6781-2.42139-1.9883v-22.5632c0-.87952.58253-1.68706 1.47389-1.91529z"/><path d="m39 10.5065v22.5487c-.001.0015-.0033.005-.0075.0083-.0143.0115-.0328.0166-.0529.0129-5.3397-.9798-9.3521.2194-13.9149 2.329-.0052.0024-.0078.0029-.0082.0029l-.0015.0001c-.0018-.0001-.0065-.0011-.0118-.0045-.0014-.0008-.0024-.0021-.0032-.0028 0-.0002 0 .0002 0 0v-22.354c4.9792-2.4045 8.7339-3.87972 14-2.5406zm-14 2.5406c0-.0001 0-.0001 0 0zm14.5261-4.47039c-6.0187-1.54108-10.3468.23204-15.3979 2.67139-.6914.3339-1.1282 1.0351-1.1282 1.8v22.3535c0 1.4871 1.5475 2.4279 2.8641 1.8192 4.3804-2.0253 7.949-3.0516 12.7145-2.1773 1.211.2222 2.4214-.6781 2.4214-1.9883v-22.5632c0-.87952-.5825-1.68706-1.4739-1.91529z"/><path d="m32 14c.5523 0 1 .4477 1 1v8c0 .5523-.4477 1-1 1s-1-.4477-1-1v-8c0-.5523.4477-1 1-1z"/><path d="m32.5604 19.3396c-1.0308.2705-2.1112.7378-3.5822 1.5387-.4851.2641-1.0924.0849-1.3565-.4001-.2641-.4851-.0849-1.0924.4001-1.3564 1.5373-.837 2.7783-1.388 4.0311-1.7167 1.2599-.3306 2.4807-.4228 3.9609-.4024.5522.0076.9937.4615.9861 1.0137s-.4615.9937-1.0137.9861c-1.3771-.019-2.4022.0686-3.4258.3371z"/><path d="m11.5097 27.5c2.9162-.0284 4.535.2466 7.6324 1.4338l.7158-1.8675c-3.3204-1.2727-5.1882-1.5971-8.3676-1.5662z"/><path d="m11.5097 22.5c2.9162-.0284 4.535.2466 7.6324 1.4338l.7158-1.8675c-3.3204-1.2727-5.1882-1.5971-8.3676-1.5662z"/><path d="m11.5097 17.5c2.9162-.0284 4.535.2466 7.6324 1.4338l.7158-1.8675c-3.3204-1.2727-5.1882-1.5971-8.3676-1.5662z"/></g></g></svg>