<svg fill="none" height="48" viewBox="0 0 48 48" width="48" xmlns="http://www.w3.org/2000/svg"><g clip-rule="evenodd" fill="#333" fill-rule="evenodd"><path d="m13 9c-.5523 0-1 .44772-1 1v31c0 .5523.4477 1 1 1h22c.5523 0 1-.4477 1-1v-31c0-.55228-.4477-1-1-1h-5.5833v-2h5.5833c1.6569 0 3 1.34314 3 3v31c0 1.6569-1.3431 3-3 3h-22c-1.6569 0-3-1.3431-3-3v-31c0-1.65685 1.3431-3 3-3h5.5833v2z"/><path d="m17 7c0-1.65685 1.3431-3 3-3h8c1.6569 0 3 1.34315 3 3v2c0 1.6569-1.3431 3-3 3h-8c-1.6569 0-3-1.3431-3-3zm3-1c-.5523 0-1 .44772-1 1v2c0 .55228.4477 1 1 1h8c.5523 0 1-.44772 1-1v-2c0-.55228-.4477-1-1-1z"/><path d="m15 21c0-.5523.4477-1 1-1h7c.5523 0 1 .4477 1 1s-.4477 1-1 1h-7c-.5523 0-1-.4477-1-1z"/><path d="m15 16c0-.5523.4477-1 1-1h15.5c.5523 0 1 .4477 1 1s-.4477 1-1 1h-15.5c-.5523 0-1-.4477-1-1z"/><path d="m17 29v2h2v-2zm-1-2c-.5523 0-1 .4477-1 1v4c0 .5523.4477 1 1 1h4c.5523 0 1-.4477 1-1v-4c0-.5523-.4477-1-1-1z"/><path d="m28 29c.5529 0 1-.4471 1-1s-.4471-1-1-1-1 .4471-1 1 .4471 1 1 1zm0 2c1.6575 0 3-1.3425 3-3s-1.3425-3-3-3-3 1.3425-3 3 1.3425 3 3 3z"/><path d="m24 35.2793c.0127-.0148.0305-.0342.0549-.0581.1637-.1602.4804-.3724.9763-.583.9999-.4249 2.2336-.6382 2.9688-.6382s1.9689.2133 2.9688.6382c.4959.2106.8126.4228.9763.583.0244.0239.0422.0433.0549.0581v1.7207h-8zm4-3.2793c-2.0025 0-6 1.0659-6 3.1818v3.8182h12v-3.8182c0-2.1159-3.9975-3.1818-6-3.1818z"/></g></svg>