<svg fill="none" height="48" viewBox="0 0 48 48" width="48" xmlns="http://www.w3.org/2000/svg"><path clip-rule="evenodd" d="m17 7c0-1.65685 1.3431-3 3-3h8c1.6569 0 3 1.34315 3 3h3c1.6569 0 3 1.34315 3 3v16h-2v-16c0-.55228-.4477-1-1-1h-3c0 1.6569-1.3431 3-3 3h-8c-1.6569 0-3-1.3431-3-3h-3c-.5523 0-1 .44772-1 1v28c0 .5523.4477 1 1 1h10v2h-10c-1.6569 0-3-1.3431-3-3v-28c0-1.65685 1.3431-3 3-3zm3-1c-.5523 0-1 .44772-1 1v2c0 .55228.4477 1 1 1h8c.5523 0 1-.44772 1-1v-2c0-.55228-.4477-1-1-1zm3 10v3h-3v2h3v3h2v-3h3v-2h-3v-3zm1 13.665v4c0 .5523.4477 1 1 1h4v-2h-1.4754l1.2535-1.1778c.0076-.0072.0151-.0145.0225-.0218.5971-.5974 1.3357-1.0338 2.1471-1.2685.8113-.2347 1.6689-.26 2.4927-.0736s1.587.5784 2.2183 1.1395c.6312.5611 1.1101 1.273 1.3919 2.0692l1.8854-.6672c-.3945-1.1147-1.0649-2.1113-1.9487-2.8969-.8838-.7855-1.9522-1.3344-3.1055-1.5953-1.1533-.261-2.3539-.2255-3.4898.1031-1.1307.327-2.1606.9339-2.9945 1.7643l-1.3975 1.3132v-1.6882zm11.6667 5.667h4c.5523 0 1 .4477 1 1v4h-2v-1.6885l-1.3977 1.3134c-.8338.8304-1.8637 1.4372-2.9944 1.7643-1.1359.3286-2.3365.364-3.4898.1031-1.1533-.261-2.2217-.8098-3.1055-1.5954-.8838-.7855-1.5543-1.7822-1.9487-2.8969l1.8854-.6672c.2818.7963.7606 1.5081 1.3919 2.0692s1.3945.9532 2.2183 1.1396 1.6813.161 2.4927-.0736c.8113-.2347 1.55-.6711 2.1471-1.2685.0074-.0074.0149-.0147.0225-.0218l1.2533-1.1777h-1.4751z" fill="#333" fill-rule="evenodd"/></svg>