<svg fill="none" height="48" viewBox="0 0 48 48" width="48" xmlns="http://www.w3.org/2000/svg"><path clip-rule="evenodd" d="m10.3446 11.9881c-1.45998 1.8579-2.3446 4.3963-2.3446 7.0464 0 1.5377.26446 3.009.73002 4.4099h8.68518l3.388-6.0232 2.1171 7.4096 2.5906-3.3308h6.4891v2h-5.5109l-4.4094 5.6692-1.8829-6.5904-1.612 2.8656h-14.5848v-2h2.63587c-.40554-1.3987-.63587-2.8712-.63587-4.4099 0-3.0753 1.02123-6.0541 2.77202-8.2821 1.75558-2.23417 4.28408-3.7524 7.25918-3.7524 3.5036 0 6.1679 1.96337 7.9688 4.7338 1.8008-2.7703 4.4651-4.7338 7.9688-4.7338 2.9754 0 5.5039 1.5185 7.2594 3.7527 1.7507 2.2282 2.7718 5.207 2.7718 8.2818 0 6.5825-4.5437 12.0794-8.8424 15.8315-2.174 1.8975-4.3432 3.3995-5.9668 4.4265-.8128.5142-1.4915.911-1.9691 1.1803-.2389.1347-.4277.2377-.5581.3076-.0651.035-.1157.0617-.1507.08l-.0405.0211-.0113.0058-.0033.0018-.0011.0005s-.0007.0004-.4567-.8896c-.4338.901-.4341.9009-.4341.9009l-.006-.0029-.0139-.0068-.0505-.0248c-.0434-.0215-.1063-.053-.1871-.0941-.1616-.0824-.3951-.2039-.6888-.3632-.5872-.3186-1.4164-.7892-2.3938-1.4023-1.9512-1.224-4.5107-3.0265-6.9176-5.3327-1.2839-1.2301-2.5309-2.6097-3.62061-4.128-.32203-.4487-.21935-1.0735.22933-1.3955s1.07348-.2193 1.39548.2294c1.0045 1.3995 2.1658 2.6872 3.3794 3.85 2.279 2.1835 4.7195 3.9049 6.5968 5.0825.9369.5877 1.7291 1.0372 2.2847 1.3386.1577.0856.2963.1592.4135.2205.0755-.0416.1598-.0886.2525-.1409.452-.2549 1.1014-.6344 1.8824-1.1284 1.5639-.9893 3.6447-2.431 5.7207-4.2431 4.2013-3.667 8.1576-8.6529 8.1576-14.3247 0-2.6497-.8845-5.1881-2.3444-7.0461-1.4551-1.8519-3.4422-2.9884-5.6868-2.9884-3.1028 0-5.5094 2.0208-7.0712 5.2018l-.8976 1.8283-.8976-1.8283c-1.5619-3.1812-3.9685-5.2018-7.0712-5.2018-2.2444 0-4.2315 1.1363-5.6866 2.9881zm13.6554 28.0119-.4341.9009.448.2156.4428-.2269z" fill="#333" fill-rule="evenodd"/></svg>