<svg fill="none" height="48" viewBox="0 0 48 48" width="48" xmlns="http://www.w3.org/2000/svg"><path clip-rule="evenodd" d="m10.3446 11.9881c-1.45997 1.8579-2.3446 4.3963-2.3446 7.0464 0 5.9408 3.9647 10.9276 8.1509 14.5166 2.0726 1.777 4.1501 3.1681 5.7116 4.1155.7796.473 1.4279.8337 1.8788 1.0751.0899.0481.1719.0914.2455.1299.0755-.0416.1598-.0886.2525-.1409.452-.2549 1.1014-.6344 1.8824-1.1284 1.5639-.9893 3.6447-2.431 5.7207-4.2431 4.2013-3.667 8.1576-8.6529 8.1576-14.3247 0-2.6497-.8845-5.1881-2.3444-7.0461-1.4551-1.8519-3.4422-2.9884-5.6868-2.9884-3.1028 0-5.5094 2.0208-7.0712 5.2018l-.8976 1.8283-.8976-1.8283c-1.5619-3.1812-3.9685-5.2018-7.0712-5.2018-2.2444 0-4.2315 1.1363-5.6866 2.9881zm13.6554 28.0119c-.4338.901-.4345.9007-.4345.9007l-.0045-.0022-.0114-.0056-.0409-.02c-.0352-.0174-.086-.0427-.1514-.0758-.1309-.0663-.3202-.1639-.5596-.292-.4787-.2562-1.1586-.6347-1.9727-1.1286-1.626-.9866-3.7985-2.4403-5.9759-4.307-4.3138-3.6984-8.8491-9.1943-8.8491-16.035 0-3.0753 1.02123-6.0541 2.77202-8.2821 1.75558-2.23417 4.28408-3.7524 7.25918-3.7524 3.5036 0 6.1679 1.96337 7.9688 4.7338 1.8008-2.7703 4.4651-4.7338 7.9688-4.7338 2.9754 0 5.5039 1.5185 7.2594 3.7527 1.7507 2.2282 2.7718 5.207 2.7718 8.2818 0 6.5825-4.5437 12.0794-8.8424 15.8315-2.174 1.8975-4.3432 3.3995-5.9668 4.4265-.8128.5142-1.4915.911-1.9691 1.1803-.2389.1347-.4277.2377-.5581.3076-.0651.035-.1157.0617-.1507.08l-.0405.0211-.0113.0058-.0033.0018-.0011.0005s-.0007.0004-.4567-.8896zm0 0 .4567.8896-.4428.2269-.4484-.2158z" fill="#333" fill-rule="evenodd"/></svg>