<svg fill="none" height="48" viewBox="0 0 48 48" width="48" xmlns="http://www.w3.org/2000/svg"><g fill="#333"><path d="m6.10881 24c.44797-4.0697 2.25433-7.7309 4.95619-10.5207l3.0564 3.0562 1.4142-1.4142-3.0008-3.0006c2.8738-2.37568 6.4984-3.87633 10.4652-4.09341v4.97271h2v-4.97271c3.9668.21707 7.5915 1.71776 10.4653 4.09351l-2.8795 2.8791 1.4141 1.4143 2.9352-2.9348c2.7018 2.7898 4.5081 6.4509 4.9561 10.5206h-4.2069v2h4.3157c-.0025 4.3403-1.5421 8.3201-4.106 11.4269l-3.4204-3.4202-1.4142 1.4142 3.4772 3.4771-.0127.0123 1.3913 1.4368c3.7511-3.6323 6.0848-8.7235 6.0848-14.3579 0-11.0402-8.9548-19.9892-20-19.9892s-20 8.949-20 19.9892c0 5.4849 2.21161 10.4554 5.78969 14.0661l1.42061-1.4078c-.0063-.0063-.0125-.0126-.0188-.019l3.0052-3.0053-1.4142-1.4142-2.91834 2.9184c-2.41851-3.0612-3.8617-6.9252-3.86416-11.1274h4.0527v-2z"/><path clip-rule="evenodd" d="m35.4815 28.6212-13.9628 1.2881c-.3861.0741-.7319.2867-.9724.5977l-1.6385 2.4293c-.1824 1.2141-.053 1.6971.6647 2.4806l2.6336 1.2845c.3638.1492.7695.1603 1.141.0315l12.7156-5.8723c1.8915-.6562 1.3849-2.6169-.5812-2.2394zm-12.6639 6.1533 8.054-3.7195-8.832.8147-1.202 1.7822c-.0051.0812-.0044.1295-.003.1548zm-1.9981-.9935c.0002.0001.0019.0029.0042.0082-.0033-.0057-.0045-.0083-.0042-.0082zm15.1436-3.2076c.0001-.0001 0 0 0 0zm-.4588-1.6442.0027-.0018c.0001 0-.0008.0007-.0027.0018z" fill-rule="evenodd"/></g></svg>