<svg fill="none" height="48" viewBox="0 0 48 48" width="48" xmlns="http://www.w3.org/2000/svg"><g fill="#333"><g clip-rule="evenodd" fill-rule="evenodd"><path d="m29.5913 4.67461c-.8014-.45796-1.6999-.67461-2.6675-.67461h-5.2477c-1.8244 0-3.6688.84975-4.7786 2.38697-.0371.04676-.0734.09393-.1089.14148l-2.3363 3.02864-.8113 1.08191c-.0005.0007-.0011.0013-.0016.002-2.5309 3.3427-2.5304 7.9969.0016 11.339l.0059.0078 5.0723 6.4311 4.7048 5.9714 7.8436 10.0006 7.5644-5.7306-9.043-11.5712-4.792-6.0578-6.516-8.4164-.0049-.0063c-.5685-.7106-.8666-1.6607-.8666-2.5419 0-.81503.2563-1.63198.7737-2.33086l.115-.14914.0107-.01499c.7015-.98205 1.9243-1.57171 3.1672-1.57171h5.2477c.6609 0 1.21.14525 1.6753.4111.5819.33255 1.0713.6985 1.4014 1.16061l1.6275-1.16247c-.5747-.80456-1.352-1.34337-2.0367-1.73463zm-13.8743 6.52969c.1762.9357.5703 1.8674 1.1921 2.6472l6.5161 8.4166 4.7916 6.0572.0036.0046 7.7856 9.9622-4.3784 3.317-6.6313-8.4548-4.7061-5.9732-5.0608-6.4163c-1.9856-2.6281-1.9837-6.292.0057-8.9181l.003-.0038z"/><path d="m12.413 38.2917 7.7892-9.9668-1.5759-1.2315-9.03936 11.5665 7.56446 5.7306 7.8449-10.0023-1.5737-1.2343-6.6312 8.4548z"/><path d="m31.627 6.43315c-.0397-.05329-.0805-.10605-.1222-.15825l-1.5727 1.2355.1001.12972c1.0655 1.43923 1.0357 3.47148-.0892 4.87768l-.0049.0062-6.5192 8.4206 1.5814 1.2243 6.5097-8.4083c.6254-.7841 1.0252-1.6935 1.1991-2.6379l.4748.6331c1.9904 2.6273 1.9914 6.2932.0032 8.9215l-4.9728 6.4194 1.5811 1.2248 4.9828-6.4323c2.5319-3.3422 2.5324-7.9964.0014-11.3391l-.821-1.0947z"/><path d="m21.5856 13.5094c-1.0394 0-2.039.3723-2.731 1.0642l-1.4142-1.4142c1.1176-1.1175 2.6513-1.65 4.1452-1.65h5.2477c1.538 0 3.0375.6513 4.107 1.6138l-1.3379 1.4866c-.7401-.666-1.7738-1.1004-2.7691-1.1004z"/></g><path d="m44 26h-8c-.5523 0-1 .4477-1 1s.4477 1 1 1h8c.5523 0 1-.4477 1-1s-.4477-1-1-1z"/></g></svg>