<svg fill="none" height="48" viewBox="0 0 48 48" width="48" xmlns="http://www.w3.org/2000/svg"><g clip-rule="evenodd" fill="#333" fill-rule="evenodd"><path d="m24 11c-7.1797 0-13 5.8203-13 13s5.8203 13 13 13 13-5.8203 13-13-5.8203-13-13-13zm-15 13c0-8.2843 6.7157-15 15-15s15 6.7157 15 15-6.7157 15-15 15-15-6.7157-15-15z"/><path d="m21 5c0-.55228.4477-1 1-1h4c.5523 0 1 .44772 1 1s-.4477 1-1 1h-1v6c0 .5523-.4477 1-1 1s-1-.4477-1-1v-6h-1c-.5523 0-1-.44772-1-1z"/><path d="m24 35c.5523 0 1 .4477 1 1v6h1c.5523 0 1 .4477 1 1s-.4477 1-1 1h-4c-.5523 0-1-.4477-1-1s.4477-1 1-1h1v-6c0-.5523.4477-1 1-1z"/><path d="m12.6864 39.5563c-.3906.3905-1.0237.3905-1.4143 0l-2.82839-2.8284c-.39052-.3905-.39052-1.0237 0-1.4142.39053-.3905 1.02369-.3905 1.41422 0l.70707.7071 4.2427-4.2427c.3905-.3905 1.0237-.3905 1.4142 0 .3905.3906.3905 1.0237 0 1.4143l-4.2427 4.2426.7072.7071c.3905.3905.3905 1.0237 0 1.4142z"/><path d="m31.7783 16.2218c-.3905-.3905-.3905-1.0237 0-1.4142l4.2427-4.2426-.7071-.70714c-.3906-.39053-.3906-1.02369 0-1.41422.3905-.39052 1.0237-.39052 1.4142 0l2.8284 2.82846c.3905.3905.3905 1.0237 0 1.4142s-1.0237.3905-1.4142 0l-.7071-.7071-4.2426 4.2426c-.3906.3905-1.0237.3905-1.4143 0z"/><path d="m8.44368 12.6863c-.39053-.3905-.39053-1.0237 0-1.4142l2.82842-2.82845c.3905-.39052 1.0237-.39052 1.4142 0 .3905.39053.3905 1.02369 0 1.41422l-.7071.70713 4.2427 4.2426c.3905.3905.3905 1.0237 0 1.4142-.3906.3906-1.0237.3906-1.4143 0l-4.2426-4.2426-.70711.7071c-.39052.3905-1.02369.3905-1.41421 0z"/><path d="m31.7783 31.7782c.3905-.3906 1.0237-.3906 1.4142 0l4.2427 4.2426.7071-.7071c.3905-.3905 1.0237-.3905 1.4142 0s.3905 1.0237 0 1.4142l-2.8284 2.8284c-.3906.3906-1.0237.3906-1.4143 0-.3905-.3905-.3905-1.0237 0-1.4142l.7071-.7071-4.2426-4.2426c-.3905-.3906-.3905-1.0237 0-1.4142z"/><path d="m5 27.0003c-.55228 0-1-.4477-1-1v-4c0-.5523.44772-1 1-1s1 .4477 1 1v1h6c.5523 0 1 .4477 1 1s-.4477 1-1 1h-6v1c0 .5523-.44772 1-1 1z"/><path d="m35 24.0003c0-.5523.4477-1 1-1h6v-1c0-.5523.4477-1 1-1s1 .4477 1 1v4c0 .5523-.4477 1-1 1s-1-.4477-1-1v-1h-6c-.5523 0-1-.4477-1-1z"/><path d="m16 20.5c.5523 0 1 .4477 1 1v1.5h2v-1.5c0-.5523.4477-1 1-1s1 .4477 1 1v5c0 .5523-.4477 1-1 1s-1-.4477-1-1v-1.5h-2v1.5c0 .5523-.4477 1-1 1s-1-.4477-1-1v-5c0-.5523.4477-1 1-1z"/><path d="m22 21.5c0-.5523.4477-1 1-1h2c1.3807 0 2.5 1.1193 2.5 2.5s-1.1193 2.5-2.5 2.5h-1v1c0 .5523-.4477 1-1 1s-1-.4477-1-1zm2 2h1c.2761 0 .5-.2239.5-.5s-.2239-.5-.5-.5h-1z"/><path d="m28.6286 20.5715c.5128-.2051 1.0948.0443 1.2999.5571l1.0715 2.6788 1.0715-2.6788c.2052-.5128.7871-.7622 1.2999-.5571.5128.2052.7622.7871.5571 1.2999l-2 5c-.1519.3797-.5196.6286-.9285.6286s-.7766-.2489-.9285-.6286l-2-5c-.2051-.5128.0443-1.0947.5571-1.2999z"/></g></svg>