<svg fill="none" height="48" viewBox="0 0 48 48" width="48" xmlns="http://www.w3.org/2000/svg"><g clip-rule="evenodd" fill="#333" fill-rule="evenodd"><path d="m15 20c.5523 0 1 .4477 1 1v2h2v-2c0-.5523.4477-1 1-1s1 .4477 1 1v6c0 .5523-.4477 1-1 1s-1-.4477-1-1v-2h-2v2c0 .5523-.4477 1-1 1s-1-.4477-1-1v-6c0-.5523.4477-1 1-1z"/><path d="m21 21c0-.5523.4477-1 1-1h2.5c1.3807 0 2.5 1.1193 2.5 2.5s-1.1193 2.5-2.5 2.5h-1.5v2c0 .5523-.4477 1-1 1s-1-.4477-1-1zm2 2h1.5c.2761 0 .5-.2239.5-.5s-.2239-.5-.5-.5h-1.5z"/><path d="m31 28c.4037 0 .7678-.2427.9231-.6154l2.5-6c.2124-.5098-.0287-1.0953-.5385-1.3077s-1.0953.0287-1.3077.5385l-1.5769 3.7846-1.5769-3.7846c-.2124-.5098-.7979-.7509-1.3077-.5385s-.7509.7979-.5385 1.3077l2.5 6c.1553.3727.5194.6154.9231.6154z"/><path d="m24 11c-7.1797 0-13 5.8203-13 13s5.8203 13 13 13 13-5.8203 13-13-5.8203-13-13-13zm-15 13c0-8.2843 6.7157-15 15-15s15 6.7157 15 15-6.7157 15-15 15-15-6.7157-15-15z"/><path d="m21 5c0-.55228.4477-1 1-1h4c.5523 0 1 .44772 1 1s-.4477 1-1 1h-1v6c0 .5523-.4477 1-1 1s-1-.4477-1-1v-6h-1c-.5523 0-1-.44772-1-1z"/><path d="m24 35c.5523 0 1 .4477 1 1v6h1c.5523 0 1 .4477 1 1s-.4477 1-1 1h-4c-.5523 0-1-.4477-1-1s.4477-1 1-1h1v-6c0-.5523.4477-1 1-1z"/><path d="m12.6862 39.5562c-.3905.3906-1.0237.3906-1.4142 0l-2.82841-2.8284c-.39052-.3905-.39052-1.0237 0-1.4142.39053-.3905 1.02369-.3905 1.41422 0l.70709.7071 4.2427-4.2426c.3905-.3906 1.0236-.3906 1.4142 0 .3905.3905.3905 1.0236 0 1.4142l-4.2427 4.2426.7071.7071c.3906.3905.3906 1.0237 0 1.4142z"/><path d="m31.7781 16.2217c-.3905-.3905-.3905-1.0237 0-1.4142l4.2427-4.2426-.7071-.70715c-.3906-.39053-.3906-1.02369 0-1.41422.3905-.39052 1.0236-.39052 1.4142 0l2.8284 2.82847c.3905.3905.3905 1.0236 0 1.4142-.3905.3905-1.0237.3905-1.4142 0l-.7071-.7071-4.2427 4.2426c-.3905.3905-1.0237.3905-1.4142 0z"/><path d="m8.44365 12.6864c-.39052-.3906-.39052-1.0237 0-1.4143l2.82845-2.82839c.3905-.39052 1.0237-.39052 1.4142 0 .3905.39053.3905 1.02369 0 1.41422l-.7071.70707 4.2426 4.2427c.3905.3905.3905 1.0237 0 1.4142s-1.0237.3905-1.4142 0l-4.2426-4.2427-.70714.7072c-.39052.3905-1.02369.3905-1.41421 0z"/><path d="m31.7782 31.7782c.3905-.3905 1.0237-.3905 1.4142 0l4.2426 4.2427.7071-.7071c.3906-.3906 1.0237-.3906 1.4142 0 .3906.3905.3906 1.0237 0 1.4142l-2.8284 2.8284c-.3905.3905-1.0237.3905-1.4142 0s-.3905-1.0237 0-1.4142l.7071-.7071-4.2426-4.2426c-.3906-.3906-.3906-1.0237 0-1.4143z"/><path d="m5 27.0002c-.55228 0-1-.4477-1-1v-4c0-.5522.44772-1 1-1s1 .4478 1 1v1h6c.5523 0 1 .4478 1 1 0 .5523-.4477 1-1 1h-6v1c0 .5523-.44772 1-1 1z"/><path d="m35 24.0002c0-.5522.4477-1 1-1h6v-1c0-.5522.4477-1 1-1s1 .4478 1 1v4c0 .5523-.4477 1-1 1s-1-.4477-1-1v-1h-6c-.5523 0-1-.4477-1-1z"/></g></svg>