<svg fill="none" height="48" viewBox="0 0 48 48" width="48" xmlns="http://www.w3.org/2000/svg"><g clip-rule="evenodd" fill="#333" fill-rule="evenodd"><path d="m14 6c-1.1046 0-2 .89543-2 2v28c0 1.1046.8954 2 2 2h11v2h-11c-2.2091 0-4-1.7909-4-4v-28c0-2.20914 1.7909-4 4-4h20c2.2091 0 4 1.79086 4 4v28c0 2.2091-1.7909 4-4 4h-3v-2h3c1.1046 0 2-.8954 2-2v-28c0-1.10457-.8954-2-2-2z"/><path d="m18 11c0-.5523.4477-1 1-1h10c.5523 0 1 .4477 1 1s-.4477 1-1 1h-10c-.5523 0-1-.4477-1-1z"/><path d="m14 17c0-.5523.4477-1 1-1h18c.5523 0 1 .4477 1 1s-.4477 1-1 1h-18c-.5523 0-1-.4477-1-1z"/><path d="m14 21c0-.5523.4477-1 1-1h18c.5523 0 1 .4477 1 1s-.4477 1-1 1h-18c-.5523 0-1-.4477-1-1z"/><path d="m14 25c0-.5523.4477-1 1-1h18c.5523 0 1 .4477 1 1s-.4477 1-1 1h-18c-.5523 0-1-.4477-1-1z"/><path d="m28 35c1.1046 0 2-.8954 2-2s-.8954-2-2-2-2 .8954-2 2 .8954 2 2 2zm0 2c2.2091 0 4-1.7909 4-4s-1.7909-4-4-4-4 1.7909-4 4 1.7909 4 4 4z"/><path d="m27 35h-2v9l3-1.5 3 1.5v-9h-2v5.7639l-1-.5-1 .5z"/></g></svg>