<svg fill="none" height="48" viewBox="0 0 48 48" width="48" xmlns="http://www.w3.org/2000/svg"><g clip-rule="evenodd" fill="#333" fill-rule="evenodd"><path d="m15 6c-1.6569 0-3 1.34315-3 3v26c0 1.6569 1.3431 3 3 3h10v2h-10c-2.7614 0-5-2.2386-5-5v-26c0-2.76142 2.2386-5 5-5h18c2.7614 0 5 2.23858 5 5v26c0 2.7614-2.2386 5-5 5h-2v-2h2c1.6569 0 3-1.3431 3-3v-26c0-1.65685-1.3431-3-3-3z"/><path d="m18 11c0-.5523.4477-1 1-1h10c.5523 0 1 .4477 1 1s-.4477 1-1 1h-10c-.5523 0-1-.4477-1-1z"/><path d="m14 17c0-.5523.4477-1 1-1h18c.5523 0 1 .4477 1 1s-.4477 1-1 1h-18c-.5523 0-1-.4477-1-1z"/><path d="m14 21c0-.5523.4477-1 1-1h18c.5523 0 1 .4477 1 1s-.4477 1-1 1h-18c-.5523 0-1-.4477-1-1z"/><path d="m14 25c0-.5523.4477-1 1-1h18c.5523 0 1 .4477 1 1s-.4477 1-1 1h-18c-.5523 0-1-.4477-1-1z"/><path d="m28 36c1.1046 0 2-.8954 2-2s-.8954-2-2-2-2 .8954-2 2 .8954 2 2 2zm0 2c2.2091 0 4-1.7909 4-4s-1.7909-4-4-4-4 1.7909-4 4 1.7909 4 4 4z"/><path d="m28 40.478 1 .4445v-2.9225h-2v2.9225zm-3 3.522v-8h6v8l-3-1.3333z"/></g></svg>