<svg fill="none" height="48" viewBox="0 0 48 48" width="48" xmlns="http://www.w3.org/2000/svg"><g fill="#333"><path d="m32.7071 22.7071c.3905-.3905.3905-1.0237 0-1.4142s-1.0237-.3905-1.4142 0l-7.2929 7.2929-3.2929-3.2929c-.3905-.3905-1.0237-.3905-1.4142 0s-.3905 1.0237 0 1.4142l4.7071 4.7071z"/><path clip-rule="evenodd" d="m38 15v21c0 1.6569-1.3431 3-3 3h-18c-1.6569 0-3-1.3431-3-3v-28c0-1.65685 1.3431-3 3-3h11zm-10 1c-.5523 0-1-.4477-1-1v-8h-10c-.5523 0-1 .44772-1 1v28c0 .5523.4477 1 1 1h18c.5523 0 1-.4477 1-1v-20zm1-7.17157 5.1716 5.17157h-5.1716z" fill-rule="evenodd"/><path d="m12 11v27c0 1.6569 1.3431 3 3 3h19v2h-19c-2.7614 0-5-2.2386-5-5v-27z"/></g></svg>