<svg fill="none" height="48" viewBox="0 0 48 48" width="48" xmlns="http://www.w3.org/2000/svg"><g clip-rule="evenodd" fill="#333" fill-rule="evenodd"><path d="m8 42h24c1.1046 0 2-.8954 2-2v-32c0-1.10457-.8954-2-2-2h-24c-1.10457 0-2 .89543-2 2v32c0 1.1046.89543 2 2 2zm24 2h-24c-2.20914 0-4-1.7909-4-4v-32c0-2.20914 1.79086-4 4-4h24c2.2091 0 4 1.79086 4 4v32c0 2.2091-1.7909 4-4 4z"/><path d="m18 13c0-.5523.4477-1 1-1h12c.5523 0 1 .4477 1 1s-.4477 1-1 1h-12c-.5523 0-1-.4477-1-1z"/><path d="m18 17c0-.5523.4477-1 1-1h12c.5523 0 1 .4477 1 1s-.4477 1-1 1h-12c-.5523 0-1-.4477-1-1z"/><path d="m18 25c0-.5523.4477-1 1-1h12c.5523 0 1 .4477 1 1s-.4477 1-1 1h-12c-.5523 0-1-.4477-1-1z"/><path d="m18 29c0-.5523.4477-1 1-1h12c.5523 0 1 .4477 1 1s-.4477 1-1 1h-12c-.5523 0-1-.4477-1-1z"/><path d="m10 26v3h3v-3zm-1-2h5c.5523 0 1 .4477 1 1v5c0 .5523-.4477 1-1 1h-5c-.55228 0-1-.4477-1-1v-5c0-.5523.44772-1 1-1z"/><path d="m15.7071 12.2929c.3905.3905.3905 1.0237 0 1.4142l-4.7071 4.7071-2.70711-2.7071c-.39052-.3905-.39052-1.0237 0-1.4142.39053-.3905 1.02369-.3905 1.41422 0l1.29289 1.2929 3.2929-3.2929c.3905-.3905 1.0237-.3905 1.4142 0z"/><path d="m42 24h-2v15.3333l1 1.3334 1-1.3334zm2 16-3 4-3-4v-18h6z"/><path d="m42 17h-2v2h2zm-2-2h2c1.1046 0 2 .8954 2 2v4h-6v-4c0-1.1046.8954-2 2-2z"/></g></svg>