<svg fill="none" height="48" viewBox="0 0 48 48" width="48" xmlns="http://www.w3.org/2000/svg"><g clip-rule="evenodd" fill="#333" fill-rule="evenodd"><path d="m36 16c0-1.6569 1.3431-3 3-3s3 1.3431 3 3v20.3028l-3 4.5-3-4.5zm3-1c-.5523 0-1 .4477-1 1v19.6972l1 1.5 1-1.5v-19.6972c0-.5523-.4477-1-1-1z"/><path d="m41 20h-4v-2h4z"/><path d="m10 8c-1.10457 0-2 .89543-2 2v27.9992c0 1.1046.89543 2 2 2h20c1.1046 0 2-.8954 2-2v-27.9992c0-1.10457-.8954-2-2-2zm-4 2c0-2.20914 1.79086-4 4-4h20c2.2091 0 4 1.79086 4 4v27.9992c0 2.2092-1.7909 4-4 4h-20c-2.20914 0-4-1.7908-4-4z"/><path d="m20 15c0-.5523.4477-1 1-1h8c.5523 0 1 .4477 1 1s-.4477 1-1 1h-8c-.5523 0-1-.4477-1-1z"/><path d="m20 19c0-.5523.4477-1 1-1h8c.5523 0 1 .4477 1 1s-.4477 1-1 1h-8c-.5523 0-1-.4477-1-1z"/><path d="m20 28c0-.5523.4477-1 1-1h8c.5523 0 1 .4477 1 1s-.4477 1-1 1h-8c-.5523 0-1-.4477-1-1z"/><path d="m20 32c0-.5523.4477-1 1-1h8c.5523 0 1 .4477 1 1s-.4477 1-1 1h-8c-.5523 0-1-.4477-1-1z"/><path d="m12 28v3h3v-3zm-1-2h5c.5523 0 1 .4477 1 1v5c0 .5523-.4477 1-1 1h-5c-.5523 0-1-.4477-1-1v-5c0-.5523.4477-1 1-1z"/><path d="m17.7071 14.2929c.3905.3905.3905 1.0237 0 1.4142l-4.7071 4.7071-2.7071-2.7071c-.39053-.3905-.39053-1.0237 0-1.4142.3905-.3905 1.0237-.3905 1.4142 0l1.2929 1.2929 3.2929-3.2929c.3905-.3905 1.0237-.3905 1.4142 0z"/></g></svg>