<svg fill="none" height="48" viewBox="0 0 48 48" width="48" xmlns="http://www.w3.org/2000/svg"><g clip-rule="evenodd" fill="#333" fill-rule="evenodd"><path d="m17.0001 8h-4.0001c-1.6569 0-3 1.34315-3 3v24c0 1.6569 1.3431 3 3 3h17c1.6569 0 3-1.3431 3-3v-24c0-1.65685-1.3431-3-3-3h-.9999v2h.9999c.5523 0 1 .4477 1 1v24c0 .5523-.4477 1-1 1h-17c-.5523 0-1-.4477-1-1v-24c0-.5523.4477-1 1-1h4.0001zm2 2h8v-2h-8z"/><path d="m14 19c0-.5523.4477-1 1-1h13c.5523 0 1 .4477 1 1s-.4477 1-1 1h-13c-.5523 0-1-.4477-1-1z"/><path d="m14 24c0-.5523.4477-1 1-1h7c.5523 0 1 .4477 1 1s-.4477 1-1 1h-7c-.5523 0-1-.4477-1-1z"/><path d="m14 29c0-.5523.4477-1 1-1h11c.5523 0 1 .4477 1 1s-.4477 1-1 1h-11c-.5523 0-1-.4477-1-1z"/><path d="m8 10v25c0 2.7614 2.2386 5 5 5h17v2h-17c-3.86599 0-7-3.134-7-7v-25z"/><path d="m36 13c0-1.6569 1.3431-3 3-3s3 1.3431 3 3v20.3028l-3 4.5-3-4.5zm3-1c-.5523 0-1 .4477-1 1v19.6972l1 1.5 1-1.5v-19.6972c0-.5523-.4477-1-1-1z"/><path d="m41 17h-4v-2h4z"/><path d="m26 6c.5523 0 1 .44772 1 1v4c0 .5523-.4477 1-1 1s-1-.4477-1-1v-4c0-.55228.4477-1 1-1z"/><path d="m16 6c.5523 0 1 .44772 1 1v4c0 .5523-.4477 1-1 1s-1-.4477-1-1v-4c0-.55228.4477-1 1-1z"/></g></svg>