<svg fill="none" height="48" viewBox="0 0 48 48" width="48" xmlns="http://www.w3.org/2000/svg"><g clip-rule="evenodd" fill="#333" fill-rule="evenodd"><path d="m14 4.18945h-1.9644c-2.20909 0-3.99996 1.79086-3.99996 4v28.00005c0 2.2091 1.79087 4 3.99996 4h20c2.2092 0 4-1.7909 4-4v-28.00005c0-2.20914-1.7908-4-4-4h-2.0356v.31055 1.00082.68863h2.0356c1.1046 0 2 .89543 2 2v28.00005c0 1.1045-.8954 2-2 2h-20c-1.1045 0-2-.8955-2-2v-28.00005c0-1.10457.8955-2 2-2h1.9644v-.68863-1.00082zm5 2h6v-.68863-1.00082-.31055h-6v.31055 1.00082z"/><path d="m14 15c0-.5523.4477-1 1-1h14c.5523 0 1 .4477 1 1s-.4477 1-1 1h-14c-.5523 0-1-.4477-1-1z"/><path d="m14.0356 20.1895c0-.5523.4478-1 1-1h14c.5523 0 1 .4477 1 1 0 .5522-.4477 1-1 1h-14c-.5522 0-1-.4478-1-1z"/><path d="m14.0356 25.1895c0-.5523.4478-1 1-1h14c.5523 0 1 .4477 1 1 0 .5522-.4477 1-1 1h-14c-.5522 0-1-.4478-1-1z"/><path d="m14.0356 30.2441c0-.5522.4478-1 1-1h8c.5523 0 1 .4478 1 1 0 .5523-.4477 1-1 1h-8c-.5522 0-1-.4477-1-1z"/><path d="m5.03565 8.95703c.55229 0 1 .44772 1 1l-.00001 27.04257c0 2.7614 2.23858 5 4.99996 5h19.0647c.5522 0 1 .4477 1 1 0 .5522-.4478 1-1 1h-19.0647c-3.86595 0-6.99996-3.1341-6.99996-7l.00001-27.04257c0-.55228.44772-1 1-1z"/><path d="m42 19h-2v15.3333l1 1.3334 1-1.3334zm2 16-3 4-3-4v-18h6z"/><path d="m42 12h-2v2h2zm-2-2h2c1.1046 0 2 .8954 2 2v4h-6v-4c0-1.1046.8954-2 2-2z"/><path d="m27.5 2c.8284 0 1.5.67157 1.5 1.5v3.00082c0 .82843-.6716 1.5-1.5 1.5s-1.5-.67157-1.5-1.5v-3.00082c0-.82843.6716-1.5 1.5-1.5z"/><path d="m16.5085 2c.8285 0 1.5.67157 1.5 1.5v3.00082c0 .82843-.6715 1.5-1.5 1.5-.8284 0-1.5-.67157-1.5-1.5v-3.00082c0-.82843.6716-1.5 1.5-1.5z"/></g></svg>