<svg fill="none" height="48" viewBox="0 0 48 48" width="48" xmlns="http://www.w3.org/2000/svg"><g fill="#333"><path d="m12 5c0-.55228.4477-1 1-1s1 .44772 1 1v6c0 .5523-.4477 1-1 1s-1-.4477-1-1z"/><path d="m28 5c0-.55228.4477-1 1-1s1 .44772 1 1v6c0 .5523-.4477 1-1 1s-1-.4477-1-1z"/><g clip-rule="evenodd" fill-rule="evenodd"><path d="m14 23h-2v2h2zm-2-2c-1.1046 0-2 .8954-2 2v2c0 1.1046.8954 2 2 2h2c1.1046 0 2-.8954 2-2v-2c0-1.1046-.8954-2-2-2z"/><path d="m22 23h-2v2h2zm-2-2c-1.1046 0-2 .8954-2 2v2c0 1.1046.8954 2 2 2h2c1.1046 0 2-.8954 2-2v-2c0-1.1046-.8954-2-2-2z"/><path d="m30 23h-2v2h2zm-2-2c-1.1046 0-2 .8954-2 2v2c0 1.1046.8954 2 2 2h2c1.1046 0 2-.8954 2-2v-2c0-1.1046-.8954-2-2-2z"/><path d="m14 31h-2v2h2zm-2-2c-1.1046 0-2 .8954-2 2v2c0 1.1046.8954 2 2 2h2c1.1046 0 2-.8954 2-2v-2c0-1.1046-.8954-2-2-2z"/><path d="m22 31h-2v2h2zm-2-2c-1.1046 0-2 .8954-2 2v2c0 1.1046.8954 2 2 2h2c1.1046 0 2-.8954 2-2v-2c0-1.1046-.8954-2-2-2z"/><path d="m9 10h24c1.1046 0 2 .8954 2 2v16c.6906 0 1.3608.0875 2 .252v-16.252c0-2.20914-1.7909-4-4-4h-24c-2.20914 0-4 1.79086-4 4v24c0 2.2091 1.79086 4 4 4h19.0703c-.3581-.619-.6356-1.2905-.8183-2h-18.252c-1.10457 0-2-.8954-2-2v-24c0-1.1046.89543-2 2-2z"/><path d="m36 19h-30v-2h30z"/><path d="m35 42c3.3137 0 6-2.6863 6-6s-2.6863-6-6-6-6 2.6863-6 6 2.6863 6 6 6zm0 2c4.4183 0 8-3.5817 8-8s-3.5817-8-8-8-8 3.5817-8 8 3.5817 8 8 8z"/><path d="m35 31.1787c.5523 0 1 .4477 1 1v4.2981l2.4515 1.7017c.4537.3149.5662.938.2512 1.3917-.3149.4537-.938.5662-1.3917.2513l-3.311-2.2983v-5.3445c0-.5523.4477-1 1-1z"/></g></g></svg>