<svg fill="none" height="48" viewBox="0 0 48 48" width="48" xmlns="http://www.w3.org/2000/svg"><g clip-rule="evenodd" fill="#333" fill-rule="evenodd"><path d="m24 42c9.9411 0 18-8.0589 18-18s-8.0589-18-18-18-18 8.0589-18 18 8.0589 18 18 18zm0 2c11.0457 0 20-8.9543 20-20s-8.9543-20-20-20-20 8.9543-20 20 8.9543 20 20 20z"/><path d="m24 31c3.866 0 7-3.134 7-7s-3.134-7-7-7-7 3.134-7 7 3.134 7 7 7zm0 2c4.9706 0 9-4.0294 9-9s-4.0294-9-9-9-9 4.0294-9 9 4.0294 9 9 9z"/><path d="m20.5758 28.4241c-.5668-.3738-1.0185-.9079-1.2905-1.5379l4.6009-4.6009c.63.272 1.1641.7237 1.5379 1.2905zm5.2347-4.0631c.1228.3571.1895.7402.1895 1.139 0 1.933-1.567 3.5-3.5 3.5-.3988 0-.7819-.0667-1.139-.1895zm-2.8417-2.3299-3.9377 3.9377c-.0205-.1533-.0311-.3098-.0311-.4688 0-1.933 1.567-3.5 3.5-3.5.159 0 .3155.0106.4688.0311z"/><path d="m20.4327 28.3246c-.4511-.3308-.8201-.7671-1.0706-1.2725-.027-.0545-.0526-.1098-.0768-.1659l4.6009-4.6009c.0561.0242.1114.0498.1659.0768.5054.2505.9417.6195 1.2725 1.0706.0343.0469.0675.0946.0995.1431l-4.8483 4.8483c-.0485-.032-.0962-.0652-.1431-.0995zm5.3778-3.9636c.0209.0609.0402.1225.0578.1848.0858.3033.1317.6234.1317.9542 0 .029-.0004.0579-.0011.0868-.0453 1.864-1.5481 3.3668-3.4121 3.4121-.0289.0007-.0578.0011-.0868.0011-.3308 0-.6509-.0459-.9542-.1317-.0623-.0176-.1239-.0369-.1848-.0578zm-4.3965-2.1892c-1.0595.3455-1.8967 1.1827-2.2422 2.2422-.1115.3418-.1718.7069-.1718 1.086 0 .0836.0029.1665.0087.2486.0052.0741.0127.1475.0224.2202l3.9377-3.9377c-.0727-.0097-.1461-.0172-.2202-.0224-.0821-.0058-.165-.0087-.2486-.0087-.3791 0-.7442.0603-1.086.1718z"/><path d="m17.8105 15.639c.1228-.3571.1895-.7402.1895-1.139 0-1.933-1.567-3.5-3.5-3.5-.3988 0-.7819.0667-1.139.1895zm-6.5253-2.5252c.272-.63.7238-1.1641 1.2906-1.5379l4.8483 4.8483c-.3738.5668-.9079 1.0186-1.5379 1.2906zm3.6836 4.8551c-.1534.0205-.3098.0311-.4688.0311-1.933 0-3.5-1.567-3.5-3.5 0-.159.0106-.3154.0311-.4688z"/><path d="m33.5759 34.4241c-.5669-.3737-1.0186-.9079-1.2906-1.5378l4.601-4.601c.6299.272 1.1641.7237 1.5378 1.2906zm5.2346-4.063c.1228.357.1895.7402.1895 1.1389 0 1.933-1.567 3.5-3.5 3.5-.3987 0-.7819-.0667-1.1389-.1895zm-2.8416-2.33-3.9378 3.9378c-.0205-.1534-.0311-.3099-.0311-.4689 0-1.933 1.567-3.5 3.5-3.5.159 0 .3155.0106.4689.0311z"/><path d="m33.4328 34.3246c-.4512-.3308-.8202-.7671-1.0707-1.2725-.027-.0545-.0526-.1098-.0768-.1658l4.601-4.601c.056.0242.1113.0498.1658.0768.5054.2505.9417.6195 1.2725 1.0707.0343.0468.0675.0945.0995.1431l-4.8482 4.8482c-.0486-.032-.0963-.0652-.1431-.0995zm5.3777-3.9635c.0209.0608.0402.1224.0579.1847.0857.3034.1316.6234.1316.9542 0 .029-.0004.058-.0011.0868-.0453 1.864-1.548 3.3668-3.4121 3.4121-.0288.0007-.0578.0011-.0868.0011-.3308 0-.6508-.0459-.9542-.1316-.0623-.0177-.1239-.037-.1847-.0579zm-4.3965-2.1894c-1.0595.3455-1.8968 1.1828-2.2423 2.2423-.1114.3419-.1717.7069-.1717 1.086 0 .0836.0029.1665.0087.2487.0052.074.0127.1474.0224.2202l3.9378-3.9378c-.0728-.0097-.1462-.0172-.2202-.0224-.0822-.0058-.1651-.0087-.2487-.0087-.3791 0-.7441.0603-1.086.1717z"/><path d="m31 13c.5523 0 1-.4477 1-1s-.4477-1-1-1-1 .4477-1 1 .4477 1 1 1zm0 2c1.6569 0 3-1.3431 3-3s-1.3431-3-3-3-3 1.3431-3 3 1.3431 3 3 3z"/><path d="m13 33c.5523 0 1-.4477 1-1s-.4477-1-1-1-1 .4477-1 1 .4477 1 1 1zm0 2c1.6569 0 3-1.3431 3-3s-1.3431-3-3-3-3 1.3431-3 3 1.3431 3 3 3z"/></g></svg>