<svg fill="none" height="48" viewBox="0 0 48 48" width="48" xmlns="http://www.w3.org/2000/svg"><path clip-rule="evenodd" d="m24 42c9.9411 0 18-8.0589 18-18s-8.0589-18-18-18-18 8.0589-18 18 8.0589 18 18 18zm0 2c11.0457 0 20-8.9543 20-20s-8.9543-20-20-20-20 8.9543-20 20 8.9543 20 20 20zm1-22v12c0 .5523-.4477 1-1 1s-1-.4477-1-1v-12c0-.5523.4477-1 1-1s1 .4477 1 1zm-1 15c-1.6569 0-3-1.3431-3-3v-12c0-1.6569 1.3431-3 3-3s3 1.3431 3 3v12c0 1.6569-1.3431 3-3 3zm0-24c-.5523 0-1 .4477-1 1s.4477 1 1 1 1-.4477 1-1-.4477-1-1-1zm-3 1c0 1.6569 1.3431 3 3 3s3-1.3431 3-3-1.3431-3-3-3-3 1.3431-3 3z" fill="#333" fill-rule="evenodd"/></svg>