<svg fill="none" height="48" viewBox="0 0 48 48" width="48" xmlns="http://www.w3.org/2000/svg"><path clip-rule="evenodd" d="m21.7448 5.17723c-1.3037-1.86236-4.1244-1.65457-5.141.37875l-.0314.06282c-1.4096-.47025-3.0568.11466-3.7828 1.56661-.6009 1.20167-.3653 2.653.5847 3.60299l2.3383 2.3383c.4788.4788 1.0498.8554 1.6785 1.1069l1.5845.6338c-1.988.0825-4.3271.34-6.4436.9432-1.1444.3262-2.0275 1.1484-2.2817 2.1931-.27163 1.1165.2383 2.2324 1.3805 2.8599.7107.3905 1.6107.7861 2.7515 1.1754.0943.0322.1896.0612.2856.087-1.1197 1.1029-2.7245 2.1721-4.98431 2.9254l.63241 1.8974c3.2466-1.0822 5.3847-2.7807 6.7283-4.4818 1.3345.1228 2.6351.1323 3.794-.0634 1.2673-.2139 2.458-.6934 3.307-1.6111.4275.1348.8826.2075 1.3547.2075.3088 0 .6103-.0311.9015-.0903-.1975.5408-.3405 1.1069-.3859 1.7015-.1538 2.0101.8218 3.9584 3.3274 6.1426l1.3142-1.5076c-2.2743-1.9826-2.7327-3.3676-2.6475-4.4825.0368-.4812.1783-.9761.4095-1.5179.1195.3634.2684.7286.4515 1.0876.8344 1.6363 2.3676 3.1116 4.9249 3.6454l.4087-1.9578c-1.9141-.3995-2.9684-1.452-3.5519-2.5962-.2889-.5666-.4645-1.1624-.5596-1.7192.4306.1893.9066.2944 1.4072.2944 1.3962 0 2.6015-.8175 3.1632-2h5.3368v-2h-5.0354c-.2427-1.6961-1.7014-3-3.4646-3-.8963 0-1.7139.3369-2.3331.891-.6075-.8524-1.5048-1.4839-2.5481-1.7508zm-3.4485 15.36817c.806.0294 1.5501-.0026 2.2091-.1138.3437-.0581.6533-.1353.9304-.2321l-1.3566-.4522c-.2922-.0974-.6485-.0623-1.0317.144-.2847.1532-.548.3841-.7512.6541zm2.9725-2.5097c-.1371-.3779-.2251-.7793-.2562-1.1966-2.1044-.0319-5.2453.1291-7.9325.8949-.5817.1658-.832.5189-.8865.7426-.0261.1074-.0154.2006.0247.2853.0405.0857.1384.2186.3755.3489.5885.3233 1.3783.6749 2.4345 1.0354.1383.0472.2837.0828.4314.1058.2122.0331.4225.0639.6305.0922.0883-.145.1692-.2879.2431-.4277.3918-.7413 1.0213-1.3854 1.7664-1.7864.7493-.4033 1.6807-.5906 2.612-.2801zm2.9418-5.8482-4.1043-5.86334c-.4346-.62079-1.3748-.55152-1.7137.12624l-.176.35197 5.4907 5.49073-.1437.1437c.2074-.099.4236-.1826.647-.2493zm-7.8363-4.39909 5.7433 5.74339c-.0934.1064-.1819.2173-.2651.3322l-3.7186-1.4874c-.3772-.1509-.7198-.3768-1.0071-.6641l-2.3383-2.3383c-.3413-.34128-.4259-.86267-.2101-1.29436.3423-.68457 1.2547-.83262 1.7959-.29143zm6.6257 8.71159c0-1.3807 1.1193-2.5 2.5-2.5s2.5 1.1193 2.5 2.5-1.1193 2.5-2.5 2.5-2.5-1.1193-2.5-2.5zm7 0c0 .8284.6716 1.5 1.5 1.5s1.5-.6716 1.5-1.5-.6716-1.5-1.5-1.5-1.5.6716-1.5 1.5zm-5 18.5h3.5859l-5.5858 5.5859-7.2929-7.2929-1.4142 1.4142 7.2928 7.2928h-9.5858v2h24v-2h-11.5856l5.5856-5.5856v3.5856h2v-7h-7z" fill="#333" fill-rule="evenodd"/></svg>