<svg fill="none" height="48" viewBox="0 0 48 48" width="48" xmlns="http://www.w3.org/2000/svg"><g fill="#333"><path d="m6.10881 24c.44797-4.0697 2.25433-7.7309 4.95619-10.5207l3.0564 3.0562 1.4142-1.4142-3.0008-3.0006c2.8738-2.37568 6.4984-3.87633 10.4652-4.09341v4.97271h2v-4.97271c3.9668.21707 7.5915 1.71776 10.4653 4.09351l-2.8795 2.8791 1.4141 1.4143 2.9352-2.9348c2.7018 2.7898 4.5081 6.4509 4.9561 10.5206h-4.2069v2h4.3157c-.0025 4.3403-1.5421 8.3201-4.106 11.4269l-3.4204-3.4202-1.4142 1.4142 3.4772 3.4771-.0127.0123 1.3913 1.4368c3.7511-3.6323 6.0848-8.7235 6.0848-14.3579 0-11.0402-8.9548-19.9892-20-19.9892s-20 8.949-20 19.9892c0 5.4849 2.21161 10.4554 5.78969 14.0661l1.42061-1.4078c-.0063-.0063-.0125-.0126-.0188-.019l3.0052-3.0053-1.4142-1.4142-2.91834 2.9184c-2.41851-3.0612-3.8617-6.9252-3.86416-11.1274h4.0527v-2z"/><path clip-rule="evenodd" d="m11.5659 31.1361 12.9268 5.4326c.3757.1163.7808.0914 1.1394-.0699l2.5887-1.3727c.7322-.9855.8452-1.4726.5806-2.5016l-1.7195-2.3726c-.2509-.3027-.6037-.5035-.9921-.5646l-13.9832-.8008c-1.9777-.3109-2.4532 1.6576-.5407 2.2496zm14.0698.5285-8.8569-.5072 8.1767 3.4364 1.8991-1.0071c.0428-.0692.0649-.1122.0756-.1352zm1.2957 1.8168c-.0002-.0003-.0003-.0035.0001-.0093.0002.0066 0 .0095-.0001.0093zm-15.2407-2.6279-.0033.0003s.0011-.0001.0033-.0003z" fill-rule="evenodd"/></g></svg>