<svg fill="none" height="48" viewBox="0 0 48 48" width="48" xmlns="http://www.w3.org/2000/svg"><g fill="#333"><path d="m18.7479 12.8156c-1.7407.0677-3.3126.6887-4.1535 1.5298-.3905.3906-1.0237.3906-1.4142.0001-.3906-.3904-.3907-1.0236-.0002-1.4142 1.2974-1.2976 3.4088-2.0332 5.4901-2.1142 2.0949-.0815 4.382.4921 5.9837 2.0941.3904.3905.3904 1.0237-.0002 1.4142-.3905.3905-1.0237.3904-1.4142-.0001-1.091-1.0913-2.7645-1.5769-4.4915-1.5097z"/><path clip-rule="evenodd" d="m27.3841 28.9355c-2.2634 1.912-5.1892 3.0645-8.3841 3.0645-7.1797 0-13-5.8203-13-13s5.8203-13 13-13 13 5.8203 13 13c0 3.1949-1.1525 6.1207-3.0645 8.3841l2.2087-.3841 10.2836 10.2837c.7629.7629.7629 1.9998 0 2.7627l-1.3814 1.3814c-.7629.7629-1.9998.7629-2.7627 0l-10.2837-10.2836zm2.6159-9.9355c0 6.0751-4.9249 11-11 11s-11-4.9249-11-11 4.9249-11 11-11 11 4.9249 11 11zm7.2487 16.933-6.7847-6.7847-1.1208.1949-.1949 1.1208 6.8047 6.8047zm.1187 2.7501 1.2976 1.2977 1.3158-1.3158-1.3177-1.3176z" fill-rule="evenodd"/></g></svg>