<svg fill="none" height="48" viewBox="0 0 48 48" width="48" xmlns="http://www.w3.org/2000/svg"><g clip-rule="evenodd" fill="#333" fill-rule="evenodd"><path d="m16.0001 20c0-.5523-.4477-1-1-1s-1 .4477-1 1v4.5895c-.3231.4047-.6068.9995-.8312 1.731l-1.1257-1.1369v-1.9866c0-.2635-.104-.5163-.2894-.7036l-2.37419-2.3979c-.38858-.3925-1.02174-.3956-1.4142-.007s-.3956 1.0217-.00702 1.4142l2.08481 2.1056v1.9866c0 .2635.104.5164.2894.7036l.7539.7614-7.01741 1.2238c-.28776 1.3802.17266 4.1404 4.31642 4.1404.07702 0 .15296-.0014.22784-.004l-.50287.3386c-.31831.2143-.4859.5919-.43131.9717l.48554 3.3786-1.8536 1.2481c-.45812.3085-.57944.9299-.27098 1.388s.9299.5795 1.38801.271l2.3742-1.5986c.31836-.2143.48586-.5919.43136-.9718l-.48559-3.3785.32879-.2214c.005.0186.0106.0373.0167.0558l1.4592 4.4215-1.76511 3.8258c-.23137.5015-.01239 1.0956.48911 1.327s1.0956.0124 1.3269-.4891l1.9303-4.1839c.1061-.23.121-.4917.0416-.7323l-1.3908-4.2141.6769-.6837c.3842 2.1379 1.1973 3.6124 2.1384 3.6124.941 0 1.7542-1.4745 2.1383-3.6125l.677.6838-1.3908 4.2141c-.0794.2406-.0645.5023.0416.7323l1.9301 4.1839c.2313.5014.8254.7204 1.3269.4891s.7205-.8254.4891-1.3269l-1.7649-3.8259 1.4593-4.4215c.0061-.0185.0116-.0372.0166-.0558l.3288.2213-.4857 3.3786c-.0547.3798.1129.7574.4313.9718l2.3742 1.5986c.4581.3085 1.0795.1871 1.388-.271.3084-.4581.1871-1.0795-.271-1.388l-1.8536-1.2481.4858-3.3785c.0546-.3799-.113-.7575-.4313-.9718l-.5029-.3386c.0748.0026.1507.004.2276.004 4.1438 0 4.6042-2.7602 4.3164-4.1404l-7.0172-1.2238.7539-.7614c.1854-.1872.2894-.4401.2894-.7036v-1.9866l2.0848-2.1056c.3886-.3925.3855-1.0256-.007-1.4142-.3924-.3886-1.0256-.3855-1.4142.007l-2.3742 2.3979c-.1854.1873-.2894.4401-.2894.7036v1.9866l-1.1257 1.137c-.2244-.7315-.5081-1.3262-.8312-1.731zm-.6258 10.3908c0 1.2526-.1505 2.3569-.3742 3.2004-.2238-.8435-.3742-1.9478-.3742-3.2004 0-1.2525.1504-2.3568.3742-3.2004.2237.8436.3742 1.9479.3742 3.2004zm-6.98879.0333c-1.21437 0-1.76383-.2903-2.01465-.5116l4.50244-.7852c-.0086.0137-.0172.0274-.026.041-.4492.6982-1.14152 1.2558-2.46179 1.2558zm15.24359-.5116c-.2508.2213-.8002.5116-2.0146.5116-1.3203 0-2.0126-.5576-2.4618-1.2558-.0088-.0136-.0174-.0273-.026-.041z"/><path d="m34.0001 5c0-.55228-.4477-1-1-1s-1 .44772-1 1v4.58949c-.3231.40472-.6068.99951-.8312 1.73101l-1.1257-1.1369v-1.9866c0-.2635-.104-.51634-.2894-.70358l-2.3742-2.39792c-.3886-.39246-1.0217-.3956-1.4142-.00702-.3924.38857-.3956 1.02173-.007 1.41419l2.0848 2.10564v1.98659c0 .2635.104.5164.2894.7036l.7539.7614-7.0174 1.2238c-.2878 1.3802.1726 4.1404 4.3164 4.1404.077 0 .153-.0014.2278-.004l-.5028.3386c-.3183.2143-.4859.5919-.4313.9717l.4855 3.3786-1.8536 1.2481c-.4581.3085-.5794.9299-.271 1.388.3085.4581.9299.5795 1.388.271l2.3742-1.5986c.3184-.2143.4859-.5919.4314-.9718l-.4856-3.3785.3288-.2214c.005.0186.0106.0373.0167.0558l1.4592 4.4215-1.7651 3.8258c-.2314.5015-.0124 1.0956.4891 1.327s1.0956.0124 1.3269-.4891l1.9303-4.1839c.1061-.23.121-.4917.0416-.7323l-1.3908-4.2141.6769-.6837c.3842 2.1379 1.1973 3.6124 2.1384 3.6124.941 0 1.7542-1.4745 2.1383-3.6125l.677.6838-1.3908 4.2141c-.0794.2406-.0645.5023.0416.7323l1.9301 4.1839c.2313.5014.8254.7204 1.3269.4891s.7205-.8254.4891-1.3269l-1.7649-3.8259 1.4593-4.4215c.0061-.0185.0116-.0372.0166-.0558l.3288.2213-.4857 3.3786c-.0547.3798.1129.7574.4313.9718l2.3742 1.5986c.4581.3085 1.0795.1871 1.388-.271.3084-.4581.1871-1.0795-.271-1.388l-1.8536-1.2481.4858-3.3785c.0546-.3799-.113-.7575-.4313-.9718l-.5029-.3386c.0748.0026.1507.004.2276.004 4.1438 0 4.6042-2.7602 4.3164-4.1404l-7.0172-1.2238.7539-.7614c.1854-.1872.2894-.4401.2894-.7036v-1.98659l2.0848-2.10564c.3886-.39246.3855-1.02562-.007-1.41419-.3924-.38858-1.0256-.38544-1.4142.00702l-2.3742 2.39792c-.1854.18724-.2894.44008-.2894.70358v1.9866l-1.1257 1.137c-.2244-.7315-.5081-1.32624-.8312-1.73096zm-.6258 10.3908c0 1.2526-.1505 2.3569-.3742 3.2004-.2238-.8435-.3742-1.9478-.3742-3.2004 0-1.2525.1504-2.3568.3742-3.2004.2237.8436.3742 1.9479.3742 3.2004zm-6.9888.0333c-1.2144 0-1.7638-.2903-2.0146-.5116l4.5024-.7852c-.0086.0137-.0172.0274-.026.041-.4492.6982-1.1415 1.2558-2.4618 1.2558zm15.2436-.5116c-.2508.2213-.8002.5116-2.0146.5116-1.3203 0-2.0126-.5576-2.4618-1.2558-.0088-.0136-.0174-.0273-.026-.041z"/></g></svg>