<svg fill="none" height="48" viewBox="0 0 48 48" width="48" xmlns="http://www.w3.org/2000/svg"><g fill="#333"><path d="m6.10881 24c.44797-4.0697 2.25432-7.7309 4.95619-10.5207l3.0564 3.0562 1.4142-1.4142-3.0008-3.0006c2.8738-2.37568 6.4984-3.87633 10.4652-4.09341v4.97271h2v-4.97271c3.9668.21707 7.5915 1.71776 10.4653 4.09351l-2.8795 2.8791 1.4141 1.4143 2.9352-2.9348c2.7018 2.7898 4.5081 6.4509 4.9561 10.5206h-4.2069v2h4.3157c-.0025 4.3403-1.5422 8.3201-4.1061 11.427l-3.4204-3.4203-1.4142 1.4142 3.4772 3.4771-.0126.0123 1.3913 1.4368c3.7511-3.6323 6.0848-8.7235 6.0848-14.3579 0-11.0402-8.9548-19.9892-20-19.9892s-20 8.949-20 19.9892c0 5.4849 2.21161 10.4554 5.78969 14.0661l1.42061-1.4078c-.0063-.0063-.0125-.0126-.0188-.019l3.0053-3.0053-1.4143-1.4142-2.91831 2.9185c-2.41853-3.0613-3.86173-6.9253-3.86419-11.1275h4.0527v-2z"/><path clip-rule="evenodd" d="m22.9961 23.8839-2.3696 13.8203c-.0283.3922.0875.7812.3257 1.0941l1.9224 2.2113c1.1255.4905 1.6255.4905 2.5681 0l1.9224-2.2113c.2382-.3129.354-.7019.3257-1.0941l-2.3812-13.8021c-.1442-1.9969-2.1692-2.015-2.3135-.0182zm2.6659 13.825-1.5082-8.7423-1.4989 8.7419 1.4104 1.6223c.0771.026.124.0378.1488.043zm-1.4767 1.6728c.0001-.0002.0033-.001.009-.0019-.0064.0017-.0092.0021-.009.0019zm-.8858-15.4401-.001-.0031c0-.0001.0004.0009.001.0031z" fill-rule="evenodd"/></g></svg>