<svg fill="none" height="48" viewBox="0 0 48 48" width="48" xmlns="http://www.w3.org/2000/svg"><path clip-rule="evenodd" d="m34 4c-5.5228 0-10 4.47715-10 10v9c0 .5523.4477 1 1 1h9c5.5228 0 10-4.4772 10-10 0-5.52285-4.4772-10-10-10zm-8 10c0-4.41828 3.5817-8 8-8s8 3.58172 8 8c0 4.4183-3.5817 8-8 8h-8zm-19-2.2222c0-.4255.35228-.7778.77778-.7778h6.22222c.4255 0 .7778.3523.7778.7778 0 2.3264.3718 4.5627 1.061 6.652.0863.281.0221.5795-.1992.8009l-4.4246 4.4245.3293.6472c2.6567 5.2212 6.9347 9.4795 12.1508 12.152l.6482.3321 4.426-4.4261c.2109-.2108.5221-.2768.7819-.1877l.0107.0035c2.0921.6911 4.349 1.0638 6.6603 1.0638.4255 0 .7778.3523.7778.7778v6.2044c0 .4255-.3523.7778-.7778.7778-16.141 0-29.2222-13.0812-29.2222-29.2222zm.77778-2.7778c-1.53006 0-2.77778 1.2477-2.77778 2.7778 0 17.2456 13.9766 31.2222 31.2222 31.2222 1.5301 0 2.7778-1.2477 2.7778-2.7778v-6.2044c0-1.5301-1.2477-2.7778-2.7778-2.7778-2.0959 0-4.1395-.3379-6.0283-.9613-.9832-.3345-2.0912-.0801-2.8388.6675l-3.3886 3.3887c-4.3437-2.3806-7.9374-5.9618-10.3027-10.3l3.39-3.39c.7727-.7728.9936-1.8584.6913-2.8203l-.0022-.0069-.0023-.0069c-.6245-1.8906-.9628-3.9181-.9628-6.033 0-1.5301-1.2477-2.7778-2.7778-2.7778zm21.22222 4h4v-4h2v4h4v2h-4v4h-2v-4h-4z" fill="#333" fill-rule="evenodd"/></svg>