<svg fill="none" height="48" viewBox="0 0 48 48" width="48" xmlns="http://www.w3.org/2000/svg"><g clip-rule="evenodd" fill="#333" fill-rule="evenodd"><path d="m10 18c-1.10457 0-2 .8954-2 2v6c0 1.1046.89543 2 2 2h4v-10zm4 12h-2v8c0 .5523.4477 1 1 1s1-.4477 1-1zm-4 0c-2.20914 0-4-1.7909-4-4v-6c0-2.2091 1.79086-4 4-4h5c.5523 0 1 .4477 1 1v21c0 1.6569-1.3431 3-3 3s-3-1.3431-3-3z"/><path d="m30.4812 7.12339c.32.17564.5188.51163.5188.87661v10c2.2091 0 4 1.7909 4 4v1c0 2.2091-1.7909 4-4 4v10c0 .365-.1988.701-.5188.8766-.3199.1756-.7102.163-1.0181-.0329l-11-7c-.2884-.1836-.4631-.5018-.4631-.8437v-15c0-.3419.1747-.6601.4631-.8437l11-6.99996c.3079-.19595.6982-.20858 1.0181-.03295zm.5188 17.87661c1.1046 0 2-.8954 2-2v-1c0-1.1046-.8954-2-2-2zm-11-9.4511v13.9022l9 5.7272v-25.35663z"/><path d="m40.8322 17.4453c.3063.4595.1821 1.0804-.2774 1.3867l-3 2c-.4595.3064-1.0804.1822-1.3867-.2773-.3064-.4595-.1822-1.0804.2773-1.3868l3-2c.4595-.3063 1.0804-.1821 1.3868.2774zm-4.8321 6.5547c0-.5523.4477-1 1-1h4c.5523 0 1 .4477 1 1s-.4477 1-1 1h-4c-.5523 0-1-.4477-1-1zm.168 3.4453c.3063-.4595.9272-.5837 1.3867-.2774l3 2c.4595.3064.5837.9273.2774 1.3868-.3064.4595-.9273.5837-1.3868.2773l-3-2c-.4595-.3063-.5837-.9272-.2773-1.3867z"/></g></svg>