<svg fill="none" height="48" viewBox="0 0 48 48" width="48" xmlns="http://www.w3.org/2000/svg"><path clip-rule="evenodd" d="m25 5.00854c0-.55228-.4477-1-1-1s-1 .44772-1 1v7.32226c-.923.6236-1.7171 2.0904-2.256 4.0688l-.45.0785-2.44-2.4644v-3.6245c0-.2635-.104-.51633-.2894-.70357l-3.9959-4.03581c-.3886-.39246-1.0218-.39561-1.4142-.00703-.3925.38858-.3956 1.02174-.007 1.4142l3.7065 3.74351v3.6245c0 .2635.104.5164.2894.7036l1.7505 1.7681-11.77762 2.054c-.48432 2.3228.29059 6.9684 7.26472 6.9684.2123 0 .4197-.0061.6224-.0178l-1.7038 1.1472c-.3184.2143-.4859.5919-.4314.9717l.8782 6.1107-3.47529 2.34c-.45811.3085-.57943.9299-.27097 1.388s.92989.5794 1.38806.271l3.9958-2.6906c.3184-.2143.4859-.5919.4314-.9717l-.8782-6.1107 3.106-2.0913-.8998.9088c-.2645.2671-.3569.66-.239 1.017l2.5403 7.6972-3.0836 6.6837c-.2314.5015-.0124 1.0956.4891 1.327.5015.2313 1.0956.0123 1.327-.4891l3.2487-7.0417c.1062-.23.121-.4917.0416-.7323l-2.4719-7.4899 2.2194-2.2416c.5387 4.1279 2.0298 7.0953 3.785 7.0953 1.7586 0 3.2522-2.9792 3.7882-7.1199l2.2437 2.2661-2.4719 7.4899c-.0794.2406-.0646.5023.0415.7323l3.2484 7.0416c.2314.5015.8254.7205 1.3269.4892s.7205-.8254.4892-1.3269l-3.0833-6.6837 2.5404-7.6973c.1178-.357.0255-.7498-.239-1.017l-.8998-.9088 3.106 2.0913-.8786 6.1107c-.0546.3798.113.7574.4313.9718l3.9959 2.6905c.4582.3085 1.0796.1872 1.3881-.271.3084-.4581.1871-1.0795-.271-1.388l-3.4753-2.34.8785-6.1106c.0546-.3798-.1129-.7574-.4313-.9718l-1.7036-1.1471c.2025.0118.4097.0178.6218.0178 6.9741 0 7.749-4.6456 7.2647-6.9684l-11.7772-2.054 1.7505-1.768c.1854-.1872.2894-.4401.2894-.7036v-3.6245l3.7065-3.7435c.3886-.39246.3855-1.02562-.007-1.4142-.3925-.38857-1.0256-.38543-1.4142.00703l-3.9959 4.03581c-.1854.18724-.2894.44006-.2894.70356v3.6245l-2.44 2.4644-.4788-.0835c-.5389-1.976-1.3324-3.4408-2.2547-4.0639zm-5.2699 13.74256-.1221-.1232-11.57448 2.0186c.06761.5184.24041 1.0556.56264 1.5211.53629.7747 1.76714 1.7515 4.78484 1.7515 2.7355 0 4.3123-1.2175 5.2923-2.7406.4878-.7582.8301-1.6039 1.0568-2.4274zm8.567.0004c.2267.8234.569 1.669 1.0568 2.427.9799 1.5231 2.5567 2.7406 5.2922 2.7406 3.0177 0 4.2486-.9768 4.7848-1.7515.3223-.4655.4951-1.0027.5627-1.5211l-11.5741-2.0185zm-2.2971 3.7485c0 2.7201-.4235 5.0928-1.0405 6.7126-.3112.8169-.633 1.34-.8886 1.6238-.026.0288-.0496.0535-.0709.0746-.0213-.0211-.0449-.0458-.0709-.0746-.2556-.2838-.5774-.8069-.8886-1.6238-.617-1.6198-1.0405-3.9925-1.0405-6.7126s.4235-5.0928 1.0405-6.7126c.3112-.8169.633-1.34.8886-1.6238.026-.0288.0496-.0535.0709-.0746.0213.0211.0449.0458.0709.0746.2556.2838.5774.8069.8886 1.6238.617 1.6198 1.0405 3.9925 1.0405 6.7126zm-2.1422 8.5254c0-.0004.0036-.0024.0107-.0053-.0071.0042-.0107.0056-.0107.0053zm.2737-.0053c.0071.0029.0107.0049.0107.0053 0 .0003-.0036-.0011-.0107-.0053z" fill="#333" fill-rule="evenodd"/></svg>