<svg fill="none" height="48" viewBox="0 0 48 48" width="48" xmlns="http://www.w3.org/2000/svg"><g clip-rule="evenodd" fill="#333" fill-rule="evenodd"><path d="m24 42c9.9411 0 18-8.0589 18-18s-8.0589-18-18-18-18 8.0589-18 18 8.0589 18 18 18zm0 2c11.0457 0 20-8.9543 20-20s-8.9543-20-20-20-20 8.9543-20 20 8.9543 20 20 20z"/><path d="m16.2218 31.7782c-.3906-.3905-.3906-1.0237 0-1.4142l14.1421-14.1422c.3905-.3905 1.0237-.3905 1.4142 0 .3905.3906.3905 1.0237 0 1.4142l-14.1421 14.1422c-.3906.3905-1.0237.3905-1.4142 0z"/><path d="m16.2218 16.2218c.3906-.3905 1.0237-.3905 1.4143 0l14.1421 14.1422c.3905.3905.3905 1.0236 0 1.4142-.3905.3905-1.0237.3905-1.4142 0l-14.1422-14.1422c-.3905-.3905-.3905-1.0237 0-1.4142z"/></g></svg>