<svg fill="none" height="48" viewBox="0 0 48 48" width="48" xmlns="http://www.w3.org/2000/svg"><g fill="#333"><path clip-rule="evenodd" d="m5.02711 12.004c.15011 2.6911.91605 4.357 2.03775 5.3836-.54768.4079-.8652 1.0926-.74862 1.8329.57236 3.6346 2.00331 11.3226 4.93666 19.9885.583 1.7224 2.9115 1.7224 3.4945 0 2.9333-8.6659 4.3643-16.3539 4.9367-19.9885.1165-.7403-.201-1.425-.7487-1.833 1.1217-1.0265 1.8876-2.6924 2.0377-5.3835.0308-.5514-.4222-1.0056-.9744-.9977-1.6281.0234-2.9212.1223-3.93.4614-.4164-1.0984-1.2571-2.13544-2.5223-3.08214-.3232-.24186-.7694-.24186-1.0926 0-1.2549.93901-2.0923 1.96684-2.51209 3.05534-.97964-.2889-2.26247-.4035-3.93759-.4328-.5522-.0097-1.00777.4445-.97701.9959zm9.85389 1.9729-.6824-1.8003c-.189-.4984-.5583-1.0589-1.1985-1.6501-.6335.585-1.0017 1.1399-1.1924 1.6342l-.6634 1.72-1.76834-.5215c-.52165-.1538-1.23395-.2565-2.23468-.3112.29731 1.9281 1.01195 2.743 1.66343 3.1644.93152.6024 2.28879.7857 4.16549.7876h.0598c1.8768-.0019 3.234-.1852 4.1655-.7876.6521-.4218 1.3675-1.2378 1.6643-3.1699-.9698.0508-1.6506.1518-2.1538.3209zm-6.57479 5.0231h9.38789c-.2865 1.8074-.7839 4.5992-1.5698 8h-4.1243v2h3.645c-.6907 2.7823-1.5605 5.8825-2.6449 9.13-.3542-1.061-.6856-2.1064-.9953-3.13h.9952v-2h-1.5814c-.9575-3.374-1.67388-6.452-2.19754-9h2.77894v-2h-3.17254c-.22107-1.1762-.39248-2.1875-.52125-3z" fill-rule="evenodd"/><path d="m38.2425 28.0298c.5358.134.8616.6769.7276 1.2127-.5895 2.3583-2.3693 4.138-4.7276 4.7276-.5358.134-1.0787-.1918-1.2126-.7276-.134-.5358.1918-1.0787.7276-1.2127 1.6417-.4104 2.8619-1.6307 3.2724-3.2724.1339-.5358.6768-.8615 1.2126-.7276z"/><path clip-rule="evenodd" d="m32.6508 21.0274c-1.1088-2.5929-.9166-5.3474 1.0563-7.3203l-1.4142-1.4142c-2.3294 2.3293-2.7339 5.3774-1.9526 8.1779-4.5757-2.0702-9.3403 1.7369-9.3403 7.5292 0 5.5228 4.9249 10 11 10s11-4.4772 11-10c0-6.2202-5.4945-10.151-10.3492-6.9726zm-.6508 3.0338-1.2494-.9995c-1.8579-1.4864-3.6884-1.4038-5.0746-.5476-1.4656.9052-2.676 2.8434-2.676 5.4859 0 4.2431 3.8458 8 9 8s9-3.7569 9-8c0-2.6425-1.2104-4.5807-2.676-5.4859-1.3862-.8562-3.2167-.9388-5.0746.5476z" fill-rule="evenodd"/><path d="m34 18c3 0 5-2 5-5-3 0-5 2-5 5z"/></g></svg>