<svg fill="none" height="48" viewBox="0 0 48 48" width="48" xmlns="http://www.w3.org/2000/svg"><path clip-rule="evenodd" d="m15.3012 7.19155c2.5884-1.33365 5.5601-2.19155 8.7105-2.19155 3.1294 0 6.0868.75752 8.6926 2.09998.3332.17166.5424.51522.542.89004l-.0073 6.76658 6.7728.0051c.3742.0003.7169.2094.8882.5421 1.3429 2.607 2.1004 5.5644 2.1004 8.6954 0 3.1293-.7575 6.0867-2.1 8.6925-.1717.3332-.5152.5424-.89.542l-6.774-.0072-.0051 6.785c-.0003.3741-.2093.7168-.5419.8882-2.6059 1.3429-5.5629 2.1004-8.6939 2.1004s-6.0871-.7575-8.694-2.0998c-.3333-.1717-.5426-.5153-.5422-.8902l.0072-6.7774-6.77778-.0044c-.3742-.0002-.71695-.2094-.88833-.542-1.34287-2.6067-2.10039-5.5641-2.10039-8.6946 0-3.1311.75754-6.0871 2.09944-8.6936.1716-.3333.51522-.5426.89011-.5422l6.77765.0069-.0079-6.68112c-.0005-.37484.2087-.71845.5419-.89013zm-1.681 9.57005-5.00994-.0051c-1.03251 2.1946-1.61026 4.6458-1.61026 7.2352 0 2.5895.57799 5.0422 1.61141 7.237l5.01639.0032c-1.4329-2.0508-2.2744-4.5472-2.2744-7.2402 0-2.688.8387-5.1805 2.2668-7.2301zm2.9438 14.8676c-.0273-.036-.0573-.0704-.0898-.103-1.929-1.9289-3.1208-4.5907-3.1208-7.5345 0-2.8808 1.1417-5.4924 2.999-7.4124.0433-.0312.0846-.0661.1231-.1047 1.9289-1.9289 4.5922-3.1208 7.5362-3.1208 2.8963 0 5.521 1.1544 7.4421 3.029.0224.0278.0464.0546.0721.0802 1.9291 1.9288 3.1207 4.5921 3.1207 7.5362 0 2.9145-1.1686 5.5544-3.0647 7.4781-.0178.0154-.0351.0315-.0519.0483-1.9289 1.9293-4.591 3.1207-7.5345 3.1207-2.8905 0-5.5103-1.149-7.4315-3.0171zm.2013 2.7507-.0054 5.0096c2.1949 1.0329 4.6462 1.6106 7.2356 1.6106 2.5899 0 5.0422-.578 7.2363-1.6113l.0037-5.0165c-2.0509 1.4328-4.5475 2.274-7.24 2.274-2.6878 0-5.1806-.8383-7.2302-2.2664zm17.6153-3.1522 5.0093.0054c1.0327-2.1939 1.6105-4.6461 1.6105-7.2339 0-2.59-.578-5.0427-1.6115-7.238l-5.0165-.0037c1.433 2.0514 2.2742 4.5488 2.2742 7.2417 0 2.687-.8381 5.1797-2.266 7.2285zm-3.1403-17.6078.0053-5.00941c-2.1939-1.03272-4.646-1.61049-7.2339-1.61049-2.5732 0-5.039.64771-7.2517 1.70055l.0059 4.93055c2.0521-1.4347 4.5511-2.2773 7.2458-2.2773 2.6872 0 5.1797.8384 7.2286 2.2661z" fill="#333" fill-rule="evenodd"/></svg>