<svg fill="none" height="48" viewBox="0 0 48 48" width="48" xmlns="http://www.w3.org/2000/svg"><g clip-rule="evenodd" fill="#333" fill-rule="evenodd"><path d="m22.0826 5.18344c1.0208-.26736 1.9175.53676 1.9175 1.4973 0 .70357-.4607 1.27342-1.0555 1.49026-2.3028.83965-3.9445 3.0489-3.9445 5.639 0 3.3137 2.6863 6 6 6s6-2.6863 6-6c0-2.5901-1.6417-4.79935-3.9446-5.639-.5947-.21684-1.0554-.7867-1.0554-1.49026 0-.96054.8967-1.76466 1.9175-1.4973 4.6272 1.212 8.0825 5.25936 8.0825 10.12656 0 1.4155-.2939 2.7658-.8254 3.9975.8681.1485 1.7281.413 2.5603.8011 4.4111 2.0569 6.619 6.8989 5.7619 11.6049-.1891 1.0381-1.2969 1.5109-2.1674 1.105-.6376-.2973-.9594-.9557-.9046-1.5864.2123-2.4419-1.0961-4.8634-3.4436-5.9581-3.0032-1.4004-6.5731-.1011-7.9735 2.9022-1.4005 3.0032-.1011 6.5731 2.9021 7.9735 2.3474 1.0947 5.0435.5404 6.7777-1.1918.4478-.4474 1.159-.6241 1.7967-.3268.8705.406 1.2203 1.5585.5466 2.3706-3.054 3.6816-8.1824 5.1026-12.5935 3.0456-1.3624-.6353-2.518-1.5398-3.4373-2.6254-.9194 1.0856-2.0749 1.9901-3.4373 2.6254-4.4112 2.057-9.5396.636-12.5936-3.0456-.67371-.8121-.32389-1.9646.54665-2.3706.63765-.2973 1.34885-.1206 1.79665.3268 1.7342 1.7322 4.4303 2.2865 6.7777 1.1918 3.0033-1.4004 4.3026-4.9703 2.9022-7.9735-1.4005-3.0033-4.9704-4.3026-7.9736-2.9022-2.3474 1.0947-3.65585 3.5162-3.4436 5.9581.05481.6307-.26694 1.2891-.90459 1.5864-.87053.406-1.97829-.0669-2.16737-1.105-.85712-4.706 1.3508-9.548 5.76196-11.6049.8321-.3881 1.6922-.6526 2.5603-.8012-.5315-1.2316-.8254-2.5819-.8254-3.9974 0-4.8672 3.4552-8.91456 8.0825-10.12656zm-4.1335 4.84396c-1.2237 1.4563-1.949 3.2959-1.949 5.2826 0 1.5776.4543 3.0545 1.2493 4.3227.1918.3061.2037.6918.0311 1.0091-.1727.3173-.5031.5168-.8643.5219-1.1167.0158-2.2386.2599-3.3058.7575-1.8005.8396-3.16124 2.2744-3.96394 3.9989.76469-1.0246 1.78674-1.8803 3.02714-2.4587 3.0396-1.4174 6.5145-.7606 8.8292 1.3896.0515-1.4069.8296-2.6283 1.9702-3.3001-3.4367-.8975-5.9729-4.023-5.9729-7.7409 0-1.3686.3436-2.6565.949-3.7826zm9.078 11.5235c1.1406.6718 1.9187 1.8932 1.9702 3.3001 2.3147-2.1502 5.7896-2.807 8.8293-1.3896 1.2403.5784 2.2624 1.4341 3.0271 2.4587-.8027-1.7245-2.1635-3.1593-3.964-3.9989-1.0671-.4976-2.1891-.7417-3.3057-.7575-.3612-.0051-.6916-.2046-.8643-.5219-.1726-.3173-.1608-.703.0311-1.0091.795-1.2682 1.2493-2.7451 1.2493-4.3227 0-1.9867-.7254-3.8263-1.949-5.2826.6054 1.1261.949 2.414.949 3.7826 0 3.7179-2.5363 6.8435-5.973 7.7409zm-.3017 7.0589c-.5224.2501-1.1075.3902-1.7254.3902-.6178 0-1.2029-.1401-1.7253-.3902 1.0097 3.6908-.7543 7.6809-4.3392 9.3525-1.2404.5784-2.5529.8113-3.8293.7385 1.837.4936 3.8108.3735 5.6113-.4661 1.4579-.6798 2.6214-1.7435 3.4374-3.0336.1833-.2897.5023-.4654.8452-.4654.3428 0 .6618.1757.8451.4654.816 1.2901 1.9795 2.3538 3.4374 3.0336 1.8005.8396 3.7743.9597 5.6113.4661-1.2764.0728-2.5889-.1601-3.8292-.7385-3.585-1.6716-5.349-5.6617-4.3393-9.3525zm-1.7254-5.6098c-1.1045 0-2 .8954-2 2s.8955 2 2 2c1.1046 0 2-.8954 2-2s-.8954-2-2-2z"/><path d="m20.4756 31.5989c-.1043.5759-.3089 1.1302-.6038 1.636-.0504.0863-.1034.1713-.159.2547-.17-.1062-.3367-.2173-.4998-.3332-.3839-.2729-.7477-.5723-1.0888-.8954-1.2906-1.2225-2.2555-2.7854-2.7509-4.545-.1208-.4291-.2137-.8699-.2766-1.3203-.0303-.2169-.0537-.4361-.0698-.6573.1086-.0115.2172-.0194.3256-.0237.5806-.0233 1.1565.0557 1.7023.2275-.0001 0 0 .0001 0 0 .2753 2.3464 1.5661 4.3825 3.4208 5.6567zm14.172-5.8842c-.5805-.0233-1.1565.0557-1.7023.2275-.0001.0001.0001 0 0 0-.2753 2.3464-1.5661 4.3823-3.4208 5.6564 0 .0001-.0001-.0001 0 0 .1043.576.3089 1.1306.6039 1.6363.0503.0864.1033.1713.1589.2546.17-.1061.3367-.2172.4997-.3331.384-.2729.7478-.5722 1.0889-.8954 1.2906-1.2225 2.2555-2.7854 2.7509-4.545.1208-.4291.2137-.87.2766-1.3205.0303-.2169.0537-.436.0698-.6571-.1086-.0115-.2172-.0194-.3256-.0237zm-12.2308-10.3778c-.6581.1754-1.2896.4164-1.8869.7154.3122.6213.7502 1.1685 1.2805 1.6083.0002.0001-.0001-.0001 0 0 .9307-.405 1.9538-.6378 3.0284-.659.0536-.0011.1074-.0016.1612-.0016.0504 0 .1006.0005.1507.0014 1.0785.0199 2.1049.2533 3.0386.6596.0001-.0001-.0002.0001 0 0 .5303-.4398.9687-.9874 1.281-1.6087-.5973-.299-1.2288-.5399-1.887-.7154-.824-.2198-1.69-.3369-2.5833-.3369-.8932 0-1.7591.1171-2.5832.3369z"/></g></svg>