<svg fill="none" height="49" viewBox="0 0 49 49" width="49" xmlns="http://www.w3.org/2000/svg"><path d="m0 0h48v48h-48z" fill="#fff" transform="matrix(.99999966 -.000819 .000819 .99999966 0 1)"/><g fill="#333"><path d="m33.0059 7.97299c-.0005-.55229.4469-1.00037.9991-1.00082.5523-.00045 1.0004.44689 1.0009.99918l.0278 33.99995c.0005.5523-.4469 1.0004-.9992 1.0009-.5523.0004-1.0003-.4469-1.0008-.9992z"/><path d="m13.0059 7.98937c-.0005-.55229.4469-1.00037.9991-1.00082.5523-.00045 1.0004.44689 1.0009.99918l.0278 33.99997c.0005.5523-.4469 1.0004-.9992 1.0008-.5523.0005-1.0003-.4469-1.0008-.9991z"/><path d="m23.0091 11.9812c-.0004-.5523.4469-1.0004.9992-1.0008.5523-.0005 1.0004.4469 1.0008.9991l.0033 4c.0005.5523-.4469 1.0004-.9992 1.0009-.5523.0004-1.0003-.4469-1.0008-.9992z"/><path d="m23.0181 22.9812c-.0004-.5523.4469-1.0004.9992-1.0008.5523-.0005 1.0004.4468 1.0008.9991l.0033 4c.0005.5523-.4469 1.0004-.9992 1.0009-.5522.0004-1.0003-.4469-1.0008-.9992z"/><path d="m23.0272 33.9812c-.0005-.5523.4468-1.0004.9991-1.0008.5523-.0005 1.0004.4468 1.0009.9991l.0032 4c.0005.5523-.4469 1.0004-.9992 1.0009-.5522.0004-1.0003-.4469-1.0008-.9992z"/></g></svg>