<svg fill="none" height="49" viewBox="0 0 49 49" width="49" xmlns="http://www.w3.org/2000/svg"><g fill="#333"><path d="m33.0197 7.98033c0-.55228.4477-1 1-1s1 .44772 1 1v33.99997c0 .5523-.4477 1-1 1s-1-.4477-1-1z"/><path d="m13.0197 7.98033c0-.55228.4477-1 1-1s1 .44772 1 1v33.99997c0 .5523-.4477 1-1 1s-1-.4477-1-1z"/><path d="m23.0197 11.9803c0-.5523.4477-1 1-1s1 .4477 1 1v4c0 .5523-.4477 1-1 1s-1-.4477-1-1z"/><path d="m23.0197 22.9803c0-.5523.4477-1 1-1s1 .4477 1 1v4c0 .5523-.4477 1-1 1s-1-.4477-1-1z"/><path d="m23.0197 33.9803c0-.5523.4477-1 1-1s1 .4478 1 1v4c0 .5523-.4477 1-1 1s-1-.4477-1-1z"/></g></svg>