<svg fill="none" height="48" viewBox="0 0 48 48" width="48" xmlns="http://www.w3.org/2000/svg"><g clip-rule="evenodd" fill="#333" fill-rule="evenodd"><path d="m42 7c-4.5962 0-9.1475.90529-13.3939 2.66421-4.2464 1.75889-8.1048 4.33699-11.3548 7.58709-3.2501 3.25-5.8282 7.1084-7.58708 11.3548-1.75892 4.2464-2.66422 8.7976-2.66422 13.3939 0 .5523-.44772 1-1 1s-1-.4477-1-1c0-4.8589.95704-9.6702 2.81646-14.1593 1.85943-4.489 4.58484-8.5679 8.02064-12.0037 3.4357-3.4357 7.5146-6.16113 12.0036-8.02055 4.4891-1.85942 9.3004-2.81645 14.1593-2.81645.5523 0 1 .44772 1 1 0 .55229-.4477 1-1 1z"/><path d="m38.3763 15.2439c-.7451.1009-1.4833.2325-2.2129.3941l-.4323-1.9528c.7837-.1734 1.5765-.3148 2.3768-.4232zm-6.5022 1.7264c-1.3903.5625-2.7314 1.2398-4.0092 2.025l-1.047-1.7041c1.3725-.8432 2.8129-1.5708 4.3061-2.1749zm-7.6271 4.6865c-.563.4914-1.1071 1.0074-1.6305 1.5472-.5235.5398-1.0225 1.0995-1.4962 1.6774l-1.5467-1.2681c.5089-.6207 1.0449-1.2218 1.607-1.8016.5622-.5798 1.1466-1.134 1.7513-1.6617zm-5.6756 6.9228c-.7454 1.3014-1.3812 2.6627-1.9005 4.0696l-1.8763-.6927c.5579-1.5111 1.2407-2.9732 2.0413-4.371zm-3.1002 8.3979c-.1389.7342-.2478 1.4761-.3257 2.224l-1.9893-.2073c.0837-.8032.2007-1.6.3499-2.3887z"/><path d="m34.729 24.4463c2.3052-.9549 4.7759-1.4463 7.271-1.4463.5523 0 1 .4477 1 1s-.4477 1-1 1c-2.2325 0-4.4431.4397-6.5056 1.294-2.0625.8544-3.9366 2.1066-5.5152 3.6852s-2.8308 3.4526-3.6852 5.5152c-.8543 2.0625-1.294 4.2731-1.294 6.5056 0 .5523-.4477 1-1 1s-1-.4477-1-1c0-2.4951.4915-4.9658 1.4463-7.271s2.3544-4.3997 4.1187-6.164 3.8588-3.1639 6.164-4.1187z"/></g></svg>