<svg fill="none" height="48" viewBox="0 0 48 48" width="48" xmlns="http://www.w3.org/2000/svg"><path clip-rule="evenodd" d="m17 5c0-.55228.4477-1 1-1h12c.5523 0 1 .44772 1 1v4c0 .55228-.4477 1-1 1h-2v4c3.866 0 7 3.134 7 7v20c0 1.6569-1.3431 3-3 3h-16c-1.6569 0-3-1.3431-3-3v-20c0-3.866 3.134-7 7-7v-4h-2c-.5523 0-1-.44772-1-1zm5 5h4v5c0 .5523.4477 1 1 1h1c2.419 0 4.4367 1.7178 4.9 4h-17.8c.4633-2.2822 2.481-4 4.9-4h1c.5523 0 1-.4477 1-1zm-7 12v19c0 .5523.4477 1 1 1h16c.5523 0 1-.4477 1-1v-19zm4-16v2h10v-2zm1.4644 23.8293 2.1214 2.1214-2.121 2.121-.7074-.7074-1.4142 1.4142.7074.7074-.0004.0004 1.4143 1.4142.0003-.0004.7069.7068 1.4142-1.4142-.7068-.7068 2.1209-2.121 2.1213 2.1213-.7071.7072 1.4142 1.4142 2.8284-2.8285-1.4142-1.4142-.707.7071-2.1214-2.1213 2.1218-2.1218.7067.7067 1.4142-1.4142-2.8284-2.8284-1.4142 1.4142.7075.7075-2.1218 2.1218-2.1214-2.1215.7072-.7071-1.4142-1.4143-.7072.7072-1.4142 1.4142-.7071.7071 1.4143 1.4142z" fill="#333" fill-rule="evenodd"/></svg>