<svg fill="none" height="48" viewBox="0 0 48 48" width="48" xmlns="http://www.w3.org/2000/svg"><g clip-rule="evenodd" fill="#333" fill-rule="evenodd"><path d="m24 42c9.9411 0 18-8.0589 18-18s-8.0589-18-18-18-18 8.0589-18 18 8.0589 18 18 18zm0 2c11.0457 0 20-8.9543 20-20s-8.9543-20-20-20-20 8.9543-20 20 8.9543 20 20 20z"/><path d="m13 24c0-.5523.4477-1 1-1h20c.5523 0 1 .4477 1 1s-.4477 1-1 1h-20c-.5523 0-1-.4477-1-1z"/><path d="m24 13c.5523 0 1 .4477 1 1v20c0 .5523-.4477 1-1 1s-1-.4477-1-1v-20c0-.5523.4477-1 1-1z"/></g></svg>