<svg fill="none" height="48" viewBox="0 0 48 48" width="48" xmlns="http://www.w3.org/2000/svg"><path clip-rule="evenodd" d="m10 4c-.55228 0-1 .44772-1 1v38c0 .5523.44772 1 1 1h28c.5523 0 1-.4477 1-1v-28c0-.2652-.1054-.5196-.2929-.7071l-10-10.00001c-.1875-.18753-.4419-.29289-.7071-.29289zm1 38v-36h16v9c0 .5523.4477 1 1 1h9v26zm24.5858-28-6.5858-6.58579v6.58579zm-18.5858 19h2v-7h1.5857l5.0001 5.0001-3.2929 3.2929 1.4143 1.4142 3.2928-3.2929 3.2928 3.2929 1.4143-1.4142-3.2929-3.2929 3.293-3.2929-1.4143-1.4142-3.2929 3.2929-3.6052-3.6051c2.0238-.1983 3.6052-1.9049 3.6052-3.9808 0-2.2091-1.7909-4-4-4h-5c-.5523 0-1 .4477-1 1zm6-9h-4v-4h4c1.1046 0 2 .8954 2 2s-.8954 2-2 2z" fill="#333" fill-rule="evenodd"/></svg>