<svg fill="none" height="48" viewBox="0 0 48 48" width="48" xmlns="http://www.w3.org/2000/svg"><path clip-rule="evenodd" d="m8 8v7h7v-7zm-1-2c-.55228 0-1 .44771-1 1v9c0 .5523.44771 1 1 1h9c.5523 0 1-.4477 1-1v-9c0-.55228-.4477-1-1-1zm26 27v7h7v-7zm-1-2c-.5523 0-1 .4477-1 1v9c0 .5523.4477 1 1 1h9c.5523 0 1-.4477 1-1v-9c0-.5523-.4477-1-1-1zm-1.6087-2.0229-3.1842-3.1842-1.4142 1.4142 3.1842 3.1842zm-8.7139-8.7139 3.9771 3.9771-1.4142 1.4142-3.9771-3.9771v4.2173h-2v-6.6315-1h1 6.6315v2z" fill="#333" fill-rule="evenodd"/></svg>