<svg fill="none" height="48" viewBox="0 0 48 48" width="48" xmlns="http://www.w3.org/2000/svg"><path clip-rule="evenodd" d="m24.4999 29.2531c0-.9359.6491-1.7467 1.5624-1.9515 1.6942-.3799 3.5489-1.0468 5.1922-2.0955 2.602-1.6604 4.7454-4.3367 4.7454-8.3613 0-3.5571-1.3556-6.2472-3.479-8.05921-2.0978-1.79014-4.873-2.66463-7.6568-2.77376-2.6344-.10327-5.5859.51982-8.0093 1.90645-2.395 1.37029-4.2006 3.43312-4.8308 6.24962-.1205.539.2186 1.0736.7576 1.1942.5389.1206 1.0736-.2186 1.1942-.7575.9429-4.2145 5.7854-6.79127 10.8099-6.5943 2.4436.09579 4.755.86135 6.437 2.2967 1.6567 1.4137 2.7772 3.5374 2.7772 6.5378 0 3.1754-1.6392 5.2829-3.8213 6.6754-2.2097 1.4101-4.9113 2.0318-6.7484 2.1601-.5239.0366-.9303.4723-.9303.9975v5.322c0 .5523.4477 1 1 1s1-.4477 1-1zm1.0401 4.9463c.5904-.5479.9599-1.3306.9599-2.1996v-2.7467c1.8629-.4176 3.9469-1.159 5.8305-2.361 3.0221-1.9285 5.6695-5.1737 5.6695-10.0473 0-4.1138-1.5907-7.37038-4.1807-9.58058-2.5138-2.14509-5.7529-3.12839-8.8768-3.25085-5.9417-.23292-13.3174 2.77757-14.8701 9.71783-.36175 1.6169.6557 3.2209 2.2726 3.5827 1.6169.3617 3.2209-.6558 3.5826-2.2727.6473-2.893 4.2716-5.20917 8.7799-5.0324 2.1012.0823 3.9495.7379 5.217 1.8195 1.1912 1.0165 2.0755 2.5743 2.0755 5.0165 0 2.3378-1.147 3.8726-2.8971 4.9894-1.8577 1.1855-4.213 1.7392-5.8119 1.8509-1.5719.1098-2.791 1.417-2.791 2.9927v5.322c0 1.0035.4927 1.8919 1.2493 2.4365.4927.3546 1.0973.5635 1.7507.5635.1704 0 .3374-.0142.5-.0415.5894-.0988 1.1206-.3696 1.5401-.7589zm.2733 2.2342c-.5443-.2773-1.1606-.4337-1.8134-.4337-.1693 0-.3362.0105-.5.0309-.6404.0799-1.2337.3111-1.7432.6568-1.0602.7194-1.7568 1.9345-1.7568 3.3123 0 2.2091 1.7909 4 4 4s4-1.7909 4-4c0-1.5564-.8888-2.9051-2.1866-3.5663zm-1.8134 1.5663c-1.1046 0-2 .8954-2 2 0 1.1045.8954 2 2 2s2-.8955 2-2c0-1.1046-.8954-2-2-2z" fill="#333" fill-rule="evenodd"/></svg>