<svg fill="none" height="48" viewBox="0 0 48 48" width="48" xmlns="http://www.w3.org/2000/svg"><g clip-rule="evenodd" fill="#333" fill-rule="evenodd"><path d="m24 42c9.9411 0 18-8.0589 18-18s-8.0589-18-18-18-18 8.0589-18 18 8.0589 18 18 18zm0 2c11.0457 0 20-8.9543 20-20s-8.9543-20-20-20-20 8.9543-20 20 8.9543 20 20 20z"/><path d="m24.6333 12.0073c-2.0428-.0679-4.1591.3368-5.8995 1.1925-1.7358.8534-3.2027 2.2143-3.7007 4.1033-.1409.534.1779 1.0811.7119 1.2219.5341.1408 1.0811-.178 1.222-.712.3008-1.1411 1.2299-2.1206 2.6492-2.8184 1.4095-.6929 3.1932-1.0468 4.9506-.9884 1.7629.0587 3.402.5281 4.5717 1.375 1.1352.822 1.8615 2.0157 1.8615 3.6941 0 1.7642-.9971 3.0526-2.4637 3.9702-1.4797.9257-3.3114 1.3801-4.5955 1.4562-.5283.0313-.9408.469-.9408.9983v2.5c0 .5523.4477 1 1 1s1-.4477 1-1v-.77c0-.4705.3279-.8773.7877-.9772 1.2508-.2719 2.6122-.7628 3.8094-1.5118 1.8306-1.1453 3.4029-2.9872 3.4029-5.6657 0-2.3657-1.0722-4.1437-2.6885-5.314-1.5799-1.1439-3.6405-1.6862-5.6782-1.754zm-6.7819-.6023c2.0715-1.0185 4.5203-1.47401 6.8483-1.3966 2.3123.0769 4.7944.6918 6.7847 2.133 2.097 1.5183 3.5156 3.8804 3.5156 6.9339 0 3.5949-2.15 5.9897-4.3422 7.3612-1.1716.733-2.4486 1.2451-3.6578 1.5771-.0073 1.6506-1.3477 2.9864-3 2.9864-1.6568 0-3-1.3432-3-3v-2.5c0-1.5879 1.2374-2.9008 2.8225-2.9948 1.0071-.0596 2.5024-.4354 3.653-1.1552 1.0883-.6809 1.5245-1.412 1.5245-2.2747 0-.994-.3828-1.6023-1.0344-2.0741-.7602-.5504-1.9783-.9466-3.4653-.9961-1.4718-.0489-2.923.254-4.0017.7843-1.0941.538-1.4922 1.1333-1.5977 1.5335-.4225 1.6021-2.0637 2.5584-3.6658 2.136s-2.5584-2.0636-2.136-3.6657c.6956-2.6379 2.7015-4.3799 4.7523-5.3882zm6.1491 22.595c-.5523 0-1 .4477-1 1s.4477 1 1 1 1-.4477 1-1-.4477-1-1-1zm-3 1c0-1.6569 1.3431-3 3-3s3 1.3431 3 3-1.3431 3-3 3-3-1.3431-3-3z"/></g></svg>