<svg fill="none" height="48" viewBox="0 0 48 48" width="48" xmlns="http://www.w3.org/2000/svg"><g clip-rule="evenodd" fill="#333" fill-rule="evenodd"><path d="m24 6c.3788 0 .725.214.8944.55279l17 34.00001c.155.31.1385.6781-.0437.9729-.1823.2948-.5041.4743-.8507.4743h-34c-.34658 0-.66844-.1795-.85065-.4743s-.19877-.6629-.04378-.9729l17.00003-34.00001c.1694-.33879.5156-.55279.8944-.55279zm-15.38197 34h30.76397l-15.382-30.76393z"/><path d="m24.9999 35c-.5523 0-1 .4477-1 1s.4477 1 1 1 1-.4477 1-1-.4477-1-1-1zm-3 1c0-1.6569 1.3431-3 3-3 1.6568 0 3 1.3431 3 3s-1.3432 3-3 3c-1.6569 0-3-1.3431-3-3z"/><path d="m20.4966 21.2847c1.209-.5862 2.5968-.821 3.8816-.7802 1.2714.0404 2.6874.3599 3.8667 1.1444 1.2562.8355 2.2526 2.2335 2.2526 4.1123 0 1.8768-.7742 3.3586-2.1005 4.2726-.3144.2166-.6388.3864-.9588.5198-.2519 1.1143-1.248 1.9464-2.4384 1.9464-1.3808 0-2.5-1.1193-2.5-2.5v-1.4414c0-1.3159 1.0201-2.4066 2.3331-2.4944.231-.0155.4095-.0448.5396-.0789.0466-.0122.0841-.0243.1136-.0353.0044-.0312.0084-.072.0103-.1239-.0062-.0043-.013-.009-.0206-.0141-.1956-.1301-.6293-.2901-1.2565-.31-.6143-.0195-1.1758.1045-1.5415.2818-.1658.0804-.2429.1457-.2718.1745-.3676 1.3024-1.7099 2.0797-3.0277 1.7413-1.3373-.3435-2.1429-1.706-1.7995-3.0433.4414-1.7185 1.7156-2.7888 2.9178-3.3716zm3.818 1.2188c-1.0168-.0323-2.074.1583-2.9455.5808-.8729.4232-1.6055 1.1052-1.8531 2.0695-.0687.2675.0924.54.3599.6087.2674.0687.5399-.0925.6086-.3599.1502-.5847.6094-1.0735 1.3208-1.4184.7028-.3407 1.5948-.5093 2.4776-.4812.8858.0282 1.712.2523 2.3006.6438.258.1716.5021.3927.675.6916.1784.3084.239.6269.239.9228 0 .5013-.0951.8741-.2355 1.1544-.1395.2785-.3345.4875-.5672.6479-.4781.3294-1.1186.4554-1.7284.4962-.2626.0176-.4666.2357-.4666.4989v1.4414c0 .2761.2238.5.5.5.2761 0 .5-.2239.5-.5v-.1764c0-.4465.2959-.8389.7252-.9615.3628-.1037.7181-.2554 1.0372-.4752.7358-.5071 1.2353-1.3452 1.2353-2.6257 0-1.0928-.5569-1.9127-1.3602-2.4471-.7855-.5224-1.8083-.7783-2.8227-.8106z"/></g></svg>