<svg fill="none" height="48" viewBox="0 0 48 48" width="48" xmlns="http://www.w3.org/2000/svg"><g clip-rule="evenodd" fill="#333" fill-rule="evenodd"><path d="m35 19c-2.2102 0-4 1.7898-4 4s1.7898 4 4 4 4-1.7898 4-4-1.7898-4-4-4zm-6 4c0-3.3148 2.6852-6 6-6s6 2.6852 6 6-2.6852 6-6 6-6-2.6852-6-6z"/><path d="m27.4963 34.429c-.4174.4109-.4963.7039-.4963.9043v3.6667h16v-3.6667c0-.2004-.0789-.4934-.4963-.9043-.4348-.4281-1.1263-.8636-2.038-1.2532-1.8322-.7829-4.0647-1.1758-5.4657-1.1758s-3.6335.3929-5.4657 1.1758c-.9117.3896-1.6032.8251-2.038 1.2532zm7.5037-4.429c-3.3375 0-10 1.7867-10 5.3333v5.6667h20v-5.6667c0-3.5466-6.6625-5.3333-10-5.3333z"/><path d="m15 39v-7h-2v9h14v-2z"/><path d="m14.0001 29.5858 5.7071 5.7071-1.4142 1.4142-4.2929-4.2929-4.29292 4.2929-1.41421-1.4142z"/><path d="m7 9c0-1.65685 1.34315-3 3-3h8c1.6569 0 3 1.34315 3 3v1h3 1v1 17 1h-1-6-2-4-2-6-1v-1-17-1h1 3zm0 3h-2v2h2zm0 4h-2v11h5v-4-2h2 4 2v2 4h5v-11h-2v1c0 1.6569-1.3431 3-3 3h-8c-1.65685 0-3-1.3431-3-3zm14-2h2v-2h-2zm-5 13v-4h-4v4zm-6-19c-.55228 0-1 .44772-1 1v8c0 .5523.44772 1 1 1h8c.5523 0 1-.4477 1-1v-8c0-.55228-.4477-1-1-1zm3 4v-3h2v3h3v2h-3v3h-2v-3h-3v-2z"/></g></svg>