<svg fill="none" height="48" viewBox="0 0 48 48" width="48" xmlns="http://www.w3.org/2000/svg"><g clip-rule="evenodd" fill="#333" fill-rule="evenodd"><path d="m28.4081 10.4273c-1.3756.2032-2.8258.4762-4.4081.8128-1.5823-.3366-3.0324-.6096-4.4081-.8128 1.245.4888 2.5105 1.0769 3.845 1.7213.3446.1664.5631.5159.5631.8985 0-.3826.2185-.7321.5631-.8985 1.3345-.6445 2.6-1.2325 3.845-1.7213zm-4.4081 24.9738c0 .5777-.4731.9991-1 1.0072v.1965c-6.2687-1.0611-10.6976-1.1274-17-.022v-23.5495c.69172-.1577 1.3564-.2965 2-.417v-2.0329c-1.02593.1835-2.10001.4119-3.24341.6873-.4454.1073-.75659.5076-.75659.9658v25.5385c0 .6327.58268 1.1054 1.20425.9869 7.07555-1.3499 11.52505-1.27 18.60375.0153.0649.0118.1294.0172.1927.0165.0629.0006.1269-.0048.1913-.0165 7.0787-1.2853 11.5282-1.3652 18.6037-.0154.6216.1186 1.2043-.3541 1.2043-.9869v-25.5384c0-.4582-.3112-.8585-.7566-.9658-1.1434-.2755-2.2175-.5038-3.2434-.6873v2.0328c.6436.1206 1.3083.2594 2 .4171v23.5494c-6.3024-1.1053-10.7313-1.039-17 .022v-.1964c-.5269-.0081-1-.4295-1-1.0072z"/><path d="m9 10.5065v22.5487c.00104.0015.00329.005.00746.0083.01437.0115.03288.0166.05299.0129 5.33965-.9798 9.35205.2194 13.91485 2.329.0052.0024.0078.0029.0082.0029l.0015.0001c.0018-.0001.0065-.0011.0118-.0045.0014-.0008.0024-.0016.0032-.0023 0-.0001 0 .0002 0 0v-22.3535c-4.9792-2.4045-8.7339-3.88072-14-2.5416zm14 2.5416c0-.0001 0-.0001 0 0zm-14.52611-4.47139c6.01871-1.54108 10.34681.23204 15.39791 2.67139.6914.3339 1.1282 1.0341 1.1282 1.799v22.354c0 1.4871-1.5475 2.4284-2.8641 1.8197-4.3804-2.0253-7.949-3.0516-12.71451-2.1773-1.21099.2222-2.42139-.6781-2.42139-1.9883v-22.5632c0-.87952.58253-1.68706 1.47389-1.91529z"/><path d="m39 10.5065v22.5487c-.001.0015-.0033.005-.0075.0083-.0143.0115-.0328.0166-.0529.0129-5.3397-.9798-9.3521.2194-13.9149 2.329-.0052.0024-.0078.0029-.0082.0029l-.0015.0001c-.0018-.0001-.0065-.0011-.0118-.0045-.0014-.0008-.0024-.0021-.0032-.0028 0-.0002 0 .0002 0 0v-22.354c4.9792-2.4045 8.7339-3.87972 14-2.5406zm-14 2.5406c0-.0001 0-.0001 0 0zm14.5261-4.47039c-6.0187-1.54108-10.3468.23204-15.3979 2.67139-.6914.3339-1.1282 1.0351-1.1282 1.8v22.3535c0 1.4871 1.5475 2.4279 2.8641 1.8192 4.3804-2.0253 7.949-3.0516 12.7145-2.1773 1.211.2222 2.4214-.6781 2.4214-1.9883v-22.5632c0-.87952-.5825-1.68706-1.4739-1.91529z"/><path d="m11.0104 29.0026c3.6691-.038 5.7165.3328 9.6116 1.9232l.756-1.8516c-4.1271-1.6852-6.4379-2.1124-10.3884-2.0715z"/><path d="m11.0104 25.0026c3.6691-.038 5.7165.3328 9.6116 1.9232l.756-1.8516c-4.1271-1.6852-6.4379-2.1124-10.3884-2.0715z"/><path d="m11.0104 21.0026c3.6691-.038 5.7165.3328 9.6116 1.9232l.756-1.8516c-4.1271-1.6852-6.4379-2.1124-10.3884-2.0715z"/><path d="m13.5 13v3h-2v-3z"/><path d="m17 14v3h-2v-3z"/><path d="m20.5 15v3h-2v-3z"/><path d="m36.9896 29.0026c-3.6691-.038-5.7165.3328-9.6116 1.9232l-.756-1.8516c4.1271-1.6852 6.4379-2.1124 10.3883-2.0715z"/><path d="m36.9896 25.0026c-3.6691-.038-5.7165.3328-9.6116 1.9232l-.756-1.8516c4.1271-1.6852 6.4379-2.1124 10.3883-2.0715z"/><path d="m36.9896 21.0026c-3.6691-.038-5.7165.3328-9.6116 1.9232l-.756-1.8516c4.1271-1.6852 6.4379-2.1124 10.3883-2.0715z"/><path d="m34.5 13v3h2v-3z"/><path d="m31 14v3h2v-3z"/><path d="m27.5 15v3h2v-3z"/></g></svg>