<svg fill="none" height="48" viewBox="0 0 48 48" width="48" xmlns="http://www.w3.org/2000/svg"><g clip-rule="evenodd" fill="#333" fill-rule="evenodd"><path d="m24 40c1.1046 0 2-.8954 2-2 0-1.0664-.6536-2.3702-1.5909-3.6004-.1371-.18-.2746-.351-.4091-.5116-.1345.1606-.272.3316-.4091.5116-.9373 1.2302-1.5909 2.534-1.5909 3.6004 0 1.1046.8954 2 2 2zm0 2c2.2091 0 4-1.7909 4-4 0-3.5-4-7-4-7s-4 3.5-4 7c0 2.2091 1.7909 4 4 4z"/><path d="m22 12c0-1.1046.8954-2 2-2s2 .8954 2 2v12h-4zm-1 14v2h6v-2zm8 1v3h-10v-3h-15v-2h1v-3c0-1.1046.89543-2 2-2h3v-1h-3v-5c0-1.1046.89543-2 2-2h7c1.1046 0 2 .8954 2 2v5h-3v1h5v-8c0-2.20914 1.7909-4 4-4s4 1.79086 4 4v8h5v-1h-3v-5c0-1.1046.8954-2 2-2h7c1.1046 0 2 .8954 2 2v5h-3v1h3c1.1046 0 2 .8954 2 2v3h1v2zm12-2v-3h-13v2h1v1zm-5-5v-1h-1v1zm-17 4v1h-12v-3h13v2zm-6-4h-1v-1h1zm3-6h-7v3h1v-2h2v2h1v-2h2v2h1zm16 0h7v3h-1v-2h-2v2h-1v-2h-2v2h-1z"/></g></svg>