<svg fill="none" height="48" viewBox="0 0 48 48" width="48" xmlns="http://www.w3.org/2000/svg"><path clip-rule="evenodd" d="m24 6c-9.9411 0-18 8.0589-18 18s8.0589 18 18 18 18-8.0589 18-18-8.0589-18-18-18zm-20 18c0-11.0457 8.9543-20 20-20s20 8.9543 20 20-8.9543 20-20 20-20-8.9543-20-20zm12 6v-16c0-.5523.4477-1 1-1h6c2.7614 0 5 2.2386 5 5 0 2.6273-2.0264 4.7813-4.6016 4.9844l4.6016 4.6015 4.2929-4.2929 1.4143 1.4142-4.293 4.2929 4.2929 4.2929-1.4143 1.4142-4.2928-4.2929-4.2928 4.2929-1.4143-1.4142 4.2929-4.2929-6.0001-6.0001h-2.5857v7zm2-9h5c1.6569 0 3-1.3431 3-3s-1.3431-3-3-3h-5z" fill="#333" fill-rule="evenodd"/></svg>