<svg fill="none" height="48" viewBox="0 0 48 48" width="48" xmlns="http://www.w3.org/2000/svg"><path clip-rule="evenodd" d="m37 11c0-.5523.4477-1 1-1 2.7614 0 5 2.2386 5 5v1.5909c0 1.3881-.6415 2.6264-1.6441 3.4346 1.5953 1.0784 2.6441 2.9039 2.6441 4.9745v3c0 .5523-.4477 1-1 1s-1-.4477-1-1v-3c0-2.2091-1.7909-4-4-4-.5523 0-1-.4477-1-1s.4477-1 1-1h.5909c1.3305 0 2.4091-1.0786 2.4091-2.4091v-1.5909c0-1.6569-1.3431-3-3-3-.5523 0-1-.4477-1-1zm-3 6c-1.6569 0-3 1.3431-3 3v1.8182c0 1.6568 1.3431 3 3 3h3c1.6569 0 3 1.3431 3 3v.1818c0 .5523-.4477 1-1 1s-1-.4477-1-1v-.1818c0-.5523-.4477-1-1-1h-3c-2.7614 0-5-2.2386-5-5v-1.8182c0-2.7614 2.2386-5 5-5 .5523 0 1 .4477 1 1s-.4477 1-1 1zm-27 13c-1.65685 0-3 1.3431-3 3v2c0 1.6569 1.34315 3 3 3h26c1.6569 0 3-1.3431 3-3v-2c0-1.6569-1.3431-3-3-3zm-1 3c0-.5523.44772-1 1-1h26c.5523 0 1 .4477 1 1v2c0 .5523-.4477 1-1 1h-26c-.55228 0-1-.4477-1-1zm34-1c0-.5523-.4477-1-1-1s-1 .4477-1 1v4c0 .5523.4477 1 1 1s1-.4477 1-1zm4 0c0-.5523-.4477-1-1-1s-1 .4477-1 1v4c0 .5523.4477 1 1 1s1-.4477 1-1z" fill="#333" fill-rule="evenodd"/></svg>