<svg fill="none" height="48" viewBox="0 0 48 48" width="48" xmlns="http://www.w3.org/2000/svg"><g fill="#333"><path d="m10 8.58582 29.4142 29.41418-1.4142 1.4142-29.41421-29.4142z"/><path d="m7 32c-.55228 0-1 .4477-1 1v2c0 .5523.44772 1 1 1h24c.5523 0 1 .4477 1 1s-.4477 1-1 1h-24c-1.65685 0-3-1.3431-3-3v-2c0-1.6569 1.34315-3 3-3h18.5c.5523 0 1 .4477 1 1s-.4477 1-1 1z"/><path d="m40 32c0-.5523-.4477-1-1-1s-1 .4477-1 1v2c0 .5523.4477 1 1 1s1-.4477 1-1z"/><path d="m34 17c-1.6569 0-3 1.3431-3 3v1.8182c0 1.6568 1.3431 3 3 3h3c1.6569 0 3 1.3431 3 3v.1818c0 .5523-.4477 1-1 1s-1-.4477-1-1v-.1818c0-.5523-.4477-1-1-1h-3c-2.7614 0-5-2.2386-5-5v-1.8182c0-2.7614 2.2386-5 5-5 .5523 0 1 .4477 1 1s-.4477 1-1 1z"/><path d="m38 19c-.5523 0-1 .4477-1 1s.4477 1 1 1c2.2091 0 4 1.7909 4 4v3c0 .5523.4477 1 1 1s1-.4477 1-1v-3c0-2.0706-1.0488-3.8961-2.6441-4.9745 1.0026-.8082 1.6441-2.0465 1.6441-3.4346v-1.5909c0-2.7614-2.2386-5-5-5-.5523 0-1 .4477-1 1s.4477 1 1 1c1.6569 0 3 1.3431 3 3v1.5909c0 1.3305-1.0786 2.4091-2.4091 2.4091z"/><path d="m44 32c0-.5523-.4477-1-1-1s-1 .4477-1 1v4c0 .5523.4477 1 1 1s1-.4477 1-1z"/></g></svg>