<svg fill="none" height="48" viewBox="0 0 48 48" width="48" xmlns="http://www.w3.org/2000/svg"><g clip-rule="evenodd" fill="#333" fill-rule="evenodd"><path d="m12 27c1.1054 0 2-.8946 2-2s-.8946-2-2-2-2 .8946-2 2 .8946 2 2 2zm4-2c0 2.21-1.79 4-4 4s-4-1.79-4-4 1.79-4 4-4 4 1.79 4 4z"/><path d="m11.2958 31.0041c-.0712-.0747-.1913-.226-.3402-.4135-.5085-.6406-1.35212-1.7035-1.72502-1.5733-2.10162.7335-4.23058 2.229-4.23058 4.479v1.1913c0 .7248.58763 1.3125 1.3125 1.3125h11.375c.7249 0 1.3125-.5877 1.3125-1.3125v-1.1913c0-2.25-2.129-3.7455-4.2306-4.479-.3728-.1301-1.2165.9326-1.7251 1.5731-.1489.1875-.269.3389-.3402.4136-.3456.0001-.5216 0-.6944 0-.1794 0-.3553 0-.7139.0001zm3.7485.2942c-.1299.1547-.2601.3174-.3867.4767-.0145.0182-.0293.0368-.0441.0554-.067.0844-.1359.1713-.1962.2457-.0638.0788-.1642.2016-.266.3083l-.5908.6193-.8558.0003c-.3538.0001-.5266 0-.6959 0-.1754 0-.3471 0-.7123.0001l-.8567.0003-.59125-.62c-.10182-.1067-.20219-.2295-.26603-.3083-.06023-.0744-.12913-.1612-.19608-.2455-.01485-.0187-.0296-.0373-.04415-.0556-.12656-.1593-.25678-.322-.3867-.4767-.49289.2467-.9259.5345-1.259.8474-.51067.4798-.69659.9212-.69659 1.3506v.5038h10v-.5038c0-.4294-.1859-.8708-.6966-1.3506-.3331-.3129-.7661-.6008-1.2591-.8474zm-6.57632-.5222c-.00909-.0066-.00973-.0078-.00149-.0012.00049.0004.00099.0008.00149.0012zm7.06542-.0012c.0083-.0065.0076-.0054-.0015.0012.0005-.0004.001-.0008.0015-.0012z"/><path d="m36 27c1.1054 0 2-.8946 2-2s-.8946-2-2-2-2 .8946-2 2 .8946 2 2 2zm4-2c0 2.21-1.79 4-4 4s-4-1.79-4-4 1.79-4 4-4 4 1.79 4 4z"/><path d="m33.7154 29.347c-.0888-.2584-.2893-.398-.4848-.3298-2.1016.7335-4.2306 2.2291-4.2306 4.479v1.1913c0 .7249.5876 1.3125 1.3125 1.3125h11.375c.7249 0 1.3125-.5876 1.3125-1.3125v-1.1913c0-2.2499-2.129-3.7455-4.2306-4.479-.1955-.0682-.396.0714-.4848.3298l-1.5805 1.6569c-.3456.0001-.5216.0001-.6945.0001-.1793 0-.3552-.0001-.7138.0001zm-.856 2.0003c-.453.2354-.8515.506-1.1628.7984-.5107.4798-.6966.9211-.6966 1.3505v.5038h10v-.5038c0-.4294-.1859-.8707-.6966-1.3505-.3113-.2924-.7098-.563-1.1629-.7984l-1.58 1.6563-.8558.0003c-.3537.0001-.5264.0001-.6957.0001-.1754 0-.3471-.0001-.7125.0001l-.8567.0002z"/><path d="m39 15h-30v-2h30z"/><path d="m11.7071 10.2929c.3905.3905.3905 1.0237 0 1.4142l-2.12131 2.1214 2.12131 2.1213c.3905.3905.3905 1.0237 0 1.4142s-1.0237.3905-1.4142 0l-2.12133-2.1213c-.78105-.7811-.78105-2.0474 0-2.8285l2.12133-2.1213c.3905-.3905 1.0237-.3905 1.4142 0z"/><path d="m36.2929 17.7071c-.3905-.3905-.3905-1.0237 0-1.4142l2.1213-2.1214-2.1213-2.1213c-.3905-.3905-.3905-1.0237 0-1.4142s1.0237-.3905 1.4142 0l2.1213 2.1213c.7811.7811.7811 2.0474 0 2.8285l-2.1213 2.1213c-.3905.3905-1.0237.3905-1.4142 0z"/></g></svg>