<svg fill="none" height="48" viewBox="0 0 48 48" width="48" xmlns="http://www.w3.org/2000/svg"><g stroke="#333" stroke-width="2"><path d="m8 14h32"/><path d="m10.8301 11-2.12134 2.1213c-.39053.3905-.39053 1.0237 0 1.4142l2.12134 2.1214" stroke-linecap="round"/><path d="m37.1699 16.6567 2.1213-2.1213c.3906-.3905.3906-1.0237 0-1.4142l-2.1213-2.1213" stroke-linecap="round"/><path d="m14 25.5c0 1.3815-1.1185 2.5-2.5 2.5s-2.5-1.1185-2.5-2.5 1.1185-2.5 2.5-2.5 2.5 1.1185 2.5 2.5z"/><path d="m5 34.2667c0-.7725.70876-1.5958 2.22607-2.2874 1.43215-.6528 3.16573-.9793 4.27393-.9793s2.8418.3265 4.2739.9793c1.5173.6916 2.2261 1.5149 2.2261 2.2874v2.7333h-13z"/><path d="m39 25.5c0 1.3815-1.1185 2.5-2.5 2.5s-2.5-1.1185-2.5-2.5 1.1185-2.5 2.5-2.5 2.5 1.1185 2.5 2.5z"/><path d="m30 34.2667c0-.7725.7088-1.5958 2.2261-2.2874 1.4321-.6528 3.1657-.9793 4.2739-.9793s2.8418.3265 4.2739.9793c1.5173.6916 2.2261 1.5149 2.2261 2.2874v2.7333h-13z"/></g></svg>