<svg fill="none" height="48" viewBox="0 0 48 48" width="48" xmlns="http://www.w3.org/2000/svg"><g clip-rule="evenodd" fill="#333" fill-rule="evenodd"><path d="m21 11v.1707c-.3128-.1105-.6494-.1707-1-.1707-1.6569 0-3 1.3431-3 3v1.1707c-.3128-.1105-.6494-.1707-1-.1707-1.6569 0-3 1.3431-3 3v11.5252c0 5.7851 4.6897 10.4748 10.4748 10.4748 3.6375 0 7.0145-1.8871 8.9209-4.985l5.7355-9.3202c.6507-1.0573.5844-2.4059-.1668-3.3943-1.1897-1.5654-3.5371-1.586-4.7541-.0418l-2.2103 2.8044v-11.0631c0-1.6569-1.3431-3-3-3-.3506 0-.6872.0602-1 .1707v-.1707c0-1.65685-1.3431-3-3-3s-3 1.34315-3 3zm4 0c0-.5523-.4477-1-1-1s-1 .4477-1 1v12h-2v-9c0-.5523-.4477-1-1-1s-1 .4477-1 1v11h-2v-7c0-.5523-.4477-1-1-1s-1 .4477-1 1v11.5252c0 4.6805 3.7943 8.4748 8.4748 8.4748 2.9429 0 5.6752-1.5268 7.2176-4.0332l5.7355-9.3202c.2178-.3538.1956-.8051-.0558-1.1359-.3982-.5239-1.1837-.5308-1.591-.014l-2.2103 2.8044c-1.1748 1.4905-3.5708.6598-3.5708-1.238v-11.0631c0-.5523-.4477-1-1-1s-1 .4477-1 1v9h-2z"/><path d="m24 4c11.0457 0 20 8.9543 20 20s-8.9543 20-20 20-20-8.9543-20-20 8.9543-20 20-20zm18 20c0-9.9411-8.0589-18-18-18s-18 8.0589-18 18 8.0589 18 18 18 18-8.0589 18-18z"/></g></svg>