<svg fill="none" height="48" viewBox="0 0 48 48" width="48" xmlns="http://www.w3.org/2000/svg"><g fill="#333"><g clip-rule="evenodd" fill-rule="evenodd"><path d="m21.8008 12.4012c.3308.4423.2404 1.0689-.2019 1.3997-1.3097.9794-2.5498 2.0551-3.7097 3.22-3.135 3.1486-5.622 6.8868-7.3189 11.0012-1.69687 4.1144-2.5703 8.5243-2.5703 12.978 0 .5522-.44772 1-1 1s-1-.4478-1-1c0-4.7151.92469-9.3842 2.72138-13.7406 1.79672-4.3564 4.43032-8.315 7.75052-11.6497 1.2285-1.2338 2.542-2.3732 3.9292-3.4106.4423-.3307 1.069-.2403 1.3997.202z"/><path d="m25.0958 22.7402-.7233.6905c-.5412.5167-1.0618 1.0576-1.5606 1.6208l-.663.7487-1.4972-1.326.6629-.7486c.5354-.6045 1.0947-1.1857 1.6769-1.7415l.7233-.6906zm-4.4525 5.0686-.5349.8449c-.7991 1.2619-1.5065 2.5952-2.1145 3.9862l-.4005.9162-1.8326-.801.4006-.9163c.6481-1.4827 1.403-2.9061 2.2572-4.2551l.535-.8448zm-3.8865 8.128-.262.9651c-.1966.7245-.368 1.4594-.5132 2.2028l-.1916.9815-1.9629-.3833.1916-.9814c.1544-.7908.3367-1.5725.546-2.3436l.262-.965z"/><path d="m31.8488 26.4712c.292.4688.1487 1.0856-.32 1.3776-.9359.583-1.8088 1.253-2.605 2.0007-1.5654 1.4703-2.8037 3.2124-3.6472 5.125-.8434 1.9124-1.2766 3.9597-1.2766 6.0255 0 .5523-.4477 1-1 1s-1-.4477-1-1c0-2.3465.4922-4.6685 1.4467-6.8326.9544-2.164 2.3514-4.1259 4.108-5.7757.8933-.839 1.8708-1.589 2.9165-2.2405.4688-.292 1.0855-.1487 1.3776.32z"/></g><path d="m42 7.5c0 .82843-.6716 1.5-1.5 1.5s-1.5-.67157-1.5-1.5.6716-1.5 1.5-1.5 1.5.67157 1.5 1.5z"/><path d="m42 12.5c0 .8284-.6716 1.5-1.5 1.5s-1.5-.6716-1.5-1.5.6716-1.5 1.5-1.5 1.5.6716 1.5 1.5z"/><path d="m42 17.5c0 .8284-.6716 1.5-1.5 1.5s-1.5-.6716-1.5-1.5.6716-1.5 1.5-1.5 1.5.6716 1.5 1.5z"/><path d="m41.5 21.3496c0 .5523-.4477 1-1 1s-1-.4477-1-1 .4477-1 1-1 1 .4477 1 1z"/><path d="m36.6868 7.92226c.1161.82025-.4547 1.57934-1.2749 1.69548-.8203.11615-1.5794-.45464-1.6955-1.27489-.1161-.82024.4546-1.57934 1.2749-1.69548.8202-.11614 1.5793.45465 1.6955 1.27489z"/><path d="m37.3879 12.8728c.1162.8203-.4546 1.5794-1.2749 1.6955-.8202.1161-1.5793-.4546-1.6954-1.2749-.1162-.8202.4546-1.5793 1.2749-1.6955.8202-.1161 1.5793.4547 1.6954 1.2749z"/><path d="m38.0889 17.8235c.1161.8203-.4547 1.5793-1.2749 1.6955-.8203.1161-1.5794-.4547-1.6955-1.2749s.4546-1.5793 1.2749-1.6955c.8202-.1161 1.5793.4547 1.6955 1.2749z"/><path d="m38.79 22.7741c.1162.8202-.4546 1.5793-1.2749 1.6954-.8202.1162-1.5793-.4546-1.6954-1.2748-.1162-.8203.4546-1.5794 1.2749-1.6955.8202-.1162 1.5793.4546 1.6954 1.2749z"/><path d="m30.0448 9.63063c.3396.75567.0024 1.64347-.7533 1.98307-.7556.3396-1.6434.0023-1.983-.7533-.3396-.7557-.0023-1.6435.7533-1.98309.7556-.33958 1.6435-.00231 1.983.75332z"/><path d="m32.0947 14.1912c.3395.7556.0023 1.6434-.7534 1.983-.7556.3396-1.6434.0023-1.983-.7533s-.0023-1.6435.7533-1.983c.7556-.3396 1.6435-.0024 1.9831.7533z"/><path d="m34.1442 18.7517c.3396.7556.0023 1.6435-.7533 1.9831s-1.6435.0023-1.9831-.7533c-.3395-.7557-.0023-1.6435.7534-1.9831.7556-.3396 1.6434-.0023 1.983.7533z"/><path d="m35.0767 22.2662c.2264.5038.0015 1.0957-.5022 1.3221-.5038.2264-1.0957.0015-1.3221-.5022-.2263-.5038-.0015-1.0957.5023-1.3221.5037-.2264 1.0956-.0015 1.322.5022z"/><path d="m23.0252 11.9106c.5384.6297.4644 1.5765-.1653 2.1149-.6296.5383-1.5765.4643-2.1148-.1653-.5384-.6297-.4644-1.5765.1652-2.1149.6297-.5384 1.5766-.4643 2.1149.1653z"/><path d="m26.6485 16.6817c.5384.6297.4644 1.5765-.1653 2.1149-.6296.5384-1.5765.4643-2.1149-.1653-.5383-.6297-.4643-1.5765.1653-2.1149.6297-.5383 1.5765-.4643 2.1149.1653z"/><path d="m29.8978 20.482c.5383.6297.4643 1.5765-.1653 2.1149-.6297.5383-1.5765.4643-2.1149-.1653-.5384-.6297-.4643-1.5765.1653-2.1149.6297-.5383 1.5765-.4643 2.1149.1653z"/><path d="m33.147 25.2823c.5384.6297.4644 1.5765-.1653 2.1149-.6296.5383-1.5765.4643-2.1148-.1653-.5384-.6297-.4644-1.5765.1653-2.1149.6296-.5384 1.5765-.4643 2.1148.1653z"/><path d="m27.5616 13.6911c0 .4794-.3887.868-.8681.868s-.8681-.3886-.8681-.868c0-.4795.3887-.8681.8681-.8681s.8681.3886.8681.8681z"/><path d="m30.1546 18.0338c0 .4795-.3886.8681-.8681.8681-.4794 0-.868-.3886-.868-.8681 0-.4794.3886-.868.868-.868.4795 0 .8681.3886.8681.868z"/><path d="m34.5787 15.9211c0 .4794-.3887.868-.8681.868s-.8681-.3886-.8681-.868c0-.4795.3887-.8681.8681-.8681s.8681.3886.8681.8681z"/><path d="m39.3343 15.1321c0 .4794-.3887.8681-.8681.8681s-.8681-.3887-.8681-.8681.3887-.8681.8681-.8681.8681.3887.8681.8681z"/><path d="m33.5777 11.3605c0 .4794-.3887.8681-.8681.8681s-.868-.3887-.868-.8681.3886-.8681.868-.8681.8681.3887.8681.8681z"/><path d="m39.0001 10.1319c0 .4794-.3887.868-.8681.868s-.8681-.3886-.8681-.868c0-.47946.3887-.86811.8681-.86811s.8681.38865.8681.86811z"/></g></svg>