<svg fill="none" height="48" viewBox="0 0 48 48" width="48" xmlns="http://www.w3.org/2000/svg"><g clip-rule="evenodd" fill="#333" fill-rule="evenodd"><path d="m24 31c2.1533 0 4-1.8156 4-4.1818 0-2.0809-1.2057-4.6129-2.6705-6.8377-.4582-.6961-.9179-1.3268-1.3295-1.8607-.4115.5339-.8712 1.1646-1.3295 1.8607-1.4648 2.2248-2.6705 4.7568-2.6705 6.8377 0 2.3662 1.8467 4.1818 4 4.1818zm-1.3034-14.4602c-1.7648 2.2277-4.6966 6.4973-4.6966 10.2784 0 3.4141 2.6863 6.1818 6 6.1818s6-2.7677 6-6.1818c0-3.7811-2.9317-8.0507-4.6965-10.2784-.7599-.9592-1.3035-1.5398-1.3035-1.5398s-.5435.5806-1.3034 1.5398z"/><path d="m14.8607 10.8671c-3.138 2.1837-5.39031 5.4189-6.34922 9.1198-.9589 3.7008-.56096 7.6227 1.12176 11.0555 1.68276 3.4328 4.53896 6.1497 8.05166 7.6586s7.4496 1.7102 11.0978.5675l.5979 1.9085c-4.1043 1.2857-8.5333 1.0592-12.4851-.6384-3.9517-1.6975-7.16504-4.754-9.05811-8.6159-1.89306-3.8619-2.34074-8.274-1.26197-12.4375 1.07876-4.1634 3.61268-7.803 7.14288-10.25973z"/><path d="m33.1393 37.1329c3.138-2.1837 5.3904-5.4189 6.3493-9.1198.9589-3.7008.5609-7.6227-1.1218-11.0555s-4.539-6.1497-8.0517-7.6586c-3.5127-1.50894-7.4495-1.71023-11.0978-.56744l-.5978-1.90856c4.1043-1.28564 8.5332-1.05918 12.485.63837 3.9518 1.69756 7.1651 4.75403 9.0581 8.61593 1.8931 3.8619 2.3408 8.274 1.262 12.4375-1.0787 4.1634-3.6126 7.803-7.1429 10.2597z"/><path d="m14 10h-6.99998v-2h8.99998v9h-2z"/><path d="m34 38h7v2h-9v-9h2z"/></g></svg>