<svg fill="none" height="48" viewBox="0 0 48 48" width="48" xmlns="http://www.w3.org/2000/svg"><g clip-rule="evenodd" fill="#333" fill-rule="evenodd"><path d="m24 31c2.1533 0 4-1.8156 4-4.1818 0-2.0809-1.2057-4.6129-2.6705-6.8377-.4582-.6961-.918-1.3268-1.3295-1.8607-.4115.5339-.8713 1.1646-1.3295 1.8607-1.4648 2.2248-2.6705 4.7568-2.6705 6.8377 0 2.3662 1.8467 4.1818 4 4.1818zm-1.3034-14.4602c-1.7648 2.2277-4.6966 6.4973-4.6966 10.2784 0 3.4141 2.6863 6.1818 6 6.1818s6-2.7677 6-6.1818c0-3.7811-2.9318-8.0507-4.6966-10.2784-.7599-.9592-1.3034-1.5398-1.3034-1.5398s-.5435.5806-1.3034 1.5398z"/><path d="m33.8996 14.1007c-5.4674-5.46729-14.3317-5.46729-19.799 0l-1.4142-1.4142c6.2484-6.24835 16.379-6.24835 22.6274 0 3.1111 3.1112 4.6734 7.1868 4.6862 11.2632v.0031 3.633l3.293-3.293 1.4142 1.4142-5 5-.7071.7071-.7071-.7071-5-5 1.4142-1.4142 3.2928 3.2928v-3.6296-.0016c-.0116-3.5692-1.3782-7.1314-4.1004-9.8537zm-19.799 19.799c5.4673 5.4674 14.3316 5.4674 19.799 0l1.4142 1.4143c-6.2484 6.2483-16.379 6.2483-22.6274 0-3.12321-3.1232-4.6855-7.2184-4.68632-11.3105v-.0002-3.5892l-3.2929 3.2929-1.41421-1.4142 5-5 .70711-.7071.7071.7071 5.00002 5-1.4142 1.4142-3.2929-3.2929v3.589.0002c.0007 3.5834 1.3674 7.1633 4.1005 9.8964z"/></g></svg>