<svg fill="none" height="48" viewBox="0 0 48 48" width="48" xmlns="http://www.w3.org/2000/svg"><g clip-rule="evenodd" fill="#333" fill-rule="evenodd"><path d="m24 42c9.9411 0 18-8.0589 18-18s-8.0589-18-18-18-18 8.0589-18 18 8.0589 18 18 18zm0 2c11.0457 0 20-8.9543 20-20s-8.9543-20-20-20-20 8.9543-20 20 8.9543 20 20 20z"/><path d="m34.6709 16.2585c.4096.3705.4412 1.0029.0706 1.4124l-13.3557 14.7616-8.0763-7.7091c-.3995-.3814-.4142-1.0144-.0329-1.4139.3814-.3995 1.0144-.4142 1.4139-.0328l6.5904 6.2908 11.9776-13.2384c.3705-.4095 1.0029-.4412 1.4124-.0706z"/></g></svg>