<svg fill="none" height="48" viewBox="0 0 48 48" width="48" xmlns="http://www.w3.org/2000/svg"><g fill="#333"><path d="m20.8622 19.5315c.548.0685.9367.5683.8682 1.1163l-.9047 7.2381c-.0686.5481-.5683.9368-1.1164.8683-.548-.0685-.9367-.5683-.8682-1.1163l.9048-7.2381c.0685-.5481.5683-.9368 1.1163-.8683z"/><path clip-rule="evenodd" d="m9 6c-1.65685 0-3 1.34315-3 3v30c0 1.6569 1.34315 3 3 3h30c1.6569 0 3-1.3431 3-3v-30c0-1.65685-1.3431-3-3-3zm8.4537 13.6617c.1951-1.6558 1.3924-3.048 3.0353-3.3318 2.5494-.4405 4.5909-.4365 7.0415-.0081 1.6341.2858 2.8202 1.6756 3.0143 3.3232l1.4554 12.355h-16zm-2.4535 16.3383v-2h18v2zm-1.9554-11c-.0296-.3294-.0448-.6629-.0448-1s.0152-.6706.0448-1h-3.0448v2zm.9661-5.6125c.2818-.6093.6176-1.1884 1.0015-1.7312l-2.6368-1.5223-1 1.732zm3.6454-4.3751c.5428-.3838 1.1219-.7197 1.7312-1.0015l-1.5215-2.6352-1.732 1zm5.3437-1.9676c.3294-.0296.6629-.0448 1-.0448s.6706.0152 1 .0448v-3.0448h-2zm5.6125.9661c.6093.2818 1.1884.6177 1.7312 1.0015l1.5223-2.6367-1.732-1zm4.3751 3.6454c.3839.5428.7197 1.1219 1.0015 1.7312l2.6353-1.5215-1-1.732zm1.9676 5.3437c.0296.3294.0448.6629.0448 1s-.0152.6706-.0448 1h3.0448v-2z" fill-rule="evenodd"/></g></svg>