<svg fill="none" height="48" viewBox="0 0 48 48" width="48" xmlns="http://www.w3.org/2000/svg"><path clip-rule="evenodd" d="m6 9c0-1.65685 1.34315-3 3-3h30c1.6569 0 3 1.34315 3 3v30c0 1.6569-1.3431 3-3 3h-30c-1.65685 0-3-1.3431-3-3zm15.5191 5.5819h-4.5191v18.8167h4.5191zm0-2h-6.5191v22.8167h6.5191v1.8142c0 .6825.6687 1.1645 1.3162.9486l8.8651-2.955c.4083-.1361.6838-.5182.6838-.9487v-20.2886c0-.4304-.2755-.8126-.6838-.9487l-8.8651-2.955c-.6475-.21585-1.3162.2661-1.3162.9487zm4.346 10.8072c0 .8001-.3243 1.4487-.7243 1.4487-.4001 0-.7244-.6486-.7244-1.4487s.3243-1.4487.7244-1.4487c.4 0 .7243.6486.7243 1.4487z" fill="#333" fill-rule="evenodd"/></svg>