<svg fill="none" height="48" viewBox="0 0 48 48" width="48" xmlns="http://www.w3.org/2000/svg"><path clip-rule="evenodd" d="m9 6c-1.65685 0-3 1.34315-3 3v30c0 1.6569 1.34315 3 3 3h30c1.6569 0 3-1.3431 3-3v-30c0-1.65685-1.3431-3-3-3zm25.2734 13.8684-.7848-.3772c3.2563 3.0696 2.4268 7.6955.3926 11.2137-1.0601 1.8334-2.5066 3.5003-4.0906 4.7184-1.568 1.2058-3.3672 2.0437-5.1232 2.0437-1.7618 0-3.5184-.8434-5.0316-2.0445-1.5274-1.2122-2.9013-2.8612-3.911-4.65-1.0069-1.7839-1.6861-3.7688-1.7497-5.6599-.0372-1.1083.1387-2.2005.5942-3.1891-.0095-.0118-.0197-.0243-.0306-.0374-.0988-.1191-.251-.2858-.454-.4612-.4089-.3536-.9931-.7173-1.7429-.8374-.2667-.0428-.5047-.1915-.66-.4125s-.2146-.4954-.1644-.7608c.3343-1.7674.6362-2.8178.8699-3.4464.1173-.3154.2219-.5367.312-.695.0454-.0797.0889-.1465.1305-.2028.021-.0284.0418-.0545.0626-.0787.0104-.0122.0209-.0238.0314-.0351l.0158-.0166.0079-.0081.004-.004.002-.002c.001-.0009.002-.0019.7032.711.2827-.9592.2829-.9591.2832-.959l.0021.0006.0044.0013.0141.0042.0483.0149c.0409.0127.099.0311.1717.0552.1455.048.3506.1186.5966.2113.4895.1843 1.1527.4604 1.8334.8248.5251.2811 1.0836.6268 1.5865 1.0396l-1.0357-1.5954c-.295-.4544-.1746-1.061.2716-1.3682l3.2089-2.2093c.4434-.3052 1.0487-.2048 1.3698.2272l.4958.6673v-1.0177c0-.5523.4478-1 1-1h3.9926c.5523 0 1 .4477 1 1v1.346c.0194.0173.0393.0352.0596.0538.1854.1697.4064.3946.6422.6815 1.6851-.2971 3.7193-.1286 6.145.7682l.9107.3367-.3097.9202c-.2231.6629-.4686 1.1894-.6921 1.6687l-.006.013c-.2264.4854-.43.9237-.6153 1.4745zm-20.6167-4.2319-.7012-.7129c.2589-.2547.636-.3488.9844-.2461zm2.498 4.2239c.4173-.3404.877-.5827 1.3568-.7486l.0844-.0413c-.0982-.1407-.2235-.2869-.379-.438-.4114-.4001-.9635-.7653-1.5503-1.0794-.5315-.2845-1.0605-.5108-1.4807-.6731-.1381.4102-.3169 1.0428-.5211 1.9983.7299.2721 1.3073.6699 1.7281 1.0337.1002.0866.1924.1721.2765.2544.0919-.0599.1907-.1232.2959-.189.0609-.0381.1241-.0772.1894-.117zm2.1186 1.1065c-.3415.1726-.6608.3516-.9452.5214-.9813.8813-1.4029 2.1042-1.3541 3.5571.0498 1.4831.5949 3.1536 1.4925 4.744.8949 1.5853 2.1058 3.0294 3.4126 4.0666 1.3209 1.0484 2.6479 1.611 3.7883 1.611 1.1462 0 2.5227-.5669 3.904-1.6291 1.3653-1.0499 2.6418-2.5143 3.5784-4.1341 1.9231-3.326 2.189-6.7926-.1644-8.8773-.2836-.2512-.4793-.3666-.7409-.499-.0613-.0311-.1296-.0645-.205-.1014-.1711-.0837-.379-.1854-.6254-.3181-.6133.3179-1.3089.8758-1.9337 1.4617-.3641.3416-.676.6655-.8968.904-.1101.1189-.1968.2157-.255.2819-.0292.033-.0512.0583-.0654.0748l-.0154.018-.0032.0037-.1442.1703-.0756.1235-1.1624 4.1729.407.9406 2.1183-.2459.2306 1.9867-1.909.2216.123 1.8024-1.9954.1361-.1762-2.5824-.9148-2.1143.0452-.1622-.6026.2725-.8436 2.1324-1.8598-.7357.5669-1.433-1.7843-.4204.4587-1.9467 2.5792.6077 2.1851-.9882.607-2.179c-.0508-.0249-.1034-.0503-.1578-.0763-.6573-.3145-1.5556-.7033-2.5343-1.0111-.9863-.3102-2.0075-.5232-2.9232-.52-.4525.0016-.856.0554-1.2091.1633zm7.8917-.3335c.0271-.0354.0551-.0717.084-.1087.3967-.5084.9779-1.1764 1.7044-1.7874 1.2277-1.0325 3.0622-2.0443 5.1515-1.5294.1105-.2563.2208-.4928.3261-.7189l.006-.0128c.0858-.1838.1682-.3609.2476-.5399-3.4072-1.0035-5.5385-.1981-6.8719.9046-1.133.9371-1.7861 2.1701-2.1051 3.0113.4453.2294.8839.4658 1.2515.6676.0713.0392.1401.0772.2059.1136zm-5.8147-3.0558c.0072-.0362.0135-.063.0183-.0817.1807-.3167.1792-.7184-.0298-1.0404l-.9701-1.4943 1.6129-1.1104 1.0665 1.4351c.1921.2585.4969.4087.819.4034.322-.0052.6218-.1653.8053-.4299l.6567-.9469c.1161-.1673.1783-.3662.1783-.5699v-1.2093h1.9926v.8287c0 .3282.1609.6344.4287.8207-.7398.3824-1.4294.9473-2.0082 1.55-.8574.8928-1.6176 2.0174-2.0838 3.1763-1.0113-.1675-1.6176-.1697-2.0793-.1697-.255 0-.3861-.002-.508-.0194.0203-.6176.0655-.9631.1009-1.1423z" fill="#333" fill-rule="evenodd"/></svg>