<svg fill="none" height="48" viewBox="0 0 48 48" width="48" xmlns="http://www.w3.org/2000/svg"><path clip-rule="evenodd" d="m9 6c-1.65685 0-3 1.34315-3 3v30c0 1.6569 1.34315 3 3 3h30c1.6569 0 3-1.3431 3-3v-30c0-1.65685-1.3431-3-3-3zm9.7796 6c-3.8089 0-6.5904 3.9818-6.5904 8.2759 0 .9971.1343 1.957.3748 2.8766h3.2866l3.5192-6.1525 2.199 7.5686 2.6909-3.4023h5.7016c.5737 0 1.0387.4573 1.0387 1.0215 0 .5641-.465 1.0214-1.0387 1.0214h-4.6855l-4.58 5.7908-1.9559-6.7318-1.6743 2.9272h-3.7732c3.0379 6.7155 11.3022 10.8046 11.3022 10.8046s12.4054-6.5334 12.4054-15.7241c0-4.2934-2.7811-8.2759-6.5904-8.2759-2.6432 0-4.6044 1.7867-5.815 4.3208-1.2106-2.5343-3.1719-4.3208-5.815-4.3208zm-8.7796 11.1526 2.5541-.0003.7306 2.0432h-3.2847z" fill="#333" fill-rule="evenodd"/></svg>