<svg fill="none" height="48" viewBox="0 0 48 48" width="48" xmlns="http://www.w3.org/2000/svg"><g fill="#333"><path clip-rule="evenodd" d="m9 6c-1.65685 0-3 1.34315-3 3v30c0 1.6569 1.34315 3 3 3h30c1.6569 0 3-1.3431 3-3v-30c0-1.65685-1.3431-3-3-3zm4 7c-.5523 0-1 .4477-1 1v15.9592c0 .5523.4477 1 1 1h10v2.1428h-4.5385v2h11.077v-2h-4.5385v-2.1428h10c.5523 0 1-.4477 1-1v-15.9592c0-.5523-.4477-1-1-1z" fill-rule="evenodd"/><path d="m13.8462 21.679h5.6578l3.4031-5.985 2.1265 7.3626 2.6022-3.3097h5.5136c.5548 0 1.0045.4449 1.0045.9937 0 .5487-.4497.9936-1.0045.9936h-4.531l-4.429 5.6332-1.8914-6.5486-1.6191 2.8475h-6.8327z"/></g></svg>