<svg fill="none" height="48" viewBox="0 0 48 48" width="48" xmlns="http://www.w3.org/2000/svg"><path clip-rule="evenodd" d="m9 6c-1.65685 0-3 1.34315-3 3v30c0 1.6569 1.34315 3 3 3h30c1.6569 0 3-1.3431 3-3v-30c0-1.65685-1.3431-3-3-3zm14.0001 5v3h-3v2h3v3h2v-3h3v-2h-3v-3zm-12.9616 10.2747c-.15173-.531.1558-1.0845.6868-1.2362s1.0845.1557 1.2362.6868l1.1994 4.1977h7.8391v2h-1.3077v1.6924h.5384c.5523 0 1 .4477 1 1 0 .4136-.2511.7685-.6092.9207l1.3309 4.1591c.0324.1013.0479.2039.0479.3048h3.9994c0-.1009.0154-.2035.0478-.3048l1.331-4.1591c-.3581-.1522-.6092-.5071-.6092-.9207 0-.5523.4477-1 1-1h.5384v-1.6924h-1.3077v-2h7.8391l1.1993-4.1977c.1518-.5311.7053-.8385 1.2363-.6868s.8385.7052.6868 1.2362l-1.9347 6.7716 1.2888 6.7666c.012.0628.0178.1254.0179.1871h1.6665c.5523 0 1 .4477 1 1s-.4477 1-1 1h-30c-.55228 0-1-.4477-1-1s.44772-1 1-1h1.6665c.0001-.0617.0059-.1243.0178-.1871l1.2889-6.7666zm24.0607 7.3407h-3.7915v-1.6924h3.96l-.2293.8023c-.0429.1502-.05.3084-.0208.4618zm.4542 2.3846h-5.2235l-1.28 4h7.2654zm-16.8611-2.3846v-1.6924h-3.96l.2292.8023c.043.1502.0501.3084.0209.4618l-.0816.4283zm-5.0076 6.3846.7619-4h5.2235l1.28 4z" fill="#333" fill-rule="evenodd"/></svg>