<svg fill="none" height="48" viewBox="0 0 48 48" width="48" xmlns="http://www.w3.org/2000/svg"><g fill="#333"><path clip-rule="evenodd" d="m9 6c-1.65685 0-3 1.34315-3 3v30c0 1.6569 1.34315 3 3 3h30c1.6569 0 3-1.3431 3-3v-30c0-1.65685-1.3431-3-3-3zm8 4c-1.1046 0-2 .8954-2 2v24c0 1.1046.8954 2 2 2h14c1.1046 0 2-.8954 2-2v-24c0-1.1046-.8954-2-2-2z" fill-rule="evenodd"/><path d="m17 12h14v9h-14z"/><path d="m21.2727 24.6364c0 .9037-.7326 1.6363-1.6363 1.6363-.9038 0-1.6364-.7326-1.6364-1.6363 0-.9038.7326-1.6364 1.6364-1.6364.9037 0 1.6363.7326 1.6363 1.6364z"/><path d="m25.6364 24.6364c0 .9037-.7327 1.6363-1.6364 1.6363s-1.6364-.7326-1.6364-1.6363c0-.9038.7327-1.6364 1.6364-1.6364s1.6364.7326 1.6364 1.6364z"/><path d="m30 24.6364c0 .9037-.7326 1.6363-1.6364 1.6363-.9037 0-1.6363-.7326-1.6363-1.6363 0-.9038.7326-1.6364 1.6363-1.6364.9038 0 1.6364.7326 1.6364 1.6364z"/><path d="m21.2727 29c0 .9037-.7326 1.6364-1.6363 1.6364-.9038 0-1.6364-.7327-1.6364-1.6364s.7326-1.6364 1.6364-1.6364c.9037 0 1.6363.7327 1.6363 1.6364z"/><path d="m25.6364 29c0 .9037-.7327 1.6364-1.6364 1.6364s-1.6364-.7327-1.6364-1.6364.7327-1.6364 1.6364-1.6364 1.6364.7327 1.6364 1.6364z"/><path d="m30 29c0 .9037-.7326 1.6364-1.6364 1.6364-.9037 0-1.6363-.7327-1.6363-1.6364s.7326-1.6364 1.6363-1.6364c.9038 0 1.6364.7327 1.6364 1.6364z"/><path d="m30 33.3636c0 .9038-.7326 1.6364-1.6364 1.6364-.9037 0-1.6363-.7326-1.6363-1.6364 0-.9037.7326-1.6363 1.6363-1.6363.9038 0 1.6364.7326 1.6364 1.6363z"/><path d="m18 33.3636c0-.9037.7326-1.6363 1.6364-1.6363h4.3636c.9037 0 1.6364.7326 1.6364 1.6363 0 .9038-.7327 1.6364-1.6364 1.6364h-4.3636c-.9038 0-1.6364-.7326-1.6364-1.6364z"/></g></svg>