<svg fill="none" height="48" viewBox="0 0 48 48" width="48" xmlns="http://www.w3.org/2000/svg"><path clip-rule="evenodd" d="m17.3163 10.7392v.0013c.0337 3.6077.5007 5.3762 1.4179 6.3213.8056.8302 2.1637 1.232 4.7141 1.3074.2019-2.0358 1.0138-3.6602 2.2069-4.8175 1.3731-1.3319 3.1915-1.9865 4.9913-1.9865 1.7999 0 3.6182.6546 4.9914 1.9865 1.3849 1.3433 2.2561 3.316 2.2561 5.8307v8.3322c0 2.3547-.391 4.8461-1.6023 6.78-1.2566 2.0061-3.3353 3.3097-6.4095 3.3097-3.1633 0-5.3592-1.8827-7.2995-3.5568l-.0618-.0534c-1.9755-1.7046-3.7518-3.2375-6.2707-3.5855-1.0578.0111-1.793.2947-2.3214.6817-.5485.4018-.9422.9654-1.2207 1.6172-.5693 1.3324-.5881 2.8677-.5606 3.5274.0055.1308.0083 1.5481.0103 2.88.0009.6777.0017 1.3488.0021 1.8504l.0007.8331-.9684.0016h27.8078c1.6569 0 3-1.3431 3-3v-30c0-1.65685-1.3431-3-3-3h-21.6857l.0018 4.6698.0001.05v.015zm-8.3163 31.2608h1.1606l-.0007-.8328c-.0004-.5015-.0012-1.1722-.0021-1.8494-.001-.6773-.0023-1.3606-.0038-1.8874-.0008-.2636-.0016-.4872-.0026-.6511-.0004-.0821-.0009-.1482-.0014-.1964l-.0007-.06-.0001-.0058c0-.0007 0-.0003.0001.0011-.0312-.7479-.0281-2.6467.7197-4.3966.38-.8893.9687-1.7788 1.878-2.4448.919-.6731 2.0984-1.0685 3.5672-1.0685.3948 0 .7599.0089 1.1069.0173.6319.0153 1.2039.0292 1.7871-.0145.8513-.0638 1.5204-.2472 2.0646-.6551 1.0265-.7694 2.0015-2.6548 2.1153-7.587-2.6478-.0756-4.7131-.4964-6.0892-1.9143-1.5299-1.5765-1.9492-4.1242-1.9825-7.6955-.0014-.1413-.002-3.93163-.0022-4.7592h-6.3142c-1.65685 0-3 1.34315-3 3v30c0 1.6569 1.34315 3 3 3zm16.0307-17.5336c2.3953-1.1575 4.2392-.2213 5.9793.6623 1.5998.8123 3.1119 1.5801 4.884.635v-6.3813c0-2.03-.6907-3.466-1.6486-4.3951-.9696-.9405-2.275-1.4221-3.5989-1.4221-1.3238 0-2.6292.4816-3.5988 1.4221-.9579.9291-1.6486 2.3651-1.6486 4.3951 0 2.0109-.1233 3.6896-.3684 5.084z" fill="#333" fill-rule="evenodd"/></svg>