<svg fill="none" height="48" viewBox="0 0 48 48" width="48" xmlns="http://www.w3.org/2000/svg"><path clip-rule="evenodd" d="m9 6c-1.65685 0-3 1.34315-3 3v30c0 1.6569 1.34315 3 3 3h30c1.6569 0 3-1.3431 3-3v-30c0-1.65685-1.3431-3-3-3zm1.4891 9.915c-.4845.4848-.61822 1.0587-.3388 1.5511.3409.6009.7203 1.1266 1.0783 1.5631-.3523.0517-.6636.2034-.9004.4615-.2583.2816-.39576.655-.42141 1.0738-.48005-.5564-1.01732-1.2676-1.49605-2.1114-.87393-1.5404-.21108-3.0766.66381-3.9519.44357-.4438 1.00645-.7962 1.60335-.9489.5965-.1526 1.3531-.1259 1.9549.4044 1.0447.9207 1.5273 1.0002 1.7892 1.0254.0447.0043.1038.0053.1752.0064.3708.0062 1.0721.0177 1.7951.5275l-1.1524 1.6346c-.1925-.1357-.2303-.1369-.4594-.1437-.1174-.0035-.2852-.0085-.5498-.034-.792-.0761-1.6509-.4007-2.9041-1.5015-.0213-.0029-.0682-.0032-.153.0185-.1908.0488-.4484.1889-.6845.4251zm.8519-.4396c-.0003.0004-.0036-.0002-.0093-.0031.0067.0013.0095.0027.0093.0031zm3.9444 5.5342c1.318 1.2505 1.6856 2.9596.821 3.8173-.8645.8578-2.6338.5394-3.9518-.7111s-1.6856-2.9596-.821-3.8173c.8646-.8578 2.6338-.5394 3.9518.7111zm21.7539-5.1191c.4449.4765.5932 1.0772.3157 1.6008-.311.5869-.656 1.1016-.9829 1.5313.3482.0443.6561.1978.8877.4681.2525.2948.3814.69.3963 1.1327.466-.5689.9965-1.3095 1.466-2.1955.7999-1.5093.2041-3.0187-.6209-3.9023-.4163-.4458-.9533-.8096-1.5353-.969-.5902-.1616-1.3416-.1297-1.9274.423-.9736.9185-1.4067.9816-1.6158 1.0031-.0354.0037-.0849.0044-.1463.0053-.3388.0051-1.0412.0156-1.7454.5471l1.2049 1.5963c.1568-.1183.1681-.1186.3531-.1237.1047-.0029.2649-.0073.5385-.0355.7698-.0792 1.5838-.4158 2.7439-1.5007.0152.0019.0368.006.0662.0141.1538.0421.3831.1708.6017.4049zm-.6972-.4198c.0003.0003.0034.0004.0089-.0009-.0064 0-.0091.0006-.0089.0009zm-4.1906 5.5389c-1.318 1.2505-1.6856 2.9596-.8211 3.8173.8646.8578 2.6339.5394 3.9519-.7111s1.6855-2.9596.821-3.8173c-.8646-.8578-2.6339-.5394-3.9518.7111zm-12.1043 1.033c-2.7086 0-6.7715-8.0426 4.0629-8.0426s6.32 8.0426 3.6114 8.0426c-1.2899 0-1.3892 2.9386-1.4934 6.0169-.0772 2.2845-.1571 4.646-.7281 5.9405-.1788.4053-.4846.2841-.8245.1493-.1834-.0727-.3768-.1493-.5654-.1493-.1796 0-.3856.0695-.5913.1389-.4109.1386-.8209.2769-1.0188-.1389-.6233-1.3096-.7476-3.7114-.867-6.0207-.1577-3.049-.3071-5.9367-1.5858-5.9367z" fill="#333" fill-rule="evenodd"/></svg>