<svg fill="none" height="48" viewBox="0 0 48 48" width="48" xmlns="http://www.w3.org/2000/svg"><path clip-rule="evenodd" d="m9 6c-1.65685 0-3 1.34315-3 3v30c0 1.6569 1.34315 3 3 3h30c1.6569 0 3-1.3431 3-3v-30c0-1.65685-1.3431-3-3-3zm11.8 10 7.4.0002v.9999c0 .2854.2226.7212.6491 1.2036.1902.215.3834.3974.5301.5265.0727.0639.1322.1132.1719.1453.0197.016.0345.0276.0433.0344l.008.0062.3976.2998v1.7841h-2v-.8198c-.1831-.1642-.4149-.3867-.6491-.6517-.3179-.3594-.7275-.8926-.9625-1.5285l-3.8437.0001c-.0517.1098-.1058.2106-.1566.2999-.2047.3601-.4648.7165-.7056 1.0192-.244.3066-.4855.5795-.6647.7746l-.0178.0194v11.3868c0 1.933 1.567 3.5 3.5 3.5 1.3962 0 2.6015-.8175 3.1632-2h2.1298c-.653 2.3085-2.7754 4-5.293 4-3.0376 0-5.5-2.4624-5.5-5.5v-12.1983l.2907-.2922.0027-.0028.012-.0123c.0112-.0114.0284-.029.0507-.0523.0448-.0466.1099-.1153.1886-.201.1583-.1724.3668-.4084.5728-.6673.2091-.2628.3991-.5285.5319-.7621.103-.1813.1356-.2815.1459-.3131.0024-.0076.0036-.0112.0042-.0111.0001 0-.0001-.0003 0 0 0 .0002.0004.0011.0004.0015l.0001.0042zm11.2 12.0909c0 1.6067-1.3431 2.9091-3 2.9091s-3-1.3024-3-2.9091c0-2.5454 3-5.0909 3-5.0909s3 2.5455 3 5.0909zm-3-18.0909h-9v4h9z" fill="#333" fill-rule="evenodd"/></svg>