<svg fill="none" height="48" viewBox="0 0 48 48" width="48" xmlns="http://www.w3.org/2000/svg"><path clip-rule="evenodd" d="m6 9c0-1.65685 1.34315-3 3-3h30c1.6569 0 3 1.34315 3 3v30c0 1.6569-1.3431 3-3 3h-30c-1.65685 0-3-1.3431-3-3zm13 3h-3c-1.1046 0-2 .8954-2 2v22c0 1.1046.8954 2 2 2h16c1.1046 0 2-.8954 2-2v-22c0-1.1046-.8954-2-2-2h-3c0-1.1046-.8954-2-2-2h-6c-1.1046 0-2 .8954-2 2zm3.0638 22.649 2.4934-6.649h-3.557c-.5522 0-1-.4477-1-1s.4478-1 1-1h4.981c.0127-.0002.0254-.0002.0381 0h.9616c.0127-.0002.0255-.0002.0382 0h4.2822c.5523 0 1 .4477 1 1s-.4477 1-1 1h-2.8582l2.4934 6.649c.1939.5171-.0681 1.0935-.5853 1.2874-.5171.194-1.0935-.068-1.2874-.5852l-1.2584-3.3557h-2.6106l-1.2583 3.3557c-.194.5172-.7704.7792-1.2875.5852-.5171-.1939-.7791-.7703-.5852-1.2874zm-5.0638-15.409h14v-2h-14zm5 4.16h-5v-2h5zm4.5 1.6c1.1046 0 2-.8954 2-2s-.8954-2-2-2-2 .8954-2 2 .8954 2 2 2zm-5.5-13h6v2h-6z" fill="#333" fill-rule="evenodd"/></svg>