<svg fill="none" height="48" viewBox="0 0 48 48" width="48" xmlns="http://www.w3.org/2000/svg"><path clip-rule="evenodd" d="m6 9c0-1.65685 1.34315-3 3-3h30c1.6569 0 3 1.34315 3 3v30c0 1.6569-1.3431 3-3 3h-12.1516v-14.6375c0-.8547.3088-1.1542.4814-1.2771.1107-.0788.2249-.124.3121-.1487.0424-.012.0744-.018.0903-.0206l.0096-.0014-.0068.0007-.0065.0005-.0041.0004-.0023.0001-.0012.0001s-.0012.0001-.0698-.9976c-.0686-.9976-.0699-.9975-.0699-.9975l-.0013.0001-.0028.0002-.0061.0004-.0143.0013c-.0104.0009-.0228.0021-.0368.0037-.0282.0031-.0635.0077-.1049.0144-.0826.0132-.1915.035-.3181.0709-.2508.071-.5873.2018-.9273.4439-.7287.519-1.3212 1.4413-1.3212 2.9062v14.6375h-1.8364v-14.6375c0-1.4649-.5925-2.3872-1.3213-2.9062-.34-.2421-.6764-.3729-.9272-.4439-.1266-.0359-.2355-.0577-.3181-.0709-.0415-.0067-.0768-.0113-.1049-.0144-.0141-.0016-.0264-.0028-.0369-.0037l-.0143-.0013-.0061-.0004-.0027-.0002-.0013-.0001s-.0013-.0001-.0699.9975c-.0686.9977-.0698.9976-.0698.9976l-.0012-.0001-.0023-.0001-.0041-.0004-.0066-.0005-.0067-.0007.0095.0014c.016.0026.048.0086.0904.0206.0871.0247.2014.0699.3121.1487.1725.1229.4814.4224.4814 1.2771v14.6375h-12.012c-1.65685 0-3-1.3431-3-3zm26.9643 22.2476c8.623-3.6369 5.2199-15.913-.766-17.9413-2.4831-.8415-5.2232 1.95-5.2056 3.6833.0076.7494.3943 1.4801.7972 2.2414.5289.9994 1.0858 2.0516.8493 3.2681-.4166 2.1431-.8832 5.7591.3191 7.4756 1.2024 1.7164 2.4115 1.9455 4.006 1.2729zm-18.0682 0c-8.62302-3.6369-5.21993-15.913.7659-17.9413 2.4832-.8415 5.2232 1.95 5.2057 3.6833-.0076.7494-.3943 1.4801-.7972 2.2414-.5289.9994-1.0858 2.0516-.8493 3.2681.4165 2.1431.8832 5.7591-.3192 7.4756-1.2023 1.7164-2.4114 1.9455-4.0059 1.2729z" fill="#333" fill-rule="evenodd"/></svg>