<svg fill="none" height="48" viewBox="0 0 48 48" width="48" xmlns="http://www.w3.org/2000/svg"><path clip-rule="evenodd" d="m9 6c-1.65685 0-3 1.34315-3 3v30c0 1.6569 1.34315 3 3 3h30c1.6569 0 3-1.3431 3-3v-30c0-1.65685-1.3431-3-3-3zm6.5147 26.2826c4.6863 4.6863 12.2843 4.6863 16.9706 0s4.6863-12.2843 0-16.9706c-4.3642-4.3641-11.2534-4.6641-15.9648-.9 2.8352-.2929 4.7452 3.2705 2.5435 5.4723-1.0759 1.0758-.3139 2.9153 1.2075 2.9153h.6375c1.5728 0 2.9492 1.0574 3.3545 2.5772l1.273 4.7738c.7345-.3151 1.3377-.7207 1.8254-1.1486l-.0396.0031c-.7294.0561-1.3928-.4221-1.5702-1.1318l-.99-3.9598c-.2009-.8037.2877-1.6181 1.0914-1.819s1.6181.2877 1.819 1.0914l.6827 2.7309 1.9544-.1504c.5108-.0393 1.0064.1849 1.3142.5945s.3852.948.2053 1.4278c-.6273 1.6729-2.9869 5.3381-8.1685 5.9139-.7462.0829-1.4388-.3987-1.6209-1.127l-.6261-2.5046-2.5046.6261c-.8037.2009-1.6181-.2877-1.819-1.0914s.2877-1.6181 1.0914-1.819l3.9598-.99c.3256-.0814.6671-.0508.9708.0836l-.2978-1.117c-.2302-.8632-1.0119-1.4637-1.9052-1.4637h-.6375c-2.8578 0-4.289-3.4552-2.2682-5.476 1.2672-1.2672-.024-3.3818-1.7302-2.8334l-1.8707.6013c-3.5388 4.7012-3.1681 11.4107 1.1123 15.6911zm-1.4142 1.4142c5.4673 5.4673 14.3317 5.4673 19.799 0 5.4673-5.4674 5.4673-14.3317 0-19.799-5.4673-5.46735-14.3317-5.46735-19.799 0-5.46734 5.4673-5.46733 14.3316 0 19.799zm19.2941-9.4046c-1.0935 1.0935-2.8664 1.0935-3.9598 0-1.0935-1.0934-1.0935-2.8663 0-3.9598 1.0934-1.0934 2.8663-1.0934 3.9598 0 1.0934 1.0935 1.0934 2.8664 0 3.9598z" fill="#333" fill-rule="evenodd"/></svg>