<svg fill="none" height="48" viewBox="0 0 48 48" width="48" xmlns="http://www.w3.org/2000/svg"><path clip-rule="evenodd" d="m6 9c0-1.65685 1.34315-3 3-3h30c1.6569 0 3 1.34315 3 3v30c0 1.6569-1.3431 3-3 3h-30c-1.65685 0-3-1.3431-3-3zm13.2792 18.1331 4.0204 5.1956-4.0204 5.1337-5.0719-3.8967zm-.1856-15.5249-2.1648 2.8452c-1.7319 2.2885-1.7319 5.443 0 7.6696l12.0612 15.3394 5.01-3.8967-4.8245-6.1852-5.8141-7.4223-2.4741-2.1545c.433-.2474.9278-.4329 1.4226-.4329h3.6493c.4948 0 .9896.1237 1.4226.3711 0 .0618.0619.0618.0619.0618l-2.4741 2.1545 4.0204 5.1956 2.3504-2.9689c1.7318-2.2267 1.7318-5.3812 0-7.6697l-2.2267-2.907c-.3711-.4949-.866-.9278-1.4226-1.1752-.5567-.3093-1.1752-.433-1.7937-.433h-3.5875c-1.237 0-2.4122.6185-3.2163 1.6082zm.9278 4.1131c-.0155-.0309-.0309-.0618-.0619-.0927-.6803-.9897-.5566-1.3504.1238-2.2782.5566-.6804 1.3607-1.1134 2.2266-1.1134h3.5875c.4329 0 .8659.1237 1.237.3093s.7422.4948.9896.8041c.3093.3711.4949.8041.5567 1.237.1307.5228.0466.6109-.1658.8333-.0892.0934-.201.2105-.329.3934-.0619-.0309-.1392-.0773-.2165-.1237s-.1546-.0928-.2165-.1237c-.5566-.3093-1.1752-.433-1.7937-.433h-3.5874c-.6185 0-1.2371.1856-1.7937.433-.1856.0619-.3711.1237-.4948.2474-.031-.0309-.0464-.0618-.0619-.0928z" fill="#333" fill-rule="evenodd"/></svg>