<svg fill="none" height="48" viewBox="0 0 48 48" width="48" xmlns="http://www.w3.org/2000/svg"><path clip-rule="evenodd" d="m9 6c-1.65685 0-3 1.34315-3 3v30c0 1.6569 1.34315 3 3 3h30c1.6569 0 3-1.3431 3-3v-30c0-1.65685-1.3431-3-3-3zm15.0395 9c6.7105 0 14.9605 9 14.9605 9s-8.25 9-14.9605 9c-6.7106 0-15.0395-9-15.0395-9s8.3289-9 15.0395-9zm-12.2098 9c.8474-.8051 2.0272-1.8627 3.394-2.9155.5161-.3975 1.0535-.7903 1.6051-1.1661-.6865 1.2036-1.0788 2.5968-1.0788 4.0816s.3923 2.878 1.0788 4.0816c-.5516-.3758-1.089-.7686-1.6051-1.1661-1.3668-1.0528-2.5466-2.1104-3.394-2.9155zm20.4203 0c0-1.5082-.4047-2.9218-1.1114-4.1383.5753.3917 1.1354.8026 1.6719 1.2187 1.36 1.0547 2.5322 2.1142 3.3725 2.9196-.8403.8053-2.0125 1.8649-3.3725 2.9196-.5365.4161-1.0966.827-1.6719 1.2187.7067-1.2165 1.1114-2.6301 1.1114-4.1383zm-8.25 6.25c3.4518 0 6.25-2.7982 6.25-6.25s-2.7982-6.25-6.25-6.25-6.25 2.7982-6.25 6.25 2.7982 6.25 6.25 6.25zm3.75-6.25c0 2.0711-1.6789 3.75-3.75 3.75s-3.75-1.6789-3.75-3.75 1.6789-3.75 3.75-3.75c.9312 0 1.7831.3394 2.4388.9012-.1658-.0961-.3584-.1512-.5638-.1512-.6213 0-1.125.5037-1.125 1.125s.5037 1.125 1.125 1.125 1.125-.5037 1.125-1.125c0-.2054-.0551-.398-.1512-.5638.5618.6557.9012 1.5076.9012 2.4388z" fill="#333" fill-rule="evenodd"/></svg>