<svg fill="none" height="48" viewBox="0 0 48 48" width="48" xmlns="http://www.w3.org/2000/svg"><path clip-rule="evenodd" d="m9 6c-1.65685 0-3 1.34315-3 3v30c0 1.6569 1.34315 3 3 3h30c1.6569 0 3-1.3431 3-3v-30c0-1.65685-1.3431-3-3-3zm8.25 5.9379c0-.6131.5643-1.0704 1.1669-.9576 4.1915.7841 6.9731.7935 11.1653.0026.6026-.1137 1.1678.3431 1.1678.9564 0 .5336.4326.9661.9662.9661h.2838c.5523 0 1 .4477 1 1v.874c0 .5522-.4477 1-1 1h-.25c-.5523 0-1 .4477-1 1v.3869c0 .4532-.306.8513-.7456.9612-4.4656 1.1168-7.3278 1.1157-11.998-.0055-.4447-.1067-.7564-.5073-.7564-.9646v-.378c0-.5523-.4477-1-1-1h-.25c-.5523 0-1-.4478-1-1v-.874c0-.5523.4477-1 1-1h.2825c.5343 0 .9675-.4332.9675-.9675zm2.25.7998c.5523 0 1 .4477 1 1v2.2402c0 .5523-.4477 1-1 1s-1-.4477-1-1v-2.2402c0-.5523.4477-1 1-1zm-1.0831 7.2426c-.6026-.1128-1.1669.3445-1.1669.9576 0 .5343-.4332.9675-.9675.9675h-.2825c-.5523 0-1 .4477-1 1v.874c0 .5522.4477 1 1 1h.25c.5523 0 1 .4477 1 1v.378c0 .4573.3117.8579.7564.9646 4.6702 1.1212 7.5324 1.1223 11.998.0055.4396-.1099.7456-.508.7456-.9612v-.3869c0-.5523.4477-1 1-1h.25c.5523 0 1-.4478 1-1v-.874c0-.5523-.4477-1-1-1h-.2838c-.5336 0-.9662-.4325-.9662-.9661 0-.6133-.5652-1.0701-1.1678-.9564-4.1922.7909-6.9738.7815-11.1653-.0026zm2.0831 2.7574c0-.5523-.4477-1-1-1s-1 .4477-1 1v2.2402c0 .5523.4477 1 1 1s1-.4477 1-1zm-3.25 7.2002c0-.6131.5643-1.0704 1.1669-.9576 4.1915.7841 6.9731.7935 11.1653.0026.6026-.1137 1.1678.3431 1.1678.9564 0 .5336.4326.9661.9662.9661h.2838c.5523 0 1 .4477 1 1v.874c0 .5522-.4477 1-1 1h-.25c-.5523 0-1 .4477-1 1v.3869c0 .4532-.306.8513-.7456.9612-4.4656 1.1168-7.3278 1.1157-11.998-.0055-.4447-.1067-.7564-.5073-.7564-.9646v-.378c0-.5523-.4477-1-1-1h-.25c-.5523 0-1-.4478-1-1v-.874c0-.5523.4477-1 1-1h.2825c.5343 0 .9675-.4332.9675-.9675zm2.25.7998c.5523 0 1 .4477 1 1v2.2402c0 .5523-.4477 1-1 1s-1-.4477-1-1v-2.2402c0-.5523.4477-1 1-1z" fill="#333" fill-rule="evenodd"/></svg>