<svg fill="none" height="48" viewBox="0 0 48 48" width="48" xmlns="http://www.w3.org/2000/svg"><g fill="#333"><path clip-rule="evenodd" d="m9 6c-1.65685 0-3 1.34315-3 3v30c0 1.6569 1.34315 3 3 3h5.389v-11.238c-3.0438-2.2749-5.389-5.3396-5.389-9.3122 0-3.3019 1.3779-6.4685 3.8307-8.8033 2.4527-2.3348 5.7793-3.64649 9.248-3.64649 2.6488-.00286 5.2663.54567 7.6689 1.60719 1.8935.759 3.5513 1.9669 4.8154 3.5085 1.1544 1.6196 1.7942 3.5214 1.8429 5.4779.0105.4497.0042.8761-.0019 1.2886-.0215 1.4564-.0405 2.739.6915 4.256 0 0 2.1639 1.9467 1.8786 3.5086-.2854 1.5619-3.1033 1.9919-3.1033 1.9919 0 8.4093-10.7007 4.8995-10.7007 4.8995v6.4618h13.8299c1.6569 0 3-1.3431 3-3v-30c0-1.65685-1.3431-3-3-3z" fill-rule="evenodd"/><path d="m26.2691 22.4547c.6441 0 .4399-.189.9719-.5425.5401.3528 1.1776.5377 1.828.5304l2.0662-.7317c.5822-.4671.9819-1.1146 1.1322-1.8342.1502-.7196.042-1.4675-.3067-2.1187-.3486-.6512-.9166-1.1661-1.6087-1.4585-.158-.6967-.5561-1.3198-1.1282-1.766l-2.0168-.6869h-.2271c-.4486-.6369-1.1221-1.0913-1.8924-1.2767l-3.4908-.2366c-.7188.0582-1.3965.3499-1.9242.8283-.2494-.0572-.5045-.0868-.7607-.0884-.6203.0013-1.227.1772-1.7467.5066-.5198.3293-.9306.7981-1.1826 1.3496l-1.643 1.1326c-.4088.5391-.6289 1.1917-.6278 1.8616-.004.2802.0342.5594.1135.8287-.431.5443-.6628 1.2132-.6585 1.9004-.001.797.3119 1.5641.8743 2.1434.0454.5706.2502 1.1183.5925 1.5837.3422.4655.8087.831 1.349 1.057.6226.3798 1.1497.8906 1.5427 1.4948s.5552 1.2865.6415 1.9966h3.43v-3.3146c-.0008-.5886.1679-1.1655.487-1.6655.3191-.4999.4979-.9028 1.0404-1.163.5083-.1893.9662-.4877 1.3397-.8729.532.3535 1.1612.5425 1.8053.5425z"/><path d="m32.3333 25.2501c0 .6903-.5597 1.25-1.25 1.25-.6904 0-1.25-.5597-1.25-1.25 0-.6904.5596-1.25 1.25-1.25.6903 0 1.25.5596 1.25 1.25z"/><g clip-rule="evenodd" fill-rule="evenodd"><path d="m21.5 32.3333h-3.3333v-2h3.3333z"/><path d="m21.5 35.6666h-3.3333v-2h3.3333z"/><path d="m21.5 39.0001h-3.3333v-2h3.3333z"/></g></g></svg>