<svg fill="none" height="48" viewBox="0 0 48 48" width="48" xmlns="http://www.w3.org/2000/svg"><path clip-rule="evenodd" d="m6 9c0-1.65685 1.34315-3 3-3h30c1.6569 0 3 1.34315 3 3v30c0 1.6569-1.3431 3-3 3h-30c-1.65685 0-3-1.3431-3-3zm22.5 5.5c0 2.4853-2.0147 4.5-4.5 4.5s-4.5-2.0147-4.5-4.5 2.0147-4.5 4.5-4.5 4.5 2.0147 4.5 4.5zm-15.5 7.5c0-.5523.4477-1 1-1h20c.5523 0 1 .4477 1 1v15c0 .5523-.4477 1-1 1h-5c0-.5973-.2727-1.1397-.5702-1.5562-.3108-.4352-.726-.8418-1.18-1.1886-.6285-.4799-1.4245-.9139-2.2498-1.1232v-2.9855h1.4c.9909 0 2.2372.3956 3.3118.8483.5211.2195.9724.4396 1.2929.6047.1599.0823.2863.1504.3713.1972.0426.0233.0747.0413.0955.0531l.0225.0128.0047.0027c-.0001-.0001.0001 0 .5013-.8653s.5011-.8654.5009-.8655l-.0014-.0008-.0028-.0017-.0092-.0052-.032-.0182c-.0273-.0154-.0663-.0372-.1159-.0645-.0993-.0546-.2417-.1313-.4193-.2228-.3545-.1825-.8532-.4258-1.4321-.6696-1.1254-.4741-2.6791-1.0052-4.0882-1.0052h-1.4v-2.1465h.8c.7489 0 1.6846.2145 2.485.457.3891.1179.7259.2361.9646.3245.119.0441.213.0805.276.1054.0236.0094.0428.0171.0573.023.0049.0019.0093.0037.0131.0053l.0164.0066.0032.0014c-.0001-.0001-.0002-.0001.3844-.9232s.3845-.9231.3843-.9232l-.0034-.0014-.0072-.003-.0245-.01c-.0208-.0085-.0504-.0204-.0881-.0353-.0752-.0297-.1829-.0714-.3169-.1211-.2676-.0991-.6433-.2309-1.0792-.363-.8496-.2575-2.0139-.543-3.065-.543h-.8v-2h-2v2h-1.1c-1.2004 0-2.2923.284-3.0686.5564-.3919.1375-.7129.2755-.9391.3806-.1132.0527-.2033.0975-.2672.1302-.0319.0164-.0574.0298-.0759.0397l-.0227.0123-.0074.004-.0027.0015-.0011.0006c-.0002.0002-.0009.0005.4847.8747s.4854.8743.4852.8744l.0071-.0038c.0088-.0047.0241-.0128.0455-.0238.0427-.0219.1097-.0553.198-.0963.177-.0824.4372-.1944.7578-.3069.6487-.2276 1.5068-.4436 2.4064-.4436h1.1v2.1465h-1.8c-1.6095 0-3.0653.5289-4.0884 1.028-.5176.2524-.9402.505-1.2358.6961-.1482.0958-.2654.1768-.3477.2355-.0412.0293-.0737.0532-.0971.0705l-.0281.0212-.0089.0067-.003.0024-.0013.0009c-.0002.0002-.0009.0007.6103.7922.6112.7914.611.7916.6108.7918l.0134-.0101c.0132-.0098.035-.0257.0649-.0471.0599-.0427.152-.1065.2726-.1845.2419-.1563.5943-.3672 1.0267-.5781.8769-.4277 2.0211-.8255 3.2116-.8255h1.8v3.0179c-.8293.2256-1.6307.6501-2.2733 1.1339-.4487.3378-.859.7332-1.1662 1.1615-.2967.4136-.5605.9472-.5605 1.5402h-5c-.5523 0-1-.4477-1-1zm13.9704 15.899c.0252.0629.029.0954.0295.101h-5.9999c.0001-.0023.0019-.0339.0278-.0992.0278-.07.0773-.163.1578-.2753.1629-.227.4167-.483.744-.7295.6582-.4955 1.46-.8399 2.1042-.8956.5536.0125 1.3256.3278 2.0021.8444.3317.2532.5951.5216.7664.7614.0849.1188.138.2179.1681.2928z" fill="#333" fill-rule="evenodd"/></svg>