<svg fill="none" height="48" viewBox="0 0 48 48" width="48" xmlns="http://www.w3.org/2000/svg"><path clip-rule="evenodd" d="m24.9677 6.00038c.047.00004.047.00006.047.00009l-.0034 5.93433c-.0018 3.1039-.0039 6.4815-.0049 7.5756-.0007.7854.2811 1.0304.4169 1.1229.0948.0647.1942.1015.2718.1212.0374.0096.0654.014.0787.0158l.0073.0009-.0084-.0006-.0068-.0004-.0042-.0002-.0022-.0001-.0012-.0001c-.0006 0-.0013 0-.0432.9991-.0418.9991-.0425.9991-.0431.9991l-.0041-.0002-.006-.0003-.0141-.0008c-.0103-.0007-.0224-.0015-.0361-.0027-.0275-.0023-.0619-.0058-.1022-.0112-.0802-.0107-.1859-.0289-.3088-.0602-.2432-.062-.5713-.1798-.904-.4065-.1054-.0719-.2077-.1522-.3055-.2414-.0978.0892-.2001.1695-.3055.2414-.3326.2267-.6608.3445-.9039.4065-.1229.0313-.2286.0495-.3089.0602-.0403.0054-.0747.0089-.1021.0112-.0138.0012-.0259.002-.0362.0027l-.0141.0008-.006.0003-.0027.0001-.0014.0001c-.0006 0-.0012 0-.0431-.9991s-.0425-.9991-.0431-.9991l-.0012.0001-.0023.0001-.0042.0002-.0067.0004-.0076.0005.0065-.0008c.0133-.0018.0412-.0062.0787-.0158.0775-.0197.1769-.0565.2717-.1212.1359-.0925.4177-.3375.4169-1.1229-.001-1.0941-.003-4.4717-.0049-7.5756l-.0034-5.93394c0-.00003 0-.00044.047-.00048l-14.0147-.00038c-1.65685 0-3 1.34315-3 3v30c0 1.6569 1.34315 3 3 3h30c1.6569 0 3-1.3431 3-3v-30c0-1.65685-1.3431-3-3-3zm-7.2619 8.23992c3.8309-.0031 3.783 4.837 3.7584 7.3225-.0019.1897-.0036.366-.0035.525.0004.5075.0232 1.1066.048 1.7611.1153 3.0375.2759 7.269-1.5385 9.0814-2.2473 2.2448-6.7446 3.37-8.9953 1.5027-2.25061-1.8673 1.4829-20.1884 6.7309-20.1927zm8.7841 7.3198c-.0286-2.4854-.0844-7.3255 3.7465-7.3286 5.2479-.0043 9.0115 18.3106 6.7639 20.1816s-6.7468.7532-8.9977-1.488c-1.8174-1.8094-1.6637-6.0411-1.5534-9.0788.0237-.6545.0455-1.2537.0451-1.7612-.0001-.1591-.0022-.3352-.0044-.525z" fill="#333" fill-rule="evenodd"/></svg>