<svg fill="none" height="48" viewBox="0 0 48 48" width="48" xmlns="http://www.w3.org/2000/svg"><path clip-rule="evenodd" d="m6 9c0-1.65685 1.34315-3 3-3h30c1.6569 0 3 1.34315 3 3v30c0 1.6569-1.3431 3-3 3h-30c-1.65685 0-3-1.3431-3-3zm5.4337 1c-.2611 0-.5198.0107-.7758.0316-.3718.0304-.6579.3383-.6579.7081v27.5498c0 .3924.3209.7105.7169.7105h2.1505c.3959 0 .7169-.3181.7169-.7105v-5.1856l2.9367 1.2475c.3755.1595.832.3275 1.3086.3898.4855.0633 1.0363.0221 1.5487-.288.8227-.4981 1.3745-1.3983 1.3745-2.4269v-2.1316c0-.3924-.321-.7105-.7169-.7105l-2.2063-.7105c0-.7215.5895-.7169 1.2998-.7115.0623.0005.1258.001.1897.001h.7168c.3959 0 .7169-.3182.7169-.7106v-1.421h.8111c1.1451 0 1.8281-1.265 1.1929-2.2093l-2.004-2.9795v-1.206c0-5.1013-4.1723-9.2368-9.3191-9.2368zm7.1685 11.0132c0 .5886-.4814 1.0657-1.0753 1.0657-.5938 0-1.0752-.4771-1.0752-1.0657 0-.5887.4814-1.0658 1.0752-1.0658.5939 0 1.0753.4771 1.0753 1.0658zm8.082 6.9868c0 .893-.4791 1.6693-1.1887 2.084l1.009 1.7268c1.304-.762 2.1797-2.1849 2.1797-3.8108s-.8757-3.0488-2.1797-3.8108l-1.009 1.7268c.7096.4147 1.1887 1.191 1.1887 2.084zm4.2105 0c0-2.0672-.8995-3.786-2.1124-4.6635l1.1723-1.6204c1.8075 1.3077 2.9401 3.6732 2.9401 6.2839s-1.1326 4.9762-2.9401 6.2839l-1.1723-1.6204c1.2129-.8775 2.1124-2.5963 2.1124-4.6635zm4.2106 0c0 3.1814-1.2642 5.848-2.9898 7.2165l1.2427 1.567c2.3016-1.8252 3.7471-5.128 3.7471-8.7835s-1.4455-6.9583-3.7471-8.7835l-1.2427 1.567c1.7256 1.3685 2.9898 4.0351 2.9898 7.2165z" fill="#333" fill-rule="evenodd"/></svg>