<svg fill="none" height="48" viewBox="0 0 48 48" width="48" xmlns="http://www.w3.org/2000/svg"><path clip-rule="evenodd" d="m26.2357 13.2804c2.0484-2.3422 13.0026-5.2804 13.0026-5.2804s-1.862 11.7165-3.5007 13.5903c-1.1591 1.3254-4.7246.6051-6.7121.0701-.8725 1.3816-1.6102 2.9114-1.9958 4.5073-.1329.5503-.7227.8236-1.3172.6103s-.9687-.8323-.8358-1.3825c.4454-1.8436 1.2857-3.5688 2.2511-5.089-.8806-1.7034-2.4202-5.2788-.8921-7.0261zm-12.3468 14.7196h-4.8889v11h4.8889v-1.9064c.791-.0272 1.6147-.0485 1.9652-.0347 1.6763.0663 2.9282.4567 4.1939.8515 1.1808.3683 2.3738.7404 3.9348.8565.3923.0291.774.0668 1.1441.1033 1.3367.1318 2.5215.2486 3.5008-.1033 1.2506-.4495 8.3967-3.8653 9.29-4.7642.8932-.8989.4466-3.326-2.3225-2.8765-1.3664.2217-2.9502.8594-4.3867 1.4376-1.4747.5937-2.7941 1.1248-3.5634 1.0793-1.5185-.0899-5.5382-.809-5.5382-.809l4.6153.0548s.652.034 1.5482-.5941 1.6972-2.4271.3573-2.4271-2.7691-.4494-2.7691-.4494l-5.7169-1.2585s-1.9652-.3596-2.7691 0c-.5101.2281-2.2672.8543-3.4837 1.2816zm-1.1985-15.5128s8.1301 2.2036 9.6503 3.9603c1.0569 1.2213.1365 3.6332-.5227 4.99.7933 1.3061 1.4886 2.7308 1.9391 4.2157.161.5305-.1344 1.093-.6597 1.2564-.5254.1634-1.0817-.1343-1.2427-.6648-.3671-1.21-.9293-2.3954-1.5876-3.5115-1.4757.4012-4.1188.94-4.9785-.0534-1.2162-1.4053-2.5982-10.1927-2.5982-10.1927zm15.853 7.4857c-.4532-.3157-.5647-.9389-.249-1.3921 1.7943-2.5762 3.2202-4.2444 4.2115-5.2786.4958-.5172.8832-.8761 1.1538-1.1107.1354-.1174.2416-.2037.3175-.2632.038-.0298.0685-.0528.0912-.0697l.0284-.0208.0098-.0071.0039-.0027.0016-.0011s.0014-.0011.5722.8115l-.5708-.8126c.452-.3174 1.0757-.2084 1.3931.2435.3164.4505.2092 1.0715-.2389 1.3899l-.0069.0051c-.0088.0065-.0256.0192-.0502.0385-.0493.0385-.1298.1037-.2407.1998-.2218.1922-.5647.5084-1.0202.9836-.9111.9505-2.272 2.5364-4.0142 5.0377-.3157.4531-.9389.5646-1.3921.249zm-7.8287.1067c.3138.4552.2026 1.0818-.2485 1.3995-.451.3176-1.071.2061-1.3848-.2492-.9297-1.3488-1.6504-2.196-2.1247-2.696-.237-.2499-.4123-.4128-.5211-.5081-.0543-.0477-.0921-.0784-.1126-.0947-.0093-.0073-.0151-.0117-.0173-.0134-.4427-.3206-.5475-.9428-.2331-1.3945.3163-.4544.9369-.5642 1.3862-.2453l-.5702.8191c.5702-.8191.5702-.8191.5702-.8191l.0014.001.0015.0011.0033.0023.0077.0056.0201.0149c.0155.0116.035.0266.0586.0453.0471.0372.1103.0892.1889.1581.1574.1379.3768.3436.6538.6357.5539.5839 1.3391 1.5137 2.3206 2.9377z" fill="#333" fill-rule="evenodd"/></svg>