<svg fill="none" height="48" viewBox="0 0 48 48" width="48" xmlns="http://www.w3.org/2000/svg"><g fill="#333"><path d="m20.5788 9.30859c1.7981 0 3.2692 1.47111 3.2692 3.26911 0 1.7981-1.4711 3.2692-3.2692 3.2692-1.798 0-3.2691-1.4711-3.2691-3.2692 0-1.798 1.4711-3.26911 3.2691-3.26911z"/><path d="m33.6554 20.7506h-8.1729v19.6149c0 .899-.7355 1.6346-1.6345 1.6346-.8991 0-1.6346-.7356-1.6346-1.6346v-8.1729h-3.2692v8.1729c0 .899-.7355 1.6346-1.6345 1.6346-.8991 0-1.6346-.7356-1.6346-1.6346v-19.6149 7.4662c-.899 0-3.6751-1.7112-3.6751-5.9249 0-3.1759 2.7761-4.8105 3.6751-4.8105h17.9803c.899 0 1.6346.7356 1.6346 1.6346s-.7356 1.6346-1.6346 1.6346z"/><path d="m31.934 15.3429v25.8344h-1.7143v-25.8344c-.9679-.1979-1.8377-.724-2.4624-1.4893-.6248-.7653-.966-1.7228-.9662-2.7107v-5.1429h1.7143v6h1.7143v-6h1.7143v6h1.7143v-6h1.7143v5.1429c-.0001.9879-.3414 1.9454-.9661 2.7107-.6248.7653-1.4946 1.2914-2.4625 1.4893z"/></g></svg>