<svg fill="none" height="48" viewBox="0 0 48 48" width="48" xmlns="http://www.w3.org/2000/svg"><path clip-rule="evenodd" d="m31 25.7311v-16.7311c0-1.10457-.8954-2-2-2s-2 .89543-2 2v14h-2v-17c0-1.10457-.8954-2-2-2s-2 .89543-2 2v17h-2v-14c0-1.10457-.8954-2-2-2s-2 .89543-2 2v16.1111h-2v-10.1111c0-1.1046-.8954-2-2-2-1.10457 0-2 .8954-2 2v17c0 6.6274 5.3726 12 12 12h1.4221c4.405 0 8.4558-2.4134 10.5529-6.2872l6.9377-12.8155c.619-1.1434.2794-2.5695-.7886-3.3111-1.1685-.8115-2.775-.5108-3.5709.6684l-2.7244 4.036c-.5518.8176-1.8288.427-1.8288-.5595zm-12.9771 4.2524c.5523-.0004.9996-.4485.9992-1.0008-.0005-.5523-.4486-.9996-1.0009-.9992-.5522.0005-.9996.4486-.9991 1.0009.0004.5522.4485.9996 1.0008.9991zm5.0008.9959c.5523-.0004.9996-.4485.9992-1.0008-.0005-.5523-.4486-.9996-1.0008-.9992-.5523.0005-.9997.4486-.9992 1.0009.0004.5522.4485.9996 1.0008.9991zm-1.9975 3.0017c.0004.5523-.4469 1.0003-.9992 1.0008s-1.0004-.4469-1.0008-.9992c-.0005-.5523.4468-1.0003.9991-1.0008s1.0004.4469 1.0009.9992zm4-.0033c.5522-.0004.9996-.4485.9991-1.0008-.0004-.5523-.4485-.9996-1.0008-.9992-.5523.0005-.9996.4485-.9992 1.0008.0005.5523.4486.9997 1.0009.9992zm3.0024 2.9975c.0005.5523-.4469 1.0004-.9992 1.0009-.5523.0004-1.0003-.4469-1.0008-.9992-.0004-.5523.4469-1.0004.9992-1.0008.5523-.0005 1.0004.4469 1.0008.9991zm.9967-4.0008c.5523-.0004.9997-.4485.9992-1.0008-.0004-.5523-.4485-.9996-1.0008-.9992-.5523.0005-.9996.4486-.9992 1.0008.0005.5523.4485.9997 1.0008.9992zm-5.9959 5.0049c.0005.5523-.4469 1.0004-.9992 1.0009-.5522.0004-1.0003-.4469-1.0008-.9992-.0004-.5523.4469-1.0004.9992-1.0008.5523-.0005 1.0004.4469 1.0008.9991zm-6 .005c.5523-.0005.9997-.4486.9992-1.0009-.0004-.5522-.4485-.9996-1.0008-.9991-.5523.0004-.9996.4485-.9992 1.0008.0005.5523.4485.9996 1.0008.9992zm-1.0041-4.9992c.0005.5523-.4469 1.0003-.9991 1.0008-.5523.0004-1.0004-.4469-1.0009-.9992-.0004-.5523.4469-1.0004.9992-1.0008.5523-.0005 1.0004.4469 1.0008.9992z" fill="#333" fill-rule="evenodd"/></svg>