<svg fill="none" height="48" viewBox="0 0 48 48" width="48" xmlns="http://www.w3.org/2000/svg"><g fill="#333"><path d="m22.0264 22.9659c-.8966-1.6622-1.9806-3.2314-3.2338-4.6815-.9795-1.473-2.2371-2.7701-3.7124-3.8292-.9268-.5081-2.0221-.6832-3.0786-.4921-1.5005.3001-2.39307 2.0166-3.18212 3.0729l-2.58706 3.265c-.18519.2465-.26401.5485-.2209.8463.04311.2979.20502.5698.45373.7622l4.65675 4.5291c.2134.1564.878 1.0614.878 1.0614s-3.43809 8.7806-4.13773 10.8907h5.05773l.1811 3.409c0 .3184.1362.6237.3788.8488s.5716.3516.9147.3516.6721-.1265.9147-.3516c.2425-.2251.3788-.5304.3788-.8488l.194-3.337h4.5791c0-.3001-.4527-6.2059-.4139-6.8901.0388-.6843.8408-1.0924 1.2935-1.5005.5262-.4962.9629-1.0677 1.2936-1.6925.2699-.5654.4277-1.1713.4656-1.7886-.0193-1.2735-.3889-2.5213-1.0736-3.6251zm-11.9353-2.0767 1.7164-2.8809c.1811.7923.3881 1.5845.5821 2.4008.3235 1.1037.493 1.2413.5045 2.385-1.8941-1.2941-1.9554-1.3527-2.803-1.9049z"/><path d="m20 9c0 2.2091-1.7909 4-4 4s-4-1.7909-4-4c0-2.20914 1.7909-4 4-4s4 1.79086 4 4z"/><path d="m29.9375 5.5625c0-.31066.2518-.5625.5625-.5625s.5625.25184.5625.5625v3.375c0 .31066-.2518.5625-.5625.5625s-.5625-.25184-.5625-.5625z"/><path d="m38.9375 5.5625c0-.31066.2518-.5625.5625-.5625s.5625.25184.5625.5625v3.375c0 .31066-.2518.5625-.5625.5625s-.5625-.25184-.5625-.5625z"/><g clip-rule="evenodd" fill-rule="evenodd"><path d="m30.5387 16.25c-.0126.0132-.0255.0261-.0387.0387-.0132-.0126-.0261-.0255-.0387-.0387.0126-.0132.0255-.0261.0387-.0387.0132.0126.0261.0255.0387.0387zm-.7262-1.6875c-.5523 0-1 .4477-1 1v1.375c0 .5523.4477 1 1 1h1.375c.5523 0 1-.4477 1-1v-1.375c0-.5523-.4477-1-1-1z"/><path d="m35.0387 16.25c-.0126.0132-.0255.0261-.0387.0387-.0132-.0126-.0261-.0255-.0387-.0387.0126-.0132.0255-.0261.0387-.0387.0132.0126.0261.0255.0387.0387zm-.7262-1.6875c-.5523 0-1 .4477-1 1v1.375c0 .5523.4477 1 1 1h1.375c.5523 0 1-.4477 1-1v-1.375c0-.5523-.4477-1-1-1z"/><path d="m39.5387 16.25c-.0126.0132-.0255.0261-.0387.0387-.0132-.0126-.0261-.0255-.0387-.0387.0126-.0132.0255-.0261.0387-.0387.0132.0126.0261.0255.0387.0387zm-.7262-1.6875c-.5523 0-1 .4477-1 1v1.375c0 .5523.4477 1 1 1h1.375c.5523 0 1-.4477 1-1v-1.375c0-.5523-.4477-1-1-1z"/><path d="m30.5387 20.75c-.0126.0132-.0255.0261-.0387.0387-.0132-.0126-.0261-.0255-.0387-.0387.0126-.0132.0255-.0261.0387-.0387.0132.0126.0261.0255.0387.0387zm-.7262-1.6875c-.5523 0-1 .4477-1 1v1.375c0 .5523.4477 1 1 1h1.375c.5523 0 1-.4477 1-1v-1.375c0-.5523-.4477-1-1-1z"/><path d="m35.0387 20.75c-.0126.0132-.0255.0261-.0387.0387-.0132-.0126-.0261-.0255-.0387-.0387.0126-.0132.0255-.0261.0387-.0387.0132.0126.0261.0255.0387.0387zm-.7262-1.6875c-.5523 0-1 .4477-1 1v1.375c0 .5523.4477 1 1 1h1.375c.5523 0 1-.4477 1-1v-1.375c0-.5523-.4477-1-1-1z"/><path d="m39.5387 20.75c-.0126.0132-.0255.0261-.0387.0387-.0132-.0126-.0261-.0255-.0387-.0387.0126-.0132.0255-.0261.0387-.0387.0132.0126.0261.0255.0387.0387zm-.7262-1.6875c-.5523 0-1 .4477-1 1v1.375c0 .5523.4477 1 1 1h1.375c.5523 0 1-.4477 1-1v-1.375c0-.5523-.4477-1-1-1z"/><path d="m42 9.25h-14v14h14zm-14-2c-1.1046 0-2 .89543-2 2v14c0 1.1046.8954 2 2 2h14c1.1046 0 2-.8954 2-2v-14c0-1.10457-.8954-2-2-2z"/></g><path d="m26 9.25c0-1.10457.8954-2 2-2h14c1.1046 0 2 .89543 2 2v2.1875c0 1.1046-.8954 2-2 2h-14c-1.1046 0-2-.8954-2-2z"/><path clip-rule="evenodd" d="m42 9.25h-14v2.1875h14zm-14-2c-1.1046 0-2 .89543-2 2v2.1875c0 1.1046.8954 2 2 2h14c1.1046 0 2-.8954 2-2v-2.1875c0-1.10457-.8954-2-2-2z" fill-rule="evenodd"/><path clip-rule="evenodd" d="m43.4375 13.4375h-16.875v-2h16.875z" fill-rule="evenodd"/></g></svg>