<svg fill="none" height="48" viewBox="0 0 48 48" width="48" xmlns="http://www.w3.org/2000/svg"><g fill="#333"><path clip-rule="evenodd" d="m7 6c-.36423 0-.72517.015-1.08222.04446-.51864.04279-.91778.47621-.91778.99661v35.95893c0 .5523.44772 1 1 1h3c.55228 0 1-.4477 1-1v-4.4835l4.0968 1.7558c.5237.2245 1.1605.461 1.8254.5486.6772.0892 1.4457.0312 2.1604-.4053 1.1477-.7009 1.9174-1.9679 1.9174-3.4156v-3c0-.5523-.4477-1-1-1h-3c0-1.1046.8954-2 2-2h1c.5523 0 1-.4477 1-1v-2h1.1315c1.5974 0 2.5502-1.7803 1.6641-3.1094l-2.7956-4.1934v-1.6972c0-7.1797-5.8203-13-13-13zm10 15.5c0 .8284-.6716 1.5-1.5 1.5s-1.5-.6716-1.5-1.5.6716-1.5 1.5-1.5 1.5.6716 1.5 1.5z" fill-rule="evenodd"/><path clip-rule="evenodd" d="m35.4966 15.7404c.1433-.5325.6907-.8485 1.2235-.7064l4.4682 1.1922c.2566.0684.4755.2362.6083.4662.1327.23.1686.5034.0996.7598l-.777 2.8874.2934.1329c.4482.203.6821.7019.5515 1.1763l-2.9394 10.6784c-.5972 2.1697-2.5703 3.673-4.8207 3.673h-6.204c-.5523 0-1-.4477-1-1v-7c0-.5522.4477-1 1-1h3.2468l2.3851-8.7794c.0768-.2829.2739-.5177.539-.6426.2634-.124.5677-.1271.8335-.0085zm4.2079 2.1598-.4628 1.7197-2.4215-1.1016.3484-1.2946z" fill-rule="evenodd"/><path d="m26 28v7h-2v-7z"/></g></svg>