<svg fill="none" height="48" viewBox="0 0 48 48" width="48" xmlns="http://www.w3.org/2000/svg"><g fill="#333"><path d="m35.7919 24.3106c3.4287 0 6.208-2.7794 6.208-6.208s-2.7793-6.2081-6.208-6.2081c-3.4285 0-6.208 2.7795-6.208 6.2081s2.7795 6.208 6.208 6.208z"/><path d="m38.8959 29.8976h-2.0538l-3.3936-3.3981c-.5398-.8647-1.2918-1.5769-2.1846-2.0688-.893-.4918-1.8968-.747-2.9162-.7411h-6.5231l.6211 12.416h5.5869c.8286-.0012 1.6485-.1689 2.4109-.4934.7623-.3245 1.4517-.799 2.0269-1.3954l.9571.9587c.2929.3014.645.5387 1.034.6973.3892.1586.807.2348 1.2269.2238.036 0 .0675.009.1035.009h3.104c.8234 0 1.6128-.327 2.1949-.9091s.9092-1.3717.9092-2.1949-.3271-1.6128-.9092-2.1949-1.3715-.9091-2.1949-.9091z"/><path d="m15.8086 26.7935-3.104 3.104h-3.60058c-.82319 0-1.61277.3271-2.19487.9092s-.90915 1.3716-.90915 2.1948.32705 1.6128.90915 2.1949 1.37168.9092 2.19487.9092h4.65078c.0375 0 .069 0 .105-.009.4201.0106.8378-.0658 1.2268-.2243.3891-.1585.7411-.3958 1.0341-.6969l4.0342-4.0357c.2856-.2856.5123-.6248.6668-.9981.1547-.3731.2342-.7732.2342-1.1772 0-.4041-.0795-.804-.2342-1.1773-.1545-.3733-.3812-.7125-.6668-.9981-.2857-.2857-.6247-.5123-.998-.6669s-.7734-.2342-1.1774-.2342-.804.0796-1.1772.2342c-.3733.1546-.7125.3812-.9982.6669z"/></g></svg>