<svg fill="none" height="48" viewBox="0 0 48 48" width="48" xmlns="http://www.w3.org/2000/svg"><g fill="#333"><path d="m35.7919 24.5398c3.4287 0 6.208-2.625 6.208-5.8632 0-3.238-2.7793-5.8631-6.208-5.8631-3.4285 0-6.208 2.6251-6.208 5.8631 0 3.2382 2.7795 5.8632 6.208 5.8632z"/><path d="m38.896 29.8164h-2.0539l-3.3936-3.2093c-.5395-.8169-1.2915-1.4896-2.1845-1.9542-.8929-.4646-1.8969-.7055-2.9163-.6997h-6.5231l1.6459 11.7263h4.5621c.8282-.0007 1.6476-.1584 2.41-.4639.7623-.3055 1.4518-.7523 2.0278-1.3143l.9571.904c.2929.2848.6448.5091 1.034.6591.389.15.8068.2222 1.2269.2123.036 0 .0675.0085.1035.0085h3.1041c.8233 0 1.6127-.3089 2.1948-.8587.5821-.5497.9092-1.2953.9092-2.0729 0-.7774-.3271-1.5232-.9092-2.0729-.5821-.5498-1.3715-.8587-2.1948-.8587z"/><path d="m15.8086 26.8847-3.104 2.9316h-3.60058c-.82319 0-1.61277.3089-2.19487.8587-.5821.5497-.90915 1.2954-.90915 2.0729 0 .7776.32705 1.5232.90915 2.0729.5821.5498 1.37168.8587 2.19487.8587h4.65078c.0375 0 .069-.0085.105-.0085.4201.0096.8378-.0628 1.2269-.2127.389-.1499.7411-.3742 1.034-.6587l4.0342-3.8115c.2856-.2698.5123-.5901.6668-.9425.1547-.3526.2342-.7304.2342-1.112s-.0795-.7593-.2342-1.1119c-.1545-.3525-.3812-.6729-.6668-.9426-.2857-.2698-.6247-.4838-.998-.6298-.3733-.1461-.7734-.2212-1.1774-.2212s-.804.0751-1.1772.2212c-.3733.146-.7125.36-.9982.6298z"/><path d="m39.8427 8.42557c0-.31242-.3449-.51816-.6436-.38369l-3.4071 1.53252 3.4071 1.5327c.2987.1343.6436-.0713.6436-.3839z"/><path d="m32.3849 8.04188c-.2987-.13447-.6436.07127-.6436.38369v2.29763c0 .3126.3449.5182.6436.3839l3.4071-1.5327z"/></g></svg>