<svg fill="none" height="48" viewBox="0 0 48 48" width="48" xmlns="http://www.w3.org/2000/svg"><g clip-rule="evenodd" fill="#333" fill-rule="evenodd"><path d="m23.9859 16.46c2.8803 0 5.2153-2.3416 5.2153-5.23 0-2.88845-2.335-5.23-5.2153-5.23-2.8804 0-5.2154 2.34155-5.2154 5.23 0 2.8884 2.335 5.23 5.2154 5.23z"/><path d="m12.2154 15.1602-.0099-.0214-.0106-.0211c-.0792-.159-.2054-.5467-.1942-.9792.0101-.3915.1264-.7585.4488-1.0818.4147-.4158.7474-.508.9951-.5233.2944-.0181.6529.0663 1.0665.2716.0103.0066.0807.0512.2202.1869.1575.1531.342.361.5786.6442.0953.1141.1991.2408.3105.3767v.0001h.0001c.403.4919.9054 1.1049 1.4644 1.6815 1.4896 1.5366 3.6548 3.1186 6.9151 3.1186s5.4255-1.582 6.9151-3.1186c.559-.5766 1.0614-1.1896 1.4645-1.6815l.0001-.0002c.1113-.1359.2151-.2625.3104-.3766.2366-.2832.4211-.4911.5786-.6442.1395-.1357.21-.1806.2203-.1872.4136-.2053.772-.2894 1.0664-.2713.2477.0153.5804.1075.9951.5233.3224.3233.4387.6903.4488 1.0818.0112.4325-.115.8202-.1942.9792l-.0106.0211-.0099.0214c-1.5656 3.3641-3.3899 5.2116-5.5068 6.1341l-1.0483.4569v3.7486h-10.459v-3.7486l-1.0483-.4569c-2.1169-.9225-3.9412-2.77-5.5068-6.1341zm6.5551 12.3396v1.2246c0 .6362.5966 2.2705 2.4271 3.0535.2095.0896.445.202.6566.3029l.1245.0593c.2601.1235.5117.2403.7662.3439.5308.216.9448.3191 1.2551.3191s.7243-.1031 1.2551-.3191c.2545-.1036.5061-.2204.7662-.3439l.1245-.0593c.2116-.1009.4471-.2133.6566-.3029 1.8305-.783 2.4271-2.4173 2.4271-3.0535v-1.2246z"/><path d="m18.3676 31.3811c.4077.8819 1.174 1.8155 2.3937 2.4058-.2973.2486-.5779.5423-.8348.9606-.5002.8149-.93 1.8215-.93 2.7699 0 .867.325 1.6129.5713 2.1779l.018.0413c.2718.6243.4436 1.0444.4436 1.4886 0 .9986-.7843 1.7744-1.7108 1.7744-.8635 0-1.5468-.6292-2.0557-1.8472-.4969-1.1894-.6882-2.6569-.6882-3.635 0-2.6488.9971-4.6046 2.7929-6.1363z"/><path d="m27.2386 33.7869c1.2197-.5903 1.986-1.5239 2.3938-2.4058 1.7957 1.5317 2.7929 3.4875 2.7929 6.1363 0 .9781-.1913 2.4456-.6882 3.635-.5089 1.218-1.1922 1.8472-2.0557 1.8472-.9266 0-1.7109-.7758-1.7109-1.7744 0-.4442.1718-.8643.4437-1.4886l.018-.0413c.2462-.565.5713-1.3109.5713-2.1779 0-.9484-.4298-1.955-.9301-2.7699-.2568-.4183-.5374-.712-.8348-.9606z"/></g></svg>