<svg fill="none" height="48" viewBox="0 0 48 48" width="48" xmlns="http://www.w3.org/2000/svg"><path clip-rule="evenodd" d="m23.9999 18.25c1.933 0 3.5-1.567 3.5-3.5s-1.567-3.5-3.5-3.5-3.5 1.567-3.5 3.5 1.567 3.5 3.5 3.5zm-2.5 1.5c-.5015 0-.9699.2507-1.2481.6679l-4 6c-.4595.6893-.2732 1.6206.4161 2.0802.6893.4595 1.6206.2732 2.0801-.416l1.2519-1.8779v9.0458c0 .8284.6716 1.5 1.5 1.5s1.5-.6716 1.5-1.5v-5h2v5c0 .8284.6716 1.5 1.5 1.5s1.5-.6716 1.5-1.5v-9.0458l1.2519 1.8779c.4596.6892 1.3909.8755 2.0802.416.6893-.4596.8755-1.3909.416-2.0802l-4-6c-.2782-.4172-.7466-.6679-1.2481-.6679z" fill="#333" fill-rule="evenodd"/></svg>