<svg fill="none" height="48" viewBox="0 0 48 48" width="48" xmlns="http://www.w3.org/2000/svg"><g fill="#333"><path clip-rule="evenodd" d="m21.407 15.0924c2.5052.4688 4.4012 2.6668 4.4012 5.3076 0 1.1193-.3407 2.1591-.9239 3.0214l13.8336 10.7384c.3098-.1608.6617-.2516 1.0349-.2516 1.2426 0 2.25 1.0074 2.25 2.25s-1.0074 2.25-2.25 2.25-2.25-1.0074-2.25-2.25c0-.131.0112-.2594.0327-.3843l-14.0703-10.9223c-.8695.5982-1.9229.9484-3.0582.9484-2.983 0-5.4011-2.4177-5.4011-5.4 0-2.6407 1.8959-4.8387 4.4011-5.3076v-9.0924h2zm.7988 5.3076c0 .9941-.8059 1.8-1.8 1.8s-1.8-.8059-1.8-1.8.8059-1.8 1.8-1.8 1.8.8059 1.8 1.8z" fill-rule="evenodd"/><path d="m27.6302 20.3838c0-2.9145-1.732-5.4245-4.2232-6.5573v-7.72054c4.2889.37699 6.5172 1.72826 8.5115 3.57746.1008.09349.1996.18423.2962.27291l.001.00094c.8497.78033 1.5257 1.40103 1.8747 2.33073 1.3027 3.4703 3.1155 8.2957 4.234 11.2724.4913 1.3078-.4763 2.7009-1.8733 2.7009h-1.6324v2.3376l-7.5748-5.8824c.2504-.7316.3863-1.5163.3863-2.3327z"/><path d="m17.407 13.8463v-7.60494c-8.98915 1.35281-11.40314 8.05914-11.40309 11.73334.00007 5.7671 3.68312 10.241 5.40939 12.0333v11.9916h17.1125v-6.5119h4.2929c.3026 0 .5896-.0672.8467-.1876l-10.585-8.2201c-.8207.3251-1.7153.5038-2.6517.5038-3.9773 0-7.2016-3.2236-7.2016-7.2 0-2.8976 1.7121-5.3954 4.1799-6.5375z"/></g></svg>