<svg fill="none" height="48" viewBox="0 0 48 48" width="48" xmlns="http://www.w3.org/2000/svg"><path clip-rule="evenodd" d="m27.9245 8c0 2.2091-1.7908 4-4 4-2.2091 0-4-1.7909-4-4 0-2.20914 1.7909-4 4-4 2.2092 0 4 1.79086 4 4zm-.931 9.5953c.1089.1608.2008.3369.272.5268.4848 1.2928-.1702 2.7338-1.463 3.2186l-.4538.1702 5.0492 1.8935c.5626.2109 1.1967.0659 1.6116-.3686s.5305-1.0746.2938-1.6268l-2.9883-6.9727c-.0343-.0845-.0761-.1652-.1245-.2413-.1081-.1701-.2479-.3143-.4094-.4266-.2522-.1753-.5572-.2726-.8759-.2684h-7.9806c-.6001 0-1.1424.3576-1.3788.9091l-3 7c-.2366.5522-.121 1.1923.2939 1.6268s1.049.5795 1.6115.3686l8-3c.7757-.2909 1.1687-1.1555.8779-1.9312-.2909-.7757-1.1555-1.1687-1.9312-.8778l-4.7108 1.7666.5453-1.2725 1.7402-.6526.0001-.0001 2.0741-.7778c.125-.0468.2513-.083.378-.1091l.0001.0001c.1471-.0302.2947-.0467.4413-.0501h.116c.7993.0187 1.5551.4226 2.0111 1.0952zm-8.0689 6.3247v18.08c0 .8284.6715 1.5 1.5 1.5.8284 0 1.5-.6716 1.5-1.5v-12h4v12c0 .8284.6715 1.5 1.5 1.5.8284 0 1.5-.6716 1.5-1.5v-18.1372l-4.5955-1.9695zm-3.936-4.1061c-1.3454 1.3454-1.3454 3.5267 0 4.8721l-1.4142 1.4142c-2.1264-2.1264-2.1264-5.5741 0-7.7005zm17.872 4.8721c1.3454-1.3454 1.3454-3.5267 0-4.8721l1.4142-1.4142c2.1264 2.1264 2.1264 5.5741 0 7.7005zm-19.9788-6.9789c-2.5091 2.509-2.5091 6.5769 0 9.0859l-1.4143 1.4142c-3.29001-3.29-3.29001-8.6243 0-11.9143zm22.0857 9.0859c2.509-2.509 2.509-6.5769 0-9.0859l1.4142-1.4142c3.2901 3.29 3.2901 8.6243 0 11.9143z" fill="#333" fill-rule="evenodd"/></svg>