<svg fill="none" height="48" viewBox="0 0 48 48" width="48" xmlns="http://www.w3.org/2000/svg"><g fill="#333"><path clip-rule="evenodd" d="m27.0394 34.2634c-.0448.795-.5337 4.2116-.6269 4.8589h-1.4067v4.8888h11v-4.8888h-1.4094c.735-1.142 1.5307-1.9477 2.334-2.7612.8691-.8801 1.7472-1.7693 2.5666-3.1029.206-.3352.4146-.6571.6169-.9692l.0001-.0001c.7305-1.127 1.378-2.126 1.5147-3.1577.1746-1.3173.4192-9.2341.0305-10.4403-.3888-1.2061-2.7501-1.9231-3.6216.7434-.43 1.3158-.5903 3.0156-.7358 4.5573-.1493 1.5827-.2829 2.9987-.6764 3.6613-.7767 1.3079-3.2604 4.5493-3.2604 4.5493l2.1668-4.0755s.3294-.5637.1826-1.6482-1.3775-2.6217-1.9924-1.4313c-.6149 1.1905-1.6701 2.2541-1.6701 2.2541l-3.7417 4.5018s-1.2214 1.581-1.2708 2.4603zm-6.0626.0001c.0447.795.5336 4.2116.6268 4.8588h1.4067v4.8889h-11v-4.8889h1.4094c-.7349-1.1419-1.5307-1.9476-2.3339-2.7611-.8692-.8801-1.74725-1.7693-2.56672-3.1029-.20596-.3352-.41463-.6572-.61693-.9693h-.00001c-.73053-1.1271-1.37801-2.126-1.51472-3.1577-.17458-1.3173-.41918-9.2341-.03046-10.4403.38871-1.2061 2.75005-1.9231 3.62153.7434.43001 1.3158.59041 3.0156.73581 4.5573.1493 1.5827.2829 2.9987.6764 3.6612.7767 1.308 3.2604 4.5494 3.2604 4.5494l-2.1667-4.0755s-.3295-.5637-.1827-1.6482 1.3775-2.6217 1.9924-1.4313c.6149 1.1905 1.6701 2.2541 1.6701 2.2541l3.7418 4.5018s1.2213 1.581 1.2708 2.4603z" fill-rule="evenodd"/><path d="m31.7288 11c2.2091 0 4-1.79082 4-4 0-2.20909-1.7909-4-4-4s-4 1.79091-4 4c0 2.20918 1.7909 4 4 4z"/><path d="m33.7027 14.8414h-1.3752l-2.2722-2.2753c-.3614-.579-.865-1.0558-1.4628-1.3852-.5979-.3293-1.27-.5002-1.9526-.4963h-4.3677l.4159 8.3135h3.7409c.5548-.0008 1.1037-.1131 1.6142-.3304.5104-.2173.972-.535 1.3571-.9343l.6409.6419c.1961.2018.4319.3607.6924.4669s.5403.1572.8215.1499c.0241 0 .0452.006.0693.006h2.0783c.5513 0 1.0799-.219 1.4697-.6087.3897-.3898.6087-.9185.6087-1.4697 0-.5511-.219-1.0798-.6087-1.4696-.3898-.3897-.9184-.6087-1.4697-.6087z"/><path d="m18.2441 12.7631-2.0784 2.0783h-2.4108c-.5512 0-1.0799.219-1.4696.6088-.3898.3897-.6088.9184-.6088 1.4696s.219 1.0799.6088 1.4696c.3897.3898.9184.6088 1.4696.6088h3.114c.0251 0 .0462 0 .0703-.0061.2813.0072.561-.044.8214-.1501.2606-.1061.4963-.265.6925-.4666l2.7011-2.7022c.1913-.1913.3431-.4184.4465-.6683.1036-.2499.1569-.5178.1569-.7883s-.0533-.5383-.1569-.7882c-.1034-.25-.2552-.4771-.4465-.6683-.1912-.1913-.4183-.3431-.6682-.4466s-.5178-.1568-.7883-.1568c-.2706 0-.5384.0533-.7883.1568s-.477.2553-.6683.4466z"/></g></svg>