<svg fill="none" height="48" viewBox="0 0 48 48" width="48" xmlns="http://www.w3.org/2000/svg"><g fill="#333"><path clip-rule="evenodd" d="m37.2645 25.9548-.1657-.3532c-.7144-1.5234-.9231-3.1375-.9865-4.5694-.0319-.7216-.0277-1.4348-.0206-2.0904.001-.0902.002-.1789.003-.2665.0065-.5658.0125-1.0797.0009-1.5746-.049-1.9497-.6626-3.848-1.7725-5.4731-1.2642-1.5686-2.9158-2.80171-4.8036-3.58014l-.0328-.01354-.0323-.01469c-2.5553-1.16144-5.34-1.7611-8.1589-1.75565h-.0022c-3.5472.00291-6.9406 1.38905-9.4356 3.84192-2.49378 2.4516-3.88617 5.767-3.88334 9.2147.00167 2.0443.59653 4.3755 1.63002 6.5322 1.03592 2.1618 2.43932 3.9964 3.91672 5.133l.7797.5998.0073 8.9155c.3252.402.9567.8982 1.9037 1.3283 1.1588.5263 2.3235.739 2.9974.6834l.0812-.0067.0815-.0001c1.9563-.0016 2.8713-.5551 3.265-.8917.1427-.122.2419-.2368.3084-.3272l-.0045-5.5354 2.4975.6434.0012.0003.001.0002.0013.0004.0121.0029c.0155.0038.0422.0102.0793.0188.0742.0171.1897.0427.3405.0728.3023.0604.7423.1382 1.2726.2032 1.0767.132 2.4502.2014 3.7762.0058 1.3374-.1973 2.4518-.6373 3.2178-1.3715.7135-.6838 1.3411-1.8287 1.3393-3.9249l-.0014-1.7099 1.6812-.266.0013-.0002.0082-.0014c.0059-.001.0145-.0026.0256-.0047.0109-.002.0243-.0046.04-.0077.0632-.0125.1611-.0332.2826-.0635.2488-.062.5668-.1567.8766-.2876.3218-.1361.5532-.2773.6896-.3977.0275-.0242.0468-.0436.06-.0581-.0049-.0537-.0236-.1637-.0936-.3416-.1095-.2782-.2964-.5997-.5357-.9321-.2339-.325-.4827-.6119-.6764-.8198-.0954-.1024-.1738-.1818-.2255-.2329-.0132-.013-.0245-.0241-.0339-.0332-.009-.0087-.0162-.0157-.0215-.0207l-.0082-.0078-.0011-.001zm-12.3216 12.3775s.802.2066 2.0003.351c3.541.4268 10.5427.3109 10.5364-7.2823 0 0 3.3024-.5224 3.6354-2.4103.3329-1.8878-2.2054-4.2383-2.2054-4.2383-.864-1.8424-.8388-4.0128-.8151-6.0503.0066-.5633.013-1.1165.0005-1.6497-.059-2.3645-.8108-4.6623-2.1655-6.6184-1.4832-1.8619-3.4275-3.32006-5.6475-4.23551-2.8173-1.28052-5.8857-1.94091-8.9904-1.93491-4.0656.00333-7.9635 1.5917-10.836 4.41567-2.87257 2.82395-4.48451 6.65225-4.48124 10.64265.00393 4.8009 2.75739 10.5024 6.32724 13.2487l.007 8.494c1.014 2.1224 4.834 3.625 7.065 3.441 4.7382-.0038 5.5721-2.7401 5.5721-2.7401z" fill-rule="evenodd"/><path clip-rule="evenodd" d="m26.6982 20.4936c.4894-.0004.5706-.0914.7263-.2659.0902-.1011.2054-.2303.4395-.386.6484.4228 1.4135.6441 2.1941.6346l2.4786-.8801c.6982-.561 1.1772-1.3384 1.3569-2.2021.1796-.8636.049-1.7611-.3701-2.5422-.419-.781-1.101-1.3984-1.9319-1.7486-.1903-.8358-.6686-1.5832-1.3555-2.118l-2.4209-.8223-.2725.0002c-.539-.76391-1.3476-1.3085-2.2722-1.53019l-4.1891-.28046c-.8625.07045-1.6755.42121-2.3083.99584-.2992-.06841-.6055-.10374-.9129-.10532-.7443.00209-1.4721.2138-2.0956.60956-.6234.39577-1.1158.95867-1.4177 1.62077l-1.9705 1.3607c-.49.6473-.7535 1.4306-.7515 2.2346-.0046.3361.0416.6711.137.9942-.5167.6537-.7942 1.4565-.7883 2.2812-.0005.9564.3757 1.8765 1.0512 2.5712.055.6847.3014 1.3417.7125 1.8999s.9713.9963 1.6199 1.267c.7474.4552 1.3805 1.0676 1.8527 1.7923s.6675 1.5432.7717 2.3953l4.1161-.0034-.0033-3.9776c-.0015-.7062.2004-1.3987.5828-1.999.058-.091.1122-.1794.1646-.2649v-.0001c.2929-.4781.5308-.8664 1.0827-1.1316.6098-.2277 1.159-.5862 1.6068-1.0488.6388.4236 1.3939.6499 2.1669.6492zm-12.723-.1352 7.9989-1.2527-5.1921-5.7496zm8.4945-4.6761 2.3682-4.4003 4.4832 2.3241-2.3681 4.4003z" fill-rule="evenodd"/><path d="m33.978 23.842c.0007.8285-.6703 1.5006-1.4987 1.5013-.8285.0006-1.5006-.6704-1.5013-1.4988-.0006-.8284.6704-1.5006 1.4988-1.5012.8284-.0007 1.5006.6703 1.5012 1.4987z"/><g clip-rule="evenodd" fill-rule="evenodd"><path d="m20.985 32.3527-4 .0033-.0016-2 4-.0033z"/><path d="m20.9883 36.3527-4 .0033-.0016-2 4-.0033z"/><path d="m20.9916 40.3527-4 .0033-.0016-2 4-.0033z"/></g></g></svg>