<svg fill="none" height="48" viewBox="0 0 48 48" width="48" xmlns="http://www.w3.org/2000/svg"><path clip-rule="evenodd" d="m33.5 5.15771c-.2761 0-.5.22386-.5.5v1.34223h1v-1.34223c0-.27614-.2239-.5-.5-.5zm.5 3.84223h-1v1.49986.4995l-.3994.3c-.3666.2754-.6006.7105-.6006 1.2006 0 .8285.6716 1.5 1.5 1.5s1.5-.6715 1.5-1.5c0-.4901-.234-.9252-.6006-1.2006l-.3994-.3v-.4995zm-3-3.34223c0-1.38071 1.1193-2.5 2.5-2.5s2.5 1.11929 2.5 2.5v4.39279c.6175.6305 1 1.4954 1 2.4494 0 1.933-1.567 3.5-3.5 3.5s-3.5-1.567-3.5-3.5c0-.954.3825-1.8189 1-2.4494zm-3.0754 2.34223c0 2.20916-1.7909 3.99996-4.0001 3.99996-2.2091 0-4-1.7908-4-3.99996 0-2.20914 1.7909-4 4-4 2.2092 0 4.0001 1.79086 4.0001 4zm-.9311 9.59526c.1089.1608.2008.337.272.5269.4848 1.2928-.1702 2.7338-1.463 3.2186l-.4538.1702 5.0492 1.8934c.5626.211 1.1967.0659 1.6116-.3685.4149-.4345.5305-1.0747.2938-1.6268l-2.9883-6.9727c-.0343-.0846-.0761-.1653-.1245-.2413-.1081-.1701-.2479-.3144-.4094-.4266-.2522-.1754-.5572-.2727-.8759-.2685h-7.9806c-.6001 0-1.1424.3576-1.3788.9092l-3 7c-.2366.5521-.121 1.1923.2939 1.6268.4149.4344 1.049.5795 1.6115.3685l8-3c.7757-.2908 1.1687-1.1555.8779-1.9311-.2909-.7757-1.1555-1.1687-1.9312-.8779l-4.7108 1.7666.5453-1.2725 1.7402-.6526h.0001l2.0741-.7779c.125-.0468.2513-.083.378-.109h.0001c.1471-.0302.2947-.0466.4413-.0501h.116c.7993.0187 1.5551.4226 2.0111 1.0953zm-8.0689 6.3247v18.08c0 .8285.6715 1.5 1.5 1.5.8284 0 1.5-.6715 1.5-1.5v-12h4v12c0 .8285.6715 1.5 1.5 1.5.8284 0 1.5-.6715 1.5-1.5v-18.1372l-4.5955-1.9695zm-3.936-4.1061c-1.3454 1.3454-1.3454 3.5267 0 4.8721l-1.4142 1.4142c-2.1264-2.1264-2.1264-5.574 0-7.7005zm17.872 4.8721c1.3454-1.3454 1.3454-3.5267 0-4.8721l1.4142-1.4142c2.1264 2.1265 2.1264 5.5741 0 7.7005zm-19.9788-6.9789c-2.509 2.509-2.5091 6.5769 0 9.0859l-1.4143 1.4143c-3.29001-3.2901-3.29001-8.6243 0-11.9144zm22.0857 9.0859c2.509-2.509 2.509-6.5769 0-9.0859l1.4142-1.4142c3.2901 3.2901 3.2901 8.6243 0 11.9144z" fill="#333" fill-rule="evenodd"/></svg>