<svg fill="none" height="48" viewBox="0 0 48 48" width="48" xmlns="http://www.w3.org/2000/svg"><path clip-rule="evenodd" d="m33 17c0 4.9725-4.0275 9-9 9s-9-4.0275-9-9 4.0275-9 9-9 9 4.0275 9 9zm-2.5 10.9999c-.2116-.0516-.4381.0523-.5409.2615l-3.9591 11.3101v-3.5715l-.5745-4.0214c.3686-.0776.6696-.3592.7639-.7361l.5-2c.1577-.6311-.3196-1.2425-.9702-1.2425h-3.4384c-.6506 0-1.128.6114-.9702 1.2425l.5 2c.0942.3769.3953.6585.7639.7361l-.5745 4.0214v2.6962l-3.9591-10.4348c-.1028-.2092-.3293-.3131-.5409-.2615-.3587.0875-.7449.1779-1.1479.2722-2.2621.5293-5.0577 1.1835-6.5441 2.1595-1.76266 1.1574-2.808 2.5218-2.808 4.0683v6.5l15-.0002v.0003h4v-.0001h15v-6.5c0-1.5465-1.0453-2.9109-2.808-4.0683-1.4864-.976-4.2821-1.6302-6.5442-2.1596-.403-.0943-.7891-.1846-1.1478-.2721z" fill="#333" fill-rule="evenodd"/></svg>