<svg fill="none" height="48" viewBox="0 0 48 48" width="48" xmlns="http://www.w3.org/2000/svg"><g fill="#333"><path d="m34.5 6-2.1667 7.6905-4.3333 2.2619 4.3333 2.2619 2.1667 6.7857 2.1667-6.7857 4.3333-2.2619-4.3333-2.2619z"/><path d="m20 12-1 4-3 1 3 1 1 4 1-4 3-1-3-1z"/><path d="m6 30.0007c0-.5523.44772-1 1-1h3c.5523 0 1 .4477 1 1v10.9954c0 .5523-.4477 1-1 1h-3c-.55228 0-1-.4477-1-1z"/><path d="m17.7052 29.1888c.9319-.4248 3.2096 0 3.2096 0l6.6262 1.4867s1.6566.531 3.2096.531c1.5531 0 .6247 2.1253-.4141 2.8673-1.0388.7421-1.7945.7019-1.7945.7019l-5.3494-.0647s4.6591.8496 6.4191.9558c.8917.0538 2.4209-.5737 4.1302-1.2751 1.665-.6832 3.5007-1.4364 5.0844-1.6984 3.2096-.531 3.7273 2.3363 2.6919 3.3982-1.0353 1.062-9.3181 5.0974-10.7676 5.6284-1.1351.4159-2.5082.2778-4.0575.1221-.429-.0431-.8716-.0876-1.3263-.1221-1.8093-.1371-3.1919-.5766-4.5606-1.0118-1.4671-.4663-2.918-.9276-4.8611-1.0059-.6518-.0263-2.1777.0544-2.9451.0993v-8.8605c1.3259-.4717 4.0113-1.4359 4.7052-1.7522z"/></g></svg>