<svg fill="none" height="48" viewBox="0 0 48 48" width="48" xmlns="http://www.w3.org/2000/svg"><g clip-rule="evenodd" fill="#333" fill-rule="evenodd"><path d="m30.4921 17.1415c.5271-.1359 1.0661.1747 1.2127.6989.1926.6881.2952 1.4127.2952 2.1596 0 4.4183-3.5817 8-8 8s-8-3.5817-8-8c0-.7469.1026-1.4715.2952-2.1596.1466-.5242.6856-.8348 1.2127-.6989 3.7218.9596 9.2624.9596 12.9842 0zm-12.4534 2.1722c-.0255.225-.0387.454-.0387.6863 0 3.3137 2.6863 6 6 6s6-2.6863 6-6c0-.2323-.0132-.4613-.0387-.6863-3.6167.73-8.3059.73-11.9226 0z"/><path d="m19 28.4896c-5.9867 1.0453-13 3.7133-13 7.5105v6h36v-6c0-3.7972-7.0133-6.4652-13-7.5105v4.5104h-10zm-6 13.5104v-9h2v9zm21-9v9h2v-9z"/><path d="m25 6.05774v4.42276c0 .5522-.4477 1-1 1s-1-.4478-1-1v-4.4805c-1.1338.069-2.1323.31725-3 .69004v5.79046c0 .5522-.4477 1-1 1s-1-.4478-1-1v-4.54584c-1.3704 1.17876-2.1593 2.70654-2.411 4.04584-.0088.0469-.017.0937-.0245.1402-.0064.0063-.0128.0126-.0191.0189-.0892.6293-.0402 1.1471.0876 1.503.1866.5198-.0836 1.0925-.6034 1.2791s-1.0924-.0836-1.279-.6034c-.0167-.0464-.0325-.0933-.0474-.1407-5.80711 7.5823 26.4325 7.5782 20.5841-.0124-.0152.049-.0313.0976-.0482.1459-.1826.5212-.7532.7957-1.2744.6131-.5213-.1826-.7958-.7532-.6131-1.2744.1448-.4134.1866-.9292.1079-1.5-.0054-.004-.0112-.0082-.0174-.0126-.2163-1.352-1.0381-2.84721-2.4421-4.02557v4.36887c0 .5522-.4477 1-1 1s-1-.4478-1-1v-5.6182c-.3777-.17026-.7787-.32004-1.2028-.44557-.5575-.16335-1.1565-.28599-1.7972-.35899z"/></g></svg>