<svg fill="none" height="48" viewBox="0 0 48 48" width="48" xmlns="http://www.w3.org/2000/svg"><g clip-rule="evenodd" fill="#333" fill-rule="evenodd"><path d="m18.1254 29.6236c-.2283-.4644-.744-.7153-1.2468-.5927-5.4041 1.3183-10.8786 4.0063-10.8786 8.05v6.9191h10v-10c0-.5523.4477-1 1-1s1 .4477 1 1v10h12v-10c0-.5523.4477-1 1-1s1 .4477 1 1v10h10v-6.9191c0-4.0437-5.4745-6.7317-10.8786-8.05-.5028-.1226-1.0185.1283-1.2468.5927l-4.0641.2722-3.6212-.0003z"/><path d="m25 4.91406c1.0674.13736 2.0785.48739 3 .98114v3.10438c0 .55229.4477 1 1 1s1-.44771 1-1v-1.69884c1.2334 1.10146 2.1606 2.43857 2.6383 3.71546.0182.469-.0326.9536-.1245 1.425-.1166.5984-.2925 1.1365-.4403 1.5263-.0736.1942-.1395.3498-.1864.4555-.0235.0528-.0421.0931-.0545.1194l-.0137.0288-.0035.0071c-.1347.272-.0236.6017.2483.7367.2721.1351.6021.024.7372-.2481l-.4851-.2408c.4851.2408.4854.2402.4855.2401l.0006-.0012.0016-.0034.0054-.0111.0187-.0392c.0158-.0334.0379-.0813.065-.1422.054-.1218.1278-.2962.2095-.5116.1628-.4295.3596-1.0294.4914-1.7059.0228-.117.0439-.2376.0626-.3612.8568 1.1203 1.3439 2.2812 1.3439 3.2843 0 3.1894-4.9249 3.575-11 3.575s-11-.3856-11-3.575c0-.9401.4278-2.0187 1.1868-3.0727-.0326.8969.1462 1.8415.7501 2.6737.1803.2484.5239.307.7675.131.2437-.1761.295-.5202.1147-.7686-.7173-.9884-.6247-2.3042-.2632-3.4966.1759-.5805.4047-1.09378.5907-1.46324.0927-.18403.1738-.33062.231-.43.0286-.04965.0512-.0874.0661-.11202l.0166-.02691.0041-.00664c.0047-.00734.0091-.01476.0134-.02225.4297-.59151.9421-1.16167 1.5222-1.67971v1.69885c0 .55229.4477 1 1 1s1-.44771 1-1v-3.10439c.9215-.49374 1.9326-.84377 3-.98113v2.08552c0 .55229.4477 1 1 1s1-.44771 1-1z"/><path d="m17 18c0 3.866 3.134 7 7 7s7-3.134 7-7h2c0 4.9706-4.0294 9-9 9s-9-4.0294-9-9z"/></g></svg>