<svg fill="none" height="48" viewBox="0 0 48 48" width="48" xmlns="http://www.w3.org/2000/svg"><g fill="#333"><path clip-rule="evenodd" d="m22.7229 22.0194h3.2402c.9505.0188 1.8876.2163 2.757.5809.8695.3647 1.654.8893 2.3081 1.5436.6542.6542 1.1649 1.425 1.5028 2.2677.3378.8428.4959 1.7407.4653 2.6418v12.9466h-26.9963v-13.8932c.04412-1.6316.75973-3.182 1.99374-4.3196 1.23402-1.1376 2.88846-1.7721 4.60946-1.7678h2.8255v-4.4563c-1.12-.8291-1.939-1.9693-2.3423-3.2613-.4034-1.2921-.3711-2.6713.0924-3.9451.4635-1.27372 1.335-2.37833 2.4928-3.15944 1.1577-.78111 2.5439-1.19969 3.9647-1.19725 1.4683.01076 2.8946.46576 4.0713 1.29873 1.1766.83297 2.0421 2.00042 2.4705 3.33236.1382.4951.2918 1.9514.2918 1.9514.2457.6262.5067 1.2379.7678 1.8495l.3685.8884c.1376.2406.231.5016.2764.7718.01.1795-.0503.3561-.1694.4959s-.2884.2329-.4755.2614c-.0126 0-.0515.0037-.1054.0087-.2098.0197-.6471.0608-.6471-.0087v1.6748c-.004.6772-.2906 1.3254-.797 1.803-.5064.4775-1.1915.7455-1.9057.7455h-1.0596zm-2.1322 9.9577c.1067.0103.1978.016.2665.0191-.066 1.8705-.0945 4.2973.9808 5.3697 1.4099 1.406 4.2295 2.109 5.6394.9373 1.4098-1.1717-.9399-12.6541-4.2295-12.6541-2.2806 0-2.366 2.7364-2.3545 4.3462-.0313-.002-.0681-.0049-.1091-.0088-.1504-.0147-.3341-.0427-.5043-.0923-.1435-.0419-.2326-.0863-.28-.1174v-4.7764l-2-.0004v4.7768c-.0474.0311-.1365.0755-.28.1174-.1702.0496-.3539.0776-.5043.0923-.0727.007-.1322.0105-.1714.0121l-.0171.0006-.0242.0007h-.0016c.0116-1.6091-.0718-4.3508-2.3545-4.3508-3.2896 0-5.63935 11.4824-4.2295 12.6541 1.4098 1.1717 4.2295.4687 5.6393-.9373 1.0747-1.0718 1.0469-3.4963.981-5.3663l.0042-.0001c.0215-.0004.0504-.0012.0857-.0026.0702-.003.1669-.0087.2817-.0198.2246-.0219.5409-.0667.8707-.1629.2158-.063.4714-.1575.72-.3047.2486.1472.5042.2417.72.3047.3298.0962.6461.141.8707.1629zm3.4093-12.9771c.5523 0 1-.4477 1-1s-.4477-1-1-1-1 .4477-1 1 .4477 1 1 1zm-2-2c0 .5523-.4477 1-1 1s-1-.4477-1-1 .4477-1 1-1 1 .4477 1 1z" fill-rule="evenodd"/><path d="m31 15c.5523 0 1-.4477 1-1s-.4477-1-1-1-1 .4477-1 1 .4477 1 1 1z"/><path d="m34 17c0 .5523-.4477 1-1 1s-1-.4477-1-1 .4477-1 1-1 1 .4477 1 1z"/><path d="m35 21c.5523 0 1-.4477 1-1s-.4477-1-1-1-1 .4477-1 1 .4477 1 1 1z"/><path d="m42 19c0 .5523-.4477 1-1 1s-1-.4477-1-1 .4477-1 1-1 1 .4477 1 1z"/><path d="m41 15c.5523 0 1-.4477 1-1s-.4477-1-1-1-1 .4477-1 1 .4477 1 1 1z"/><path d="m42 10c0 .5523-.4477 1-1 1s-1-.4477-1-1c0-.55228.4477-1 1-1s1 .44772 1 1z"/><path d="m37 13c.5523 0 1-.4477 1-1s-.4477-1-1-1-1 .4477-1 1 .4477 1 1 1z"/><path d="m38 16c0 .5523-.4477 1-1 1s-1-.4477-1-1 .4477-1 1-1 1 .4477 1 1z"/><path d="m29 20c.5523 0 1-.4477 1-1s-.4477-1-1-1-1 .4477-1 1 .4477 1 1 1z"/></g></svg>