<svg fill="none" height="48" viewBox="0 0 48 48" width="48" xmlns="http://www.w3.org/2000/svg"><g fill="#333"><path d="m43 29.143c0 1.6-1.32 2.8571-3 2.8571s-3-1.2571-3-2.8571 3-5.1429 3-5.1429 3 3.6572 3 5.1429z"/><path d="m24.1528 17.7833h17.7191c1.1753 0 2.1281.9528 2.1281 2.1281s-.9528 2.1281-2.1281 2.1281h-.0034c.0859-.1674.1329-.3493.1327-.5394-.0007-.8284-.8966-1.4992-2.0012-1.4983s-1.9995.6732-1.9988 1.5016c.0002.1889.0469.3697.132.5361h-13.0221v1.064h6.8889c1.1046 0 2 .8955 2 2v.2562c0 1.1046-.8954 2-2 2h-6.8889v1.0641h5.7778c1.1046 0 2 .8954 2 2v.2561c0 1.1046-.8954 2-2 2h-8v1.064h4.1111c1.1046 0 2 .8955 2 2v.2562c0 1.1046-.8954 2-2 2h-11.5438c-6.32708 0-11.4562-5.1291-11.4562-11.4562 0-4.6546 2.8162-8.8465 7.1254-10.6061l12.887-5.2622c.974-.3977 2.0936-.0865 2.7226.7568.8793 1.1789.4465 2.8686-.8913 3.4795l-2.1063.9618c-.9774.4463-.6591 1.9096.4154 1.9096z"/></g></svg>