<svg fill="none" height="48" viewBox="0 0 48 48" width="48" xmlns="http://www.w3.org/2000/svg"><path clip-rule="evenodd" d="m33.717 12.6386c1.7856.8371 3.9178.0551 4.7625-1.7465.8446-1.80173.0818-3.94089-1.7038-4.77799-1.7856-.83711-3.9178-.05516-4.7625 1.74653-.8446 1.80169-.0818 3.94086 1.7038 4.77796zm-.1891 27.6559c-.0752 2.3229-3.6176 2.4241-3.9423.1576-.3248-2.2665-.8023-8.5892-.8023-8.5892l-5.7211-2.1942s-5.2246-1.853-4.8282-5.9769c.1994-2.075 4.0099-9.7485 7.1837-11.5675s3.6394-1.8446 5.6454-.6603c2.0059 1.1844 2.2364 9.912 2.2364 9.912s3.9618 3.1584 5.3865 4.5582c1.4248 1.3998-.7512 3.2529-1.824 2.6957-1.0728-.5571-6.7844-3.9666-7.3749-4.8127-.5905-.846-.8944-3.7261-.8944-3.7261l-2.2335 3.9674s5.6013 3.3036 6.6512 3.7958c1.0498.4921.9466 1.3383.9466 1.3383s-.3539 8.7789-.4291 11.1019zm-15.7396-13.0863c-.0679-.0655-.1486-.1174-.2374-.1525-.0907-.0377-.1885-.0566-.2872-.0557-.0987.001-.1961.0219-.286.0614-.0898.0394-.1702.0966-.2358.1678-.0657.0711-.1152.1548-.1455.2456l-2.5307 5.5875c-.0403.0841-.0626.1752-.0654.2678s.0138.1848.049.271c.0351.0862.0881.1646.1555.2305.0675.0658.148.1178.2369.1527.0952.0209.194.0209.2892 0 .1411.0005.2793-.039.3975-.1134.1182-.0745.2113-.1807.2677-.3057l2.5452-5.5876c.0379-.0852.0578-.1768.0587-.2695.0008-.0927-.0175-.1847-.0539-.2705-.0363-.0858-.09-.1638-.1578-.2294zm2.0534 2.0085c-.0555-.0632-.123-.1143-.1983-.15-.1512-.076-.3255-.0875-.4849-.0321-.1595.0555-.2912.1735-.3665.3283l-1.7279 3.7094c-.0363.0761-.0577.1588-.0629.2434s.0059.1694.0327.2496.0686.1541.1232.2176.1209.1152.195.1523c.0848.0458.1797.068.2754.0644.1192.0012.2363-.032.3381-.0957s.1842-.1555.2379-.2649l1.7279-3.7094c.0381-.0757.0609-.1586.0669-.2436.0061-.0851-.0046-.1705-.0316-.2511-.0269-.0807-.0694-.1549-.125-.2182zm-12.1498 7.6122c2.3632-.3133 4.7084-.7495 7.0262-1.3069.688-.0199 1.3484-.0585 1.9813-.0954 2.4824-.145 4.5457-.2655 6.2252.8543 1.0457.6971.8395 1.3319.6441 1.9337-.1986.6113-.386 1.1884.7612 1.762 2.2764 1.1383-3.9066 2.2625-6.7452 1.7285-1.1978-.2254-1.8781-.8085-2.5768-1.4074-.9569-.8203-1.9482-1.6701-4.351-1.6701-4.15687 0-6.16893-1.4193-2.965-1.7987z" fill="#333" fill-rule="evenodd"/></svg>