<svg fill="none" height="48" viewBox="0 0 48 48" width="48" xmlns="http://www.w3.org/2000/svg"><path d="m30.9667 29.0316c.2443.0581.489.1212.7337.1891.0013.0322.0025.0658.0035.1009.0127.4515-.0125 1.0212-.0696 1.6107-.0365.3768-.084.7417-.1373 1.0677h-.497c-.7575 0-1.4501.428-1.7889 1.1055l-1 2c-.1388.2778-.2111.584-.2111.8945v2c0 1.1045.8954 2 2 2h2 1 1 2c1.1046 0 2-.8955 2-2v-2c0-.3105-.0723-.6167-.2111-.8945l-1-2c-.2577-.5152-.7198-.8861-1.2595-1.0343.033-.2485.0619-.5015.0863-.7536.0178-.184.0335-.3708.0466-.5582 1.3643.6971 2.5714 1.5162 3.4933 2.3966 1.2306 1.1752 1.8444 2.3498 1.8444 3.4139v4.4301h-34v-4.4301c0-1.1122.67155-2.3444 2.00752-3.5663 1.03528-.947 2.39508-1.8157 3.91388-2.5306.0214.2178.0458.4353.0725.6496.0829.664.1926 1.3316.3167 1.9166-.804.7308-1.3106 1.7863-1.3106 2.9608 0 2.2091 1.7909 4 4 4s4-1.7909 4-4c0-1.7843-1.1676-3.2947-2.7807-3.8105-.0948-.4503-.1856-.9967-.2561-1.5622-.0691-.5536-.1145-1.0917-.1291-1.5472.0209-.0052.0418-.0104.0627-.0155.0381.069.0767.1455.1234.2387l.0021.0041c.028.0559.0603.1203.0928.1822l.2812.5341h.6037 4.0639.0003c.913-.0002 1.3654-.0001 1.822 0h.0039.0027c.4465.0001.8996.0002 1.7923 0h.0002 4.064.6036l.2812-.5341c.0806-.1531.2084-.3384.3309-.4563.0006-.0006.0012-.0011.0017-.0017zm1.0333-12.0316c0 4.4202-3.5798 8-8 8s-8-3.5798-8-8 3.5798-8 8-8 8 3.5798 8 8z" fill="#333" stroke="#333" stroke-width="2"/></svg>