<svg fill="none" height="48" viewBox="0 0 48 48" width="48" xmlns="http://www.w3.org/2000/svg"><g fill="#333"><path d="m19.2988 5c2.2545 0 4.0992 1.76889 4.0992 3.93087 0 2.16193-1.8447 3.93083-4.0992 3.93083s-4.0991-1.7689-4.0991-3.93083c0-2.16198 1.8446-3.93087 4.0991-3.93087z"/><path clip-rule="evenodd" d="m25.4475 18.758h10.2478c1.1272 0 2.0496-.8844 2.0496-1.9654s-.9224-1.7926-2.0496-1.7926h-12.6953v4 11h-7v-11-4h-2.8499c-1.1272 0-4.60811 1.7926-4.60811 5.6113 0 5.0666 3.48091 7.1242 4.60811 7.1242v14.6077c0 1.081.9223 1.9655 2.0496 1.9655 1.1272 0 2.0495-.8845 2.0495-1.9655v-9.8271h4.0992v9.8271c0 1.081.9223 1.9655 2.0495 1.9655 1.1273 0 2.0496-.8845 2.0496-1.9655zm-4.4475.242v-4h-3v4z" fill-rule="evenodd"/><path d="m32 10c0-.55228.4477-1 1-1s1 .44772 1 1v20c0 .5523-.4477 1-1 1s-1-.4477-1-1z"/><path d="m33 30c-2.7614 0-5 2.2386-5 5h10c0-2.7614-2.2386-5-5-5z"/></g></svg>