<svg fill="none" height="48" viewBox="0 0 48 48" width="48" xmlns="http://www.w3.org/2000/svg"><g clip-rule="evenodd" fill="#333" fill-rule="evenodd"><path d="m37.0705 9.00181c0 2.21009-1.7909 4.00179-4.0001 4.00179s-4.0001-1.7917-4.0001-4.00179c0-2.21014 1.7909-4.00181 4.0001-4.00181s4.0001 1.79167 4.0001 4.00181zm-8.2955 2.50309h-1.0999c-.899 0-3.6751 1.6346-3.6751 4.8104 0 4.2138 2.7761 5.9249 3.6751 5.9249v19.6278c0 .899.7355 1.6346 1.6346 1.6346l.0096-.0001.0096.0001c.899 0 1.6346-.7356 1.6346-1.6346v-11.652h4.2499v11.652c0 .899.7355 1.6346 1.6346 1.6346l.0096-.0001.0096.0001c.899 0 1.6346-.7356 1.6346-1.6346v-24.6369l2.1852 6.2631c.2729.7821 1.1282 1.195 1.9104.9221s1.1951-1.1283.9221-1.9105l-3.2531-9.3235c-.3502-1.0039-1.2971-1.6764-2.3604-1.6764h-.475c-.8654 1.4912-2.4794 2.4941-4.3277 2.4941-1.8487 0-3.4631-1.0033-4.3283-2.4951zm13.3283 13.4951c-1.6569 0-3 1.3431-3 3v.6667c0 .5523.4477 1 1 1s1-.4477 1-1v-.6667c0-.5523.4477-1 1-1s1 .4477 1 1v14c0 .5523.4477 1 1 1s1-.4477 1-1v-14c0-1.6569-1.3432-3-3-3z"/><path d="m13.1033 5c0 .17833-.0234.35121-.0672.51575 1.2145.68692 2.0344 1.99071 2.0344 3.48606 0 2.21009-1.7909 4.00179-4.0001 4.00179-2.20919 0-4.00009-1.7917-4.00009-4.00179 0-1.51885.84579-2.84007 2.09188-3.51798-.03849-.15493-.05892-.317-.05892-.48383 0-1.10457.89543-2 2.00003-2 1.1045 0 2 .89543 2 2zm-6.32829 6.5049h-1.09993c-.89901 0-3.67508 1.6346-3.67508 4.8104 0 4.2033 2.76231 5.9164 3.66836 5.9249l-2.57192 10.9748h2.57864v8.653c0 .899.73556 1.6346 1.63458 1.6346.89901 0 1.63457-.7356 1.63457-1.6346v-8.652h4.26917v8.652c0 .899.7355 1.6346 1.6346 1.6346.899 0 1.6345-.7356 1.6345-1.6346v-8.653h2.6662l-2.6662-11.3769v-5.4677l3.2524 7.244c.3393.7557 1.227 1.0933 1.9827.754.7558-.3393 1.0934-1.227.7541-1.9828l-4.222-9.4037c-.4033-.8982-1.2961-1.476-2.2807-1.476h-.538c-.8654 1.4912-2.4794 2.4941-4.3277 2.4941-1.84872 0-3.46307-1.0033-4.32829-2.4951zm12.32829 16.4951c0-1.6569 1.3431-3 3-3 1.6568 0 3 1.3431 3 3v14c0 .5523-.4477 1-1 1s-1-.4477-1-1v-14c0-.5523-.4477-1-1-1s-1 .4477-1 1v.6667c0 .5523-.4477 1-1 1s-1-.4477-1-1z"/></g></svg>