<svg fill="none" height="48" viewBox="0 0 48 48" width="48" xmlns="http://www.w3.org/2000/svg"><path clip-rule="evenodd" d="m42.7408 31c.8141-2.1787 1.2592-4.5374 1.2592-7 0-11.0457-8.9543-20-20-20s-20 8.9543-20 20 8.9543 20 20 20c3.4059 0 6.6129-.8513 9.4199-2.3528.1024.2163.1983.4298.2846.6391.4982 1.2073 1.2024 2.5389 2.0146 3.5617.549.6913 1.3664 1.152 2.2809 1.152 1.6569 0 3-1.3431 3-3 0-.2497-.0305-.4923-.088-.7243-.0514-.2071.0612-.429.2577-.5123.1748-.0741.3801-.0216.4997.1258.5501.6777 1.3898 1.1108 2.3306 1.1108 1.6569 0 3-1.3431 3-3 0-1.1024-.5946-2.0659-1.4806-2.5873-.3649-.2148-.6048-.6594-.5553-1.0798.0352-.2993.226-.5617.4894-.7079.9223-.5118 1.5465-1.4955 1.5465-2.625 0-1.6569-1.3431-3-3-3zm-29.2936-12.8944c-.494-.247-1.0946-.0468-1.3416.4472s-.0468 1.0946.4472 1.3416l2.2111 1.1056-2.2111 1.1056c-.494.247-.6942.8476-.4472 1.3416s.8476.6942 1.3416.4472l4-2c.3388-.1694.5528-.5156.5528-.8944s-.214-.725-.5528-.8944zm22.4472.4472c-.247-.494-.8476-.6942-1.3416-.4472l-4 2c-.3388.1694-.5528.5156-.5528.8944s.214.725.5528.8944l4 2c.494.247 1.0946.0468 1.3416-.4472s.0468-1.0946-.4472-1.3416l-2.2111-1.1056 2.2111-1.1056c.494-.247.6942-.8476.4472-1.3416zm-11.3944 16.4472c1.933 0 3.5-1.7909 3.5-4s-1.567-4-3.5-4-3.5 1.7909-3.5 4 1.567 4 3.5 4zm-8.1712-6.7412c.4093-.3708 1.0417-.3394 1.4124.07.4859.5365 1.0445 1.4632 1.2103 2.5879.1727 1.172-.0911 2.5187-1.2103 3.7545-.3707.4094-1.0031.4408-1.4124.07-.4094-.3707-.4408-1.0031-.07-1.4124.6919-.7642.8054-1.5008.714-2.1205-.0983-.6669-.4453-1.2402-.714-1.5371-.3708-.4093-.3394-1.0417.07-1.4124zm15.6712 5.7412c.5523 0 1-.4477 1-1s-.4477-1-1-1-1 .4477-1 1 .4477 1 1 1zm13 0c0 .5523-.4477 1-1 1s-1-.4477-1-1 .4477-1 1-1 1 .4477 1 1zm-2 3c0 .5523-.4477 1-1 1s-1-.4477-1-1 .4477-1 1-1 1 .4477 1 1zm-3 4c.5523 0 1-.4477 1-1s-.4477-1-1-1-1 .4477-1 1 .4477 1 1 1zm-2 4c.5523 0 1-.4477 1-1s-.4477-1-1-1-1 .4477-1 1 .4477 1 1 1zm6-3c.5523 0 1-.4477 1-1s-.4477-1-1-1-1 .4477-1 1 .4477 1 1 1zm-9-5c0 .5523-.4477 1-1 1s-1-.4477-1-1 .4477-1 1-1 1 .4477 1 1zm1-3c.5523 0 1-.4477 1-1s-.4477-1-1-1-1 .4477-1 1 .4477 1 1 1zm5 0c0 .5523-.4477 1-1 1s-1-.4477-1-1 .4477-1 1-1 1 .4477 1 1zm-3 4c.5523 0 1-.4477 1-1s-.4477-1-1-1-1 .4477-1 1 .4477 1 1 1zm-1 3c0 .5523-.4477 1-1 1s-1-.4477-1-1 .4477-1 1-1 1 .4477 1 1z" fill="#333" fill-rule="evenodd"/></svg>