<svg fill="none" height="48" viewBox="0 0 48 48" width="48" xmlns="http://www.w3.org/2000/svg"><g fill="#333"><g clip-rule="evenodd" fill-rule="evenodd"><path d="m13.2808 24.1815c.1587-.4995.6762-.7918 1.1859-.6697 1.2732.3048 2.8346.4881 4.5333.4881s3.2601-.1833 4.5333-.4881c.5097-.1221 1.0272.1702 1.1859.6697.1826.5748.2808 1.1861.2808 1.8185 0 3.3137-2.6863 6-6 6s-6-2.6863-6-6c0-.6324.0982-1.2437.2808-1.8185zm1.7328 1.4852c-.009.1098-.0136.2209-.0136.3333 0 2.2091 1.7909 4 4 4s4-1.7909 4-4c0-.1124-.0046-.2235-.0136-.3333-1.2103.2147-2.564.3332-3.9864.3332s-2.7761-.1185-3.9864-.3332z"/><path d="m16 33.2261c-4.4417.5992-10 2.3598-10 4.9169v3.8571h4v-4.0001h2v4.0001h14v-4.0001h2v4.0001h4v-3.8571c0-2.5571-5.5583-4.3177-10-4.9169v2.7739h-6z"/><path d="m14 33.5625c.6766-.1363 1.3503-.2488 2-.3364v2.7739h6v-2.7739c.6497.0876 1.3234.2001 2 .3364 3.9489.7949 8 2.3974 8 4.5805v3.8571h-4v-4.0001h-2v4.0001h-14v-4.0001h-2v4.0001h-4v-3.8571c0-2.1831 4.0511-3.7856 8-4.5805zm0 2.0429c-.5412.1167-1.0779.2487-1.5974.3946h1.5974zm-6.00878 2.603c-.00034 0 .0005-.0036.00352-.0108-.00168.0072-.00319.0108-.00352.0108zm6.00878 1.7917h10v-2.0001h-10zm10-4.3947v.3946h1.5974c-.5195-.1459-1.0562-.2779-1.5974-.3946zm6.0088 2.603c-.0004 0-.0019-.0036-.0035-.0108.003.0072.0038.0108.0035.0108z"/><path d="m24.2403 19.5205c-.5528-1.7078-1.9833-3.4321-4.2403-3.8981v1.3776c0 .5523-.4477 1-1 1s-1-.4477-1-1v-1.4451c-2.3164.3368-3.6933 2.1672-4.2341 3.9144-.1169.5389-.1586 1.0494-.1361 1.4783.0289.5515-.3947 1.0221-.9462 1.051-.5516.029-1.0221-.3947-1.0511-.9462-.0029-.0556-.0051-.1118-.0065-.1688-.7163.5496-1.126 1.1869-1.126 1.8664 0 2.0711 3.8056 3.75 8.5 3.75s8.5-1.6789 8.5-3.75c0-.6821-.4128-1.3217-1.1343-1.8728-.0016.0604-.0041.12-.0074.1787-.0309.5515-.5029.9734-1.0544.9425-.5514-.0309-.9733-.5029-.9424-1.0544.0232-.4141-.0138-.9047-.1212-1.4235z"/></g><path d="m29.5 19.5v-13h4v6.5l4-3.71429v3.71429l4-3.71429v10.21429z"/><path clip-rule="evenodd" d="m29 6.5c0-.27614.2239-.5.5-.5h4c.2761 0 .5.22386.5.5v5.3534l3.1598-2.93408c.1457-.13532.3578-.17142.5401-.09193.1822.0795.3001.25946.3001.45832v2.56769l3.1598-2.93408c.1457-.13532.3578-.17142.5401-.09193.1822.0795.3001.25946.3001.45832v10.21429c0 .2761-.2239.5-.5.5h-12c-.2761 0-.5-.2239-.5-.5zm1 .5v12h11v-8.5677l-3.1598 2.9341c-.1457.1353-.3578.1714-.5401.0919-.1822-.0795-.3001-.2594-.3001-.4583v-2.5677l-3.1598 2.9341c-.1457.1353-.3578.1714-.5401.0919-.1822-.0795-.3001-.2594-.3001-.4583v-6z" fill-rule="evenodd"/></g></svg>