<svg fill="none" height="48" viewBox="0 0 48 48" width="48" xmlns="http://www.w3.org/2000/svg"><g clip-rule="evenodd" fill="#333" fill-rule="evenodd"><path d="m13.7781 32.4989c-.2029-.3715-.6613-.5722-1.1082-.4741-4.8037 1.0546-9.6699 3.2049-9.6699 6.4399v5.5353h8v-8c0-.5523.4477-1 1-1s1 .4477 1 1v8h12v-8c0-.5523.4477-1 1-1s1 .4477 1 1v8h8v-5.5353c0-3.235-4.8662-5.3853-9.6699-6.4399-.4469-.0981-.9053.1026-1.1082.4741l-3.6126.2178-3.2188-.0003z"/><path d="m19.9091 9.91406c.9703.12484 1.8895.44304 2.7273.89194v2.8226c0 .5021.407.9091.9091.9091.502 0 .909-.407.909-.9091v-1.5448c1.1214 1.0013 1.9642 2.2168 2.3985 3.3777.0165.4261-.0297.8666-.1132 1.2949-.106.5441-.2659 1.0332-.4002 1.3876-.067.1765-.1269.318-.1696.4141-.0213.048-.0382.0846-.0495.1085l-.0124.0262-.0032.0065c-.1225.2472-.0215.547.2257.6697.2474.1228.5474.0218.6702-.2255l-.441-.2189c.441.2189.4413.2183.4414.2182l.0005-.0011.0015-.003.0049-.0102.017-.0356c.0143-.0303.0344-.0739.059-.1293.0491-.1107.1163-.2692.1905-.4651.148-.3904.3269-.9358.4468-1.5508.0207-.1062.0398-.2158.0568-.3279.779 1.0184 1.2218 2.0738 1.2218 2.9857 0 2.8995-4.4772 3.25-10 3.25s-10-.3505-10-3.25c0-.8545.38891-1.8351 1.0789-2.7933-.0296.8153.1329 1.674.6819 2.4305.1639.2258.4763.2791.6978.119.2214-.16.2681-.4728.1042-.6986-.6521-.8986-.5679-2.0947-.2393-3.1788.16-.5277.368-.9943.5371-1.3302.0842-.1673.1579-.3006.21-.3909.026-.0451.0465-.0795.0601-.1018l.015-.0245.0038-.006c.004-.0065.0079-.013.0117-.0195.3907-.538.8567-1.0565 1.3843-1.5276v1.5448c0 .5021.407.9091.909.9091.5021 0 .9091-.407.9091-.9091v-2.8226c.8378-.4489 1.757-.7671 2.7273-.89194v1.89634c0 .5021.407.9091.9091.9091s.9091-.407.9091-.9091z"/><path d="m12.7273 21.8103c0 3.4643 2.8084 6.2727 6.2727 6.2727 3.4644 0 6.2727-2.8084 6.2727-6.2727h2.0001c0 4.5689-3.7039 8.2727-8.2728 8.2727s-8.2727-3.7038-8.2727-8.2727z"/><path d="m32 18v-12.5c0-.27614.2239-.5.5-.5h2c.2761 0 .5.22386.5.5v5.4597c0 .4192.485.6523.8123.3904l3.3754-2.70022c.3273-.26191.8123-.02882.8123.39043v1.91939c0 .4192.485.6523.8123.3904l3.3754-2.70022c.3273-.26191.8123-.02882.8123.39043v2.95969 6c0 .5523-.4477 1-1 1h-11c-.5523 0-1-.4477-1-1zm4-3.6c0-.2209.1791-.4.4-.4h1.2c.2209 0 .4.1791.4.4v1.2c0 .2209-.1791.4-.4.4h-1.2c-.2209 0-.4-.1791-.4-.4zm5.4-.4c-.2209 0-.4.1791-.4.4v1.2c0 .2209.1791.4.4.4h1.2c.2209 0 .4-.1791.4-.4v-1.2c0-.2209-.1791-.4-.4-.4z"/></g></svg>