<svg fill="none" height="48" viewBox="0 0 48 48" width="48" xmlns="http://www.w3.org/2000/svg"><g clip-rule="evenodd" fill="#333" fill-rule="evenodd"><path d="m15 9c0 2.2091-1.7909 4-4 4-2.20913 0-3.99999-1.7909-3.99999-4 0-2.20914 1.79086-4 3.99999-4 2.2091 0 4 1.79086 4 4zm-9.5642 23h1.56409l.84718 10.1661c.08638 1.0366.95291 1.8339 1.99309 1.8339h2.31944c1.0402 0 1.9067-.7973 1.9931-1.8339l.8472-10.1661h1.564c1.8538 0 2.1586-1.6646 1.8538-3.4932l-2-12c-.2411-1.4466-1.4927-2.5068-2.9592-2.5068h-4.91722c-1.46652 0-2.71809 1.0602-2.95919 2.5068l-2 12c-.30476 1.8286-.00011 3.4932 1.85371 3.4932z"/><path d="m26 11c0-2.20914 1.7909-4 4-4h4c2.2091 0 4 1.79086 4 4h-2c0-1.10457-.8954-2-2-2h-4c-1.1046 0-2 .89543-2 2 0 1.1046.8954 2 2 2h4c2.2091 0 4 1.7909 4 4s-1.7909 4-4 4h-4c-2.2091 0-4-1.7909-4-4h2c0 1.1046.8954 2 2 2h4c1.1046 0 2-.8954 2-2s-.8954-2-2-2h-4c-2.2091 0-4-1.7909-4-4z"/><path d="m31 23v-18h2v18z"/><path d="m20 36c0-1.6569 1.3431-3 3-3h18c1.6569 0 3 1.3431 3 3v5h-24zm3-1c-.5523 0-1 .4477-1 1v3h20v-3c0-.5523-.4477-1-1-1z"/><path d="m20 44v-4h2v4z"/><path d="m42 44v-4h2v4z"/><path d="m39 33v-6h2v6z"/><path d="m28 33v-4h2v4z"/><path d="m34 33v-4h2v4z"/><path d="m23 33v-6h2v6z"/><path d="m40 30h-16v-2h16z"/></g></svg>