<svg fill="none" height="48" viewBox="0 0 48 48" width="48" xmlns="http://www.w3.org/2000/svg"><path clip-rule="evenodd" d="m35.9999 14.5028c1.7949 0 3.25-1.4557 3.25-3.2514s-1.4551-3.2514-3.25-3.2514-3.25 1.4557-3.25 3.2514 1.4551 3.2514 3.25 3.2514zm-6.6152 11.5736 2.6916-6.4667v2.2257 7.8452 9.0002c0 .7257.6052 1.3194 1.3448 1.3194.7397 0 1.3449-.5937 1.3449-1.3194v-9.0002h2.5442v9.0002c0 .7257.6052 1.3194 1.3448 1.3194.7397 0 1.3449-.5937 1.3449-1.3194v-9.0002-7.8452-1.7784l2.6242 6.0407c.3301.7598 1.2137 1.1082 1.9735.7781s1.1082-1.2137.7781-1.9735l-3.2484-7.4774c-.3759-.8652-1.2293-1.4249-2.1725-1.4249h-4.7779-2.0571-1.2108c-.9566 0-1.8192.5754-2.1868 1.4585l-3.1071 7.4651c-.3184.7648.0436 1.6429.8084 1.9612.7648.3184 1.6429-.0436 1.9612-.8084zm-24.04617-.9816 2.66151-5.2606v4.478h-.00007l-2.55818 6.5801c-.29599.7614.26565 1.5823 1.08252 1.5823h1.47573v6.1396c0 .7833.61697 1.4242 1.37103 1.4242.75403 0 1.37103-.6409 1.37103-1.4242v-6.1396h2.5134v6.1396c0 .7833.617 1.4242 1.3711 1.4242.754 0 1.371-.6409 1.371-1.4242v-6.1396h1.7558c.8349 0 1.3971-.8545 1.0666-1.6212l-2.82-6.5412h-.0024v-4.483l2.664 5.2656c.374.7393 1.2764 1.0353 2.0156.6613.7392-.3739 1.0353-1.2764.6613-2.0156l-3.1776-6.2808c-.4531-.8955-1.3713-1.46-2.3748-1.46h-4.4496-2.0996-1.0228c-1.00355 0-1.92177.5645-2.37481 1.46l-3.17766 6.2808c-.37399.7392-.07792 1.6417.66129 2.0156.7392.374 1.64162.078 2.01561-.6613zm6.66147-10.592c1.7949 0 3.25-1.4557 3.25-3.2514s-1.4551-3.2514-3.25-3.2514-3.25 1.4557-3.25 3.2514 1.4551 3.2514 3.25 3.2514z" fill="#333" fill-rule="evenodd"/></svg>