<svg fill="none" height="48" viewBox="0 0 48 48" width="48" xmlns="http://www.w3.org/2000/svg" xmlns:xlink="http://www.w3.org/1999/xlink"><clipPath id="a"><path d="m0 0h48v48h-48z"/></clipPath><g clip-path="url(#a)"><path clip-rule="evenodd" d="m36.7279 36.727c-7.0294 7.0295-18.4264 7.0295-25.4558 0-5.99719-5.9971-6.87787-15.1733-2.64207-22.1041l5.73827-1.8444c2.5087-.8064 4.4073 2.3029 2.544 4.1662-2.8418 2.8418-.8291 7.7009 3.1898 7.7009h.9106c1.3086 0 2.4536.8797 2.7908 2.144l.4913 1.8425c-.4339-.2512-.9621-.3405-1.487-.2093l-5.6568 1.4142c-1.0716.2679-1.7231 1.3538-1.4552 2.4254.2679 1.0715 1.3537 1.7231 2.4253 1.4552l3.7166-.9292.9291 3.7166c.2428.9712 1.1662 1.6132 2.1612 1.5027 7.333-.8148 10.6677-6.0003 11.5513-8.3566.2398-.6397.1366-1.3575-.2738-1.9037-.4104-.5461-1.0711-.845-1.7523-.7926l-2.9122.224-1.0045-4.0183c-.2679-1.0716-1.3538-1.7231-2.4254-1.4552s-1.7231 1.3537-1.4552 2.4253l1.4142 5.6569c.2366.9462 1.1212 1.5838 2.0937 1.509l.4692-.0361c-.7739.7396-1.7744 1.454-3.0387 1.9829l-1.8584-6.969c-.5706-2.1399-2.5085-3.6287-4.7232-3.6287h-.9106c-2.2371 0-3.3575-2.7048-1.7756-4.2867 3.3474-3.3474-.0634-8.93313-4.5702-7.4845l-3.0396.977c.18-.1965.3651-.3899.5554-.5802 7.0294-7.02944 18.4264-7.02944 25.4558 0 7.0295 7.0294 7.0295 18.4264 0 25.4558zm1.4142 1.4142c-7.8104 7.8105-20.4738 7.8105-28.28424 0-7.81048-7.8104-7.81048-20.4737 0-28.28422 7.81054-7.81049 20.47374-7.81049 28.28424 0 7.8105 7.81052 7.8105 20.47382 0 28.28422zm-4.9497-13.435c1.5621 1.5621 4.0947 1.5621 5.6568 0s1.5621-4.0947 0-5.6568-4.0947-1.5621-5.6568 0-1.5621 4.0947 0 5.6568z" fill="#333" fill-rule="evenodd"/></g></svg>