<svg fill="none" height="48" viewBox="0 0 48 48" width="48" xmlns="http://www.w3.org/2000/svg"><path clip-rule="evenodd" d="m27.9999 10.4055c0-.2977-.3406-.49371-.6355-.3656l-3.3645 1.4601-3.3644-1.4601c-.295-.12811-.6356.0679-.6356.3656v2.189c0 .2978.3406.4936.6356.3657l3.3644-1.4602 3.3645 1.4602c.2949.1279.6355-.0679.6355-.3657zm-4 9.8445c1.933 0 3.5-1.567 3.5-3.5s-1.567-3.5-3.5-3.5-3.5 1.567-3.5 3.5 1.567 3.5 3.5 3.5zm-2.5 1.5c-.5015 0-.9699.2507-1.2481.6679l-4 6c-.4595.6893-.2732 1.6206.4161 2.0802.6893.4595 1.6206.2732 2.0801-.416l1.2519-1.8779v1.7958l-2 4h2v3.25c0 .8284.6716 1.5 1.5 1.5s1.5-.6716 1.5-1.5v-3.25h2v3.25c0 .8284.6716 1.5 1.5 1.5s1.5-.6716 1.5-1.5v-3.25h2l-2-4v-1.7958l1.2519 1.8779c.4596.6892 1.3909.8755 2.0802.416.6893-.4596.8755-1.3909.416-2.0802l-4-6c-.2782-.4172-.7466-.6679-1.2481-.6679z" fill="#333" fill-rule="evenodd"/></svg>