<svg fill="none" height="48" viewBox="0 0 48 48" width="48" xmlns="http://www.w3.org/2000/svg"><g fill="#333"><path d="m24 12.0417c0-3.33675-2.7049-6.0417-6.0417-6.0417h-5.9166c-3.33675 0-6.0417 2.70495-6.0417 6.0417 0 3.3367 2.70495 6.0416 6.0417 6.0416h1.1583v2.9167s10.8-1.4583 10.8-8.9583z"/><path d="m18.5 28c0 2.21-1.79 4-4 4s-4-1.79-4-4 1.79-4 4-4 4 1.79 4 4z"/><path d="m14.5 34c-2.8369 0-8.5 1.4293-8.5 4.2667v3.7333h17v-3.7333c0-2.8374-5.6631-4.2667-8.5-4.2667z"/><path d="m33.5 32c2.21 0 4-1.79 4-4s-1.79-4-4-4-4 1.79-4 4 1.79 4 4 4z"/><path d="m33.5 34c-2.8369 0-8.5 1.4293-8.5 4.2667v3.7333h17v-3.7333c0-2.8374-5.6631-4.2667-8.5-4.2667z"/><path d="m32.0417 7c-3.3368 0-6.0417 2.70495-6.0417 6.0417 0 7.5 9.6 8.9583 9.6 8.9583v-2.9167h.3583c3.3368 0 6.0417-2.7049 6.0417-6.0416 0-3.33675-2.7049-6.0417-6.0417-6.0417z"/></g></svg>