<svg fill="none" height="48" viewBox="0 0 48 48" width="48" xmlns="http://www.w3.org/2000/svg"><path clip-rule="evenodd" d="m17.9583 5c3.3368 0 6.0417 2.70495 6.0417 6.0417 0 7.5-10.8 8.9583-10.8 8.9583v-2.9167h-1.1583c-3.33675 0-6.0417-2.7049-6.0417-6.0416 0-3.33675 2.70495-6.0417 6.0417-6.0417zm8.0417 7.0417c0-3.33675 2.7049-6.0417 6.0417-6.0417h3.9166c3.3368 0 6.0417 2.70495 6.0417 6.0417 0 3.3367-2.7049 6.0416-6.0417 6.0416h-.3583v2.9167s-9.6-1.4583-9.6-8.9583zm-8 15.9583c0 2.7625-2.2375 5-5 5s-5-2.2375-5-5 2.2375-5 5-5 5 2.2375 5 5zm-15 12.3333c0-3.5466 6.6625-5.3333 10-5.3333s10 1.7867 10 5.3333v2.6667h-20zm32-7.3333c2.7625 0 5-2.2375 5-5s-2.2375-5-5-5-5 2.2375-5 5 2.2375 5 5 5zm-7-6c0 2.21-1.79 4-4 4s-4-1.79-4-4 1.79-4 4-4 4 1.79 4 4zm7 8c-3.3375 0-10 1.7867-10 5.3333v2.6667h20v-2.6667c0-3.5466-6.6625-5.3333-10-5.3333zm-6.2492-.815c-.2669.0981-.5302.2023-.7883.3125-1.1711.5005-2.3537 1.1766-3.2725 2.081-.246.2423-.4795.5079-.69.7965-.2105-.2886-.444-.5542-.6901-.7965-.9187-.9044-2.1014-1.5805-3.2725-2.081-.258-.1102-.5213-.2144-.7883-.3125 1.5226-.7889 3.4807-1.185 4.7509-1.185 1.2701 0 3.2282.3961 4.7508 1.185z" fill="#333" fill-rule="evenodd"/></svg>