<svg fill="none" height="48" viewBox="0 0 48 48" width="48" xmlns="http://www.w3.org/2000/svg"><path clip-rule="evenodd" d="m44 24c0 11.0457-8.9543 20-20 20s-20-8.9543-20-20 8.9543-20 20-20 20 8.9543 20 20zm-25.1292-3.4919c-1.3815-.6478-3.0204-.5398-4.3161.324-.4595.3063-1.0804.1821-1.3868-.2774-.3063-.4595-.1821-1.0804.2774-1.3868l.0027-.0017c.0327-.0218.0656-.0433.0987-.0645.2376-.152.4828-.2869.7338-.4046 2.0082-.9418 4.3907-.7848 6.2742.4708.0574.0383.1096.0816.1564.1287.3274.3304.389.856.121 1.2581-.3064.4595-.9273.5837-1.3868.2774-.1851-.1234-.3772-.2314-.5745-.324zm14.0369.0176c.1844.0885.3641.1907.5376.3064.4595.3063 1.0804.1821 1.3868-.2774.3063-.4595.1821-1.0804-.2774-1.3868-.2691-.1793-.5483-.3363-.8352-.4708-2.0082-.9418-4.3907-.7848-6.2742.4708-.4595.3064-.5837.9273-.2774 1.3868.3064.4595.9273.5837 1.3868.2774 1.2957-.8638 2.9346-.9718 4.3161-.324.0123.0058.0246.0117.0369.0176zm-18.1658 9.4743c1.7199 3.5617 5.22 6 9.2581 6s7.5382-2.4383 9.2581-6c.306-.6336.5556-1.3027.7419-2h-20c.1863.6973.4359 1.3664.7419 2z" fill="#333" fill-rule="evenodd"/></svg>