<svg fill="none" height="48" viewBox="0 0 48 48" width="48" xmlns="http://www.w3.org/2000/svg"><path clip-rule="evenodd" d="m21.0001 5.03406-1-3h2zm-2 2-3 1v-2zm-2-2.58594 2.8284 1.41421-1.4142-2.82842zm3.9909 2.47603c.613-.55726 1.5617-.51208 2.1189.10091.5573.61298.5121 1.56166-.1009 2.11892l-4.4037 4.00342 2.5694 2.8975h1.2799c.0363-.0013.0727-.002.1093-.002h7.8267c.899 0 3.6751 1.6346 3.6751 4.8105 0 4.2137-2.7761 5.9249-3.6751 5.9249v16.1486c0 .8991-.7356 1.6346-1.6346 1.6346s-1.6345-.7355-1.6345-1.6346v-11.1728h-4.2692v11.1728c0 .8991-.7356 1.6346-1.6346 1.6346s-1.6345-.7355-1.6345-1.6346v-23.884c0-.1011.0049-.2011.0145-.2997-.0793-.0597-.153-.1276-.22-.2031l-4-4.5108c-.5448-.6145-.4943-1.5528.1133-2.1052zm.1792 5.23355 2.5011-2.27377c.8062-.73287 1.0231-1.87192.6224-2.82177.2293-.04084.4653-.06216.7064-.06216 2.2091 0 4 1.79086 4 4 0 2.2091-1.7909 4-4 4-1.8066 0-3.3335-1.1976-3.8299-2.8423z" fill="#333" fill-rule="evenodd"/></svg>