<svg fill="none" height="48" viewBox="0 0 48 48" width="48" xmlns="http://www.w3.org/2000/svg"><g fill="#333"><path d="m18 18c0 2.7625-2.2375 5-5 5s-5-2.2375-5-5 2.2375-5 5-5 5 2.2375 5 5z"/><path d="m3 30.3333c0-3.5466 6.6625-5.3333 10-5.3333s10 1.7867 10 5.3333v4.6667h-20z"/><path d="m40 18c0 2.7625-2.2375 5-5 5s-5-2.2375-5-5 2.2375-5 5-5 5 2.2375 5 5z"/><path d="m28 17c0 2.21-1.79 4-4 4s-4-1.79-4-4 1.79-4 4-4 4 1.79 4 4z"/><path d="m25 30.3333c0-3.5466 6.6625-5.3333 10-5.3333s10 1.7867 10 5.3333v4.6667h-20z"/><path clip-rule="evenodd" d="m28.7508 24.185c-.2669.0981-.5302.2023-.7883.3125-1.1711.5005-2.3537 1.1766-3.2725 2.081-.246.2423-.4795.5079-.69.7965-.2105-.2886-.444-.5542-.6901-.7965-.9187-.9044-2.1014-1.5805-3.2725-2.081-.258-.1102-.5213-.2144-.7883-.3125 1.5226-.7889 3.4807-1.185 4.7509-1.185 1.2701 0 3.2282.3961 4.7508 1.185z" fill-rule="evenodd"/></g></svg>