<svg fill="none" height="48" viewBox="0 0 48 48" width="48" xmlns="http://www.w3.org/2000/svg"><g fill="#333"><path d="m18 16.5c0 2.4862-2.0138 4.5-4.5 4.5s-4.5-2.0138-4.5-4.5 2.0138-4.5 4.5-4.5 4.5 2.0138 4.5 4.5z"/><path d="m4 28.3333c0-3.5466 6.3294-5.3333 9.5-5.3333s9.5 1.7867 9.5 5.3333v7.6667h-19z"/><path d="m39 16.5c0 2.4862-2.0137 4.5-4.5 4.5-2.4862 0-4.5-2.0138-4.5-4.5s2.0138-4.5 4.5-4.5c2.4863 0 4.5 2.0138 4.5 4.5z"/><path d="m27 15c0 1.6575-1.3425 3-3 3s-3-1.3425-3-3 1.3425-3 3-3 3 1.3425 3 3z"/><path d="m25 28.3333c0-3.5466 6.3294-5.3333 9.5-5.3333s9.5 1.7867 9.5 5.3333v7.6667h-19z"/><path clip-rule="evenodd" d="m28.7508 22.185c-.2669.0981-.5302.2023-.7883.3125-1.1711.5005-2.3537 1.1766-3.2725 2.081-.246.2423-.4795.5079-.69.7965-.2105-.2886-.444-.5542-.6901-.7965-.9187-.9044-2.1014-1.5805-3.2725-2.081-.258-.1102-.5213-.2144-.7883-.3125 1.5226-.7889 3.4807-1.185 4.7509-1.185 1.2701 0 3.2282.3961 4.7508 1.185z" fill-rule="evenodd"/></g></svg>