<svg fill="none" height="48" viewBox="0 0 48 48" width="48" xmlns="http://www.w3.org/2000/svg"><path clip-rule="evenodd" d="m5 4h-1v1 25 1h1 25v-2h-24v-23h29v4h2v-5-1h-1zm31 13c1.6569 0 3-1.3431 3-3s-1.3431-3-3-3-3 1.3431-3 3 1.3431 3 3 3zm-2.0867 2.0088c-.0366 0-.0729.0006-.109.0019h-1.8043c-.4557 0-.8866.2072-1.1713.563l-3.5496 4.437h-5.2791c-.8284 0-1.5.6716-1.5 1.5 0 .8285.6716 1.5 1.5 1.5h6c.4557 0 .8866-.2071 1.1713-.5629l1.9118-2.3898v17.8348c0 .899.7356 1.6346 1.6346 1.6346s1.6346-.7356 1.6346-1.6346v-8.1728h3.2691v8.1728c0 .899.7356 1.6346 1.6346 1.6346s1.6346-.7356 1.6346-1.6346v-12.1486c.899 0 3.675-1.7112 3.675-5.9249 0-3.1759-2.776-4.8105-3.675-4.8105z" fill="#333" fill-rule="evenodd"/></svg>