<svg fill="none" height="48" viewBox="0 0 48 48" width="48" xmlns="http://www.w3.org/2000/svg"><path clip-rule="evenodd" d="m27 8c0 .57575-.1622 1.11361-.4434 1.5704 2.0351.9599 3.4434 3.0303 3.4434 5.4296 0 3.3137-2.6863 6-6 6s-6-2.6863-6-6c0-2.3993 1.4083-4.4697 3.4434-5.4296-.2812-.45679-.4434-.99466-.4434-1.5704 0-1.65685 1.3431-3 3-3s3 1.34315 3 3zm2.589 13.5342c1.0826-.1805 2.1563.3663 2.6471 1.3479l4 8c.4141.8283.3365 1.8176-.2018 2.5711l-5 7c-.8025 1.1236-2.3639 1.3838-3.4874.5813s-1.3837-2.3639-.5812-3.4875l2.0158-2.8221c-.0292-.2101-.0925-.419-.1926-.6192-.2014-.4027-.5203-.7079-.8945-.8946l-4.8944-2.4472v-2.2639c0-1.1046-.8954-2-2-2s-2 .8954-2 2v3.5c0 .7575.428 1.4501 1.1056 1.7889l2.4224 1.2112-2.4224 1.2112c-.3795.1897-.6723.4838-.861.8301l1.7897 2.5056c.8026 1.1236.5423 2.685-.5812 3.4875s-2.6849.5423-3.4874-.5813l-5-7c-.5383-.7535-.6159-1.7428-.2018-2.5711l3.7723-7.5445c.5008-1.0016 1.4506-1.7031 2.5551-1.8872zm-.089 11.4658c1.933 0 3.5-1.567 3.5-3.5s-1.567-3.5-3.5-3.5-3.5 1.567-3.5 3.5 1.567 3.5 3.5 3.5z" fill="#333" fill-rule="evenodd"/></svg>