<svg fill="none" height="48" viewBox="0 0 48 48" width="48" xmlns="http://www.w3.org/2000/svg"><path clip-rule="evenodd" d="m11.9999 14.5028c1.7949 0 3.25-1.4557 3.25-3.2514s-1.4551-3.2514-3.25-3.2514-3.25 1.4557-3.25 3.2514 1.4551 3.2514 3.25 3.2514zm-6.61516 11.5736 2.69155-6.4667v2.2257 7.8452 9.0002c0 .7257.60518 1.3194 1.34484 1.3194.73967 0 1.34487-.5937 1.34487-1.3194v-9.0002h2.5442v9.0002c0 .7257.6052 1.3194 1.3448 1.3194.7397 0 1.3449-.5937 1.3449-1.3194v-9.0002-7.8452-1.7784l2.6242 6.0407c.3301.7598 1.2137 1.1082 1.9735.7781s1.1082-1.2137.7781-1.9735l-3.2484-7.4774c-.3759-.8652-1.2293-1.4249-2.1725-1.4249h-4.7779-2.05712-1.21078c-.95656 0-1.81924.5754-2.18681 1.4585l-3.10712 7.4651c-.31834.7648.04362 1.6429.80844 1.9612.76482.3184 1.6429-.0436 1.96123-.8084zm23.95376-.9816 2.6615-5.2606v4.478l-2.5582 6.5801c-.296.7614.2656 1.5823 1.0825 1.5823h1.4757v6.1396c0 .7833.617 1.4242 1.3711 1.4242.754 0 1.371-.6409 1.371-1.4242v-6.1396h2.5134v6.1396c0 .7833.617 1.4242 1.3711 1.4242.754 0 1.371-.6409 1.371-1.4242v-6.1396h1.7558c.8349 0 1.3971-.8545 1.0666-1.6212l-2.82-6.5412h-.0024v-4.483l2.664 5.2656c.374.7393 1.2764 1.0353 2.0156.6613.7392-.3739 1.0353-1.2764.6613-2.0156l-3.1776-6.2808c-.4531-.8955-1.3713-1.46-2.3748-1.46h-4.4496-2.0996-1.0228c-1.0035 0-1.9218.5645-2.3748 1.46l-3.1777 6.2808c-.374.7392-.0779 1.6417.6613 2.0156.7392.374 1.6416.078 2.0156-.6613zm6.6615-10.592c1.7949 0 3.25-1.4557 3.25-3.2514s-1.4551-3.2514-3.25-3.2514-3.25 1.4557-3.25 3.2514 1.4551 3.2514 3.25 3.2514z" fill="#333" fill-rule="evenodd"/></svg>