<svg fill="none" height="48" viewBox="0 0 48 48" width="48" xmlns="http://www.w3.org/2000/svg"><g clip-rule="evenodd" fill="#333" fill-rule="evenodd"><path d="m26 11c0-2.20914 1.7909-4 4-4h4c2.2091 0 4 1.79086 4 4h-2c0-1.10457-.8954-2-2-2h-4c-1.1046 0-2 .89543-2 2 0 1.1046.8954 2 2 2h4c2.2091 0 4 1.7909 4 4s-1.7909 4-4 4h-4c-2.2091 0-4-1.7909-4-4h2c0 1.1046.8954 2 2 2h4c1.1046 0 2-.8954 2-2s-.8954-2-2-2h-4c-2.2091 0-4-1.7909-4-4z"/><path d="m31 23v-18h2v18z"/><path d="m20 36c0-1.6569 1.3431-3 3-3h18c1.6569 0 3 1.3431 3 3v5h-24zm3-1c-.5523 0-1 .4477-1 1v3h20v-3c0-.5523-.4477-1-1-1z"/><path d="m20 44v-4h2v4z"/><path d="m42 44v-4h2v4z"/><path d="m39 33v-6h2v6z"/><path d="m28 33v-4h2v4z"/><path d="m34 33v-4h2v4z"/><path d="m23 33v-6h2v6z"/><path d="m40 30h-16v-2h16z"/><path d="m11 13c2.2091 0 4-1.7909 4-4 0-2.20914-1.7909-4-4-4-2.20914 0-4 1.79086-4 4 0 2.2091 1.79086 4 4 4z"/><path d="m7.00003 28h-.54097c-1.82565 0-3.22803-1.617-2.96985-3.4243l1.14286-8c.21113-1.4779 1.4769-2.5757 2.96985-2.5757h6.79618c1.493 0 2.7588 1.0978 2.9699 2.5757l1.1429 8c.2581 1.8073-1.1443 3.4243-2.9699 3.4243h-.541l-.8828 14.1248c-.0658 1.054-.9399 1.8752-1.9961 1.8752h-2.24217c-1.05612 0-1.93022-.8212-1.9961-1.8752z"/></g></svg>