<svg fill="none" height="48" viewBox="0 0 48 48" width="48" xmlns="http://www.w3.org/2000/svg"><g fill="#333"><path clip-rule="evenodd" d="m19.0977 18.4573-2.6895 7.9506c-.3097.9155-1.303 1.4066-2.2185 1.0969s-1.4066-1.3029-1.0969-2.2185l3.1857-9.4175c.3779-1.117 1.4258-1.8688 2.605-1.8688h1.5184 2.5694 5.9737c1.1631 0 2.2004.7317 2.5906 1.8274l3.3605 9.4366c.3242.9104-.151 1.9114-1.0615 2.2356-.9105.3243-1.9115-.151-2.2357-1.0615l-2.6995-7.5803v1.9488 9.7986 11.7463c0 .9063-.7558 1.6478-1.6797 1.6478-.9238 0-1.6796-.7415-1.6796-1.6478v-11.7463h-3.083v11.7463c0 .9063-.7559 1.6478-1.6797 1.6478s-1.6797-.7415-1.6797-1.6478v-11.7463-9.7986z" fill-rule="evenodd"/><path d="m28.0002 8.00181c0 2.21009-1.7909 4.00179-4.0001 4.00179s-4.0001-1.7917-4.0001-4.00179c0-2.21014 1.7909-4.00181 4.0001-4.00181s4.0001 1.79167 4.0001 4.00181z"/></g></svg>