<svg fill="none" height="48" viewBox="0 0 48 48" width="48" xmlns="http://www.w3.org/2000/svg"><g clip-rule="evenodd" fill="#333" fill-rule="evenodd"><path d="m43.1237 29.8732c-2.509 8.1796-10.1218 14.1268-19.1237 14.1268-11.0457 0-20-8.9543-20-20s8.9543-20 20-20c5.9778 0 11.343 2.62257 15.008 6.7799.7354.8342 1.4023 1.7302 1.992 2.6793v1.5408h.8654c.3267.6473.6193 1.3147.8754 2h-1.7408v3.9996.9991l-.7988.6001c-.7332.5507-1.2012 1.421-1.2012 2.4012 0 1.6569 1.3431 3 3 3 .631 0 1.2165-.1948 1.6996-.5276-.1432.8185-.3363 1.6198-.5759 2.4008zm.8366-7.1443c-.1087-1.7329-.4381-3.4059-.9603-4.9912v3.2619.9991l.7988.6001c.0554.0415.1092.0849.1615.1301zm-27.0352 11.6508c-.2081.5072-.7865.7528-1.2965.5488-.5128-.2051-.7622-.7871-.5571-1.2999l.9285.3714c-.9285-.3714-.9282-.372-.928-.3727l.0006-.0014.0012-.003.003-.0073.0079-.0188c.0062-.0145.0142-.0328.024-.0546.0198-.0436.0473-.1014.0833-.1714.0719-.1399.1783-.329.326-.5505.2953-.443.7576-1.0183 1.4418-1.5885 1.3844-1.1537 3.6125-2.2318 7.0402-2.2318s5.6558 1.0781 7.0402 2.2318c.6842.5702 1.1465 1.1455 1.4418 1.5885.1477.2215.2541.4106.326.5505.036.07.0635.1278.0833.1714.0098.0218.0178.0401.024.0546l.0079.0188.003.0073.0012.003.0006.0014c.0002.0007.0005.0013-.928.3727l.9285-.3714c.2051.5128-.0443 1.0948-.5571 1.2999-.51.204-1.0884-.0416-1.2965-.5487l-.0052-.0118c-.0068-.015-.02-.0431-.0402-.0825-.0406-.0789-.1092-.2023-.2115-.3558-.2047-.307-.5424-.7317-1.0582-1.1615-1.0156-.8463-2.7875-1.7682-5.7598-1.7682s-4.7442.9219-5.7598 1.7682c-.5158.4298-.8535.8545-1.0581 1.1615-.1024.1535-.171.2769-.2116.3558-.0202.0394-.0334.0675-.0402.0825zm1.6296-14.5476c.4595-.3064.5837-.9273.2774-1.3868-.3064-.4595-.9273-.5837-1.3868-.2774-1.4362.9575-2.3567 1.4151-3.7615 1.8834-.524.1747-.8071.741-.6325 1.2649.1747.524.741.8071 1.2649.6325 1.5952-.5317 2.6747-1.0741 4.2385-2.1166zm10.6132-1.3868c-.3063.4595-.1821 1.0804.2774 1.3868 1.5638 1.0425 2.6433 1.5849 4.2385 2.1166.5239.1746 1.0902-.1085 1.2649-.6325.1746-.5239-.1085-1.0902-.6325-1.2649-1.4048-.4683-2.3253-.9259-3.7615-1.8834-.4595-.3063-1.0804-.1821-1.3868.2774zm-20.1679 10.5547c0 .5523-.44772 1-1 1s-1-.4477-1-1 .44772-1 1-1 1 .4477 1 1zm13-14c.5523 0 1-.4477 1-1s-.4477-1-1-1-1 .4477-1 1 .4477 1 1 1zm5-3c0 .5523-.4477 1-1 1s-1-.4477-1-1 .4477-1 1-1 1 .4477 1 1zm3 2c.5523 0 1-.4477 1-1s-.4477-1-1-1-1 .4477-1 1 .4477 1 1 1zm5-2c0 .5523-.4477 1-1 1s-1-.4477-1-1 .4477-1 1-1 1 .4477 1 1zm-15-3c.5523 0 1-.44772 1-1s-.4477-1-1-1-1 .44772-1 1 .4477 1 1 1zm-6 4c0 .5523-.4477 1-1 1s-1-.4477-1-1 .4477-1 1-1 1 .4477 1 1zm15-4c.5523 0 1-.44772 1-1s-.4477-1-1-1-1 .44772-1 1 .4477 1 1 1zm8 8c0 .5523-.4477 1-1 1s-1-.4477-1-1 .4477-1 1-1 1 .4477 1 1zm-19-4c.5523 0 1-.4477 1-1s-.4477-1-1-1-1 .4477-1 1 .4477 1 1 1zm7-4c0 .55228-.4477 1-1 1s-1-.44772-1-1 .4477-1 1-1 1 .44772 1 1zm9 20c.5523 0 1-.4477 1-1s-.4477-1-1-1-1 .4477-1 1 .4477 1 1 1zm5 3c0 .5523-.4477 1-1 1s-1-.4477-1-1 .4477-1 1-1 1 .4477 1 1zm-30-7c.55228 0 1-.4477 1-1s-.44772-1-1-1-1 .4477-1 1 .44772 1 1 1zm2 8c0 .5523-.4477 1-1 1-.55228 0-1-.4477-1-1s.44772-1 1-1c.5523 0 1 .4477 1 1zm2-5c.5523 0 1-.4477 1-1s-.4477-1-1-1-1 .4477-1 1 .4477 1 1 1z"/><path d="m37.2929 5.29289c.3905-.39052 1.0237-.39052 1.4142 0l1 1c.3905.39053.3905 1.02369 0 1.41422-.3905.39052-1.0237.39052-1.4142 0l-1-1c-.3905-.39053-.3905-1.02369 0-1.41422z"/><path d="m42 3c.5523 0 1 .44772 1 1v2c0 .55228-.4477 1-1 1s-1-.44772-1-1v-2c0-.55228.4477-1 1-1z"/><path d="m46.7071 5.29289c-.3905-.39052-1.0237-.39052-1.4142 0l-1 1c-.3905.39053-.3905 1.02369 0 1.41422.3905.39052 1.0237.39052 1.4142 0l1-1c.3905-.39053.3905-1.02369 0-1.41422z"/><path d="m40.2012 22.5988.7988-.6001v-.9991-3.9996h2v3.9996.9991l.7988.6001c.7332.5507 1.2012 1.421 1.2012 2.4012 0 1.6569-1.3431 3-3 3s-3-1.3431-3-3c0-.9802.468-1.8505 1.2012-2.4012zm2.7988-7.5988v-4c0-.5523-.4477-1-1-1s-1 .4477-1 1v4zm-1-7c-1.6569 0-3 1.34315-3 3v9.9996c-1.2144.9122-2 2.3646-2 4.0004 0 2.7614 2.2386 5 5 5s5-2.2386 5-5c0-1.6358-.7856-3.0882-2-4.0004v-9.9996c0-1.65685-1.3431-3-3-3z"/></g></svg>