<svg fill="none" height="48" viewBox="0 0 48 48" width="48" xmlns="http://www.w3.org/2000/svg"><path clip-rule="evenodd" d="m38.8848 20.2587c-.0258 1.7476-.0486 3.2867.8298 5.1071 0 0 2.5967 2.3361 2.2543 4.2103-.3424 1.8743-3.7239 2.3904-3.7239 2.3904 0 7.5728-7.2315 7.0907-10.8409 6.3785-.073-.0144-.1446-.0289-.2145-.0435-1.0801-.2243-1.7855-.4557-1.7855-.4557v1.4231s-.0752.2384-.3071.574c-.0616.0892-.1343.1852-.2196.2854-.6772.7958-2.1485 1.8569-5.1804 1.8569-2.2842.1809-6.1939-1.3143-7.2303-3.4226v-6.4482c-3.65249-2.7299-6.4667-6.4075-6.4667-11.1747 0-3.9622 1.65352-7.7622 4.5968-10.5639 2.9433-2.80178 6.9352-4.37579 11.0977-4.37579 3.1786-.00343 6.3195.6548 9.2026 1.92859 2.2722.91081 4.2615 2.3603 5.7785 4.2103 1.3852 1.9434 2.153 4.2256 2.2115 6.5735.0126.5395.005 1.0514-.0023 1.5463zm-11.4353 1.6216c-.1559.1744-.2372.2654-.7266.2654-.7729 0-1.5279-.2269-2.1663-.651-.4482.4622-.9978.8203-1.6077 1.0474-.0777.0373-.1491.0769-.2154.119-.3459.2194-.5506.5028-.7601.8368-.0356.0569-.0714.1152-.1081.1749-.0524.0854-.1068.1741-.1648.265-.3829.5999-.5854 1.2923-.5845 1.9985v3.9775h-4.116c-.1036-.8521-.2982-1.6708-.7698-2.3958-.4715-.7251-1.1041-1.3381-1.8512-1.7938-.6484-.2713-1.2082-.7099-1.6189-1.2684-.4106-.5585-.6565-1.2157-.7109-1.9004-.6749-.6953-1.0504-1.6158-1.0491-2.5722-.0052-.8246.2729-1.6273.7902-2.2804-.0952-.3232-.1411-.6583-.1362-.9944-.0013-.804.2628-1.5871.7533-2.234l1.9716-1.3591c.3025-.6618.7953-1.2243 1.4191-1.6196.6237-.3952 1.3517-.6063 2.096-.6078.3075.0018.6137.0374.9129.106.6332-.5741 1.4465-.9242 2.309-.9939l4.189.2839c.9244.2224 1.7325.7677 2.2709 1.5321h.2725l2.4202.8242c.6865.5354 1.1642 1.2832 1.3538 2.1192.8305.3509 1.5121.9687 1.9305 1.7502.4184.7814.5483 1.679.3679 2.5425-.1803.8634-.6599 1.6405-1.3586 2.201l-2.4794.878c-.7805.0088-1.5454-.2131-2.1936-.6364-.2341.1555-.3494.2846-.4397.3856zm6.5505 3.6197c0 .8284-.6716 1.5-1.5 1.5s-1.5-.6716-1.5-1.5.6716-1.5 1.5-1.5 1.5.6716 1.5 1.5zm-13 6.5v2h-4v-2zm-4 4v2h4v-2z" fill="#333" fill-rule="evenodd"/></svg>