<svg fill="none" height="48" viewBox="0 0 48 48" width="48" xmlns="http://www.w3.org/2000/svg"><g fill="#333"><g clip-rule="evenodd" fill-rule="evenodd"><path d="m18.1153 18.8227c-.0756.38-.1153.7736-.1153 1.1773 0 3.3137 2.6863 6 6 6s6-2.6863 6-6c0-.4037-.0397-.7973-.1153-1.1773-4.1389-1.0017-7.6305-1.0017-11.7694 0zm-1.077-1.7916c4.9163-1.2796 9.0071-1.2796 13.9234 0 .3387.0882.6066.347.7065.6824.2161.7257.3318 1.4935.3318 2.2865 0 4.4183-3.5817 8-8 8s-8-3.5817-8-8c0-.793.1157-1.5608.3318-2.2865.0999-.3354.3678-.5942.7065-.6824z"/><path d="m32.644 42h9.356v-5.5c0-2.0041-2.6628-3.6422-6.2743-4.7724zm1.1541-10.807c-3.3204-.8136-7.1193-1.2386-10.3275-1.1864-7.2127.1176-17.4706 2.4341-17.4706 6.4934v5.5h24.556zm-21.6925 4.3598c.247-.494.8476-.6942 1.3416-.4472l1.5528.7764 1.5528-.7764c.494-.247 1.0946-.0468 1.3416.4472s.0468 1.0946-.4472 1.3416l-2 1c-.2815.1408-.6129.1408-.8944 0l-2-1c-.494-.247-.6942-.8476-.4472-1.3416z"/><path d="m12.5889 27.9965c.2473.4939.0473 1.0947-.4465 1.3419l-3.69474 1.8498c-.49384.2472-1.09462.0473-1.34187-.4465-.24725-.4939-.04734-1.0946.44651-1.3419l3.6947-1.8498c.4939-.2472 1.0947-.0473 1.3419.4465z"/><path d="m40 9h2v21h-2z"/></g><path d="m35 24 7-4v12l-7-3z"/><path clip-rule="evenodd" d="m37 25.1606v2.5206l3 1.2857v-5.5205zm-2-1.1606v5l7 3v-12z" fill-rule="evenodd"/><path clip-rule="evenodd" d="m14.4167 16c0-5.5228 4.2906-10 9.5833-10s9.5833 4.4772 9.5833 10c0 .5762.6363 1.8162 1.1756 2.7639.2347.4124-.1764.9227-.6281.7776-7.4347-2.3887-12.8269-2.3887-20.2616 0-.4517.1451-.8628-.3652-.6281-.7776.5393-.9477 1.1756-2.1877 1.1756-2.7639zm9.7549-6.87472c-.0543-.16704-.2905-.16704-.3448 0l-.494 1.52052c-.0243.0747-.0939.1252-.1724.1252h-1.5988c-.1756 0-.2486.2247-.1065.3279l1.2935.9398c.0635.0462.09.1279.0658.2026l-.4941 1.5206c-.0543.1669.1369.3059.279.2027l1.2934-.9398c.0636-.0462.1496-.0462.2131 0l1.2934.9398c.1421.1032.3332-.0358.279-.2027l-.4941-1.5206c-.0243-.0747.0024-.1564.0659-.2026l1.2934-.9398c.1421-.1032.069-.3279-.1065-.3279h-1.5988c-.0785 0-.1481-.0505-.1724-.1252z" fill-rule="evenodd"/></g></svg>