<svg fill="none" height="48" viewBox="0 0 48 48" width="48" xmlns="http://www.w3.org/2000/svg"><g fill="#333"><path d="m33.6554 20.7506h-8.1729v19.6149c0 .899-.7355 1.6346-1.6345 1.6346-.8991 0-1.6346-.7356-1.6346-1.6346v-8.1729h-3.2692v8.1729c0 .899-.7355 1.6346-1.6345 1.6346-.8991 0-1.6346-.7356-1.6346-1.6346v-19.6149 7.4662c-.899 0-3.6751-1.7112-3.6751-5.9249 0-3.1759 2.7761-4.8105 3.6751-4.8105h17.9803c.899 0 1.6346.7356 1.6346 1.6346s-.7356 1.6346-1.6346 1.6346z"/><path d="m34 10.9999v30h-2v-30c.9104 0 .9104.0003 2 0z"/><path d="m26 15c0-1.6569 3.134-3 7-3s7 1.3431 7 3c-5-1.5-8.5-1.5-14 0z"/><path clip-rule="evenodd" d="m25 10.5h-1.9021c.4681.5659.7501 1.2905.7501 2.0777 0 1.7981-1.4711 3.2692-3.2692 3.2692-1.798 0-3.2691-1.4711-3.2691-3.2692 0-.7872.282-1.5118.75-2.0777h-2.0597c0-2.48528 2.0147-4.5 4.5-4.5s4.5 2.01472 4.5 4.5zm-4.5-.5c.8284 0 1.5-.67157 1.5-1.5s-.6716-1.5-1.5-1.5-1.5.67157-1.5 1.5.6716 1.5 1.5 1.5z" fill-rule="evenodd"/></g></svg>