<svg fill="none" height="48" viewBox="0 0 48 48" width="48" xmlns="http://www.w3.org/2000/svg"><path clip-rule="evenodd" d="m35 12c2.2091 0 4-1.7909 4-4 0-2.20914-1.7909-4-4-4-2.2092 0-4 1.79086-4 4 0 2.2091 1.7908 4 4 4zm-19.4982 1.5088c.0366 0 .073.0006.1092.0019h1.9547c.5302 0 1.0211.28 1.291.7364l6.5 10.9893c.4218.713.1857 1.6329-.5274 2.0547-.713.4217-1.6329.1856-2.0547-.5275l-4.2921-7.2564v22.8856c0 .899-.7355 1.6346-1.6345 1.6346-.8991 0-1.6346-.7356-1.6346-1.6346v-12.1728h-4.2692v12.1728c0 .899-.7355 1.6346-1.63454 1.6346-.89902 0-1.63458-.7356-1.63458-1.6346v-18.1486c-.89901 0-3.67508-1.7112-3.67508-5.9249 0-3.1759 2.77607-4.8105 3.67508-4.8105zm-6.50181-5.5088c0 2.2091 1.79081 4 4.00001 4 2.2091 0 4-1.7909 4-4 0-2.20914-1.7909-4-4-4-2.2092 0-4.00001 1.79086-4.00001 4zm20.58311 11.5072-3.2357 5.4706c-.0382-.0849-.0815-.1686-.13-.2505l-1.6037-2.7113 4.5952-7.7689c.27-.4564.7608-.7364 1.2911-.7364h1.9546c.0363-.0013.0727-.0019.1092-.0019h7.8268c.899 0 3.6751 1.6346 3.6751 4.8105 0 4.2137-2.7761 5.9249-3.6751 5.9249v18.1486c0 .899-.7356 1.6346-1.6346 1.6346s-1.6346-.7356-1.6346-1.6346v-12.1728h-4.2691v12.1728c0 .899-.7356 1.6346-1.6346 1.6346s-1.6346-.7356-1.6346-1.6346z" fill="#333" fill-rule="evenodd"/></svg>