<svg fill="none" height="48" viewBox="0 0 48 48" width="48" xmlns="http://www.w3.org/2000/svg"><path clip-rule="evenodd" d="m28.0002 8.00181c0 1.19351-.5223 2.26499-1.3507 2.99819-.0018-.8212-.4078-1.62466-1.1504-2.10106-1.1621-.74553-2.7086-.40781-3.4541.75432l-.8011 1.24874c-.7663-.729-1.2439-1.75879-1.2439-2.90019 0-2.21014 1.7909-4.00181 4.0001-4.00181s4.0001 1.79167 4.0001 4.00181zm-3.1502 1.76205c-.6827-.46933-1.6166-.29639-2.0859.38624l-1.9667 2.8606h-1.2973c-.7028 0-1.3113.4879-1.4641 1.1739l-1 4.4892c-.1561.7011.2067 1.4146.8653 1.7014.6585.2868 1.428.0664 1.8349-.5255l5.5-8c.4694-.6826.2964-1.6165-.3862-2.08584zm-4.282 10.65194c-.469.6822-1.2163 1.0589-1.9848 1.0827v21.8739c0 .899.7356 1.6345 1.6346 1.6345s1.6346-.7355 1.6346-1.6345v-12.652h4.2691v12.652c0 .899.7356 1.6345 1.6346 1.6345s1.6346-.7355 1.6346-1.6345v-18.8729h-4.3906c-1.3807 0-2.5-1.1193-2.5-2.5s1.1193-2.5 2.5-2.5h4v1h-4c-.8284 0-1.5.6716-1.5 1.5s.6716 1.5 1.5 1.5h5.1844c1.1705-.6063 2.8813-2.3719 2.8813-5.6798 0-3.1759-2.7761-4.8104-3.6751-4.8104h-3.7307z" fill="#333" fill-rule="evenodd"/></svg>