<svg fill="none" height="48" viewBox="0 0 48 48" width="48" xmlns="http://www.w3.org/2000/svg"><path clip-rule="evenodd" d="m44 24c0 11.0457-8.9543 20-20 20s-20-8.9543-20-20 8.9543-20 20-20 20 8.9543 20 20zm-25-3c0 1.1046-.8954 2-2 2s-2-.8954-2-2 .8954-2 2-2 2 .8954 2 2zm12 2c1.1046 0 2-.8954 2-2s-.8954-2-2-2-2 .8954-2 2 .8954 2 2 2zm-12.4327 10.8235.0019-.0012.018-.0122c.0174-.0115.0452-.0298.0827-.0538.0752-.0481.1893-.1192.337-.2056.2961-.1732.7238-.4059 1.2416-.6385 1.0502-.4719 2.4024-.9122 3.7515-.9122s2.7013.4403 3.7515.9122c.5178.2326.9455.4653 1.2416.6385.1477.0864.2618.1575.337.2056.0375.024.0653.0423.0827.0538l.018.0122.0023.0015c.4547.3123 1.0773.1979 1.3904-.2565.3133-.4548.1986-1.0775-.2562-1.3908l-.0009-.0007-.0012-.0008-.0033-.0022-.0096-.0065-.0318-.0214c-.0267-.0177-.0643-.0424-.1122-.0731-.0957-.0612-.2326-.1464-.4054-.2475-.345-.2018-.8367-.4691-1.4318-.7365-1.1756-.5281-2.8235-1.0878-4.5711-1.0878s-3.3955.5597-4.5711 1.0878c-.5951.2674-1.0868.5347-1.4318.7365-.1728.1011-.3097.1863-.4054.2475-.0479.0307-.0855.0554-.1122.0731l-.0318.0214-.0096.0065-.0033.0022-.0012.0008-.0009.0007c-.4548.3133-.5695.936-.2562 1.3908.3132.4547.936.5692 1.3908.2562z" fill="#333" fill-rule="evenodd"/></svg>