<svg fill="none" height="48" viewBox="0 0 48 48" width="48" xmlns="http://www.w3.org/2000/svg"><g clip-rule="evenodd" fill="#333" fill-rule="evenodd"><path d="m16.8786 28 5.9722 4.1931c.6896.4842 1.6088.4842 2.2984 0l5.9722-4.1931s10.8786 3.3932 10.8786 7.4669v6.5333h-36v-6.5333c0-4.0737 10.8786-7.4669 10.8786-7.4669zm17.1214 6h2v2h-2v2h-2v-2h-2v-2h2v-2h2z"/><path d="m21.7015 33.8299-5.1425-3.6106c-.2008.0713-.4291.1541-.679.2476-.9799.3668-2.2705.891-3.5475 1.5284-1.296.6469-2.48293 1.3639-3.31689 2.0925-.90069.7868-1.01561 1.2548-1.01561 1.3791v4.5333h32v-4.5333c0-.1243-.1149-.5923-1.0156-1.3791-.2891-.2526-.6206-.5038-.9844-.7511v4.6633h-2v2h-6v-2h-2v-5.3647l-1.7015 1.1946c-1.3793.9684-3.2177.9684-4.597 0zm-4.8229-5.8299s-10.8786 3.3932-10.8786 7.4669v6.5333h36v-6.5333c0-4.0737-10.8786-7.4669-10.8786-7.4669l-5.9722 4.1931c-.6896.4842-1.6088.4842-2.2984 0zm13.1214 3.231-1.0952.769h1.0952zm4 .769h-2v2h-2v2h2v2h2v-2h2v-2h-2z"/><path d="m24 6c-2.8057 0-6.2375 1.02621-8.2641 1.73119-.9877.34361-1.4831 1.41722-1.1559 2.41051l2.7533 8.3583c4.4445-1.7857 8.8889-1.7857 13.3333 0l2.7534-8.3583c.3272-.99329-.1682-2.0669-1.1559-2.41051-2.0266-.70498-5.4585-1.73119-8.2641-1.73119zm1 5h2v2h-2v2h-2v-2h-2v-2h2v-2h2z"/><path d="m29.6201 18.425c-3.7566-1.5429-7.4836-1.5429-11.2402 0-.0606.0248-.1229.0435-.1862.056-.1264.4846-.1937.9936-.1937 1.519 0 3.3137 2.6863 6 6 6s6-2.6863 6-6c0-.5254-.0673-1.0344-.1937-1.519-.0633-.0125-.1256-.0312-.1862-.056zm-.2027-2.2153c-3.6055-1.2559-7.2292-1.2559-10.8348 0-.1684-.2314-.4316-.3842-.7269-.4085-.4027-.0331-.7858.1793-.9709.5385-.5658 1.098-.8848 2.3434-.8848 3.6603 0 4.4183 3.5817 8 8 8s8-3.5817 8-8c0-1.3169-.319-2.5623-.8848-3.6603-.1851-.3592-.5682-.5716-.9709-.5385-.2953.0243-.5585.1771-.7269.4085z"/></g></svg>