<svg fill="none" height="48" viewBox="0 0 48 48" width="48" xmlns="http://www.w3.org/2000/svg"><g clip-rule="evenodd" fill="#333" fill-rule="evenodd"><path d="m16.8786 28.3578c1.7262-.4242 5.1284 3.4042 6.6557 5.1228l.0002.0002c.1847.2078.3419.3848.4655.5196.1782-.1822.4239-.4504.719-.7726 1.643-1.7935 4.818-5.2593 6.4024-4.87 5.4041 1.328 10.8786 4.0359 10.8786 8.1095v6.5334h-36v-6.5334c0-4.0736 5.4745-6.7815 10.8786-8.1095zm17.1214 6.6422h2v2h-2v2h-2v-2h-2v-2h2v-2h2z"/><path d="m16.6087 4.38947c1.864-.58707 4.8567-1.38947 7.3913-1.38947s5.5273.8024 7.3912 1.38947c1.6509.51996 2.4025 2.31893 1.7868 3.85816l-2.2495 6.62377c-.202.5049-.7704.7559-1.2796.5649-3.7736-1.4151-7.5242-1.4151-11.2978 0-.5092.191-1.0776-.06-1.2796-.5649l-2.2495-6.62377c-.6157-1.53923.1359-3.3382 1.7867-3.85816zm8.3913 3.61053h2v2h-2v2h-2v-2h-2v-2h2v-2h2z"/><path d="m19.3701 13.7497c-1.4549 1.2841-2.3701 3.1597-2.3701 5.2503 0 3.866 3.134 7 7 7s7-3.134 7-7c0-2.0906-.9152-3.9662-2.3701-5.2503l1.3235-1.4995c1.8668 1.6477 3.0466 4.0616 3.0466 6.7498 0 4.9705-4.0294 9-9 9s-9-4.0295-9-9c0-2.6882 1.1798-5.1021 3.0466-6.7498z"/></g></svg>