<svg fill="none" height="48" viewBox="0 0 48 48" width="48" xmlns="http://www.w3.org/2000/svg"><g clip-rule="evenodd" fill="#333" fill-rule="evenodd"><path d="m16.8786 28 6.4771 5.4571c.3723.3137.9163.3137 1.2886 0l6.4771-5.4571s10.8786 3.3932 10.8786 7.4669v6.5333h-36v-6.5333c0-4.0737 10.8786-7.4669 10.8786-7.4669zm-4.8786 7h7v1.2457c0 .4465-.296.8389-.7253.9615l-2.5.7143c-.1795.0513-.3699.0513-.5494 0l-2.5-.7143c-.4293-.1226-.7253-.515-.7253-.9615zm21.6645-1.8747c-.0518-.1671-.2772-.1671-.329 0l-.4716 1.5205c-.0232.0747-.0896.1252-.1645.1252h-1.5261c-.1675 0-.2373.2247-.1016.3279l1.2346.9398c.0606.0462.0859.1279.0628.2026l-.4716 1.5206c-.0518.1669.1306.3059.2663.2027l1.2346-.9398c.0606-.0462.1427-.0462.2033 0l1.2345.9398c.1357.1032.3181-.0358.2663-.2027l-.4716-1.5206c-.0231-.0747.0023-.1564.0629-.2026l1.2345-.9398c.1357-.1032.0659-.3279-.1016-.3279h-1.5261c-.0749 0-.1413-.0505-.1645-.1252z"/><path d="m17.2038 16.507c.3045-.0843.6309-.0199.8804.1739.8102.629 2.4906 1.3191 5.9158 1.3191s5.1056-.6901 5.9158-1.3191c.2495-.1938.5759-.2582.8804-.1739.3044.0844.5511.3077.6653.6023.3481.8979.5385 1.8732.5385 2.8907 0 4.4183-3.5817 8-8 8s-8-3.5817-8-8c0-1.0175.1904-1.9928.5385-2.8907.1142-.2946.3609-.5179.6653-.6023zm.8801 2.4864c-.0551.327-.0839.6632-.0839 1.0066 0 3.3137 2.6863 6 6 6s6-2.6863 6-6c0-.3434-.0288-.6796-.0839-1.0066-1.334.6123-3.2307 1.0066-5.9161 1.0066s-4.5821-.3943-5.9161-1.0066z"/><path d="m24 6s-10.5 1.77419-10.5 4.0968c0 3.0967 1.9091 4.4032 1.9091 4.4032h17.1818s1.9091-1.3061 1.9091-4.4032c0-2.32261-10.5-4.0968-10.5-4.0968zm8.9877 10s.7261 4-8.9877 4-8.9877-4-8.9877-4zm-8.9877-7.5c.5333.53333 2 1.06667 2 1.06667s-.4 2.93333-2 2.93333-2-2.93333-2-2.93333 1.4667-.53334 2-1.06667z"/></g></svg>