<svg fill="none" height="48" viewBox="0 0 48 48" width="48" xmlns="http://www.w3.org/2000/svg"><g clip-rule="evenodd" fill="#333" fill-rule="evenodd"><path d="m16.8786 29.0308c.5028-.1235 1.2468.5971 1.2468.5971s5.4075 3.3717 5.422 3.3717c.6797.0001 6.3272-3.3717 6.3272-3.3717s.744-.7206 1.2468-.5971c5.4041 1.3281 10.8786 4.036 10.8786 8.1096v6.8593h-36v-6.8593c0-4.0736 5.4745-6.7815 10.8786-8.1096zm-4.8786 8.9692c0-.5523.4477-1 1-1h5c.5523 0 1 .4477 1 1s-.4477 1-1 1h-5c-.5523 0-1-.4477-1-1zm21.1975-3.8497c-.0622-.2004-.3328-.2004-.3949 0l-.5659 1.8246c-.0278.0896-.1076.1503-.1975.1503h-1.8312c-.2011 0-.2848.2697-.122.3935l1.4815 1.1277c.0728.0555.1032.1536.0754.2432l-.5659 1.8247c-.0622.2003.1568.367.3195.2432l1.4815-1.1278c.0728-.0553.1713-.0553.2441 0l1.4814 1.1278c.1627.1238.3817-.0429.3195-.2432l-.5659-1.8247c-.0278-.0896.0027-.1877.0755-.2432l1.4814-1.1277c.1628-.1238.0791-.3935-.122-.3935h-1.8312c-.0899 0-.1697-.0607-.1975-.1503z"/><path d="m15 18v-3h2v3c0 3.866 3.134 7 7 7s7-3.134 7-7v-3h2v3c0 4.9706-4.0294 9-9 9s-9-4.0294-9-9z"/><path d="m14.0214 14.4106c.0454-.2378.2631-.4106.5172-.4106h18.9228c.2541 0 .4718.1728.5172.4106l.0002.0012.0003.0012.0005.0029.0012.0068.0029.0182c.0021.0141.0045.0322.0068.0539.0046.0435.0088.1019.0094.173.0012.1423-.0119.337-.0658.5663-.109.4635-.3808 1.0527-1.0033 1.6253-1.2341 1.1352-3.7696 2.1406-8.9308 2.1406s-7.6967-1.0054-8.9308-2.1406c-.6225-.5726-.8943-1.1618-1.0033-1.6253-.0539-.2293-.067-.424-.0658-.5663.0006-.0711.0048-.1295.0094-.173.0023-.0217.0047-.0398.0068-.0539l.0029-.0182.0012-.0068.0005-.0029.0003-.0012z"/><path d="m13.6884 12c-.076-.1197-.1535-.24-.2314-.3612h-.0001c-.7081-1.0999-1.4569-2.26293-1.4569-3.54203 0-.8008.5203-1.47511 1.209-2.00829 2.56-1.98187 10.791-3.08848 10.791-3.08848s8.231 1.10662 10.791 3.08848c.6887.53318 1.209 1.20749 1.209 2.00829 0 1.45831-.8258 2.71753-1.6093 3.90323zm12.8116-4.66667s-1.8333-.66666-2.5-1.33333c-.6667.66667-2.5 1.33333-2.5 1.33333s.5 3.66667 2.5 3.66667 2.5-3.66667 2.5-3.66667z"/></g></svg>