<svg fill="none" height="48" viewBox="0 0 48 48" width="48" xmlns="http://www.w3.org/2000/svg"><path clip-rule="evenodd" d="m24 44c11.0457 0 20-8.9543 20-20s-8.9543-20-20-20-20 8.9543-20 20 8.9543 20 20 20zm-7-21c1.1046 0 2-.8954 2-2s-.8954-2-2-2-2 .8954-2 2 .8954 2 2 2zm16-2c0 1.1046-.8954 2-2 2s-2-.8954-2-2 .8954-2 2-2 2 .8954 2 2zm-2.2929 10.7071-.7071-.7071c.7071.7071.7064.7078.7064.7078l-.0024.0024-.0039.0039-.0102.0099c-.0077.0075-.0175.0169-.0294.028-.0237.0222-.0556.0514-.0957.0865-.0803.0702-.1935.1643-.3398.274-.2925.2193-.7183.5022-1.2778.7819-1.1223.5612-2.7744 1.1056-4.9472 1.1056s-3.8249-.5444-4.9472-1.1056c-.5595-.2797-.9853-.5626-1.2778-.7819-.1463-.1097-.2595-.2038-.3398-.274-.0401-.0351-.072-.0643-.0957-.0865-.0119-.0111-.0217-.0205-.0294-.028l-.0102-.0099-.0039-.0039-.0016-.0016-.0008-.0008s-.0007-.0007.7064-.7078l-.7071.7071c-.3905-.3905-.3905-1.0237 0-1.4142.3888-.3889 1.0182-.3905 1.4092-.005l.0053.005c.0075.0071.0225.0209.0449.0405.0447.0391.119.1013.2227.1791.2075.1557.5317.3728.9722.5931.8777.4388 2.2256.8944 4.0528.8944s3.1751-.4556 4.0528-.8944c.4405-.2203.7647-.4374.9722-.5931.1037-.0778.178-.14.2227-.1791.0224-.0196.0374-.0334.0449-.0405l.0053-.005c.391-.3855 1.0204-.3839 1.4092.005.3905.3905.3905 1.0237 0 1.4142z" fill="#333" fill-rule="evenodd"/></svg>