<svg fill="none" height="48" viewBox="0 0 48 48" width="48" xmlns="http://www.w3.org/2000/svg"><g clip-rule="evenodd" fill="#333" fill-rule="evenodd"><path d="m17.5718 12.5049h1.0999c.8653 1.4918 2.4796 2.4951 4.3283 2.4951 1.8483 0 3.4623-1.0029 4.3277-2.4941h.538c.9846 0 1.8775.5778 2.2807 1.476l4.222 9.4037c.3393.7558.0017 1.6435-.754 1.9828-.7558.3393-1.6435.0017-1.9828-.754l-3.2523-7.244v5.4677l2.6661 11.3769h-2.6661v8.653c0 .899-.7356 1.6346-1.6346 1.6346s-1.6346-.7356-1.6346-1.6346v-8.652h-4.2691v8.652c0 .899-.7356 1.6346-1.6346 1.6346s-1.6346-.7356-1.6346-1.6346v-8.653h-2.5786l2.5719-10.9748c-.9061-.0085-3.6684-1.7216-3.6684-5.9249 0-3.1758 2.7761-4.8104 3.6751-4.8104zm16.4282 13.4951c-1.6569 0-3 1.3431-3 3v.6667c0 .5523.4477 1 1 1s1-.4477 1-1v-.6667c0-.5523.4477-1 1-1s1 .4477 1 1v14c0 .5523.4477 1 1 1s1-.4477 1-1v-14c0-1.6569-1.3431-3-3-3z"/><path d="m24.9329 6.51575c.0438-.16454.0671-.33742.0671-.51575 0-1.10457-.8954-2-2-2s-2 .89543-2 2c0 .16683.0204.3289.0589.48383-1.2461.67791-2.0919 1.99913-2.0919 3.51797 0 2.2101 1.7909 4.0018 4.0001 4.0018s4.0001-1.7917 4.0001-4.0018c0-1.49534-.8198-2.79913-2.0343-3.48605z"/></g></svg>