<svg fill="none" height="48" viewBox="0 0 48 48" width="48" xmlns="http://www.w3.org/2000/svg"><path clip-rule="evenodd" d="m26.9672 9.00181c0 2.21009-1.7909 4.00179-4.0001 4.00179s-4.0001-1.7917-4.0001-4.00179c0-2.21014 1.7909-4.00181 4.0001-4.00181s4.0001 1.79167 4.0001 4.00181zm-8.2955 2.50309h-1.0999c-.899 0-3.6751 1.6346-3.6751 4.8104 0 4.2138 2.7761 5.9249 3.6751 5.9249v19.6278c0 .899.7356 1.6346 1.6346 1.6346l.0096-.0001.0096.0001c.899 0 1.6346-.7356 1.6346-1.6346v-11.652h4.2499v11.652c0 .899.7356 1.6346 1.6346 1.6346l.0096-.0001.0096.0001c.899 0 1.6346-.7356 1.6346-1.6346v-24.6369l2.1852 6.2631c.2729.7821 1.1283 1.195 1.9105.9221.7821-.2729 1.195-1.1283.9221-1.9105l-3.2531-9.3235c-.3503-1.0039-1.2972-1.6764-2.3605-1.6764h-.475c-.8654 1.4912-2.4794 2.4941-4.3277 2.4941-1.8487 0-3.463-1.0033-4.3283-2.4951zm13.3283 13.4951c-1.6569 0-3 1.3431-3 3v.6667c0 .5523.4477 1 1 1s1-.4477 1-1v-.6667c0-.5523.4477-1 1-1s1 .4477 1 1v14c0 .5523.4477 1 1 1s1-.4477 1-1v-14c0-1.6569-1.3431-3-3-3z" fill="#333" fill-rule="evenodd"/></svg>