<svg fill="none" height="48" viewBox="0 0 48 48" width="48" xmlns="http://www.w3.org/2000/svg"><path clip-rule="evenodd" d="m15.874 9c-.4441 1.7252-2.0102 3-3.874 3s-3.42994-1.2748-3.87398-3h-1.026c.46327 2.2822 2.48102 4 4.89998 4 2.419 0 4.4367-1.7178 4.9-4zm0-2c-.4441-1.72523-2.0102-3-3.874-3s-3.42994 1.27477-3.87398 3h-2.12602-1v1c0 3.866 3.13401 7 7 7 3.866 0 7-3.134 7-7v-1h-1zm21.126 11c2.2091 0 4-1.7909 4-4s-1.7909-4-4-4-4 1.7909-4 4 1.7909 4 4 4zm-15 15h-1v1 9h2v-8h12v8h2v-9-1h-1zm10.2932-16.4784c.6674.0989 1.24.5277 1.5227 1.1403l2.4638 5.3381h6.7203c1.1046 0 2 .8954 2 2s-.8954 2-2 2h-8c-.7801 0-1.489-.4536-1.8159-1.1619l-1.4658-3.1759c-.6739 1.3795-1.3301 3.1903-1.5953 5.3378h8.877c.841 0 1.5922.5261 1.8796 1.3165l4 11c.3775 1.0381-.158 2.1856-1.1961 2.5631s-2.1856-.158-2.5631-1.1961l-3.5213-9.6835h-9.5991c-.5304 0-1.0391-.2107-1.4142-.5858s-.5858-.8838-.5858-1.4142c0-2.0079.2965-3.8281.7351-5.4224-1.4535 1.4942-3.4859 2.4224-5.735 2.4224h-3.3756v14.2807c0 .9457-.7738 1.7194-1.7195 1.7194s-1.7195-.7737-1.7195-1.7194v-11.7533h-4.4909v11.7533c0 .9457-.77377 1.7194-1.71949 1.7194-.94571 0-1.71948-.7737-1.71948-1.7194v-16.9875c-.94571 0-3.86598-1.8001-3.86598-6.2327 0-2.9245 2.23773-4.6066 3.42986-4.9804 1.26765 1.5405 3.10003 2.5987 5.18049 2.8582v4.4582c0 3.647 2.9565 6.6035 6.6035 6.6035v-2c-2.5425 0-4.6035-2.061-4.6035-4.6035v-4.4583c1.8637-.2324 3.5283-1.1058 4.7662-2.3927l4.6149 3.731 3.1514.0001c.7215 0 1.324.5095 1.4675 1.1883v-1.4649h2v2h.0001l-.0001.0301v.2659c.2695-.447.5226-.8274.7411-1.1369.2122-.3007.3928-.5358.5253-.7015.0663-.0828.1206-.1484.1611-.1963.0202-.0239.037-.0434.05-.0584l.0167-.0192.0062-.0071.0026-.0029.0011-.0012c.0006-.0006.0011-.0012 1.4959 1.3275l-1.4948-1.3287c.4482-.5043 1.1205-.7486 1.788-.6497zm-5.2938 2.5697c-.0488 3.2716-2.7161 5.9087-5.9993 5.9087h-3.3756v-7.7113l3.2831 2.6543c.2669.2158.5998.3335.943.3335l3.6818.0001c.7205 0 1.3224-.508 1.467-1.1853zm6.5002.7321c.001-.0012.0012-.0014.0004-.0005z" fill="#333" fill-rule="evenodd"/></svg>