<svg fill="none" height="48" viewBox="0 0 48 48" width="48" xmlns="http://www.w3.org/2000/svg"><g fill="#333"><path d="m16.4718 19.4086-4.61 3.7903c-.7465.6138-1.8493.5062-2.46315-.2404-.61381-.7465-.5062-1.8494.24035-2.4632l7.1389-5.8695c.4921-.4046 1.1094-.6258 1.7465-.6258h10.7741c.6262 0 1.2337.2137 1.7219.6058l7.3228 5.8808c.7536.6051.8739 1.7066.2687 2.4602s-1.7067.8739-2.4602.2687l-4.3746-3.5131c.809 1.8472 1.4225 4.404 1.2229 7.7976-.2167 3.6834-2.1006 5.1052-2.1006 5.1052s-2 7.9648-2 9.7463c0 .9063-.7559 1.6478-1.6797 1.6478s-1.6797-.7415-1.6797-1.6478l-.5401-9.7463h-2l-.5428 9.7463c0 .9063-.7559 1.6478-1.6797 1.6478-.9239 0-1.6797-.7415-1.6797-1.6478l-2-9.7463s-2.3289-1.3381-2.5977-5.1052c0-3.3933.9411-6.1213 1.9718-8.0914z"/><path d="m28.0001 8.00181c0 2.21009-1.7909 4.00179-4.0001 4.00179s-4.0001-1.7917-4.0001-4.00179c0-2.21014 1.7909-4.00181 4.0001-4.00181s4.0001 1.79167 4.0001 4.00181z"/></g></svg>