<svg fill="none" height="48" viewBox="0 0 48 48" width="48" xmlns="http://www.w3.org/2000/svg"><g fill="#333"><path d="m17 24c3.8675 0 7-3.1325 7-7s-3.1325-7-7-7-7 3.1325-7 7 3.1325 7 7 7z"/><path d="m39 20.5c0 3.0387-2.4613 5.5-5.5 5.5s-5.5-2.4613-5.5-5.5c0-3.0388 2.4613-5.5 5.5-5.5s5.5 2.4612 5.5 5.5z"/><path d="m17 26c2.7336 0 7.183.8511 10.1011 2.5452 1.1919 1.2133 1.8989 2.5362 1.8989 3.8548v5.6h-25v-5.6c0-4.256 8.6612-6.4 13-6.4z"/><path d="m44 38h-13v-5.6c0-1.4163-.5114-2.7199-1.3236-3.8834 1.5409-.3441 3.0579-.5166 4.2163-.5166 3.7284 0 10.1073 1.7867 10.1073 5.3333z"/></g></svg>