<svg fill="none" height="48" viewBox="0 0 48 48" width="48" xmlns="http://www.w3.org/2000/svg"><path clip-rule="evenodd" d="m19.5 11.9111c2.2091 0 4-1.7908 4-3.99997 0-2.20914-1.7909-4-4-4s-4 1.79086-4 4c0 2.20917 1.7909 3.99997 4 3.99997zm-2.4362 1.5088c-.0366 0-.073.0006-.1092.0019h-1.9547-5.85702v-4.51021h-1.71429v4.51021h-1.92859c-.82843 0-1.5.6716-1.5 1.5s.67157 1.5 1.5 1.5h1.92859v18.3242c-.96789.1979-1.83773.7239-2.46246 1.4892s-.96601 1.7229-.96613 2.7108v5.1429h1.71429v-6.0001h1.7143v6.0001h1.71429v-6.0001h1.71432v6.0001h1.7143v-5.1429c-.0002-.9879-.3414-1.9455-.9662-2.7108-.6247-.7653-1.4945-1.2913-2.46242-1.4892v-18.3242h4.94022v25.8821c0 .899.7355 1.6346 1.6346 1.6346.899 0 1.6345-.7356 1.6345-1.6346v-12.1729h4.2692v12.1729c0 .899.7355 1.6346 1.6346 1.6346.899 0 1.6345-.7356 1.6345-1.6346v-18.1487c.899 0 3.6751-1.7112 3.6751-5.9249 0-3.1759-2.7761-4.8104-3.6751-4.8104zm19.3131.798c.0002-.0002.0003-.0003.6231.7821.6228-.7824.6229-.7823.6231-.7821l.0004.0003.001.0007.0024.002.007.0056.0224.0182c.0185.0152.044.0364.0756.0631.0631.0534.1508.1294.255.2246.2069.189.4855.4594.7671.7827.2791.3204.5791.7129.8134 1.147.2304.4266.4326.958.4326 1.5379s-.2022 1.1113-.4326 1.5379c-.2343.4341-.5343.8266-.8134 1.147-.2757.3165-.5485.5824-.754.7707v2.0614c.2532-.4046.6073-.8321 1.0981-1.1154.5022-.29 1.0635-.3806 1.5481-.3944.4931-.014.9831.0495 1.4.131.4208.0822.7944.1882 1.0615.2729.1345.0427.2441.0806.3219.1086.0245.0088.0459.0166.064.0233.0107.004.0202.0075.0285.0106l.0269.0103.0084.0033.0029.0011.0012.0004.0004.0002c.0002.0001.0005.0002-.3657.9307.9889.1482.9889.1484.9889.1486l-.0001.0005-.0002.0012-.0005.0031-.0013.0089-.0046.0285c-.0039.0236-.0095.0563-.0168.097-.0147.0814-.0367.1953-.067.3331-.0602.2737-.1552.6502-.2943 1.0557-.1379.4018-.3279.8579-.5867 1.2779-.2542.4129-.6133.8536-1.1155 1.1436s-1.0635.3805-1.5482.3943c-.4931.0141-.983-.0494-1.4-.1309-.4208-.0823-.7943-.1883-1.0614-.273-.0188-.0059-.037-.0118-.0547-.0175-.0115-.0037-.0227-.0074-.0338-.011v2.9574c.2532-.4046.6073-.8321 1.0981-1.1154.5022-.29 1.0635-.3806 1.5481-.3944.4931-.014.9831.0495 1.4.131.4208.0822.7944.1882 1.0615.2729.1345.0427.2441.0806.3219.1086.039.014.0701.0255.0925.0339l.0269.0103.0084.0033.0029.0011.0012.0004.0004.0002c.0002.0001.0005.0002-.3657.9307.9889.1482.9889.1484.9889.1486l-.0001.0005-.0002.0012-.0005.0031-.0013.0089-.0046.0285c-.0039.0236-.0095.0563-.0168.097-.0147.0814-.0367.1953-.067.3331-.0602.2737-.1552.6502-.2943 1.0557-.1379.4018-.3279.8579-.5867 1.2779-.2542.4129-.6133.8536-1.1155 1.1436s-1.0635.3805-1.5482.3943c-.4931.0141-.983-.0494-1.4-.1309-.4208-.0823-.7943-.1883-1.0614-.273-.0309-.0098-.0604-.0193-.0885-.0285v2.9574c.2532-.4046.6073-.8321 1.0981-1.1154.5022-.29 1.0635-.3806 1.5481-.3944.4931-.014.9831.0495 1.4.131.4208.0822.7944.1882 1.0615.2729.1345.0427.2441.0806.3219.1086.039.014.0701.0255.0925.0339l.0269.0103.0084.0033.0029.0011.0012.0004.0004.0002c.0002.0001.0005.0002-.3657.9307.9889.1482.9889.1484.9889.1486l-.0001.0005-.0002.0012-.0005.0031-.0013.0089-.0046.0285c-.0019.0111-.0041.0243-.0067.0394-.0029.0168-.0062.0361-.0101.0576-.0147.0814-.0367.1953-.067.3331-.0602.2737-.1552.6502-.2943 1.0557-.1379.4018-.3279.8579-.5867 1.2779-.2542.4129-.6133.8536-1.1155 1.1436s-1.0635.3805-1.5482.3943c-.4931.0141-.983-.0494-1.4-.1309-.4208-.0823-.7943-.1883-1.0614-.273-.0177-.0056-.0349-.0111-.0517-.0165-.0125-.0041-.0248-.0081-.0368-.012v2.4403c0 .5523-.4477 1-1 1s-1-.4477-1-1v-2.3783c-.2558.078-.5868.1678-.9538.2395-.4169.0815-.9069.145-1.4.1309-.4846-.0138-1.0459-.1043-1.5481-.3943s-.8613-.7307-1.1156-1.1436c-.2587-.42-.4487-.8761-.5866-1.2779-.1392-.4055-.2341-.782-.2943-1.0557-.0303-.1378-.0523-.2517-.067-.3331-.0074-.0407-.0129-.0734-.0168-.097l-.0046-.0285-.0014-.0089-.0004-.0031-.0002-.0012-.0001-.0005c0-.0002-.0001-.0004.9889-.1486-.3662-.9305-.366-.9306-.3658-.9307l.0005-.0002.0011-.0004.0029-.0011.0084-.0033.027-.0103c.0224-.0084.0535-.0199.0924-.0339.0778-.028.1875-.0659.322-.1086.2671-.0847.6406-.1907 1.0614-.2729.417-.0815.9069-.145 1.4-.131.4847.0138 1.046.1044 1.5482.3944.3752.2166.6705.5174.9019.8279v-2.6079c-.2558.078-.5868.1678-.9538.2395-.4169.0815-.9069.145-1.4.1309-.4846-.0138-1.0459-.1043-1.5481-.3943s-.8613-.7307-1.1156-1.1436c-.2587-.42-.4487-.8761-.5866-1.2779-.1392-.4055-.2341-.782-.2943-1.0557-.0303-.1378-.0523-.2517-.067-.3331-.0074-.0407-.0129-.0734-.0168-.097l-.0046-.0285-.0014-.0089-.0004-.0031-.0002-.0012-.0001-.0005c0-.0002-.0001-.0004.9889-.1486-.3662-.9305-.366-.9306-.3658-.9307l.0005-.0002.0011-.0004.0029-.0011.0084-.0033.027-.0103c.0224-.0084.0535-.0199.0924-.0339.0778-.028.1875-.0659.322-.1086.2671-.0847.6406-.1907 1.0614-.2729.417-.0815.9069-.145 1.4-.131.4847.0138 1.046.1044 1.5482.3944.3752.2166.6705.5174.9019.8279v-2.6079c-.2558.078-.5868.1678-.9538.2395-.4169.0815-.9069.145-1.4.1309-.4846-.0138-1.0459-.1043-1.5481-.3943s-.8613-.7307-1.1156-1.1436c-.2587-.42-.4487-.8761-.5866-1.2779-.1392-.4055-.2341-.782-.2943-1.0557-.0303-.1378-.0523-.2517-.067-.3331-.0038-.0208-.0071-.0395-.0099-.0559-.0027-.0158-.005-.0296-.0069-.0411l-.0046-.0285-.0014-.0089-.0004-.0031-.0002-.0012-.0001-.0005c0-.0002-.0001-.0004.9889-.1486-.3662-.9305-.366-.9306-.3658-.9307l.0005-.0002.0011-.0004.0029-.0011.0084-.0033.027-.0103c.0224-.0084.0535-.0199.0924-.0339.0778-.028.1875-.0659.322-.1086.2671-.0847.6406-.1907 1.0614-.2729.417-.0815.9069-.145 1.4-.131.4847.0138 1.046.1044 1.5482.3944.3752.2166.6705.5174.9019.8279v-1.7739c-.2055-.1883-.4783-.4542-.754-.7707-.2791-.3204-.579-.7129-.8134-1.147-.2304-.4266-.4326-.958-.4326-1.5379s.2022-1.1113.4326-1.5379c.2344-.4341.5343-.8266.8134-1.147.2816-.3233.5602-.5937.7671-.7827.1042-.0952.1919-.1712.255-.2246.0316-.0267.0571-.0479.0756-.0631l.0224-.0182.007-.0056.0024-.002.001-.0007zm-5.3769 9.2817-.989.1482c-.069-.4608.1893-.9081.6228-1.0787zm0 7-.989.1482c-.069-.4608.1893-.9081.6228-1.0787zm0 7-.989.1482c-.069-.4608.1893-.9081.6228-1.0787zm12.1962 0 .3662-.9305c.4335.1706.6917.6179.6227 1.0787zm0-7 .3662-.9305c.4335.1706.6917.6179.6227 1.0787zm0-7 .3662-.9305c.4335.1706.6917.6179.6227 1.0787zm-6.1962-8.4996-.6228-.7824c.3645-.2901.8811-.2901 1.2456 0z" fill="#333" fill-rule="evenodd"/></svg>