<svg fill="none" height="48" viewBox="0 0 48 48" width="48" xmlns="http://www.w3.org/2000/svg"><path clip-rule="evenodd" d="m16.5052 12.0249c5.132 0 5.356 6.1182 5.3332 9.7731.0598-.026.1199-.0553.1794-.088.2495-.1375.483-.3336.6581-.623.1741-.2875.3243-.7228.3243-1.3927v-.0024l-.0001-8.0822v-.0024-3.92921-.00242-1.21931-.00241-.02444-.00241-.01315-.01054-.00241-.02292-.00241-.00997-.00241-.00977-.00241-.01199-.00939-.00241-.00919-.0114-.00241-.01121-.01101-.01901-.00241-.008-.01021-.01981-.00241-.00961-.00698-.00241-.01577-.00241-.06199-.00241-.04837-.03677-.00241-.01995-.00176-.00153-.00129-.00106-.00135-.00107-.00141s0-.00048 1-.00048 1 .00012 1 .00012v.00177.00107.00129.00112.00129.00153.00176.01995.00241.03435.05079.00241.06199.00241.01577.00241.00939.0072.00241.0174.01021.01041.00241.02142.01101.0088.00241.00899.0116.00241.0118.00958.00241.00977.00241.00997.00241.02292.00241.01296.01073.00241.02444.00241 1.21931.00242 3.92921.0024l.0001 8.0822c0 .6698.1503 1.1052.3243 1.3927.1751.2894.4086.4855.6582.6229.0464.0256.0932.049.1399.0704-.0227-3.6552.2029-9.7693 5.3332-9.7693 7.4506 0 12.7725 26.0065 9.5793 28.6602-3.1931 2.6537-9.5793 1.0615-12.7725-2.123-2.578-2.571-2.3549-8.5787-2.1948-12.8912.0235-.6331.0457-1.2296.0574-1.7734-.3213-.0756-.711-.2035-1.1074-.4218-.3473-.1913-.7023-.4538-1.0165-.8104-.3147.3579-.6706.6211-1.0186.8128-.4128.2274-.8185.3566-1.147.431.0117.5449.0339 1.1429.0574 1.7776.1602 4.3126.3832 10.3208-2.1947 12.8917-3.1932 3.1845-9.5794 4.7767-12.77257 2.123-3.19315-2.6537 2.12876-28.6602 9.57937-28.6602zm17.5368 4.9736c0 1.1037-.8954 1.9984-2 1.9984-1.1045 0-2-.8947-2-1.9984 0-1.1038.8955-1.9985 2-1.9985 1.1046 0 2 .8947 2 1.9985zm-20.0401.0047c.001 1.1046.8971 1.9993 2.0017 1.9984s1.9993-.8971 1.9983-2.0017c-.0009-1.1045-.897-1.9992-2.0016-1.9983s-1.9993.897-1.9984 2.0016zm-5.01313 20c.00091 1.1046.89707 1.9993 2.00163 1.9984 1.1046-.001 1.9993-.8971 1.9984-2.0017s-.8971-1.9992-2.0017-1.9983c-1.10454.0009-1.99923.897-1.99833 2.0016zm8.01483-3.0016c-1.1046.0009-2.0008-.8938-2.0017-1.9984s.8938-2.0007 1.9984-2.0016c1.1046-.001 2.0007.8937 2.0016 1.9983s-.8938 2.0007-1.9983 2.0017zm-7.0017-5.9984c.0009 1.1046.8971 1.9993 2.0017 1.9984 1.1045-.001 1.9992-.8971 1.9983-2.0017s-.897-1.9993-2.0016-1.9983c-1.1046.0009-1.9993.897-1.9984 2.0016zm7.0017-3.0016c-1.1046.0009-2.0008-.8938-2.0017-1.9984s.8938-2.0007 1.9984-2.0016c1.1046-.001 2.0007.8937 2.0016 1.9983s-.8938 2.0007-1.9983 2.0017zm20.0221 13.9953c1.1046 0 2-.8947 2-1.9984 0-1.1038-.8954-1.9985-2-1.9985s-2 .8947-2 1.9985c0 1.1037.8954 1.9984 2 1.9984zm-3.9959-6.9984c0 1.1037-.8954 1.9984-2 1.9984-1.1045 0-2-.8947-2-1.9984 0-1.1038.8955-1.9985 2-1.9985 1.1046 0 2 .8947 2 1.9985zm3.0033-2.0016c1.1046 0 2-.8947 2-1.9984 0-1.1038-.8954-1.9985-2-1.9985-1.1045 0-2 .8947-2 1.9985 0 1.1037.8955 1.9984 2 1.9984zm-2.9959-6.9984c0 1.1037-.8955 1.9984-2 1.9984-1.1046 0-2-.8947-2-1.9984 0-1.1038.8954-1.9985 2-1.9985 1.1045 0 2 .8947 2 1.9985z" fill="#333" fill-rule="evenodd"/></svg>