<svg fill="none" height="48" viewBox="0 0 48 48" width="48" xmlns="http://www.w3.org/2000/svg"><g fill="#333"><path d="m32.0366 21.8022c-.9049-1.8417-1.9988-3.5805-3.2636-5.1872-.9885-1.6322-2.2576-3.0694-3.7465-4.2429-.9353-.563-2.0407-.757-3.1069-.5453-1.5143.3325-2.4151 2.2345-3.2114 3.4049l-2.6109 3.6178c-.1868.2731-.2664.6077-.2229.9377s.2069.6314.4579.8446l4.6996 3.9103c.2154.1733.4789.273.7531.2849s.5451-.0645.7742-.2184c-.3133 1.2636-4.7648 14.112-4.817 14.2849h5.1042l.1828 3.7773c0 .3528.1375.6911.3823.9405.2448.2495.5769.3896.9231.3896s.6783-.1401.9231-.3896c.2448-.2494.3823-.5877.3823-.9405l.1958-3.6975h4.6212c0-.3325-.4569-6.8764-.4177-7.6346.0392-.7581.8485-1.2103 1.3054-1.6625.531-.5498.9718-1.183 1.3055-1.8754.2724-.6264.4316-1.2978.4699-1.9818-.0195-1.4111-.3925-2.7937-1.0835-4.0168zm-13.0543-2.301 2.7414-3.1921c.1828.8778.3917 1.7557.5875 2.6601.3264 1.2229.4975 2.4835.5091 3.7508-.0482-.0697-.1005-.1363-.1567-.1996z"/><path d="m26.4935 11c.9341-.0099 1.8262-.3753 2.4819-1.01635.6556-.6411 1.0216-1.50595 1.0181-2.40597.0291-.45929-.0397-.91947-.2021-1.35219-.1624-.43273-.415-.82886-.7422-1.164-.3273-.33515-.7223-.60221-1.1607-.78476-.4384-.18256-.9109-.27673-1.3885-.27673s-.9501.09417-1.3885.27673c-.4384.18255-.8334.44961-1.1607.78476-.3272.33514-.5798.73127-.7422 1.164-.1624.43272-.2312.8929-.2021 1.35219-.0069.89886.3561 1.76374 1.0097 2.40519.6536.64143 1.5444 1.00723 2.4773 1.01713z"/></g></svg>