<svg fill="none" height="48" viewBox="0 0 48 48" width="48" xmlns="http://www.w3.org/2000/svg"><path clip-rule="evenodd" d="m3 6c0-1.10457.89543-2 2-2h19c.1649 0 .3252.01996.4785.0576 5.6129-.42566 11.3711 1.50776 15.6636 5.80026 7.8105 7.81054 7.8105 20.47374 0 28.28424s-20.4737 7.8105-28.2842 0c-6.54367-6.5436-7.60504-16.4935-3.18414-24.1421h-3.67376c-1.10457 0-2-.8954-2-2zm20.9977 8c1.6702 1.6986 1.8325 4.7195-.4062 6.4649l-1.3984 1.0903c-1.4552 1.1345-.4951 3.4649 1.3369 3.2451 1.8901-.2267 3.6589.9722 4.1483 2.8118l1.5382 5.7815c1.4446-.5391 2.567-1.3206 3.4165-2.1323l-.4692.0361c-.9725.0748-1.8571-.5628-2.0937-1.509l-1.4142-5.6569c-.2679-1.0716.3836-2.1574 1.4552-2.4253s2.1575.3836 2.4254 1.4552l1.0045 4.0183 2.9122-.2241c.6812-.0524 1.3419.2466 1.7523.7927.4104.5462.5136 1.264.2738 1.9037-.8836 2.3563-4.2183 7.5418-11.5513 8.3566-.995.1105-1.9184-.5315-2.1612-1.5027l-.9291-3.7166-3.7166.9292c-1.0716.2679-2.1574-.3837-2.4253-1.4553-.2679-1.0715.3836-2.1574 1.4552-2.4253l5.6568-1.4142c.3481-.087.6977-.0771 1.0203.0128l-.0826-.3101c-.2333-.8769-1.0763-1.4484-1.9773-1.3403-3.8435.4611-5.8577-4.428-2.8049-6.8082l1.3985-1.0903c1.7373-1.3545.7795-4.1408-1.4234-4.1408l-10.3829.0001c-4.15068 6.9161-3.24514 16.0193 2.7166 21.981 7.0294 7.0295 18.4264 7.0295 25.4558 0 7.0295-7.0294 7.0295-18.4264 0-25.4558-3.5147-3.51474-8.1213-5.2721-12.7279-5.2721v6c0 1.1046-.8954 2-2 2zm-16.13689-1.904c1.248 0 2.016-.776 2.016-1.832v-.016c0-1.04-.744-1.44-1.504-1.568l1.096-1.048c.224-.216.368-.384.368-.688 0-.336-.264-.544-.624-.544h-2.728c-.288 0-.528.24-.528.528s.24.528.528.528h1.72l-1.088 1.096c-.192.192-.264.336-.264.504 0 .288.24.528.528.528h.192c.688 0 1.096.256 1.096.712v.016c0 .416-.328.68-.792.68-.44 0-.776-.144-1.096-.416-.096-.08-.216-.152-.392-.152-.32 0-.592.272-.592.592 0 .176.096.344.208.44.456.392 1.056.64 1.856.64zm2.58479-.68c0 .368.28.584.664.584h3.04c.296 0 .536-.232.536-.528s-.24-.536-.536-.536h-1.952l.912-.704c.992-.768 1.472-1.232 1.472-2.168v-.016c0-1.048-.768-1.728-1.928-1.728-.848 0-1.376.304-1.824.824-.088.104-.144.248-.144.384 0 .312.248.56.56.56.192 0 .336-.088.416-.176.312-.336.56-.488.912-.488.44 0 .752.256.752.728 0 .464-.272.776-.968 1.344l-1.592 1.304c-.208.168-.32.376-.32.616zm6.2883.168c.112.312.344.504.64.504h.128c.296 0 .52-.184.632-.504l1.104-3.208 1.104 3.208c.112.32.336.504.632.504h.128c.296 0 .528-.192.64-.504l1.568-4.4c.024-.072.048-.168.048-.24 0-.336-.272-.592-.608-.592-.304 0-.512.2-.592.44l-1.112 3.432-1.12-3.4c-.096-.296-.312-.488-.624-.488h-.096c-.312 0-.528.2-.624.488l-1.12 3.4-1.112-3.432c-.08-.256-.312-.44-.6-.44-.344 0-.632.256-.632.6 0 .072.024.16.048.232zm18.4585 13.1231c1.5621 1.5621 4.0947 1.5621 5.6568 0s1.5621-4.0948 0-5.6568c-1.5621-1.5621-4.0947-1.5621-5.6568 0-1.5621 1.562-1.5621 4.0947 0 5.6568z" fill="#333" fill-rule="evenodd"/></svg>