<svg fill="none" height="48" viewBox="0 0 48 48" width="48" xmlns="http://www.w3.org/2000/svg"><path clip-rule="evenodd" d="m34 14.4142 1.2929 1.2929 1.4142-1.4142-4-4-1.4142 1.4142 1.2929 1.2929-3.0858 3.0858-.7929-.7929-.7071-.7071-1.2929-1.2929-1.4142 1.4142 1.2929 1.2929-5.8787 5.8787c-.9554.9554-1.1317 2.3949-.5288 3.5289l-2.7088 2.7088-2.0597-2.5351-6.0255 6.38 2.9191 2.5542c1.0937.957 2.4977 1.4845 3.951 1.4845h14.7456c0 1.1046.8954 2 2 2h2.5s-1.5-1-1.5-3v-5h1 2v1c0 .5523.4477 1 1 1h1v-3c0-1.1046-.8954-2-2-2h-3l-3 3h-11.0481c-.0401 0-.08-.0012-.1198-.0036l-2.0037 2.0037h-1.4142l5.1783-5.1783c1.134.6028 2.5735.4265 3.5288-.5289l5.8787-5.8787 1.2929 1.2929 1.4142-1.4142-1.2929-1.2929-.7071-.7071-.7929-.7929zm-4.4142 4.5858-1.5858-1.5858-2.0858 2.0858 1.5858 1.5858zm10.4142 9v5h-2c-1.6 0-2-1.3333-2-2h-1v2 2c0 1.5 1.5 3 3 3h3.0001c1.1046 0 1.9999-.8954 1.9999-2v-6c0-1.1046-.8954-2-2-2zm-25.8624-3.9845-6.25954 6.6278-1.87806-1.6433v-15z" fill="#333" fill-rule="evenodd"/></svg>