<svg fill="none" height="48" viewBox="0 0 48 48" width="48" xmlns="http://www.w3.org/2000/svg"><path d="m31 9v16.7311c0 .9865 1.277 1.3771 1.8288.5595l2.7244-4.036c.7959-1.1792 2.4024-1.4799 3.5709-.6684 1.068.7416 1.4076 2.1677.7886 3.3111l-6.9377 12.8155c-2.0971 3.8738-6.1479 6.2872-10.5529 6.2872h-1.4221c-6.6274 0-12-5.3726-12-12v-17c0-1.1046.89543-2 2-2 1.1046 0 2 .8954 2 2v10.1111h2v-16.1111c0-1.10457.8954-2 2-2s2 .89543 2 2v14h2v-17c0-1.10457.8954-2 2-2s2 .89543 2 2v17h2v-14c0-1.10457.8954-2 2-2s2 .89543 2 2z" fill="#333"/></svg>