<svg fill="none" height="48" viewBox="0 0 48 48" width="48" xmlns="http://www.w3.org/2000/svg"><g clip-rule="evenodd" fill="#333" fill-rule="evenodd"><path d="m31.2499 13c2.2092 0 4-1.7909 4-4 0-2.20914-1.7908-4-4-4-2.2091 0-4 1.79086-4 4 0 2.2091 1.7909 4 4 4zm3.8034 1.0327c.6496-.1082 1.2938.2198 1.5882.8088l2.7 5.3999c.2397.4795.2054 1.0504-.09 1.4976l-2.7 4.0874c-.4566.6912-1.3871.8814-2.0784.4248-.6912-.4566-.8814-1.3871-.4248-2.0784l1.1586-1.7539c-.0343-.1276-.0819-.2536-.1432-.3763-.0855-.171-.1922-.3243-.3153-.4585 1.0609-.0638 1.9015-.9444 1.9015-2.0213 0-1.1184-.9066-2.025-2.025-2.025-1.1183 0-2.025.9066-2.025 2.025 0 .4305.1344.8297.3635 1.1578l-1.9489-.656-.0002-1.2816c0-.5522-.4478-.9999-1.0001-.9998-.5523 0-.9999.4478-.9999 1.0001l.0003 2c0 .4293.2741.8107.681.9476l.908.3057-2.2732 1.1365c-.294.147-.5359.3566-.7178.6046l1.8134 2.2909c.5142.6496.4044 1.593-.2452 2.1071-.6495.5142-1.5929.4044-2.1071-.2451l-3.7498-4.7374c-.3614-.4565-.4259-1.081-.1655-1.6018l2.4722-4.9445c.3577-.7154 1.0361-1.2164 1.8251-1.3479z"/><path d="m26.0153 28.1148c.4095.8191 1.2563 1.3816 2.2344 1.3816 1.3789 0 2.4966-1.1178 2.4966-2.4966h.0035c.8742 0 1.6901-.2493 2.3807-.6806.4408.7065 1.2251 1.1767 2.1193 1.1767.3509 0 .6849-.0725.9878-.2032l2.0122 6.7071h-2.5v7c0 .8284-.6716 1.5-1.5 1.5-.8285 0-1.5-.6716-1.5-1.5v-7h-3v7c0 .8284-.6716 1.5-1.5 1.5-.8285 0-1.5-.6716-1.5-1.5v-7h-2.5z"/><path d="m15.0002 24c1.933 0 3.5-1.567 3.5-3.5s-1.567-3.5-3.5-3.5-3.5 1.567-3.5 3.5 1.567 3.5 3.5 3.5zm-2.5 1.5c-.5016 0-.9699.2507-1.2481.6679l-4.00002 6c-.45952.6893-.27326 1.6206.41603 2.0802.68929.4595 1.6206.2732 2.08012-.416l1.25197-1.8779v9.0458c0 .8284.6715 1.5 1.5 1.5.8284 0 1.5-.6716 1.5-1.5v-5h2v5c0 .8284.6715 1.5 1.5 1.5.8284 0 1.5-.6716 1.5-1.5v-9.0458l1.2519 1.8779c.4595.6892 1.3908.8755 2.0801.416.6893-.4596.8756-1.3909.416-2.0802l-4-6c-.2782-.4172-.7465-.6679-1.248-.6679z"/></g></svg>