<svg fill="none" height="48" viewBox="0 0 48 48" width="48" xmlns="http://www.w3.org/2000/svg"><path clip-rule="evenodd" d="m24 44c11.0457 0 20-8.9543 20-20s-8.9543-20-20-20-20 8.9543-20 20 8.9543 20 20 20zm-5.0715-23.3714c-.2051-.5128-.7871-.7622-1.2999-.5571l-2.4778.9911-.0012.0005-.0012.0005-.0012.0005-.0011.0004-.001.0004-.001.0004-.0073.003-.0066.0026-.001.0004-.0009.0004-.0142.0056-.001.0004-.001.0004-.001.0004-.0034.0014-.0013.0005-.0013.0005-.0013.0005-.0432.0173-.0027.0011-2.4293.9717c-.5128.2051-.7622.7871-.5571 1.2999s.7871.7622 1.2999.5571l2.4778-.9911.0036-.0015.0011-.0004.001-.0004.001-.0004.0073-.003.0066-.0026.0019-.0008.0142-.0056.001-.0004.001-.0004.001-.0004.0034-.0014.0013-.0005.0013-.0005.0013-.0005 2.4752-.9901c.5128-.2051.7622-.7871.5571-1.2999zm11.4429-.5571c-.5128-.2051-1.0948.0443-1.2999.5571s.0443 1.0948.5571 1.2999l2.4765.9906.0013.0005.0047.0019.001.0004.001.0004.001.0004.0063.0025.0076.003.002.0008.0009.0004.0152.0061.0023.0009.0024.001 2.4778.9911c.5128.2051 1.0948-.0443 1.2999-.5571s-.0443-1.0948-.5571-1.2999l-2.4765-.9906-.0013-.0005-.0047-.0019-.001-.0004-.001-.0004-.001-.0004-.0063-.0025-.0076-.003-.002-.0008-.0009-.0004-.0152-.0061-.0011-.0004-.0012-.0005-.0012-.0005-.0012-.0005zm-13.5704 13.5272-.001.0013c-.3315.4413-.9584.5312-1.4.2-.4418-.3314-.5314-.9582-.2-1.4l.8.6c-.8-.6-.8003-.5997-.8-.6l.0011-.0014.0013-.0018.0036-.0047.0105-.0137c.0085-.0111.0199-.0258.0344-.044.0288-.0365.0695-.0868.1218-.1491.1045-.1246.2559-.2974.4522-.5022.3918-.4088.9673-.9503 1.7119-1.4918 1.4855-1.0804 3.6877-2.1913 6.4632-2.1913s4.9777 1.1109 6.4632 2.1913c.7446.5415 1.3201 1.083 1.7119 1.4918.1963.2048.3477.3776.4522.5022.0523.0623.093.1126.1218.1491.0145.0182.0259.0329.0344.044l.0105.0137.0036.0047.0013.0018c.0003.0003.0011.0014-.7636.5749l.7647-.5735c.3314.4418.2418 1.0686-.2 1.4-.4412.3309-1.0667.2421-1.3985-.198l-.0007-.0009c-.0002-.0003-.0008-.0011.7992-.6011l-.8.6-.001-.0013-.018-.0229c-.0175-.0222-.0462-.0577-.0856-.1048-.0791-.0942-.2012-.2339-.3643-.4041-.3269-.3412-.8139-.7997-1.4443-1.2582-1.2645-.9196-3.0623-1.8087-5.2868-1.8087s-4.0223.8891-5.2868 1.8087c-.6304.4585-1.1174.917-1.4443 1.2582-.1631.1702-.2852.3099-.3643.4041-.0394.0471-.0681.0826-.0856.1048z" fill="#333" fill-rule="evenodd"/></svg>