<svg fill="none" height="48" viewBox="0 0 48 48" width="48" xmlns="http://www.w3.org/2000/svg"><g fill="#333"><path clip-rule="evenodd" d="m17.1479 31.169c-.089-.001-.1794.009-.2693.0309-5.4041 1.3183-10.8786 4.0062-10.8786 8.0499v4.7502h36v-4.7502c0-4.0437-5.4745-6.7316-10.8786-8.0499-.0899-.0219-.1803-.0319-.2693-.0309l-6.8521 7.831zm17.8521 6.1643s-1.3333-.6666-2-1.3333c-.6667.6667-2 1.3333-2 1.3333s.6983 2.6667 2 2.6667 2-2.6667 2-2.6667z" fill-rule="evenodd"/><path d="m25.5 29h-3c-.5523 0-1 .4477-1 1v1.5858c0 .2652.1054.5196.2929.7071l.7071.7071-1 3.5 2.5 5 2.5-5-1-4 .4472-.2236c.3388-.1694.5528-.5157.5528-.8944v-1.382c0-.5523-.4477-1-1-1z"/><g clip-rule="evenodd" fill-rule="evenodd"><path d="m15 18v-3h2v3c0 3.866 3.134 7 7 7s7-3.134 7-7v-3h2v3c0 4.9706-4.0294 9-9 9s-9-4.0294-9-9z"/><path d="m13.6884 12c-.076-.1197-.1535-.24-.2314-.3612h-.0001c-.7081-1.0999-1.4569-2.26293-1.4569-3.54203 0-.8008.5203-1.47511 1.209-2.00829 2.56-1.98187 10.791-3.08848 10.791-3.08848s8.231 1.10662 10.791 3.08848c.6887.53318 1.209 1.20749 1.209 2.00829 0 1.45831-.8258 2.71753-1.6093 3.90323zm8.3116-4c0-1.10457.8954-2 2-2s2 .89543 2 2-.8954 2-2 2-2-.89543-2-2z"/><path d="m14.0214 14.4106c.0454-.2378.2631-.4106.5172-.4106h18.9228c.2541 0 .4718.1728.5172.4106l.0002.0012.0003.0012.0005.0029.0012.0068.0029.0182c.0021.0141.0045.0322.0068.0539.0046.0435.0088.1019.0094.173.0012.1423-.0119.337-.0658.5663-.109.4635-.3808 1.0527-1.0033 1.6253-1.2341 1.1352-3.7696 2.1406-8.9308 2.1406s-7.6967-1.0054-8.9308-2.1406c-.6225-.5726-.8943-1.1618-1.0033-1.6253-.0539-.2293-.067-.424-.0658-.5663.0006-.0711.0048-.1295.0094-.173.0023-.0217.0047-.0398.0068-.0539l.0029-.0182.0012-.0068.0005-.0029.0003-.0012z"/></g></g></svg>