<svg fill="none" height="48" viewBox="0 0 48 48" width="48" xmlns="http://www.w3.org/2000/svg"><g fill="#333"><path clip-rule="evenodd" d="m17.1176 30c-.0184.0043.184.0073.5553.0094l6.3271 9.4906 6.3172-9.4757c.2895.0013.5589.0029.8042.0047 5.4041 1.2329 10.8786 3.7468 10.8786 7.5286v4.4425h-36v-4.4425c0-3.7818 5.7135-6.3247 11.1176-7.5576zm15.8824 4c.6667.6667 2 1.3333 2 1.3333s-.6983 2.6667-2 2.6667-2-2.6667-2-2.6667 1.3333-.6666 2-1.3333z" fill-rule="evenodd"/><path d="m25.5 30h-3c-.5523 0-1 .4477-1 1v1.382c0 .3787.214.725.5528.8944l.4472.2236-.5556 3v4.5h4.2003v-4.2766l-.6447-3.2234.4472-.2236c.3388-.1694.5528-.5157.5528-.8944v-1.382c0-.5523-.4477-1-1-1z"/><g clip-rule="evenodd" fill-rule="evenodd"><path d="m17.2038 16.507c.3045-.0843.6309-.0199.8804.1739.8102.629 2.4906 1.3191 5.9158 1.3191s5.1056-.6901 5.9158-1.3191c.2495-.1938.5759-.2582.8804-.1739.3044.0844.5511.3077.6653.6023.3481.8979.5385 1.8732.5385 2.8907 0 4.4183-3.5817 8-8 8s-8-3.5817-8-8c0-1.0175.1904-1.9928.5385-2.8907.1142-.2946.3609-.5179.6653-.6023zm.8801 2.4865c-.0551.3269-.0839.6631-.0839 1.0065 0 3.3137 2.6863 6 6 6s6-2.6863 6-6c0-.3434-.0288-.6796-.0839-1.0065-1.334.6122-3.2307 1.0065-5.9161 1.0065s-4.5821-.3943-5.9161-1.0065z"/><path d="m24 6s-10.5 1.77419-10.5 4.0968c0 3.0967 1.9091 4.4032 1.9091 4.4032h17.1818s1.9091-1.3061 1.9091-4.4032c0-2.32261-10.5-4.0968-10.5-4.0968zm8.9877 10s.7261 4-8.9877 4-8.9877-4-8.9877-4zm-8.9877-4c.8284 0 1.5-.6716 1.5-1.5 0-.82843-.6716-1.5-1.5-1.5s-1.5.67157-1.5 1.5c0 .8284.6716 1.5 1.5 1.5z"/></g></g></svg>