<svg fill="none" height="48" viewBox="0 0 48 48" width="48" xmlns="http://www.w3.org/2000/svg"><path clip-rule="evenodd" d="m23 10h-1-2.2361c.5493-.61375 1.3476-1 2.2361-1s1.6868.38625 2.2361 1zm-1-3c2.0503 0 3.8124 1.2341 4.584 3h.416 1 1v2h-1v5 1h-1-2c-.913 0-1.7308-.4079-2.281-1.0513-.2348.0338-.4748.0513-.719.0513-2.7614 0-5-2.2386-5-5 0-2.76142 2.2386-5 5-5zm2 5h2v4h-1c-.5523 0-1-.4477-1-1zm-19 10c0-2.2091 1.79086-4 4-4h-1c-.55228 0-1-.4477-1-1s.44772-1 1-1h4c.5523 0 1 .4477 1 1s-.4477 1-1 1h-1c1.0465 0 1.9991.4018 2.7119 1.0596.5503-.6482 1.3712-1.0596 2.2881-1.0596h2 4c2.2091 0 4 1.7909 4 4v6.5585l2.7433.9144 5.8613-2.4278.3613.8722 1.5142-1.5185 3.8858-3.8969 1.4162 1.4122-2.1845 2.1908h3.0906v2h-5.5-2.1446l.3263.7879-3.9944 1.6546c.5462.5179.7756 1.3238.5219 2.0851-.3283.9847-1.3484 1.5442-2.3398 1.3181-1.2589 4.0826-5.0618 7.0494-9.5576 7.0494-5.1853 0-9.4489-3.9467-9.9506-9h-1.0494c-2.20914 0-4-1.7909-4-4zm20.9295 10.7514 1.7268.5756c-.9966 3.2833-4.0474 5.673-7.6563 5.673-4.1271 0-7.5243-3.1252-7.9541-7.1381 1.7019-.4598 2.9541-2.0146 2.9541-3.8619v-4-2-1c0-.5523.4477-1 1-1v12c0 2.2091 1.7909 4 4 4h2c1.9523 0 3.5779-1.3987 3.9295-3.2486zm-7.9295-12.7514v12c0 1.1046.8954 2 2 2h2c1.0686 0 1.9414-.8381 1.9972-1.8928l-3.6297-1.2098c-.8166-.2723-1.3675-1.0365-1.3675-1.8974v-6c0-1.1046.8954-2 2-2s2 .8954 2 2v4.5585l1 .3333v-5.8918c0-1.1046-.8954-2-2-2zm-8 2.5858 1.2929-1.2929 1.4142 1.4142-1.2929 1.2929 1.2929 1.2929-1.4142 1.4142-1.2929-1.2929-1.29289 1.2929-1.41422-1.4142 1.2929-1.2929-1.2929-1.2929 1.41422-1.4142z" fill="#333" fill-rule="evenodd"/></svg>