<svg fill="none" height="48" viewBox="0 0 48 48" width="48" xmlns="http://www.w3.org/2000/svg"><path clip-rule="evenodd" d="m22.9672 11.5002c2.2092 0 4.0001-1.79168 4.0001-4.00181 0-2.21014-1.7909-4.00181-4.0001-4.00181-2.2091 0-4 1.79167-4 4.00181 0 2.21013 1.7909 4.00181 4 4.00181zm-2.4361 1.0056c-.0335 0-.0668.0006-.1.0017l-.0232-.0002h-1.9407c-.5699 0-1.0906.323-1.3438.8336l-3.4672 6.9922c-.264.5323-.1889 1.1702.1915 1.6267l5 6c.5303.6364 1.4762.7224 2.1126.192.6364-.5303.7224-1.4762.1921-2.1126l-4.3743-5.2491.7723-1.5574v.9226l4.3702 5.2442c.1739.2088.3081.4375.4033.677.2173-.0501.4436-.0765.6761-.0765 1.6569 0 3 1.3431 3 3 0 .8783-.3774 1.6684-.9788 2.217h.0675v11.6519c0 .8991.7356 1.6346 1.6346 1.6346s1.6345-.7355 1.6345-1.6346v-19.6277c.8991 0 3.6751-1.7112 3.6751-5.9249 0-3.1759-2.776-4.8105-3.6751-4.8105zm.4478 18.7112c-.4849-.4423-.8241-1.0415-.9374-1.7173-.7298.0117-1.4584-.2949-1.962-.8993l-.5291-.6349v14.9034c0 .8991.7355 1.6346 1.6346 1.6346.899 0 1.6345-.7355 1.6345-1.6346v-11.6519zm.041-1.9338c.1376.9704.9717 1.7168 1.9801 1.7168 1.1046 0 2-.8954 2-2s-.8954-2-2-2c-.1729 0-.3407.0219-.5007.0632-.0179.6943-.3233 1.3778-.8988 1.8573-.1806.1505-.3761.2712-.5806.3627z" fill="#333" fill-rule="evenodd"/></svg>