<svg fill="none" height="48" viewBox="0 0 48 48" width="48" xmlns="http://www.w3.org/2000/svg"><path clip-rule="evenodd" d="m20.991 3.92428c.613-.55726 1.5617-.51208 2.1189.1009.5573.61299.5121 1.56166-.1009 2.11892l-4.4037 4.0034 2.5694 2.8975h1.2799c.0363-.0013.0727-.002.1093-.002h7.8267c.899 0 3.6751 1.6346 3.6751 4.8105 0 4.2137-2.7761 5.9249-3.6751 5.9249v18.1487c0 .899-.7356 1.6345-1.6346 1.6345s-1.6345-.7355-1.6345-1.6345v-12.1729h-4.2692v12.1729c0 .899-.7356 1.6345-1.6346 1.6345s-1.6345-.7355-1.6345-1.6345v-25.8841c0-.1011.0049-.2011.0145-.2997-.0793-.0597-.153-.1276-.22-.2031l-4-4.5108c-.5448-.6144-.4943-1.55274.1133-2.10514zm7.5848 5.87057c-.9232-.42768-1.5758-1.47708-1.5758-2.70382 0-.75266.2186-1.50532.5265-2.19218-.6888-.56182-1.5683-.89872-2.5264-.89872-.2411 0-.4771.02131-.7064.06216.4007.94985.1838 2.0889-.6224 2.82176l-2.5011 2.27379c.4964 1.64466 2.0233 2.84226 3.8299 2.84226 1.5638 0 2.918-.8974 3.5757-2.20525zm.9243-.79485c.8284 0 1.5-.81403 1.5-1.81818 0-1.59091-1.5-3.18182-1.5-3.18182s-1.5 1.59091-1.5 3.18182c0 1.00415.6715 1.81818 1.5 1.81818z" fill="#333" fill-rule="evenodd"/></svg>