<svg fill="none" height="48" viewBox="0 0 48 48" width="48" xmlns="http://www.w3.org/2000/svg"><g fill="#333"><path clip-rule="evenodd" d="m10.9517 12.1025c2.086-2.49506 4.8743-4.38275 8.061-5.35919.3676-.98307 1.001-1.83624 1.8096-2.47876-5.1238.86272-9.5513 3.77633-12.40916 7.86745.15781-.0195.31824-.0295.48061-.0295zm-3.59271 7.4056c-.69919-.2989-1.29777-.7958-1.71702-1.4236-.41874 1.5679-.64197 3.2156-.64197 4.9155 0 5.8498 2.64365 11.0821 6.8014 14.5675l.6209-2.1193c-3.33577-3.1038-5.4223-7.5323-5.4223-12.4482 0-1.1969.12369-2.3649.35899-3.4919zm12.05421 19.8659-.5228 1.2391c-.0276.2245-.0746.4425-.1391.6526 1.667.4782 3.428.7343 5.2487.7343s3.5817-.2561 5.2487-.7343c-.0645-.2101-.1115-.4281-.1391-.6526l-.5228-1.2391c-1.4591.4079-2.9975.626-4.5868.626s-3.1277-.2181-4.5868-.626zm16.1645-3.9258.6209 2.1193c4.1577-3.4854 6.8014-8.7177 6.8014-14.5675 0-1.6999-.2232-3.3476-.642-4.9155-.4192.6278-1.0178 1.1247-1.717 1.4236.2353 1.127.359 2.295.359 3.4919 0 4.9159-2.0865 9.3444-5.4223 12.4482zm1.4706-23.3457h2.0579c.1624 0 .3228.01.4807.0295-2.6389-3.77764-6.6161-6.55131-11.244-7.6334.7644.68898 1.344 1.57816 1.6488 2.58739 2.7683 1.0428 5.1928 2.78721 7.0566 5.01651z" fill-rule="evenodd"/><path clip-rule="evenodd" d="m19.6568 8.71967c0-2.61507 2.1692-4.71967 4.7875-4.71967s4.7875 2.10461 4.7875 4.71967c0 1.99203-1.2586 3.68783-3.0157 4.38283h12.8901c1.5768 0 2.8938 1.2677 2.8938 2.8598 0 1.5922-1.317 2.8598-2.8938 2.8598h-9.4414l6.2035 21.1746v.1435c0 1.5921-1.3171 2.8598-2.8938 2.8598-1.2618 0-2.1967-.9476-2.8388-1.8689-.6812-.9775-1.2657-2.2596-1.7614-3.5424-.5-1.2937-.9322-2.649-1.2912-3.7968-.0404-.1291-.0796-.2547-.1177-.3768-.1954-.6261-.3616-1.1585-.5029-1.5741h-4.925c-.1413.4156-.3075.9481-.5029 1.5741-.0381.1221-.0773.2477-.1177.3768-.359 1.1478-.7912 2.5031-1.2912 3.7968-.4957 1.2828-1.0802 2.5649-1.7614 3.5424-.6421.9213-1.577 1.8689-2.8388 1.8689-1.5767 0-2.8937-1.2677-2.8937-2.8598v-.1435l6.2034-21.1746h-9.44145c-1.57673 0-2.89375-1.2676-2.89375-2.8598 0-1.5921 1.31702-2.8598 2.89375-2.8598h13.77885c-1.7571-.695-3.0158-2.3908-3.0158-4.38283zm4.7875-2.71967c-1.5479 0-2.7875 1.2431-2.7875 2.71967 0 1.47653 1.2396 2.71963 2.7875 2.71963 1.548 0 2.7875-1.2431 2.7875-2.71963 0-1.47657-1.2395-2.71967-2.7875-2.71967zm-15.55055 9.1025c-.50639 0-.89375.4062-.89375.8598 0 .4537.38736.8598.89375.8598h12.11145l-6.8651 23.4331c.0587.4051.4223.7448.8854.7448.2046 0 .6165-.1781 1.198-1.0124.5424-.7783 1.0584-1.8821 1.5367-3.1198.474-1.2267.8893-2.5266 1.2479-3.673.0413-.1321.0822-.2631.1225-.3924.2988-.9586.5688-1.8248.7904-2.3501l.2579-.6113h7.6422l.2579.6113c.2216.5253.4916 1.3915.7904 2.3501.0403.1293.0812.2603.1225.3924.3586 1.1464.7739 2.4463 1.2479 3.673.4783 1.2377.9943 2.3415 1.5367 3.1198.5815.8343.9934 1.0124 1.198 1.0124.4631 0 .8267-.3397.8854-.7448l-6.8651-23.4331h12.1114c.5064 0 .8938-.4061.8938-.8598 0-.4536-.3874-.8598-.8938-.8598z" fill-rule="evenodd"/><path d="m18 16c0 2.2091-1.7909 4-4 4s-4-1.7909-4-4 1.7909-4 4-4 4 1.7909 4 4z"/><path d="m34 24c0 2.2091-1.7909 4-4 4s-4-1.7909-4-4 1.7909-4 4-4 4 1.7909 4 4z"/><path d="m25 33c0 2.2091-1.7909 4-4 4s-4-1.7909-4-4 1.7909-4 4-4 4 1.7909 4 4z"/></g></svg>