<svg fill="none" height="48" viewBox="0 0 48 48" width="48" xmlns="http://www.w3.org/2000/svg"><g fill="#333"><path d="m16.5247 12c5.8542 0 5.3219 7.9612 5.3219 11.1456 0 4.0643 1.0048 12.2667-2.1287 15.3916-3.1932 3.1845-9.5794 4.7767-12.77254 2.123s2.12877-28.6602 9.57934-28.6602z"/><g clip-rule="evenodd" fill-rule="evenodd"><path d="m31.4753 12c-5.4389 0-5.3653 6.8716-5.3275 10.4003.0029.2695.0056.5194.0056.7453 0 .7205-.0316 1.5711-.0661 2.5004-.1601 4.3126-.3832 10.3202 2.1948 12.8912 3.1932 3.1845 9.5794 4.7767 12.7726 2.123 3.1931-2.6537-2.1288-28.6602-9.5794-28.6602zm2.5247 5c0 1.1046-.8954 2-2 2s-2-.8954-2-2 .8954-2 2-2 2 .8954 2 2zm-2 15c1.1046 0 2-.8954 2-2s-.8954-2-2-2-2 .8954-2 2 .8954 2 2 2zm7-5c0 1.1046-.8954 2-2 2s-2-.8954-2-2 .8954-2 2-2 2 .8954 2 2zm-8-1c1.6569 0 3-1.3431 3-3s-1.3431-3-3-3-3 1.3431-3 3 1.3431 3 3 3z"/><path d="m23 6.00013c0-.00009 0-.00013 1-.00013s1 .00004 1 .00013v14.49987c0 2.1023-.936 3.3079-1.9962 3.9263-.4974.2901-.986.431-1.3442.5006-.1811.0352-.3347.0534-.4477.0628-.0567.0047-.1037.0073-.1394.0087-.0179.0007-.033.0011-.0451.0013l-.016.0002-.0063.0001h-.0027-.0013c-.0006 0-.0011 0-.0011-1s-.0006-1-.0012-1h-.001-.0019-.003l-.0032.0001s.0016-.0001.0051-.0002c.0082-.0003.0257-.0012.051-.0033.0511-.0042.1318-.0134.232-.0329.2043-.0397.4657-.1176.7183-.265.4398-.2566 1.0039-.801 1.0039-2.1987z"/><path d="m25 6.00013c0-.00009 0-.00013-1-.00013s-1 .00004-1 .00013v14.49987c0 2.1023.936 3.3079 1.9962 3.9263.4974.2901.986.431 1.3442.5006.1811.0352.3347.0534.4477.0628.0567.0047.1037.0073.1394.0087.0179.0007.033.0011.0451.0013l.016.0002.0063.0001h.0027.0013c.0006 0 .0011 0 .0011-1s.0006-1 .0012-1h.001.0019.003l.0032.0001s-.0016-.0001-.0051-.0002c-.0082-.0003-.0257-.0012-.051-.0033-.0511-.0042-.1318-.0134-.232-.0329-.2043-.0397-.4657-.1176-.7183-.265-.4398-.2566-1.0039-.801-1.0039-2.1987z"/></g></g></svg>