<svg fill="none" height="48" viewBox="0 0 48 48" width="48" xmlns="http://www.w3.org/2000/svg"><g fill="#333"><path d="m21.6482 8c-1.798 0-3.2691 1.47112-3.2691 3.2691 0 1.7981 1.4711 3.2692 3.2691 3.2692s3.2692-1.4711 3.2692-3.2692c0-1.79798-1.4712-3.2691-3.2692-3.2691z"/><g clip-rule="evenodd" fill-rule="evenodd"><path d="m21.7754 25.5479-1.1899-.776 1.1955-1.8786 1.2075.7547c.551.3444.6975 1.0821.3198 1.6109-.351.4915-1.027.6189-1.5329.289zm-3.8084-7.3969 3.1917 1.9948 2.6383-4.1458h-7.0524v.0002h-.003c-1.4034-.0001-2.6773.8201-3.258 2.0977l-.1246.2742c-.8178 1.7992-.199 3.926 1.4564 5.0056l1.9292 1.2581v14.4221c0 .899.7355 1.6345 1.6345 1.6345s1.6346-.7355 1.6346-1.6345v-8.1729h3.2691v8.1729c0 .899.7356 1.6345 1.6346 1.6345s1.6346-.7355 1.6346-1.6345v-12.1487-5.4092l3.4546 4.1788c.7894.9549 2.2041 1.0873 3.1569.2953.9709-.807 1.083-2.2567.2477-3.2033l-5.3771-6.094c-.3796-.4303-.9258-.6768-1.4996-.6768h-.3669l-3.3129 5.2059 1.1938.7461c1.5288.9555 1.9351 3.0023.8873 4.4693-.9739 1.3636-2.8494 1.7172-4.2529.8018l-3.7921-2.473c-.4626-.3017-.5931-.9213-.2914-1.3839s.9213-.593 1.3839-.2913l.9268.6044 1.1748-1.8461-3.1779-1.9862c-.4683-.2927-.6107-.9097-.318-1.378s.9097-.6107 1.378-.318z"/><path d="m28.937 30c0-1.6569 1.3432-3 3-3 1.6569 0 3 1.3431 3 3v11c0 .5523-.4477 1-1 1s-1-.4477-1-1v-11c0-.5523-.4477-1-1-1s-1 .4477-1 1v.5c0 .5523-.4477 1-1 1s-1-.4477-1-1z"/></g></g></svg>