<svg fill="none" height="48" viewBox="0 0 48 48" width="48" xmlns="http://www.w3.org/2000/svg"><g fill="#333"><path d="m31.7112 8c-1.798 0-3.2692 1.47112-3.2692 3.2691 0 1.7981 1.4712 3.2692 3.2692 3.2692s3.2691-1.4711 3.2691-3.2692c0-1.79798-1.4711-3.2691-3.2691-3.2691z"/><path d="m18.6346 19.443h8.1729v19.6149c0 .899.7356 1.6345 1.6346 1.6345s1.6346-.7355 1.6346-1.6345v-8.1729h3.2691v8.1729c0 .899.7356 1.6345 1.6346 1.6345s1.6346-.7355 1.6346-1.6345v-19.6149 7.4662c.899 0 3.675-1.7112 3.675-5.9249 0-3.1759-2.776-4.8105-3.675-4.8105h-17.9804c-.899 0-1.6345.7356-1.6345 1.6346s.7355 1.6346 1.6345 1.6346z"/><g clip-rule="evenodd" fill-rule="evenodd"><path d="m8 32c0-1.1046.89543-2 2-2h11c1.1046 0 2 .8954 2 2v6c0 1.1046-.8954 2-2 2h-11c-1.10457 0-2-.8954-2-2zm4 0c.5523 0 1 .4477 1 1v4c0 .5523-.4477 1-1 1s-1-.4477-1-1v-4c0-.5523.4477-1 1-1zm8 1c0-.5523-.4477-1-1-1s-1 .4477-1 1v4c0 .5523.4477 1 1 1s1-.4477 1-1z"/><path d="m12 28c0-1.1046.8954-2 2-2h3c1.1046 0 2 .8954 2 2v2.5h-2v-2.5h-3v2.5h-2z"/></g></g></svg>