<svg fill="none" height="48" viewBox="0 0 48 48" width="48" xmlns="http://www.w3.org/2000/svg"><g fill="#333"><path clip-rule="evenodd" d="m15.0549 39h7.9451v-7.9451c-4.1716.4612-7.4839 3.7735-7.9451 7.9451zm9.9451-7.9451v7.9451h7.9451c-.4612-4.1716-3.7735-7.4839-7.9451-7.9451zm7.9452 9.9451c-.1397 1.2647-.5411 2.4491-1.1486 3.4993l1.7312 1.0014c.9365-1.6189 1.4722-3.4988 1.4722-5.5007 0-6.0751-4.9249-11-11-11s-11 4.9249-11 11c0 2.0019.5357 3.8818 1.4722 5.5007l1.7312-1.0014c-.6075-1.0502-1.0089-2.2346-1.1486-3.4993z" fill-rule="evenodd"/><path d="m27 40c0 1.6569-1.3431 3-3 3s-3-1.3431-3-3 1.3431-3 3-3 3 1.3431 3 3z"/><path d="m31.5845 36.8449c-.2859-1.0669.3473-2.1636 1.4142-2.4495l1.9319-.5176c1.0669-.2859 2.1636.3473 2.4495 1.4142l1.0353 3.8637c.2858 1.067-.3473 2.1636-1.4142 2.4495l-1.9319.5177c-1.0669.2858-2.1636-.3473-2.4495-1.4143z"/><path d="m10.6198 35.2912c.2859-1.0669 1.3826-1.7001 2.4495-1.4142l1.9319.5177c1.0669.2858 1.7001 1.3825 1.4142 2.4494l-1.0353 3.8637c-.2859 1.067-1.3826 1.7001-2.4495 1.4143l-1.9318-.5177c-1.06698-.2859-1.70015-1.3825-1.41426-2.4495z"/><g clip-rule="evenodd" fill-rule="evenodd"><path d="m15 17v-3h2v3c0 3.866 3.134 7 7 7s7-3.134 7-7v-3h2v3c0 4.9706-4.0294 9-9 9s-9-4.0294-9-9z"/><path d="m13.7943 11h20.4551c.0719-.1835.1495-.3998.2268-.6474l.0121-.0387c.2697-.86329.5117-1.63794.5117-3.21713 0-.8008-.5203-1.47511-1.209-2.00829-.6978-.54019-1.6508-1.00269-2.7123-1.37968-2.1258-.75497-4.8068-1.2088-7.0787-1.2088s-4.9529.45383-7.0787 1.2088c-1.0615.37699-2.0145.83949-2.7123 1.37968-.6887.53318-1.209 1.20749-1.209 2.00829 0 1.46606.2452 2.23872.4971 3.03273.0235.074.047.1481.0704.223.0773.2476.1549.4639.2268.6475zm6.2057-3c0-.55228.4477-1 1-1h6c.5523 0 1 .44772 1 1s-.4477 1-1 1h-6c-.5523 0-1-.44772-1-1z"/><path d="m14.0214 13.4106c.0454-.2378.2631-.4106.5172-.4106h18.9228c.2541 0 .4718.1728.5172.4106l.0002.0012.0003.0012.0005.0029.0012.0068.0029.0182c.0021.0141.0045.0322.0068.0539.0046.0435.0088.1019.0094.173.0012.1423-.0119.337-.0658.5663-.109.4635-.3808 1.0527-1.0033 1.6253-1.2341 1.1352-3.7696 2.1406-8.9308 2.1406s-7.6967-1.0054-8.9308-2.1406c-.6225-.5726-.8943-1.1618-1.0033-1.6253-.0539-.2293-.067-.424-.0658-.5663.0006-.0711.0048-.1295.0094-.173.0023-.0217.0047-.0398.0068-.0539l.0029-.0182.0012-.0068.0005-.0029.0003-.0012z"/></g></g></svg>