<svg fill="none" height="48" viewBox="0 0 48 48" width="48" xmlns="http://www.w3.org/2000/svg"><g fill="#333"><path clip-rule="evenodd" d="m30.6144 17.4675c.5362-.1164 1.066.2209 1.1874.756.1298.5723.1982 1.167.1982 1.7765 0 4.4183-3.5818 8-8 8-4.4183 0-8-3.5817-8-8 0-.5745.0607-1.1359.1764-1.6778.1139-.5334.6342-.8771 1.1696-.7726 1.4013.2736 3.4516.4504 6.3814.4504 3.2101 0 5.4117-.2123 6.887-.5325zm-.6265 2.1482c-1.5707.2445-3.6176.3843-6.2605.3843-2.3815 0-4.2569-.1135-5.7193-.3153-.0054.1044-.0081.2095-.0081.3153 0 3.3137 2.6863 6 6 6s6-2.6863 6-6c0-.1292-.0041-.2573-.0121-.3843z" fill-rule="evenodd"/><path clip-rule="evenodd" d="m23 36.5v-4.5h2v4.5z" fill-rule="evenodd"/><path clip-rule="evenodd" d="m32.6933 38.6706-6.4345 1.7242-.5177-1.9319 6.4346-1.7241z" fill-rule="evenodd"/><path clip-rule="evenodd" d="m21.7411 40.3948-6.4345-1.7242.5177-1.9318 6.4345 1.7241z" fill-rule="evenodd"/><path d="m32.5776 36.4856c-.2859-1.067.3473-2.1636 1.4142-2.4495l1.9319-.5177c1.0669-.2858 2.1636.3473 2.4495 1.4142l.7764 2.8978c.2859 1.067-.3473 2.1636-1.4142 2.4495l-1.9319.5177c-1.0669.2858-2.1636-.3473-2.4494-1.4143z"/><path clip-rule="evenodd" d="m32.0946 36.615c-.3573-1.3337.4341-2.7045 1.7678-3.0619l1.9319-.5176c1.3336-.3574 2.7045.4341 3.0618 1.7677l.7765 2.8978c.3573 1.3337-.4341 2.7045-1.7678 3.0619l-1.9318.5176c-1.3337.3574-2.7046-.4341-3.0619-1.7678zm2.0266-2.096c-.8002.2144-1.2751 1.037-1.0606 1.8372l.7764 2.8977c.2144.8002 1.0369 1.2751 1.8371 1.0607l1.9319-.5176c.8002-.2145 1.2751-1.037 1.0606-1.8372l-.7764-2.8977c-.2144-.8002-1.0369-1.2751-1.8371-1.0607z" fill-rule="evenodd"/><path d="m9.62233 34.9319c.28588-1.067 1.38257-1.7001 2.44947-1.4143l1.9319.5177c1.0669.2859 1.7001 1.3825 1.4142 2.4495l-.7765 2.8977c-.2859 1.067-1.3825 1.7001-2.4495 1.4143l-1.9318-.5177c-1.06695-.2859-1.70011-1.3825-1.41423-2.4495z"/><g clip-rule="evenodd" fill-rule="evenodd"><path d="m9.13936 34.8024c.35736-1.3336 1.72824-2.1251 3.06184-1.7677l1.9319.5176c1.3336.3574 2.1251 1.7282 1.7677 3.0619l-.7764 2.8978c-.3574 1.3336-1.7282 2.1251-3.0619 1.7677l-1.9318-.5176c-1.33369-.3574-2.12515-1.7282-1.76779-3.0619zm2.80304-.8018c-.8002-.2144-1.6227.2605-1.8371 1.0607l-.77647 2.8977c-.21441.8002.26046 1.6227 1.06067 1.8372l1.9318.5176c.8002.2144 1.6227-.2605 1.8372-1.0607l.7764-2.8977c.2144-.8002-.2604-1.6227-1.0606-1.8372z"/><path d="m24 40c.5522 0 1-.4477 1-1s-.4478-1-1-1c-.5523 0-1 .4477-1 1s.4477 1 1 1zm0 2c1.6568 0 3-1.3431 3-3s-1.3432-3-3-3c-1.6569 0-3 1.3431-3 3s1.3431 3 3 3z"/><path d="m24 32c-4.4183 0-8 3.5817-8 8v1c0 .5523-.4478 1-1 1-.5523 0-1-.4477-1-1v-1c0-5.5228 4.4771-10 10-10 5.5228 0 10 4.4772 10 10v1c0 .5523-.4478 1-1 1-.5523 0-1-.4477-1-1v-1c0-4.4183-3.5818-8-8-8z"/><path d="m15 9.5c0-.4375 4.5159-3.5 9-3.5 4.484 0 9 3.0625 9 3.5 0 1.56-.1657 2.4838-.3063 2.9869-.0923.3301-.4015.5131-.7443.5131h-15.8988c-.3428 0-.6521-.1831-.7443-.5132-.1407-.5032-.3063-1.427-.3063-2.9868zm7.5-.5c-.5523 0-1 .44772-1 1 0 .5523.4477 1 1 1h3c.5522 0 1-.4477 1-1 0-.55228-.4478-1-1-1z"/><path d="m14.8187 15c-1.8605 1.9747-2.7983 4.9999 8.9224 4.9999s11.2648-3.0252 9.7188-4.9999z"/></g></g></svg>