<svg fill="none" height="48" viewBox="0 0 48 48" width="48" xmlns="http://www.w3.org/2000/svg"><g fill="#333"><path d="m27.5551 18.4573 2.599 7.9808c.3242.9105 1.3251 1.3858 2.2356 1.0615.9105-.3242 1.3858-1.3252 1.0615-2.2356l-3.3604-9.4366c-.3902-1.0957-1.4276-1.8274-2.5907-1.8274h-7.1165c-1.1792 0-2.2272.7518-2.605 1.8688l-3.1858 9.4175c-.3097.9156-.3186 1.9088.5969 2.2185.9156.3097 2.4089-.1814 2.7186-1.0969l2.5918-7.9506 1.4999 7.5427-2.4999 3v13.3515c0 .9063.7559 1.6478 1.6797 1.6478.9239 0 1.6797-.7415 1.6797-1.6478v-11.7463h2.2812v11.7463c0 .9063.6553 1.6478 1.5792 1.6478.9238 0 1.7802-.7415 1.7802-1.6478v-13.3515l-2.5001-3z"/><path d="m28.0003 8.00181c0 2.21009-1.7909 4.00179-4.0001 4.00179s-4.0001-1.7917-4.0001-4.00179c0-2.21014 1.7909-4.00181 4.0001-4.00181s4.0001 1.79167 4.0001 4.00181z"/></g></svg>