<svg fill="none" height="48" viewBox="0 0 48 48" width="48" xmlns="http://www.w3.org/2000/svg"><g fill="#333"><path clip-rule="evenodd" d="m24.842 13.3755c.4224.7299 1.0532 1.3185 1.8122 1.6912.5009.248 1.046.3954 1.6042.4338.5581.0384 1.1184-.0331 1.6488-.2103s1.0206-.4566 1.4424-.8224c.4219-.3657.7672-.8106 1.0162-1.3091.3793-.753.5254-1.6011.4197-2.4368-.1057-.83566-.4583-1.62131-1.0132-2.2573s-1.2871-1.09369-2.1038-1.31507c-.8166-.22138-1.6809-.19647-2.4833.07158s-1.5067.76715-2.0237 1.43404-.8234 1.47155-.8803 2.31185c-.0568.8404.1383 1.6787.5608 2.4085zm-16.98738 3.465c-.62154.7017-1.13571 1.4946-1.5248 2.3513-.28082.6989-.29225 1.4772-.03199 2.1774.26027.7003.77282 1.2703 1.43412 1.5951l10.74445 5.4029-1.411 9.8189c-.0924.7089.0908 1.423.5103 1.9893.4196.5664 1.0421.9398 1.7343 1.0405.3331.0317.67-.0055.9904-.1095s.6177-.2725.8742-.4955c.2564-.2231.4667-.496.6183-.8025.1515-.3065.2413-.6403.2637-.9813l1.4819-11.1946c.1624-.549.158-1.1332-.0127-1.6753-.1706-.5421-.4995-1.0164-.943-1.3602l-6.5127-4.6571c1.0754-1.0111 2.0912-2.0862 3.042-3.2196l-.0933 1.8295c-.0193.3389.0467.6761.1917.9796.145.3034.3643.5631.6369.7541l6.5551 4.6675c.1953.1377.414.238.6454.2959.4448.1073.9144.0522 1.3276-.1557.4131-.2079.7437-.5556.9347-.9829s.2303-.9073.111-1.357c-.1192-.4497-.3895-.8408-.7639-1.1056l-5.6742-3.9924s.2194-5.6624.2194-6.6359c0-.8606-.0845-.9646-.2932-1.22121-.0274-.03364-.0569-.06991-.0886-.11085-.2647-.34164-.6337-.58321-1.0498-.68722-1.539-.56209-3.2403-.48429-4.7393.21673-4.0825 1.49515-9.17698 7.62565-9.17698 7.62565z" fill-rule="evenodd"/><path d="m42 38.5c0 1.3807-3.5817 2.5-8 2.5s-8-1.1193-8-2.5 3.5817-2.5 8-2.5 8 1.1193 8 2.5z"/><path d="m31.738 18.7932c0 .5817-.474 1.0534-1.0586 1.0534s-1.0586-.4717-1.0586-1.0534c0-.5818.474-1.0535 1.0586-1.0535s1.0586.4717 1.0586 1.0535z"/><path d="m33.8551 25.6403c0 .8727-.7109 1.5801-1.5878 1.5801-.877 0-1.5879-.7074-1.5879-1.5801s.7109-1.5801 1.5879-1.5801c.8769 0 1.5878.7074 1.5878 1.5801z"/><path d="m37.0308 28.2737c0 .5818-.4739 1.0534-1.0585 1.0534-.5847 0-1.0586-.4716-1.0586-1.0534 0-.5817.4739-1.0534 1.0586-1.0534.5846 0 1.0585.4717 1.0585 1.0534z"/><path d="m32.7966 32.4874c0 .5817-.474 1.0534-1.0586 1.0534s-1.0586-.4717-1.0586-1.0534c0-.5818.474-1.0534 1.0586-1.0534s1.0586.4716 1.0586 1.0534z"/><path d="m39.1479 35.1743c0 .8727-.7109 1.5802-1.5879 1.5802-.8769 0-1.5878-.7075-1.5878-1.5802 0-.8726.7109-1.5801 1.5878-1.5801.877 0 1.5879.7075 1.5879 1.5801z"/></g></svg>