<svg fill="none" height="48" viewBox="0 0 48 48" width="48" xmlns="http://www.w3.org/2000/svg"><g fill="#333"><path d="m42 39.5c0 1.3807-3.3579 2.5-7.5 2.5s-7.5-1.1193-7.5-2.5 3.3579-2.5 7.5-2.5 7.5 1.1193 7.5 2.5z"/><path d="m31.1171 19.0534c0 .5818-.4739 1.0534-1.0585 1.0534-.5847 0-1.0586-.4716-1.0586-1.0534s.4739-1.0534 1.0586-1.0534c.5846 0 1.0585.4716 1.0585 1.0534z"/><path d="m33.1757 25.5801c0 .8727-.7109 1.5801-1.5878 1.5801-.877 0-1.5879-.7074-1.5879-1.5801s.7109-1.5801 1.5879-1.5801c.8769 0 1.5878.7074 1.5878 1.5801z"/><path d="m37.1171 29.0534c0 .5818-.4739 1.0534-1.0585 1.0534-.5847 0-1.0586-.4716-1.0586-1.0534s.4739-1.0534 1.0586-1.0534c.5846 0 1.0585.4716 1.0585 1.0534z"/><path d="m32.1171 32.0534c0 .5818-.4739 1.0534-1.0585 1.0534-.5847 0-1.0586-.4716-1.0586-1.0534s.4739-1.0534 1.0586-1.0534c.5846 0 1.0585.4716 1.0585 1.0534z"/><path d="m38.1757 36.5801c0 .8727-.7109 1.5801-1.5878 1.5801-.877 0-1.5879-.7074-1.5879-1.5801s.7109-1.5801 1.5879-1.5801c.8769 0 1.5878.7074 1.5878 1.5801z"/><path d="m18.1526 40.5594c-.5601 2.3012-4.1497 1.6709-4.0043-.6566.1455-2.3274.9828-8.7317.9828-8.7317l-5.30584-3.3693s-4.87672-2.9265-3.61752-6.9575c.63356-2.0282 6.07206-8.8946 9.64856-10.0535 3.5765-1.15893 4.0509-1.08844 5.8247.5068 1.7737 1.5953.1861 10.347.1861 10.347s3.3325 3.9678 4.4759 5.6579c1.1433 1.6901-1.4351 3.0891-2.3996 2.312s-6.0073-5.3565-6.4258-6.3222c-.4184-.9656-.124-3.9008-.124-3.9008l-3.0772 3.4958s4.9537 4.4509 5.9087 5.1585.6746 1.5301.6746 1.5301-2.187 8.6824-2.7471 10.9835z"/><path d="m29.4065 9.70643c0 2.04697-1.6446 3.70647-3.6733 3.70647-2.0288 0-3.6734-1.6595-3.6734-3.70647 0-2.04701 1.6446-3.70643 3.6734-3.70643 2.0287 0 3.6733 1.65942 3.6733 3.70643z"/></g></svg>