<svg fill="none" height="48" viewBox="0 0 48 48" width="48" xmlns="http://www.w3.org/2000/svg"><g fill="#333"><path d="m6 30.0007c0-.5522.44772-1 1-1h3c.5523 0 1 .4477 1 1v10.9954c0 .5523-.4477 1-1 1h-3c-.55228 0-1-.4477-1-1z"/><path d="m20.9148 29.1888s-2.2777-.4248-3.2096 0c-.6939.3163-3.3793 1.2805-4.7052 1.7522v8.8605c.7674-.0449 2.2933-.1256 2.9451-.0993 3.7559.1513 5.6732 1.7337 9.4217 2.0177 2.0968.1589 3.9343.531 5.3838 0s9.7323-4.5664 10.7676-5.6284c1.0354-1.0619.5177-3.9292-2.6919-3.3982-3.2095.5309-7.4545 3.0797-9.2146 2.9735-1.76-.1062-6.4191-.9558-6.4191-.9558l5.3494.0647s.7557.0402 1.7945-.7019c1.0388-.742 1.9672-2.8673.4141-2.8673-1.553 0-3.2096-.531-3.2096-.531z"/><path d="m26 20.4286c0 2-1.54 3.5714-3.5 3.5714s-3.5-1.5714-3.5-3.5714 3.5-6.4286 3.5-6.4286 3.5 4.5714 3.5 6.4286z"/><path d="m41 16.1322c0 2.7043-2.2222 4.8678-5 4.8678s-5-2.1635-5-4.8678 5-10.1322 5-10.1322 5 7.4279 5 10.1322z"/></g></svg>