<svg fill="none" height="48" viewBox="0 0 48 48" width="48" xmlns="http://www.w3.org/2000/svg"><g fill="#333"><path d="m42 6h-18c-1.1046 0-2 .89543-2 2v4h20z"/><path d="m17.7052 29.1888c.9319-.4248 3.2096 0 3.2096 0l6.6262 1.4867s1.6566.531 3.2096.531c1.5531 0 .6247 2.1253-.4141 2.8673-1.0388.7421-1.7945.7019-1.7945.7019l-5.3494-.0647s4.6591.8496 6.4191.9558c.8917.0538 2.4209-.5737 4.1302-1.2751 1.665-.6832 3.5007-1.4364 5.0844-1.6984 3.2096-.531 3.7273 2.3363 2.6919 3.3982-1.0353 1.062-9.3181 5.0974-10.7676 5.6284-1.1351.4159-2.5082.2778-4.0575.1221-.429-.0431-.8716-.0876-1.3263-.1221-1.8093-.1371-3.1919-.5766-4.5606-1.0118-1.4671-.4663-2.918-.9276-4.8611-1.0059-.6518-.0263-2.1777.0544-2.9451.0993v-8.8605c1.3259-.4717 4.0113-1.4359 4.7052-1.7522z"/><path d="m7 29.0007c-.55228 0-1 .4477-1 1v10.9954c0 .5523.44772 1 1 1h3c.5523 0 1-.4477 1-1v-10.9954c0-.5523-.4477-1-1-1z"/><path d="m23 14c-.5523 0-1 .4477-1 1s.4477 1 1 1h6c.5523 0 1-.4477 1-1s-.4477-1-1-1z"/><path d="m26 18.1719c.5523 0 1 .4477 1 1v2c0 .5523-.4477 1-1 1s-1-.4477-1-1v-2c0-.5523.4477-1 1-1z"/><path d="m30.1213 18.2929c-.3905-.3905-1.0237-.3905-1.4142 0s-.3905 1.0237 0 1.4142l1.4142 1.4142c.3905.3906 1.0237.3906 1.4142 0 .3905-.3905.3905-1.0236 0-1.4142z"/><path d="m20.2929 21.2929c-.3905-.3905-.3905-1.0237 0-1.4142l1.4142-1.4142c.3906-.3905 1.0237-.3905 1.4142 0 .3906.3905.3906 1.0237 0 1.4142l-1.4142 1.4142c-.3905.3905-1.0237.3905-1.4142 0z"/><path d="m27 24.1719c0-.5523-.4477-1-1-1s-1 .4477-1 1v2c0 .5523.4477 1 1 1s1-.4477 1-1z"/><path d="m32.2071 21.7929c.3905-.3905 1.0237-.3905 1.4142 0l1.4142 1.4142c.3905.3906.3905 1.0237 0 1.4142-.3905.3906-1.0237.3906-1.4142 0l-1.4142-1.4142c-.3905-.3905-.3905-1.0237 0-1.4142z"/><path d="m16.7929 23.1287c-.3905.3905-.3905 1.0237 0 1.4142s1.0237.3905 1.4142 0l1.4142-1.4142c.3906-.3905.3906-1.0237 0-1.4142-.3905-.3905-1.0236-.3905-1.4142 0z"/></g></svg>