<svg fill="none" height="48" viewBox="0 0 48 48" width="48" xmlns="http://www.w3.org/2000/svg"><g fill="#333"><path clip-rule="evenodd" d="m23.9918 26h.0082.012.02c5.5228 0 10-4.4772 10-10s-4.4772-10-10-10l-.02.00002-.012-.00002c-.016 0-.032.0001-.048.00031-5.486.04297-9.92 4.50349-9.92 9.99969s4.434 9.9567 9.92 9.9997zm7.9783-9h-1.9997c-.0411.6897-.1242 1.3588-.2451 2h1.7252c.2553-.6307.4325-1.3014.5196-2zm-1.6927 4h-1.0801c-.205.5907-.4452 1.1432-.7159 1.6495.6796-.4556 1.2855-1.0127 1.796-1.6495zm-2.5928-2c.1373-.627.2342-1.2967.2818-2h-2.9344v2zm-2.6526 2h2.0231c-.1608.3774-.3378.7259-.5274 1.0421-.4989.8314-1.0172 1.3447-1.4957 1.636zm-2-2v-2h-2.9984c.0476.7033.1445 1.373.2818 2zm-2.0871 2h2.0871v2.7159c-.4961-.2838-1.0385-.8052-1.5597-1.6738-.1896-.3162-.3666-.6647-.5274-1.0421zm-2.6702-2c-.1209-.6412-.204-1.3103-.2451-2h-1.9357c.0871.6986.2643 1.3693.5196 2zm-.4881 2h1.0161c.1958.5643.4238 1.0937.6798 1.5813-.6391-.4426-1.2106-.9759-1.6959-1.5813zm12.1838-6c-.0411-.6897-.1242-1.3588-.2451-2h1.7252c.2553.6307.4325 1.3014.5196 2zm.307-4h-1.0801c-.205-.5907-.4452-1.14319-.7159-1.64951.6796.45564 1.2855 1.01271 1.796 1.64951zm-5.2454 0h2.0231c-.1608-.3774-.3378-.7259-.5274-1.04208-.4989-.83142-1.0172-1.34476-1.4957-1.63603zm2.6526 2h-2.6526v2h2.9344c-.0476-.7033-.1445-1.373-.2818-2zm-4.6526-4.71587v2.71587h-2.0871c.1608-.3774.3378-.7259.5274-1.04208.5212-.8686 1.0636-1.39004 1.5597-1.67379zm0 4.71587h-2.7166c-.1373.627-.2342 1.2967-.2818 2h2.9984zm-3.5495-3.5813c-.256.48761-.484 1.017-.6798 1.5813h-1.0161c.4853-.6054 1.0568-1.13868 1.6959-1.5813zm-1.2078 3.5813h-1.6612c-.2553.6307-.4325 1.3014-.5196 2h1.9357c.0411-.6897.1242-1.3588.2451-2z" fill-rule="evenodd"/><path d="m10.1087 32.6212c.5675.6019 1.1307 1.1992 1.6603 1.9599v1.4189h7.4332v-1.4189c-.1335-1.104-.3674-3.0935-.3878-3.6464-.0286-.7778-1.0727-2.1954-1.0727-2.1954l-3.2046-4.0411s-.9072-.9576-1.4263-2.0199-1.6238.2752-1.7706 1.231c-.1468.9559.1325 1.4595.1325 1.4595l1.8311 3.6378s-2.1229-2.9061-2.7819-4.075c-.3338-.5921-.4272-1.8455-.53155-3.2466-.10166-1.3646-.21374-2.8693-.56865-4.0392-.71927-2.371-2.80127-1.7773-3.16224-.7181-.36096 1.0592-.27922 8.0587-.14826 9.2257.10256.9139.65341 1.8076 1.27491 2.8158.17204.2791.34973.5674.52458.8669.69601 1.1922 1.45082 1.9927 2.19801 2.7851z"/><path d="m36.2332 34.5811c.5296-.7607 1.0928-1.358 1.6603-1.9599.7472-.7924 1.502-1.5929 2.198-2.7851.1748-.2995.3522-.5873.5242-.8663.6215-1.0082 1.1727-1.9025 1.2753-2.8164.131-1.167.2127-8.1665-.1483-9.2257-.3609-1.0592-2.4429-1.6529-3.1622.7181-.3549 1.1699-.467 2.6746-.5687 4.0392-.1043 1.4011-.1977 2.6545-.5315 3.2466-.659 1.1689-2.7819 4.075-2.7819 4.075l1.8311-3.6378s.2793-.5036.1325-1.4595c-.1468-.9558-1.2515-2.2933-1.7706-1.231s-1.4263 2.0199-1.4263 2.0199l-3.2046 4.0411s-1.0441 1.4176-1.0727 2.1954c-.0204.5529-.2543 2.5424-.3878 3.6464v1.4189h7.4332z"/><path d="m26 41c0 .5523.4477 1 1 1h8c.5523 0 1-.4477 1-1v-2c0-.5523-.4477-1-1-1h-8c-.5523 0-1 .4477-1 1z"/><path d="m22.0022 41c0 .5523-.4477 1-1 1h-8c-.5523 0-1-.4477-1-1v-2c0-.5523.4477-1 1-1h8c.5523 0 1 .4477 1 1z"/></g></svg>