<svg fill="none" height="48" viewBox="0 0 48 48" width="48" xmlns="http://www.w3.org/2000/svg"><g fill="#333"><path clip-rule="evenodd" d="m16.3766 24.9932 2.6235-6.6034v5.6102h-.0001l-3.4515 8.6286c-.2627.6569.221 1.3714.9285 1.3714h2.6208v7.2555c0 .9596.7559 1.7447 1.6797 1.7447s1.6797-.7851 1.6797-1.7447v-7.2555h3.0829v7.2555c0 .9596.7559 1.7447 1.6797 1.7447.9239 0 1.6797-.7851 1.6797-1.7447v-7.2555h2.6234c.7075 0 1.1913-.7145.9285-1.3714l-3.4513-8.6283v-5.3364l2.6402 6.1294c.3823.8877 1.4119 1.2973 2.2995.915.8877-.3824 1.2973-1.4119.915-2.2996l-3.3368-7.7466c-.4345-1.0087-1.4274-1.6621-2.5257-1.6621h-6.0212-2.5691-1.5574c-1.1268 0-2.1396.6874-2.5557 1.7346l-3.165 7.9663c-.3569.8983.082 1.9157.9802 2.2725.8982.3569 1.9156-.082 2.2725-.9802z" fill-rule="evenodd"/><path d="m28.0002 8.00181c0 2.21009-1.7909 4.00179-4.0001 4.00179s-4.0001-1.7917-4.0001-4.00179c0-2.21014 1.7909-4.00181 4.0001-4.00181s4.0001 1.79167 4.0001 4.00181z"/></g></svg>