<svg fill="none" height="48" viewBox="0 0 48 48" width="48" xmlns="http://www.w3.org/2000/svg"><g clip-rule="evenodd" fill="#333" fill-rule="evenodd"><path d="m37.5 6.40545c0-.29765-.3406-.49366-.6356-.36555l-3.3644 1.46006-3.3644-1.46006c-.295-.12811-.6356.0679-.6356.36555v2.18902c0 .29779.3406.49366.6356.36569l3.3644-1.4602 3.3644 1.4602c.295.12797.6356-.0679.6356-.36569zm.0001 6.59455c0 1.2256-.5512 2.3224-1.4193 3.0562 1.3789.2705 2.4193 1.4856 2.4193 2.9438v1.0988l3.1512 3.9391c.0786.0939.1443.1959.1967.3033.199.4062.2002.8768.0184 1.2786-.0487.1076-.1106.2103-.1853.3055l-2.981 3.9747c-.1846.246-.4302.4193-.7.5144v.0143l1.9999 4.5713h-1.9999v6c0 .8284-.6716 1.5-1.5 1.5s-1.5-.6716-1.5-1.5v-6h-3v6c0 .8284-.6716 1.5-1.5 1.5s-1.5-.6716-1.5-1.5v-6h-2.0001l2.0001-4.5715v-.0141c-.2699-.0951-.5155-.2683-.7-.5144l-2.9808-3.9744c-.0756-.0962-.1381-.2002-.1871-.3092-.1808-.4021-.1785-.8727.0216-1.2785.052-.1061.1171-.2068.1947-.2996l3.1516-3.9395v-1.0988c0-1.4582 1.0403-2.6733 2.4192-2.9438-.8681-.7338-1.4192-1.8306-1.4192-3.0562 0-2.2091 1.7908-4 4-4 2.2091 0 4 1.7909 4 4zm-.5176 14.1901 1.6203-2.1605-.6027-.7534v1.1886l-1.0547-.7031c-.2782-.1855-.4453-.4977-.4453-.8321v-5.9296h-1v-1.5351c-.5884.3403-1.2715.5351-2 .5351-.7286 0-1.4117-.1948-2-.5351v1.5351h-1v5.9296c0 .3344-.1671.6466-.4453.8321l-1.0547.7031v-1.1887l-.6028.7535 1.6204 2.1605 1.1465-.7643c.8346-.5564 1.3359-1.4931 1.3359-2.4962v-5.9296h2v.5 5.4296c0 1.0031.5013 1.9398 1.3359 2.4962z"/><path d="m18.5001 13c0 1.2256-.5512 2.3224-1.4193 3.0562 1.3789.2705 2.4193 1.4856 2.4193 2.9438v1.0988l3.1512 3.9391c.0786.0939.1443.1959.1967.3033.199.4062.2002.8768.0184 1.2786-.0487.1076-.1106.2103-.1853.3055l-2.981 3.9747c-.1846.246-.4302.4193-.7.5144v10.5856c0 .8284-.6716 1.5-1.5 1.5s-1.5-.6716-1.5-1.5v-8h-3v8c0 .8284-.6716 1.5-1.5 1.5s-1.5-.6716-1.5-1.5v-10.5856c-.26986-.0951-.51549-.2683-.70004-.5144l-2.98077-3.9744c-.07561-.0962-.13807-.2002-.18708-.3092-.18081-.4021-.17856-.8727.02154-1.2785.05206-.1061.11711-.2068.19476-.2996l3.15155-3.9395v-1.0988c0-1.4582 1.04034-2.6733 2.41924-2.9438-.8681-.7338-1.4192-1.8306-1.4192-3.0562 0-2.2091 1.7908-4 4-4 2.2091 0 4 1.7909 4 4zm-.5176 14.1901 1.6203-2.1605-.6027-.7534v1.1886l-1.0547-.7031c-.2782-.1855-.4453-.4977-.4453-.8321v-5.9296h-1v-1.5351c-.5884.3403-1.2715.5351-2 .5351-.7286 0-1.4117-.1948-2-.5351v1.5351h-1v5.9296c0 .3344-.1671.6466-.4453.8321l-1.0547.7031v-1.1887l-.60281.7535 1.62041 2.1605 1.1465-.7643c.8346-.5564 1.3359-1.4931 1.3359-2.4962v-5.9296h2v.5 5.4296c0 1.0031.5013 1.9398 1.3359 2.4962z"/></g></svg>