<svg fill="none" height="48" viewBox="0 0 48 48" width="48" xmlns="http://www.w3.org/2000/svg"><g fill="#333"><path d="m23.9999 44.0003c11.0457 0 20.0001-8.9545 20.0001-20.0002 0-11.0458-8.9544-20.0001-20.0001-20.0001-11.0458 0-20.00014 8.9543-20.00014 20.0001 0 11.0457 8.95434 20.0002 20.00014 20.0002z"/><path clip-rule="evenodd" d="m24 41.5c9.665 0 17.5-7.835 17.5-17.5s-7.835-17.5-17.5-17.5-17.5 7.835-17.5 17.5 7.835 17.5 17.5 17.5zm0 2.5c11.0457 0 20-8.9543 20-20s-8.9543-20-20-20-20 8.9543-20 20 8.9543 20 20 20z" fill-rule="evenodd"/></g></svg>