<svg fill="none" height="48" viewBox="0 0 48 48" width="48" xmlns="http://www.w3.org/2000/svg"><path clip-rule="evenodd" d="m24 40c8.8366 0 16-7.1634 16-16s-7.1634-16-16-16-16 7.1634-16 16 7.1634 16 16 16zm7.2427-11.7574c-2.3432 2.3432-6.1422 2.3432-8.4853 0-2.3432-2.3431-2.3432-6.1421 0-8.4852 2.3431-2.3432 6.1421-2.3432 8.4853 0l1.4142-1.4143c-3.1242-3.1241-8.1895-3.1241-11.3137 0-3.1242 3.1242-3.1242 8.1896 0 11.3138 3.1242 3.1241 8.1895 3.1241 11.3137 0zm-16.2427-7.2426v10h2v-10zm2.5-2.5c0 .8284-.6716 1.5-1.5 1.5s-1.5-.6716-1.5-1.5.6716-1.5 1.5-1.5 1.5.6716 1.5 1.5z" fill="#333" fill-rule="evenodd"/></svg>