<svg fill="none" height="48" viewBox="0 0 48 48" width="48" xmlns="http://www.w3.org/2000/svg"><path d="m23.1032 9.81695c.3668-.74324 1.4267-.74324 1.7935.00001l3.5729 7.23944c.1456.2951.4272.4997.7529.547l7.9892 1.1609c.8202.1192 1.1477 1.1272.5542 1.7057l-5.781 5.6351c-.2357.2298-.3433.5608-.2876.8852l1.3647 7.9569c.1401.8169-.7173 1.4398-1.451 1.0542l-7.1457-3.7568c-.2913-.1531-.6394-.1531-.9307 0l-7.1457 3.7568c-.7337.3857-1.5911-.2373-1.451-1.0542l1.3647-7.9569c.0557-.3244-.0519-.6554-.2876-.8852l-5.781-5.6351c-.59353-.5785-.26602-1.5865.5542-1.7057l7.9892-1.1609c.3257-.0473.6073-.2519.7529-.547z" fill="#333"/></svg>