<svg fill="none" height="48" viewBox="0 0 48 48" width="48" xmlns="http://www.w3.org/2000/svg"><path d="m23.1032 5.81696c.3668-.74325 1.4267-.74325 1.7935 0l4.7485 9.62144c.1456.2951.4272.4997.7529.547l10.6178 1.5429c.8203.1191 1.1478 1.1271.5542 1.7057l-7.6831 7.4892c-.2357.2297-.3432.5607-.2876.8851l1.8138 10.575c.1401.8169-.7174 1.4398-1.451 1.0541l-9.4969-4.9928c-.2913-.1531-.6393-.1531-.9307 0l-9.4969 4.9928c-.7336.3857-1.591-.2372-1.4509-1.0541l1.8137-10.575c.0557-.3244-.0519-.6554-.2876-.8851l-7.68311-7.4892c-.59352-.5786-.26601-1.5866.55421-1.7057l10.6179-1.5429c.3257-.0473.6072-.2519.7529-.547z" fill="#333"/></svg>