<svg fill="none" height="48" viewBox="0 0 48 48" width="48" xmlns="http://www.w3.org/2000/svg"><path d="m23.1032 13.817c.3668-.7433 1.4266-.7433 1.7935 0l2.3973 4.8574c.1456.2952.4272.4997.7529.5471l5.3605.7789c.8202.1192 1.1478 1.1272.5542 1.7057l-3.8789 3.781c-.2357.2297-.3432.5607-.2876.8851l.9157 5.3389c.1401.8169-.7173 1.4399-1.4509 1.0542l-4.7946-2.5207c-.2914-.1531-.6394-.1531-.9307 0l-4.7946 2.5207c-.7337.3857-1.5911-.2373-1.451-1.0542l.9157-5.3389c.0556-.3244-.0519-.6554-.2876-.8851l-3.8789-3.781c-.5935-.5785-.266-1.5865.5542-1.7057l5.3605-.7789c.3257-.0474.6073-.2519.753-.5471z" fill="#333"/></svg>