<svg fill="none" height="48" viewBox="0 0 48 48" width="48" xmlns="http://www.w3.org/2000/svg"><g stroke="#333"><path d="m26.8003 14.7742c.3945-.451 1.3236-1.0179 2.6446-1.6255 1.2824-.5898 2.8172-1.1673 4.3036-1.6773 1.4838-.509 2.906-.9461 3.9582-1.2562.2156-.0635.4154-.1216.597-.1739-.0357.2072-.076.4377-.1204.6877-.1992 1.1226-.4816 2.6371-.8145 4.2081-.3335 1.5737-.7151 3.1916-1.1117 4.5255-.1985.6676-.3972 1.2516-.5911 1.718-.201.4835-.3717.7775-.4929.9161-.2073.237-.66.4304-1.4404.4826-.7485.0501-1.6408-.0402-2.523-.1954-.8754-.1539-1.7064-.3652-2.3213-.5393-.3065-.0867-.5573-.1636-.7305-.2185-.0013-.0005-.0027-.0009-.0041-.0013-.0861-.1506-.207-.3683-.3462-.6365-.283-.5453-.6363-1.2899-.9264-2.0983-.2924-.8147-.507-1.6575-.5392-2.4083-.0322-.7539.1218-1.3227.4583-1.7075z" stroke-width="1.5"/><path d="m34.325 14.1937s-6.8275 5.8845-9.0527 12.4608" stroke-linecap="round" stroke-linejoin="round" stroke-width="2"/><path d="m21.774 17.938c-.2627-.3036-.9162-.714-1.8978-1.1702-.9431-.4383-2.0751-.869-3.1754-1.2504-1.0977-.3806-2.1503-.7075-2.9294-.9395-.0497-.0148-.0982-.0292-.1456-.0432.0122.0704.0249.1434.0382.2188.1476.8407.3568 1.9745.6034 3.1501.2471 1.1784.5291 2.3864.8215 3.38.1464.4974.2918.9288.4323 1.2703.1477.3589.2651.5559.3341.6356.1018.1176.37.2569.9337.295.5324.036 1.1765-.0288 1.8243-.1439.6409-.1138 1.2508-.2705 1.7031-.3999.1873-.0536.3462-.102.4673-.1402.0589-.1056.1335-.2433.2173-.4064.2076-.4044.4661-.9551.6779-1.5513.2139-.6026.367-1.2154.3898-1.7531.0229-.5414-.0886-.9136-.2947-1.1517z" stroke-width="1.5"/><path d="m16.9024 18.0289s4.4885 3.7738 5.7643 8.2107" stroke-linecap="round" stroke-linejoin="round" stroke-width="2"/></g><path d="m16.3726 28.1598.4083.9129zm-3.4837 1.2816h-1v1.4111l1.3314-.4676zm6.2528-1.2816.215-.9766-.0174-.0039-.0176-.0032zm5.7169 1.2585.3-.954-.042-.0132-.043-.0094zm2.4118 2.8765.574.8189zm-1.5482.5941.0521-.9987-.0201-.001-.0201-.0002zm-4.6153-.0548.0119-.9999-.188 1.9843zm5.5383.809.059-.9982zm3.5633-1.0793.3735.9277zm4.3867-1.4376.1602.9871zm2.3225 2.8765.7093.7049zm-9.29 4.7642-.3382-.9411zm-3.5007.1033.0982-.9952zm-1.1442-.1033.0741-.9973zm-3.9348-.8565-.2978.9547zm-4.1939-.8514.0395-.9993zm-1.9652.0346-.0344-.9994-.9656.0333v.9661zm0 1.9064v1h1v-1zm-4.8889 0h-1v1h1zm0-11v-1h-1v1zm4.8889 0h1v-1h-1zm3.0754-.7531c-.4615.2065-2.1648.8147-3.4068 1.251l.6628 1.887c1.1909-.4183 3.002-1.0624 3.5606-1.3122zm3.1774.9129c.18-.9837.1799-.9837.1798-.9837s-.0002 0-.0004-.0001c-.0002 0-.0004-.0001-.0007-.0001-.0006-.0001-.0013-.0002-.0021-.0004-.0016-.0003-.0036-.0006-.0062-.0011-.0051-.0009-.012-.0021-.0207-.0037-.0175-.003-.042-.0072-.0728-.0123-.0616-.0102-.1487-.0239-.2552-.0391-.2118-.0303-.5053-.0669-.829-.0915-.3207-.0243-.6894-.0383-1.0466-.0181-.3372.0191-.7556.0727-1.1235.2372l.8166 1.8258c.0341-.0153.1628-.0516.4202-.0662.2373-.0134.5107-.005.7818.0156.2681.0204.5161.0512.6979.0771.0904.0129.163.0244.2121.0325.0244.004.0429.0072.0547.0093.0059.001.01.0017.0124.0022.0012.0002.002.0003.0023.0004h.0001c-.0001 0-.0002 0-.0003-.0001h-.0001c-.0001 0-.0002 0 .1797-.9837zm5.9319.2819-5.7169-1.2585-.4299 1.9532 5.7168 1.2585zm2.5541.426c-.5705 0-1.1858-.0972-1.6776-.2025-.2416-.0518-.4441-.1034-.5848-.1416-.0701-.0191-.1244-.0348-.1599-.0452-.0178-.0053-.0308-.0092-.0387-.0116-.004-.0012-.0067-.002-.008-.0025-.0007-.0002-.0011-.0003-.0011-.0003s.0001 0 .0003.0001c.0001 0 .0002.0001.0003.0001 0 0 .0001 0 .0002.0001.0001 0 .0002 0-.2998.954-.3.9539-.2998.954-.2997.954s.0002.0001.0003.0001c.0002.0001.0004.0001.0007.0002.0005.0002.0011.0004.0018.0006.0014.0004.0031.0009.0052.0016.0041.0013.0096.0029.0164.005.0137.0042.0327.0099.0566.017.0479.0141.1158.0336.2005.0566.1692.0461.4077.1068.691.1674.5577.1195 1.327.2469 2.0963.2469zm.2167 4.246c.6412-.4494 1.202-1.2534 1.4077-2.0037.1005-.3666.1711-.9234-.1151-1.4377-.3333-.5988-.9474-.8046-1.5093-.8046v2c.0604 0 .037.0107-.0281-.0207-.0767-.0369-.1572-.1068-.2102-.2021-.0875-.1573-.0219-.2252-.0662-.0635-.0356.13-.1196.3102-.2492.4951-.1298.185-.2695.3237-.3775.3994zm-2.1222-.2248c-.052.9986-.0515.9987-.051.9987h.001c.0007.0001.0014.0001.0021.0001.0015.0001.0029.0002.0044.0002.0031.0002.0063.0003.0096.0004.0068.0003.0142.0005.0223.0006.0162.0003.0351.0004.0566.0001.0429-.0006.0961-.003.1588-.0085.1254-.011.2882-.035.481-.084.3878-.0988.8865-.2967 1.4374-.6828l-1.1479-1.6378c-.3453.242-.6208.3411-.783.3824-.0822.0209-.1384.0278-.1633.03-.0125.0011-.0172.001-.0134.0009.0019 0 .0059 0 .0121.0001.0031.0001.0068.0002.011.0003.0021.0001.0043.0002.0067.0003.0012 0 .0025.0001.0037.0001.0007.0001.0013.0001.002.0001.0003.0001.0008.0001.001.0001.0005 0 .001 0-.0511.9987zm-4.6272.9451 4.6153.0548.0238-1.9998-4.6153-.0548zm5.6092-1.1891c-.7006-.0415-2.0346-.2348-3.2397-.4275-.5926-.0947-1.1385-.1867-1.5365-.2551-.1988-.0342-.3605-.0624-.4723-.082-.0559-.0098-.0993-.0175-.1286-.0227-.0146-.0026-.0258-.0046-.0332-.0059-.0037-.0007-.0065-.0012-.0083-.0015-.0009-.0002-.0016-.0003-.002-.0004-.0002 0-.0004 0-.0005 0 0-.0001-.0001-.0001-.0001-.0001s0 0-.1761.9844-.1761.9844-.176.9844h.0002c.0001.0001.0003.0001.0006.0001.0006.0001.0013.0003.0024.0005.002.0003.005.0009.009.0016.0079.0014.0195.0034.0346.0061.0304.0054.0748.0133.1318.0233.114.02.2782.0487.4799.0833.4032.0693.9571.1627 1.5593.259 1.1844.1893 2.6194.4006 3.4374.449zm3.1309-1.0087c-.7462.3004-1.4124.5681-1.986.7573-.6043.1993-.9671.2619-1.1449.2514l-.1181 1.9965c.5914.035 1.2729-.1452 1.8894-.3485.6471-.2135 1.3779-.5081 2.1065-.8014zm4.5999-1.4971c-1.499.2433-3.1948.9314-4.5999 1.4971l.7469 1.8553c1.4677-.5909 2.9397-1.178 4.1734-1.3782zm3.192 4.5685c.7929-.7979.9102-2.114.3893-3.1116-.5897-1.1293-1.8735-1.7341-3.5813-1.4569l.3204 1.9742c1.0613-.1723 1.3854.2118 1.488.4083.1714.3283.0654.6752-.035.7762zm-9.661 5.0003c.6897-.2479 2.8413-1.2416 4.8863-2.2593 1.0341-.5147 2.0653-1.0476 2.8992-1.5117.4162-.2317.7923-.4512 1.0987-.6462.2839-.1807.5788-.3839.7768-.5831l-1.4186-1.4098c.0013-.0014-.0069.0069-.0292.0254-.0216.0178-.0512.0409-.0902.0695-.0786.0575-.1825.1279-.3125.2107-.2603.1656-.5988.3639-.9977.5859-.7963.4432-1.7973.9609-2.8177 1.4688-2.064 1.0272-4.1107 1.9661-4.6716 2.1677zm-3.9371.1575c1.265.1247 2.7015.2866 3.9371-.1575l-.6765-1.8821c-.7232.2599-1.656.1881-3.0643.0492zm-1.1203-.1013c.3784.0282.7485.0646 1.1203.1013l.1963-1.9904c-.3685-.0363-.7621-.0752-1.1683-.1054zm-4.1584-.899c1.1813.3684 2.4716.7736 4.1584.899l.1483-1.9945c-1.4352-.1067-2.5306-.4456-3.7112-.8138zm-3.9356-.8069c1.5315.0605 2.6715.4126 3.9356.8069l.5955-1.9093c-1.2672-.3953-2.6309-.8241-4.4521-.8961zm-1.8913.0348c.8058-.0277 1.5863-.0469 1.8913-.0348l.079-1.9985c-.3961-.0156-1.2628.0078-2.0391.0345zm-1.0344-.9994v1.9064h2v-1.9064zm1 .9064h-4.8889v2h4.8889zm-3.8889 1v-11h-2v11zm-1-10h4.8889v-2h-4.8889zm3.8889-1v1.4414h2v-1.4414z" fill="#333"/></svg>