<svg fill="none" height="48" viewBox="0 0 48 48" width="48" xmlns="http://www.w3.org/2000/svg"><g fill="#333"><path clip-rule="evenodd" d="m20.5788 10.3086c-1.2457 0-2.2691 1.0234-2.2691 2.2691 0 1.2458 1.0234 2.2692 2.2691 2.2692 1.2458 0 2.2692-1.0234 2.2692-2.2692 0-1.2457-1.0234-2.2691-2.2692-2.2691zm-4.2691 2.2691c0-2.3503 1.9188-4.26911 4.2691-4.26911 2.3504 0 4.2692 1.91881 4.2692 4.26911 0 2.3504-1.9188 4.2692-4.2692 4.2692-2.3503 0-4.2691-1.9188-4.2691-4.2692z" fill-rule="evenodd"/><path clip-rule="evenodd" d="m14.2072 19.4032c-.657.6563-1.2072 1.6158-1.2072 2.8887 0 1.8726.6116 3.1247 1.2643 3.8972.1364.1615.2749.3024.4108.4241v-5.8626h2v19.6149c0 .3467.2878.6346.6346.6346.3467 0 .6345-.2879.6345-.6346v-9.1729h5.2692v9.1729c0 .3467.2878.6346.6346.6346.3467 0 .6345-.2879.6345-.6346v-20.6149h9.1729c.3467 0 .6346-.2878.6346-.6346 0-.3467-.2879-.6346-.6346-.6346h-17.9803c.0016 0 .0001.0003-.0046.0013-.0307.006-.1979.039-.4843.1893-.2986.1566-.648.4004-.979.7312zm.4679 9.5772c-.1573-.0682-.3114-.1476-.4586-.2337-.4866-.2847-1.0049-.7045-1.48-1.2669-.9601-1.1364-1.7365-2.8468-1.7365-5.1879 0-1.903.8378-3.3487 1.7936-4.3036.4754-.4749.9885-.8382 1.4634-1.0874.4437-.2328.9562-.4195 1.4181-.4195h17.9803c1.4513 0 2.6346 1.1833 2.6346 2.6346s-1.1833 2.6346-2.6346 2.6346h-7.1729v18.6149c0 1.4513-1.1832 2.6346-2.6345 2.6346s-2.6346-1.1833-2.6346-2.6346v-7.1729h-1.2692v7.1729c0 1.4513-1.1832 2.6346-2.6345 2.6346s-2.6346-1.1833-2.6346-2.6346z" fill-rule="evenodd"/><path d="m31.934 15.3429v25.8344h-1.7143v-25.8344c-.9679-.1979-1.8377-.724-2.4624-1.4893-.6248-.7653-.966-1.7228-.9662-2.7107v-5.1429h1.7143v6h1.7143v-6h1.7143v6h1.7143v-6h1.7143v5.1429c-.0001.9879-.3414 1.9454-.9661 2.7107-.6248.7653-1.4946 1.2914-2.4625 1.4893z"/></g></svg>