<svg fill="none" height="48" viewBox="0 0 48 48" width="48" xmlns="http://www.w3.org/2000/svg"><g clip-rule="evenodd" fill="#333" fill-rule="evenodd"><path d="m18.9828 26.9827c.0004.5523-.4469 1.0004-.9992 1.0008-.5523.0005-1.0004-.4469-1.0008-.9991-.0005-.5523.4468-1.0004.9991-1.0009.5523-.0004 1.0004.4469 1.0009.9992zm5.0008.9959c.0004.5523-.4469 1.0004-.9992 1.0008-.5523.0005-1.0004-.4469-1.0008-.9991-.0005-.5523.4469-1.0004.9991-1.0009.5523-.0004 1.0004.4469 1.0009.9992zm-3.9959 5.0033c.5522-.0005.9996-.4485.9991-1.0008-.0004-.5523-.4485-.9997-1.0008-.9992s-.9996.4485-.9992 1.0008c.0005.5523.4486.9997 1.0009.9992zm5.9983-2.0049c.0005.5523-.4469 1.0004-.9992 1.0008-.5522.0005-1.0003-.4469-1.0008-.9992-.0004-.5523.4469-1.0003.9992-1.0008.5523-.0004 1.0004.4469 1.0008.9992zm1.0041 4.9992c.5523-.0005.9997-.4486.9992-1.0009-.0005-.5522-.4485-.9996-1.0008-.9991-.5523.0004-.9997.4485-.9992 1.0008s.4485.9996 1.0008.9992zm2.9959-5.0025c.0005.5523-.4469 1.0004-.9992 1.0008-.5522.0005-1.0003-.4469-1.0008-.9992-.0004-.5522.4469-1.0003.9992-1.0008.5523-.0004 1.0004.4469 1.0008.9992zm-7.9951 6.0066c.5523-.0005.9997-.4486.9992-1.0009-.0004-.5522-.4485-.9996-1.0008-.9991-.5523.0004-.9996.4485-.9992 1.0008.0005.5523.4486.9996 1.0008.9992zm-4.0016-1.9968c.0005.5523-.4469 1.0004-.9992 1.0009-.5523.0004-1.0003-.4469-1.0008-.9992-.0004-.5523.4469-1.0004.9992-1.0008.5523-.0005 1.0004.4469 1.0008.9991zm-3.0025-2.9975c.5523-.0005.9997-.4485.9992-1.0008-.0004-.5523-.4485-.9997-1.0008-.9992-.5523.0004-.9996.4485-.9992 1.0008.0005.5523.4486.9996 1.0008.9992z"/><path d="m22.5 6c.8284 0 1.5.67157 1.5 1.5v15.5h2v-12.5c0-.82843.6716-1.5 1.5-1.5s1.5.67157 1.5 1.5v15.5855c0 1.9043 2.4096 2.731 3.5787 1.2278l3.1865-4.0969c.6146-.7902 1.8123-.7797 2.413.0212.3721.4962.405 1.1688.0831 1.699l-7.204 11.8626c-1.9611 3.2291-5.4652 5.2008-9.2432 5.2008-5.9725 0-10.8141-4.8416-10.8141-10.8141v-14.6859c0-.8284.6716-1.5 1.5-1.5s1.5.6716 1.5 1.5v8.6176h2v-14.6176c0-.82843.6716-1.5 1.5-1.5s1.5.67157 1.5 1.5v12.5h2v-15.5c0-.82843.6716-1.5 1.5-1.5zm-3.4963 1.33856c.0843-1.85806 1.6174-3.33856 3.4963-3.33856s3.412 1.4805 3.4963 3.33856c.4556-.21706.9655-.33856 1.5037-.33856 1.933 0 3.5 1.567 3.5 3.5v15.5855l3.1865-4.097c1.4242-1.8311 4.1998-1.8068 5.5917.0491.8624 1.1498.9386 2.7086.1925 3.9371l-7.204 11.8626c-2.3237 3.8264-6.4759 6.1627-10.9526 6.1627-7.077 0-12.8141-5.7371-12.8141-12.8141v-14.6859c0-1.933 1.567-3.5 3.5-3.5.5368 0 1.0454.1208 1.5.3368v-2.8368c0-1.933 1.567-3.5 3.5-3.5.5382 0 1.0481.1215 1.5037.33856z"/></g></svg>