<svg fill="none" height="48" viewBox="0 0 48 48" width="48" xmlns="http://www.w3.org/2000/svg"><g fill="#333"><path clip-rule="evenodd" d="m11.8236 12.979c1.278-.2311 2.6064-.0208 3.7374.5994.0354.0194.0695.0409.1023.0645 1.5533 1.1149 2.8838 2.4806 3.9267 4.035 1.2763 1.4835 2.3833 3.0878 3.3025 4.7871.7678 1.2481 1.1854 2.6626 1.2075 4.1108.0003.0255-.0002.0511-.0018.0766-.046.7472-.2369 1.4784-.5614 2.158-.0059.0124-.0121.0247-.0185.0368-.3831.724-.8873 1.3828-1.4913 1.9524l-.0166.0152c-.1393.1257-.2977.2463-.4217.3407-.0099.0075-.0196.0149-.0291.0222-.1424.1085-.2531.1945-.3474.2804-.1175.107-.156.1669-.1669.1873-.0001.0042-.0002.0093-.0002.0153-.0002.0212-.0001.049.0004.084.001.0703.0036.1605.0078.27.0083.2187.0224.4997.0408.8245.0366.6487.0893 1.4559.1434 2.2549.0369.5446.0742 1.0828.1076 1.563.0156.2244.0303.436.0437.6298.0395.5729.0725 1.0553.0725 1.1758 0 .5523-.4477 1-1 1h-3.6356l-.1378 2.3706c-.0094.596-.2691 1.1498-.6984 1.5482-.4349.4036-1.0097.6186-1.5949.6186-.5851 0-1.16-.215-1.5949-.6186-.43-.399-.6898-.954-.6984-1.5511l-.1296-2.4397h-4.1094c-.32117 0-.62279-.1543-.81078-.4147-.188-.2604-.23948-.5952-.13841-.9001.35918-1.0832 1.4044-3.8331 2.34723-6.2813.47405-1.2309.92616-2.3955 1.25966-3.2524.1371-.3522.2542-.6524.3445-.8839-.0034-.0044-.0068-.0087-.0102-.0131-.0921-.1174-.1842-.2312-.2617-.3209-.064-.0741-.0925-.1014-.0919-.102 0 0-.0004-.0002 0 0-.0266-.021-.0516-.0431-.0759-.0668l-4.62204-4.4954c-.41624-.3414-.70197-.8243-.7809-1.3695-.08227-.5684.07044-1.1368.41107-1.5902.00516-.0069.0104-.0137.01574-.0204l2.57794-3.2535c.1276-.1715.2548-.3566.39955-.5674.06019-.0876.1234-.1796.19095-.2769.22265-.3208.47759-.6764.76499-1.0142.56296-.6618 1.345-1.3698 2.4234-1.5855zm.1764 14.521.9312.3647-.1488.3805c-.0952.2439-.2321.5948-.3986 1.0225-.333.8554-.7842 2.0177-1.2571 3.2457-.6673 1.7327-1.37026 3.5765-1.84798 4.8773h3.64128c.5317 0 .9704.416.9986.9469l.1811 3.4091c.0009.0176.0014.0353.0014.053 0 .028.0113.0715.0591.1158.0503.0467.1335.0846.2344.0846.101 0 .1842-.0379.2345-.0846.0477-.0443.059-.0878.059-.1158 0-.0193.0006-.0387.0017-.058l.1941-3.3371c.0307-.5288.4685-.9419.9983-.9419h3.5139c-.0008-.0127-.0017-.0254-.0026-.0382-.0132-.1918-.0279-.4024-.0434-.626-.0334-.4812-.071-1.0228-.1081-1.5693-.0542-.8005-.1074-1.6168-.1448-2.2772-.0352-.6242-.062-1.1937-.0483-1.4361.0422-.7427.4974-1.2456.8166-1.5364.1677-.1528.3448-.2881.4813-.3922.1464-.1116.2421-.1846.3168-.2511.4391-.4158.8019-.8907 1.0771-1.4059.2045-.4341.3253-.8952.3588-1.3632-.0235-1.0752-.3387-2.1324-.9228-3.0741-.0107-.0172-.0208-.0346-.0304-.0524-.8616-1.5971-1.904-3.1065-3.1103-4.5023-.0274-.0318-.0528-.0652-.0761-.1002-.8995-1.3527-2.0538-2.5498-3.4114-3.5334-.709-.3736-1.5467-.504-2.3591-.3594-.4192.0867-.8313.3865-1.284.9186-.2219.2609-.4318.5512-.6453.8588-.053.0763-.1076.1557-.1631.2365-.1566.228-.32044.4666-.47633.6753-.00569.0076-.01148.0151-.01738.0226l-2.57574 3.2507c-.0258.0371-.03006.0704-.02632.0963.00414.0285.02216.0729.07594.1145.02982.0231.05831.0478.08533.0741l4.6242 4.4974c.1308.1104.2496.246.3192.3265.1071.124.2212.2657.3219.3941.1019.1299.196.2536.2643.3444.0342.0456.0623.0833.082.1098l.023.0311.0064.0086.0017.0024.0007.0009zm0 0 .8059-.5921c.2029.2763.2502.6376.1253.9568zm9.0415 4.1535s.0001-.0005.0005-.0014zm-9.0783-14.633c.4038.0636.7281.3666.8192.765.1044.4567.2126.8934.3241 1.3438.0815.3291.1649.6656.2499 1.0227.0641.2169.1258.4028.1832.5756.1983.5972.3443 1.0369.3545 2.0565.0037.3726-.2001.7164-.5287.892-.3287.1756-.7277.1539-1.0354-.0563-.6699-.4577-1.1097-.7602-1.4344-.9836-.601-.4134-.8079-.5558-1.35029-.9091-.44969-.2929-.58795-.8886-.31324-1.3497l1.71643-2.8809c.2092-.3511.611-.5396 1.0147-.476z" fill-rule="evenodd"/><path clip-rule="evenodd" d="m16.5 11c1.3807 0 2.5-1.11929 2.5-2.5s-1.1193-2.5-2.5-2.5-2.5 1.11929-2.5 2.5 1.1193 2.5 2.5 2.5zm0 2c2.4853 0 4.5-2.0147 4.5-4.5 0-2.48528-2.0147-4.5-4.5-4.5s-4.5 2.01472-4.5 4.5c0 2.4853 2.0147 4.5 4.5 4.5z" fill-rule="evenodd"/><path d="m29.9375 5.5625c0-.31066.2518-.5625.5625-.5625s.5625.25184.5625.5625v3.375c0 .31066-.2518.5625-.5625.5625s-.5625-.25184-.5625-.5625z"/><path d="m38.9375 5.5625c0-.31066.2518-.5625.5625-.5625s.5625.25184.5625.5625v3.375c0 .31066-.2518.5625-.5625.5625s-.5625-.25184-.5625-.5625z"/><g clip-rule="evenodd" fill-rule="evenodd"><path d="m30.5387 16.25c-.0126.0132-.0255.0261-.0387.0387-.0132-.0126-.0261-.0255-.0387-.0387.0126-.0132.0255-.0261.0387-.0387.0132.0126.0261.0255.0387.0387zm-.7262-1.6875c-.5523 0-1 .4477-1 1v1.375c0 .5523.4477 1 1 1h1.375c.5523 0 1-.4477 1-1v-1.375c0-.5523-.4477-1-1-1z"/><path d="m35.0387 16.25c-.0126.0132-.0255.0261-.0387.0387-.0132-.0126-.0261-.0255-.0387-.0387.0126-.0132.0255-.0261.0387-.0387.0132.0126.0261.0255.0387.0387zm-.7262-1.6875c-.5523 0-1 .4477-1 1v1.375c0 .5523.4477 1 1 1h1.375c.5523 0 1-.4477 1-1v-1.375c0-.5523-.4477-1-1-1z"/><path d="m39.5387 16.25c-.0126.0132-.0255.0261-.0387.0387-.0132-.0126-.0261-.0255-.0387-.0387.0126-.0132.0255-.0261.0387-.0387.0132.0126.0261.0255.0387.0387zm-.7262-1.6875c-.5523 0-1 .4477-1 1v1.375c0 .5523.4477 1 1 1h1.375c.5523 0 1-.4477 1-1v-1.375c0-.5523-.4477-1-1-1z"/><path d="m30.5387 20.75c-.0126.0132-.0255.0261-.0387.0387-.0132-.0126-.0261-.0255-.0387-.0387.0126-.0132.0255-.0261.0387-.0387.0132.0126.0261.0255.0387.0387zm-.7262-1.6875c-.5523 0-1 .4477-1 1v1.375c0 .5523.4477 1 1 1h1.375c.5523 0 1-.4477 1-1v-1.375c0-.5523-.4477-1-1-1z"/><path d="m35.0387 20.75c-.0126.0132-.0255.0261-.0387.0387-.0132-.0126-.0261-.0255-.0387-.0387.0126-.0132.0255-.0261.0387-.0387.0132.0126.0261.0255.0387.0387zm-.7262-1.6875c-.5523 0-1 .4477-1 1v1.375c0 .5523.4477 1 1 1h1.375c.5523 0 1-.4477 1-1v-1.375c0-.5523-.4477-1-1-1z"/><path d="m39.5387 20.75c-.0126.0132-.0255.0261-.0387.0387-.0132-.0126-.0261-.0255-.0387-.0387.0126-.0132.0255-.0261.0387-.0387.0132.0126.0261.0255.0387.0387zm-.7262-1.6875c-.5523 0-1 .4477-1 1v1.375c0 .5523.4477 1 1 1h1.375c.5523 0 1-.4477 1-1v-1.375c0-.5523-.4477-1-1-1z"/><path d="m42 9.25h-14v14h14zm-14-2c-1.1046 0-2 .89543-2 2v14c0 1.1046.8954 2 2 2h14c1.1046 0 2-.8954 2-2v-14c0-1.10457-.8954-2-2-2z"/></g><path d="m26 9.25c0-1.10457.8954-2 2-2h14c1.1046 0 2 .89543 2 2v2.1875c0 1.1046-.8954 2-2 2h-14c-1.1046 0-2-.8954-2-2z"/><path clip-rule="evenodd" d="m42 9.25h-14v2.1875h14zm-14-2c-1.1046 0-2 .89543-2 2v2.1875c0 1.1046.8954 2 2 2h14c1.1046 0 2-.8954 2-2v-2.1875c0-1.10457-.8954-2-2-2z" fill-rule="evenodd"/><path clip-rule="evenodd" d="m43.4375 13.4375h-16.875v-2h16.875z" fill-rule="evenodd"/></g></svg>