<svg fill="none" height="48" viewBox="0 0 48 48" width="48" xmlns="http://www.w3.org/2000/svg"><g fill="#333"><path d="m6.99994 8c-.30928 0-.61536.01274-.91778.03769l-.16444-1.99323c.35705-.02946.718-.04446 1.08222-.04446 7.17966 0 12.99996 5.8203 12.99996 13v1.6972l2.7956 4.1934c.8861 1.3291-.0667 3.1094-1.6641 3.1094h-1.1315v2c0 .5523-.4477 1-1 1h-1c-1.1045 0-2 .8954-2 2h3c.5523 0 1 .4477 1 1v3c0 1.4477-.7696 2.7147-1.9173 3.4156-.7148.4365-1.4833.4945-2.1605.4053-.6648-.0876-1.3016-.3241-1.8254-.5486l-4.09676-1.7558v4.4835h-2v-6c0-.3361.16889-.6498.44951-.8348.28063-.1851.63545-.2168.94441-.0843l5.49074 2.3531c.472.2023.9083.3526 1.2987.404.378.0498.647-.0011.8568-.1293.5778-.3528.9598-.9866.9598-1.7087v-2h-3c-.5522 0-1-.4477-1-1v-1c0-2.2091 1.7909-4 4-4v-2c0-.5523.4478-1 1-1h2.1315l-2.9635-4.4453c-.1095-.1643-.168-.3573-.168-.5547v-2c0-6.0751-4.9248-11-10.99996-11z"/><path clip-rule="evenodd" d="m36.7201 15.034c-.5328-.1421-1.0802.1739-1.2235.7064l-.4922 1.8293c-.2658-.1186-.5701-.1155-.8335.0085-.2651.1249-.4622.3597-.539.6426l-2.3851 8.7794h-3.2468c-.5522 0-.9999.4476-1 .9998h-2c-.5523 0-1 .4477-1 1v5c0 .5523.4477 1 1 1h2c0 .5523.4477 1.0002 1 1.0002h6.204c2.2504 0 4.2235-1.5033 4.8207-3.673l2.9394-10.6784c.1306-.4744-.1033-.9733-.5515-1.1763l-.2934-.1329.777-2.8874c.069-.2564.0331-.5298-.0996-.7598-.1328-.23-.3517-.3978-.6083-.4662zm-7.7201 18.9662h5.204c1.3502 0 2.5341-.902 2.8924-2.2038l2.68-9.736-4.5525-2.071-2.2475 8.273c-.1184.4355-.5138.7378-.9651.7378h-3.0113zm7.8202-15.4819 2.4215 1.1016.4628-1.7197-2.5359-.6765zm-10.8202 11.4817h1v3h-1z" fill-rule="evenodd"/><path d="m14.5 23c.8284 0 1.5-.6716 1.5-1.5s-.6716-1.5-1.5-1.5-1.5.6716-1.5 1.5.6716 1.5 1.5 1.5z"/></g></svg>