<svg fill="none" height="48" viewBox="0 0 48 48" width="48" xmlns="http://www.w3.org/2000/svg"><g stroke="#333" stroke-width="2"><path d="m40.9999 18.1026c0 2.8764-2.3316 5.208-5.208 5.208-2.8763 0-5.208-2.3317-5.208-5.208s2.3318-5.2081 5.208-5.2081c2.8764 0 5.208 2.3318 5.208 5.2081z"/><path d="m36.4275 30.8976-.293-.2934-3.3935-3.398-.0805-.0806-.0603-.0966c-.4493-.7199-1.0755-1.3128-1.8187-1.7224-.7436-.4095-1.5794-.6219-2.4281-.6171l-.0057.0001h-5.4718l.521 10.416h4.6343.0006c.6944-.0011 1.3813-.1416 2.02-.4135zm0 0h.4146m-.4146 0h.4146m0 0h2.0538c.5581 0 1.0932.2217 1.4878.6163.3946.3945.6163.9297.6163 1.4877s-.2217 1.0932-.6163 1.4878-.9297.6162-1.4878.6162h-3.0574c-.008-.0009-.0168-.0019-.0259-.0028-.0309-.003-.0737-.0062-.1242-.0062h-.013l-.0131.0004c-.2817.0073-.5622-.0438-.8234-.1503-.2614-.1065-.4977-.2659-.6942-.4681h.0001l-.0096-.0097-.9572-.9586-.72-.7212m4.3841-1.8915-4.3841 1.8915m0 0-.7074.7335m.7074-.7335-.7074.7335m0 0c-.482.4998-1.0598.8975-1.6987 1.1695z"/><path d="m16.5158 27.5006.1148-.1149c.1655-.1414.3525-.2561.5542-.3396l.0003-.0002c.2518-.1043.5216-.158.7944-.158s.5428.0537.7946.158l.0003.0002c.2516.1042.4804.2571.6734.45.1928.1928.3458.4218.45.6735l.0001.0003c.1043.2518.158.5217.158.7945s-.0537.5428-.1579.7943l-.0002.0004c-.1042.2518-.2572.4807-.45.6735l-.0002.0001-4.0341 4.0357h-.0001l-.0094.0096c-.197.2024-.4334.3618-.6945.4681l-.0004.0001c-.2612.1065-.5417.1578-.8239.1507l-.136-.0035-.0485.0122h-4.59668c-.55797 0-1.0932-.2217-1.48776-.6163s-.61626-.9298-.61626-1.4878c0-.5579.2217-1.0932.61626-1.4877.39456-.3946.92979-.6163 1.48776-.6163h3.60058.4142l.2929-.2929z"/></g></svg>