<svg fill="none" height="48" viewBox="0 0 48 48" width="48" xmlns="http://www.w3.org/2000/svg"><g clip-rule="evenodd" fill="#333" fill-rule="evenodd"><path d="m19.8092 30.7931c-1.7031 1.3083-2.8092 3.3947-2.8092 5.7527 0 .816.1613 2.0405.5728 3.0226.4251 1.0147.9499 1.4317 1.5383 1.4317.654 0 1.2222-.5485 1.2222-1.2726 0-.3202-.123-.6327-.3609-1.1774-.0064-.0148-.013-.0298-.0196-.045-.2101-.4803-.5084-1.1622-.5084-1.9593 0-.8815.3972-1.7927.8375-2.5079.4494-.7301 1.0454-1.4199 1.6285-1.8456l1.1792 1.6155c-.3203.2337-.7521.706-1.1046 1.2786-.3616.5874-.5406 1.1194-.5406 1.4594 0 .3413.127.6683.3609 1.204.0091.0207.0183.0417.0277.0633.2064.4709.5003 1.1417.5003 1.9144 0 1.7861-1.4216 3.2726-3.2222 3.2726-1.8251 0-2.856-1.4011-3.383-2.6589-.5407-1.2905-.7281-2.7931-.7281-3.7954 0-2.9953 1.4077-5.6618 3.5908-7.3388zm11.1908 5.7527c0-2.358-1.1061-4.4444-2.8092-5.7527l1.2184-1.5861c2.1831 1.677 3.5908 4.3435 3.5908 7.3388 0 .9264-.2098 2.4242-.7532 3.7247-.5182 1.2399-1.5392 2.7296-3.3579 2.7296-1.8006 0-3.2222-1.4865-3.2222-3.2726 0-.7564.2922-1.4307.4968-1.9028.01-.0232.0199-.0459.0295-.0682.2351-.5447.3626-.8781.3626-1.2107 0-.34-.179-.872-.5406-1.4594-.3525-.5726-.7843-1.0449-1.1046-1.2786l1.1792-1.6155c.5831.4257 1.1791 1.1155 1.6285 1.8456.4403.7152.8375 1.6264.8375 2.5079 0 .7859-.2976 1.4742-.5065 1.9574-.0067.0155-.0133.0308-.0199.0459-.2398.5557-.3625.8713-.3625 1.1784 0 .7241.5682 1.2726 1.2222 1.2726.527 0 1.0615-.4216 1.5125-1.5008.4257-1.0187.5986-2.248.5986-2.9535z"/><path d="m24 15c2.2091 0 4-1.7909 4-4 0-2.20914-1.7909-4-4-4s-4 1.79086-4 4c0 2.2091 1.7909 4 4 4zm0 2c3.3137 0 6-2.6863 6-6 0-3.31371-2.6863-6-6-6s-6 2.68629-6 6c0 3.3137 2.6863 6 6 6z"/><path d="m14.3009 17.1247.0114.0245c1.3132 2.814 2.8083 4.288 4.4848 5.0165l1.2028.5228v6.3115c0 .1189.068.5184.3736.9917.2843.4401.7347.8801 1.4112 1.1687.1906.0813.4049.1833.5865.2697.0359.0171.0705.0335.1034.0491.2222.1052.4282.2003.6334.2836.4354.1767.7208.2372.8919.2372.1712 0 .4566-.0605.892-.2372.2052-.0833.4112-.1784.6334-.2836.0329-.0156.0675-.032.1033-.0491.1817-.0864.396-.1884.5866-.2697.6765-.2886 1.1269-.7286 1.4111-1.1687.3057-.4733.3736-.8728.3736-.9917v-6.3115l1.2029-.5228c1.6764-.7285 3.1716-2.2025 4.4848-5.0165l.0114-.0245.0121-.0242c.0354-.0707.1218-.3227.1145-.6036-.0061-.234-.0701-.4179-.2399-.5877-.1501-.1501-.2657-.2196-.3385-.2533-.0712-.0329-.1329-.0465-.1949-.0503-.1377-.0084-.3573.0295-.6652.1819.0096-.0047.015-.0074.0155-.0066.0033.0044-.1433.1178-.5415.593-.0772.0922-.163.1967-.2564.3103-.3472.4227-.7983.9717-1.2957 1.4834-1.3342 1.3723-3.3184 2.8274-6.3091 2.8274-2.9906 0-4.9748-1.4551-6.309-2.8274-.4974-.5117-.9485-1.0607-1.2958-1.4834-.0933-.1136-.1791-.2181-.2564-.3103-.3981-.4752-.5447-.5886-.5415-.593.0005-.0007.0038.0008.0098.0038-.3048-.15-.5225-.1875-.6594-.1791-.062.0038-.1237.0174-.1949.0503-.0728.0337-.1884.1032-.3386.2533-.1698.1698-.2338.3537-.2398.5877-.0073.2809.0791.5329.1145.6036zm21.199.8703c.3334-.6667.7-2.3-.5-3.5s-2.5-.9949-3.5-.5c-.4616.2285-.9233.79-1.4724 1.4578-1.235 1.5021-2.9125 3.5422-6.0276 3.5422-3.115 0-4.7925-2.0401-6.0275-3.5422-.5492-.6678-1.0108-1.2293-1.4725-1.4578-1-.4949-2.3-.7-3.5.5s-.8333 2.8333-.5 3.5c1.449 3.1048 3.2432 5.0242 5.5 6.005v5c0 1.1218.8493 3.0826 3 4 .1492.0636.3171.1434.4992.23.7032.3343 1.6197.77 2.5008.77s1.7977-.4357 2.5008-.77c.1822-.0866.35-.1664.4992-.23 2.1508-.9174 3-2.8782 3-4v-5c2.2569-.9808 4.0511-2.9002 5.5-6.005z"/><path d="m29.5 28h-11v-2h11z"/></g></svg>