<svg fill="none" height="48" viewBox="0 0 48 48" width="48" xmlns="http://www.w3.org/2000/svg"><g clip-rule="evenodd" fill="#333" fill-rule="evenodd"><path d="m35.7919 23.5128c2.3241 0 4.208-1.884 4.208-4.2081 0-2.324-1.8839-4.208-4.208-4.208-2.324 0-4.208 1.8841-4.208 4.208 0 2.3241 1.884 4.2081 4.208 4.2081zm6.208-4.2081c0 3.4287-2.7793 6.2081-6.208 6.2081-3.4285 0-6.208-2.7794-6.208-6.2081 0-3.4285 2.7795-6.208 6.208-6.208 3.4287 0 6.208 2.7795 6.208 6.208z"/><path d="m38.896 31.1058v-.0061h-2.0539l-3.3936-3.398c-.5395-.8649-1.2915-1.5772-2.1845-2.0692-.8929-.4919-1.8969-.7469-2.9163-.7408h-6.5231l1.6459 12.4161h4.5621c.8282-.0008 1.6476-.1677 2.41-.4912.7005-.2972 1.3395-.7209 1.8855-1.2493.0481-.0466.0956-.0941.1423-.1423l.9571.9571c.1101.1134.2285.2176.3541.3121.2086.1569.437.2867.6799.3859.389.1587.8068.2352 1.2269.2247.018 0 .0349.0022.0518.0045.0168.0022.0337.0045.0517.0045h3.1041c.8233 0 1.6127-.3271 2.1948-.9092s.9092-1.3715.9092-2.1948c0-.8232-.3271-1.6128-.9092-2.1949s-1.3715-.9091-2.1948-.9091zm-3.6786 4.1226c.1334.0544.2768.0806.421.077l.025-.0006h.025c.0804 0 .1491.0044.2007.009h3.0069c.2928 0 .5735-.1163.7806-.3234.2071-.207.3234-.4878.3234-.7806s-.1164-.5737-.3234-.7807c-.2071-.207-.4878-.3233-.7806-.3233h-2v-.0061h-.8831l-4.1406-4.1461-.1207-.1934c-.3587-.575-.8588-1.0487-1.4526-1.3759-.5938-.3271-1.2614-.4967-1.9393-.4926h-.012-4.2405l1.1157 8.4161h2.8079c.5601-.0006 1.1151-.1136 1.6306-.3323m2.7858-2.4022 2.4049 2.405.0102.0105c.1003.1033.2213.1849.3551.2396m-2.7702-2.6551-1.4139 1.4607zm-1.4139 1.4607c-.3896.4025-.8561.7226-1.3719.9415z"/><path d="m17.3127 29.3198-3.7796 3.7797h-4.42908c-.29275 0-.57362.1163-.78065.3233s-.32337.4879-.32337.7807.1163.5736.32337.7806c.20702.2071.4879.3234.78065.3234h4.55508c.0514-.0046.1201-.009.2007-.009h.0243l.0243.0006c.1447.0035.2887-.0229.423-.0777.1337-.0546.2547-.1363.3552-.2396l.0098-.01 4.044-4.0456c.1-.1.1796-.219.2335-.3493.054-.1302.082-.2705.082-.4121 0-.1415-.0278-.2813-.0818-.4116-.0539-.1303-.1334-.2496-.2334-.3496-.0999-.0998-.2186-.1792-.3494-.2334-.1302-.0539-.2702-.0818-.4118-.0818-.1415 0-.2813.0278-.4116.0818-.0919.0381-.1777.0885-.2552.1496zm.3295-2.2129c-.2882.0318-.571.1042-.8399.2157-.0878.0363-.1736.0767-.2574.1208-.0148.0078-.0295.0157-.0442.0238-.2553.1399-.4899.3156-.6966.5222l.0045.006-3.104 3.1041h-3.60058c-.82319 0-1.61277.327-2.19487.9091s-.90915 1.3717-.90915 2.1949c0 .8233.32705 1.6127.90915 2.1948s1.37168.9092 2.19487.9092h4.65078c.0189 0 .0364-.0023.0536-.0046.0169-.0022.0336-.0044.0514-.0044.4201.0102.8378-.0665 1.2269-.2252.389-.1587.7411-.3962 1.034-.6975l4.0342-4.0356c.2856-.2857.5123-.6249.6668-.998.1547-.3733.2342-.7734.2342-1.1774s-.0795-.804-.2342-1.1773c-.1545-.3732-.3812-.7124-.6668-.9981-.2857-.2856-.6247-.5122-.998-.6668-.3733-.1547-.7734-.2342-1.1774-.2342-.1129 0-.2255.0062-.3373.0185z"/><path d="m39.1991 8.04434-3.4071 1.62267 3.4071 1.62279c.2987.1423.6436-.0754.6436-.4064v-2.43279c0-.33081-.3449-.54864-.6436-.40627z"/><path d="m32.3849 8.04434c-.2987-.14237-.6436.07546-.6436.40627v2.43279c0 .331.3449.5487.6436.4064l3.4071-1.62279z"/></g></svg>