<svg fill="none" height="48" viewBox="0 0 48 48" width="48" xmlns="http://www.w3.org/2000/svg"><path clip-rule="evenodd" d="m24 12.25c-1.3807 0-2.5 1.1193-2.5 2.5s1.1193 2.5 2.5 2.5 2.5-1.1193 2.5-2.5-1.1193-2.5-2.5-2.5zm-4.5 2.5c0-2.4853 2.0147-4.5 4.5-4.5s4.5 2.0147 4.5 4.5c0 1.7415-.9892 3.2519-2.4364 4h.9364c.8359 0 1.6165.4178 2.0801 1.1133l4 5.9999c.7659 1.1489.4555 2.701-.6933 3.4669-.9059.6039-2.0626.5386-2.8868-.0792v5.9991c0 1.3807-1.1193 2.5-2.5 2.5s-2.5-1.1193-2.5-2.5v-4h-1v4c0 1.3807-1.1193 2.5-2.5 2.5s-2.5-1.1193-2.5-2.5v-5.9991c-.8242.6178-1.9809.6831-2.8867.0792-1.1489-.7659-1.4593-2.318-.6934-3.4669l4-5.9999c.4637-.6955 1.2442-1.1133 2.0801-1.1133h.9364c-1.4472-.7481-2.4364-2.2585-2.4364-4zm1.5 6c-.1672 0-.3233.0836-.416.2226l-4 6c-.1532.2298-.0911.5402.1387.6934.2297.1532.5402.0911.6933-.1387l3.084-4.6259v12.3486c0 .2761.2239.5.5.5.2762 0 .5-.2239.5-.5v-6h5v6c0 .2761.2239.5.5.5.2762 0 .5-.2239.5-.5v-12.3486l3.084 4.6259c.1532.2298.4636.2919.6934.1387.2297-.1532.2918-.4636.1386-.6934l-4-6c-.0927-.139-.2488-.2226-.416-.2226z" fill="#333" fill-rule="evenodd"/></svg>