<svg fill="none" height="48" viewBox="0 0 48 48" width="48" xmlns="http://www.w3.org/2000/svg"><path d="m21.6292 16v5.8918c0 .6894-.3551 1.3302-.9396 1.6958l-1.5696.9814" stroke="#333" stroke-width="2"/><path d="m25.6292 16v5.9139c0 .6774.3428 1.3087.911 1.6775l1.5334.9955" stroke="#333" stroke-width="2"/><g fill="#333"><path d="m19.4579 17.063.7809.6247zm1.1852-.563-.0086 1h.0086zm-5.1653 5.5381.7669.6418.0071-.0085.0069-.0086zm-.1949.2998.897.4421.0007-.0015zm-.1535.6387.9998.0163v-.0014zm.1335.6432.911-.4124-.0007-.0016zm.1854.3057.8-.6-.0066-.0089-.0068-.0086zm2.9809 3.9745-.8.6zm.7001.5144h1v-.7078l-.6676-.2353zm3 2.5856v-1h-1v1zm3 0h1v-1h-1zm3-2.5856-.3325-.9431-.6675.2353v.7078zm.6999-.5144-.8-.6zm2.981-3.9746-.7866-.6175-.0068.0087-.0066.0088zm.1854-.3056-.9103-.414-.0008.0016zm.1335-.6432-.9999.0149.0001.0014zm-.1536-.6387-.8977.4406.0008.0015zm-.1949-.2998-.7808.6247.0069.0086.0071.0085zm-3.9714-4.9643-.7862.618.0054.0067zm-.0487-.0588-.7546.6561.0007.0009zm-.4813-.3673-.4339.901.0013.0006zm-.5875-.1464-.0421.9991h.0012zm-.0763-.0013v1h.0085zm2.1166 6.5296.8.6.4648-.6197-.4839-.605zm-.6027-.7534.7808-.6247-1.7808-2.2261v2.8508zm0 1.5571h-1v3l1.8-2.4zm-9.6028-.8037-.7809-.6247-.484.605.4649.6197zm.6028.8038-.8.6 1.8 2.4v-3zm0-1.5573h1v-2.8507l-1.7809 2.226zm7.4999-11.2761c0 1.6569-1.3431 3-3 3v2c2.7615 0 5-2.2386 5-5zm-3-3c1.6569 0 3 1.34315 3 3h2c0-2.76142-2.2385-5-5-5zm-3 3c0-1.65685 1.3432-3 3-3v-2c-2.7614 0-5 2.23858-5 5zm3 3c-1.6568 0-3-1.3431-3-3h-2c0 2.7614 2.2386 5 5 5zm-3.3904 3.6877c.0994-.1243.2449-.189.3957-.1877l.0172-2c-.738-.0063-1.4757.3146-1.9746.9383zm-3.9801 4.9751 3.9801-4.9751-1.5617-1.2494-3.9801 4.9751zm-.0781.1157c.0173-.0351.0386-.0682.0641-.0986l-1.5338-1.2836c-.1299.1553-.2387.3238-.3257.501zm-.0514.213c.0011-.0733.0181-.1453.0507-.2115l-1.7939-.8843c-.1669.3385-.2511.7033-.2565 1.066zm.044.2143c-.0305-.0671-.0452-.1396-.044-.2129l-1.9997-.0327c-.0059.3627.0669.7299.2231 1.0735zm.0617.1022c-.0245-.0313-.0449-.065-.061-.1006l-1.822.8247c.0814.1798.1848.3516.3099.5109zm2.9943 3.992-2.9809-3.9745-1.6 1.2 2.9809 3.9745zm.2325.1713c-.0893-.0315-.1701-.0881-.2325-.1713l-1.6 1.2c.3068.409.7173.6988 1.1677.8575zm.6676 11.5287v-10.5856h-2v10.5856zm.5.5c-.2762 0-.5-.2239-.5-.5h-2c0 1.3807 1.1193 2.5 2.5 2.5zm.5-.5c0 .2761-.2239.5-.5.5v2c1.3807 0 2.5-1.1193 2.5-2.5zm0-8v8h2v-8zm4-1h-3v2h3zm1 9v-8h-2v8zm.5.5c-.2762 0-.5-.2239-.5-.5h-2c0 1.3807 1.1193 2.5 2.5 2.5zm.5-.5c0 .2761-.2239.5-.5.5v2c1.3807 0 2.5-1.1193 2.5-2.5zm0-10.5856v10.5856h2v-10.5856zm1.3324.9431c.4504-.1588.8608-.4486 1.1675-.8575l-1.6-1.2c-.0623.0832-.1431.1398-.2324.1713zm1.1675-.8575 2.981-3.9746-1.6-1.2-2.981 3.9746zm1.4553-5.2926c-.0161.0356-.0364.0693-.0609.1005l1.5731 1.235c.1251-.1592.2285-.331.3099-.5108zm1.8214.8263c.1562-.3436.229-.7108.2231-1.0735l-1.9997.0327c.0012.0733-.0135.1458-.044.2129zm-1.8273-1.2537c.0326.0661.0495.1382.0506.2115l1.9998-.0298c-.0054-.3627-.0896-.7275-.2565-1.066zm1.7946-.8827c-.0869-.1772-.1957-.3457-.3257-.501l-1.5337 1.2836c.0254.0304.0468.0635.064.0986zm-5.8448-4.1988 3.9714 4.9643 1.5617-1.2494-3.9714-4.9643zm-.0218-.0265c.0056.0064.0111.013.0164.0198l1.5725-1.2359c-.0262-.0333-.0533-.066-.0811-.0979zm-.16-.1227c.0587.0282.1128.0684.1593.1218l1.5092-1.3123c-.2291-.2635-.5039-.469-.8034-.6127zm-.1958-.0489c.0707.0029.1359.0201.1945.0483l.8677-1.802c-.2993-.1441-.6315-.2303-.9803-.2446zm-.0269-.0004c.0086-.0001.0172 0 .0257.0004l.0842-1.9982c-.0423-.0018-.0846-.0025-.127-.0022zm-5.9808 0h5.9723v-2h-5.9723zm8.8698 4.9049-.6028-.7534-1.5617 1.2494.6027.7534zm-2.3836-.1287v1.5571h2v-1.5571zm.8027.1534-.6027.8037 1.6 1.2.6027-.8037zm-10.2055 1.2.6028.8038 1.6-1.2-.6028-.8038zm.6219-1.9782-.6028.7535 1.5617 1.2494.6028-.7535zm1.7809 2.182v-1.5573h-2v1.5573z"/><path clip-rule="evenodd" d="m27.6292 22.834-2 2.6666c-.8285 1.1046-.6046 2.6716.5 3.5 1.1045.8285 2.6715.6046 3.5-.5l2.625-3.5h-2.5l-1.725 2.3c-.1657.221-.4791.2657-.7.1-.2209-.1656-.2657-.479-.1-.7l1.275-1.7h-.875z" fill-rule="evenodd"/><path clip-rule="evenodd" d="m19.6251 22.834 2 2.6666c.8284 1.1046.6046 2.6716-.5 3.5-1.1046.8285-2.6716.6046-3.5-.5l-2.6251-3.5h2.5l1.7251 2.3c.1657.221.4791.2657.7.1.2209-.1656.2657-.479.1-.7l-1.2751-1.7h.8751z" fill-rule="evenodd"/></g><path d="m18.6292 18v-2c0-1.1046.8954-2 2-2" stroke="#333" stroke-width="2"/><path d="m28.6292 18v-2c0-1.1046-.8955-2-2-2" stroke="#333" stroke-width="2"/></svg>