<svg fill="none" height="48" viewBox="0 0 48 48" width="48" xmlns="http://www.w3.org/2000/svg"><path d="m0 0h48v48h-48z" fill="#fff"/><g fill="#333"><path d="m20.4036 22.2023c.9946 0 1.8008-.8062 1.8008-1.8008 0-.9945-.8062-1.8008-1.8008-1.8008s-1.8008.8063-1.8008 1.8008c0 .9946.8062 1.8008 1.8008 1.8008z"/><path clip-rule="evenodd" d="m11.4094 30.0084v11.9916h17.1124v-6.5119h4.2929c.2681 0 .5239-.0528.7576-.1485l-2.3811-1.8515h-4.6694v6.5119h-13.1124v-10.7982l-.5595-.5808c-1.6421-1.705-4.84984-5.6896-4.8499-10.646-.00002-1.6305.61533-4.1265 2.4657-6.1896 1.6337-1.82142 4.3733-3.46499 8.9374-3.74385v7.05115c-2.5052.4689-4.4011 2.667-4.4011 5.3077 0 2.9823 2.4181 5.4 5.4011 5.4 1.1352 0 2.1887-.3501 3.0581-.9483l14.0707 10.9224c-.0216.1253-.0329.254-.0329.3854 0 1.2429 1.0076 2.2505 2.2505 2.2505s2.2505-1.0076 2.2505-2.2505-1.0076-2.2505-2.2505-2.2505c-.3731 0-.725.0908-1.0348.2515l-13.8344-10.7391c.5833-.8623.924-1.9021.924-3.0214 0-2.6408-1.896-4.8388-4.4012-5.3077v-7.08727c2.5428.04648 4.3049.38774 5.6379.88736 1.4122.52934 2.4588 1.27921 3.5137 2.25741l.1419.1315c1.0345.9587 1.3429 1.2445 1.5174 1.7094 1.3025 3.4696 3.1147 8.2936 4.2333 11.2705h-3.6326v2.8884l2 1.5552v-2.4436h1.6325c1.397 0 2.3646-1.3931 1.8732-2.7008-1.1184-2.9767-2.9313-7.8022-4.234-11.2726-.349-.9296-1.0249-1.5504-1.8746-2.33069-.0969-.08897-.196-.18002-.2972-.27384-2.3634-2.1915-5.0556-3.68367-11.1165-3.68367-11.7925 0-14.79815 7.8752-14.7981 11.975.00007 5.7671 3.68312 10.241 5.4094 12.0334zm8.9937-6.208c1.8788 0 3.4012-1.5226 3.4012-3.4s-1.5224-3.4-3.4012-3.4-3.4011 1.5226-3.4011 3.4 1.5223 3.4 3.4011 3.4z" fill-rule="evenodd"/></g></svg>