<svg fill="none" height="48" viewBox="0 0 48 48" width="48" xmlns="http://www.w3.org/2000/svg"><path clip-rule="evenodd" d="m30.0002 9.40545c0-.29765.3406-.49366.6356-.36555l3.3644 1.4601-3.3644 1.4602c-.295.1279-.6356-.0679-.6356-.3657zm4 1.09455 3.3645-1.4601c.2949-.12811.6355.0679.6355.36555v2.18905c0 .2978-.3406.4936-.6355.3657zm.0002 3.75c-1.3807 0-2.5 1.1193-2.5 2.5s1.1193 2.5 2.5 2.5 2.5-1.1193 2.5-2.5-1.1193-2.5-2.5-2.5zm-4.5 2.5c0-2.4853 2.0147-4.5 4.5-4.5s4.5 2.0147 4.5 4.5c0 1.7415-.9892 3.2519-2.4364 4h.4364c.8359 0 1.6164.4178 2.0801 1.1133l4 6c.7659 1.1488.4554 2.7009-.6934 3.4668-.5884.3923-1.2826.5022-1.9228.3618l.9305 1.8609.7236 1.4472h-1.618-1v2.25c0 1.3807-1.1193 2.5-2.5 2.5s-2.5-1.1193-2.5-2.5c0 1.3807-1.1193 2.5-2.5 2.5s-2.5-1.1193-2.5-2.5v-2.25h-1-1.6181l.7236-1.4472.9305-1.8609c-.6402.1404-1.3344.0305-1.9228-.3618-1.1488-.7659-1.4592-2.318-.6934-3.4668l4-6c.4637-.6955 1.2443-1.1133 2.0802-1.1133h.4364c-1.4472-.7481-2.4364-2.2585-2.4364-4zm.118 16.25h.382 1v1 3.25c0 .2761.2238.5.5.5.2761 0 .5-.2239.5-.5v-3.25-1h1 2 1v1 3.25c0 .2761.2238.5.5.5.2761 0 .5-.2239.5-.5v-3.25-1h1 .3819l-1.2764-2.5528-.1055-.2111v-.2361-1.7958-3.3028l1.832 2.7481 1.252 1.8778c.1531.2298.4636.2919.6933.1387.2298-.1532.2919-.4636.1387-.6934l-4-6c-.0927-.139-.2488-.2226-.416-.2226h-5c-.1672 0-.3233.0836-.4161.2226l-4 6c-.1531.2298-.091.5402.1387.6934.2298.1532.5402.0911.6934-.1387l1.2519-1.8778 1.8321-2.7481v3.3028 1.7958.2361l-.1056.2111zm-17.6181-16.2217c0-1.3807 1.1193-2.5 2.5-2.5s2.5 1.1193 2.5 2.5-1.1193 2.5-2.5 2.5-2.5-1.1193-2.5-2.5zm2.5-4.5c-2.4853 0-4.5 2.0147-4.5 4.5 0 1.7415.9892 3.2519 2.4364 4h-.9364c-.8359 0-1.61649.4178-2.08016 1.1133l-4 6c-.76588 1.1488-.45545 2.701.69338 3.4668.90587.604 2.06255.5387 2.88675-.0792v5.9991c0 1.3807 1.11933 2.5 2.50003 2.5s2.5-1.1193 2.5-2.5v-4h1v4c0 1.3807 1.1193 2.5 2.5 2.5s2.5-1.1193 2.5-2.5v-5.9991c.8242.6179 1.9808.6832 2.8867.0792 1.1488-.7658 1.4593-2.318.6934-3.4668l-4-6c-.4637-.6955-1.2443-1.1133-2.0801-1.1133h-.9364c1.4471-.7481 2.4364-2.2585 2.4364-4 0-2.4853-2.0148-4.5-4.5-4.5zm-3.4161 10.7227c.0928-.1391.2489-.2227.4161-.2227h6c.1671 0 .3233.0836.416.2227l4 6c.1532.2297.0911.5402-.1387.6933-.2297.1532-.5402.0911-.6934-.1386l-1.2519-1.8779-1.832-2.7481v3.3028 9.0458c0 .2762-.2239.5-.5.5-.2762 0-.5-.2238-.5-.5v-5-1h-1-3-1v1 5c0 .2762-.2239.5-.5.5-.2762 0-.5-.2238-.5-.5v-9.0458-3.3028l-1.83208 2.7481-1.25193 1.8779c-.15318.2297-.46361.2918-.69338.1386-.22976-.1531-.29185-.4636-.13867-.6933z" fill="#333" fill-rule="evenodd"/></svg>