<svg fill="none" height="48" viewBox="0 0 48 48" width="48" xmlns="http://www.w3.org/2000/svg" xmlns:xlink="http://www.w3.org/1999/xlink"><clipPath id="a"><path d="m0 0h48v48h-48z"/></clipPath><g clip-path="url(#a)"><g stroke="#333" stroke-width="2"><path d="m20.3393 15.1583-.0097.01-1.5619 1.6151c-.7536.7794-1.7912 1.2194-2.8753 1.2194h-.0054-.0053-.0053-.0053-.0053-.0054-.0053-.0053-.0053-.0054-.0053-.0053-.0053-.0053-.0054-.0053-.0053-.0053-.0054-.0053-.0053-.0053-.0054-.0053-.0053-.0054-.0053-.0053-.0053-.0054-.0053-.0053-.0053-.0054-.0053-.0053-.0053-.0054-.0053-.0053-.0053-.0053-.0054-.0053-.0053-.0053-.0053-.0054-.0053-.0053-.0053-.0053-.0054-.0053-.0053-.0053-.0053-.0053-.0053-.0053-.0054-.0053-.0053-.0053-.0053-.0053-.0053-.0053-.0053-.0053-.0053-.0053-.0053-.0053-.0053-.0053-.0053-.0052-.0053-.0053-.0053-.0053-.0053-.0053-.0052-.0053-.0053-.0053-.0052-.0053-.0053-.0052-.0053-.0053-.0052-.0053-.0053-.0052-.0053-.0052-.0053-.0052-.0053-.0052-.0053-.0052-.0052-.0053-.0052-.0052-.0053-.0052-.0052-.0052-.0053-.0052-.0052-.0052-.0052-.0052-.0052-.0052-.0052-.0052-.0052-.0052-.0052-.0052-.0052-.0052-.0052-.0051-.0052-.0052-.0051-.0052-.0052-.0051-.0052-.0051-.0052-.0051-.0052-.0051-.0052-.0051-.0051-.0052-.0051-.0051-.0051-.0051-.0052-.0051-.0051-.0051-.0051-.0051-.0051-.005-.0051-.0051-.0051-.0051-.005-.0051-.0051-.005-.0051-.005-.0051-.005-.005-.0051-.005-.005-.0051-.005-.005-.005-.005-.005-.005-.005-.005-.005-.005-.005-.0049-.005-.005-.0049-.005-.0049-.005-.0049-.005-.0049-.0049-.0049-.005-.0049-.0049-.0049-.0049-.0049-.0049-.0049-.0049-.0048-.0049-.0049-.0048-.0049-.0049-.0048-.0048-.0049-.0048-.0048-.0049-.0048-.0048-.0048-.0048-.0048-.0048-.0048-.0048-.0047-.0048-.0048-.0047-.0048-.0047-.0048-.0047-.0047-.0048-.0047-.0047-.0047-.0047-.0047-.0047-.0047-.0046-.0047-.0047-.0046-.0047-.0047-.0046-.0046-.0047-.0046-.0046-.0046-.0046-.0046-.0046-.0046-.0046-.0046-.0045-.0046-.0046-.0045-.0046-.0045-.0045-.0046-.0045-.0045-.0045-.0045-.0045-.0045-.0044-.0045-.0045-.0044-.0045-.0044-.0045-.0044-.0044-.0044-.0045-.0044-.0044-.0043-.0044-.0044-.0044-.0043-.0044-.0043-.0044-.0043-.0043-.0043-.0044-.0043-.0043-.0042-.0043-.0043-.0043-.0042-.0043-.0042-.0043-.0042-.0042-.0042-.0042-.0042-.0042-.0042-.0042-.0041-.0042-.0041-.0042-.0041-.0041-.0042-.0041-.0041-.0041-.0041-.004-.0041-.0041-.004-.0041-.004-.004-.0041-.004-.004-.004-.004-.0039-.004-.004-.0039-.004-.0039-.0039-.004-.0039-.0039-.0039-.0039-.0038-.0039-.0039-.0038-.0039-.0038-.0038-.0038-.0038-.0038-.0038-.0038-.0038-.0037-.0038-.0037-.0038-.0037-.0037-.0037-.0037-.0037-.0037-.0036-.0037-.0036-.0037-.0036-.0036-.0036-.0036-.0036-.0036-.0036-.0035-.0036-.0035-.0036-.0035-.0035-.0035-.0035-.0035-.0035-.0034-.0035-.0035-.0034-.0034-.0034-.0034-.0034-.0034-.0034-.0034-.0033-.0034-.0033-.0033-.0033-.0033-.0033-.0033-.0033-.0032-.0033-.0032-.0033-.0032-.0032-.0032-.0032-.0032-.0031-.0032-.0031-.0032-.0031-.0031-.0031-.0031-.0031-.0031-.003-.0031-.003-.003-.003-.003-.003-.003-.003-.0029-.003-.0029-.003-.0029-.0029-.0029-.0029-.0028-.0029-.0028-.0029-.0028-.0028-.0028-.0028-.0028-.0027-.0028-.0027-.0028-.0027-.0027-.0027-.0027-.0026-.0027-.0026-.0027-.0026-.0026-.0026-.0026-.0026-.0025-.0026-.0025-.0026-.0025-.0025-.0025-.0025-.0024-.0025-.0024-.0024-.0025-.0024-.0024-.0023-.0024-.0024-.0023-.0023-.0024-.0023-.0022-.0023-.0023-.0022-.0023-.0022-.0022-.0022c-.7456 0-1.35-.6044-1.35-1.35s.6044-1.35 1.35-1.35h2.2988c.2662 0 .5214-.1061.7091-.2949l1.7434-1.7533c.5257-.5287 1.3805-.5312 1.9092-.0055l.6943-.6982-.6943.6982c.5287.5258.5311 1.3805.0054 1.9092z" stroke-linecap="round" stroke-linejoin="round"/><path d="m34.7208 7c0 1.6569-1.3431 3-3 3-1.6568 0-3-1.34312-3-3 0-1.6568 1.3432-3 3-3 1.6569 0 3 1.34318 3 3z"/><path d="m30.9484 14.9527.2941.3002h.4202 1.7392c.7574 0 1.3713.6139 1.3713 1.3712 0 .7567-.6127 1.3701-1.369 1.3711-1.1086.0014-2.2831.0027-2.7388.0028-.0009-.0001-.0018-.0001-.0028-.0002-.0281-.0028-.0679-.0058-.1155-.0058h-.013l-.0131.0004c-.143.0037-.2854-.0223-.418-.0763-.1328-.0542-.2528-.1351-.3525-.2377l.0001-.0001-.0096-.0096-.6409-.6419-.72-.7211-.7074.7334c-.292.3027-.642.5437-1.029.7084-.3869.1647-.8029.2499-1.2235.2505h-1.7888l-.3158-6.3134h3.17c.8062 0 1.5785.3245 2.1428.9004z"/></g><path d="m22.0181 44.1119h1v1h-1zm0-5v-1h1v1zm-11 5v1h-1v-1zm0-5h-1v-1h1zm.4717 0 .8185-.5744 1.1049 1.5744h-1.9234zm-1.89372-2.2176.72482-.6889zm-2.50689-3.1514.86186-.5072zm-.5983-.9809.84939-.5278zm-1.4541-3.1861.99366-.1124zm.1691-10.4389-.94576-.3249zm3.60666.8124-.95628.2925zm.64858 4.5705-.9972.0749zm.60627 3.6735.8694-.4941zm3.1728 4.6109.8918-.4525-1.697 1.0454zm-2.0884-4.1162.8729-.4879.0098.0175.0091.018zm-.1511-1.6514-.9882-.153zm3.6461.8927.7233-.6907.0304.0319.0275.0344zm3.655 4.5724.7811-.6243.0112.0139.0106.0143zm1.2236 2.4842-.9993.0371zm.4422 4.1259v1h-.8855l-.1071-.879zm1.0505 5v-5h2v5zm-10-1h11v2h-11zm1-4v5h-2v-5zm-.5283 1h-.4717v-2h.4717zm-.8186-.4255c-.5557-.7919-1.14856-1.4178-1.79995-2.1032l1.44965-1.3778c.6433.6767 1.335 1.4024 1.9874 2.3321zm-1.79995-2.1032c-.85244-.8969-1.78612-1.8754-2.64392-3.3332l1.72372-1.0143c.72985 1.2404 1.51793 2.0733 2.36985 2.9697zm-2.64392-3.3332c-.19244-.327-.38864-.6429-.58583-.9602l1.69878-1.0556c.19541.3145.40418.6504.61077 1.0015zm-.58583-.9602c-.67087-1.0797-1.4508-2.2969-1.59837-3.6015l1.98732-.2248c.08638.7636.56299 1.5688 1.30983 2.7707zm-1.59837-3.6015c-.08238-.7283-.14162-3.0975-.13218-5.3817.00477-1.1552.02719-2.3157.07509-3.2688.02391-.4758.05466-.9102.0942-1.2712.03663-.3345.08863-.6888.17989-.9545l1.89152.6497c.00063-.0018-.00315.0092-.00985.0374-.00646.0273-.0141.0641-.02249.1117-.01692.0959-.03417.2201-.05096.3734-.03358.3067-.06192.698-.08483 1.1539-.04574.9102-.06788 2.0369-.07259 3.1766-.00952 2.3056.05254 4.5565.11952 5.1487zm.217-10.8762c.36543-1.0638 1.49421-1.7506 2.61937-1.7241 1.27363.03 2.38339.9145 2.88934 2.569l-1.91257.5849c-.31441-1.0282-.80212-1.1492-1.02382-1.1544-.37016-.0088-.63453.2396-.6808.3743zm5.50871.8449c.44406 1.4523.57606 3.2775.68946 4.788l-1.99437.1498c-.11847-1.5778-.24218-3.1577-.60766-4.3529zm.68946 4.788c.0602.8022.1144 1.5181.1982 2.1163.0882.6301.1923.9832.2803 1.138l-1.73881.9882c-.29275-.5151-.43222-1.2061-.52221-1.8489-.09446-.6748-.15304-1.4607-.21185-2.2438zm.4785 3.2543c.3468.6102 1.1096 1.7216 1.815 2.7176.3467.4896.6705.9387.9077 1.2655.1185.1633.2153.2959.2823.3875.0335.0458.0596.0813.0772.1053.0088.012.0155.0212.02.0272.0022.0031.0039.0053.005.0068.0005.0008.0009.0013.0012.0017.0001.0001.0002.0003.0002.0004h.0001s0 0-.8053.593c-.8052.5929-.8052.5929-.8053.5928 0 0 0-.0001-.0001-.0001-.0001-.0002-.0002-.0003-.0004-.0006-.0003-.0004-.0008-.001-.0014-.0019-.0012-.0017-.003-.0041-.0054-.0074-.0047-.0064-.0117-.0159-.0208-.0283-.0183-.0248-.0449-.0612-.0791-.1079-.0684-.0934-.1666-.2281-.2868-.3937-.2403-.3311-.5688-.7867-.9213-1.2845-.6932-.9787-1.51677-2.1728-1.92161-2.8852zm1.4117 5.5574-2.0885-4.1161 1.7836-.9049 2.0884 4.1161zm-1.1967-4.5686c-.8729.488-.8731.4875-.8734.4871 0-.0002-.0003-.0006-.0005-.0009-.0003-.0006-.0006-.0012-.001-.0019-.0007-.0012-.0014-.0025-.0021-.0038-.0015-.0027-.003-.0055-.0046-.0085-.0032-.0059-.0067-.0125-.0104-.0197-.0074-.0144-.0159-.0313-.025-.0507-.0184-.0388-.0399-.0876-.0626-.1462-.0455-.1174-.0959-.274-.1371-.4686-.0828-.3916-.12555-.9264-.0226-1.5912l1.9764.3061c-.0645.4167-.0317.7076.0029.8713.0176.0831.0363.1365.0453.1598.0045.0117.0067.0159.0051.0125-.0009-.0017-.0026-.0053-.0054-.0109-.0015-.0027-.0032-.006-.0052-.0097-.001-.0018-.0021-.0038-.0032-.0059-.0006-.0011-.0012-.0022-.0018-.0033-.0003-.0005-.0006-.0011-.0009-.0017-.0002-.0003-.0004-.0007-.0005-.0008-.0003-.0005-.0005-.0009-.8734.487zm-1.1393-1.8044c.1198-.7738.5933-1.6322 1.1754-2.1481.2845-.2522.7529-.5616 1.3406-.5321.6845.0344 1.1404.4944 1.3887.9985l-1.7942.8837c-.0267-.0542-.0259-.0284.031.0161.067.0524.1653.0937.2742.0992.1798.009.2117-.0798.0863.0313-.1009.0894-.2255.2444-.3341.4423-.1087.1982-.1713.3848-.1915.5152zm3.9047-1.6817c.2521.5118.6112 1.0208.923 1.4154.1531.1939.2889.3528.3854.4621.0481.0545.0861.0963.1112.1235.0125.0136.0218.0235.0275.0296.0028.003.0047.005.0057.0061.0005.0005.0008.0008.0008.0008s-.0001-.0001-.0002-.0002-.0001-.0001-.0002-.0002-.0001-.0002-.0002-.0002c-.0001-.0001-.0001-.0002-.7234.6905-.7232.6906-.7233.6905-.7234.6904 0-.0001-.0001-.0002-.0002-.0003s-.0003-.0003-.0005-.0005c-.0004-.0004-.0008-.0008-.0013-.0013-.001-.0011-.0022-.0024-.0037-.004-.003-.0031-.0069-.0073-.0118-.0125-.0098-.0104-.0233-.0249-.0402-.0433-.0339-.0367-.0813-.089-.1395-.1548-.116-.1315-.2759-.3186-.4554-.5459-.3536-.4476-.8078-1.0814-1.1478-1.7715zm1.5108 2.103 3.6549 4.5725-1.5622 1.2487-3.655-4.5725zm2.8738 5.1968c.8029-.5961.803-.5959.8031-.5958 0 0 .0001.0001.0002.0002.0001.0002.0003.0004.0004.0006.0004.0005.0008.001.0013.0017.0009.0013.0022.003.0037.0051.0031.0042.0073.0098.0125.017.0104.0143.025.0344.0432.0598.0363.0508.0872.1229.1479.2116.1207.1767.2832.4238.4483.7034.1635.2769.339.6014.4787.9308.1318.311.2686.71.2836 1.1127l-1.9986.0742c-.0014-.0374-.0257-.1689-.1263-.4062-.0929-.2189-.2212-.4604-.3595-.6945-.1367-.2315-.2739-.4404-.3775-.592-.0515-.0753-.094-.1355-.1229-.1759-.0144-.0201-.0254-.0353-.0325-.045-.0035-.0048-.006-.0082-.0075-.0102-.0007-.0009-.0011-.0015-.0013-.0018-.0001-.0001-.0001-.0001-.0001-.0001l.0002.0002c0 .0001.0001.0001.0001.0002 0 0 .0001.0001.803-.596zm2.2229 2.4471c.0212.5713.2797 2.7633.4356 4.042l-1.9853.242c-.1487-1.2197-.4237-3.5298-.4489-4.2098zm1.4934 5.163h-2.0505v-2h2.0505z" fill="#333"/><path d="m25.9819 44.1119h-1v1h1zm0-5v-1h-1v1zm11 5v1h1v-1zm0-5h1v-1h-1zm-.4717 0-.8185-.5744-1.1049 1.5744h1.9234zm1.8937-2.2176-.7248-.6889zm2.5069-3.1514-.8618-.5072zm.5983-.9809-.8494-.5278zm1.4541-3.1861-.9937-.1124zm-.1691-10.4389.9458-.3249zm-3.6067.8124.9563.2925zm-.6485 4.5705.9972.0749zm-.6063 3.6735-.8694-.4941zm-3.1728 4.6109-.8918-.4525 1.697 1.0454zm2.0884-4.1162-.8729-.4879-.0098.0175-.0091.018zm.1511-1.6514.9882-.153zm-3.6461.8927-.7233-.6907-.0304.0319-.0275.0344zm-3.655 4.5724-.7811-.6243-.0112.0139-.0106.0143zm-1.2236 2.4842.9993.0371zm-.4422 4.1259v1h.8855l.1071-.879zm-1.0505 5v-5h-2v5zm10-1h-11v2h11zm-1-4v5h2v-5zm.5283 1h.4717v-2h-.4717zm.8186-.4255c.5557-.7919 1.1486-1.4178 1.8-2.1032l-1.4497-1.3778c-.6433.6767-1.335 1.4024-1.9874 2.3321zm1.7999-2.1032c.8525-.8969 1.7862-1.8754 2.644-3.3332l-1.7237-1.0143c-.7299 1.2404-1.518 2.0733-2.3699 2.9697zm2.644-3.3332c.1924-.327.3886-.6429.5858-.9602l-1.6988-1.0556c-.1954.3145-.4042.6504-.6107 1.0015zm.5858-.9602c.6709-1.0797 1.4508-2.2969 1.5984-3.6015l-1.9874-.2248c-.0863.7636-.5629 1.5688-1.3098 2.7707zm1.5984-3.6015c.0824-.7283.1416-3.0975.1321-5.3817-.0047-1.1552-.0271-2.3157-.075-3.2688-.0239-.4758-.0547-.9102-.0942-1.2712-.0367-.3345-.0887-.6888-.1799-.9545l-1.8915.6497c-.0007-.0018.0031.0092.0098.0374.0065.0273.0141.0641.0225.1117.0169.0959.0342.2201.0509.3734.0336.3067.062.698.0849 1.1539.0457.9102.0679 2.0369.0726 3.1766.0095 2.3056-.0526 4.5565-.1196 5.1487zm-.217-10.8762c-.3655-1.0638-1.4942-1.7506-2.6194-1.7241-1.2736.03-2.3834.9145-2.8893 2.569l1.9125.5849c.3144-1.0282.8022-1.1492 1.0238-1.1544.3702-.0088.6346.2396.6809.3743zm-5.5087.8449c-.4441 1.4523-.5761 3.2775-.6895 4.788l1.9944.1498c.1184-1.5778.2422-3.1577.6076-4.3529zm-.6895 4.788c-.0602.8022-.1144 1.5181-.1982 2.1163-.0882.6301-.1923.9832-.2803 1.138l1.7388.9882c.2928-.5151.4322-1.2061.5222-1.8489.0945-.6748.1531-1.4607.2119-2.2438zm-.4785 3.2543c-.3468.6102-1.1096 1.7216-1.815 2.7176-.3467.4896-.6705.9387-.9077 1.2655-.1185.1633-.2153.2959-.2823.3875-.0335.0458-.0596.0813-.0772.1053-.0088.012-.0155.0212-.02.0272-.0022.0031-.0039.0053-.005.0068-.0005.0008-.0009.0013-.0012.0017-.0001.0001-.0002.0003-.0002.0004-.0001 0-.0001 0-.0001 0s0 0 .8053.593c.8052.5929.8052.5929.8053.5928 0 0 0-.0001.0001-.0001.0001-.0002.0002-.0003.0004-.0006.0003-.0004.0008-.001.0014-.0019.0012-.0017.003-.0041.0054-.0074.0047-.0064.0117-.0159.0208-.0283.0183-.0248.0449-.0612.0791-.1079.0684-.0934.1666-.2281.2868-.3937.2403-.3311.5688-.7867.9213-1.2845.6932-.9787 1.5168-2.1728 1.9216-2.8852zm-1.4117 5.5574 2.0885-4.1161-1.7836-.9049-2.0884 4.1161zm1.1967-4.5686c.8729.488.8731.4875.8734.4871 0-.0002.0003-.0006.0005-.0009.0003-.0006.0006-.0012.001-.0019.0007-.0012.0014-.0025.0021-.0038.0015-.0027.003-.0055.0046-.0085.0032-.0059.0067-.0125.0104-.0197.0074-.0144.0159-.0313.025-.0507.0184-.0388.0399-.0876.0626-.1462.0455-.1174.0959-.274.1371-.4686.0828-.3916.1256-.9264.0226-1.5912l-1.9764.3061c.0645.4167.0317.7076-.0029.8713-.0176.0831-.0363.1365-.0453.1598-.0045.0117-.0067.0159-.0051.0125.0009-.0017.0026-.0053.0054-.0109.0015-.0027.0032-.006.0052-.0097.001-.0018.0021-.0038.0032-.0059.0006-.0011.0012-.0022.0018-.0033.0003-.0005.0006-.0011.0009-.0017.0002-.0003.0004-.0007.0005-.0008.0003-.0005.0005-.0009.8734.487zm1.1393-1.8044c-.1198-.7738-.5933-1.6322-1.1754-2.1481-.2845-.2522-.7529-.5616-1.3406-.5321-.6845.0344-1.1404.4944-1.3887.9985l1.7942.8837c.0267-.0542.0259-.0284-.031.0161-.067.0524-.1653.0937-.2742.0992-.1798.009-.2117-.0798-.0863.0313.1009.0894.2255.2444.3341.4423.1087.1982.1713.3848.1915.5152zm-3.9047-1.6817c-.2521.5118-.6112 1.0208-.923 1.4154-.1531.1939-.2889.3528-.3854.4621-.0481.0545-.0861.0963-.1112.1235-.0125.0136-.0218.0235-.0275.0296-.0028.003-.0047.005-.0057.0061-.0005.0005-.0008.0008-.0008.0008s.0001-.0001.0002-.0002.0001-.0001.0002-.0002.0001-.0002.0002-.0002c.0001-.0001.0001-.0002.7234.6905.7232.6906.7233.6905.7234.6904 0-.0001.0001-.0002.0002-.0003l.0005-.0005.0013-.0013c.001-.0011.0022-.0024.0037-.004.003-.0031.0069-.0073.0118-.0125.0098-.0104.0233-.0249.0402-.0433.0339-.0367.0813-.089.1395-.1548.116-.1315.2759-.3186.4554-.5459.3536-.4476.8078-1.0814 1.1478-1.7715zm-1.5108 2.103-3.6549 4.5725 1.5622 1.2487 3.655-4.5725zm-2.8738 5.1968c-.8029-.5961-.803-.5959-.8031-.5958 0 0-.0001.0001-.0002.0002-.0001.0002-.0003.0004-.0004.0006-.0004.0005-.0008.001-.0013.0017-.0009.0013-.0022.003-.0037.0051-.0031.0042-.0073.0098-.0125.017-.0104.0143-.025.0344-.0432.0598-.0363.0508-.0872.1229-.1479.2116-.1207.1767-.2832.4238-.4483.7034-.1635.2769-.339.6014-.4787.9308-.1318.311-.2686.71-.2836 1.1127l1.9986.0742c.0014-.0374.0257-.1689.1263-.4062.0929-.2189.2212-.4604.3595-.6945.1367-.2315.2739-.4404.3775-.592.0515-.0753.094-.1355.1229-.1759.0144-.0201.0254-.0353.0325-.045.0035-.0048.006-.0082.0075-.0102.0007-.0009.0011-.0015.0013-.0018.0001-.0001.0001-.0001.0001-.0001-.0001.0001-.0001.0001-.0002.0002 0 .0001-.0001.0001-.0001.0002 0 0-.0001.0001-.803-.596zm-2.2229 2.4471c-.0212.5713-.2797 2.7633-.4356 4.042l1.9853.242c.1487-1.2197.4237-3.5298.4489-4.2098zm-1.4934 5.163h2.0505v-2h-2.0505z" fill="#333"/></g></svg>