<svg fill="none" height="48" viewBox="0 0 48 48" width="48" xmlns="http://www.w3.org/2000/svg"><path clip-rule="evenodd" d="m21.0001 9c0-1.65685 1.3431-3 3-3 1.6568 0 3 1.34315 3 3 0 1.6569-1.3432 3-3 3-1.6569 0-3-1.3431-3-3zm3-5c-2.7615 0-5 2.23858-5 5 0 1.9791 1.1498 3.6896 2.8179 4.5h-.162c-2.0118 0-3.8276 1.2056-4.6082 3.0597l-2.4289 5.7685c-.4846 1.151-.2241 2.4808.659 3.3638.6563.6563 1.5578.9676 2.4481.8873v.0309.0362.0364.0365.0365.0367.0367.0368.037.037.0371.0372.0373.0374.0375.0376.0376.0378.0378.0379.038.0381.0382.0382.0384.0384.0385.0385.0387.0387.0388.0389.039.039.0391.0392.0392.0393.0394.0395.0395.0396.0397.0397.0398.0399.0399.04.0401.0401.0402.0402.0403.0404.0404.0405.0405.0406.0406.0407.0408.0408.0408.041.0409.041.0411.0411.0412.0412.0412.0413.0414.0414.0414.0415.0415.0415.0416.0417.0416.0417.0418.0418.0418.0419.0418.042.0419.042.042.0421.0421.0421.0421.0422.0422.0422.0422.0423.0423.0423.0423.0424.0423.0424.0424.0425.0424.0425.0425.0425.0425.0425.0425.0426.0425.0426.0426.0426.0426.0426.0426.0426.0426.0427.0426.0426.0427.0426.0426.0427.0426.0426.0427.0426.0426.0426.0427.0426.0426.0426.0425.0426.0426.0425.0426.0425.0425.0425.0425.0425.0424.0425.0424.0424.0424.0423.0424.0423.0423.0423.0422.0423.0422.0421.0422.0421.0421.0421.042.042.042.0419.0419.0419.0418.0418.0418.0417.0417.0417.0416.0416.0415.0415.0414.0414.0414.0413.0413.0412.0412.0411.0411.0411.0409.041.0409.0408.0408.0407.0407.0406.0406.0405.0404.0404.0403.0403.0402.0401.0401.0401.0399.0399.0398.0398.0397.0396.0396.0395.0394.0394.0392.0393.0391.0391.0389.039.0388.0388.0386.0387.0385.0384.0384.0383.0382.0381.0381.0379.0379.0378.0377.0376.0375.0374.0374.0372.0372.0371.0369.0369.0368.0367.0366.0365.0364.0363.0362.0362.036.0359.0358.0357.0356.0355.0354.0353.0352.035.035.0349.0347.0347.0345.0344.0343.0342.0341.0339.0339.0337.0336.0335.0334.0333.0331.033.0329.0328.0326.0326.0324.0323.0321.032.0319.0318.0316.0315.0314.0313.0311.031.0308.0307.0306.0304.0304.0301.03.0299.0298.0296.0295.0293.0292.029.0289.0288.0286.0284.0283.0282.028.0279.0277.0275.0275.0272.0271.027.0268.0266.0265.0263.0262.026.0258.0257.0255.0254.0252.025.0249.0247.0245.0244.0242.0241.0238.0237.0236.0233.0232.023.0229.0226.0225.0223.0222.0219.0218.0216.0214.0213.0211.0208.0207.0206.0203.0201.02.0198.0196.0194.0192.019.0188.0187.0184.0183.018.0179.0177.0175.0172.0171.0169.0167.0165.0163.0161.0159.0156.0155.0153.0151.0148.0147.0145.0142.014.0139.0136.0134.0132.013.0127.0126.0123.0122.0119.0117.0114.0113.011.0108.0106.0104.0102.0099.0097.0095.0092.0091.0088.0086.0083.0081.0079.0077.0074.0072.0069.0068.0065.0062.006.0058.0056.0053.0051.0048.0046.0043.0041.0039.0036.0034.0031.0029.0026.0024.0022.0018.0017.0014.0011.0009.0006.0004c0 .0001 0 .0002 1 .0002h-1c0 1.4513 1.1833 2.6345 2.6346 2.6345s2.6346-1.1832 2.6346-2.6345v-10.1729h2.0098v10.1729c0 1.4513 1.1832 2.6345 2.6345 2.6345s2.6346-1.1832 2.6346-2.6345h-1c1 0 1-.0001 1-.0002v-.0003-.0006-.0008-.001-.0012-.0015-.0017-.0019-.0022-.0023-.0026-.0028-.003-.0033-.0035-.0036-.0039-.0042-.0043-.0046-.0047-.005-.0052-.0054-.0056-.0059-.006-.0063-.0064-.0067-.0069-.0071-.0073-.0075-.0078-.0079-.0081-.0084-.0085-.0088-.0089-.0092-.0093-.0096-.0097-.01-.0102-.0103-.0106-.0107-.011-.0111-.0114-.0115-.0118-.0119-.0121-.0123-.0126-.0127-.0128-.0131-.0133-.0135-.0136-.0139-.014-.0142-.0144-.0146-.0148-.0149-.0152-.0153-.0155-.0157-.0159-.016-.0163-.0164-.0166-.0167-.017-.0171-.0173-.0175-.0177-.0178-.018-.0182-.0183-.0185-.0187-.0189-.019-.0193-.0193-.0196-.0197-.0199-.02-.0202-.0204-.0206-.0207-.0209-.021-.0212-.0214-.0215-.0217-.0218-.022-.0222-.0223-.0225-.0227-.0227-.023-.0231-.0233-.0234-.0236-.0237-.0239-.024-.0242-.0243-.0245-.0246-.0248-.0249-.0251-.0252-.0254-.0255-.0257-.0258-.0259-.0261-.0263-.0263-.0266-.0266-.0268-.027-.027-.0273-.0273-.0275-.0276-.0278-.0279-.0281-.0281-.0283-.0285-.0285-.0287-.0289-.0289-.0291-.0293-.0293-.0295-.0296-.0297-.0299-.03-.0301-.0303-.0303-.0305-.0306-.0307-.0309-.031-.0311-.0312-.0313-.0315-.0315-.0317-.0318-.032-.032-.0321-.0323-.0324-.0325-.0326-.0327-.0328-.033-.033-.0332-.0332-.0334-.0335-.0336-.0337-.0338-.0339-.034-.0341-.0342-.0344-.0344-.0345-.0346-.0348-.0348-.0349-.0351-.0351-.0352-.0353-.0354-.0355-.0357-.0357-.0357-.0359-.036-.0361-.0361-.0363-.0363-.0365-.0365-.0366-.0367-.0368-.0369-.0369-.037-.0372-.0372-.0373-.0374-.0374-.0376-.0376-.0377-.0378-.0378-.038-.038-.0381-.0381-.0383-.0383-.0384-.0385-.0385-.0387-.0387-.0387-.0388-.039-.0389-.0391-.0391-.0392-.0392-.0393-.0394-.0395-.0395-.0396-.0396-.0397-.0398-.0398-.0399-.04-.04-.0401-.0401-.0402-.0402-.0404-.0403-.0404-.0405-.0406-.0405-.0407-.0407-.0407-.0408-.0409-.0409-.0409-.041-.0411-.0411-.0411-.0412-.0412-.0413-.0413-.0414-.0414-.0415-.0415-.0415-.0416-.0417-.0416-.0417-.0418-.0418-.0418-.0419-.0419-.0419-.042-.042-.042-.0421-.0421-.0421-.0422-.0422-.0422-.0423-.0423-.0423-.0424-.0423-.0425-.0424-.0424-.0425-.0425-.0426-.0425-.0426-.0426-.0426-.0427-.0426-.0427-.0427-.0427-.0428-.0427-.0428-.0428-.0428-.0428-.0428-.0429-.0428-.0429-.0429-.0429-.0429-.0429-.043-.0429-.0429-.043-.0429-.043-.043-.043-.0429-.043-.043-.043-.043-.043-.043-.043-.043-.043-.043-.043-.0429-.043-.043-.043-.043-.0429-.043-.0429-.043-.0429-.043-.0429-.0429-.0429-.0429-.0429-.0428-.0429-.0428-.0428-.0429-.0427-.0428-.0428-.0427-.0428-.0427-.0427-.0426-.0427-.0426-.0426-.0426-.0426-.0425-.0425-.0425-.0425-.0424-.0424-.0424-.0424-.0423-.0423-.0423-.0422-.0422-.0422-.0422-.0421-.0421-.042-.0421-.0419-.042-.0419-.0419-.0418-.0418-.0418-.0417-.0417-.0416-.0416-.0416-.0415-.0415-.0414-.0414-.0413-.0413-.0413-.0412-.0412-.0411-.0411-.041-.0409-.041-.0408-.0408-.0408-.0407-.0407-.0406-.0405-.0405-.0405-.0404-.0403-.0052c.8891.0747 1.7869-.2388 2.4412-.8932.8873-.8872 1.149-2.2233.6621-3.3797l-2.4251-5.7595c-.7806-1.8541-2.5964-3.0597-4.6081-3.0597h-.1621c1.6681-.8104 2.818-2.5209 2.818-4.5 0-2.76142-2.2386-5-5-5zm4.274 21.8953v.0257.0392.0394.0394.0395.0395.0396.0397.0397.0398.0398.04.0399.0401.0401.0401.0402.0403.0403.0404.0405.0405.0405.0406.0407.0407.0408.0408.0408.041.0409.041.0411.0411.0412.0412.0413.0413.0413.0414.0414.0415.0415.0416.0416.0416.0417.0417.0418.0418.0418.0419.0419.042.0419.0421.042.0421.0421.0422.0422.0422.0422.0423.0423.0423.0424.0424.0424.0424.0425.0425.0425.0425.0426.0426.0426.0426.0427.0426.0427.0427.0428.0427.0428.0428.0427.0429.0428.0428.0429.0428.0429.0429.0429.0429.0429.043.0429.043.0429.043.0429.043.043.043.043.0429.043.043.043.043.043.043.043.043.043.043.043.0429.043.043.043.0429.043.0429.0429.043.0429.0429.0429.0429.0429.0428.0429.0428.0428.0428.0428.0428.0427.0428.0427.0427.0427.0426.0427.0426.0426.0426.0425.0426.0425.0425.0424.0424.0425.0423.0424.0423.0423.0423.0422.0422.0422.0421.0421.0421.042.042.042.0419.0419.0419.0418.0418.0418.0417.0416.0417.0416.0415.0415.0415.0414.0414.0413.0413.0412.0412.0411.0411.0411.041.0409.0409.0409.0408.0407.0407.0407.0405.0406.0405.0404.0403.0404.0402.0402.0401.0401.04.04.0399.0398.0398.0397.0396.0396.0395.0395.0394.0393.0392.0392.0391.0391.0389.039.0388.0387.0387.0387.0385.0385.0384.0383.0383.0381.0381.038.038.0378.0378.0377.0376.0376.0374.0374.0373.0372.0372.037.0369.0369.0368.0367.0366.0365.0365.0363.0363.0361.0361.036.0359.0357.0357.0357.0355.0354.0353.0352.0351.0351.0349.0348.0348.0346.0345.0344.0344.0342.0341.034.0339.0338.0337.0336.0335.0334.0332.0332.033.033.0328.0327.0326.0325.0324.0323.0321.032.032.0318.0317.0315.0315.0313.0312.0311.031.0309.0307.0306.0305.0303.0303.0301.03.0299.0297.0296.0295.0293.0293.0291.0289.0289.0287.0285.0285.0283.0281.0281.0279.0278.0276.0275.0273.0273.027.027.0268.0266.0266.0263.0263.0261.0259.0258.0257.0255.0254.0252.0251.0249.0248.0246.0245.0243.0242.024.0239.0237.0236.0234.0233.0231.023.0227.0227.0225.0223.0222.022.0218.0217.0215.0214.0212.021.0209.0207.0206.0204.0202.02.0199.0197.0196.0193.0193.019.0189.0187.0185.0183.0182.018.0178.0177.0175.0173.0171.017.0167.0166.0164.0163.016.0159.0157.0155.0153.0152.0149.0148.0146.0144.0142.014.0139.0136.0135.0133.0131.0128.0127.0126.0123.0121.0119.0118.0115.0114.0111.011.0107.0106.0103.0102.01.0097.0096.0093.0092.0089.0088.0085.0084.0081.0079.0078.0075.0073.0071.0069.0067.0064.0063.006.0059.0056.0054.0052.005.0047.0046.0043.0042.0039.0036.0035.0033.003.0028.0026.0023.0022.0019.0017.0015.0012.001.0008.0006.0003c0 .0001 0 .0002 1 .0002h-1c0 .3467-.2878.6345-.6346.6345-.3467 0-.6345-.2878-.6345-.6345v-11.1729-1h-1-4.0098-1v1 11.1729c0 .3467-.2879.6345-.6346.6345s-.6346-.2878-.6346-.6345h-1c1 0 1-.0001 1-.0002v-.0004-.0006-.0009-.0011-.0014-.0017-.0018-.0022-.0024-.0026-.0029-.0031-.0034-.0036-.0039-.0041-.0043-.0046-.0048-.0051-.0053-.0056-.0058-.006-.0062-.0065-.0068-.0069-.0072-.0074-.0077-.0079-.0081-.0083-.0086-.0088-.0091-.0092-.0095-.0097-.0099-.0102-.0104-.0106-.0108-.011-.0113-.0114-.0117-.0119-.0122-.0123-.0126-.0127-.013-.0132-.0134-.0136-.0139-.014-.0142-.0145-.0147-.0148-.0151-.0153-.0155-.0156-.0159-.0161-.0163-.0165-.0167-.0169-.0171-.0172-.0175-.0177-.0179-.018-.0183-.0184-.0187-.0188-.019-.0192-.0194-.0196-.0198-.02-.0201-.0203-.0206-.0207-.0208-.0211-.0213-.0214-.0216-.0218-.0219-.0222-.0223-.0225-.0226-.0229-.023-.0232-.0233-.0236-.0237-.0238-.0241-.0242-.0244-.0245-.0247-.0249-.025-.0252-.0254-.0255-.0257-.0258-.026-.0262-.0263-.0265-.0266-.0268-.027-.0271-.0272-.0275-.0275-.0277-.0279-.028-.0282-.0283-.0284-.0286-.0288-.0289-.029-.0292-.0293-.0295-.0296-.0298-.0299-.03-.0301-.0304-.0304-.0306-.0307-.0308-.031-.0311-.0313-.0314-.0315-.0316-.0318-.0319-.032-.0321-.0323-.0324-.0326-.0326-.0328-.0329-.033-.0331-.0333-.0334-.0335-.0336-.0337-.0339-.0339-.0341-.0342-.0343-.0344-.0345-.0347-.0347-.0349-.035-.035-.0352-.0353-.0354-.0355-.0356-.0357-.0358-.0359-.036-.0362-.0362-.0363-.0364-.0365-.0366-.0367-.0368-.0369-.0369-.0371-.0372-.0372-.0374-.0374-.0375-.0376-.0377-.0378-.0379-.0379-.0381-.0381-.0382-.0383-.0384-.0384-.0385-.0387-.0386-.0388-.0388-.039-.0389-.0391-.0391-.0393-.0392-.0394-.0394-.0395-.0396-.0396-.0397-.0398-.0398-.0399-.0399-.0401-.0401-.0401-.0402-.0403-.0403-.0404-.0404-.0405-.0406-.0406-.0407-.0407-.0408-.0408-.0409-.041-.0409-.0411-.0411-.0411-.0412-.0412-.0413-.0413-.0414-.0414-.0414-.0415-.0415-.0416-.0416-.0417-.0417-.0417-.0418-.0418-.0418-.0419-.0419-.0419-.042-.042-.042-.0421-.0421-.0421-.0422-.0421-.0422-.0423-.0422-.0423-.0423-.0423-.0424-.0423-.0424-.0424-.0424-.0425-.0424-.0425-.0425-.0425-.0425-.0425-.0426-.0425-.0426-.0426-.0425-.0426-.0426-.0426-.0427-.0426-.0426-.0426-.0427-.0426-.0426-.0427-.0426-.0426-.0427-.0426-.0426-.0427-.0426-.0426-.0426-.0426-.0426-.0426-.0426-.0426-.0425-.0426-.0425-.0425-.0425-.0425-.0425-.0425-.0424-.0425-.0424-.0424-.0423-.0424-.0423-.0423-.0423-.0423-.0422-.0422-.0422-.0422-.0421-.0421-.0421-.0421-.042-.042-.0419-.042-.0418-.0419-.0418-.0418-.0418-.0417-.0416-.0417-.0416-.0415-.0415-.0415-.0414-.0414-.0414-.0413-.0412-.0412-.0412-.0411-.0411-.041-.0409-.041-.0408-.0408-.0408-.0407-.0406-.0406-.0405-.0405-.0404-.0404-.0403-.0402-.0402-.0401-.0401-.04-.0399-.0399-.0398-.0397-.0397-.0396-.0395-.0395-.0394-.0393-.0392-.0392-.0391-.039-.039-.0389-.0388-.0387-.0387-.0385-.0385-.0384-.0384-.0382-.0382-.0381-.038-.0379-.0378-.0378-.0376-.0376-.0375-.0374-.0373-.0372-.0371-.037-.037-.0368-.0367-.0367-.0365-.0365-.0364-.0362-.0362-.0361-.0359-.0359-.0358-.0356-.0356-.0354-.0354-.0352-.0351-.0351-.0349-.0348-.0347-.0346-.0344-.0344-.0343-.0341-.034-.0133l4.1599-1.8908zm8.2648-6.9422c2.5113 2.5112 2.5113 6.5827 0 9.094l1.4143 1.4142c3.2922-3.2923 3.2922-8.6302 0-11.9225zm-25.0817 9.0899c-2.50903-2.5091-2.50903-6.5771 0-9.0862l-1.4142-1.4142c-3.29009 3.2901-3.29009 8.6245 0 11.9146zm2.107-6.979c-1.3454 1.3454-1.3454 3.5267 0 4.8721l-1.4142 1.4142c-2.1264-2.1265-2.1264-5.5741 0-7.7005zm20.8638 0c1.3453 1.3454 1.3453 3.5267 0 4.8721l1.4142 1.4142c2.1264-2.1265 2.1264-5.5741 0-7.7005zm-12.772-5.564c-1.2071 0-2.2965.7234-2.7649 1.8358l-2.4289 5.7685c-.169.4015-.0782.8654.2299 1.1735.3158.3158.7944.4026 1.201.2178l7.694-3.4973c.5369-.244.7478-.8968.4552-1.4088-.2578-.4511-.8177-.6302-1.2894-.4125l-4.8338 2.231-.8381-1.816 4.8338-2.2309c1.4136-.6525 3.0915-.1157 3.864 1.2361.8768 1.5345.2448 3.4906-1.3641 4.2219l-.0845.0384 3.7664 1.6537c.4098.1799.888.09 1.2045-.2265.3123-.3122.4044-.7824.233-1.1894l-2.425-5.7595c-.4684-1.1124-1.5579-1.8358-2.7649-1.8358z" fill="#333" fill-rule="evenodd"/></svg>