<svg fill="none" height="48" viewBox="0 0 48 48" width="48" xmlns="http://www.w3.org/2000/svg"><path clip-rule="evenodd" d="m34.5224 5.15771c-.2762 0-.5.22386-.5.5v1.34223h1v-1.34223c0-.27614-.2239-.5-.5-.5zm.5 3.84223h-1v1.49986.4995l-.3994.3c-.3666.2754-.6006.7105-.6006 1.2006 0 .8285.6716 1.5 1.5 1.5s1.5-.6715 1.5-1.5c0-.4901-.234-.9252-.6006-1.2006l-.3994-.3v-.4995zm-3-3.34223c0-1.38071 1.1193-2.5 2.5-2.5s2.5 1.11929 2.5 2.5v4.39279c.6175.6305 1 1.4954 1 2.4494 0 1.933-1.567 3.5-3.5 3.5s-3.5-1.567-3.5-3.5c0-.954.3825-1.8189 1-2.4494zm-10.5978 3.34223c0-1.65686 1.3432-3 3-3 1.6569 0 3 1.34314 3 3s-1.3431 2.99996-3 2.99996c-1.6568 0-3-1.3431-3-2.99996zm3-5c-2.7614 0-5 2.23858-5 5 0 1.97906 1.1499 3.68966 2.818 4.49996h-.1621c-2.0117 0-3.8275 1.2057-4.6082 3.0598l-2.4288 5.7685c-.4846 1.1509-.2241 2.4807.6589 3.3638.6563.6563 1.5578.9675 2.4482.8873v.0308.0363.0363.0365.0365.0367.0367.0369.0369.0371.0371.0372.0373.0374.0375.0375.0377.0377.0379.0379.038.0381.0381.0383.0383.0384.0385.0386.0386.0388.0388.0388.039.039.0391.0392.0392.0394.0394.0394.0395.0396.0397.0397.0398.0399.0399.04.0401.0401.0402.0402.0403.0404.0404.0405.0405.0406.0407.0407.0407.0408.0409.0409.041.041.041.0411.0412.0412.0413.0413.0413.0414.0414.0415.0415.0416.0416.0416.0417.0417.0417.0418.0418.0419.0419.0419.042.042.042.042.0421.0421.0421.0422.0422.0422.0423.0422.0423.0423.0423.0424.0424.0424.0424.0424.0425.0424.0425.0425.0425.0425.0426.0425.0426.0425.0426.0426.0426.0426.0426.0426.0427.0426.0426.0427.0426.0426.0427.0426.0426.0427.0426.0426.0427.0426.0426.0426.0426.0426.0426.0425.0426.0426.0425.0425.0426.0425.0424.0425.0425.0424.0424.0424.0424.0424.0423.0423.0423.0423.0423.0422.0422.0422.0421.0421.0421.0421.042.042.042.0419.042.0418.0419.0418.0417.0418.0417.0416.0416.0416.0415.0415.0415.0414.0413.0414.0412.0413.0411.0412.0411.041.041.0409.0409.0408.0408.0407.0407.0406.0406.0405.0404.0404.0404.0402.0402.0402.0401.04.04.0398.0399.0397.0397.0397.0395.0395.0394.0394.0393.0392.0391.0391.039.0389.0388.0388.0387.0386.0385.0385.0383.0383.0382.0382.038.0379.0379.0378.0377.0376.0375.0375.0373.0373.0371.0371.037.0369.0368.0367.0366.0365.0364.0363.0362.0361.036.0359.0358.0357.0356.0355.0354.0353.0352.0351.0349.0349.0348.0346.0345.0344.0343.0342.0341.034.0338.0338.0336.0335.0333.0333.0331.0331.0329.0327.0327.0325.0324.0323.0321.0321.0319.0317.0317.0315.0314.0312.0311.031.0309.0307.0305.0305.0303.0302.03.0299.0297.0296.0295.0293.0292.0291.0289.0287.0286.0285.0283.0281.028.0279.0277.0276.0274.0272.0271.027.0268.0266.0265.0263.0262.026.0258.0257.0256.0253.0252.0251.0248.0247.0246.0243.0243.024.0239.0237.0235.0234.0231.0231.0228.0227.0225.0223.0221.022.0218.0216.0214.0212.0211.0209.0207.0205.0203.0202.0199.0198.0196.0194.0192.019.0189.0186.0185.0182.0181.0178.0177.0175.0173.0171.0169.0166.0165.0163.0161.0159.0157.0155.0152.0151.0149.0146.0145.0142.0141.0138.0136.0134.0132.013.0128.0125.0124.0121.0119.0117.0115.0112.0111.0108.0106.0104.0101.0099.0097.0095.0093.009.0088.0086.0083.0082.0078.0077.0074.0072.007.0067.0065.0063.006.0058.0055.0053.0051.0048.0046.0044.0041.0038.0036.0034.0031.0029.0027.0024.0021.0019.0016.0014.0012.0008.0007.0004c0 .0001 0 .0001 1 .0001h-1c0 1.4513 1.1832 2.6346 2.6345 2.6346s2.6346-1.1833 2.6346-2.6346v-10.1729h2.0098v10.1729c0 1.4513 1.1833 2.6346 2.6346 2.6346s2.6346-1.1833 2.6346-2.6346h-1c1 0 1 0 1-.0001v-.0004-.0005-.0008-.001-.0013-.0015-.0017-.0019-.0021-.0024-.0026-.0028-.003-.0032-.0035-.0037-.0039-.0041-.0044-.0045-.0048-.005-.0052-.0054-.0056-.0058-.0061-.0062-.0065-.0067-.0069-.0071-.0073-.0075-.0077-.008-.0081-.0083-.0086-.0087-.009-.0091-.0094-.0096-.0097-.01-.0101-.0104-.0105-.0108-.011-.0111-.0114-.0115-.0117-.012-.0121-.0123-.0125-.0127-.0129-.0131-.0133-.0134-.0137-.0138-.0141-.0142-.0144-.0146-.0147-.015-.0151-.0154-.0155-.0157-.0158-.0161-.0162-.0164-.0166-.0168-.017-.0171-.0173-.0175-.0176-.0179-.018-.0181-.0184-.0185-.0187-.0189-.019-.0192-.0194-.0195-.0198-.0198-.0201-.0202-.0204-.0205-.0207-.0209-.0211-.0212-.0213-.0216-.0216-.0219-.022-.0222-.0223-.0225-.0226-.0228-.023-.0231-.0232-.0235-.0235-.0238-.0238-.0241-.0241-.0244-.0245-.0246-.0248-.0249-.0251-.0252-.0254-.0255-.0256-.0258-.026-.0261-.0262-.0264-.0265-.0267-.0268-.0269-.0271-.0272-.0274-.0275-.0276-.0278-.0279-.028-.0282-.0283-.0284-.0286-.0287-.0288-.029-.0291-.0292-.0294-.0295-.0296-.0297-.0299-.03-.0301-.0302-.0304-.0305-.0306-.0307-.0309-.0309-.0311-.0312-.0314-.0314-.0316-.0317-.0318-.0319-.032-.0322-.0323-.0323-.0325-.0326-.0328-.0328-.0329-.0331-.0331-.0333-.0334-.0335-.0336-.0336-.0339-.0339-.034-.0341-.0342-.0343-.0345-.0345-.0346-.0347-.0349-.0349-.035-.0351-.0353-.0353-.0354-.0355-.0356-.0357-.0358-.0359-.036-.036-.0362-.0363-.0363-.0364-.0366-.0366-.0367-.0367-.0369-.037-.037-.0371-.0372-.0373-.0374-.0375-.0375-.0376-.0377-.0378-.0379-.0379-.038-.0381-.0382-.0383-.0383-.0384-.0385-.0385-.0386-.0387-.0388-.0388-.0389-.039-.039-.0392-.0391-.0393-.0393-.0394-.0394-.0396-.0395-.0397-.0397-.0398-.0398-.0399-.0399-.0401-.04-.0402-.0402-.0402-.0403-.0404-.0404-.0405-.0405-.0406-.0406-.0407-.0408-.0408-.0408-.0409-.041-.041-.041-.0411-.0412-.0412-.0412-.0413-.0413-.0414-.0414-.0415-.0415-.0415-.0416-.0416-.0417-.0417-.0417-.0418-.0419-.0418-.0419-.042-.0419-.042-.0421-.042-.0422-.0421-.0422-.0422-.0422-.0423-.0423-.0423-.0423-.0424-.0424-.0424-.0425-.0425-.0425-.0425-.0426-.0426-.0426-.0426-.0426-.0427-.0427-.0427-.0427-.0427-.0428-.0428-.0427-.0428-.0429-.0428-.0428-.0429-.0429-.0429-.0429-.0429-.0429-.0429-.0429-.043-.0429-.043-.043-.0429-.043-.043-.043-.043-.043-.043-.0429-.043-.043-.043-.043-.043-.043-.043-.043-.043-.043-.0429-.043-.043-.0429-.043-.0429-.0429-.0429-.043-.0429-.0428-.0429-.0429-.0428-.0429-.0428-.0428-.0428-.0428-.0427-.0428-.0427-.0427-.0427-.0427-.0426-.0427-.0426-.0426-.0425-.0426-.0425-.0425-.0424-.0425-.0424-.0424-.0423-.0424-.0423-.0422-.0423-.0422-.0422-.0421-.0422-.042-.0421-.042-.042-.0419-.042-.0418-.0419-.0418-.0417-.0418-.0416-.0417-.0416-.0415-.0416-.0414-.0415-.0414-.0413-.0413-.0413-.0412-.0411-.0411-.0411-.041-.041-.0409-.0409-.0408-.0408-.0407-.0406-.0406-.0406-.0405-.0404-.0404-.0403-.0053c.8891.0747 1.7868-.2388 2.4412-.8931.8872-.8873 1.149-2.2233.6621-3.3797l-2.4251-5.7595c-.7807-1.8541-2.5965-3.0598-4.6082-3.0598h-.162c1.6681-.8103 2.8179-2.5209 2.8179-4.49996 0-2.76142-2.2386-5-5-5zm5.2741 37.36526h-1c0 .3467-.2879.6346-.6346.6346s-.6346-.2879-.6346-.6346v-11.1729-1h-1-4.0098-1v1 11.1729c0 .3467-.2878.6346-.6346.6346-.3467 0-.6345-.2879-.6345-.6346h-1c1 0 1 0 1-.0001v-.0004-.0007-.0008-.0012-.0014-.0016-.0019-.0021-.0024-.0027-.0029-.0031-.0034-.0036-.0038-.0041-.0044-.0046-.0048-.0051-.0053-.0055-.0058-.006-.0063-.0065-.0067-.007-.0072-.0074-.0077-.0078-.0082-.0083-.0086-.0088-.009-.0093-.0095-.0097-.0099-.0101-.0104-.0106-.0108-.0111-.0112-.0115-.0117-.0119-.0121-.0124-.0125-.0128-.013-.0132-.0134-.0136-.0138-.0141-.0142-.0145-.0146-.0149-.0151-.0152-.0155-.0157-.0159-.0161-.0163-.0165-.0166-.0169-.0171-.0173-.0175-.0177-.0178-.0181-.0182-.0185-.0186-.0189-.019-.0192-.0194-.0196-.0198-.0199-.0202-.0203-.0205-.0207-.0209-.0211-.0212-.0214-.0216-.0218-.022-.0221-.0223-.0225-.0227-.0228-.0231-.0231-.0234-.0235-.0237-.0239-.024-.0243-.0243-.0246-.0247-.0248-.0251-.0252-.0253-.0256-.0257-.0258-.026-.0262-.0263-.0265-.0266-.0268-.027-.0271-.0272-.0274-.0276-.0277-.0279-.028-.0281-.0283-.0285-.0286-.0287-.0289-.0291-.0292-.0293-.0295-.0296-.0297-.0299-.03-.0302-.0303-.0305-.0305-.0307-.0309-.031-.0311-.0312-.0314-.0315-.0317-.0317-.0319-.0321-.0321-.0323-.0324-.0325-.0327-.0327-.0329-.0331-.0331-.0333-.0333-.0335-.0336-.0338-.0338-.034-.0341-.0342-.0343-.0344-.0345-.0346-.0348-.0349-.0349-.0351-.0352-.0353-.0354-.0355-.0356-.0357-.0358-.0359-.036-.0361-.0362-.0363-.0364-.0365-.0366-.0367-.0368-.0369-.037-.0371-.0371-.0373-.0373-.0375-.0375-.0376-.0377-.0378-.0379-.0379-.038-.0382-.0382-.0383-.0383-.0385-.0385-.0386-.0387-.0388-.0388-.0389-.039-.0391-.0391-.0392-.0393-.0394-.0394-.0395-.0395-.0397-.0397-.0397-.0399-.0398-.04-.04-.0401-.0402-.0402-.0402-.0404-.0404-.0404-.0405-.0406-.0406-.0407-.0407-.0408-.0408-.0409-.0409-.041-.041-.0411-.0412-.0411-.0413-.0412-.0414-.0413-.0414-.0415-.0415-.0415-.0416-.0416-.0416-.0417-.0418-.0417-.0418-.0419-.0418-.042-.0419-.042-.042-.042-.0421-.0421-.0421-.0421-.0422-.0422-.0422-.0423-.0423-.0423-.0423-.0423-.0424-.0424-.0424-.0424-.0424-.0425-.0425-.0424-.0425-.0426-.0425-.0425-.0426-.0426-.0425-.0426-.0426-.0426-.0426-.0426-.0426-.0427-.0426-.0426-.0427-.0426-.0426-.0427-.0426-.0426-.0427-.0426-.0426-.0427-.0426-.0426-.0426-.0426-.0426-.0426-.0425-.0426-.0425-.0426-.0425-.0425-.0425-.0425-.0424-.0425-.0424-.0424-.0424-.0424-.0424-.0423-.0423-.0423-.0422-.0423-.0422-.0422-.0422-.0421-.0421-.0421-.042-.042-.042-.042-.0419-.0419-.0419-.0418-.0418-.0417-.0417-.0417-.0416-.0416-.0416-.0415-.0415-.0414-.0414-.0413-.0413-.0413-.0412-.0412-.0411-.041-.041-.041-.0409-.0409-.0408-.0407-.0407-.0407-.0406-.0405-.0405-.0404-.0404-.0403-.0402-.0402-.0401-.0401-.04-.0399-.0399-.0398-.0397-.0397-.0396-.0395-.0394-.0394-.0394-.0392-.0392-.0391-.039-.039-.0388-.0388-.0388-.0386-.0386-.0385-.0384-.0383-.0383-.0381-.0381-.038-.0379-.0379-.0377-.0377-.0375-.0375-.0374-.0373-.0372-.0371-.0371-.0369-.0369-.0367-.0367-.0365-.0365-.0363-.0363-.0362-.036-.036-.0359-.0357-.0357-.0355-.0355-.0353-.0353-.0351-.035-.0349-.0348-.0347-.0346-.0345-.0344-.0342-.0342-.034-.0133l4.1598-1.8908 4.3883 1.9267v.0257.0393.0393.0394.0395.0395.0396.0397.0397.0398.0399.0399.04.04.0401.0402.0402.0403.0403.0404.0404.0405.0406.0406.0406.0407.0408.0408.0409.0409.041.041.0411.0411.0411.0412.0413.0413.0413.0414.0415.0414.0416.0415.0416.0417.0416.0418.0417.0418.0419.0418.042.0419.042.042.0421.042.0422.0421.0422.0422.0423.0422.0423.0424.0423.0424.0424.0425.0424.0425.0425.0426.0425.0426.0426.0427.0426.0427.0427.0427.0427.0428.0427.0428.0428.0428.0428.0429.0428.0429.0429.0428.0429.043.0429.0429.0429.043.0429.043.043.0429.043.043.043.043.043.043.043.043.043.043.0429.043.043.043.043.043.043.0429.043.043.0429.043.0429.0429.0429.0429.0429.0429.0429.0429.0428.0428.0429.0428.0427.0428.0428.0427.0427.0427.0427.0427.0426.0426.0426.0426.0426.0425.0425.0425.0425.0424.0424.0424.0423.0423.0423.0423.0422.0422.0422.0421.0422.042.0421.042.0419.042.0419.0418.0419.0418.0417.0417.0417.0416.0416.0415.0415.0415.0414.0414.0413.0413.0412.0412.0412.0411.041.041.041.0409.0408.0408.0408.0407.0406.0406.0405.0405.0404.0404.0403.0402.0402.0402.04.0401.0399.0399.0398.0398.0397.0397.0395.0396.0394.0394.0393.0393.0391.0392.039.039.0389.0388.0388.0387.0386.0385.0385.0384.0383.0383.0382.0381.038.0379.0379.0378.0377.0376.0375.0375.0374.0373.0372.0371.037.037.0369.0367.0367.0366.0366.0364.0363.0363.0362.036.036.0359.0358.0357.0356.0355.0354.0353.0353.0351.035.0349.0349.0347.0346.0345.0345.0343.0342.0341.034.0339.0339.0336.0336.0335.0334.0333.0331.0331.0329.0328.0328.0326.0325.0323.0323.0322.032.0319.0318.0317.0316.0314.0314.0312.0311.0309.0309.0307.0306.0305.0304.0302.0301.03.0299.0297.0296.0295.0294.0292.0291.029.0288.0287.0286.0284.0283.0282.028.0279.0278.0276.0275.0274.0272.0271.0269.0268.0267.0265.0264.0262.0261.026.0258.0256.0255.0254.0252.0251.0249.0248.0246.0245.0244.0241.0241.0238.0238.0235.0235.0232.0231.023.0228.0226.0225.0223.0222.022.0219.0216.0216.0213.0212.0211.0209.0207.0205.0204.0202.0201.0198.0198.0195.0194.0192.019.0189.0187.0185.0184.0181.018.0179.0176.0175.0173.0171.017.0168.0166.0164.0162.0161.0158.0157.0155.0154.0151.015.0147.0146.0144.0142.0141.0138.0137.0134.0133.0131.0129.0127.0125.0123.0121.012.0117.0115.0114.0111.011.0108.0105.0104.0101.01.0097.0096.0094.0091.009.0087.0086.0083.0081.008.0077.0075.0073.0071.0069.0067.0065.0062.0061.0058.0056.0054.0052.005.0048.0045.0044.0041.0039.0037.0035.0032.003.0028.0026.0024.0021.0019.0017.0015.0013.001.0008.0005.0004c0 .0001 0 .0001 1 .0001zm7.2648-22.4122c2.5112 2.5112 2.5112 6.5828 0 9.094l1.4142 1.4142c3.2923-3.2923 3.2923-8.6301 0-11.9224zm-25.0817 9.0899c-2.50907-2.5091-2.50907-6.577 0-9.0861l-1.4142-1.4142c-3.29013 3.2901-3.29013 8.6244 0 11.9145zm2.107-6.979c-1.3454 1.3454-1.3454 3.5267 0 4.8721l-1.4142 1.4142c-2.1265-2.1264-2.1265-5.5741 0-7.7005zm20.8637 0c1.3454 1.3454 1.3454 3.5267 0 4.8721l1.4142 1.4142c2.1265-2.1264 2.1265-5.5741 0-7.7005zm-12.772-5.564c-1.207 0-2.2965.7234-2.7649 1.8359l-2.4288 5.7685c-.1691.4015-.0782.8654.2298 1.1734.3159.3159.7945.4027 1.2011.2178l7.694-3.4972c.5369-.2441.7478-.8968.4552-1.4089-.2578-.4511-.8177-.6302-1.2895-.4125l-4.8337 2.231-.8381-1.8159 4.8337-2.231c1.4137-.6524 3.0916-.1157 3.8641 1.2362.8768 1.5344.2448 3.4905-1.3641 4.2218l-.0845.0384 3.7664 1.6537c.4098.18.888.09 1.2045-.2264.3122-.3123.4043-.7825.233-1.1894l-2.4251-5.7595c-.4684-1.1125-1.5579-1.8359-2.7649-1.8359z" fill="#333" fill-rule="evenodd"/></svg>