<svg fill="none" height="48" viewBox="0 0 48 48" width="48" xmlns="http://www.w3.org/2000/svg"><g fill="#333"><path clip-rule="evenodd" d="m37.2645 26.0759-.1657-.3532c-.7144-1.5234-.9231-3.1375-.9865-4.5694-.0319-.7216-.0277-1.4348-.0206-2.0905.001-.0901.002-.1789.003-.2664.0065-.5658.0125-1.0797.0009-1.5746-.049-1.9497-.6626-3.848-1.7725-5.4731-1.2642-1.5687-2.9158-2.80172-4.8036-3.58015l-.0328-.01353-.0323-.0147c-2.5553-1.16144-5.34-1.7611-8.1589-1.75565l-.0022.00001c-3.5472.0029-6.9406 1.38904-9.4356 3.84192-2.49378 2.4516-3.88617 5.767-3.88334 9.2147.00167 2.0443.59653 4.3755 1.63002 6.5322 1.03592 2.1618 2.43932 3.9964 3.91672 5.133l.7797.5998.0073 8.9155c.3252.402.9567.8982 1.9037 1.3283 1.1588.5263 2.3235.739 2.9974.6834l.0812-.0067.0815-.0001c1.9563-.0016 2.8713-.5551 3.265-.8917.1427-.122.2419-.2368.3084-.3272l-.0045-5.5354 2.4975.6433.0012.0004.001.0002.0013.0003.0121.003c.0155.0038.0422.0102.0793.0188.0742.0171.1897.0426.3405.0728.3023.0604.7423.1382 1.2726.2032 1.0767.132 2.4502.2014 3.7762.0058 1.3374-.1973 2.4518-.6373 3.2178-1.3715.7135-.6838 1.3411-1.8287 1.3393-3.9249l-.0014-1.7099 1.6812-.266.0013-.0002.0082-.0014c.0059-.0011.0145-.0026.0256-.0047.0109-.002.0243-.0046.04-.0077.0632-.0125.1611-.0332.2826-.0635.2488-.062.5668-.1567.8766-.2877.3218-.136.5532-.2772.6896-.3976.0275-.0242.0468-.0436.06-.0581-.0049-.0537-.0236-.1637-.0936-.3416-.1095-.2782-.2964-.5997-.5357-.9321-.2339-.325-.4827-.6119-.6764-.8198-.0954-.1024-.1738-.1818-.2255-.2329-.0132-.013-.0245-.0241-.0339-.0332-.009-.0087-.0162-.0157-.0215-.0207l-.0082-.0078-.0011-.001zm-12.3216 12.3775s.802.2066 2.0003.351c3.541.4268 10.5427.3109 10.5364-7.2823 0 0 3.3024-.5224 3.6354-2.4103.3329-1.8878-2.2054-4.2383-2.2054-4.2383-.864-1.8424-.8388-4.0128-.8151-6.0503.0066-.5633.013-1.1165.0005-1.6497-.059-2.3645-.8108-4.6623-2.1655-6.6184-1.4832-1.86191-3.4275-3.32006-5.6475-4.23552-2.8173-1.28051-5.8857-1.94091-8.9904-1.9349-4.0656.00333-7.9635 1.59169-10.836 4.41566-2.87257 2.82396-4.48451 6.65226-4.48124 10.64266.00393 4.8009 2.75739 10.5024 6.32724 13.2487l.007 8.494c1.014 2.1224 4.834 3.625 7.065 3.441 4.7382-.0038 5.5721-2.7401 5.5721-2.7401z" fill-rule="evenodd"/><path clip-rule="evenodd" d="m26.0678 21.1982c.7407 0 1.4643-.2278 2.076-.6538.6212.4252 1.3542.648 2.1022.6392l2.3761-.8819c.6696-.5629 1.1292-1.3433 1.302-2.2105.1729-.8672.0484-1.7687-.3526-2.5535s-1.0541-1.4053-1.8501-1.7577c-.1817-.8396-.6395-1.5906-1.2974-2.1283l-2.3193-.8279h-.2612c-.5158-.7677-1.2904-1.31528-2.1763-1.53869l-4.9727-.28511c-.8265.07004-1.6059.42165-2.2128.99824-.2867-.06894-.5802-.10468-.8748-.10652-.7133.00149-1.411.21348-2.0088.61048-.5977.397-1.07.9619-1.3599 1.6266l-1.8894 1.365c-.4701.6496-.7232 1.4361-.722 2.2436-.0046.3376.0393.6741.1306.9987-.4957.656-.7623 1.4621-.7573 2.2903-.0012.9605.3586 1.885 1.0054 2.5833.0521.6877.2878 1.3477.6813 1.9086.3936.561.93 1.0015 1.5514 1.2739.7159.4577 1.3222 1.0734 1.7741 1.8015.4519.7282.738 1.5505.8373 2.4063h4.8783v-3.9948c-.0009-.7093.1931-1.4046.5601-2.0071.3669-.6026.8921-1.0882 1.516-1.4017.3508-.1369.4371-.3212.5428-.547.0705-.1504.1496-.3193.3214-.505.1492.1039.2649.196.3651.2759.3109.2477.4744.3779 1.0345.3779zm2.8415-1.8277c.3407.2085.7335.334 1.144.3587l1.952-.7244c.3564-.351.5828-.7862.6724-1.2359.1005-.5047.0312-1.035-.2124-1.5117-.2459-.4814-.6639-.8934-1.2095-1.135l-.6177-.2735-.1577-.729c-.0925-.427-.3143-.8396-.6593-1.1714l-1.9132-.6828h-.698l-.3835-.5707c-.304-.4524-.7728-.8092-1.3419-.9767l-4.767-.2733c-.5441.0621-1.0388.2999-1.4141.6565l-.4775.4536-.6098-.1466c-.1998-.048-.405-.0733-.6115-.0749-.492.0019-.9645.1491-1.3597.4116-.3957.2627-.6879.6229-.8608 1.0194l-.1578.3617-1.9969 1.4427c-.2181.3619-.3254.7643-.3248 1.1618v.0126l-.0002.0125c-.0025.18.0209.3609.0707.5379l.2154.7665-.462.6114c-.305.4037-.4535.8763-.4507 1.3409l.0001.0059-.0001.0059c-.0006.5416.2011 1.0939.6097 1.5351l.3497.3776.0413.5448c.0299.3936.1654.7861.4091 1.1334.2447.3489.591.64 1.0122.8246l.0863.0379.0807.0515c.0934.0597.1854.1218.2759.186l-.0039.0034c1.7369 1.1991 2.474 2.9443 2.7241 3.8367h.391 1.2778.9185v-2.578c0-1.9533.9642-3.1521 1.4908-3.7197.4213-.4541 1.054-.8369 1.3177-.9715.0524-.1327.2311-.4772.5266-.7935s.6023-.6458.7187-.7709c.791.5114 1.4051 1.0251 1.4051 1.0251s.8186-.0509 1.1904-.2203c.2975-.1356.8161-.5121 1.0382-.6834z" fill-rule="evenodd" stroke="#333" stroke-width=".7"/><path d="m14.7816 20.4114 6.1156-.9577-3.9696-4.3959z"/><path d="m22.0859 12.4729-1.8105 3.3643 3.4276 1.7769 1.8106-3.3642z"/><path d="m33.978 23.9631c.0007.8284-.6703 1.5006-1.4987 1.5012-.8285.0007-1.5006-.6703-1.5013-1.4987-.0006-.8285.6704-1.5006 1.4988-1.5013.8284-.0006 1.5006.6704 1.5012 1.4988z"/><g clip-rule="evenodd" fill-rule="evenodd"><path d="m20.985 32.4738-4 .0033-.0016-2 4-.0033z"/><path d="m20.9883 36.4738-4 .0033-.0016-2 4-.0033z"/><path d="m20.9916 40.4738-4 .0033-.0016-2 4-.0033z"/></g></g></svg>