<svg fill="none" height="48" viewBox="0 0 48 48" width="48" xmlns="http://www.w3.org/2000/svg"><path clip-rule="evenodd" d="m32 16c0 4.4204-3.5796 8-8 8s-8-3.5796-8-8 3.5796-8 8-8 8 3.5796 8 8zm-8 10c5.525 0 10-4.475 10-10s-4.475-10-10-10-10 4.475-10 10 4.475 10 10 10zm7.4438 3.2515c-.2426-.0568-.4808-.1125-.7131-.1676l-3.8212 10.9161h13.0905v-5.5c0-1.0461-.7041-2.1472-2.3569-3.2324-.7342-.4821-1.9306-.9124-3.3324-1.3027-.9613-.2676-1.9452-.4978-2.8659-.7132zm-2.4087-1.3771-3.0351 8.6705v-.5449l-.5745-4.0214c.3686-.0776.6696-.3592.7639-.7361l.5-2c.1577-.6311-.3196-1.2425-.9702-1.2425h-3.4384c-.6506 0-1.128.6114-.9702 1.2425l.5 2c.0942.3769.3953.6585.7639.7361l-.5618 3.9322-3.0535-8.0481-.0208-.0422c-.3044-.6195-.9965-.9576-1.6754-.792-.3413.0832-.7168.1711-1.1135.2639l-.0004.0001c-.9376.2195-1.9936.4666-2.9962.7457-1.4133.3935-2.8768.8898-3.89378 1.5576-1.87258 1.2295-3.25912 2.8573-3.25912 4.9042v7.5h36v-7.5c0-2.0469-1.3865-3.6746-3.2591-4.9042-1.017-.6678-2.4805-1.1641-3.8938-1.5576-1.0026-.2791-2.0585-.5262-2.9961-.7457h-.0002c-.3968-.0929-.7725-.1808-1.1139-.2641-.6789-.1655-1.3709.1725-1.6753.792zm-11.7529 1.2064 4.1429 10.9192h-13.4251v-5.5c0-1.0461.70414-2.1472 2.3569-3.2324.7342-.4821 1.9306-.9124 3.3324-1.3026.9613-.2677 1.9452-.4979 2.8658-.7132.2475-.058.4904-.1148.7271-.171z" fill="#333" fill-rule="evenodd"/></svg>