<svg fill="none" height="48" viewBox="0 0 48 48" width="48" xmlns="http://www.w3.org/2000/svg"><g fill="#333"><path clip-rule="evenodd" d="m36.826 13.643-2.326-7.53192-2.326 7.53192-4.4999 2.1428 4.5197 2.1523 2.3062 6.5891 2.3062-6.5891 4.5198-2.1523zm-3 1.4285.674-2.1824.674 2.1824 1.5001.7143-1.4803.7049-.6938 1.9823-.6938-1.9823-1.4802-.7049z" fill-rule="evenodd"/><path d="m19 16 1-4 1 4 3 1-3 1-1 4-1-4-3-1z"/><path clip-rule="evenodd" d="m13 39.7493v.2468c0 1.1045-.8954 2-2 2h-3c-1.10457 0-2-.8955-2-2v-10.9954c0-1.1045.89543-2 2-2h3c.946 0 1.7386.6568 1.9467 1.5393 1.3244-.4773 2.8713-1.0454 3.3446-1.2612.402-.1831.8662-.2453 1.2519-.2676.4056-.0234.8264-.0072 1.1946.0213.3714.0287.7085.0716.9519.107.1222.0178.2222.0339.2927.0457.0353.006.0633.0108.0831.0144l.0235.0042.0069.0013.0036.0006.0179.0034 6.6888 1.5005.0418.0134.0114.0035.0461.0141c.0421.0127.106.0314.1884.0542.1651.0458.4025.1075.6855.1692.5749.1254 1.2991.2425 1.9744.2425.6239 0 1.2693.2325 1.6143.8644.2963.5425.2273 1.1382.1164 1.5507-.1381.5134-.4241 1.0537-.7877 1.5127.4907-.1851 1.0271-.4043 1.6029-.6405l.1231-.0506c1.623-.666 3.5475-1.4558 5.245-1.7365 1.9397-.3209 3.3515.3832 3.9915 1.6324.5697 1.1119.4374 2.5713-.42 3.4506-.2152.2207-.5431.4522-.8724.6658-.3516.228-.7847.4857-1.2659.7586-.9638.5467-2.1569 1.1751-3.3548 1.7826-2.372 1.203-4.8584 2.3729-5.6485 2.6622-.9156.3354-1.8991.3671-2.8449.3184-.5152-.0265-1.1137-.086-1.7086-.1452-.4298-.0427-.8576-.0853-1.2507-.115-1.9278-.1461-3.4074-.6166-4.7703-1.05l-.1657-.0527c-1.4076-.4468-2.7171-.8431-4.4521-.913-.3967-.016-1.1888.0131-1.9054.0479zm4.1208-10.6506c.0641-.0292.2341-.0732.5377-.0908.2836-.0164.6072-.006.925.0186.3146.0244.6054.0612.8183.0921.1058.0154.1911.0292.2488.0389.0289.0049.0507.0087.0648.0112l.0022.0004 6.5675 1.4733.0451.0137c.0546.0164.1323.0391.2295.0661.1941.0538.468.1248.7934.1958.5852.1277 1.3692.2624 2.1684.2852-.057.1617-.1535.3526-.2843.5427-.1596.232-.3349.4114-.4788.5141-.4166.2976-.7528.4221-.9569.4751-.1033.0268-.176.0361-.2119.0393l-.0133.0011-.0078.0004-5.362-.0648-.1914 1.9837.1793-.9838-.1783.984.0532.0096.1525.0274c.132.0237.3221.0575.5558.0984.467.0818 1.1085.192 1.806.3056 1.3744.224 3.031.4722 3.9709.5289.6491.0392 1.4051-.16 2.1082-.3948.7337-.2449 1.5625-.584 2.396-.926 1.7173-.7044 3.4659-1.4212 4.9355-1.6642 1.2704-.2102 1.7226.2539 1.8851.5711.2328.4545.1062.9597-.0719 1.1424-.0437.0448-.2012.1716-.5288.3841-.3053.198-.7006.434-1.1643.697-.9261.5252-2.0888 1.138-3.2727 1.7385-2.3915 1.2129-4.772 2.3263-5.4317 2.5679-.5342.1957-1.1944.2433-2.0542.199-.5079-.0261-.9897-.0751-1.515-.1286-.4246-.0432-.8777-.0892-1.3961-.1285-1.6918-.1282-2.978-.5368-4.3563-.9747l-.1256-.0399c-1.4276-.4532-2.9552-.9238-4.9768-1.0052-.4551-.0183-1.2653.0098-1.9859.0439v-7.1009c1.4055-.503 3.4871-1.2584 4.1208-1.5473zm2.7954-.9099.1833-.9831c.0002.0001 0 0-.1833.9831zm-8.9162.8119h-3v10.9954h3z" fill-rule="evenodd"/></g></svg>