<svg fill="none" height="48" viewBox="0 0 48 48" width="48" xmlns="http://www.w3.org/2000/svg"><g fill="#333"><g clip-rule="evenodd" fill-rule="evenodd"><path d="m17.3199 9.03191c-1.2496 1.72059-1.5221 3.63919-1.1887 4.65669.172.5248-.114 1.0897-.6389 1.2617-.5248.172-1.0897-.1141-1.2616-.6389-.5891-1.7978-.0365-4.3792 1.471-6.45478 1.5545-2.14038 4.1918-3.85662 7.9347-3.85662 3.8032 0 6.6384 1.56203 8.3759 3.63324 1.7007 2.02732 2.4004 4.62646 1.7464 6.67136-.1682.5261-.7311.8161-1.2571.6479-.526-.1683-.8161-.7311-.6478-1.2571.3899-1.2193.0159-3.1202-1.3738-4.77679-1.3528-1.61274-3.6245-2.91861-6.8436-2.91861-3.0622 0-5.1139 1.37611-6.3165 3.03191z"/><path d="m19 6c.5523 0 1 .44772 1 1v4c0 .5523-.4477 1-1 1s-1-.4477-1-1v-4c0-.55228.4477-1 1-1z"/><path d="m24 4c.5523 0 1 .44772 1 1v4c0 .55228-.4477 1-1 1s-1-.44772-1-1v-4c0-.55228.4477-1 1-1z"/><path d="m18.1254 29.6282c-.2283-.4678-.744-.7206-1.2468-.597-5.4041 1.328-10.8786 4.0359-10.8786 8.1095v4.8593 2h2 32 2v-2-4.8593c0-4.0736-5.4745-6.7815-10.8786-8.1095-.5028-.1236-1.0185.1292-1.2468.597h-4.0641c-.8887.0002-1.3412.0002-1.7857.0002-.4611-.0001-.9136-.0001-1.8355.0001zm7.6855 2c-.0002 0-.0003 0-.0004 0-.8943.0002-1.3445.0002-1.7865.0002-.4582-.0001-.9078-.0001-1.8342.0001h-.0006l-4.064-.0003-1.2494-.0001-.2302-.4717c-2.3223.6265-4.5128 1.4986-6.1294 2.568-1.82358 1.2063-2.5162 2.3751-2.5162 3.4163v4.8593h32v-4.8593c0-1.0412-.6926-2.21-2.5162-3.4163-1.6166-1.0694-3.8071-1.9415-6.1294-2.568l-.2302.4718h-1.2496z"/></g><path d="m16 35c0-.5523.4477-1 1-1s1 .4477 1 1v7c0 .5523-.4477 1-1 1s-1-.4477-1-1z"/><path d="m30 35c0-.5523.4477-1 1-1s1 .4477 1 1v7c0 .5523-.4477 1-1 1s-1-.4477-1-1z"/><path clip-rule="evenodd" d="m29 6c.5523 0 1 .44772 1 1v4c0 .5523-.4477 1-1 1s-1-.4477-1-1v-4c0-.55228.4477-1 1-1z" fill-rule="evenodd"/><path clip-rule="evenodd" d="m12.5684 15.7644c-.1772-1.2599.5662-2.4441 1.7673-3.5117l1.3287 1.4948c-1.049.9324-1.1493 1.4982-1.1155 1.7383.0354.2517.2877.6668 1.1852 1.1227 1.7545.8912 4.9364 1.3916 8.2659 1.3916s6.5114-.5004 8.2659-1.3916c.8976-.4559 1.1499-.871 1.1853-1.1227.0337-.2401-.0666-.8059-1.1155-1.7383l1.3287-1.4948c1.201 1.0676 1.9445 2.2518 1.7673 3.5116-.1756 1.2484-1.1889 2.0833-2.2601 2.6274-2.183 1.1088-5.7511 1.6084-9.1716 1.6084s-6.9886-.4996-9.1716-1.6084c-1.0712-.5441-2.0845-1.379-2.26-2.6273z" fill-rule="evenodd"/><path clip-rule="evenodd" d="m17 18c0 3.866 3.134 7 7 7s7-3.134 7-7h2c0 4.9706-4.0294 9-9 9s-9-4.0294-9-9z" fill-rule="evenodd"/></g></svg>