<svg fill="none" height="48" viewBox="0 0 48 48" width="48" xmlns="http://www.w3.org/2000/svg"><g clip-rule="evenodd" fill="#333" fill-rule="evenodd"><path d="m18 13.5v-5c0-.55228.4477-1 1-1s1 .44772 1 1v5c0 .5523-.4477 1-1 1s-1-.4477-1-1z"/><path d="m23 11.5v-3.5c0-.55228.4477-1 1-1s1 .44772 1 1v3.5c0 .5523-.4477 1-1 1s-1-.4477-1-1z"/><path d="m28 13.5v-4.5c0-.55228.4477-1 1-1s1 .44772 1 1v4.5c0 .5523-.4477 1-1 1s-1-.4477-1-1z"/><path d="m16.7054 17.4129c.2291-.1356.5028-.1741.7605-.1072 1.7557.456 4.1253.6943 6.5341.6943s4.7784-.2383 6.5341-.6943c.2577-.0669.5314-.0284.7605.1072.2291.1355.3947.3568.4602.6148.1603.6319.2452 1.2929.2452 1.9723 0 4.4183-3.5817 8-8 8s-8-3.5817-8-8c0-.6794.0849-1.3404.2452-1.9723.0655-.258.2311-.4793.4602-.6148zm1.3167 2.068c-.0146.1709-.0221.3441-.0221.5191 0 3.3137 2.6863 6 6 6s6-2.6863 6-6c0-.175-.0075-.3481-.0221-.5191-1.7852.35-3.895.5191-5.9779.5191s-4.1928-.1691-5.9779-.5191z"/><path d="m16.9504 12.9542c-.1694.7433-.1356 1.3438-.0057 1.7177.1811.5217-.0949 1.0916-.6166 1.2728-.5217.1811-1.0916-.0949-1.2728-.6166-.2891-.8326-.2789-1.8355-.0548-2.8184.2274-.9975.6906-2.0481 1.3962-3.00719 1.4259-1.93828 3.8442-3.50251 7.273-3.50251 3.4809 0 6.0798 1.42761 7.6749 3.30289 1.5523 1.82501 2.224 4.18461 1.6025 6.01811-.1773.5231-.7451.8034-1.2681.6261-.5231-.1773-.8034-.7451-.6261-1.2681.3269-.9644.0233-2.6048-1.2318-4.0803-1.2123-1.42525-3.2527-2.5987-6.1514-2.5987-2.7535 0-4.5891 1.22922-5.662 2.6877-.5438.7392-.8912 1.5378-1.0573 2.2665z"/><path d="m15.0514 13h.9486v1.7832l.0057.0074c-.0019.0015-.0038.0029-.0057.0044v.205h-.2518c-.7669.6574-.7517.9927-.746 1.0282.0129.0801.1662.4096 1.0649.8074 1.6865.7465 4.7423 1.1644 7.9329 1.1644s6.2464-.4179 7.9329-1.1644c.8987-.3978 1.052-.7273 1.0649-.8074.0057-.0355.0209-.3708-.746-1.0282h-.2518v-.205c-.0019-.0015-.0038-.0029-.0057-.0044l.0057-.0074v-1.7832h.9486l.2704.2094c1.1241.8707 1.9487 1.9265 1.7533 3.1374-.1888 1.1699-1.2459 1.8821-2.2299 2.3176-2.0788.9202-5.478 1.3356-8.7424 1.3356s-6.6635-.4154-8.7424-1.3356c-.984-.4355-2.0411-1.1477-2.2299-2.3176-.1954-1.2109.6292-2.2667 1.7533-3.1374z"/><path d="m31 35h-14v-4.0534c-2.1143.5101-4.183 1.2071-5.8384 2.049-1.1363.5779-1.97917 1.1748-2.51373 1.7445-.52467.5592-.64787.9725-.64787 1.26v4h32v-4c0-.2875-.1232-.7008-.6479-1.26-.5345-.5697-1.3774-1.1666-2.5137-1.7445-1.6554-.8419-3.7241-1.5389-5.8384-2.049zm0-6.1077c-.6719-.1534-1.3422-.2878-2-.4027v4.5104h-10v-4.5104c-.6578.1149-1.328.2493-2 .4027-5.4433 1.2426-11 3.7279-11 7.1078v6h36v-6c0-3.3799-5.5567-5.8652-11-7.1078z"/><path d="m13 40v-9h2v9z"/><path d="m34 40v-9h2v9z"/></g></svg>