<svg fill="none" height="48" viewBox="0 0 48 48" width="48" xmlns="http://www.w3.org/2000/svg"><g fill="#333"><path clip-rule="evenodd" d="m18 29.7767v-4.7767h2v4.7767c.0474.0312.1365.0756.28.1174.1702.0497.3539.0777.5043.0923.041.004.0778.0068.1091.0088-.0115-1.6098.074-4.346 2.3545-4.346 3.2896 0 5.6393 11.4824 4.2295 12.6541-1.4099 1.1716-4.2295.4686-5.6394-.9374-1.0753-1.0724-1.0468-3.4992-.9808-5.3697-.0687-.0031-.1598-.0088-.2665-.0192-.2246-.0218-.5409-.0667-.8707-.1629-.2158-.0629-.4714-.1574-.72-.3047-.2486.1473-.5042.2418-.72.3047-.3298.0962-.6461.1411-.8707.1629-.1148.0112-.2115.0169-.2817.0198-.0353.0015-.0642.0023-.0857.0027h-.0042c.0659 1.8701.0938 4.2946-.981 5.3664-1.4098 1.406-4.2295 2.109-5.6393.9374-1.40984-1.1717.9399-12.6541 4.2295-12.6541 2.2827 0 2.3661 2.7415 2.3545 4.3507h.0016c.0078-.0002.0218-.0005.0413-.0014.0391-.0016.0987-.005.1714-.0121.1504-.0146.3341-.0426.5043-.0923.1435-.0418.2326-.0862.28-.1174zm-3.2716-2.0649-.006-.0122c-.1482.1323-.3606.382-.6102.7956-.5293.8768-1.0276 2.1547-1.4127 3.5676-.3817 1.4001-.6182 2.8073-.6821 3.8871-.0228.3848-.0214.693-.0062.9241.1878.0309.464.0377.8451-.0362.721-.1398 1.4017-.5026 1.7882-.888.0009-.001.0285-.0297.0701-.1109.0438-.0854.0944-.212.143-.3902.0996-.3657.1627-.8435.1902-1.4203.0271-.5692.0171-1.169-.0024-1.7683-.005-.1521-.0108-.3102-.0168-.4695-.0158-.4264-.032-.8626-.032-1.2204 0-.1322.001-.2652.002-.3984v-.001c.0055-.7321.011-1.4695-.1475-2.1021-.0405-.1615-.0841-.2778-.1227-.3569zm.1016-.0954c.0021-.0012.0032-.0017.0031-.0016zm8.0662 2.5537c-.0055-.732-.011-1.4688.1475-2.1014.0405-.1615.0841-.2778.1226-.3569l.0061-.0122c.1482.1323.3605.382.6102.7956.5292.8768 1.0276 2.1547 1.4127 3.5676.3817 1.4001.6182 2.8073.6821 3.8871.0228.3848.0214.693.0061.9241-.1878.0309-.4639.0377-.845-.0362-.721-.1398-1.4017-.5026-1.7882-.888.0001 0-.0278-.0282-.0702-.1109-.0437-.0854-.0944-.212-.1429-.3902-.0996-.3657-.1627-.8435-.1902-1.4203-.0271-.5692-.0171-1.169.0024-1.7683.0049-.1521.0108-.3102.0167-.4695.0159-.4264.0321-.8626.0321-1.2204 0-.1326-.001-.2665-.002-.4001zm.1686-2.5537c-.0021-.0012-.0032-.0017-.0032-.0016z" fill-rule="evenodd"/><path d="m22 18c.5523 0 1-.4477 1-1s-.4477-1-1-1-1 .4477-1 1 .4477 1 1 1z"/><path d="m20 16c0 .5523-.4477 1-1 1s-1-.4477-1-1 .4477-1 1-1 1 .4477 1 1z"/><path clip-rule="evenodd" d="m26.7214 22.0726c-.2511-.0304-.5042-.0482-.7583-.0532h-3.2402v-.9466h1.0597c.7141 0 1.3992-.268 1.9056-.7455.1005-.0948.1922-.1962.2749-.3032l.0036-.0047c.258-.3357.4263-.7262.49-1.1377.0182-.1177.0278-.2371.0285-.3574v-1.6748c0 .0695.4374.0284.6472.0087.0539-.005.0927-.0087.1053-.0087.1871-.0285.3564-.1216.4755-.2614s.1794-.3164.1694-.4959c-.0454-.2702-.1388-.5312-.2764-.7718l-.3686-.8886c-.261-.6115-.5221-1.2231-.7677-1.8493 0 0-.1529-1.4695-.2911-1.9646-.4283-1.33193-1.2946-2.48619-2.4712-3.31916-1.1767-.83297-2.603-1.28797-4.0713-1.29873-1.4208-.00244-2.807.41614-3.9647 1.19725-1.1578.78111-2.0293 1.88572-2.4928 3.15944-.4635 1.2738-.4958 2.653-.0924 3.9451.4033 1.292 1.2223 2.4322 2.3423 3.2613v4.4563h-2.8255c-1.721-.0043-3.37544.6302-4.60946 1.7678-1.23401 1.1376-1.94962 2.688-1.99374 4.3196v13.8932h26.9963v-12.9466c.0306-.9011-.1275-1.799-.4653-2.6418-.3379-.8427-.8486-1.6135-1.5028-2.2677-.6541-.6543-1.4386-1.1789-2.3081-1.5436-.637-.2672-1.3104-.4446-1.9987-.5277zm4.2749 17.9274v-10.9466c0-.0227.0003-.0454.0011-.068.0212-.6215-.0877-1.2429-.3228-1.8296-.2353-.587-.5939-1.131-1.0607-1.5978-.4669-.467-1.0327-.8471-1.6673-1.1133-.6293-.264-1.3107-.4093-2.0048-.4253h-3.2189c-1.1045 0-2-.8954-2-2v-.9466c0-1.1045.8955-2 2-2h1.0596c.2188 0 .4089-.0831.5336-.2006.1199-.1131.1675-.2434.1691-.3564v-1.6663c0-.6971.3567-1.3109.8974-1.6689-.2545-.5964-.5215-1.2226-.7746-1.8676-.0659-.168-.1088-.3443-.1274-.5237l-.0014-.0127-.0046-.0432c-.0041-.0382-.0103-.0941-.0181-.163-.0156-.1385-.0378-.3268-.0638-.5282-.0263-.2032-.0552-.4096-.0841-.5871-.0144-.0885-.0276-.1625-.0392-.2207l-.0059-.029-.0061-.0283c-.295-.8772-.88-1.66169-1.7054-2.246-.8349-.59101-1.8593-.92216-2.9247-.9311-1.0265-.00066-2.0184.30279-2.8372.85521-.819.55258-1.4174 1.32129-1.7319 2.18539-.3138.8625-.3353 1.7921-.0627 2.6651.273.8745.8332 1.6652 1.6232 2.2499.5095.3772.81.9736.81 1.6075v4.4563c0 1.1046-.8954 2-2 2h-2.8306c-1.231-.0031-2.3956.4518-3.24874 1.2383-.84334.7774-1.31391 1.8125-1.34936 2.8789v11.8634z" fill-rule="evenodd"/><path d="m41 11c.5523 0 1-.4477 1-1 0-.55228-.4477-1-1-1s-1 .44772-1 1c0 .5523.4477 1 1 1z"/><path d="m32 14c0 .5523-.4477 1-1 1s-1-.4477-1-1 .4477-1 1-1 1 .4477 1 1z"/><path d="m33 18c.5523 0 1-.4477 1-1s-.4477-1-1-1-1 .4477-1 1 .4477 1 1 1z"/><path d="m36 20c0 .5523-.4477 1-1 1s-1-.4477-1-1 .4477-1 1-1 1 .4477 1 1z"/><path d="m41 20c.5523 0 1-.4477 1-1s-.4477-1-1-1-1 .4477-1 1 .4477 1 1 1z"/><path d="m42 14c0 .5523-.4477 1-1 1s-1-.4477-1-1 .4477-1 1-1 1 .4477 1 1z"/><path d="m38 12c0 .5523-.4477 1-1 1s-1-.4477-1-1 .4477-1 1-1 1 .4477 1 1z"/><path d="m37 17c.5523 0 1-.4477 1-1s-.4477-1-1-1-1 .4477-1 1 .4477 1 1 1z"/><path d="m30 19c0 .5523-.4477 1-1 1s-1-.4477-1-1 .4477-1 1-1 1 .4477 1 1z"/></g></svg>