<svg fill="none" height="48" viewBox="0 0 48 48" width="48" xmlns="http://www.w3.org/2000/svg"><g fill="#333"><path d="m16 18c0-6.0751 4.9249-11 11-11s11 4.9249 11 11c0 3.8069-1.933 7.1627-4.8758 9.139-2.496 1.6763-5.1242 4.3149-5.1242 7.7723v.0887c0 3.3137-2.6863 6-6 6s-6-2.6863-6-6v-2h-2v2c0 4.4183 3.5817 8 8 8s8-3.5817 8-8v-.0887c0-2.4038 1.8696-4.5205 4.2393-6.112 3.4722-2.3319 5.7607-6.2981 5.7607-10.7993 0-7.1797-5.8203-13-13-13s-13 5.8203-13 13z"/><path d="m28.6341 11.1934c-1.6207-.3891-3.327-.1871-4.8121.5696l.908 1.782c1.0608-.5405 2.2796-.6848 3.4372-.4068 1.1576.2779 2.1781.9597 2.8778 1.9229.6998.9631 1.0329 2.1444.9395 3.3312-.0934 1.1869-.6072 2.3014-1.449 3.1432l1.4142 1.4143c1.1786-1.1786 1.8979-2.739 2.0287-4.4006.1307-1.6616-.3357-3.3153-1.3153-4.6637-.9797-1.3484-2.4084-2.303-4.029-2.6921z"/><path d="m13.5859 25.0001-5.29305-5.2931 1.41421-1.4142 5.29304 5.293 5.2929-5.2928 1.4142 1.4142-5.2929 5.2929 5.2927 5.2927-1.4142 1.4142-5.2927-5.2927-5.2929 5.2929-1.41422-1.4142z"/></g></svg>