<svg fill="none" height="48" viewBox="0 0 48 48" width="48" xmlns="http://www.w3.org/2000/svg"><g fill="#333"><path clip-rule="evenodd" d="m33.9299 24.0801h6.7501c1.8336 0 3.32-1.4864 3.32-3.32 0-1.8335-1.4864-3.3199-3.32-3.3199h-16.9256l2.2858-.836c2.2009-.8049 2.8345-3.615 1.1919-5.2865-.8842-.8998-2.212-1.2011-3.3979-.771l-11.9841 4.3457c-4.71203 1.7087-7.8501 6.1847-7.8501 11.197 0 6.578 5.3325 11.9105 11.9105 11.9105h11.0635c1.6568 0 3-1.3431 3-3v-.6399c0-.3507-.0602-.6873-.1708-1h.5416c1.6568 0 3-1.3432 3-3v-.64c0-.5843-.1671-1.1297-.4561-1.5908.7354-.5468 1.2119-1.4223 1.2119-2.4092v-.6399c0-.3506-.0602-.6872-.1707-1zm8.0701-3.32c0-.729-.591-1.3199-1.32-1.3199h-16.9256c-2.2359 0-2.7868-3.1104-.687-3.8783l2.2858-.836c.8353-.3055 1.0758-1.372.4524-2.0064-.3356-.3415-.8395-.4558-1.2896-.2926l-11.984 4.3457c-3.92087 1.4218-6.532 5.1462-6.532 9.3168 0 5.4734 4.4371 9.9105 9.9105 9.9105h11.0635c.5522 0 .9999-.4477.9999-1v-.6399c0-.5523-.4477-1-1-1h-3.7359v-2h7.1068c.5523 0 1-.4478 1-1v-.64c0-.5522-.4477-1-1-1h-4.827v-2h5.5828c.5523 0 1-.4477 1-1v-.6399c0-.5523-.4477-1-1-1h-5.5828v-2h10.485c-.0019-.0265-.0028-.0532-.0028-.0801 0-.8284.8954-1.5 2-1.5s2 .6716 2 1.5c0 .0269-.0009.0536-.0028.0801h.6828c.729 0 1.32-.591 1.32-1.32z" fill-rule="evenodd"/><path d="m41.0033 30.1404c0 1.6-1.32 2.8572-3 2.8572s-3-1.2572-3-2.8572 3-5.1428 3-5.1428 3 3.6571 3 5.1428z"/></g></svg>