<svg fill="none" height="48" viewBox="0 0 48 48" width="48" xmlns="http://www.w3.org/2000/svg"><g fill="#333"><g clip-rule="evenodd" fill-rule="evenodd"><path d="m15.3662 35.0755c-.5021.0276-1.0073.0554-1.4905.0688l-.0997.0028-.0972.0224c-1.8223.4203-3.6663.7493-5.52441.9858-.33023.0376-.61351.0778-.84499.123-.20633.0402-.46429.1008-.68118.2133-.09815.051-.32477.1801-.4804.4443-.209.3547-.18197.7582-.01006 1.0647.13017.2321.31519.3633.40096.4195.10448.0685.21199.1203.30169.159.33615.1451.84995.2843 1.41829.4239.50236.1234 1.1128.2621 1.7969.4176.1218.0277.2458.0559.372.0846 1.5397.3507 2.25.7813 2.8616 1.1792.0491.0319.0982.0641.1477.0966.6354.417 1.3268.8708 2.5859 1.098 1.3059.2356 3.2511.1024 4.6236-.188.3525-.0746.69-.1641.9858-.2697.2772-.099.5941-.2382.8475-.4438.2362-.1917.6896-.6915.4607-1.3951-.1726-.5306-.6469-.7944-.9033-.9173-.0479-.023-.0869-.0436-.1184-.0615.0058-.0178.0123-.0375.0196-.0591.0041-.0123.0089-.0259.0141-.0409.0711-.2052.23-.663.1442-1.1678-.1058-.6227-.5163-1.0915-1.0791-1.4513-1.0695-.6838-2.2505-.8604-3.4236-.8821-.6723-.0125-1.4463.0301-2.2277.0731zm-3.9808 2.606c.8862-.1598 1.7684-.3401 2.6459-.5409.5813-.0178 1.0986-.0473 1.5791-.0748.6986-.0399 1.3195-.0754 1.9465-.0638 1.0139.0188 1.7639.1715 2.3832.5675.0853.0546.1379.0969.1691.1259-.0107.0384-.03.1035-.0653.2078-.0037.0109-.008.0231-.0127.0367-.0701.2017-.2412.6939-.101 1.2224.0581.2188.156.4094.2824.5762-1.2153.2544-2.8714.346-3.8347.1723-.8528-.1539-1.2537-.4161-1.8575-.8111-.0456-.0298-.0923-.0604-.1405-.0918-.6794-.442-1.5006-.9298-2.9945-1.3264zm9.8657 2.8314s-.0057-.0054-.0223-.0151c.0131.0105.0223.0151.0223.0151zm-1.101-2.7715s-.0013-.0033-.0063-.0097c.0034.0066.0063.0097.0063.0097z"/><path d="m19.9314 29.9296c.0016-.0033.0033-.0066.0049-.01.0031-.0064.0061-.0129.0089-.0194.0298-.0676.0478-.1401.0531-.2142.006-.0851-.0047-.1705-.0316-.2511-.027-.0807-.0695-.1549-.125-.2182-.0556-.0632-.1231-.1143-.1983-.15-.1513-.076-.3255-.0875-.485-.0321-.1578.0549-.2884.171-.3641.3235l-.0024.0048-1.7279 3.7094c-.0009.0019-.0018.0038-.0027.0057-.0037.008-.0072.016-.0106.024-.0282.0677-.045.14-.0496.2137-.0051.0846.006.1694.0327.2496.0268.0801.0687.1541.1233.2176s.1208.1152.1949.1523c.0848.0458.1798.068.2755.0644.1191.0012.2362-.032.338-.0957s.1842-.1555.2379-.2649z"/><path d="m17.9412 27.9776c.0071-.0159.0135-.032.0193-.0482.0254-.0712.0387-.1459.0394-.2213.0008-.0927-.0175-.1847-.0538-.2705-.0364-.0858-.09-.1638-.1579-.2294-.0679-.0655-.1486-.1174-.2374-.1525-.0907-.0377-.1885-.0566-.2872-.0557-.0987.001-.1961.0219-.286.0614-.0898.0394-.1701.0966-.2358.1677-.0428.0464-.0787.098-.1069.1535-.002.0039-.0039.0078-.0058.0117-.0127.0261-.0236.0529-.0328.0804l-2.5307 5.5876c-.0403.0841-.0626.1752-.0654.2678s.0139.1848.049.271c.0352.0862.0881.1646.1555.2305.0675.0658.1481.1178.2369.1527.0952.0209.1941.0209.2892 0 .1412.0005.2793-.039.3975-.1134.0829-.0522.1534-.12.2076-.199.006-.0086.0117-.0175.0173-.0264.016-.0258.0303-.0526.0429-.0803z"/></g><path d="m30.4902 39.1839.9899-.1418zm3.6655-.1465-.9995-.0324zm.399-10.3223-.9927-.1211c-.0033.0269-.0054.0538-.0065.0808zm-.8802-1.2443.4244-.9055zm-6.1841-3.5292-.8714-.4906c-.2671.4745-.1056 1.0754.3634 1.3519zm2.0767-3.6889.9842.1766c.0862-.4802-.1868-.9525-.6459-1.1176-.4592-.1651-.9704.0253-1.2098.4505zm-.0983 4.3943-.82.5723zm6.8571 4.4747.4609-.8874zm-3.3124-6.7445-.9969-.0788c-.0262.3311.1138.6537.3735.8608zm-1.1496-10.1457.5084-.8611zm-5.2489.6139.4972.8676zm-6.6793 10.7552.9954.0957zm4.4892 5.5572.358-.9337c-.0079-.003-.0158-.0059-.0238-.0088zm5.3193 2.0402.9972-.0754c-.0291-.3856-.278-.7199-.6391-.8583zm-.2439 8.1278c.2411 1.6828 1.6994 2.4275 2.9442 2.3844 1.2567-.0434 2.6545-.9058 2.7107-2.6405l-1.999-.0647c-.0085.264-.1044.4113-.2144.5064-.1273.1101-.3269.1918-.5664.2-.495.0171-.8345-.2448-.8953-.6693zm5.6549-.2561c.0348-1.0755.1344-3.652.2254-5.964.0455-1.1551.0888-2.2427.1207-3.0415.016-.3995.0291-.7267.0383-.954.0045-.1137.0081-.2024.0105-.2627.0012-.0302.0022-.0532.0028-.0687.0003-.0077.0005-.0136.0007-.0175.0001-.002.0001-.0035.0002-.0045 0-.0004 0-.0008 0-.0011 0-.0001 0-.0002 0-.0002 0-.0001 0-.0001-.9991-.0404-.9992-.0403-.9992-.0403-.9992-.0402s0 .0002-.0001.0003v.0011c0 .001-.0001.0025-.0002.0044-.0001.004-.0004.0099-.0007.0176-.0006.0155-.0015.0386-.0028.0688-.0024.0603-.0059.1491-.0105.2628-.0092.2275-.0223.5548-.0383.9544-.0319.7991-.0752 1.8871-.1207 3.0427-.091 2.3091-.1909 4.8938-.226 5.978zm-.6005-10.3546c.9926.121.9927.1206.9927.1202 0-.0002.0001-.0006.0001-.0009.0001-.0006.0002-.0012.0002-.0018.0002-.0012.0003-.0025.0005-.0037.0003-.0026.0005-.0052.0008-.008.0006-.0055.0012-.0115.0018-.0179.0012-.0128.0024-.0274.0034-.0436.002-.0324.0033-.0717.003-.117-.0007-.0902-.0082-.2067-.0323-.3411-.0486-.2705-.1656-.6182-.4297-.96l-1.5828 1.2226c.0329.0426.0413.0761.0439.0907.0015.0082.001.0103.0009.003 0-.0038.0001-.0106.0007-.0208.0004-.0051.0008-.0112.0015-.0183.0003-.0035.0007-.0073.0011-.0114.0002-.0021.0005-.0042.0007-.0063.0001-.0011.0003-.0022.0004-.0034.0001-.0005.0001-.0011.0002-.0017 0-.0002.0001-.0007.0001-.0008.0001-.0004.0001-.0009.9928.1202zm.5405-1.3738c-.235-.3043-.5627-.5727-.9963-.776l-.8489 1.8109c.1653.0775.2347.1517.2624.1877zm-.9963-.776c-.1781-.0835-.5713-.2954-1.1097-.5968l-.977 1.7451c.5238.2933.9822.5428 1.2378.6626zm-1.1097-.5968c-.9215-.516-2.1677-1.2371-3.1873-1.8315-.509-.2967-.96-.561-1.2838-.7511-.1619-.0951-.2919-.1716-.3814-.2242-.0448-.0264-.0794-.0468-.1028-.0606-.0117-.0069-.0206-.0121-.0266-.0156-.0029-.0018-.0052-.0031-.0067-.004-.0007-.0004-.0013-.0007-.0016-.001-.0002-.0001-.0004-.0001-.0005-.0002 0 0 0 0-.0001 0 0-.0001 0-.0001-.508.8613-.508.8613-.508.8613-.508.8614h.0002c.0001.0001.0002.0002.0004.0003.0004.0002.001.0006.0018.001.0015.001.0038.0023.0069.0041.0061.0036.0151.0089.0269.0159.0237.0139.0586.0345.1036.061.0901.053.2207.1298.3833.2253.3251.1908.778.4562 1.2891.7542 1.0207.595 2.2797 1.3236 3.2176 1.8488zm-4.6274-1.5364 2.0767-3.6888-1.7429-.9811-2.0766 3.6888zm1.2053-4.1794c-.9843-.1766-.9844-.1765-.9844-.1763v.0003c-.0001.0002-.0001.0005-.0002.0008-.0001.0007-.0003.0016-.0005.0027-.0004.0022-.0009.0053-.0016.0092-.0014.0079-.0033.0191-.0058.0335-.005.0287-.0121.0702-.0208.1227-.0174.1049-.0414.2545-.0684.4361-.0538.3618-.1202.8565-.169 1.3804-.0483.5186-.082 1.092-.0632 1.6032.0094.2553.0326.5185.0817.7635.0458.2283.1301.5272.3139.7905l1.6401-1.1446c.0465.0667.031.0808.007-.0388-.0206-.1029-.0369-.2506-.044-.4442-.0142-.3864.011-.8624.0558-1.3441.0444-.4763.1055-.9327.1559-1.2719.0251-.1689.0474-.3073.0632-.4027.0079-.0477.0142-.0845.0185-.109.0021-.0123.0037-.0214.0047-.0273.0005-.0029.0009-.005.0011-.0062.0001-.0006.0002-.0011.0002-.0012.0001-.0001.0001-.0002.0001-.0002v.0001s-.0001.0001-.9843-.1765zm-.9183 4.9666c.1507.2159.3792.4178.5649.5713.2103.1736.4679.3664.7506.5675.5669.4031 1.2767.869 2.0016 1.3279l1.0697-1.6899c-.7117-.4505-1.3875-.8948-1.9122-1.2679-.2632-.1872-.4778-.349-.636-.4797-.1827-.1508-.2189-.2029-.1985-.1738zm3.3171 2.4667c.6147.3891 1.2468.7772 1.8225 1.1235l1.0309-1.7138c-.5649-.3398-1.1839-.7199-1.7837-1.0996zm1.8225 1.1235c.9207.5538 1.7222 1.0156 2.0766 1.1997l.9218-1.7749c-.2926-.152-1.0456-.5841-1.9675-1.1386zm2.0766 1.1997c.5782.3003 1.1999.2297 1.6654.0656.4784-.1686.9253-.477 1.2652-.8636.3388-.3853.6241-.9108.6588-1.526.0366-.6494-.2142-1.2747-.7318-1.7832l-1.4016 1.4267c.1448.1422.1379.2204.1365.2439-.0032.0577-.0377.1745-.1638.3179-.125.1421-.2881.2487-.4282.2981-.153.0539-.1583.0044-.0787.0457zm2.8576-4.1072c-.6984-.6862-1.9845-1.773-3.0651-2.665-.5467-.4513-1.0515-.8613-1.4194-1.1585-.1841-.1487-.334-.2692-.4382-.3527-.052-.0418-.0926-.0743-.1203-.0964-.0138-.011-.0244-.0195-.0316-.0252-.0036-.0029-.0064-.0051-.0082-.0066-.0009-.0007-.0017-.0013-.0021-.0017-.0003-.0002-.0005-.0003-.0006-.0004s-.0001-.0001-.0002-.0001c0-.0001 0-.0001-.6234.7818-.6234.782-.6234.782-.6234.782h.0001c.0001.0001.0003.0002.0005.0004.0004.0003.001.0008.0019.0015.0016.0013.0042.0034.0076.0061.0069.0055.0171.0137.0306.0244.0269.0216.0667.0534.118.0945.1025.0822.2506.2013.4326.3483.3642.2941.8631.6995 1.4029 1.145 1.0924.9017 2.3104 1.934 2.9367 2.5493zm-5.7091-3.5248c.9969.0789.9969.0788.9969.0786 0-.0001 0-.0003 0-.0005.0001-.0005.0001-.001.0002-.0017.0001-.0014.0002-.0033.0004-.0058.0004-.0049.0009-.012.0016-.0211.0014-.0184.0034-.045.0059-.0796.005-.069.0119-.1694.0201-.297.0162-.2551.0373-.6194.0566-1.0595.0385-.8785.0705-2.0671.0427-3.2959-.0276-1.2203-.1148-2.5196-.3259-3.6044-.1054-.5411-.2487-1.0675-.4515-1.5175-.1948-.4323-.4968-.9123-.9882-1.2024l-1.0168 1.7222c-.0251-.0148.0585.0287.1816.3018.1151.2554.2218.6163.3117 1.078.1792.9207.2629 2.089.2896 3.2675.0264 1.17-.0039 2.3113-.0413 3.1631-.0186.425-.0389.7759-.0545 1.0197-.0078.1219-.0143.2169-.019.2809-.0023.032-.0041.0563-.0053.0722-.0006.008-.001.0139-.0013.0177-.0002.0019-.0003.0032-.0003.0041-.0001.0004-.0001.0006-.0001.0008v.0001c0-.0001 0-.0001.9969.0787zm-.6412-11.0068c-.9214-.544-1.7604-.9937-2.8372-.8729-.5059.0568-1.0055.2316-1.5351.4751-.5293.2434-1.1439.5821-1.8823 1.0052l.9945 1.7352c.7371-.4224 1.2833-.7209 1.7233-.9233.4398-.2022.7184-.2817.9227-.3046.3437-.0386.6537.0504 1.5973.6075zm-6.2546.6074c-.8992.5154-1.7673 1.3928-2.5458 2.3654-.7911.988-1.5449 2.1448-2.2019 3.2944-.6576 1.151-1.2286 2.3133-1.6499 3.3205-.4067.9723-.7177 1.9013-.7798 2.5468l1.9908.1914c.0307-.3192.2321-1.0055.6341-1.9664.3873-.9259.9212-2.0147 1.5413-3.1.6209-1.0866 1.3176-2.1512 2.0266-3.0368.7215-.9012 1.4029-1.5498 1.9791-1.8801zm-7.1774 11.5271c-.2321 2.4145 1.2025 4.1004 2.4873 5.1011.653.5086 1.3114.8781 1.8022 1.1198.247.1217.4555.2129.6051.2747.0749.0309.1353.0546.1787.0712.0217.0083.0392.0148.0521.0196.0065.0024.0118.0043.016.0058.002.0008.0038.0014.0053.0019.0008.0003.0014.0005.002.0007.0003.0002.0007.0003.0009.0003.0003.0002.0007.0003.335-.9422.3342-.9425.3345-.9423.3348-.9422.0001 0 .0004.0001.0005.0001.0003.0002.0006.0002.0007.0003.0003.0001.0004.0001.0001 0-.0005-.0002-.0021-.0008-.0048-.0018-.0055-.0019-.0152-.0056-.029-.0108-.0276-.0106-.0712-.0276-.1284-.0513-.1146-.0473-.2827-.1207-.4854-.2205-.4085-.2011-.9414-.502-1.4568-.9034-1.0519-.8193-1.8619-1.912-1.7255-3.3319zm5.1265 6.5866 5.3194 2.0401.7161-1.8673-5.3194-2.0402zm5.6774 1.1065c-.9971.0753-.9971.0753-.9971.0753v.0003c0 .0002 0 .0005.0001.0008 0 .0008.0001.0019.0002.0033.0002.0029.0006.0072.001.0129.0009.0113.0021.0281.0038.05.0034.0438.0083.1083.0147.191.0128.1655.0313.4041.0546.6969.0464.5855.1115 1.3884.1861 2.2577.1482 1.7266.3369 3.7526.4927 4.8396l1.9798-.2837c-.1462-1.0204-.3305-2.9873-.4798-4.7269-.0741-.8638-.1389-1.6623-.1851-2.2449-.0231-.2912-.0416-.5284-.0543-.6926-.0063-.0821-.0112-.146-.0145-.1893-.0016-.0217-.0029-.0382-.0037-.0492-.0005-.0055-.0008-.0097-.001-.0125-.0001-.0014-.0002-.0024-.0002-.0031 0-.0003-.0001-.0006-.0001-.0007s0-.0002 0-.0002 0-.0001-.9972.0753zm8.1099-19.9228c-.5545 1.1828-1.9456 1.6833-3.0981 1.143l-.849 1.8108c2.1679 1.0164 4.7418.0627 5.758-2.1048zm-3.0981 1.143c-1.1526-.5404-1.6577-1.9298-1.1032-3.11256l-1.8109-.84896c-1.0161 2.16752-.1028 4.75602 2.0651 5.77232zm-1.1032-3.11256c.5545-1.18278 1.9456-1.68324 3.0981-1.14293l.849-1.81087c-2.1679-1.01634-4.7418-.06271-5.758 2.10484zm3.0981-1.14293c1.1526.54031 1.6577 1.92979 1.1032 3.11249l1.8109.849c1.0161-2.16757.1028-4.75603-2.0651-5.77236z"/></g></svg>