<svg fill="none" height="48" viewBox="0 0 48 48" width="48" xmlns="http://www.w3.org/2000/svg"><path d="m41 36.5699v4.4301h-34v-4.4301c0-1.3953 1.06434-2.9669 3.0628-4.425 1.8694-1.3639 4.3538-2.4717 6.8339-3.0803.0114.0205.0234.0429.0362.0672.0275.0524.0546.1064.0853.1675l.0037.0074c.0282.0561.0606.1209.0932.1829l.2812.5341h.6037 4.0639.0003c.9214-.0002 1.3708-.0001 1.8258 0 .4446.0001.8945.0002 1.7951 0h.0002 4.064.6036l.2812-.5341c.0806-.1531.2084-.3384.3309-.4563.0006-.0006.0012-.0011.0017-.0017 2.5253.601 5.0668 1.7244 6.9705 3.1133 1.9985 1.4581 3.0628 3.0297 3.0628 4.425zm-24.2166-7.6818c-.0014-.0014-.0021-.0022-.0021-.0022 0-.0001.0007.0006.0021.0022z" stroke="#333" stroke-width="2"/><path clip-rule="evenodd" d="m16 37.0147c.5384 0 1-.4405 1-1.0147s-.4616-1.0147-1-1.0147-1 .4405-1 1.0147.4616 1.0147 1 1.0147zm0 1.9853c1.6569 0 3-1.3431 3-3s-1.3431-3-3-3-3 1.3431-3 3 1.3431 3 3 3z" fill="#333" fill-rule="evenodd"/><g stroke="#333" stroke-width="2"><path d="m32 38h-2v-2l1-2h4l1 2v2h-2" stroke-linejoin="round"/><path d="m33 34c.5-.6667 1-3.5.5-4.5"/><path d="m15.7072 34c-.5-.6667-1-3.5-.5-4.5"/><path d="m13 20.4633c0 4.4068 7.99 5.5367 7.99 5.5367s-5.2263-8.5311-2.49-10 9.4527-4.0169 10-3c5.0348 7.2316-.9428 13-.9428 13s7.4428-.678 7.4428-5.5367c0-4.8588-3.5025-10.4633-3.5025-10.4633s-2.5174-3-7.4428-3c-4.9253 0-6.6766 3-6.6766 3s-4.3781 6.0565-4.3781 10.4633z" stroke-linejoin="round"/></g></svg>