<svg fill="none" height="48" viewBox="0 0 48 48" width="48" xmlns="http://www.w3.org/2000/svg"><g fill="#333"><path clip-rule="evenodd" d="m19.2988 6c-1.7421 0-3.0991 1.36026-3.0991 2.93087 0 1.57063 1.357 2.93083 3.0991 2.93083 1.7422 0 3.0992-1.3602 3.0992-2.93083 0-1.57061-1.357-2.93087-3.0992-2.93087zm-5.0991 2.93087c0-2.75335 2.3322-4.93087 5.0991-4.93087s5.0992 2.17752 5.0992 4.93087c0 2.75333-2.3323 4.93083-5.0992 4.93083s-5.0991-2.1775-5.0991-4.93083z" fill-rule="evenodd"/><path clip-rule="evenodd" d="m11.0985 17.1113c-.848.7762-1.55651 1.9256-1.55651 3.5 0 2.2872.77961 3.8339 1.63171 4.801.326.3701.6641.6569.9764.8685v-7.5228h2v23.5852c0 .4896.4347.9655 1.0496.9655s1.0495-.4759 1.0495-.9655v-10.8271h6.0992v10.8271c0 .4896.4346.9655 1.0495.9655s1.0496-.4759 1.0496-.9655v-24.5852h11.2478c.6149 0 1.0496-.4758 1.0496-.9654 0-.3751-.3073-.7926-1.0496-.7926h-22.5452c-.0724 0-.3473.0461-.7705.2449-.3978.1869-.8534.4749-1.2811.8664zm1.0516 11.4175c-.2307-.0867-.4618-.1967-.6849-.3219-.5837-.3275-1.2126-.8145-1.79222-1.4725-1.17018-1.3282-2.13099-3.3436-2.13099-6.1231 0-2.2443 1.03191-3.9005 2.20616-4.9753.58345-.534 1.20945-.9328 1.78125-1.2014.5466-.2567 1.1295-.4346 1.6207-.4346h22.5452c1.5122 0 3.0496 1.0057 3.0496 2.7926 0 1.6723-1.41 2.9654-3.0496 2.9654h-9.2478v22.5852c0 1.6724-1.41 2.9655-3.0496 2.9655s-3.0495-1.2931-3.0495-2.9655v-8.8271h-2.0992v8.8271c0 1.6724-1.4099 2.9655-3.0495 2.9655-1.6397 0-3.0496-1.2931-3.0496-2.9655z" fill-rule="evenodd"/><path d="m16 19h7v11h-7z"/><path d="m16 19h2v-4h-2z"/><path d="m21 19h2v-4h-2z"/><path d="m32 10c0-.55228.4477-1 1-1s1 .44772 1 1v20c0 .5523-.4477 1-1 1s-1-.4477-1-1z"/><path clip-rule="evenodd" d="m33 32c-.8885 0-1.6868.3863-2.2361 1h4.4722c-.5493-.6137-1.3476-1-2.2361-1zm4.584 1c-.7716-1.7659-2.5337-3-4.584-3s-3.8124 1.2341-4.584 3c-.2676.6125-.416 1.2889-.416 2h10c0-.7111-.1484-1.3875-.416-2z" fill-rule="evenodd"/></g></svg>