<svg fill="none" height="48" viewBox="0 0 48 48" width="48" xmlns="http://www.w3.org/2000/svg"><g clip-rule="evenodd" fill="#333" fill-rule="evenodd"><path d="m11.1033 4c-.5523 0-1 .44772-1 1 0 .03124.0014.06215.0042.09265.3116-.06079.6335-.09265.9629-.09265.3521 0 .6958.03642 1.0274.10568.0036-.03473.0055-.06998.0055-.10568 0-.55228-.4477-1-1-1zm2.8565 1.91922c.0932-.28969.1435-.59858.1435-.91922 0-1.65685-1.3432-3-3-3-1.65688 0-3.00003 1.34315-3.00003 3 0 .30676.04604.60277.13159.88149-1.30764.90225-2.16455 2.41132-2.16455 4.12031 0 .5237.08047 1.0286.22972 1.5031h-.62495c-.46193 0-.97434.1867-1.41808.4195-.47485.2491-.98802.6124-1.46336 1.0873-.95583.9549-1.79364 2.4007-1.79364 4.3036 0 2.3353.7725 4.043 1.72943 5.1796.47352.5624.99043.9828 1.47617 1.2688.09034.0532.18316.1038.27764.1508l-2.36043 10.0723-.28782 1.2282h1.26145 1.57864v7.653c0 1.4513 1.18327 2.6346 2.63458 2.6346 1.4513 0 2.63457-1.1833 2.63457-2.6346v-7.652h2.26917v7.652c0 1.4513 1.1833 2.6346 2.6346 2.6346s2.6345-1.1833 2.6345-2.6346v-7.653h1.6662 1.2614l-.2878-1.2282-.9026-3.8513c.1681.316.5007.5312.8836.5312.5523 0 1-.4477 1-1v-.6667c0-.5523.4477-1 1-1s1 .4477 1 1v14c0 .5523.4477 1 1 1s1-.4477 1-1v-14c0-1.5025-1.1045-2.747-2.5459-2.9658.9502-.6778 1.3229-1.9527.8266-3.0582l-4.222-9.4037c-.5646-1.2574-1.8146-2.0664-3.193-2.0664h-.1286c.1495-.4748.2301-.98.2301-1.5041 0-1.68539-.8334-3.17634-2.1107-4.08258zm-2.8894 1.08078c-1.6565 0-3.00009 1.34355-3.00009 3.0018 0 .5477.14658 1.0611.4026 1.5031h.0288l.30011.3681c.5457.6695 1.37358 1.0942 2.30148 1.0942.9275 0 1.7551-.4244 2.3008-1.0934l.1334-.1636c.336-.4848.533-1.0736.533-1.7084 0-1.65825-1.3436-3.0018-3.0001-3.0018zm-5.39532 6.5049h1.82632c.90728.9249 2.17105 1.4987 3.569 1.4987 1.3974 0 2.6608-.5734 3.568-1.4977h1.3306c.5907 0 1.1265.3467 1.3684.8856l4.222 9.4037c.1131.2519.0006.5478-.2513.6609-.252.1131-.5479.0006-.661-.2513l-3.2523-7.244-1.9123.4096v5.4677.1156l.0264.1126 2.3783 10.1487h-1.4047-1v1 8.653c0 .3467-.2878.6346-.6345.6346-.3468 0-.6346-.2879-.6346-.6346v-8.652-1h-1-4.26917-1v1 8.652c0 .3467-.28784.6346-.63457.6346s-.63458-.2879-.63458-.6346v-8.653-1h-1-1.3172l2.2841-9.7466.27879-1.1897h.00208v-.0088l.0042-.018h-.0042v-5.2324h-2v4.8211c-.21298-.1603-.44121-.3699-.66346-.6338-.65074-.7729-1.25939-2.0235-1.25939-3.8915 0-1.2729.55023-2.2324 1.20718-2.8887.33105-.3307.68047-.5746.97898-.7312.28644-.1502.45364-.1832.48438-.1893.00464-.0009.00617-.0012.00454-.0012zm13.14752 11.5191c.3334.7426.9846 1.243 1.7211 1.4127-.8637.5267-1.4404 1.4776-1.4404 2.5633v.6385l-1.6208-6.916v-.6833z"/><path d="m30.042 10.0018c0-1.65825 1.3436-3.0018 3.0001-3.0018s3 1.34355 3 3.0018c0 1.6583-1.3435 3.0018-3 3.0018s-3.0001-1.3435-3.0001-3.0018zm3.0001-5.0018c-2.7619 0-5.0001 2.23979-5.0001 5.0018 0 .5237.0805 1.0286.2297 1.5031h-.5966c-.4619 0-.9744.1867-1.4181.4195-.4749.2491-.988.6124-1.4634 1.0873-.9558.9549-1.7936 2.4007-1.7936 4.3036 0 2.3412.7764 4.0515 1.7365 5.188.4751.5623.9934.9821 1.48 1.2668.1472.0861.3013.1656.4586.2337v18.8642c0 1.4513 1.1833 2.6346 2.6346 2.6346l.0036-.0001h.0119l.0037.0001c1.4513 0 2.6346-1.1833 2.6346-2.6346v-10.652h2.2499v10.652c0 1.4513 1.1833 2.6346 2.6346 2.6346l.0036-.0001h.0119l.0037.0001c1.4513 0 2.6346-1.1833 2.6346-2.6346v-18.7353l.241.6909c.3389.9713 1.2167 1.6009 2.1815 1.6706-.8133.5367-1.3499 1.4586-1.3499 2.5058v.6667c0 .5523.4478 1 1 1 .5523 0 1-.4477 1-1v-.6667c0-.5523.4478-1 1-1 .5523 0 1 .4477 1 1v14c0 .5523.4478 1 1 1 .5523 0 1-.4477 1-1v-14c0-1.6469-1.327-2.9839-2.9702-2.9999.8479-.6359 1.2273-1.7696.8595-2.8237l-3.2531-9.3236c-.4904-1.4054-1.816-2.3469-3.3046-2.3469h-.0939c.1495-.4748.23-.98.23-1.5041 0-2.76201-2.2382-5.0018-5-5.0018zm-5.367 8.5049h1.798c.9073.9249 2.171 1.4987 3.569 1.4987 1.3974 0 2.6608-.5734 3.568-1.4977h1.2959c.638 0 1.2061.4035 1.4163 1.0058l3.2531 9.3236c.0909.2607-.0467.5458-.3074.6368s-.5458-.0467-.6368-.3074l-2.1853-6.263-1.9441.3294v24.6369c0 .3467-.2879.6346-.6346.6346l-.0037-.0001h-.0119l-.0036.0001c-.3468 0-.6346-.2879-.6346-.6346v-11.652-1h-1-4.2499-1v1 11.652c0 .3467-.2879.6346-.6346.6346l-.0037-.0001h-.0119l-.0036.0001c-.3468 0-.6346-.2879-.6346-.6346v-19.6278-1h-.003v-5.2402h-2v4.634c-.1349-.1211-.2724-.2612-.4078-.4214-.6527-.7725-1.2643-2.0247-1.2643-3.8973 0-1.2729.5502-2.2324 1.2072-2.8887.331-.3307.6804-.5746.979-.7312.2864-.1502.4536-.1832.4843-.1893h.0001c.0046-.0009.0061-.0012.0045-.0012z"/></g></svg>