<svg fill="none" height="48" viewBox="0 0 48 48" width="48" xmlns="http://www.w3.org/2000/svg"><g fill="#333"><g clip-rule="evenodd" fill-rule="evenodd"><path d="m32.3193 39.9663c-2.4882 1.2991-5.318 2.0337-8.3193 2.0337-9.9411 0-18-8.0589-18-18s8.0589-18 18-18 18 8.0589 18 18c0 2.3901-.4658 4.6714-1.3117 6.7581l1.9757.4441c.8629-2.2347 1.336-4.6632 1.336-7.2022 0-11.0457-8.9543-20-20-20s-20 8.9543-20 20 8.9543 20 20 20c3.2737 0 6.3637-.7865 9.0913-2.1809z"/><path d="m33 33c0 .5523-.4477 1-1 1s-1-.4477-1-1 .4477-1 1-1 1 .4477 1 1zm11 2c.5523 0 1-.4477 1-1s-.4477-1-1-1-1 .4477-1 1 .4477 1 1 1zm-2 3c.5523 0 1-.4477 1-1s-.4477-1-1-1-1 .4477-1 1 .4477 1 1 1zm-1 2c0 .5523-.4477 1-1 1s-1-.4477-1-1 .4477-1 1-1 1 .4477 1 1zm-2 4c0 .5523-.4477 1-1 1s-1-.4477-1-1 .4477-1 1-1 1 .4477 1 1zm6-3c0 .5523-.4477 1-1 1s-1-.4477-1-1 .4477-1 1-1 1 .4477 1 1zm-11-3c.5523 0 1-.4477 1-1s-.4477-1-1-1-1 .4477-1 1 .4477 1 1 1zm3-5c0 .5523-.4477 1-1 1s-1-.4477-1-1 .4477-1 1-1 1 .4477 1 1zm3 2c.5523 0 1-.4477 1-1s-.4477-1-1-1-1 .4477-1 1 .4477 1 1 1zm-1 2c0 .5523-.4477 1-1 1s-1-.4477-1-1 .4477-1 1-1 1 .4477 1 1zm-3 5c.5523 0 1-.4477 1-1s-.4477-1-1-1-1 .4477-1 1 .4477 1 1 1z"/><path d="m12.1055 18.5528c.247-.494.8477-.6942 1.3417-.4473l4 2c.3388.1694.5528.5157.5528.8945 0 .3787-.214.725-.5528.8944l-4 2c-.494.247-1.0947.0468-1.3417-.4472-.2469-.494-.0467-1.0947.4473-1.3417l2.2111-1.1055-2.2111-1.1056c-.494-.247-.6942-.8477-.4473-1.3416z"/><path d="m35.8945 18.5528c-.247-.494-.8477-.6942-1.3417-.4473l-4 2c-.3388.1694-.5528.5157-.5528.8945 0 .3787.214.725.5528.8944l4 2c.494.247 1.0947.0468 1.3417-.4472.2469-.494.0467-1.0947-.4473-1.3417l-2.2111-1.1055 2.2111-1.1056c.494-.247.6942-.8477.4473-1.3416z"/></g><path d="m28 31c0 2.2091-1.567 4-3.5 4s-3.5-1.7909-3.5-4 1.567-4 3.5-4 3.5 1.7909 3.5 4z"/></g></svg>