<svg fill="none" height="48" viewBox="0 0 48 48" width="48" xmlns="http://www.w3.org/2000/svg"><g clip-rule="evenodd" fill="#333" fill-rule="evenodd"><path d="m13.5157 24.4713c.2517-.1575.5604-.1949.8425-.1022 1.2508.4111 2.9251.6309 4.6418.6309s3.391-.2198 4.6418-.6309c.2821-.0927.5908-.0553.8425.1022.2518.1575.4205.4187.4606.7129.0364.2672.0551.5396.0551.8158 0 3.3137-2.6863 6-6 6s-6-2.6863-6-6c0-.2762.0187-.5486.0551-.8158.0401-.2942.2088-.5554.4606-.7129zm1.5317 2.1461c.2968 1.916 1.9534 3.3826 3.9526 3.3826s3.6558-1.4666 3.9526-3.3826c-1.2297.2587-2.6023.3826-3.9526.3826s-2.723-.1239-3.9526-.3826z"/><path d="m15.2317 19.2123c-.7188.998-.8198 2.0368-.6739 2.4658.1778.5228-.1019 1.0909-.6248 1.2687s-1.0909-.102-1.2687-.6249c-.4183-1.23-.0186-2.9412.9446-4.2785 1.0138-1.4075 2.7376-2.5434 5.165-2.5434 2.4462 0 4.2885 1.0276 5.422 2.3887 1.0918 1.3109 1.595 3.0394 1.1347 4.4263-.174.5242-.7399.8081-1.2641.6341s-.8081-.7399-.6341-1.2641c.1781-.5366.0248-1.5581-.7733-2.5164-.7562-.908-2.0369-1.6686-3.8852-1.6686-1.7342 0-2.8739.7846-3.5422 1.7123z"/><path d="m13.7283 19.7993c-.138.0484-.2724.0987-.403.1509-.7483.2994-1.421.6808-1.923 1.1556-.5041.4767-.9023 1.1165-.9023 1.8942 0 .7778.3982 1.4176.9023 1.8943.502.4748 1.1747.8562 1.923 1.1555 1.5022.6009 3.509.9502 5.6747.9502s4.1725-.3493 5.6747-.9502c.7483-.2993 1.421-.6807 1.923-1.1555.5041-.4767.9023-1.1165.9023-1.8943 0-.7777-.3982-1.4175-.9023-1.8942-.502-.4748-1.1747-.8562-1.923-1.1556-.1337-.0534-.2713-.1049-.4127-.1543.2693.8006.3114 1.5883.1195 2.2041h-.013c.3815.1866.6645.3787.855.5589.255.2411.2765.3905.2765.4411 0 .0507-.0215.2001-.2765.4412-.2571.2431-.6827.5081-1.2916.7517-1.2122.4849-2.9555.8071-4.9319.8071s-3.7197-.3222-4.9319-.8071c-.6089-.2436-1.0345-.5086-1.2916-.7517-.255-.2411-.2765-.3905-.2765-.4412 0-.0506.0215-.2.2765-.4411.1905-.1802.4735-.3723.855-.5589h-.0205c-.1781-.558-.1439-1.3619.1173-2.2007z"/><path d="m19 19.5c-.5523 0-1-.4477-1-1v-2c0-.5523.4477-1 1-1s1 .4477 1 1v2c0 .5523-.4477 1-1 1z"/><path d="m14 33.5624c.6766-.1362 1.3503-.2487 2-.3364v2.774h6v-2.774c.6497.0877 1.3234.2002 2 .3364 3.9489.795 8 2.3975 8 4.5805v3.8571h-26v-3.8571c0-2.183 4.0511-3.7855 8-4.5805zm0 2.0429c-1.3943.3008-2.7579.7026-3.8769 1.1828-.87094.3739-1.48209.7484-1.84373 1.0754-.18985.1717-.25785.2791-.27937.3227v1.8138h22v-1.8138c-.0215-.0436-.0895-.151-.2794-.3227-.3616-.327-.9728-.7015-1.8437-1.0754-1.119-.4802-2.4826-.882-3.8769-1.1828v2.3947h-10zm16.0088 2.6031c-.0004 0-.0019-.0036-.0035-.0108.003.0072.0038.0108.0035.0108zm-22.01758 0c-.00034 0 .0005-.0036.00352-.0108-.00168.0072-.00319.0108-.00352.0108z"/><path d="m10 41v-6h2v6z"/><path d="m26 41v-5h2v5z"/><path d="m28 7c0-.55228.4477-1 1-1h4c.5523 0 1 .44772 1 1v4.2068l2.3195-2.15388c.2915-.27064.7156-.34283 1.0802-.18384.3646.15898.6003.5189.6003.91663v1.42109l2.3195-2.15388c.2915-.27064.7156-.34283 1.0802-.18384.3646.15898.6003.5189.6003.91663v10.21429c0 .5523-.4477 1-1 1h-12c-.5523 0-1-.4477-1-1zm2 1v11h10v-6.9211l-2.3195 2.1539c-.2915.2706-.7156.3428-1.0802.1838-.3646-.1589-.6003-.5189-.6003-.9166v-1.4211l-2.3195 2.1539c-.2915.2706-.7156.3428-1.0802.1838-.3646-.1589-.6003-.5189-.6003-.9166v-5.5z"/></g></svg>