<svg fill="none" height="48" viewBox="0 0 48 48" width="48" xmlns="http://www.w3.org/2000/svg"><g fill="#333"><path clip-rule="evenodd" d="m12.7781 30.6282c-.2029-.4678-.6613-.7206-1.1082-.597-4.8037 1.328-9.6699 4.0359-9.6699 8.1095v4.8593 2h2 28 2v-2-4.8593c0-4.0736-4.8662-6.7815-9.6699-8.1095-.4469-.1236-.9053.1292-1.1082.597h-3.6126c-.79.0002-1.1922.0002-1.5873.0002-.4098-.0001-.8121-.0001-1.6315.0001zm6.8317 2c-.0002 0-.0003 0-.0005 0-.7961.0002-1.1957.0002-1.588.0002-.4067-.0001-.8055-.0001-1.6303.0001h-.0007l-3.6124-.0003-1.3124-.0001-.1733-.3995c-1.92714.61-3.72522 1.4355-5.06463 2.4322-1.55686 1.1586-2.22757 2.3302-2.22757 3.4799v4.8593h28v-4.8593c0-1.1497-.6707-2.3213-2.2276-3.4799-1.3394-.9967-3.1375-1.8222-5.0646-2.4322l-.1733.3996h-1.3126z" fill-rule="evenodd"/><path d="m11 36c0-.5523.4477-1 1-1s1 .4477 1 1v7c0 .5523-.4477 1-1 1s-1-.4477-1-1z"/><path d="m23 36c0-.5523.4477-1 1-1s1 .4477 1 1v7c0 .5523-.4477 1-1 1s-1-.4477-1-1z"/><g clip-rule="evenodd" fill-rule="evenodd"><path d="m11.6338 12.6474c-1.1839 1.5496-1.4205 3.2487-1.121 4.1177.18.5222-.0974 1.0913-.61952 1.2713-.52214.18-1.09131-.0974-1.27129-.6195-.58263-1.6903-.03021-4.0821 1.42251-5.9837 1.5028-1.96694 4.0356-3.52402 7.6088-3.52402 3.6314 0 6.351 1.41713 8.027 3.31642 1.6378 1.8561 2.3355 4.2651 1.6898 6.1843-.1761.5234-.7432.805-1.2666.6289-.5235-.1761-.8051-.7432-.629-1.2667.3527-1.0483.0236-2.7301-1.2939-4.2232-1.2792-1.4497-3.4434-2.63972-6.5273-2.63972-2.9345 0-4.8857 1.25412-6.0195 2.73822z"/><path d="m13.2622 9.81836c.5523 0 1 .44774 1 1.00004v3.4545c0 .5523-.4477 1-1 1s-1-.4477-1-1v-3.4545c0-.5523.4477-1.00004 1-1.00004z"/><path d="m18.0437 8c.5523 0 1 .44772 1 1v3.4545c0 .5523-.4477 1-1 1s-1-.4477-1-1v-3.4545c0-.55228.4477-1 1-1z"/><path d="m22.8252 9.81836c.5523 0 1 .44774 1 1.00004v3.4545c0 .5523-.4477 1-1 1s-1-.4477-1-1v-3.4545c0-.5523.4477-1.00004 1-1.00004z"/><path d="m7.02573 18.7145c-.18027-1.2187.57868-2.3302 1.72221-3.2965l1.29086 1.5276c-1.00812.8519-1.05604 1.3313-1.0346 1.4762.02454.1659.2232.5304 1.093.9504 1.675.8088 4.7174 1.2641 7.9028 1.2641s6.2279-.4553 7.9029-1.2641c.8697-.42 1.0684-.7845 1.0929-.9504.0215-.1449-.0265-.6243-1.0346-1.4762l1.2909-1.5276c1.1435.9663 1.9025 2.0778 1.7222 3.2965-.1772 1.1978-1.1888 1.9696-2.2018 2.4587-2.0904 1.0094-5.5029 1.4631-8.7725 1.4631s-6.6821-.4537-8.7725-1.4631c-1.01294-.4891-2.02459-1.2609-2.20177-2.4587z"/><path d="m11.3497 20.7275c0 3.4173 2.9292 6.2728 6.6504 6.2728s6.6503-2.8555 6.6503-6.2728h2c0 4.616-3.9212 8.2728-8.6503 8.2728-4.7292 0-8.65037-3.6568-8.65037-8.2728z"/><path d="m31 5c0-.55228.4477-1 1-1h3c.5523 0 1 .44772 1 1v4.91937l3.3753-2.70024c.3002-.24013.7114-.28695 1.0579-.12043s.5668.51689.5668.9013v1.91938l3.3753-2.70025c.3002-.24013.7114-.28695 1.0579-.12043s.5668.51689.5668.9013v11c0 .5523-.4477 1-1 1h-13c-.5523 0-1-.4477-1-1zm2 1v12h11v-7.9194l-3.3753 2.7003c-.3002.2401-.7114.2869-1.0579.1204s-.5668-.5169-.5668-.9013v-1.9194l-3.3753 2.7003c-.3002.2401-.7114.2869-1.0579.1204s-.5668-.5169-.5668-.9013v-6z"/></g><path d="m35 14.4c0-.2209.1791-.4.4-.4h1.2c.2209 0 .4.1791.4.4v1.2c0 .2209-.1791.4-.4.4h-1.2c-.2209 0-.4-.1791-.4-.4z"/><path d="m40 14.4c0-.2209.1791-.4.4-.4h1.2c.2209 0 .4.1791.4.4v1.2c0 .2209-.1791.4-.4.4h-1.2c-.2209 0-.4-.1791-.4-.4z"/></g></svg>