<svg fill="none" height="48" viewBox="0 0 48 48" width="48" xmlns="http://www.w3.org/2000/svg"><path clip-rule="evenodd" d="m12 9c-1.2423 0-2.25003 1.0076-2.25003 2.2514s1.00773 2.2514 2.25003 2.2514c1.2422 0 2.25-1.0076 2.25-2.2514s-1.0078-2.2514-2.25-2.2514zm-4.25003 2.2514c0-2.34757 1.90238-4.2514 4.25003-4.2514 2.3476 0 4.25 1.90383 4.25 4.2514 0 1.6216-.9077 3.0314-2.2428 3.7483h1.7788c1.3806 0 2.6439.7766 3.2671 2.0085l3.1777 6.2809c.6233 1.232.1299 2.736-1.1021 3.3593-1.2321.6233-2.7361.1299-3.3594-1.1021l-.7717-1.5254v.0794l2.7406 6.3572c.6152 1.4268-.4311 3.0171-1.9848 3.0171h-.7558v5.1396c0 1.2995-1.0292 2.4242-2.3711 2.4242-1.3418 0-2.371-1.1247-2.371-2.4242v-5.1396h-.5134v5.1396c0 1.2995-1.0292 2.4242-2.37105 2.4242-1.34182 0-2.37104-1.1247-2.37104-2.4242v-5.1396h-.47573c-1.52019 0-2.5654-1.5277-2.01456-2.9446l2.49029-6.4055v-.0986l-.76921 1.5204c-.62331 1.232-2.12734 1.7254-3.35935 1.1021s-1.72546-2.1273-1.10215-3.3593l3.17766-6.2809c.62326-1.2319 1.8865-2.0085 3.26711-2.0085h1.77863c-1.33508-.7169-2.24273-2.1267-2.24273-3.7483zm1.17282 13.4468-2.54899 6.5565c-.04114.1058.03693.2199.15048.2199h1.47573c.55228 0 1 .4477 1 1v6.1396c0 .2672.20471.4242.37104.4242.16632 0 .37103-.157.37103-.4242v-6.1396c0-.5523.44772-1 1.00002-1h2.5134c.5523 0 1 .4477 1 1v6.1396c0 .2672.2047.4242.371.4242.1664 0 .3711-.157.3711-.4242v-6.1396c0-.5523.4477-1 1-1h1.7558c.1161 0 .1942-.1188.1483-.2253l-2.7931-6.4786c-.0709-.1373-.111-.2932-.111-.4585v-4.483c0-.4629.3177-.8653.7679-.9727.4503-.1074.9154.1082 1.1244.5213l2.664 5.2656c.1247.2464.4255.3451.6719.2204.2464-.1246.3451-.4254.2204-.6718l-3.1777-6.2809c-.2828-.559-.856-.9114-1.4825-.9114h-7.57193c-.62648 0-1.19969.3524-1.48251.9114l-3.17766 6.2809c-.12466.2464-.02597.5472.22043.6718.2464.1247.54721.026.67187-.2204l2.66151-5.2606c.20897-.4131.6741-.6287 1.12435-.5213.45026.1074.76795.5098.76795.9727v4.478c0 .1369-.02748.2673-.07722.386zm27.07711-15.6982c-1.2423 0-2.25 1.0076-2.25 2.2514s1.0077 2.2514 2.25 2.2514c1.2422 0 2.25-1.0076 2.25-2.2514s-1.0078-2.2514-2.25-2.2514zm-4.25 2.2514c0-2.34757 1.9024-4.2514 4.25-4.2514s4.25 1.90383 4.25 4.2514c0 1.6218-.9079 3.0318-2.2433 3.7486h1.9481c1.3416 0 2.5552.796 3.0897 2.0264l3.2484 7.4775c.5502 1.2663-.0304 2.7389-1.2968 3.2891-1.2664.5501-2.739-.0305-3.2891-1.2969l-.7071-1.6275v13.8122c0 1.2959-1.071 2.3194-2.3448 2.3194s-2.3448-1.0235-2.3448-2.3194v-8.0002h-.5443v8.0002c0 1.2959-1.071 2.3194-2.3448 2.3194s-2.3448-1.0235-2.3448-2.3194v-14.0661l-.7684 1.846c-.5305 1.2747-1.994 1.8779-3.2687 1.3474-1.2747-.5306-1.8779-1.994-1.3474-3.2688l3.1071-7.4651c.5228-1.2559 1.7497-2.0742 3.1101-2.0742h2.0841c-1.3353-.7168-2.2432-2.1268-2.2432-3.7486zm.1591 5.7486c-.5527 0-1.0512.3325-1.2636.8427l-3.1071 7.4652c-.1061.2549.0145.5476.2694.6537.255.1061.5477-.0145.6538-.2695l2.6915-6.4667c.1832-.4401.6517-.6897 1.1192-.5963s.8041.5039.8041.9806v19.0711c0 .1554.1393.3194.3448.3194s.3448-.164.3448-.3194v-9.0002c0-.5523.4478-1 1-1h2.5443c.5523 0 1 .4477 1 1v9.0002c0 .1554.1393.3194.3448.3194s.3448-.164.3448-.3194v-18.6238c0-.4739.3326-.8827.7966-.9791.4639-.0964.9318.146 1.1206.5806l2.6243 6.0407c.11.2533.4045.3694.6578.2594s.3694-.4045.2594-.6578l-3.2484-7.4775c-.2172-.4999-.7103-.8233-1.2554-.8233z" fill="#333" fill-rule="evenodd"/></svg>