<svg fill="none" height="48" viewBox="0 0 48 48" width="48" xmlns="http://www.w3.org/2000/svg"><g clip-rule="evenodd" fill="#333" fill-rule="evenodd"><path d="m26 11c0-2.20914 1.7909-4 4-4h4c2.2091 0 4 1.79086 4 4h-2c0-1.10457-.8954-2-2-2h-4c-1.1046 0-2 .89543-2 2 0 1.1046.8954 2 2 2h4c2.2091 0 4 1.7909 4 4s-1.7909 4-4 4h-4c-2.2091 0-4-1.7909-4-4h2c0 1.1046.8954 2 2 2h4c1.1046 0 2-.8954 2-2s-.8954-2-2-2h-4c-2.2091 0-4-1.7909-4-4z"/><path d="m31 23v-18h2v18z"/><path d="m20 36c0-1.6569 1.3431-3 3-3h18c1.6569 0 3 1.3431 3 3v5h-24zm3-1c-.5523 0-1 .4477-1 1v3h20v-3c0-.5523-.4477-1-1-1z"/><path d="m20 44v-4h2v4z"/><path d="m42 44v-4h2v4z"/><path d="m39 33v-6h2v6z"/><path d="m28 33v-4h2v4z"/><path d="m34 33v-4h2v4z"/><path d="m23 33v-6h2v6z"/><path d="m40 30h-16v-2h16z"/><path d="m13 9c0 1.1046-.8954 2-2 2-1.10457 0-2-.8954-2-2 0-1.10457.89543-2 2-2 1.1046 0 2 .89543 2 2zm2 0c0 2.2091-1.7909 4-4 4-2.20914 0-4-1.7909-4-4 0-2.20914 1.79086-4 4-4 2.2091 0 4 1.79086 4 4zm.4585 21h-2.2989l-1 12h-2.31945l-1-12h-2.29888c-.61794 0-1.08798-.5549-.98639-1.1644l2-12c.08036-.4822.49755-.8356.98639-.8356h4.91723c.4888 0 .906.3534.9864.8356l2 12c.1016.6095-.3685 1.1644-.9864 1.1644zm-8.91723 2h.45862l.84717 10.1661c.08638 1.0366.95292 1.8339 1.99309 1.8339h2.31945c1.0402 0 1.9067-.7973 1.9931-1.8339l.8472-10.1661h.4586c1.8538 0 3.264-1.6646 2.9592-3.4932l-2-12c-.2411-1.4466-1.4927-2.5068-2.9592-2.5068h-4.91723c-1.46652 0-2.71809 1.0602-2.95918 2.5068l-2 12c-.30477 1.8286 1.10536 3.4932 2.95918 3.4932z"/></g></svg>