<svg fill="none" height="48" viewBox="0 0 48 48" width="48" xmlns="http://www.w3.org/2000/svg" xmlns:xlink="http://www.w3.org/1999/xlink"><clipPath id="a"><path d="m0 0h48v48h-48z"/></clipPath><g clip-path="url(#a)"><path clip-rule="evenodd" d="m36.7279 36.7279c-7.0294 7.0294-18.4264 7.0294-25.4558 0-5.99719-5.9972-6.87787-15.1733-2.64207-22.1041l5.25567-1.6894c2.4926-.8011 4.3535 2.319 2.464 4.1313-2.9479 2.8276-.8695 7.8018 3.2138 7.6914l1.0336-.0279c1.3352-.0361 2.5185.8543 2.8537 2.1471l.1298.5007c-.3315-.032-.6739-.0088-1.0153.0765l-5.6569 1.4142c-1.6074.4019-2.5847 2.0307-2.1828 3.6381.4018 1.6074 2.0306 2.5846 3.638 2.1828l2.7464-.6866.6867 2.7464c.3641 1.4568 1.7493 2.4199 3.2417 2.2541 7.8193-.8689 11.4061-6.4099 12.3772-8.9994.3598-.9595.2049-2.0363-.4106-2.8555-.6156-.8193-1.6068-1.2676-2.6285-1.189l-2.0702.1592-.7997-3.199c-.4018-1.6074-2.0307-2.5846-3.638-2.1828-1.6074.4019-2.5847 2.0307-2.1829 3.638l1.4143 5.6569c.1827.731.6234 1.3393 1.2071 1.7419-.4095.2405-.8592.4609-1.3521.6505l-1.5682-6.0489c-.569-2.1945-2.5775-3.7057-4.8437-3.6445l-1.0336.028c-2.2557.0609-3.4038-2.6868-1.7754-4.2488 3.4205-3.2809.0518-8.92907-4.4604-7.4787l-2.557.8219c.18-.1965.3651-.39.5554-.5803 7.0294-7.02939 18.4264-7.02939 25.4558 0 7.0295 7.0295 7.0295 18.4265 0 25.4559zm1.4142 1.4142c-7.8104 7.8105-20.4738 7.8105-28.28424 0-7.81048-7.8105-7.81048-20.4738 0-28.28427 7.81054-7.81048 20.47374-7.81048 28.28424 0 7.8105 7.81047 7.8105 20.47377 0 28.28427zm0-15.5563c-.781.781-2.0473.781-2.8284 0-.781-.7811-.781-2.0474 0-2.8285.7811-.781 2.0474-.781 2.8284 0 .7811.7811.7811 2.0474 0 2.8285zm1.4142 1.4142c-1.562 1.5621-4.0947 1.5621-5.6568 0s-1.5621-4.0948 0-5.6569 4.0948-1.5621 5.6568 0c1.5621 1.5621 1.5621 4.0948 0 5.6569zm-4.1503 4.349c-.2052-.2731-.5355-.4225-.8761-.3963l-2.9122.224c-.4862.0374-.9285-.2814-1.0468-.7545l-1.0046-4.0183c-.1339-.5358-.6769-.8616-1.2127-.7276-.5358.1339-.8615.6769-.7276 1.2127l1.4142 5.6568c.1183.4731.5606.7919 1.0469.7545l.4692-.036c.4214-.0325.8176.2035.9899.5895.1722.386.0832.8385-.2224 1.1305-1.1484 1.0973-2.7445 2.1391-4.8761 2.7007-.2586.0681-.5337.0298-.7638-.1063-.2302-.1361-.3963-.3588-.4611-.6182l-.9598-3.8391c-.1339-.5358-.6769-.8615-1.2127-.7276l-5.6568 1.4142c-.5358.134-.8616.6769-.7276 1.2127.1339.5358.6769.8616 1.2127.7276l3.7165-.9291c.2573-.0644.5296-.0238.7571.1126.2274.1365.3913.3577.4556.615l.9291 3.7165c.1214.4856.5831.8067 1.0806.7514 6.8468-.7608 9.9293-5.5908 10.7254-7.7138.1199-.3199.0683-.6788-.1369-.9519z" fill="#333" fill-rule="evenodd"/></g></svg>