<svg fill="none" height="48" viewBox="0 0 48 48" width="48" xmlns="http://www.w3.org/2000/svg" xmlns:xlink="http://www.w3.org/1999/xlink"><mask id="a" fill="#fff"><path clip-rule="evenodd" d="m22.4844 28.8122c1.1258 3.0914 4.0908 5.2989 7.5715 5.2989h2.9445v3.8889s11-1.9444 11-11.9444c0-4.449-3.6066-8.0556-8.0556-8.0556h-5.8889c-.0374 0-.0747.0003-.1119.0008.037.3511.056.7077.056 1.0686 0 4.6789-3.1911 8.6124-7.5156 9.7428z" fill="#fff" fill-rule="evenodd"/></mask><path d="m16 29.1389h-1v1 3.5368c-.1618-.0547-.3368-.1167-.5229-.1868-1.0651-.4006-2.4808-1.0568-3.891-2.0769-2.79463-2.0216-5.5861-5.4753-5.5861-11.3426 0-5.0089 4.06053-9.0694 9.0694-9.0694h7.8612c5.0089 0 9.0694 4.0605 9.0694 9.0694 0 5.009-4.0605 9.0695-9.0694 9.0695z" stroke="#333" stroke-width="2"/><path d="m22.4844 28.8122-.5058-1.935-2.1251.5555.7516 2.0639zm10.516 5.2989h2v-2h-2zm0 3.8889h-2v2.3845l2.3481-.415zm-3.0564-19.9992-.0273-1.9999-2.1916.0299.2299 2.1798zm-9.3389 11.4958c1.4042 3.8559 5.1028 6.6145 9.4508 6.6145v-4c-2.6134 0-4.8449-1.6565-5.6923-3.9833zm9.4508 6.6145h2.9445v-4h-2.9445zm.9445-2v3.8889h4v-3.8889zm2 3.8889c.3481 1.9695.349 1.9693.3499 1.9691.0004 0 .0014-.0002.0021-.0003.0015-.0003.0031-.0006.0049-.0009.0037-.0007.008-.0014.0129-.0024.01-.0018.0226-.0041.0377-.0071.0304-.0058.0711-.0138.1215-.0242.1008-.0209.2404-.0514.4135-.0933.3456-.0835.8272-.2127 1.4-.4007 1.1387-.3739 2.6739-.9919 4.2251-1.9712 3.1332-1.978 6.4324-5.5224 6.4324-11.4134h-4c0 4.1089-2.2009 6.5368-4.5677 8.031-1.1988.7568-2.4136 1.2498-3.3374 1.5531-.4585.1505-.8362.2513-1.0922.3132-.1277.0309-.2244.0519-.2847.0644-.0302.0062-.0513.0103-.0625.0125-.0056.0011-.0088.0016-.0095.0018-.0003 0 0 0 .001-.0002.0005-.0001.0011-.0002.0019-.0004.0004 0 .0011-.0002.0013-.0002.0008-.0001.0016-.0003.3498 1.9692zm13-11.9444c0-5.5536-4.5021-10.0556-10.0556-10.0556v4c3.3444 0 6.0556 2.7112 6.0556 6.0556zm-10.0556-10.0556h-5.8889v4h5.8889zm-5.8889 0c-.0464 0-.0928.0003-.1392.0009l.0545 3.9997c.0282-.0004.0564-.0006.0847-.0006zm-2.1009 2.2106c.0297.2816.045.5681.045.8588h4c0-.4311-.0227-.8577-.0671-1.2785zm.045.8588c0 3.7468-2.5553 6.9018-6.0214 7.8078l1.0116 3.87c5.1829-1.3548 9.0098-6.0669 9.0098-11.6778z" fill="#333" mask="url(#a)"/></svg>