<svg fill="none" height="48" viewBox="0 0 48 48" width="48" xmlns="http://www.w3.org/2000/svg"><path d="m22.0021 18v5.8918c0 .6894-.3551 1.3302-.9396 1.6958l-1.5696.9814" stroke="#333" stroke-width="2"/><path d="m26.0021 18v5.9139c0 .6774.3429 1.3087.911 1.6775l1.5334.9955" stroke="#333" stroke-width="2"/><g fill="#333"><path d="m19.8309 19.063.7808.6247zm1.1851-.563-.0085 1h.0085zm-5.1653 5.5381.7669.6418.0071-.0085.0069-.0086zm-.1948.2998.8969.4421.0008-.0015zm-.1536.6387.9998.0163.0001-.0014zm.1335.6432.9111-.4124-.0008-.0016zm.1855.3057.8-.6-.0067-.0089-.0068-.0086zm2.9298 3.9064.9662.2577.1251-.4692-.2913-.3885zm-1.3782 5.1681-.9662-.2577-.3354 1.2577h1.3016zm2.1293 0h1v-1h-1zm3 0v-1h-1v1zm3 0h1v-1h-1zm3 0v-1h-1v1zm1.8707 0v1h1.4771l-.5486-1.3714zm-1.8389-4.5973-.3536-.9353-.9534.3604.3785.9463zm.6682-.5027-.8-.6zm2.9809-3.9746-.7866-.6175-.0068.0087-.0066.0088zm.1854-.3056-.9103-.414-.0007.0016zm.1336-.6432-.9999.0149v.0014zm-.1536-.6387-.8977.4406.0007.0015zm-.1949-.2998-.7809.6247.0069.0086.0071.0085zm-3.9714-4.9643-.7863.618.0054.0067zm-.0488-.0588-.7546.6561.0007.0009zm-.4813-.3673-.4338.901.0012.0006zm-.5875-.1464-.042.9991h.0011zm-.0763-.0013v1h.0086zm2.1166 6.5296.8.6.4649-.6197-.484-.605zm-.6027-.7534.7809-.6247-1.7809-2.2261v2.8508zm0 1.5571h-1v3l1.8-2.4zm-9.6028-.8037-.7809-.6247-.4839.605.4648.6197zm.6028.8038-.8.6 1.8 2.4v-3zm0-1.5573h1v-2.8507l-1.7809 2.226zm7.5-11.2761c0 1.6569-1.3432 3-3 3v2c2.7614 0 5-2.2386 5-5zm-3-3c1.6568 0 3 1.3431 3 3h2c0-2.7614-2.2386-5-5-5zm-3 3c0-1.6569 1.3431-3 3-3v-2c-2.7615 0-5 2.2386-5 5zm3 3c-1.6569 0-3-1.3431-3-3h-2c0 2.7614 2.2385 5 5 5zm-3.3905 3.6877c.0994-.1243.245-.189.3958-.1877l.0171-2c-.7379-.0063-1.4757.3146-1.9746.9383zm-3.9801 4.9751 3.9801-4.9751-1.5617-1.2494-3.9801 4.9751zm-.078.1157c.0172-.0351.0386-.0682.064-.0986l-1.5337-1.2836c-.13.1553-.2388.3238-.3257.501zm-.0514.213c.0011-.0733.018-.1453.0506-.2115l-1.7939-.8843c-.1669.3385-.2511.7033-.2565 1.066zm.0439.2143c-.0305-.0671-.0452-.1396-.044-.2129l-1.9997-.0327c-.0059.3627.0669.7299.2231 1.0735zm.0617.1022c-.0245-.0313-.0448-.065-.0609-.1006l-1.8221.8247c.0814.1798.1849.3516.3099.5109zm2.9433 3.9239-2.9298-3.9064-1.6 1.2 2.9298 3.9064zm-1.2119 6.0258 1.3781-5.1681-1.9324-.5154-1.3782 5.1681zm1.163-1.2577h-2.1293v2h2.1293zm1 7v-6h-2v6zm.5.5c-.2761 0-.5-.2239-.5-.5h-2c0 1.3807 1.1193 2.5 2.5 2.5zm.5-.5c0 .2761-.2239.5-.5.5v2c1.3807 0 2.5-1.1193 2.5-2.5zm0-6v6h2v-6zm4-1h-3v2h3zm1 7v-6h-2v6zm.5.5c-.2761 0-.5-.2239-.5-.5h-2c0 1.3807 1.1193 2.5 2.5 2.5zm.5-.5c0 .2761-.2239.5-.5.5v2c1.3807 0 2.5-1.1193 2.5-2.5zm0-6v6h2v-6zm2.8707-1h-1.8707v2h1.8707zm-2.7674-3.2259 1.8389 4.5973 1.857-.7428-1.8389-4.5972zm1.2822.564c.4296-.1624.82-.4454 1.1145-.8381l-1.6-1.2c-.06.08-.1369.1353-.2218.1674zm1.1145-.8381 2.9809-3.9746-1.6-1.2-2.9809 3.9746zm1.4553-5.2926c-.0161.0356-.0365.0693-.061.1005l1.5732 1.235c.125-.1592.2284-.331.3098-.5108zm1.8213.8263c.1562-.3436.229-.7108.2231-1.0735l-1.9997.0327c.0012.0733-.0135.1458-.044.2129zm-1.8273-1.2537c.0326.0661.0496.1382.0507.2115l1.9997-.0298c-.0054-.3627-.0896-.7275-.2565-1.066zm1.7947-.8827c-.087-.1772-.1958-.3457-.3257-.501l-1.5338 1.2836c.0255.0304.0469.0635.0641.0986zm-5.8449-4.1988 3.9714 4.9643 1.5617-1.2494-3.9714-4.9643zm-.0218-.0265c.0057.0064.0111.013.0164.0198l1.5725-1.2359c-.0262-.0333-.0532-.066-.0811-.0979zm-.16-.1227c.0587.0282.1129.0684.1593.1218l1.5093-1.3123c-.2291-.2635-.5039-.469-.8035-.6127zm-.1958-.0489c.0707.0029.136.0201.1946.0483l.8676-1.802c-.2993-.1441-.6314-.2303-.9803-.2446zm-.0268-.0004c.0085-.0001.0171 0 .0257.0004l.0841-1.9982c-.0423-.0018-.0846-.0025-.127-.0022zm-5.9809 0h5.9723v-2h-5.9723zm8.8698 4.9049-.6027-.7534-1.5618 1.2494.6028.7534zm-2.3836-.1287v1.5571h2v-1.5571zm.8027.1534-.6027.8037 1.6 1.2.6027-.8037zm-10.2055 1.2.6028.8038 1.6-1.2-.6028-.8038zm.6219-1.9782-.6028.7535 1.5618 1.2494.6028-.7535zm1.7809 2.182v-1.5573h-2v1.5573z"/><path clip-rule="evenodd" d="m28.0021 24.834-2 2.6666c-.8284 1.1046-.6046 2.6716.5 3.5 1.1046.8285 2.6716.6046 3.5-.5l2.6251-3.5h-2.5l-1.7251 2.3c-.1657.221-.4791.2657-.7.1-.2209-.1656-.2657-.479-.1-.7l1.2751-1.7h-.8751z" fill-rule="evenodd"/><path clip-rule="evenodd" d="m19.998 24.834 2 2.6666c.8284 1.1046.6046 2.6716-.5 3.5-1.1045.8285-2.6716.6046-3.5-.5l-2.625-3.5h2.5l1.725 2.3c.1657.221.4791.2657.7.1.2209-.1656.2657-.479.1-.7l-1.275-1.7h.875z" fill-rule="evenodd"/></g><path d="m19.0021 20v-2c0-1.1046.8954-2 2-2" stroke="#333" stroke-width="2"/><path d="m29.0021 20v-2c0-1.1046-.8955-2-2-2" stroke="#333" stroke-width="2"/><path d="m28 5.40545c0-.29765-.3406-.49366-.6356-.36555l-3.3644 1.46006 3.3644 1.4602c.295.12797.6356-.0679.6356-.36569z" fill="#333"/><path d="m20.6356 5.0399c-.295-.12811-.6356.0679-.6356.36555v2.18902c0 .29779.3406.49366.6356.36569l3.3644-1.4602z" fill="#333"/></svg>