<svg fill="none" height="48" viewBox="0 0 48 48" width="48" xmlns="http://www.w3.org/2000/svg"><path clip-rule="evenodd" d="m20.6355 9.0399c-.2949-.12811-.6355.0679-.6355.36555v2.18905c0 .2978.3406.4936.6355.3657l3.3645-1.4602 3.3644 1.4602c.295.1279.6356-.0679.6356-.3657v-2.18905c0-.29765-.3406-.49366-.6356-.36555l-3.3644 1.4601zm.8646 7.7101c0-1.3807 1.1193-2.5 2.5-2.5 1.3808 0 2.5 1.1193 2.5 2.5s-1.1192 2.5-2.5 2.5c-1.3807 0-2.5-1.1193-2.5-2.5zm2.5-4.5c-2.4852 0-4.5 2.0147-4.5 4.5 0 1.7415.9893 3.2519 2.4364 4h-.4364c-.8358 0-1.6164.4178-2.0801 1.1133l-4 6c-.7659 1.1488-.4554 2.7009.6934 3.4668.5884.3923 1.2826.5022 1.9228.3618l-.9305 1.8609-.7236 1.4472h1.618 1v2.25c0 1.3807 1.1193 2.5 2.5 2.5 1.3808 0 2.5-1.1193 2.5-2.5 0 1.3807 1.1193 2.5 2.5 2.5 1.3808 0 2.5-1.1193 2.5-2.5v-2.25h1 1.6181l-.7236-1.4472-.9305-1.8609c.6402.1404 1.3344.0305 1.9228-.3618 1.1488-.7659 1.4593-2.318.6934-3.4668l-4-6c-.4637-.6955-1.2443-1.1133-2.0802-1.1133h-.4364c1.4472-.7481 2.4364-2.2585 2.4364-4 0-2.4853-2.0147-4.5-4.5-4.5zm-4 20.75h-.3819l1.2764-2.5528.1055-.2111v-.2361-1.7958-3.3028l-1.832 2.7481-1.2519 1.8778c-.1532.2298-.4636.2919-.6934.1387s-.2919-.4636-.1387-.6934l4-6c.0928-.139.2489-.2226.416-.2226h5c.1672 0 .3233.0836.4161.2226l4 6c.1531.2298.0911.5402-.1387.6934s-.5402.0911-.6934-.1387l-1.2519-1.8778-1.8321-2.7481v3.3028 1.7958.2361l.1056.2111 1.2764 2.5528h-.382-1v1 3.25c0 .2761-.2238.5-.5.5-.2761 0-.5-.2239-.5-.5v-3.25-1h-1-2-1v1 3.25c0 .2761-.2238.5-.5.5-.2761 0-.5-.2239-.5-.5v-3.25-1z" fill="#333" fill-rule="evenodd"/></svg>