<svg fill="none" height="48" viewBox="0 0 48 48" width="48" xmlns="http://www.w3.org/2000/svg"><g clip-rule="evenodd" fill="#333" fill-rule="evenodd"><path d="m13 31c1.6579 0 3-1.3421 3-3s-1.3421-3-3-3-3 1.3421-3 3 1.3421 3 3 3zm0 2c2.7625 0 5-2.2375 5-5s-2.2375-5-5-5-5 2.2375-5 5 2.2375 5 5 5z"/><path d="m5.62151 38.7886c-.48599.4893-.62151.8839-.62151 1.2114v1h18v-1c0-.3275-.1355-.7221-.6215-1.2114-.5043-.5077-1.2895-1.0094-2.3027-1.4522-2.0371-.8903-4.5143-1.3364-6.0758-1.3364s-4.03865.4461-6.07582 1.3364c-1.01321.4428-1.79842.9445-2.30267 1.4522zm8.37849-4.7886c-3.6712 0-11 2.01-11 6v3h22v-3c0-3.99-7.3287-6-11-6z"/><path d="m35 31c1.6579 0 3-1.3421 3-3s-1.3421-3-3-3-3 1.3421-3 3 1.3421 3 3 3zm0 2c2.7625 0 5-2.2375 5-5s-2.2375-5-5-5-5 2.2375-5 5 2.2375 5 5 5z"/><path d="m24 29c1.1054 0 2-.8946 2-2s-.8946-2-2-2-2 .8946-2 2 .8946 2 2 2zm0 2c2.21 0 4-1.79 4-4s-1.79-4-4-4-4 1.79-4 4 1.79 4 4 4z"/><path d="m25.6215 38.7886c-.486.4893-.6215.8839-.6215 1.2114v1h18v-1c0-.3275-.1355-.7221-.6215-1.2114-.5043-.5077-1.2895-1.0094-2.3027-1.4522-2.0371-.8903-4.5143-1.3364-6.0758-1.3364s-4.0387.4461-6.0758 1.3364c-1.0132.4428-1.7984.9445-2.3027 1.4522zm8.3785-4.7886c-3.6712 0-11 2.01-11 6v3h22v-3c0-3.99-7.3287-6-11-6z"/><path d="m24 34c-3.3093 0-5.6283 1.5425-6.2929 2.2071l-1.4143-1.4142c1.0021-1.002 3.8164-2.7929 7.7072-2.7929 3.8907 0 6.705 1.7909 7.7071 2.7929l-1.4143 1.4142c-.6646-.6646-2.9836-2.2071-6.2928-2.2071z"/><path d="m15.2 15.0833h-3.1583c-2.23218 0-4.0417-1.8095-4.0417-4.0416 0-2.23218 1.80952-4.0417 4.0417-4.0417h5.9166c2.2322 0 4.0417 1.80952 4.0417 4.0417 0 2.5829-1.8078 4.3033-4.2688 5.4902-.8722.4206-1.756.7351-2.5312.9647zm-2 4.9167s.8163-.1102 2-.4259c3.122-.8326 8.8-3.0943 8.8-8.5324 0-3.33675-2.7049-6.0417-6.0417-6.0417h-5.9166c-3.33675 0-6.0417 2.70495-6.0417 6.0417 0 3.3367 2.70495 6.0416 6.0417 6.0416h1.1583z"/><path d="m33.6 16.0833h2.3583c2.2322 0 4.0417-1.8095 4.0417-4.0416 0-2.23218-1.8095-4.0417-4.0417-4.0417h-3.9166c-2.2322 0-4.0417 1.80952-4.0417 4.0417 0 2.7071 1.671 4.4037 3.7537 5.5337.6281.3407 1.2635.6102 1.8463.8203zm2 4.9167s-.8291-.1259-2-.4942c-2.8134-.8847-7.6-3.1682-7.6-8.4641 0-3.33675 2.7049-6.0417 6.0417-6.0417h3.9166c3.3368 0 6.0417 2.70495 6.0417 6.0417 0 3.3367-2.7049 6.0416-6.0417 6.0416h-.3583z"/></g></svg>