<svg fill="none" height="48" viewBox="0 0 48 48" width="48" xmlns="http://www.w3.org/2000/svg"><g fill="#333"><path d="m14.5547 20.8321c1.4807-.9872 3.4098-.9872 4.8906 0 .4595.3063 1.0804.1821 1.3867-.2774.3064-.4595.1822-1.0804-.2773-1.3867-2.1526-1.4351-4.9569-1.4351-7.1094 0-.4595.3063-.5837.9272-.2774 1.3867.3064.4595.9273.5837 1.3868.2774z"/><path d="m28.5547 20.8321c1.4807-.9872 3.4098-.9872 4.8906 0 .4595.3063 1.0804.1821 1.3867-.2774.3064-.4595.1822-1.0804-.2773-1.3867-2.1526-1.4351-4.9569-1.4351-7.1094 0-.4595.3063-.5837.9272-.2774 1.3867.3064.4595.9273.5837 1.3868.2774z"/><g clip-rule="evenodd" fill-rule="evenodd"><path d="m33.2581 30c.306-.6336.5556-1.3027.7419-2h-20c.1863.6973.4359 1.3664.7419 2 1.7199 3.5617 5.22 6 9.2581 6s7.5382-2.4383 9.2581-6zm-9.2581 4c-2.8697 0-5.4525-1.5553-6.9778-4h13.9556c-1.5253 2.4447-4.1081 4-6.9778 4z"/><path d="m24 44c11.0457 0 20-8.9543 20-20s-8.9543-20-20-20-20 8.9543-20 20 8.9543 20 20 20zm0-2c9.9411 0 18-8.0589 18-18s-8.0589-18-18-18-18 8.0589-18 18 8.0589 18 18 18z"/></g></g></svg>