<svg fill="none" height="48" viewBox="0 0 48 48" width="48" xmlns="http://www.w3.org/2000/svg"><g clip-rule="evenodd" fill="#333" fill-rule="evenodd"><path d="m19.0001 2.23633 1 3 1-3zm-4 6 3-1-3-1zm3.8284-2.17173-2.8284-1.41421 1.4142-1.41421zm.4898.32188c1.0217-.92876 2.6028-.85347 3.5316.16818.9287 1.02164.8534 2.60276-.1682 3.53154l-3.6729 3.339 1.6157 1.8219h.8135c.0418-.0013.0838-.0019.1259-.0019h7.8267c.4619 0 .9743.1867 1.4181.4195.4748.2491.988.6124 1.4634 1.0873.9558.9549 1.7936 2.4007 1.7936 4.3037 0 2.3411-.7764 4.0514-1.7365 5.1879-.4751.5623-.9935.9821-1.4801 1.2668-.1471.0861-.3012.1656-.4585.2337v15.3851c0 1.4513-1.1833 2.6346-2.6346 2.6346s-2.6345-1.1833-2.6345-2.6346v-10.1728h-2.2692v10.1728c0 1.4513-1.1833 2.6346-2.6346 2.6346s-2.6345-1.1833-2.6345-2.6346v-23.7757l-3.9537-4.4585c-.908-1.024-.8239-2.5879.1888-3.5085zm2.0517 1.51352c-.1858-.20433-.502-.21939-.7063-.03364l-5.5 5.00004c-.2026.1841-.2194.4968-.0378.7017l4 4.5108c.0224.0252.047.0478.0733.0677l.4484.3376-.0546.5586c-.0065.0663-.0098.1338-.0098.2024v23.884c0 .3468.2878.6346.6345.6346.3468 0 .6346-.2878.6346-.6346v-11.1728-1h1 4.2692 1v1 11.1728c0 .3467.2878.6346.6345.6346.3468 0 .6346-.2878.6346-.6346v-16.1487-1h.0025v-6.7607h2v6.155c.135-.1212.2727-.2615.4083-.4219.6526-.7725 1.2643-2.0247 1.2643-3.8972 0-1.273-.5502-2.2325-1.2072-2.8888-.331-.3307-.6805-.5745-.979-.7312-.2864-.1502-.4536-.1832-.4844-.1893-.0046-.0009-.0061-.0012-.0045-.0012h-7.8267c-.0247 0-.0492.0004-.0735.0013l-.0179.0006h-.0179-1.2799-.4498l-.2984-.3365-2.5694-2.8975-.6553-.739.7308-.6644 4.4038-4.00339c.2043-.18576.2193-.50198.0336-.70631z"/><path d="m27 11c0 1.6569-1.3432 3-3 3-1.6569 0-3-1.3431-3-3 0-.1623.0128-.3215.0376-.4768-.1934.1876-.3788.3497-.5376.4768l-1.3231 1.3231c.58 2.1193 2.5197 3.6769 4.8231 3.6769 2.7614 0 5-2.2386 5-5 0-2.76142-2.2386-5-5-5-.8497 0-1.6499.21195-2.3506.58586.3711.15661.692.43849.8506.91414.0948.28447.0791.59328-.0112.9078.4438-.25924.9601-.4078 1.5112-.4078 1.6568 0 3 1.34315 3 3z"/></g></svg>