<svg fill="none" height="48" viewBox="0 0 48 48" width="48" xmlns="http://www.w3.org/2000/svg"><g fill="#333"><path clip-rule="evenodd" d="m24 27c5.525 0 10-4.475 10-10s-4.475-10-10-10-10 4.475-10 10 4.475 10 10 10zm8-10c0 4.4204-3.5796 8-8 8s-8-3.5796-8-8 3.5796-8 8-8 8 3.5796 8 8z" fill-rule="evenodd"/><path d="m32 34v-2h2v2h2v2h-2v2h-2v-2h-2v-2z"/><path clip-rule="evenodd" d="m17 28.0127c.5028-.1145 2 1.9873 2 1.9873l4.5528.0001c.5883.0001 1.0164.0002 2.1323-.0001h3.3149s1.4972-2.1018 2-1.9873c5.4042 1.2308 11 4.782 11 8.5573v5.4301h-36v-5.4301c0-3.7753 5.5958-7.3265 11-8.5573zm6.551 3.9874c.5886.0001 1.018.0002 2.1341-.0001h4.3458l.5981-.8396.0008-.0012.009-.0124.0401-.0552c.0362-.0494.0897-.1217.1559-.2089.1343-.177.3118-.4032.4966-.6193.0256-.03.0506-.0588.0748-.0864 2.1846.6027 4.3235 1.5953 5.9415 2.7758 1.9226 1.4027 2.6523 2.7142 2.6523 3.6172v3.4301h-32v-3.4301c0-.903.72972-2.2145 2.6523-3.6172 1.618-1.1805 3.7569-2.1731 5.9415-2.7758.0242.0276.0492.0564.0748.0864.1848.2161.3623.4423.4966.6193.0662.0872.1197.1595.1559.2089l.0401.0552.0098.0136.5981.8396z" fill-rule="evenodd"/></g></svg>