<svg fill="none" height="48" viewBox="0 0 48 48" width="48" xmlns="http://www.w3.org/2000/svg"><g clip-rule="evenodd" fill="#333" fill-rule="evenodd"><path d="m13 21c1.6579 0 3-1.3421 3-3s-1.3421-3-3-3-3 1.3421-3 3 1.3421 3 3 3zm0 2c2.7625 0 5-2.2375 5-5s-2.2375-5-5-5-5 2.2375-5 5 2.2375 5 5 5z"/><path d="m5.62151 28.7886c-.48599.4893-.62151.8839-.62151 1.2114v3h18v-3c0-.3275-.1355-.7221-.6215-1.2114-.5043-.5077-1.2895-1.0094-2.3027-1.4522-2.0371-.8903-4.5143-1.3364-6.0758-1.3364s-4.03865.4461-6.07582 1.3364c-1.01321.4428-1.79842.9445-2.30267 1.4522zm8.37849-4.7886c-3.6713 0-11 2.01-11 6v5h22v-5c0-3.99-7.3287-6-11-6z"/><path d="m35 21c1.6579 0 3-1.3421 3-3s-1.3421-3-3-3-3 1.3421-3 3 1.3421 3 3 3zm0 2c2.7625 0 5-2.2375 5-5s-2.2375-5-5-5-5 2.2375-5 5 2.2375 5 5 5z"/><path d="m24 19c1.1054 0 2-.8946 2-2s-.8946-2-2-2-2 .8946-2 2 .8946 2 2 2zm0 2c2.21 0 4-1.79 4-4s-1.79-4-4-4-4 1.79-4 4 1.79 4 4 4z"/><path d="m25.6215 28.7886c-.486.4893-.6215.8839-.6215 1.2114v3h18v-3c0-.3275-.1355-.7221-.6215-1.2114-.5043-.5077-1.2895-1.0094-2.3027-1.4522-2.0371-.8903-4.5143-1.3364-6.0758-1.3364s-4.0387.4461-6.0758 1.3364c-1.0132.4428-1.7984.9445-2.3027 1.4522zm8.3785-4.7886c-3.6713 0-11 2.01-11 6v5h22v-5c0-3.99-7.3287-6-11-6z"/><path d="m24 24c-3.3093 0-5.6283 1.5425-6.2929 2.2071l-1.4143-1.4142c1.0021-1.002 3.8164-2.7929 7.7072-2.7929 3.8907 0 6.705 1.7909 7.7071 2.7929l-1.4143 1.4142c-.6646-.6646-2.9836-2.2071-6.2928-2.2071z"/></g></svg>