<svg fill="none" height="48" viewBox="0 0 48 48" width="48" xmlns="http://www.w3.org/2000/svg"><g clip-rule="evenodd" fill="#333" fill-rule="evenodd"><path d="m13.5 20c1.3817 0 2.5-1.1183 2.5-2.5s-1.1183-2.5-2.5-2.5-2.5 1.1183-2.5 2.5 1.1183 2.5 2.5 2.5zm0 2c2.4862 0 4.5-2.0138 4.5-4.5 0-2.4863-2.0138-4.5-4.5-4.5s-4.5 2.0137-4.5 4.5c0 2.4862 2.0138 4.5 4.5 4.5z"/><path d="m6.51219 28.4814c-.41831.4212-.51219.7364-.51219.9731v4.5455h16v-4.5455c0-.2367-.0939-.5519-.5122-.9731-.4366-.4396-1.1281-.8844-2.0371-1.2817-1.8289-.7993-4.0561-1.1997-5.4507-1.1997s-3.6218.4004-5.45067 1.1997c-.90907.3973-1.60056.8421-2.03714 1.2817zm7.48781-4.4814c-3.3375 0-10 1.8273-10 5.4545v6.5455h20v-6.5455c0-3.6272-6.6625-5.4545-10-5.4545z"/><path d="m34.5 20c1.3817 0 2.5-1.1183 2.5-2.5s-1.1183-2.5-2.5-2.5-2.5 1.1183-2.5 2.5 1.1183 2.5 2.5 2.5zm0 2c2.4863 0 4.5-2.0138 4.5-4.5 0-2.4863-2.0137-4.5-4.5-4.5-2.4862 0-4.5 2.0137-4.5 4.5 0 2.4862 2.0138 4.5 4.5 4.5z"/><path d="m24 18c1.1054 0 2-.8946 2-2s-.8946-2-2-2-2 .8946-2 2 .8946 2 2 2zm0 2c2.21 0 4-1.79 4-4s-1.79-4-4-4-4 1.79-4 4 1.79 4 4 4z"/><path d="m26.5122 28.4814c-.4183.4212-.5122.7364-.5122.9731v4.5455h16v-4.5455c0-.2367-.0939-.5519-.5122-.9731-.4366-.4396-1.1281-.8844-2.0371-1.2817-1.8289-.7993-4.0561-1.1997-5.4507-1.1997s-3.6218.4004-5.4507 1.1997c-.909.3973-1.6005.8421-2.0371 1.2817zm7.4878-4.4814c-3.3375 0-10 1.8273-10 5.4545v6.5455h20v-6.5455c0-3.6272-6.6625-5.4545-10-5.4545z"/><path d="m24 24c-3.3093 0-5.6283 1.5425-6.2929 2.2071l-1.4142-1.4142c1.002-1.002 3.8164-2.7929 7.7071-2.7929s6.7051 1.7909 7.7071 2.7929l-1.4142 1.4142c-.6646-.6646-2.9836-2.2071-6.2929-2.2071z"/></g></svg>