<svg fill="none" height="48" viewBox="0 0 48 48" width="48" xmlns="http://www.w3.org/2000/svg"><g clip-rule="evenodd" fill="#333" fill-rule="evenodd"><path d="m36 12c-1.1046 0-2 .8954-2 2s.8954 2 2 2 2-.8954 2-2-.8954-2-2-2zm-4 2c0-2.2091 1.7909-4 4-4s4 1.7909 4 4-1.7909 4-4 4-4-1.7909-4-4z"/><path d="m29.6574 19.1259c.5693-.7116 1.4312-1.1259 2.3426-1.1259h6c.0775 0 .1544.003.2307.0088h2.6599c.4619 0 .9743.1867 1.418.4195.4749.2491.9881.6124 1.4634 1.0873.9558.9549 1.7936 2.4007 1.7936 4.3037 0 2.3411-.7763 4.0514-1.7365 5.1879-.475.5623-.9934.9821-1.48 1.2668-.1471.0861-.3012.1656-.4585.2337v11.3851c0 1.4513-1.1833 2.6346-2.6346 2.6346s-2.6346-1.1833-2.6346-2.6346v-7.1728h-1.2691v7.1728c0 1.4513-1.1833 2.6346-2.6346 2.6346s-2.6346-1.1833-2.6346-2.6346v-13.7339c-.5556.5361-1.3011.8411-2.0831.8411h-6c-1.6569 0-3-1.3431-3-3s1.3431-3 3-3h4.5581zm2.3426.8741c-.3038 0-.5911.1381-.7809.3753l-3.6997 4.6247h-5.5194c-.5523 0-1 .4477-1 1s.4477 1 1 1h6c.3038 0 .5911-.1381.7809-.3753l3.3022-4.1278v19.3959c0 .3468.2879.6346.6346.6346s.6346-.2878.6346-.6346v-9.1728h5.2691v9.1728c0 .3468.2879.6346.6346.6346s.6346-.2878.6346-.6346v-13.1486h1c-.006 0-.0041-.0005.0052-.0027.037-.0089.1905-.0458.4432-.1937.2868-.1678.631-.4391.9623-.8313.6527-.7725 1.2643-2.0247 1.2643-3.8972 0-1.273-.5502-2.2325-1.2071-2.8888-.3311-.3307-.6805-.5745-.979-.7312-.2865-.1502-.4537-.1832-.4844-.1893-.0046-.0009-.0062-.0012-.0045-.0012h-2.7486l-.0465-.0044c-.0312-.0029-.063-.0044-.0955-.0044z"/><path d="m4 4h33v5.16h-2v-3.16h-29v24h23v2h-25z"/><path d="m39.8861 29.625v-7.6074h2v7.6074z"/></g></svg>