<svg fill="none" height="48" viewBox="0 0 48 48" width="48" xmlns="http://www.w3.org/2000/svg"><g fill="#333"><path d="m29.589 21.5342.1644.9864zm2.6471 1.3479.8944-.4472zm-14.1448.5683-.1644-.9864zm-2.5551 1.8872.8944.4472zm-3.7723 7.5445-.8944-.4472zm.2018 2.5711-.8138.5813zm5 7-.8138.5813zm4.0686-2.9062.8138-.5812zm-1.7897-2.5056-.8781-.4786-.2998.5501.3642.5097zm.861-.8301.4472.8944zm1.6815-.8408.4472.8945 2.1593-1.0797-2.2903-.7634zm1.2129-3.812h-1v.7207l.6838.228zm4.6325 1.5441.9501.312.3105-.9458-.9444-.3148zm-.0001.0002-.9501-.312-.3106.9459.9445.3148zm1.1565 1.0029-.8945.4472zm.1926.6192.8138.5812.2316-.3243-.0549-.3947zm-2.0158 2.8221.8137.5813zm.5812 3.4875-.5812.8137zm3.4874-.5813.8138.5813zm5-7 .8138.5813zm.2018-2.5711.8944-.4472zm-6.4827-8.3615c.6496-.1083 1.2938.2197 1.5883.8087l1.7888-.8944c-.6871-1.3743-2.1903-2.1397-3.7059-1.8871zm-11.4977 1.9162 11.4977-1.9162-.3288-1.9728-11.4977 1.9162zm-1.8251 1.348c.3577-.7154 1.0361-1.2165 1.8251-1.348l-.3288-1.9728c-1.4201.2367-2.6413 1.1386-3.2851 2.4264zm-3.7722 7.5445 3.7722-7.5445-1.7888-.8944-3.7723 7.5445zm.121 1.5427c-.3229-.4521-.3695-1.0457-.121-1.5427l-1.7889-.8944c-.5798 1.1596-.4711 2.5446.2824 3.5996zm5 7-5-7-1.6275 1.1625 5 7zm2.0925.3487c-.6742.4816-1.611.3254-2.0925-.3487l-1.6275 1.1625c1.1236 1.5729 3.3095 1.9372 4.8824.8137zm.3487-2.0924c.4815.6741.3254 1.6109-.3487 2.0924l1.1624 1.6275c1.573-1.1235 1.9373-3.3094.8138-4.8824zm-1.7897-2.5057 1.7897 2.5057 1.6275-1.1625-1.7898-2.5056zm1.2275-2.3057c-.568.284-1.0085.7261-1.2919 1.2459l1.7561.9572c.0942-.1728.2393-.3188.4302-.4143zm1.6815-.8408-1.6815.8408.8944 1.7888 1.6815-.8407zm-1.2886 1.37 1.4195.4731.6325-1.8973-1.4195-.4732zm-2.0513-2.8461c0 1.2913.8263 2.4377 2.0513 2.8461l.6325-1.8974c-.4084-.1361-.6838-.5183-.6838-.9487zm0-4v4h2v-4zm3-3c-1.6568 0-3 1.3431-3 3h2c0-.5523.4477-1 1-1zm3 3c0-1.6569-1.3431-3-3-3v2c.5523 0 1 .4477 1 1zm0 2.5585v-2.5585h-2v2.5585zm3.9487.5955-4.6325-1.5442-.6324 1.8974 4.6324 1.5441zm.6338 1.2607.0001-.0001-1.9002-.6239-.0001.0001zm1.1008.2438c-.3704-.7407-1.0077-1.2621-1.7347-1.5044l-.6324 1.8974c.2443.0814.4546.2542.5782.5014zm.2887.9286c-.044-.3163-.1394-.6299-.2887-.9286l-1.7889.8944c.0509.1017.0822.2059.0967.3097zm-2.1926 3.5412 2.0159-2.8222-1.6275-1.1625-2.0159 2.8222zm.3488 2.0924c-.6742-.4815-.8303-1.4183-.3488-2.0924l-1.6275-1.1625c-1.1235 1.573-.7592 3.7589.8138 4.8824zm2.0924-.3487c-.4815.6741-1.4183.8303-2.0924.3487l-1.1625 1.6275c1.5729 1.1235 3.7588.7592 4.8824-.8137zm5-7-5 7 1.6275 1.1625 5-7zm.1211-1.5427c.2484.497.2019 1.0906-.1211 1.5427l1.6275 1.1625c.7535-1.055.8622-2.44.2824-3.5996zm-4-8 4 8 1.7888-.8944-4-8zm-1.8417 10.6707c2.4853 0 4.5-2.0147 4.5-4.5h-2c0 1.3807-1.1193 2.5-2.5 2.5zm-4.5-4.5c0 2.4853 2.0147 4.5 4.5 4.5v-2c-1.3807 0-2.5-1.1193-2.5-2.5zm4.5-4.5c-2.4853 0-4.5 2.0147-4.5 4.5h2c0-1.3807 1.1193-2.5 2.5-2.5zm4.5 4.5c0-2.4853-2.0147-4.5-4.5-4.5v2c1.3807 0 2.5 1.1193 2.5 2.5z"/><path clip-rule="evenodd" d="m24 6c-1.1046 0-2 .89543-2 2 0 .0964.0068.1912.02.28396.6278-.1848 1.2923-.28396 1.98-.28396s1.3522.09916 1.98.28396c.0132-.09276.02-.18756.02-.28396 0-1.10457-.8954-2-2-2zm3.8344 3.14266c.1078-.36206.1656-.7456.1656-1.14266 0-2.20914-1.7908-4-4-4-2.2091 0-4 1.79086-4 4 0 .39706.0579.7806.1656 1.14266-1.9065 1.25064-3.1656 3.40694-3.1656 5.85734 0 3.866 3.134 7 7 7s7-3.134 7-7c0-2.4504-1.2591-4.6067-3.1656-5.85734zm-8.8344 5.85734c0-2.7614 2.2386-5 5-5s5 2.2386 5 5-2.2386 5-5 5-5-2.2386-5-5zm10.9319 20.1107 1.1643-1.63-1.6274-1.1625-1.1644 1.63zm-14.7456-2.0295 2.9795 4.1714 1.6275-1.1625-2.9796-4.1713z" fill-rule="evenodd"/></g></svg>