<svg fill="none" height="48" viewBox="0 0 48 48" width="48" xmlns="http://www.w3.org/2000/svg"><path clip-rule="evenodd" d="m11.9999 9c-1.2422 0-2.24998 1.0076-2.24998 2.2514s1.00778 2.2514 2.24998 2.2514c1.2423 0 2.25-1.0076 2.25-2.2514s-1.0077-2.2514-2.25-2.2514zm-4.24998 2.2514c0-2.34757 1.90238-4.2514 4.24998-4.2514s4.25 1.90383 4.25 4.2514c0 1.6218-.9079 3.0318-2.2432 3.7486h1.9481c1.3415 0 2.5552.796 3.0897 2.0264l3.2484 7.4775c.5501 1.2663-.0305 2.7389-1.2969 3.2891-1.2663.5501-2.7389-.0305-3.2891-1.2969l-.707-1.6275v13.8122c0 1.2959-1.0711 2.3194-2.3448 2.3194-1.2738 0-2.3449-1.0235-2.3449-2.3194v-8.0002h-.5442v8.0002c0 1.2959-1.0711 2.3194-2.34485 2.3194-1.27379 0-2.34484-1.0235-2.34484-2.3194v-14.0661l-.76833 1.846c-.53056 1.2747-1.99401 1.8779-3.26872 1.3474-1.2747-.5306-1.87796-1.994-1.3474-3.2688l3.10713-7.4651c.52275-1.2559 1.74963-2.0742 3.11003-2.0742h2.08416c-1.33537-.7168-2.24326-2.1268-2.24326-3.7486zm28.25008-2.2514c-1.2422 0-2.25 1.0076-2.25 2.2514s1.0078 2.2514 2.25 2.2514 2.25-1.0076 2.25-2.2514-1.0078-2.2514-2.25-2.2514zm-4.25 2.2514c0-2.34757 1.9024-4.2514 4.25-4.2514s4.25 1.90383 4.25 4.2514c0 1.6216-.9076 3.0314-2.2427 3.7483h1.7788c1.3806 0 2.6438.7766 3.2671 2.0085l3.1776 6.2809c.6234 1.232.1299 2.736-1.1021 3.3593s-2.7361.1299-3.3594-1.1021l-.7717-1.5254v.0794l2.7407 6.3572c.6151 1.4268-.4311 3.0171-1.9849 3.0171h-.7558v5.1396c0 1.2995-1.0292 2.4242-2.371 2.4242s-2.3711-1.1247-2.3711-2.4242v-5.1396h-.5134v5.1396c0 1.2995-1.0292 2.4242-2.371 2.4242s-2.371-1.1247-2.371-2.4242v-5.1396h-.4758c-1.5202 0-2.5654-1.5277-2.0145-2.9446l2.4903-6.4055v-.0986l-.7693 1.5204c-.6233 1.232-2.1273 1.7254-3.3593 1.1021s-1.7255-2.1273-1.1022-3.3593l3.1777-6.2809c.6233-1.2319 1.8865-2.0085 3.2671-2.0085h1.7786c-1.335-.7169-2.2427-2.1267-2.2427-3.7483zm1.1728 13.4468-2.5489 6.5565c-.0412.1058.0369.2199.1504.2199h1.4758c.5522 0 1 .4477 1 1v6.1396c0 .2672.2047.4242.371.4242s.371-.157.371-.4242v-6.1396c0-.5523.4477-1 1-1h2.5134c.5523 0 1 .4477 1 1v6.1396c0 .2672.2048.4242.3711.4242s.371-.157.371-.4242v-6.1396c0-.5523.4477-1 1-1h1.7558c.1161 0 .1942-.1188.1483-.2253l-2.793-6.4786c-.071-.1373-.1111-.2932-.1111-.4585v-4.483c0-.4629.3177-.8653.768-.9727.4502-.1074.9153.1082 1.1243.5213l2.664 5.2656c.1247.2464.4255.3451.6719.2204.2464-.1246.3451-.4254.2204-.6718l-3.1776-6.2809c-.2828-.559-.856-.9114-1.4825-.9114h-7.572c-.6265 0-1.1997.3524-1.4825.9114l-3.1777 6.2809c-.1246.2464-.0259.5472.2205.6718.2464.1247.5472.026.6718-.2204l2.6616-5.2606c.2089-.4131.6741-.6287 1.1243-.5213.4503.1074.768.5098.768.9727v4.478c0 .1368-.0275.2672-.0773.386zm-25.01378-7.6982c-.55272 0-1.0512.3325-1.26359.8427l-3.10712 7.4652c-.10611.2549.01454.5476.26948.6537s.54763-.0145.65374-.2695l2.69156-6.4667c.1832-.4401.65164-.6897 1.11915-.5963s.80407.5039.80407.9806v19.0711c0 .1554.13931.3194.34484.3194.20554 0 .34484-.164.34484-.3194v-9.0002c0-.5523.44771-1 1.00001-1h2.5442c.5523 0 1 .4477 1 1v9.0002c0 .1554.1393.3194.3449.3194.2055 0 .3448-.164.3448-.3194v-18.6238c0-.4739.3326-.8827.7965-.9791.464-.0964.9319.146 1.1207.5806l2.6242 6.0407c.1101.2533.4046.3694.6578.2594.2533-.11.3694-.4045.2594-.6578l-3.2484-7.4775c-.2172-.4999-.7103-.8233-1.2553-.8233z" fill="#333" fill-rule="evenodd"/></svg>