<svg fill="none" height="48" viewBox="0 0 48 48" width="48" xmlns="http://www.w3.org/2000/svg"><path clip-rule="evenodd" d="m24.0001 5c-1.6565 0-3.0001 1.34355-3.0001 3.00181s1.3436 3.00179 3.0001 3.00179 3.0001-1.34353 3.0001-3.00179-1.3436-3.00181-3.0001-3.00181zm-5.0001 3.00181c0-2.76202 2.2382-5.00181 5.0001-5.00181s5.0001 2.23979 5.0001 5.00181c0 2.69779-2.1353 4.89739-4.8083 4.99819h4.753c1.586 0 3.0006.9978 3.5327 2.492l3.3604 9.4365c.5096 1.4307-.2373 3.0037-1.668 3.5132-1.4308.5095-3.0037-.2373-3.5132-1.6681l-.7574-2.1269v17.7048c0 1.4765-1.2218 2.6478-2.6797 2.6478-1.458 0-2.6797-1.1713-2.6797-2.6478v-10.7463h-1.083v10.7463c0 1.4765-1.2217 2.6478-2.6797 2.6478-1.4579 0-2.6797-1.1713-2.6797-2.6478v-17.8174l-.7422 2.1942c-.4867 1.4387-2.0475 2.2105-3.4862 1.7238s-2.2105-2.0475-1.7238-3.4862l3.1857-9.4176c.5153-1.5231 1.9443-2.5483 3.5523-2.5483h4.9249c-2.673-.1008-4.8083-2.3004-4.8083-4.99819zm-.1166 6.99819c-.7504 0-1.4173.4784-1.6577 1.1892l-3.1858 9.4176c-.1327.3923.0778.818.4702.9507l-.3205.9473.3205-.9472c.3923.1327.818-.0778.9507-.4702l2.6896-7.9506c.1568-.4638.6265-.7458 1.1096-.6663s.8376.4971.8376.9868v23.8942c0 .336.29.6478.6797.6478s.6797-.3118.6797-.6478v-11.7463c0-.5522.4477-1 1-1h3.083c.5522 0 1 .4478 1 1v11.7463c0 .336.29.6478.6797.6478s.6797-.3118.6797-.6478v-23.4937c0-.4866.3502-.9026.8297-.9854.4795-.0829.9491.1915 1.1123.6499l2.6995 7.5803c.1389.3903.5679.5939.9581.455.3902-.139.5939-.568.4549-.9582l-3.3604-9.4365c-.2483-.6973-.9085-1.1629-1.6486-1.1629z" fill="#333" fill-rule="evenodd"/></svg>