<svg fill="none" height="48" viewBox="0 0 48 48" width="48" xmlns="http://www.w3.org/2000/svg"><g fill="#333"><path clip-rule="evenodd" d="m40.7778 22.3155-.7274.6c-.6536.5392-1.0504 1.3272-1.0504 2.1956 0 1.5534 1.3005 2.8889 3 2.8889s3-1.3355 3-2.8889c0-.9794-.5069-1.8617-1.3175-2.3922l-.9047-.5921v-11.1268c0-.5523-.4477-1-1-1s-1 .4477-1 1zm-2-11.3155c0-1.65685 1.3431-3 3-3 1.6568 0 3 1.34315 3 3v10.0455c1.34.877 2.2222 2.3706 2.2222 4.0656 0 2.7001-2.2386 4.8889-5 4.8889s-5-2.1888-5-4.8889c0-1.4997.6906-2.8416 1.7778-3.7384z" fill-rule="evenodd"/><path d="m40.2593 14.5186h3.2592v13.8518h-3.2592z"/><path d="m45.8149 25.0371c0 2.2091-1.7908 4-4 4-2.2091 0-4-1.7909-4-4s1.7909-4 4-4c2.2092 0 4 1.7909 4 4z"/><path clip-rule="evenodd" d="m16.9251 34.3797c-.2081.5072-.7865.7528-1.2965.5488-.5128-.2051-.7622-.7871-.5571-1.2999l.9285.3714c-.9285-.3714-.9282-.372-.9279-.3727l.0005-.0014.0013-.003.0029-.0073.0079-.0188c.0062-.0145.0142-.0328.0241-.0546.0197-.0436.0472-.1014.0832-.1714.0719-.1399.1783-.329.326-.5505.2953-.443.7576-1.0183 1.4418-1.5885 1.3845-1.1537 3.6125-2.2318 7.0402-2.2318 3.4278 0 5.6558 1.0781 7.0402 2.2318.6843.5702 1.1465 1.1455 1.4419 1.5885.1477.2215.254.4106.326.5505.0359.07.0634.1278.0832.1714.0099.0218.0178.0401.024.0546l.0079.0188.003.0073.0012.003.0006.0014c.0002.0007.0005.0013-.928.3727l.9285-.3714c.2051.5128-.0443 1.0948-.5571 1.2999-.51.204-1.0884-.0416-1.2965-.5487l-.0052-.0118c-.0068-.015-.02-.0431-.0402-.0825-.0406-.0789-.1092-.2023-.2115-.3558-.2047-.307-.5424-.7317-1.0582-1.1615-1.0155-.8463-2.7875-1.7682-5.7598-1.7682-2.9722 0-4.7442.9219-5.7598 1.7682-.5157.4298-.8535.8545-1.0581 1.1615-.1023.1535-.171.2769-.2115.3558-.0203.0394-.0335.0675-.0403.0825z" fill-rule="evenodd"/><path clip-rule="evenodd" d="m18.8321 18.4453c.3063.4595.1822 1.0804-.2774 1.3867-1.5638 1.0426-2.6433 1.585-4.2384 2.1167-.524.1746-1.0903-.1085-1.265-.6325-.1746-.5239.1086-1.0903.6325-1.2649 1.4049-.4683 2.3253-.9259 3.7615-1.8834.4596-.3063 1.0804-.1821 1.3868.2774z" fill-rule="evenodd"/><path clip-rule="evenodd" d="m29.1679 18.4453c-.3063.4595-.1822 1.0804.2774 1.3867 1.5638 1.0426 2.6433 1.585 4.2384 2.1167.524.1746 1.0903-.1085 1.265-.6325.1746-.5239-.1086-1.0903-.6325-1.2649-1.4049-.4683-2.3253-.9259-3.7615-1.8834-.4596-.3063-1.0804-.1821-1.3868.2774z" fill-rule="evenodd"/><path d="m11 29c0 .5523-.4477 1-1 1-.55228 0-1-.4477-1-1s.44772-1 1-1c.5523 0 1 .4477 1 1z"/><path d="m14 26c0 .5523-.4477 1-1 1s-1-.4477-1-1 .4477-1 1-1 1 .4477 1 1z"/><path d="m23 14c0 .5523-.4477 1-1 1s-1-.4477-1-1 .4477-1 1-1 1 .4477 1 1z"/><path d="m27 12c0 .5523-.4477 1-1 1s-1-.4477-1-1 .4477-1 1-1 1 .4477 1 1z"/><path d="m31 13c0 .5523-.4477 1-1 1s-1-.4477-1-1 .4477-1 1-1 1 .4477 1 1z"/><path d="m35 12c0 .5523-.4477 1-1 1s-1-.4477-1-1 .4477-1 1-1 1 .4477 1 1z"/><path d="m21 9c0 .55228-.4477 1-1 1s-1-.44772-1-1 .4477-1 1-1 1 .44772 1 1z"/><path d="m14 13c0 .5523-.4477 1-1 1s-1-.4477-1-1 .4477-1 1-1 1 .4477 1 1z"/><path d="m30 9c0 .55228-.4477 1-1 1s-1-.44772-1-1 .4477-1 1-1 1 .44772 1 1z"/><path d="m13 32c0 .5523-.4477 1-1 1s-1-.4477-1-1 .4477-1 1-1 1 .4477 1 1z"/><path d="m37 17c0 .5523-.4477 1-1 1s-1-.4477-1-1 .4477-1 1-1 1 .4477 1 1z"/><path d="m19 12c0 .5523-.4477 1-1 1s-1-.4477-1-1 .4477-1 1-1 1 .4477 1 1z"/><path d="m25 9c0 .55228-.4477 1-1 1s-1-.44772-1-1 .4477-1 1-1 1 .44772 1 1z"/><path d="m36 28c0 .5523-.4477 1-1 1s-1-.4477-1-1 .4477-1 1-1 1 .4477 1 1z"/><path d="m40 23c0 .5523-.4477 1-1 1s-1-.4477-1-1 .4477-1 1-1 1 .4477 1 1z"/><path d="m39 31c0 .5523-.4477 1-1 1s-1-.4477-1-1 .4477-1 1-1 1 .4477 1 1z"/><path d="m10 24c0 .5523-.44772 1-1 1s-1-.4477-1-1 .44772-1 1-1 1 .4477 1 1z"/><g clip-rule="evenodd" fill-rule="evenodd"><path d="m37.2929 5.29289c.3905-.39052 1.0237-.39052 1.4142 0l1 1c.3905.39053.3905 1.02369 0 1.41422-.3905.39052-1.0237.39052-1.4142 0l-1-1c-.3905-.39053-.3905-1.02369 0-1.41422z"/><path d="m42 3c.5523 0 1 .44772 1 1v2c0 .55228-.4477 1-1 1s-1-.44772-1-1v-2c0-.55228.4477-1 1-1z"/><path d="m46.7071 5.29289c-.3905-.39052-1.0237-.39052-1.4142 0l-1 1c-.3905.39053-.3905 1.02369 0 1.41422.3905.39052 1.0237.39052 1.4142 0l1-1c.3905-.39053.3905-1.02369 0-1.41422z"/><path d="m41.0094 29.9041c-2.4438 7.0412-9.1363 12.0959-17.0094 12.0959-9.9411 0-18-8.0589-18-18s8.0589-18 18-18c6.1194 0 11.5255 3.05362 14.7778 7.7202v-2.7202c0-.1499.011-.2973.0322-.4413-3.6588-4.02895-8.939-6.5587-14.81-6.5587-11.0457 0-20 8.9543-20 20s8.9543 20 20 20c9.0007 0 16.6128-5.9457 19.1228-14.1238-.3609.081-.7367.1238-1.1228.1238-.3392 0-.6704-.033-.9906-.0959z"/></g></g></svg>