<svg fill="none" height="48" viewBox="0 0 48 48" width="48" xmlns="http://www.w3.org/2000/svg"><g fill="#333"><path d="m34.7234 25.5c0 .8284-.6858 1.5-1.5319 1.5-.846 0-1.5319-.6716-1.5319-1.5s.6859-1.5 1.5319-1.5c.8461 0 1.5319.6716 1.5319 1.5z"/><path d="m17.3617 34h4.0851v-2h-4.0851z"/><path d="m21.4468 38h-4.0851v-2h4.0851z"/><g clip-rule="evenodd" fill-rule="evenodd"><path d="m27.2915 22.1457c.4999 0 .5829-.091.742-.2654.0922-.101.21-.2301.4491-.3856.662.4233 1.4431.6452 2.2403.6364l2.5321-.878c.7136-.5605 1.2034-1.3376 1.3876-2.201.1842-.8635.0515-1.7611-.3758-2.5425-.4273-.7815-1.1233-1.3993-1.9716-1.7502-.1936-.836-.6815-1.5838-1.3826-2.1192l-2.4717-.8242h-.2783c-.5498-.7644-1.3751-1.3097-2.3192-1.5321l-4.2781-.2839c-.8808.0697-1.7114.4198-2.3581.9939-.3056-.0686-.6184-.1042-.9323-.106-.7602.0015-1.5037.2126-2.1407.6078-.637.3953-1.1404.9578-1.4493 1.6196l-2.0134 1.3591c-.5011.6469-.7708 1.43-.7695 2.234-.0049.3361.042.6712.1392.9944-.5283.6531-.8123 1.4558-.8071 2.2804-.0012.9564.3822 1.8769 1.0715 2.5722.0556.6847.3067 1.3419.7261 1.9004s.9911.9971 1.6532 1.2684c.763.4557 1.4091 1.0687 1.8907 1.7938.4816.725.6803 1.5437.7861 2.3958h4.2036v-3.9775c-.0009-.7062.2059-1.3986.5969-1.9985.0594-.0911.1148-.1795.1684-.265.2995-.4778.5427-.8659 1.1066-1.1307.6229-.2271 1.1841-.5852 1.6419-1.0474.652.4241 1.423.651 2.2124.651zm1.5355-2.8252.7726.4941c.2436.1558.5241.2571.8189.2947l1.7683-.6132c.2331-.2463.3892-.5435.4564-.8586.0855-.4012.025-.82-.1771-1.1895-.2027-.3707-.5398-.6757-.9658-.852l-.9652-.3993-.2318-1.0006c-.0679-.2931-.2173-.5691-.4373-.7977l-1.7634-.5881h-.9998l-.6102-.8484c-.2331-.3241-.5791-.5742-.9895-.7017l-3.8979-.2586c-.3896.0551-.7471.2208-1.0261.4684l-.7897.7011-1.039-.2335c-.1569-.0352-.3177-.0538-.4794-.0553-.3749.0022-.7372.1071-1.0435.2972-.3079.191-.543.4576-.6848.7615l-.2343.502-2.1548 1.4545c-.1385.2494-.2095.5247-.209.802v.016l-.0002.0161c-.002.1348.0168.2696.0561.4004l.2991.9942-.6571.8125c-.2431.3005-.3682.6619-.3658 1.0264v.0075.0075c-.0006.4278.1704.8497.4945 1.1766l.5122.5167.0583.7177c.0252.3102.1391.6127.3356.8743.1968.2622.4704.4747.7958.608l.1432.0586.1324.0792c.3037.1814.5939.3816.869.5993.3548.2722.7974.6716 1.3704 1.3878.6.75.9282 1.5885 1.0173 1.914h.5226v-.875c0-.0873-.0019-.1919-.0041-.309-.0107-.5747-.0272-1.4576.1517-2.1519.2154-.836.6583-1.6524 1.2128-2.4297s1.3923-1.3203 1.7074-1.4375c.3152-.1172.6343-.2383.9455-.543.2489-.2437.9388-.9453 1.2527-1.2656.355.2331 1.1321.743 1.4002.918s.6224.2734.766.3008c.0385-.0313.1596-.1258.3351-.254.1755-.1281.8657-.5768 1.1888-.7851z"/><path d="m40.5596 25.3658s2.652 2.3361 2.3023 4.2103c-.3497 1.8743-3.8031 2.3904-3.8031 2.3904 0 7.5728-7.3855 7.0907-11.0716 6.3785-1.2258-.2369-2.0426-.4992-2.0426-.4992v1.4231s-.0767.2384-.3136.574c-.5626.7971-2.0285 2.1423-5.5149 2.1423-2.3328.1809-6.3257-1.3143-7.3841-3.4226v-6.4482c-3.73023-2.7299-6.60431-6.4075-6.60431-11.1747 0-3.9622 1.6887-7.7622 4.69461-10.5639 3.0059-2.80178 7.0828-4.37579 11.3338-4.37579 3.2462-.00343 6.4539.6548 9.3985 1.92859 2.3205.91081 4.3521 2.3603 5.9013 4.2103 1.4148 1.9434 2.1989 4.2256 2.2586 6.5735.0128.5395.0051 1.0511-.0024 1.5461-.0263 1.7476-.0495 3.2869.8475 5.1073zm-1.6649 1.2237-.1747-.3545c-1.1287-2.2906-1.0885-4.4163-1.0543-6.2172.0083-.4391.0163-.8588.0068-1.257-.0491-1.9197-.6834-3.7948-1.8402-5.4062-1.3203-1.5584-3.0511-2.7898-5.0377-3.5696l-.033-.01294-.0325-.01405c-2.6815-1.16003-5.6071-1.76113-8.5708-1.758h-.0022c-3.7409 0-7.3095 1.38605-9.9255 3.82439-2.61259 2.4351-4.06036 5.7162-4.06036 9.1153 0 3.8827 2.31966 7.037 5.78456 9.5727l.8198.5999v6.8702c.3413.3966 1.0026.8906 1.9965 1.3202 1.2186.5267 2.4543.7453 3.1838.6887l.0805-.0062h.0807c2.0714 0 3.0485-.5575 3.4697-.8988.1451-.1177.2471-.228.3163-.3156v-3.6858l2.6761.8595.0015.0005.0015.0004.0153.0048c.0171.0052.0459.014.0856.0257.0794.0235.2021.0587.3619.1012.3202.0853.7849.1989 1.3445.3069 1.1367.2192 2.5847.3993 3.9808.3105 1.4185-.0902 2.5571-.4426 3.3168-1.0755.6829-.5689 1.3301-1.589 1.3301-3.6525v-1.7179l1.7272-.2581.0109-.0018c.013-.0022.037-.0063.0707-.0126.0675-.0126.1716-.0335.3004-.0639.2636-.0622.601-.1572.9305-.2892.3422-.137.5904-.2803.7375-.4033.0224-.0188.0397-.0346.0529-.0476-.0081-.0533-.03-.1489-.09-.2943-.1122-.2715-.3055-.5886-.5555-.9189-.244-.3224-.5039-.6076-.7065-.8145-.0998-.1019-.1819-.1809-.2361-.2319-.027-.0254-.0468-.0435-.0581-.0538l-.0066-.006-.0012-.0011-.0011-.0009-.0013-.0012zm1.9886 2.5407c.0001 0-.0002.0005-.0009.0015l-.0019.0027c.0017-.0028.0027-.0042.0028-.0042z"/></g></g></svg>