<svg fill="none" height="48" viewBox="0 0 47 48" width="47" xmlns="http://www.w3.org/2000/svg"><g fill="#333"><path d="m34 25.5c0 .8284-.6716 1.5-1.5 1.5s-1.5-.6716-1.5-1.5.6716-1.5 1.5-1.5 1.5.6716 1.5 1.5z"/><path d="m17 34h4v-2h-4z"/><path d="m21 38h-4v-2h4z"/><g clip-rule="evenodd" fill-rule="evenodd"><path d="m26.7229 22.1457c.4894 0 .5707-.091.7266-.2654.0903-.101.2056-.2301.4397-.3856.6482.4233 1.4131.6452 2.1936.6364l2.4794-.878c.6987-.5605 1.1783-1.3376 1.3586-2.201.1804-.8635.0505-1.7611-.3679-2.5425-.4184-.7815-1.1-1.3993-1.9305-1.7502-.1896-.836-.6673-1.5838-1.3538-2.1192l-2.4202-.8242h-.2725c-.5384-.7644-1.3465-1.3097-2.2709-1.5321l-4.189-.2839c-.8625.0697-1.6758.4198-2.309.9939-.2992-.0686-.6054-.1042-.9129-.106-.7443.0015-1.4723.2126-2.096.6078-.6238.3953-1.1166.9578-1.4191 1.6196l-1.9716 1.3591c-.4905.6469-.7546 1.43-.7533 2.234-.0049.3361.041.6712.1362.9944-.5173.6531-.7954 1.4558-.7902 2.2804-.0013.9564.3742 1.8769 1.0491 2.5722.0544.6847.3003 1.3419.7109 1.9004.4107.5585.9705.9971 1.6189 1.2684.7471.4557 1.3797 1.0687 1.8512 1.7938.4716.725.6662 1.5437.7698 2.3958h4.116v-3.9775c-.0009-.7062.2016-1.3986.5845-1.9985.0581-.0911.1123-.1795.1648-.265.2933-.4778.5314-.8659 1.0836-1.1307.6099-.2271 1.1595-.5852 1.6077-1.0474.6384.4241 1.3934.651 2.1663.651zm1.5035-2.8252.7565.4941c.2386.1558.5132.2571.8018.2947l1.7315-.6132c.2283-.2463.3811-.5435.4469-.8586.0838-.4012.0244-.82-.1734-1.1895-.1985-.3707-.5285-.6757-.9457-.852l-.9451-.3993-.227-1.0006c-.0665-.2931-.2127-.5691-.4282-.7977l-1.7266-.5881h-.9789l-.5975-.8484c-.2283-.3241-.5671-.5742-.9689-.7017l-3.8167-.2586c-.3815.0551-.7316.2208-1.0048.4684l-.7732.7011-1.0174-.2335c-.1535-.0352-.311-.0538-.4694-.0553-.3671.0022-.7218.1071-1.0217.2972-.3015.191-.5317.4576-.6706.7615l-.2294.502-2.1099 1.4545c-.1356.2494-.2051.5247-.2046.802v.016l-.0003.0161c-.0019.1348.0165.2696.055.4004l.2928.9942-.6434.8125c-.2379.3005-.3605.6619-.3582 1.0264l.0001.0075v.0075c-.0006.4278.1668.8497.4841 1.1766l.5016.5167.0571.7177c.0246.3102.1362.6127.3286.8743.1927.2622.4606.4747.7793.608l.1401.0586.1297.0792c.2973.1814.5815.3816.8508.5993.3475.2722.7809.6716 1.3419 1.3878.5875.75.9089 1.5885.9961 1.914h.5117v-.875c0-.0873-.0019-.1919-.004-.309-.0105-.5747-.0266-1.4576.1486-2.1519.2109-.836.6445-1.6524 1.1875-2.4297.5429-.7773 1.3633-1.3203 1.6718-1.4375.3086-.1172.6211-.2383.9258-.543.2438-.2437.9193-.9453 1.2266-1.2656.3476.2331 1.1086.743 1.3711.918s.6094.2734.75.3008c.0377-.0313.1562-.1258.3281-.254.1719-.1281.8477-.5768 1.1641-.7851z"/><path d="m39.7146 25.3658s2.5967 2.3361 2.2543 4.2103c-.3424 1.8743-3.7239 2.3904-3.7239 2.3904 0 7.5728-7.2315 7.0907-10.8409 6.3785-1.2003-.2369-2-.4992-2-.4992v1.4231s-.0752.2384-.3071.574c-.5509.7971-1.9862 2.1423-5.4 2.1423-2.2842.1809-6.1939-1.3143-7.2303-3.4226v-6.4482c-3.65249-2.7299-6.4667-6.4075-6.4667-11.1747 0-3.9622 1.65352-7.7622 4.5968-10.5639 2.9433-2.80178 6.9352-4.37579 11.0977-4.37579 3.1786-.00343 6.3195.6548 9.2026 1.92859 2.2722.91081 4.2615 2.3603 5.7785 4.2103 1.3852 1.9434 2.153 4.2256 2.2115 6.5735.0126.5395.005 1.0511-.0023 1.5461-.0258 1.7476-.0486 3.2869.8298 5.1073zm-1.6302 1.2237-.1711-.3545c-1.1052-2.2906-1.0658-4.4163-1.0323-6.2172.0081-.4391.0159-.8588.0066-1.257-.048-1.9197-.6692-3.7948-1.8018-5.4062-1.2929-1.5584-2.9876-2.7898-4.9328-3.5696l-.0323-.01294-.0318-.01405c-2.6257-1.16003-5.4903-1.76113-8.3923-1.758h-.0021c-3.663 0-7.1572 1.38605-9.7187 3.82439-2.5582 2.4351-3.9758 5.7162-3.9758 9.1153 0 3.8827 2.2713 7.037 5.6641 9.5727l.8026.5999v6.8702c.3343.3966.9818.8906 1.9549 1.3202 1.1933.5267 2.4033.7453 3.1175.6887l.0788-.0062h.0791c2.0283 0 2.985-.5575 3.3974-.8988.1421-.1177.2419-.228.3097-.3156v-3.6858l2.6203.8595.0016.0005.0014.0004.015.0048c.0167.0052.0449.014.0838.0257.0777.0235.1979.0587.3543.1012.3136.0853.7686.1989 1.3166.3069 1.113.2192 2.5308.3993 3.8979.3105 1.3888-.0902 2.5037-.4426 3.2476-1.0755.6687-.5689 1.3024-1.589 1.3024-3.6525v-1.7179l1.6912-.2581.0107-.0018c.0127-.0022.0363-.0063.0692-.0126.0661-.0126.168-.0335.2941-.0639.2582-.0622.5886-.1572.9111-.2892.3352-.137.5782-.2803.7222-.4033.0219-.0188.0389-.0346.0518-.0476-.0079-.0533-.0293-.1489-.0881-.2943-.1099-.2715-.2992-.5886-.5439-.9189-.239-.3224-.4934-.6076-.6919-.8145-.0977-.1019-.1781-.1809-.2311-.2319-.0265-.0254-.0458-.0435-.0569-.0538l-.0064-.006-.0013-.0011-.001-.0009-.0013-.0012zm1.9472 2.5407s-.0002.0005-.0009.0015l-.0019.0027c.0016-.0028.0026-.0042.0028-.0042z"/></g></g></svg>