<svg fill="none" height="48" viewBox="0 0 48 48" width="48" xmlns="http://www.w3.org/2000/svg"><g fill="#333"><g clip-rule="evenodd" fill-rule="evenodd"><path d="m18.1153 18.8227c-.0756.38-.1153.7736-.1153 1.1773 0 3.3137 2.6863 6 6 6s6-2.6863 6-6c0-.4037-.0397-.7973-.1153-1.1773-4.1389-1.0017-7.6305-1.0017-11.7694 0zm-1.077-1.7916c4.9163-1.2796 9.0071-1.2796 13.9234 0 .3387.0882.6066.347.7065.6824.2161.7257.3318 1.4935.3318 2.2865 0 4.4183-3.5817 8-8 8s-8-3.5817-8-8c0-.793.1157-1.5608.3318-2.2865.0999-.3354.3678-.5942.7065-.6824z"/><path d="m12.1056 35.5528c.247-.494.8476-.6942 1.3416-.4472l1.5528.7764 1.5528-.7764c.494-.247 1.0946-.0468 1.3416.4472s.0468 1.0946-.4472 1.3416l-2 1c-.2815.1408-.6129.1408-.8944 0l-2-1c-.494-.247-.6942-.8476-.4472-1.3416z"/><path d="m12.5889 27.9965c.2473.4939.0473 1.0947-.4465 1.3419l-3.69474 1.8498c-.49384.2472-1.09462.0473-1.34187-.4465-.24725-.4939-.04734-1.0946.44651-1.3419l3.6947-1.8498c.4939-.2472 1.0947-.0473 1.3419.4465z"/><path d="m40 9h2v21h-2z"/><path d="m24 8c-4.0237 0-7.3333 3.3631-7.3333 7.5714 0 .5869-.1419 1.1497-.3406 1.6524 2.718-.7622 5.1868-1.1524 7.6739-1.1524s4.9559.3902 7.6739 1.1524c-.1987-.5027-.3406-1.0655-.3406-1.6524 0-4.2083-3.3096-7.5714-7.3333-7.5714zm10.7173 10.3033c.3223.3317.375.8413.1274 1.232-.2478.3909-.7313.5607-1.169.4106-3.6849-1.2633-6.6961-1.8745-9.6757-1.8745s-5.9908.6112-9.6757 1.8745c-.4377.1501-.9212-.0197-1.1689-.4106-.2477-.3907-.195-.9003.1273-1.232l.0077-.0082c.0083-.0088.0221-.0237.0407-.0441.0371-.0409.0929-.104.1611-.1858.1373-.1647.3203-.4002.502-.6805.3835-.5917.6725-1.2486.6725-1.8133 0-5.2594 4.1523-9.5714 9.3333-9.5714s9.3333 4.312 9.3333 9.5714c0 .5647.289 1.2216.6725 1.8133.1817.2803.3647.5158.502.6805.0682.0818.124.1449.1611.1858.0186.0204.0324.0353.0407.0441z"/></g><path d="m23.8268 9.12528c.0543-.16704.2905-.16704.3448 0l.4941 1.52052c.0243.0747.0939.1252.1724.1252h1.5988c.1755 0 .2486.2247.1065.3279l-1.2934.9398c-.0635.0462-.0902.1279-.0659.2026l.4941 1.5206c.0542.1669-.1369.3059-.279.2027l-1.2934-.9398c-.0635-.0462-.1495-.0462-.2131 0l-1.2934.9398c-.1421.1032-.3333-.0358-.279-.2027l.4941-1.5206c.0242-.0747-.0023-.1564-.0658-.2026l-1.2935-.9398c-.1421-.1032-.0691-.3279.1065-.3279h1.5988c.0785 0 .1481-.0505.1724-.1252z"/><path clip-rule="evenodd" d="m31.0422 40.3793 2.6-8.6666 1.9156.5746-2.6 8.6667z" fill-rule="evenodd"/><path clip-rule="evenodd" d="m42 36.5c0-4.0593-10.9245-6.6173-18.5294-6.4934-7.2127.1176-17.4706 2.4341-17.4706 6.4934v5.5h36zm-2 3.5v-3.5c0-.042-.0324-.4407-.9809-1.1118-.8984-.6357-2.2763-1.2561-4.0195-1.7918-3.4676-1.0656-7.8896-1.6488-11.4964-1.59-3.4476.0562-7.6177.6425-10.8671 1.6749-1.6353.5195-2.91089 1.113-3.73595 1.7195-.85222.6266-.90015 1.0109-.90015 1.0992v3.5z" fill-rule="evenodd"/><path clip-rule="evenodd" d="m37 25.1606v2.5206l3 1.2857v-5.5205zm-2-1.1606v5l7 3v-12z" fill-rule="evenodd"/></g></svg>