<svg fill="none" height="48" viewBox="0 0 48 48" width="48" xmlns="http://www.w3.org/2000/svg"><g fill="#333"><path clip-rule="evenodd" d="m14.2072 19.4031c-.657.6563-1.2072 1.6158-1.2072 2.8887 0 1.8726.6116 3.1248 1.2643 3.8973.1364.1614.2749.3024.4108.4241v-5.8627h2v19.6149c0 .3468.2878.6346.6346.6346.3467 0 .6345-.2878.6345-.6346v-9.1728h5.2692v9.1728c0 .3468.2878.6346.6346.6346.3467 0 .6345-.2878.6345-.6346v-20.6149h9.1729c.3467 0 .6346-.2878.6346-.6345 0-.3468-.2879-.6346-.6346-.6346h-17.9803c.0016 0 .0001.0003-.0046.0012-.0307.0061-.1979.0391-.4843.1893-.2986.1566-.648.4005-.979.7312zm.4679 9.5772c-.1573-.0681-.3114-.1476-.4586-.2337-.4866-.2847-1.0049-.7045-1.48-1.2668-.9601-1.1365-1.7365-2.8468-1.7365-5.188 0-1.9029.8378-3.3487 1.7936-4.3036.4754-.4749.9885-.8382 1.4634-1.0873.4437-.2328.9562-.4195 1.4181-.4195h17.9803c1.4513 0 2.6346 1.1833 2.6346 2.6346s-1.1833 2.6345-2.6346 2.6345h-7.1729v18.6149c0 1.4513-1.1832 2.6346-2.6345 2.6346s-2.6346-1.1833-2.6346-2.6346v-7.1728h-1.2692v7.1728c0 1.4513-1.1832 2.6346-2.6345 2.6346s-2.6346-1.1833-2.6346-2.6346z" fill-rule="evenodd"/><path d="m34 11v30h-2v-30c.9104 0 .9104.0003 2 0z"/><path d="m26 15c0-1.6569 3.134-3 7-3s7 1.3431 7 3c-5-1.5-8.5-1.5-14 0z"/><path clip-rule="evenodd" d="m26 11h-1.4552c.1955.4885.3032 1.021.3032 1.5777 0 2.3504-1.9188 4.2692-4.2692 4.2692-2.3503 0-4.2691-1.9188-4.2691-4.2692 0-.5567.1076-1.0892.3032-1.5777h-1.6129c0-2.76142 2.4624-5 5.5-5s5.5 2.23858 5.5 5zm-3.7958 0h-3.2507c-.3977.4095-.6438.9669-.6438 1.5777 0 1.2458 1.0234 2.2692 2.2691 2.2692 1.2458 0 2.2692-1.0234 2.2692-2.2692 0-.6108-.2461-1.1682-.6438-1.5777zm-1.7042-1c.8284 0 1.5-.67157 1.5-1.5s-.6716-1.5-1.5-1.5-1.5.67157-1.5 1.5.6716 1.5 1.5 1.5z" fill-rule="evenodd"/></g></svg>