<svg fill="none" height="48" viewBox="0 0 48 48" width="48" xmlns="http://www.w3.org/2000/svg"><path clip-rule="evenodd" d="m38 8.26367c0 1.65686-1.3431 3.00003-3 3.00003-1.6568 0-3-1.34317-3-3.00003 0-1.65685 1.3432-3 3-3 1.6569 0 3 1.34315 3 3zm-.3569 4.24513c1.4152-.883 2.3569-2.4541 2.3569-4.24513 0-2.76142-2.2386-5-5-5s-5 2.23858-5 5c0 1.79233.9431 3.36443 2.3601 4.24703h-1.8601c-.8838 0-1.7018.4666-2.1518 1.2273l-4.3154 7.2958-4.3154-7.2958c-.4499-.7607-1.268-1.2273-2.1517-1.2273h-1.8601c1.417-.8826 2.36-2.4547 2.36-4.24703 0-2.76142-2.2385-5-5-5-2.7614 0-4.99995 2.23858-4.99995 5 0 1.79103.94169 3.36213 2.35695 4.24513h-2.74752c-.46192 0-.97434.1867-1.41808.4195-.47485.2491-.98802.6124-1.46336 1.0873-.95583.9549-1.79364 2.4007-1.79364 4.3037 0 2.3411.77639 4.0514 1.73652 5.1879.47506.5623.99343.9821 1.48002 1.2668.14715.0861.30123.1656.45854.2337v17.3851c0 1.4513 1.18327 2.6346 2.63458 2.6346 1.45134 0 2.63454-1.1833 2.63454-2.6346v-11.1728h2.2692v11.1728c0 1.4513 1.1833 2.6346 2.6346 2.6346s2.6345-1.1833 2.6345-2.6346v-19.2307l2.4314 4.1106c.7029 1.1884 2.2361 1.582 3.4245.8791.5403-.3196.9163-.8107 1.0996-1.363l2.1451-3.6267v19.2307c0 1.4513 1.1833 2.6346 2.6346 2.6346s2.6346-1.1833 2.6346-2.6346v-11.1728h2.2691v11.1728c0 1.4513 1.1833 2.6346 2.6346 2.6346s2.6346-1.1833 2.6346-2.6346v-17.3851c.1573-.0681.3114-.1476.4585-.2337.4866-.2847 1.005-.7045 1.48-1.2668.9602-1.1365 1.7366-2.8468 1.7366-5.1879 0-1.903-.8378-3.3488-1.7937-4.3037-.4753-.4749-.9885-.8382-1.4633-1.0873-.4438-.2328-.9562-.4195-1.4181-.4195zm-11.8675 11.4714 2.9468-4.9821 1.8607-3.1458v3.6549 22.8856c0 .3468.2879.6346.6346.6346s.6346-.2878.6346-.6346v-12.1728-1h1 4.2691 1v1 12.1728c0 .3468.2879.6346.6346.6346s.6346-.2878.6346-.6346v-18.1486-1h.0025v-6.7607h2v6.1548c.135-.1211.2727-.2614.4083-.4218.6526-.7725 1.2643-2.0247 1.2643-3.8972 0-1.273-.5503-2.2325-1.2072-2.8888-.3311-.3307-.6805-.5745-.979-.7312-.2864-.1502-.4536-.1832-.4844-.1893-.0046-.0009-.0061-.0012-.0045-.0012h-7.8268c-.0246 0-.0491.0004-.0734.0013l-.0179.0006h-.0179-1.9546c-.1767 0-.3404.0934-.4304.2455l-4.8749 8.2419zm-10.2738-9.4714c.0247 0 .0491.0004.0735.0013l.0178.0006h.0179 1.9547c.1767 0 .3403.0934.4303.2455l6.5 10.9892c.1406.2377.0619.5444-.1758.685-.2376.1405-.5443.0618-.6849-.1759l-4.2921-7.2564-1.8607-3.1458v3.6549 22.8856c0 .3468-.2878.6346-.6345.6346-.3468 0-.6346-.2878-.6346-.6346v-12.1728-1h-1-4.2692-.99997v1 12.1728c0 .3468-.28784.6346-.63457.6346s-.63458-.2878-.63458-.6346v-18.1486-1h-.00248v-6.7607h-2v6.1548c-.13505-.1211-.27275-.2614-.4083-.4218-.65266-.7725-1.2643-2.0247-1.2643-3.8972 0-1.273.55023-2.2325 1.20718-2.8888.33105-.3307.68047-.5745.97898-.7312.28644-.1502.45364-.1832.48438-.1893h.00002c.00462-.0009.00615-.0012.00452-.0012zm-2.4362-3.2451c-1.6568 0-3-1.34317-3-3.00003 0-1.65685 1.3432-3 3-3 1.6569 0 3 1.34315 3 3 0 1.65686-1.3431 3.00003-3 3.00003z" fill="#333" fill-rule="evenodd"/></svg>