<svg fill="none" height="48" viewBox="0 0 48 48" width="48" xmlns="http://www.w3.org/2000/svg"><g clip-rule="evenodd" fill="#333" fill-rule="evenodd"><path d="m21 8c0-1.65685 1.3432-3 3-3 1.6569 0 3 1.34315 3 3 0 1.12987-.6246 2.1138-1.5474 2.6255.1045.4055.0395.8523-.2164 1.2244l-1.4847 2.1596h.0003.0136.0135.0136.0136.0136.0137.0137.0137.0137.0137.0138.0138.0138.0139.0138.0139.0139.014.0139.014.014.0141.014.0141.0141.0141.0142.0141.0142.0143.0142.0143.0143.0143.0143.0144.0144.0144.0145.0144.0145.0145.0146.0145.0146.0146.0147.0146.0147.0147.0148.0147.0148.0148.0148.0149.0149.0149.0149.015.0149.015.0151.015.0151.0151.0151.0152.0152.0152.0152.0152.0153.0153.0153.0154.0154.0154.0154.0155.0154.0155.0156.0155.0156.0156.0156.0157.0156.0157.0158.0157.0158.0158.0158.0159.0159.0159.0159.016.016.016.016.0161.016.0162.0161.0162.0161.0162.0163.0163.0162.0164.0163.0164.0164.0164.0164.0165.0165.0165.0166.0165.0166.0167.0166.0167.0167.0167.0168.0168.0168.0168.0169.0169.0169.0169.017.017.017.017.0171.0171.0171.0172.0171.0172.0173.0172.0173.0173.0174.0173.0174.0174.0175.0174.0175.0176.0175.0176.0176.0176.0177.0176.0178.0177.0178.0177.0179.0178.0179.0179.0179.0179.018.018.0181.018.0181.0181.0182.0181.0182.0182.0183.0183.0183.0183.0184.0184.0184.0184.0185.0185.0185.0185.0186.0186.0187.0186.0187.0187.0188.0187.0188.0189.0188.0189.0189.0189.019.019.019.0191.019.0191.0192.0191.0192.0192.0193.0193.0193.0193.0193.0194.0194.0195.0194.0195.0196.0195.0196.0196.0196.0197.0197.0197.0198.0197.0198.0199.0198.0199.02.0199.02.02.02.0201.0201.0201.0201.0202.0202.0203.0202.0203.0203.0204.0204.0204.0204.0205.0205.0205.0205.0206.0206.0207.0206.0207.0207.0208.0208.0208.0208.0209.0209.0209.021.021.021.021.0211.0211.0211.0212.0212.0212.0213.0213.0213.0213.0214.0214.0214.0214.0215.0215.0216.0216.0216.0216.0217.0217.0217.0217.0218.0218.0219.0218.0219.022.0219.022.022.0221c-.0016 0-.0001.0003.0045.0012.0308.0061.198.0391.4844.1894.2985.1566.6479.4004.979.7311.657.6564 1.2072 1.6158 1.2072 2.8888 0 1.8725-.6117 3.1247-1.2643 3.8972-.3313.3922-.6756.6636-.9623.8314-.2087.1221-.3498.1685-.4134.1859h-3.9258c-.2761 0-.5-.2238-.5-.5 0-.2761.2239-.5.5-.5h4.5v-2h-4.5c-1.3807 0-2.5 1.1193-2.5 2.5 0 1.3808 1.1193 2.5 2.5 2.5h2.8907v18.6381c0 .3467-.2878.6346-.6346.6346-.3467 0-.6345-.2879-.6345-.6346v-12.6519-1h-1-4.2692-1v1 12.6519c0 .3467-.2878.6346-.6346.6346-.3467 0-.6345-.2879-.6345-.6346v-23.3345c-.4284.4475-1.0987.5913-1.682.3373-.1155-.0503-.2219-.1137-.318-.1879v23.1851c0 1.4513 1.1832 2.6346 2.6345 2.6346s2.6346-1.1833 2.6346-2.6346v-11.6519h2.2692v11.6519c0 1.4513 1.1832 2.6346 2.6345 2.6346s2.6346-1.1833 2.6346-2.6346v-18.8642c.1573-.0681.3114-.1475.4585-.2336.4866-.2848 1.005-.7046 1.4801-1.2669.9601-1.1365 1.7365-2.8468 1.7365-5.1879 0-1.903-.8378-3.3487-1.7937-4.3037-.4753-.4749-.9885-.8382-1.4633-1.0873-.4438-.2328-.9562-.4195-1.4181-.4195h-.0221-.022-.022-.0219-.022-.0219-.0218-.0219-.0218-.0218-.0217-.0217-.0217-.0217-.0216-.0216-.0216-.0216-.0215-.0215-.0214-.0214-.0214-.0214-.0213-.0213-.0213-.0213-.0212-.0212-.0212-.0211-.0211-.0211-.021-.021-.021-.021-.0209-.0209-.0209-.0208-.0208-.0208-.0208-.0207-.0207-.0206-.0207-.0206-.0206-.0205-.0205-.0205-.0205-.0204-.0204-.0204-.0204-.0203-.0203-.0202-.0203-.0202-.0202-.0201-.0201-.0201-.0201-.02-.02-.02-.0199-.02-.0199-.0198-.0199-.0198-.0197-.0198-.0197-.0197-.0197-.0196-.0196-.0196-.0195-.0196-.0195-.0194-.0195-.0194-.0194-.0193-.0193-.0193-.0193-.0193-.0192-.0192-.0191-.0192-.0191-.019-.0191-.019-.019-.019-.0189-.0189-.0189-.0188-.0189-.0188-.0187-.0188-.0187-.0187-.002c1.2214-.9116 2.0122-2.36821 2.0122-4.0095 0-2.76142-2.2386-5-5-5s-5 2.23858-5 5c0 1.66062.8096 3.1322 2.0555 4.0415-.9428.1196-1.7776.5677-2.3922 1.2245.2409-.162.5298-.2551.8368-.2551h1.2973l1.6712-2.4307c-.8794-.523-1.4686-1.48281-1.4686-2.5802zm-2.9489 6.1229c-.2989.5628-.4678 1.2055-.4678 1.8866v.2079l.4527-2.0326c.0046-.0208.0097-.0414.0151-.0619z"/><path d="m25.4165 8.94001c-1.1378-.78222-2.6943-.49399-3.4765.64378l-1.6686 2.42711h-.7713c-1.1713 0-2.1856.8132-2.4402 1.9565l-1 4.4892c-.2603 1.1685.3444 2.3576 1.442 2.8356 1.0977.478 2.3801.1108 3.0583-.8758l5.5-8c.7823-1.1377.494-2.69418-.6437-3.47639zm-1.8284 1.77679c.1565-.2275.4677-.2852.6953-.1287.2276.1564.2852.4677.1288.6953l-5.5 8c-.1357.1973-.3922.2707-.6117.1751s-.3405-.3334-.2884-.5671l.9999-4.4892c.051-.2286.2538-.3913.4881-.3913h1.8233z"/></g></svg>