<svg fill="none" height="48" viewBox="0 0 48 48" width="48" xmlns="http://www.w3.org/2000/svg"><path clip-rule="evenodd" d="m24 44c11.0457 0 20-8.9543 20-20s-8.9543-20-20-20-20 8.9543-20 20 8.9543 20 20 20zm0-2c9.9411 0 18-8.0589 18-18s-8.0589-18-18-18-18 8.0589-18 18 8.0589 18 18 18zm-5-21c0 1.1046-.8954 2-2 2s-2-.8954-2-2 .8954-2 2-2 2 .8954 2 2zm12 2c1.1046 0 2-.8954 2-2s-.8954-2-2-2-2 .8954-2 2 .8954 2 2 2zm-12.4309 10.8223-.0018.0012c-.4548.313-1.0776.1985-1.3908-.2562-.3134-.4548-.1986-1.0775.2562-1.3908l.5673.8235c-.5673-.8235-.5666-.824-.5664-.8242l.0012-.0008.0032-.0022.0096-.0065.0319-.0214c.0267-.0177.0643-.0424.1121-.0731.0957-.0612.2327-.1464.4055-.2475.345-.2018.8367-.4691 1.4318-.7365 1.1756-.5281 2.8234-1.0878 4.5711-1.0878 1.7476 0 3.3955.5597 4.5711 1.0878.5951.2674 1.0867.5347 1.4317.7365.1729.1011.3098.1863.4055.2475.0479.0307.0855.0554.1122.0731l.0318.0214.0096.0065.0032.0022.0022.0015-.4793.6958.4166-.6047c.0216-.0313.0358-.0518.045-.0653.0178-.0257.0177-.0258.0177-.0258.4548.3133.5695.936.2562 1.3908-.3131.4544-.935.5693-1.3897.257l-.0011-.0008-.0019-.0012-.0181-.0122c-.0173-.0115-.0451-.0298-.0827-.0538-.0751-.0481-.1892-.1192-.3369-.2056-.2962-.1732-.7238-.4059-1.2417-.6385-1.0502-.4719-2.4023-.9122-3.7514-.9122-1.3492 0-2.7013.4403-3.7515.9122-.5178.2326-.9455.4653-1.2416.6385-.1478.0864-.2618.1575-.337.2056-.0376.024-.0654.0423-.0827.0538z" fill="#333" fill-rule="evenodd"/></svg>