<svg fill="none" height="48" viewBox="0 0 48 48" width="48" xmlns="http://www.w3.org/2000/svg"><g fill="#333"><path clip-rule="evenodd" d="m16.8786 28s-10.8786 3.3932-10.8786 7.4669v6.5333h36v-6.5333c0-4.0737-10.8786-7.4669-10.8786-7.4669l-5.9722 4.1931c-.6896.4842-1.6088.4842-2.2984 0zm14.5624 2.2193-5.1425 3.6106c-1.3793.9684-3.2177.9684-4.597 0l-5.1425-3.6106c-.2008.0713-.4291.1541-.679.2476-.9799.3668-2.2705.891-3.5475 1.5284-1.296.6469-2.48293 1.3639-3.31689 2.0925-.90069.7868-1.01561 1.2548-1.01561 1.3791v4.5333h32v-4.5333c0-.1243-.1149-.5923-1.0156-1.3791-.834-.7286-2.0209-1.4456-3.3169-2.0925-1.277-.6374-2.5676-1.1616-3.5475-1.5284-.2499-.0935-.4782-.1763-.679-.2476z" fill-rule="evenodd"/><path d="m30 34h6v2h-6z"/><path d="m32 38v-6h2v6z"/><path clip-rule="evenodd" d="m24 8c-2.2394 0-5.029.73846-6.8649 1.32064-.4598.14578-.7296.65699-.5467 1.17516l2.0238 5.7342c3.5872-1.14 7.1884-1.14 10.7756 0l2.0238-5.7342c.1829-.51817-.0869-1.02938-.5467-1.17516-1.8359-.58218-4.6255-1.32064-6.8649-1.32064zm-7.4695-.58581c1.8599-.58975 4.9005-1.41419 7.4695-1.41419s5.6096.82444 7.4695 1.41419c1.6002.50742 2.3645 2.22757 1.8281 3.74721l-2.3546 6.6714c-.0894.2533-.2769.46-.5204.5735-.2434.1135-.5222.1243-.7737.03-3.7736-1.4151-7.5242-1.4151-11.2978 0-.2515.0943-.5303.0835-.7737-.03-.2435-.1135-.431-.3202-.5204-.5735l-2.3546-6.6714c-.5364-1.51965.2279-3.23979 1.8281-3.74721z" fill-rule="evenodd"/><path d="m21 11h6v2h-6z"/><path d="m23 15v-6h2v6z"/><path clip-rule="evenodd" d="m29.6489 18.4363c-3.7736-1.4151-7.5242-1.4151-11.2978 0-.0515.0193-.1041.0343-.1574.0448-.1264.4846-.1937.9935-.1937 1.5189 0 3.3137 2.6863 6 6 6s6-2.6863 6-6c0-.5254-.0673-1.0343-.1937-1.5189-.0533-.0106-.1059-.0255-.1574-.0448zm-.2239-2.1944c-3.6119-1.1558-7.2381-1.1558-10.85 0-.1714-.2402-.4439-.3968-.7478-.417-.3989-.0265-.7753.1872-.957.5433-.5567 1.091-.8702 2.3263-.8702 3.6318 0 4.4183 3.5817 8 8 8s8-3.5817 8-8c0-1.3055-.3135-2.5408-.8702-3.6318-.1817-.3561-.5581-.5698-.957-.5433-.3039.0202-.5764.1768-.7478.417z" fill-rule="evenodd"/></g></svg>