<svg fill="none" height="48" viewBox="0 0 48 48" width="48" xmlns="http://www.w3.org/2000/svg"><g fill="#333"><path clip-rule="evenodd" d="m22.6606 32.5071c-1.7108-1.8732-4.3352-4.5053-5.782-4.1498-5.4041 1.3281-10.8786 4.0359-10.8786 8.1096v6.5333h36v-6.5333c0-4.0737-5.4745-6.7815-10.8786-8.1096-1.3963-.343-4.0277 2.3077-5.7574 4.1695-.2331.2509-.4498.4875-.645.7006-.2951.3222-.5408.5904-.719.7726-.1236-.1349-.2809-.3119-.4657-.5198-.2471-.2781-.5434-.6115-.8737-.9731zm8.1964-2.1545c-.0895.0369-.2268.1047-.414.2214-.4985.3109-1.1088.8141-1.7736 1.44-.9268.8726-1.7229 1.7433-2.373 2.4544-.3262.3568-.6156.6734-.8664.9299l-1.4772 1.5106-1.4274-1.5578c-.1484-.1619-.3254-.361-.5262-.5868-.6739-.7579-1.6149-1.8162-2.6349-2.7766-.6584-.62-1.2646-1.1151-1.7612-1.4189-.2195-.1342-.3596-.1956-.4326-.2231-2.5151.6335-4.9163 1.5552-6.6543 2.7049-1.82358 1.2062-2.5162 2.3751-2.5162 3.4163v4.5333h32v-4.5333c0-1.0412-.6926-2.2101-2.5162-3.4163-1.7316-1.1455-4.1216-2.0646-6.6268-2.698z" fill-rule="evenodd"/><path d="m30 35h6v2h-6z"/><path d="m32 39v-6h2v6z"/><path clip-rule="evenodd" d="m24 5c-2.2394 0-5.0289.73846-6.8649 1.32064-.4597.14578-.7296.65699-.5467 1.17516l2.0238 5.7342c3.5872-1.14 7.1885-1.14 10.7756 0l2.0238-5.7342c.1829-.51817-.0869-1.02938-.5466-1.17516-1.836-.58218-4.6256-1.32064-6.865-1.32064zm-7.4694-.58581c1.8598-.58975 4.9004-1.41419 7.4694-1.41419s5.6096.82444 7.4695 1.41419c1.6002.50742 2.3645 2.22757 1.8281 3.74725l-2.3546 6.67136c-.0894.2533-.2769.46-.5203.5735s-.5223.1243-.7738.03c-3.7736-1.4151-7.5241-1.4151-11.2977 0-.2515.0943-.5304.0835-.7738-.03s-.431-.3202-.5204-.5735l-2.3546-6.67136c-.5363-1.51969.228-3.23983 1.8282-3.74725z" fill-rule="evenodd"/><path d="m21 8h6v2h-6z"/><path d="m23 12v-6h2v6z"/><path clip-rule="evenodd" d="m18.7497 14.3701c-1.0896 1.2346-1.7497 2.8539-1.7497 4.6299 0 3.866 3.134 7 7 7s7-3.134 7-7c0-1.776-.6601-3.3953-1.7497-4.6299l1.4994-1.3235c1.3998 1.586 2.2503 3.6716 2.2503 5.9534 0 4.9706-4.0294 9-9 9s-9-4.0294-9-9c0-2.2818.8505-4.3674 2.2503-5.9534z" fill-rule="evenodd"/></g></svg>