<svg fill="none" height="48" viewBox="0 0 48 48" width="48" xmlns="http://www.w3.org/2000/svg"><path clip-rule="evenodd" d="m18.1254 29.6279s-.744-.7206-1.2468-.5971c-5.4041 1.3281-10.8786 4.036-10.8786 8.1096v4.8593 2h2 32 2v-2-4.8593c0-4.0736-5.4745-6.7815-10.8786-8.1096-.5028-.1235-1.2468.5971-1.2468.5971s-5.6475 3.3718-6.3272 3.3717c-.0145 0-5.422-3.3717-5.422-3.3717zm12.5285 1.3052-.7793-1.3052c.3882.6502.6294 1.0542.7793 1.3052zm0 .0001c.0102.017.0199.0333.0292.0489h.0001zm.0297.0496h-.0001c.2163.3623.2163.3624.2162.3624l-.0002.0002-.001.0005-.0034.0021-.0129.0077-.0489.0291-.1839.109c-.1581.0937-.3843.2271-.6575.387-.5458.3194-1.2832.7469-2.0446 1.1757-.7568.4261-1.5569.8648-2.2219 1.2011-.3294.1666-.6537.3224-.9364.4411-.14.0588-.2987.1208-.4598.1714-.1113.0349-.4175.1296-.782.1295-.2573-.0166-.6036-.0932-.6955-.1248-.0467-.018-.1209-.0494-.1485-.062-.0491-.0229-.0866-.0428-.0982-.049-.0295-.0157-.0526-.029-.0594-.0329-.0184-.0106-.0346-.0203-.0425-.025-.0188-.0113-.0407-.0246-.0621-.0377-.0446-.0272-.1066-.0654-.1819-.1119-.1513-.0935-.3654-.2262-.6202-.3845-.51-.3167-1.1881-.7387-1.8651-1.1603-.6772-.4216-1.3538-.8433-1.8611-1.1594l-.613-.3821-.1717-.1071-.0453-.0282-.0116-.0072-.0029-.0019-.0008-.0004-.0002-.0002.2069-.3317c-.0001 0-.0001 0-.0001 0l-.2068.3317-.1805-.1125-.0978-.0947c-2.3753.629-4.6229 1.5149-6.2727 2.6063-1.82358 1.2063-2.5162 2.3751-2.5162 3.4163v4.8593h32v-4.8593c0-1.0412-.6926-2.21-2.5162-3.4163-1.6498-1.0914-3.8974-1.9773-6.2727-2.6063l-.1118.1083-.1994.119zm-13.4079.0078c0-.0001.0001-.0001.0001-.0001l.0605-.097v-.0001zm.0606-.0973.7891-1.2654-.7891 1.2655z" fill="#333" fill-rule="evenodd"/><path d="m12 37.9997c0-.5523.4477-1 1-1h5c.5523 0 1 .4477 1 1 0 .5522-.4477 1-1 1h-5c-.5523 0-1-.4478-1-1z" fill="#333"/><path d="m32.8026 34.15c.0621-.2004.3327-.2004.3949 0l.5658 1.8246c.0278.0896.1076.1503.1975.1503h1.8312c.2011 0 .2848.2696.122.3935l-1.4814 1.1276c-.0728.0555-.1033.1536-.0755.2432l.5659 1.8247c.0622.2004-.1568.3671-.3195.2432l-1.4814-1.1277c-.0728-.0554-.1713-.0554-.2441 0l-1.4815 1.1277c-.1627.1239-.3817-.0428-.3195-.2432l.5659-1.8247c.0278-.0896-.0026-.1877-.0754-.2432l-1.4815-1.1276c-.1628-.1239-.0791-.3935.122-.3935h1.8312c.0899 0 .1697-.0607.1975-.1503z" fill="#fff"/><g fill="#333"><path clip-rule="evenodd" d="m33.2395 34.2855-.042-.1355c-.0622-.2004-.3328-.2004-.3949 0l-.5659 1.8246c-.0278.0896-.1076.1503-.1975.1503h-1.8312c-.2011 0-.2848.2696-.122.3935l1.4815 1.1276c.0728.0555.1032.1536.0754.2432l-.5659 1.8247c-.0622.2004.1568.3671.3195.2432l1.4815-1.1277c.0728-.0554.1713-.0554.2441 0l1.4814 1.1277c.1627.1239.3817-.0428.3195-.2432l-.5659-1.8247c-.0278-.0896.0027-.1877.0755-.2432l1.4814-1.1276c.1628-.1239.0791-.3935-.122-.3935h-1.8312c-.0899 0-.1697-.0607-.1975-.1503z" fill-rule="evenodd"/><path clip-rule="evenodd" d="m15 17v-2h2v2c0 3.866 3.134 7 7 7s7-3.134 7-7v-2h2v2c0 4.9706-4.0294 9-9 9s-9-4.0294-9-9z" fill-rule="evenodd"/><path clip-rule="evenodd" d="m24.1567 3.01235-.1567.98765-.1567-.98765.1567-.02486zm9.8534 10.28385c.0235-.0359.0487-.0747.0753-.1165.1637-.2567.3836-.626.619-1.0904.4693-.9257 1.0098-2.24763 1.2811-3.82281.1293-.75086-.2619-1.34149-.6449-1.71696-.387-.37943-.9118-.69389-1.4565-.9582-1.1023-.53477-2.5654-.9949-3.9813-1.36823-1.4289-.37676-2.8645-.67905-3.9389-.88669-.5382-.10402-.9881-.18473-1.3042-.23955-.1581-.02742-.2828-.04838-.3685-.06257l-.0986-.01617-.0261-.0042-.0098-.00157c-.0002-.00003 0 0-.1567.98765-.1567-.98765-.1565-.98768-.1567-.98765l-.0098.00157-.0259.00418-.0982.01609c-.0853.01413-.2095.035-.3669.06231-.3146.0546-.7626.135-1.2986.23867-1.07.20694-2.5003.5084-3.9257.88461-1.4127.37284-2.8734.8326-3.9778 1.36744-.5462.26455-1.0712.57834-1.4606.95563-.3835.37163-.7787.95353-.6692 1.69928.2337 1.59036.7792 2.92337 1.2613 3.85467.242.4675.4707.839.6418 1.0974.027.0409.0527.079.0768.1142.0067.1516.0268.3326.072.5347.1234.5521.4274 1.2304 1.0947 1.8758 1.3137 1.2703 3.8873 2.2811 8.8428 2.2811s7.5291-1.0108 8.8428-2.2811c.6673-.6454.9713-1.3237 1.0947-1.8758.0464-.2076.0664-.3929.0726-.5469zm-2.3086.7038h-15.403c.067.09.1489.1843.249.2811.7546.7297 2.6809 1.7189 7.4525 1.7189s6.6979-.9892 7.4525-1.7189c.1001-.0968.182-.1911.249-.2811zm-16.179-2h16.9421c.1258-.2033.2853-.4784.456-.8151.3946-.7782.8401-1.86825 1.0746-3.14933-.0131-.01534-.031-.03461-.0548-.05795-.1607-.15754-.4614-.35984-.9294-.58689-.9233-.44796-2.2348-.86898-3.6181-1.23372-1.3704-.36133-2.7588-.65407-3.8085-.85693-.5238-.10124-.961-.17965-1.2665-.23264-.1317-.02286-.2389-.04096-.3179-.05412-.0785.01308-.1848.03106-.3155.05374-.3041.05275-.7393.13084-1.2608.23172-1.0453.20215-2.4283.49403-3.7951.85478-1.3795.3641-2.6899.78492-3.6164 1.23366-.4692.22724-.7745.43098-.9406.5919-.0307.02978-.0523.0535-.0671.0714.2007 1.27006.6426 2.35248 1.0435 3.12688.1769.3417.3438.6196.4745.8226zm-1.5476-3.90733c-.0003.00003.0008-.00255.0041-.00781-.0022.00516-.0038.00779-.0041.00781zm20.0541-.01085c-.0002-.00002-.0019-.00256-.0041-.00753.0033.00508.0044.00756.0041.00753z" fill-rule="evenodd"/><path d="m26.5 7.33333s-1.8333-.66666-2.5-1.33333c-.6667.66667-2.5 1.33333-2.5 1.33333s.5 3.66667 2.5 3.66667 2.5-3.66667 2.5-3.66667z"/></g></svg>