<svg fill="none" height="48" viewBox="0 0 48 48" width="48" xmlns="http://www.w3.org/2000/svg"><g fill="#333"><path d="m12 35h7v1.2457c0 .4465-.296.8389-.7253.9615l-2.5.7143c-.1795.0513-.3699.0513-.5494 0l-2.5-.7143c-.4293-.1226-.7253-.515-.7253-.9615z"/><path clip-rule="evenodd" d="m16.8786 28s-10.8786 3.3932-10.8786 7.4668v6.5334h36v-6.5334c0-4.0736-10.8786-7.4668-10.8786-7.4668l-6.4771 5.4571c-.3723.3137-.9163.3137-1.2886 0zm14.668 2.257-5.6136 4.7296c-1.1169.941-2.7491.941-3.866 0l-5.6136-4.7296c-.1741.0622-.3663.1324-.5734.2099-.9799.3668-2.2705.891-3.5475 1.5284-1.296.6468-2.48293 1.3639-3.31689 2.0925-.90069.7868-1.01561 1.2548-1.01561 1.379v4.5334h32v-4.5334c0-.1242-.1149-.5922-1.0156-1.379-.834-.7286-2.0209-1.4457-3.3169-2.0925-1.277-.6374-2.5676-1.1616-3.5475-1.5284-.2071-.0775-.3993-.1477-.5734-.2099z" fill-rule="evenodd"/><path d="m33.3355 33.1253c.0518-.1671.2772-.1671.329 0l.4716 1.5205c.0232.0746.0896.1252.1645.1252h1.5261c.1675 0 .2373.2247.1016.3279l-1.2345.9397c-.0606.0463-.086.128-.0629.2027l.4716 1.5206c.0518.1669-.1306.3059-.2663.2026l-1.2345-.9398c-.0606-.0461-.1427-.0461-.2033 0l-1.2346.9398c-.1357.1033-.3181-.0357-.2663-.2026l.4716-1.5206c.0231-.0747-.0022-.1564-.0628-.2027l-1.2346-.9397c-.1357-.1032-.0659-.3279.1016-.3279h1.5261c.0749 0 .1413-.0506.1645-.1252z"/><g clip-rule="evenodd" fill-rule="evenodd"><path d="m33.6645 33.1253c-.0518-.1671-.2772-.1671-.329 0l-.4716 1.5205c-.0232.0746-.0896.1252-.1645.1252h-1.5261c-.1675 0-.2373.2247-.1016.3279l1.2346.9397c.0606.0463.0859.128.0628.2027l-.4716 1.5206c-.0518.1669.1306.3059.2663.2026l1.2346-.9398c.0606-.0461.1427-.0461.2033 0l1.2345.9398c.1357.1033.3181-.0357.2663-.2026l-.4716-1.5206c-.0231-.0747.0023-.1564.0629-.2027l1.2345-.9397c.1357-.1032.0659-.3279-.1016-.3279h-1.5261c-.0749 0-.1413-.0506-.1645-.1252z"/><path d="m18.6379 14.5h10.7242v2h-10.7242zm-1.5796 2.3978c.3211-.0919.6668-.0175.9216.1984.767.6499 2.4391 1.4038 6.0201 1.4038s5.2531-.7539 6.0201-1.4038c.2548-.2159.6005-.2903.9216-.1984.321.0918.575.3379.677.6558.2479.7724.3813 1.5948.3813 2.4464 0 4.4183-3.5817 8-8 8s-8-3.5817-8-8c0-.8516.1334-1.674.3813-2.4464.102-.3179.356-.564.677-.6558zm.9651 2.5676c-.0155.176-.0234.3543-.0234.5346 0 3.3137 2.6863 6 6 6s6-2.6863 6-6c0-.1803-.0079-.3586-.0234-.5346-1.3373.6282-3.2514 1.0346-5.9766 1.0346s-4.6393-.4064-5.9766-1.0346z"/><path d="m24.1836 6.01698-.1836.98301-.1836-.98301.1836-.03428zm8.5901 9.91292c.2041-.2161.4631-.5308.7182-.9524.5188-.8573 1.0081-2.1356 1.0081-3.8807 0-.6487-.3324-1.16596-.6866-1.53517-.3575-.37273-.8252-.68947-1.3135-.95976-.9811-.54298-2.2461-1.00644-3.4547-1.37989-1.22-.37699-2.434-.67767-3.339-.88357-.4536-.10319-.832-.18313-1.0979-.23743-.133-.02716-.238-.04794-.3103-.06203l-.0834-.0161-.0223-.00423-.0087-.00164c-.0002-.00003 0 0-.1836.98301-.1836-.98301-.1834-.98304-.1836-.98301l-.0087.00164-.0223.00423-.0834.0161c-.0723.01409-.1773.03487-.3103.06203-.2659.0543-.6443.13424-1.0979.23743-.905.2059-2.119.50658-3.339.88357-1.2086.37345-2.4736.83691-3.4547 1.37989-.4883.27029-.956.58703-1.3135.95976-.3542.36921-.6866.88647-.6866 1.53517 0 1.745.4894 3.0232 1.008 3.8805.2552.4217.5142.7364.7183.9525.009.1153.0252.2446.0523.3847.1017.5271.3561 1.199.939 1.8516 1.1679 1.3078 3.4567 2.3339 7.7824 2.3339s6.6145-1.0261 7.7824-2.3339c.5829-.6526.8373-1.3245.939-1.8516.0271-.1401.0433-.2693.0523-.3846zm-2.2359.5701h-13.0756c.064.1071.1449.2195.247.3339.6183.6922 2.2159 1.6661 6.2908 1.6661s5.6725-.9739 6.2908-1.6661c.1021-.1144.183-.2268.247-.3339zm-13.9095-2h14.7434c.1136-.1268.2599-.3114.4091-.5579.3431-.5671.7153-1.4838.7192-2.8242-.0089-.0206-.0391-.0772-.1298-.1717-.162-.1689-.4365-.3718-.8388-.5945-.8002-.44288-1.9102-.85845-3.0766-1.21887-1.155-.35688-2.316-.64491-3.1923-.84425-.437-.09943-.8008-.17625-1.0544-.22805-.0811-.01655-.1508-.03054-.2081-.04189-.0573.01135-.127.02534-.2081.04189-.2536.0518-.6174.12862-1.0544.22805-.8763.19934-2.0373.48737-3.1923.84425-1.1664.36042-2.2764.77599-3.0766 1.21887-.4023.2227-.6768.4256-.8388.5945-.0907.0945-.1209.1511-.1298.1717.0039 1.3403.3761 2.257.7192 2.8241.1492.2465.2955.4312.4091.558zm-1.1315-3.3732s.0001-.0007.0007-.0023zm17.0064 0s-.0003-.0008-.0007-.0023z"/></g><path d="m26 10.5667s-1.4667-.5334-2-1.06671c-.5333.53331-2 1.06671-2 1.06671s.4 2.9333 2 2.9333 2-2.9333 2-2.9333z"/></g></svg>