<svg fill="none" height="48" viewBox="0 0 48 48" width="48" xmlns="http://www.w3.org/2000/svg"><path clip-rule="evenodd" d="m23 4c-.5523 0-1 .44772-1 1 0 .03124.0014.06215.0042.09265.3116-.06079.6335-.09265.9629-.09265.3522 0 .6958.03642 1.0274.10568.0036-.03473.0055-.06998.0055-.10568 0-.55228-.4477-1-1-1zm2.8566 1.91922c.0931-.28969.1434-.59858.1434-.91922 0-1.65685-1.3431-3-3-3s-3 1.34315-3 3c0 .30676.046.60277.1316.88149-1.3077.90225-2.1646 2.41132-2.1646 4.12031 0 .5237.0805 1.0286.2298 1.5031h-.625c-.4619 0-.9743.1867-1.4181.4195-.4748.2491-.988.6124-1.4633 1.0873-.9559.9549-1.7937 2.4007-1.7937 4.3036 0 2.3353.7725 4.043 1.7295 5.1796.4735.5624.9904.9828 1.4761 1.2688.0904.0532.1832.1038.2777.1508l-2.3605 10.0723-.2878 1.2282h1.2615 1.5786v7.653c0 1.4513 1.1833 2.6346 2.6346 2.6346s2.6346-1.1833 2.6346-2.6346v-7.652h2.2691v7.652c0 1.4513 1.1833 2.6346 2.6346 2.6346s2.6346-1.1833 2.6346-2.6346v-7.653h1.6661 1.2615l-.2879-1.2282-.9025-3.8513c.168.316.5006.5312.8835.5312.5523 0 1-.4477 1-1v-.6667c0-.5523.4477-1 1-1s1 .4477 1 1v14c0 .5523.4477 1 1 1s1-.4477 1-1v-14c0-1.5025-1.1045-2.747-2.5458-2.9658.9501-.6778 1.3228-1.9527.8265-3.0582l-4.222-9.4037c-.5646-1.2574-1.8146-2.0664-3.193-2.0664h-.1285c.1494-.4748.23-.98.23-1.5041 0-1.68539-.8334-3.17634-2.1106-4.08258zm-2.8895 1.08078c-1.6565 0-3.0001 1.34355-3.0001 3.0018 0 .5477.1466 1.0611.4026 1.5031h.0288l.3001.3681c.5457.6695 1.3736 1.0942 2.3015 1.0942.9275 0 1.7551-.4244 2.3009-1.0934l.1334-.1636c.336-.4848.5329-1.0736.5329-1.7084 0-1.65825-1.3436-3.0018-3.0001-3.0018zm-5.3953 6.5049h1.8263c.9073.9249 2.1711 1.4987 3.569 1.4987 1.3975 0 2.6608-.5734 3.5681-1.4977h1.3305c.5908 0 1.1265.3467 1.3685.8856l4.2219 9.4037c.1131.2519.0006.5478-.2513.6609s-.5478.0006-.6609-.2513l-3.2524-7.244-1.9122.4096v5.4677.1156l.0263.1126 2.3784 10.1487h-1.4047-1v1 8.653c0 .3467-.2879.6346-.6346.6346s-.6346-.2879-.6346-.6346v-8.652-1h-1-4.2691-1v1 8.652c0 .3467-.2879.6346-.6346.6346s-.6346-.2879-.6346-.6346v-8.653-1h-1-1.3172l2.2841-9.7466.2788-1.1897h.0021v-.0088l.0042-.018h-.0042v-5.2324h-2v4.8211c-.213-.1603-.4412-.3699-.6635-.6338-.6507-.7729-1.2594-2.0235-1.2594-3.8915 0-1.2729.5503-2.2324 1.2072-2.8887.3311-.3307.6805-.5746.979-.7312.2864-.1502.4536-.1832.4844-.1893.0046-.0009.0061-.0012.0045-.0012zm13.1475 11.5191c.3335.7426.9846 1.243 1.7212 1.4127-.8638.5267-1.4405 1.4776-1.4405 2.5633v.6385l-1.6207-6.916v-.6833z" fill="#333" fill-rule="evenodd"/></svg>