<svg fill="none" height="48" viewBox="0 0 48 48" width="48" xmlns="http://www.w3.org/2000/svg"><path clip-rule="evenodd" d="m20.4675 9.00181c0-1.65826 1.3436-3.00181 3.0001-3.00181s3.0001 1.34355 3.0001 3.00181c0 1.65829-1.3436 3.00179-3.0001 3.00179s-3.0001-1.3435-3.0001-3.00179zm3.0001-5.00181c-2.7619 0-5.0001 2.23979-5.0001 5.00181 0 .5237.0805 1.02859.2297 1.50309h-.5966c-.4619 0-.9743.1867-1.4181.4195-.4748.2491-.988.6124-1.4633 1.0873-.9559.9549-1.7937 2.4007-1.7937 4.3036 0 2.3412.7764 4.0515 1.7366 5.188.475.5623.9934.9821 1.48 1.2668.1471.0861.3012.1656.4585.2337v18.8642c0 1.4513 1.1833 2.6346 2.6346 2.6346l.0037-.0001h.0119l.0036.0001c1.4513 0 2.6346-1.1833 2.6346-2.6346v-10.652h2.2499v10.652c0 1.4513 1.1833 2.6346 2.6346 2.6346l.0037-.0001h.0119l.0036.0001c1.4513 0 2.6346-1.1833 2.6346-2.6346v-18.7353l.2411.6909c.3389.9713 1.2167 1.6009 2.1814 1.6706-.8132.5367-1.3498 1.4586-1.3498 2.5058v.6667c0 .5523.4477 1 1 1s1-.4477 1-1v-.6667c0-.5523.4477-1 1-1s1 .4477 1 1v14c0 .5523.4477 1 1 1s1-.4477 1-1v-14c0-1.6469-1.3271-2.9839-2.9703-2.9999.8479-.6359 1.2273-1.7696.8596-2.8237l-3.2531-9.3236c-.4904-1.4054-1.8161-2.3469-3.3047-2.3469h-.0938c.1494-.4748.23-.98003.23-1.50409 0-2.76202-2.2382-5.00181-5.0001-5.00181zm-5.367 8.5049h1.798c.9073.9249 2.1711 1.4987 3.569 1.4987 1.3974 0 2.6608-.5734 3.568-1.4977h1.2959c.638 0 1.2061.4035 1.4163 1.0058l3.2531 9.3236c.091.2607-.0466.5458-.3074.6368-.2607.091-.5458-.0467-.6368-.3074l-2.1852-6.263-1.9442.3294v24.6369c0 .3467-.2878.6346-.6346.6346l-.0036-.0001h-.0119l-.0037.0001c-.3467 0-.6346-.2879-.6346-.6346v-11.652-1h-1-4.2499-1v1 11.652c0 .3467-.2878.6346-.6346.6346l-.0036-.0001h-.0119l-.0037.0001c-.3467 0-.6346-.2879-.6346-.6346v-19.6278-1h-.0029v-5.2402h-2v4.634c-.1349-.1211-.2725-.2612-.4079-.4214-.6526-.7725-1.2643-2.0247-1.2643-3.8973 0-1.2729.5503-2.2324 1.2072-2.8887.3311-.3307.6805-.5746.979-.7312.2864-.1502.4536-.1832.4844-.1893.0046-.0009.0061-.0012.0045-.0012z" fill="#333" fill-rule="evenodd"/></svg>