<svg fill="none" height="48" viewBox="0 0 48 48" width="48" xmlns="http://www.w3.org/2000/svg"><path clip-rule="evenodd" d="m9 8c0-1.65685 1.3431-3 3-3s3 1.34315 3 3-1.3431 3-3 3-3-1.34315-3-3zm3-5c-2.41896 0-4.43671 1.71776-4.89998 4h-2.10002-1v1c0 1.55604.44425 3.0083 1.21284 4.2369-.14528.0593-.28794.1266-.42482.1984-.49494.2597-1.03051.6388-1.5268 1.1346-.99771.9968-1.87157 2.505-1.87157 4.4904 0 2.4506.81244 4.2379 1.81446 5.4239.496.5872 1.03677 1.0249 1.54345 1.3214.16332.0955.33422.1829.50807.2564v16.2185c0 1.498 1.22148 2.7195 2.71948 2.7195s2.71949-1.2215 2.71949-2.7195v-10.7532h2.4909v10.7532c0 1.498 1.2215 2.7195 2.7195 2.7195s2.7195-1.2215 2.7195-2.7195v-14.385c.4484.0688.9078.1045 1.3755.1045h1.0001c2.2244 0 4.2368-.9079 5.6869-2.3734-.4133 1.5949-.687 3.3971-.687 5.3734 0 .344.0591.6818.1716 1h-3.1716-1v1 11h2v-10h4.9869.0131 7v10h2v-9.7214l3.1806 8.7467c.5662 1.5571 2.2875 2.3603 3.8446 1.7941s2.3604-2.2875 1.7942-3.8446l-4-11c-.1334-.3667-.3333-.6955-.5832-.9748h1.7638c1.6569 0 3-1.3431 3-3 0-1.6568-1.3431-3-3-3h-6.0805l-2.0699-4.4848c.6514.3108 1.3806.4848 2.1504.4848 2.7614 0 5-2.2386 5-5s-2.2386-5-5-5-5 2.2386-5 5c0 .9472.2634 1.833.721 2.5879-.0923-.0228-.1861-.0414-.2812-.0555-1.0012-.1483-2.0096.2181-2.682.9745l-.0227.0256-.0209.027-.7641.9878-.0134.0173-.0126.0179c-.2698.3822-.5878.8642-.9241 1.439l.0001-.0215h-.0001v-2h-1.7085c-.4517-.4473-1.0731-.7235-1.759-.7236h-2.7977l-4.3213-3.4936c.9965-1.3341 1.5865-2.98955 1.5865-4.7828v-1h-1-2.1c-.4633-2.28224-2.481-4-4.9-4zm-5.74437 11h.45272c1.17487 1.037 2.65665 1.7342 4.29165 1.9381v2.0619c0 3.7768 2.3264 7.0103 5.6245 8.3456v14.9349c0 .3934-.3261.7195-.7195.7195s-.7195-.3261-.7195-.7195v-11.7532-1h-1-4.4909-1v1 11.7532c0 .3934-.32606.7195-.71949.7195s-.71948-.3261-.71948-.7195v-16.9875-1h-.00172v-6.293h-2v5.7188c-.17159-.1455-.34855-.3199-.52203-.5253-.69454-.8221-1.34223-2.1511-1.34223-4.1332 0-1.3554.58628-2.3773 1.28512-3.0755.35199-.3517.72381-.6113 1.04241-.7784.34018-.1785.52876-.205.53809-.2063l.00033-.0001c.00003 0 .00004 0 .00003 0zm13.74437 11c-.4708 0-.9308-.0465-1.3755-.1351v-5.4819l1.6544 1.3375c.4449.3597.9996.5559 1.5717.5559h3.6818c.4036.0001.7849-.0956 1.1224-.2654-.8268 2.3246-3.0464 3.989-5.6547 3.989zm-7-7c0 2.642 1.4637 4.9422 3.6245 6.1338v-6.8452-2.0944l1.6287 1.3168 3.2831 2.6542c.089.0719.1999.1112.3143.1112h3.6818c.2762.0001.5-.2238.5-.4999 0-.2762-.2238-.5-.5-.5001h-3.1513-.3536l-.2751-.2224-4.7316-3.8253c-1.1283.9106-2.5091 1.5209-4.0208 1.7094zm-1-4c2.973 0 5.441-2.1623 5.917-5h-1.017c-.4633 2.2822-2.481 4-4.9 4-2.41896 0-4.43671-1.7178-4.89998-4h-1.01706c.47608 2.8377 2.94404 5 5.91704 5zm23-1c0-1.6569 1.3431-3 3-3s3 1.3431 3 3-1.3431 3-3 3-3-1.3431-3-3zm3 18h.5991.7005l.2393.6583 3.5213 9.6835c.1887.519.7625.7868 1.2815.598.5191-.1887.7868-.7625.5981-1.2815l-4-11c-.1437-.3952-.5193-.6583-.9398-.6583h-8.877-1.1311l.1387-1.1225c.2813-2.2785.9769-4.1962 1.6892-5.6542l.9241-1.8918.8823 1.9117 1.4658 3.1759c.1635.3541.5179.5809.908.5809h8c.5523 0 1-.4477 1-1s-.4477-1-1-1h-6.7203-.6399l-.2681-.5809-2.4637-5.3381c-.1414-.3063-.4277-.5207-.7614-.5702-.3244-.048-.651.066-.8749.304l-.7261.9386c-.3979.5654-.9196 1.3837-1.44 2.4244-1.0508 2.1015-2.1056 5.13-2.1056 8.8222 0 .2652.1054.5196.2929.7071.1857.1858.437.2909.6995.2929h8.0076zm-4.7239-4.7428c.1269.2749.2922.5242.4877.7428h-1.4674c.1291-.6488.2937-1.2589.4795-1.8267z" fill="#333" fill-rule="evenodd"/></svg>