<svg fill="none" height="48" viewBox="0 0 48 48" width="48" xmlns="http://www.w3.org/2000/svg"><path clip-rule="evenodd" d="m24 5c-1.6564 0-3 1.34355-3 3.00181s1.3436 3.00179 3 3.00179c1.6565 0 3.0001-1.34353 3.0001-3.00179s-1.3436-3.00181-3.0001-3.00181zm-5 3.00181c0-2.76202 2.2382-5.00181 5-5.00181 2.7619 0 5.0001 2.23979 5.0001 5.00181 0 2.69779-2.1353 4.89739-4.8082 4.99819h5.1066c.8539 0 1.6823.2914 2.3481.8261l7.3228 5.8808c1.1842.951 1.3732 2.6819.4222 3.8661s-2.6819 1.3732-3.8661.4222l-1.8349-1.4736c.2854 1.4476.4204 3.1207.3077 5.0371-.1183 2.0114-.696 3.4457-1.2763 4.3963-.2885.4726-.5743.8202-.7974 1.0567-.0456.0483-.0886.0921-.1285.1313-.0038.0154-.0078.0314-.0118.0479-.0544.2199-.1321.5364-.2255.922-.1867.7713-.4354 1.8173-.684 2.9177-.2488 1.1019-.4958 2.2512-.6801 3.2312-.1906 1.0137-.2953 1.7533-.2953 2.0897 0 1.4765-1.2217 2.6478-2.6797 2.6478-1.4478 0-2.6626-1.155-2.6795-2.6169l-.4864-8.7772h-.1081l-.4888 8.7773c-.017 1.4619-1.2318 2.6168-2.6795 2.6168-1.4205 0-2.6167-1.1118-2.6773-2.5346l-1.9027-9.272c-.0337-.0264-.0689-.0548-.1057-.0853-.2727-.2259-.6268-.5644-.9864-1.0347-.7253-.9485-1.4534-2.4087-1.6028-4.5015-.0017-.0237-.0025-.0474-.0025-.0712 0-1.8107.254-3.4433.646-4.8846l-1.649 1.3559c-1.1732.9646-2.90619.7955-3.87075-.3777-.96457-1.1732-.79547-2.9061.37769-3.8707l7.13886-5.8695c.6711-.5518 1.5129-.8534 2.3816-.8534h5.2838c-2.6729-.1008-4.8082-2.3004-4.8082-4.99819zm11.8994 24.60339c-.9699-.2435-.9699-.2434-.9699-.2434l-.0229.0915c-.0148.0593-.0364.1464-.0639.2577-.055.2226-.1335.5423-.2277.9313-.1883.7777-.4395 1.8342-.691 2.9477-.2512 1.112-.5041 2.2879-.6949 3.3023-.1844.9807-.3297 1.9048-.3297 2.4592 0 .336-.29.6478-.6797.6478s-.6797-.3118-.6797-.6478c0-.0185-.0005-.0369-.0015-.0554l-.5401-9.7462c-.0294-.53-.4677-.9447-.9985-.9447h-2c-.5307 0-.969.4146-.9985.9444l-.5428 9.7463c-.001.0185-.0015.037-.0015.0556 0 .336-.29.6478-.6797.6478s-.6797-.3118-.6797-.6478c0-.0676-.0069-.1349-.0204-.2011l-2-9.7462c-.0575-.2801-.2321-.5221-.4797-.665l.0018.001.0028.0016.003.0018c.001.0006 0 .0001-.003-.0018-.0061-.0038-.0198-.0126-.0403-.0266-.0409-.028-.1084-.0768-.1944-.148-.1723-.1428-.4173-.3742-.6734-.7093-.5029-.6577-1.0692-1.7395-1.1941-3.394.0067-3.1862.8911-5.7437 1.8579-7.5918.2204-.4214.1136-.9397-.2555-1.2396s-.8983-.2984-1.2657.0036l-4.6099 3.7903c-.32.2631-.7926.217-1.0557-.103-.26305-.3199-.21693-.7926.103-1.0556l7.1389-5.8696c.3131-.2574.706-.3982 1.1114-.3982h10.7741c.3985 0 .7851.136 1.0958.3855l7.3228 5.8808c.3229.2593.3745.7314.1151 1.0544-.2593.3229-.7314.3745-1.0543.1151l-4.3746-3.5131c-.3591-.2883-.8686-.2942-1.2342-.0143-.3656.28-.4927.7734-.308 1.1952.7449 1.7006 1.3311 4.0996 1.1406 7.3377-.0983 1.672-.5709 2.7903-.9868 3.4716-.2095.3432-.4083.5813-.5452.7265-.0685.0726-.1215.1219-.1525.1495-.0155.0137-.0255.022-.0291.025.0001-.0001-.0002.0001 0 0-.1773.1371-.304.3303-.3586.5479z" fill="#333" fill-rule="evenodd"/></svg>