<svg fill="none" height="48" viewBox="0 0 48 48" width="48" xmlns="http://www.w3.org/2000/svg"><g clip-rule="evenodd" fill="#333" fill-rule="evenodd"><path d="m17 24c3.8675 0 7-3.1325 7-7s-3.1325-7-7-7-7 3.1325-7 7 3.1325 7 7 7zm5-7c0 2.7629-2.2371 5-5 5s-5-2.2371-5-5 2.2371-5 5-5 5 2.2371 5 5z"/><path d="m4 38v-5.6c0-4.256 8.6612-6.4 13-6.4 2.8862 0 7.6851.9487 10.5749 2.8368 2.0597-.557 4.3187-.8368 5.9251-.8368 1.8579 0 4.351.3742 6.4092 1.1307 1.0272.3777 2.0097.8733 2.753 1.5156.7486.6468 1.3378 1.5213 1.3378 2.6204v4.7333zm2-5.6c0-.3174.14556-.7514.76618-1.3154.6329-.5751 1.60704-1.1335 2.84064-1.6201 2.46918-.9739 5.46978-1.4645 7.39318-1.4645s4.924.4906 7.3932 1.4645c1.2336.4866 2.2077 1.045 2.8406 1.6201.6206.564.7662.998.7662 1.3154v3.6h-22zm23.3532-1.9308c1.5125-.3127 3.0302-.4692 4.1468-.4692 1.6465 0 3.9034.3405 5.7191 1.0079.9097.3344 1.6452.7281 2.1355 1.1518.4852.4192.6454.7873.6454 1.107v2.7333h-12v-3.6c0-.7009-.2349-1.3446-.6468-1.9308z"/><path d="m39 20.5c0 3.0387-2.4613 5.5-5.5 5.5s-5.5-2.4613-5.5-5.5c0-3.0388 2.4613-5.5 5.5-5.5s5.5 2.4612 5.5 5.5zm-5.5 3.5c1.9342 0 3.5-1.5658 3.5-3.5s-1.5658-3.5-3.5-3.5-3.5 1.5658-3.5 3.5 1.5658 3.5 3.5 3.5z"/></g></svg>