<svg fill="none" height="48" viewBox="0 0 48 48" width="48" xmlns="http://www.w3.org/2000/svg"><g clip-rule="evenodd" fill="#333" fill-rule="evenodd"><path d="m19.5 5c-1.6569 0-3 1.34315-3 3s1.3431 3 3 3 3-1.34315 3-3-1.3431-3-3-3zm-5 3c0-2.76142 2.2386-5 5-5s5 2.23858 5 5c0 1.98624-1.1582 3.702-2.836 4.5087h3.2265c.462 0 .9744.1867 1.4181.4195.4749.2492.988.6125 1.4634 1.0874.9558.9549 1.7936 2.4006 1.7936 4.3036 0 2.3411-.7764 4.0515-1.7365 5.1879-.4751.5624-.9934.9822-1.48 1.2669-.1472.0861-.3013.1655-.4586.2337v17.3851c0 1.4513-1.1832 2.6345-2.6345 2.6345s-2.6346-1.1832-2.6346-2.6345v-11.1729h-2.2692v11.1729c0 1.4513-1.1832 2.6345-2.6345 2.6345s-2.6346-1.1832-2.6346-2.6345v-24.8821h-4.94022v17.3241c.96788.1979 1.83773.724 2.46242 1.4893.6248.7653.966 1.7228.9662 2.7108v5.1428h-1.71433v-6h-1.71429v6h-1.71429v-6h-1.7143v6h-1.71429v-5.1428c.00012-.988.3414-1.9455.96613-2.7108s1.49457-1.2914 2.46246-1.4893v-17.3241h-.92859c-1.38071 0-2.5-1.1193-2.5-2.5s1.11929-2.5 2.5-2.5h.92859v-3.51024h1.71429v3.51024h6.85702 1.938c.0419-.0013.0838-.002.1259-.002h.2722c-1.6778-.8067-2.836-2.52246-2.836-4.5087zm-.4169 7.5107h-5.94022v-1h6.85702 1.9547.0179l.0179-.0007c.0243-.0008.0487-.0013.0734-.0013h7.8267c-.0007 0-.0008.0001-.0002.0003l.0048.001c.0307.006.1979.039.4844.1893.2985.1566.6479.4004.9789.7312.657.6563 1.2072 1.6158 1.2072 2.8887 0 1.8726-.6116 3.1247-1.2643 3.8972-.1361.1611-.2743.3018-.4099.4233v-5.6397h-2v6.2441h-.0009v1 18.1487c0 .3467-.2878.6345-.6345.6345-.3468 0-.6346-.2878-.6346-.6345v-12.1729-1h-1-4.2692-1v1 12.1729c0 .3467-.2878.6345-.6345.6345-.3468 0-.6346-.2878-.6346-.6345v-25.8821-1zm-8.5831-1h.92859v1h-.92859c-.27614 0-.5-.2239-.5-.5 0-.2762.22386-.5.5-.5z"/><path d="m37 20c.5523 0 1 .4477 1 1v22.9999c0 .5523-.4477 1-1 1s-1-.4477-1-1v-22.9999c0-.5523.4477-1 1-1z"/><path d="m39.1787 39.8191c.1123.028.2315.055.3549.0791.3302.0646.6635.1031.9594.0946.3043-.0086.4976-.0651.6051-.1271.1075-.0621.2531-.2013.4127-.4605.1553-.252.2886-.5599.3978-.8782.0408-.1188.077-.2356.1089-.3469-.1123-.028-.2315-.055-.3549-.0791-.3302-.0645-.6635-.103-.9593-.0946-.3043.0087-.4977.0652-.6052.1272-.1075.0621-.253.2013-.4127.4605-.1552.252-.2885.5599-.3977.8781-.0408.1189-.0771.2357-.109.3469zm4.0175-2.3195c.3662-.9305.366-.9306.3658-.9307l-.0016-.0006-.0029-.0011-.0084-.0033-.027-.0103c-.0224-.0084-.0535-.0199-.0924-.0339-.0778-.028-.1875-.0659-.322-.1086-.2671-.0847-.6406-.1907-1.0614-.2729-.417-.0815-.9069-.145-1.4-.131-.4847.0139-1.046.1044-1.5482.3944-.5022.2899-.8613.7307-1.1155 1.1435-.2588.42-.4488.8761-.5867 1.2779-.1391.4056-.2341.7821-.2943 1.0558-.0303.1377-.0523.2517-.067.3331-.0073.0407-.0129.0734-.0168.097l-.0046.0285-.0013.0089-.0005.0031-.0002.0011c0 .0003-.0001.001.9888.1491l-.9888-.1491c-.069.4608.1891.9091.6226 1.0797l.3662-.9306c-.3662.9306-.3664.9305-.3662.9306l.0021.0008.0029.0011.0084.0032.0269.0103c.0224.0085.0535.02.0925.034.0778.0279.1874.0659.3219.1085.2671.0847.6407.1907 1.0615.273.4169.0815.9069.145 1.4.1309.4846-.0138 1.0459-.1043 1.5481-.3943s.8613-.7307 1.1156-1.1436c.2587-.42.4487-.876.5866-1.2779.1392-.4055.2341-.782.2943-1.0557.0303-.1378.0523-.2517.067-.3331.0074-.0407.0129-.0734.0168-.097l.0046-.0285.0014-.0089.0004-.0031.0002-.0012c.0001-.0002.0002-.0009-.9888-.1491zm0 0 .9888.1491c.069-.4607-.1895-.9092-.623-1.0798z"/><path d="m32.1787 38.1801c.0319.1113.0682.228.109.3469.1092.3182.2425.6262.3977.8782.1597.2592.3052.3984.4127.4605.1075.062.3009.1185.6052.1271.2958.0085.6291-.03.9593-.0946.1234-.0241.2426-.0511.3549-.0791-.0319-.1112-.0681-.228-.1089-.3469-.1092-.3182-.2425-.6261-.3978-.8781-.1596-.2592-.3052-.3984-.4127-.4605s-.3008-.1185-.6051-.1272c-.2959-.0084-.6292.0301-.9594.0946-.1234.0241-.2426.0511-.3549.0791zm4.0175 2.3195c.989-.1481.9889-.1483.9889-.1486l-.0003-.0016-.0004-.0031-.0014-.0089-.0046-.0285c-.0039-.0236-.0094-.0563-.0168-.097-.0147-.0814-.0367-.1954-.067-.3331-.0602-.2737-.1551-.6502-.2943-1.0558-.1379-.4018-.3279-.8579-.5866-1.2779-.2543-.4128-.6134-.8536-1.1156-1.1435-.5022-.29-1.0635-.3806-1.5481-.3944-.4931-.014-.9831.0495-1.4.131-.4208.0822-.7944.1882-1.0615.2729-.1345.0427-.2441.0806-.3219.1086-.039.014-.0701.0255-.0925.0339l-.0269.0103-.0084.0033-.0029.0011-.0012.0004c-.0002.0001-.0009.0004.3653.9309l-.3653-.9309c-.4335.1706-.6926.6183-.6236 1.0791l.9889-.1482c-.9889.1482-.989.1479-.9889.1482l.0003.0021.0005.0031.0013.0089.0046.0285c.0039.0236.0095.0563.0168.097.0147.0814.0367.1953.067.3331.0602.2737.1552.6502.2943 1.0557.1379.4018.3279.8579.5867 1.2779.2542.4129.6133.8536 1.1155 1.1436s1.0635.3805 1.5482.3943c.4931.0141.983-.0494 1.4-.1309.4208-.0823.7943-.1883 1.0614-.273.1345-.0426.2442-.0806.322-.1085.0389-.014.07-.0255.0924-.034l.027-.0103.0084-.0032.0029-.0011.0011-.0005c.0002-.0001.0009-.0003-.3653-.9309zm0 0 .3653.9309c.4335-.1706.6926-.6187.6236-1.0795z"/><path d="m39.1787 32.8191c.1123.028.2315.055.3549.0791.3302.0646.6635.1031.9594.0946.3043-.0086.4976-.0651.6051-.1271.1075-.0621.2531-.2013.4127-.4605.1553-.252.2886-.5599.3978-.8782.0408-.1188.077-.2356.1089-.3469-.1123-.028-.2315-.055-.3549-.0791-.3302-.0645-.6635-.103-.9593-.0946-.3043.0087-.4977.0652-.6052.1272-.1075.0621-.253.2013-.4127.4605-.1552.252-.2885.5599-.3977.8781-.0408.1189-.0771.2357-.109.3469zm4.0175-2.3195c.3662-.9305.366-.9306.3658-.9307l-.0016-.0006-.0029-.0011-.0084-.0033-.027-.0103c-.0224-.0084-.0535-.0199-.0924-.0339-.0778-.028-.1875-.0659-.322-.1086-.2671-.0847-.6406-.1907-1.0614-.2729-.417-.0815-.9069-.145-1.4-.131-.4847.0139-1.046.1044-1.5482.3944-.5022.2899-.8613.7307-1.1155 1.1435-.2588.42-.4488.8761-.5867 1.2779-.1391.4056-.2341.7821-.2943 1.0558-.0303.1377-.0523.2517-.067.3331-.0073.0407-.0129.0734-.0168.097l-.0046.0285-.0013.0089-.0005.0031-.0002.0011c0 .0003-.0001.001.9888.1491l-.9888-.1491c-.069.4608.1891.9091.6226 1.0797l.3662-.9306c-.3662.9306-.3664.9305-.3662.9306l.0021.0008.0029.0011.0084.0032.0269.0103c.0224.0085.0535.02.0925.034.0778.0279.1874.0659.3219.1085.2671.0847.6407.1907 1.0615.273.4169.0815.9069.145 1.4.1309.4846-.0138 1.0459-.1043 1.5481-.3943s.8613-.7307 1.1156-1.1436c.2587-.42.4487-.876.5866-1.2779.1392-.4055.2341-.782.2943-1.0557.0303-.1378.0523-.2517.067-.3331.0074-.0407.0129-.0734.0168-.097l.0046-.0285.0014-.0089.0004-.0031.0002-.0012c.0001-.0002.0002-.0009-.9888-.1491zm0 0 .9888.1491c.069-.4607-.1895-.9092-.623-1.0798z"/><path d="m37 19.639c.0804-.0833.1634-.173.246-.2678.2209-.2537.421-.5231.5616-.7835.1446-.2679.1924-.4636.1924-.5877s-.0478-.3198-.1924-.5877c-.1406-.2604-.3407-.5298-.5616-.7835-.0826-.0948-.1656-.1845-.246-.2678-.0804.0833-.1634.173-.246.2678-.2209.2537-.421.5231-.5616.7835-.1446.2679-.1924.4636-.1924.5877s.0478.3198.1924.5877c.1406.2604.3407.5298.5616.7835.0826.0948.1656.1845.246.2678zm0-4.639c-.6228-.7824-.6229-.7823-.6231-.7821l-.0014.001-.0024.002-.007.0056-.0224.0182c-.0185.0152-.044.0364-.0756.0631-.0631.0534-.1508.1294-.255.2246-.2069.189-.4855.4594-.7671.7827-.2791.3204-.579.7129-.8134 1.147-.2304.4266-.4326.958-.4326 1.5379s.2022 1.1113.4326 1.5379c.2344.4341.5343.8266.8134 1.147.2816.3233.5602.5937.7671.7827.1042.0952.1919.1712.255.2246.0316.0267.0571.0479.0756.0631l.0224.0182.007.0056.0024.002.001.0007c.0002.0001.0007.0006.6235-.7818l-.6235.7818c.3645.2901.8818.2907 1.2463.0006l-.6228-.7824c.6228.7824.6226.7825.6228.7824l.0017-.0013.0024-.002.007-.0056.0224-.0182c.0185-.0152.044-.0364.0756-.0631.0631-.0534.1508-.1294.255-.2246.2069-.189.4855-.4594.7671-.7827.2791-.3204.579-.7129.8134-1.147.2304-.4266.4326-.958.4326-1.5379s-.2022-1.1113-.4326-1.5379c-.2344-.4341-.5343-.8266-.8134-1.147-.2816-.3233-.5602-.5937-.7671-.7827-.1042-.0952-.1919-.1712-.255-.2246-.0316-.0267-.0571-.0479-.0756-.0631l-.0224-.0182-.007-.0056-.0024-.002-.001-.0007c-.0002-.0001-.0007-.0006-.6235.7818zm0 0 .6235-.7818c-.3645-.2901-.8821-.2905-1.2466-.0003z"/><path d="m32.1787 31.1801c.0319.1113.0682.228.109.3469.1092.3182.2425.6262.3977.8782.1597.2592.3052.3984.4127.4605.1075.062.3009.1185.6052.1271.2958.0085.6291-.03.9593-.0946.1234-.0241.2426-.0511.3549-.0791-.0319-.1112-.0681-.228-.1089-.3469-.1092-.3182-.2425-.6261-.3978-.8781-.1596-.2592-.3052-.3984-.4127-.4605s-.3008-.1185-.6051-.1272c-.2959-.0084-.6292.0301-.9594.0946-.1234.0241-.2426.0511-.3549.0791zm4.0175 2.3195c.989-.1481.9889-.1483.9889-.1486l-.0003-.0016-.0004-.0031-.0014-.0089-.0046-.0285c-.0039-.0236-.0094-.0563-.0168-.097-.0147-.0814-.0367-.1954-.067-.3331-.0602-.2737-.1551-.6502-.2943-1.0558-.1379-.4018-.3279-.8579-.5866-1.2779-.2543-.4128-.6134-.8536-1.1156-1.1435-.5022-.29-1.0635-.3806-1.5481-.3944-.4931-.014-.9831.0495-1.4.131-.4208.0822-.7944.1882-1.0615.2729-.1345.0427-.2441.0806-.3219.1086-.039.014-.0701.0255-.0925.0339l-.0269.0103-.0084.0033-.0029.0011-.0012.0004c-.0002.0001-.0009.0004.3653.9309l-.3653-.9309c-.4335.1706-.6926.6183-.6236 1.0791l.9889-.1482c-.9889.1482-.989.1479-.9889.1482l.0003.0021.0005.0031.0013.0089.0046.0285c.0039.0236.0095.0563.0168.097.0147.0814.0367.1953.067.3331.0602.2737.1552.6502.2943 1.0557.1379.4018.3279.8579.5867 1.2779.2542.4129.6133.8536 1.1155 1.1436s1.0635.3805 1.5482.3943c.4931.0141.983-.0494 1.4-.1309.4208-.0823.7943-.1883 1.0614-.273.1345-.0426.2442-.0806.322-.1085.0389-.014.07-.0255.0924-.034l.027-.0103.0084-.0032.0029-.0011.0011-.0005c.0002-.0001.0009-.0003-.3653-.9309zm0 0 .3653.9309c.4335-.1706.6926-.6187.6236-1.0795z"/><path d="m39.1787 25.8191c.1123.028.2315.055.3549.0791.3302.0646.6635.1031.9594.0946.3043-.0086.4976-.0651.6051-.1271.1075-.0621.2531-.2013.4127-.4605.1553-.252.2886-.5599.3978-.8782.0408-.1188.077-.2356.1089-.3469-.1123-.028-.2315-.055-.3549-.0791-.3302-.0645-.6635-.103-.9593-.0946-.3043.0087-.4977.0652-.6052.1272-.1075.0621-.253.2013-.4127.4605-.1552.252-.2885.5599-.3977.8781-.0408.1189-.0771.2357-.109.3469zm4.0175-2.3195c.3662-.9305.366-.9306.3658-.9307l-.0016-.0006-.0029-.0011-.0084-.0033-.027-.0103c-.0224-.0084-.0535-.0199-.0924-.0339-.0778-.028-.1875-.0659-.322-.1086-.2671-.0847-.6406-.1907-1.0614-.2729-.417-.0815-.9069-.145-1.4-.131-.4847.0139-1.046.1044-1.5482.3944-.5022.2899-.8613.7307-1.1155 1.1435-.2588.42-.4488.8761-.5867 1.2779-.1391.4056-.2341.7821-.2943 1.0558-.0303.1377-.0523.2517-.067.3331-.0073.0407-.0129.0734-.0168.097l-.0046.0285-.0013.0089-.0005.0031-.0002.0011c0 .0003-.0001.001.9888.1491l-.9888-.1491c-.069.4608.1891.9091.6226 1.0797l.3662-.9306c-.3662.9306-.3664.9305-.3662.9306l.0021.0008.0029.0011.0084.0032.0269.0103c.0224.0085.0535.02.0925.034.0778.0279.1874.0659.3219.1085.2671.0847.6407.1907 1.0615.273.4169.0815.9069.145 1.4.1309.4846-.0138 1.0459-.1043 1.5481-.3943s.8613-.7307 1.1156-1.1436c.2587-.42.4487-.876.5866-1.2779.1392-.4055.2341-.782.2943-1.0557.0303-.1378.0523-.2517.067-.3331.0074-.0407.0129-.0734.0168-.097l.0046-.0285.0014-.0089.0004-.0031.0002-.0012c.0001-.0002.0002-.0009-.9888-.1491zm0 0 .9888.1491c.069-.4607-.1895-.9092-.623-1.0798z"/><path d="m32.1787 24.1801c.0319.1113.0682.228.109.3469.1092.3182.2425.6262.3977.8782.1597.2592.3052.3984.4127.4605.1075.062.3009.1185.6052.1271.2958.0085.6291-.03.9593-.0946.1234-.0241.2426-.0511.3549-.0791-.0319-.1112-.0681-.228-.1089-.3469-.1092-.3182-.2425-.6261-.3978-.8781-.1596-.2592-.3052-.3984-.4127-.4605s-.3008-.1185-.6051-.1272c-.2959-.0084-.6292.0301-.9594.0946-.1234.0241-.2426.0511-.3549.0791zm4.0175 2.3195c.989-.1481.9889-.1483.9889-.1486l-.0003-.0016-.0004-.0031-.0014-.0089-.0046-.0285c-.0039-.0236-.0094-.0563-.0168-.097-.0147-.0814-.0367-.1954-.067-.3331-.0602-.2737-.1551-.6502-.2943-1.0558-.1379-.4018-.3279-.8579-.5866-1.2779-.2543-.4128-.6134-.8536-1.1156-1.1435-.5022-.29-1.0635-.3806-1.5481-.3944-.4931-.014-.9831.0495-1.4.131-.4208.0822-.7944.1882-1.0615.2729-.1345.0427-.2441.0806-.3219.1086-.039.014-.0701.0255-.0925.0339l-.0269.0103-.0084.0033-.0029.0011-.0012.0004c-.0002.0001-.0009.0004.3653.9309l-.3653-.9309c-.4335.1706-.6926.6183-.6236 1.0791l.9889-.1482c-.9889.1482-.989.1479-.9889.1482l.0003.0021.0005.0031.0013.0089.0046.0285c.0039.0236.0095.0563.0168.097.0147.0814.0367.1953.067.3331.0602.2737.1552.6502.2943 1.0557.1379.4018.3279.8579.5867 1.2779.2542.4129.6133.8536 1.1155 1.1436s1.0635.3805 1.5482.3943c.4931.0141.983-.0494 1.4-.1309.4208-.0823.7943-.1883 1.0614-.273.1345-.0426.2442-.0806.322-.1085.0389-.014.07-.0255.0924-.034l.027-.0103.0084-.0032.0029-.0011.0011-.0005c.0002-.0001.0009-.0003-.3653-.9309zm0 0 .3653.9309c.4335-.1706.6926-.6187.6236-1.0795z"/></g></svg>