<svg fill="none" height="48" viewBox="0 0 48 48" width="48" xmlns="http://www.w3.org/2000/svg"><g fill="#333"><path d="m33.974 18.9998c.0009 1.1046-.8938 2.0007-1.9983 2.0016-1.1046.001-2.0008-.8937-2.0017-1.9983s.8938-2.0007 1.9984-2.0017c1.1045-.0009 2.0007.8938 2.0016 1.9984z"/><path d="m36.9896 37.9973c1.1045-.0009 1.9992-.8971 1.9983-2.0016-.0009-1.1046-.897-1.9993-2.0016-1.9984s-1.9993.8971-1.9984 2.0016c.0009 1.1046.8971 1.9993 2.0017 1.9984z"/><path d="m33.986 33.9998c.0009 1.1046-.8938 2.0007-1.9984 2.0016-1.1046.001-2.0007-.8937-2.0016-1.9983s.8938-2.0007 1.9983-2.0017c1.1046-.0009 2.0008.8938 2.0017 1.9984z"/><path d="m35.9837 30.9983c1.1046-.0009 1.9993-.8971 1.9984-2.0017-.0009-1.1045-.8971-1.9992-2.0017-1.9983-1.1045.0009-1.9992.897-1.9983 2.0016s.897 1.9993 2.0016 1.9984z"/><path d="m33.9786 24.9998c.0009 1.1046-.8938 2.0007-1.9984 2.0016-1.1046.001-2.0007-.8937-2.0016-1.9983s.8938-2.0007 1.9983-2.0017c1.1046-.0009 2.0008.8938 2.0017 1.9984z"/><path d="m15.9754 21.0146c-1.1046.0009-2.0007-.8938-2.0016-1.9984s.8938-2.0007 1.9983-2.0016c1.1046-.001 2.0008.8937 2.0017 1.9983s-.8938 2.0007-1.9984 2.0017z"/><path d="m8.98793 36.0203c.00091 1.1046.89707 1.9993 2.00167 1.9984 1.1045-.0009 1.9992-.8971 1.9983-2.0016-.0009-1.1046-.897-1.9993-2.0016-1.9984-1.10458.0009-1.99927.8971-1.99837 2.0016z"/><path d="m15.9876 36.0146c-1.1046.0009-2.0007-.8938-2.0016-1.9984s.8938-2.0007 1.9983-2.0016c1.1046-.001 2.0008.8937 2.0017 1.9983s-.8938 2.0007-1.9984 2.0017z"/><path d="m9.98207 29.0194c.00091 1.1045.89703 1.9992 2.00163 1.9983s1.9993-.897 1.9984-2.0016-.8971-1.9993-2.0017-1.9984c-1.1045.0009-1.99923.8971-1.99833 2.0017z"/><path d="m15.9803 27.0146c-1.1046.0009-2.0007-.8938-2.0016-1.9984s.8937-2.0007 1.9983-2.0016c1.1046-.001 2.0007.8937 2.0017 1.9983.0009 1.1046-.8938 2.0007-1.9984 2.0017z"/><path clip-rule="evenodd" d="m24 6.00113c1 0 1 .00004 1 .00013l.0003 14.49594c0 1.3971.5639 1.9413 1.0038 2.1978.049.0286.0983.0545.1474.0781-.001-.1195-.0023-.244-.0037-.3729-.0378-3.5286-.1114-10.4003 5.3274-10.4003 7.4506 0 12.7725 26.0065 9.5794 28.6602-3.1932 2.6537-9.5794 1.0615-12.7725-2.123-2.578-2.5709-2.355-8.5786-2.1948-12.8912.0098-.2643.0193-.5222.028-.7726-.3252-.0809-.7191-.2176-1.1187-.4506-.356-.2076-.698-.4814-.9952-.8331-.2978.3529-.6405.6274-.9973.8355-.3996.2331-.7935.3697-1.1187.4506.0087.2496.0182.5066.028.77.1604 4.3126.3838 10.3205-2.1941 12.8914-3.1929 3.1845-9.5791 4.7767-12.77237 2.123-3.19329-2.6537 2.12714-28.6602 9.57777-28.6602 5.4388 0 5.3656 6.8717 5.328 10.4003-.0002.0163-.0003.0324-.0005.0485-.0012.1126-.0023.2217-.0032.3269.0492-.0236.0985-.0496.1476-.0782.4398-.2565 1.0037-.8007 1.0037-2.1978l-.0003-14.49834c0-.00009 0-.00013 1-.00013zm7.4752 7.99877c-.9541 0-1.491.3006-1.8667.6872-.4334.4462-.7954 1.1639-1.0495 2.1778-.445 1.7749-.4261 3.8173-.4108 5.4646.0026.285.0051.5582.0051.8161 0 .7599-.0337 1.67-.0689 2.6167v.0013c-.0139.3724-.0279.7504-.0402 1.1272-.0447 1.3751-.0702 2.8149-.0038 4.2076.0667 1.4004.2237 2.6853.5168 3.7614.2965 1.0887.6936 1.8188 1.1371 2.2612 1.2782 1.2746 3.2964 2.3044 5.3548 2.7035 2.035.3946 3.6732.1026 4.6326-.6274.005-.0112.0105-.0243.0166-.0395.0592-.1479.131-.402.1894-.7891.1169-.775.1472-1.856.0685-3.188-.1568-2.6498-.7277-6.0114-1.6295-9.3197-.9052-3.321-2.1095-6.4608-3.4747-8.7223-.6833-1.132-1.357-1.9597-1.9818-2.4848-.6185-.5198-1.0768-.6538-1.395-.6538zm-14.9504 0c.9541 0 1.491.3006 1.8667.6873.4335.4461.7955 1.1638 1.0497 2.1777.445 1.7749.4263 3.8173.4111 5.4646-.0026.285-.0051.5582-.0051.8161 0 .7599.0339 1.67.0691 2.6167.0138.3728.0279.7512.0402 1.1285.0449 1.3751.0704 2.8149.0041 4.2076-.0666 1.4004-.2236 2.6853-.5166 3.7614-.2965 1.0887-.6935 1.8188-1.137 2.2612-1.2781 1.2746-3.2962 2.3044-5.3546 2.7035-2.035.3946-3.67319.1026-4.63268-.6274-.00497-.0112-.01053-.0243-.01661-.0395-.05922-.1479-.13104-.402-.18942-.7891-.1169-.775-.14735-1.856-.06863-3.188.15661-2.6498.72732-6.0114 1.62891-9.3197.90503-3.321 2.10913-6.4608 3.47423-8.7223.6832-1.132 1.3568-1.9597 1.9816-2.4848.6185-.5198 1.0768-.6538 1.395-.6538z" fill-rule="evenodd"/></g></svg>