<svg fill="none" height="48" viewBox="0 0 48 48" width="48" xmlns="http://www.w3.org/2000/svg"><path clip-rule="evenodd" d="m13.2721 36.7279c-5.60723-5.6072-6.74171-13.9934-3.40346-20.7251l11.48716-.0001c1.8813 0 2.6488 2.4184 1.1119 3.5033l-.9775.6899c-3.0752 2.1706-1.2147 7.0102 2.5226 6.5618.5783-.0693 1.1317.1752 1.4737.6117-.3019-.0194-.612.0068-.9212.0842l-5.6569 1.4142c-1.6074.4018-2.5847 2.0306-2.1828 3.638.4018 1.6074 2.0306 2.5847 3.638 2.1828l2.7464-.6866.6867 2.7464c.3641 1.4568 1.7493 2.4199 3.2417 2.2541 7.8193-.8688 11.4061-6.4099 12.3772-8.9994.3598-.9595.2049-2.0362-.4106-2.8555-.6156-.8192-1.6068-1.2676-2.6285-1.189l-2.0702.1592-.7997-3.1989c-.4018-1.6074-2.0307-2.5847-3.638-2.1829-1.6074.4019-2.5847 2.0307-2.1829 3.6381l1.4143 5.6568c.1827.7311.6234 1.3393 1.2071 1.742-.3433.2016-.715.3891-1.1166.5562l-1.5136-5.0065c-.5093-1.6847-2.1549-2.7602-3.9023-2.5506-1.6757.201-2.5099-1.9689-1.131-2.9422l.9774-.6899c1.8664-1.3174 2.0647-3.6001 1.1087-5.2293 1.3042-.3259 2.2703-1.5054 2.2703-2.9106v-6c0-.34343-.0577-.67339-.164-.98069 4.3241.19981 8.5899 1.95074 11.8919 5.25279 7.0295 7.0294 7.0295 18.4264 0 25.4558-7.0294 7.0295-18.4264 7.0295-25.4558 0zm10.7279-30.7279h-6.7303-12.2697c-.55228 0-1 .44772-1 1v6c0 .5523.44772 1 1 1h19c.5523 0 1-.4477 1-1v-6c0-.55229-.4477-1-1-1zm.5577-1.94825c5.5878-.40156 11.3121 1.53381 15.5844 5.80611 7.8105 7.81044 7.8105 20.47374 0 28.28424s-20.4737 7.8105-28.2842 0c-5.98658-5.9865-7.38459-14.824-4.19405-22.1421h-2.66385c-1.65685 0-3-1.3431-3-3v-6c0-1.65685 1.34315-3 3-3h19c.1906 0 .377.01777.5577.05175zm15.5844 15.70565c.7811.781.7811 2.0473 0 2.8284-.781.781-2.0473.781-2.8284 0-.781-.7811-.781-2.0474 0-2.8284.7811-.7811 2.0474-.7811 2.8284 0zm1.4143 4.2426c-1.5621 1.5621-4.0948 1.5621-5.6569 0s-1.5621-4.0948 0-5.6569 4.0948-1.5621 5.6569 0c1.562 1.5621 1.562 4.0948 0 5.6569zm-4.1504 4.349c-.2052-.273-.5355-.4225-.8761-.3963l-2.9122.224c-.4862.0374-.9285-.2814-1.0468-.7545l-1.0046-4.0183c-.1339-.5358-.6769-.8615-1.2127-.7276-.5358.134-.8615.6769-.7276 1.2127l1.4142 5.6569c.1183.4731.5606.7919 1.0469.7545l.4692-.0361c.4214-.0324.8176.2036.9899.5895.1722.386.0832.8385-.2224 1.1305-1.1484 1.0974-2.7445 2.1391-4.8761 2.7007-.2586.0681-.5337.0299-.7638-.1063-.2302-.1361-.3963-.3587-.4611-.6182l-.9598-3.8391c-.1339-.5358-.6769-.8615-1.2127-.7276l-5.6568 1.4143c-.5358.1339-.8616.6768-.7276 1.2126.1339.5358.6769.8616 1.2127.7276l3.7165-.9291c.2573-.0643.5296-.0238.7571.1126.2274.1365.3913.3577.4556.615l.9291 3.7166c.1214.4856.5831.8066 1.0806.7513 6.8468-.7607 9.9293-5.5908 10.7254-7.7138.1199-.3198.0683-.6788-.1369-.9519zm-29.54519-15.253c1.248 0 2.016-.776 2.016-1.832v-.016c0-1.04-.744-1.44-1.504-1.568l1.096-1.048c.224-.216.368-.384.368-.688 0-.336-.264-.544-.624-.544h-2.728c-.288 0-.528.24-.528.528s.24.528.528.528h1.72l-1.088 1.096c-.192.192-.264.336-.264.504 0 .288.24.528.528.528h.192c.688 0 1.096.256 1.096.712v.016c0 .416-.328.68-.792.68-.44 0-.776-.144-1.096-.416-.096-.08-.216-.152-.392-.152-.32 0-.592.272-.592.592 0 .176.096.344.208.44.456.392 1.056.64 1.856.64zm2.58479-.68c0 .368.28.584.664.584h3.04c.296 0 .536-.232.536-.528s-.24-.536-.536-.536h-1.952l.912-.704c.992-.768 1.472-1.232 1.472-2.168v-.016c0-1.048-.768-1.728-1.928-1.728-.848 0-1.376.304-1.824.824-.088.104-.144.248-.144.384 0 .312.248.56.56.56.192 0 .336-.088.416-.176.312-.336.56-.488.912-.488.44 0 .752.256.752.728 0 .464-.272.776-.968 1.344l-1.592 1.304c-.208.168-.32.376-.32.616zm6.2883.168c.112.312.344.504.64.504h.128c.296 0 .52-.184.632-.504l1.104-3.208 1.104 3.208c.112.32.336.504.632.504h.128c.296 0 .528-.192.64-.504l1.568-4.4c.024-.072.048-.168.048-.24 0-.336-.272-.592-.608-.592-.304 0-.512.2-.592.44l-1.112 3.432-1.12-3.4c-.096-.296-.312-.488-.624-.488h-.096c-.312 0-.528.2-.624.488l-1.12 3.4-1.112-3.432c-.08-.256-.312-.44-.6-.44-.344 0-.632.256-.632.6 0 .072.024.16.048.232z" fill="#333" fill-rule="evenodd"/></svg>