<svg fill="none" height="48" viewBox="0 0 48 48" width="48" xmlns="http://www.w3.org/2000/svg"><path clip-rule="evenodd" d="m2 7c0-1.65685 1.34315-3 3-3h33c1.6569 0 3 1.34315 3 3v3.7702c6.9413 7.8551 6.6554 19.8587-.8579 27.3719-7.8105 7.8105-20.4737 7.8105-28.2842 0-5.98658-5.9865-7.38459-14.824-4.19405-22.1421h-2.66385c-1.65685 0-3-1.3431-3-3zm22.7806 9c.8974 1.6224.6729 3.8465-1.1596 5.1399l-.9774.6899c-1.3789.9733-.5447 3.1432 1.131 2.9422 1.7474-.2096 3.393.8659 3.9023 2.5506l1.5136 5.0065c.4016-.1671.7733-.3546 1.1166-.5562-.5837-.4027-1.0244-1.0109-1.2071-1.742l-1.4143-5.6568c-.4018-1.6074.5755-3.2362 2.1829-3.6381 1.6073-.4018 3.2362.5755 3.638 2.1829l.7997 3.1989 2.0702-.1592c1.0217-.0786 2.0129.3698 2.6285 1.189.6155.8193.7704 1.896.4106 2.8555-.9711 2.5895-4.5579 8.1306-12.3772 8.9994-1.4924.1658-2.8776-.7973-3.2417-2.2541l-.6867-2.7464-2.7464.6866c-1.6074.4019-3.2362-.5754-3.638-2.1828-.4019-1.6074.5754-3.2362 2.1828-3.638l5.6569-1.4142c.3092-.0774.6193-.1036.9212-.0842-.342-.4365-.8954-.681-1.4737-.6117-3.7373.4484-5.5978-4.3912-2.5226-6.5618l.9775-.6899c1.5369-1.0849.7694-3.5033-1.1119-3.5033l-11.48716.0001c-3.33825 6.7317-2.20377 15.1179 3.40346 20.7251 7.0294 7.0295 18.4264 7.0295 25.4558 0 6.2206-6.2206 6.9364-15.8614 2.1474-22.8691-.3694 1.2384-1.5169 2.1412-2.8753 2.1412zm-19.7806-10c-.55228 0-1 .44772-1 1v6c0 .5523.44772 1 1 1h33c.5523 0 1-.4477 1-1v-6c0-.55228-.4477-1-1-1h-3.2697-8.7274-.0058-8.7274zm.344 6.416c0 .368.28.584.664.584h3.04c.296 0 .536-.232.536-.528s-.24-.536-.536-.536h-1.952l.912-.704c.992-.768 1.472-1.232 1.472-2.168v-.016c0-1.048-.768-1.728-1.928-1.728-.848 0-1.376.304-1.824.824-.088.104-.144.248-.144.384 0 .312.248.56.56.56.192 0 .336-.088.416-.176.312-.336.56-.488.912-.488.44 0 .752.256.752.728 0 .464-.272.776-.968 1.344l-1.592 1.304c-.208.168-.32.376-.32.616zm7.4672.048c0 .328.256.584.584.584s.592-.256.592-.584v-.672h.296c.28 0 .504-.216.504-.496s-.224-.504-.504-.504h-.296v-2.896c0-.328-.264-.584-.592-.584-.36 0-.536.144-.768.416l-2.432 2.824c-.184.216-.28801.416-.28801.672 0 .328.27201.568.60001.568h2.304zm-1.488-1.672 1.488-1.744v1.744zm4.4996.296h2.384c.312 0 .568-.256.568-.568s-.256-.568-.568-.568h-2.384c-.312 0-.568.256-.568.568s.256.568.568.568zm3.4106 1.328c0 .368.28.584.664.584h3.04c.296 0 .536-.232.536-.528s-.24-.536-.536-.536h-1.952l.912-.704c.992-.768 1.472-1.232 1.472-2.168v-.016c0-1.048-.768-1.728-1.928-1.728-.848 0-1.376.304-1.824.824-.088.104-.144.248-.144.384 0 .312.248.56.56.56.192 0 .336-.088.416-.176.312-.336.56-.488.912-.488.44 0 .752.256.752.728 0 .464-.272.776-.968 1.344l-1.592 1.304c-.208.168-.32.376-.32.616zm7.1124.68c1.216 0 2.136-.792 2.136-1.936v-.016c0-1.168-.856-1.784-1.968-1.784-.552 0-.88.176-1.16.36.08-.736.432-1.296 1.128-1.296.336 0 .568.08.824.224.088.048.2.088.304.088.32 0 .584-.248.584-.568 0-.248-.128-.416-.32-.528-.336-.2-.792-.336-1.352-.336-1.672 0-2.456 1.328-2.456 3.056v.016c0 1.112.256 1.712.664 2.12.392.392.888.6 1.616.6zm-.048-1.056c-.608 0-.976-.36-.976-.832v-.016c0-.472.352-.808.96-.808s.976.344.976.816v.016c0 .48-.352.824-.96.824zm4.2808.544c.112.312.344.504.64.504h.128c.296 0 .52-.184.632-.504l1.104-3.208 1.104 3.208c.112.32.336.504.632.504h.128c.296 0 .528-.192.64-.504l1.568-4.4c.024-.072.048-.168.048-.24 0-.336-.272-.592-.608-.592-.304 0-.512.2-.592.44l-1.112 3.432-1.12-3.4c-.096-.296-.312-.488-.624-.488h-.096c-.312 0-.528.2-.624.488l-1.12 3.4-1.112-3.432c-.08-.256-.312-.44-.6-.44-.344 0-.632.256-.632.6 0 .072.024.16.048.232zm9.5635 7.1734c.7811.781.7811 2.0473 0 2.8284-.781.781-2.0473.781-2.8284 0-.781-.7811-.781-2.0474 0-2.8284.7811-.7811 2.0474-.7811 2.8284 0zm1.4143 4.2426c-1.5621 1.5621-4.0948 1.5621-5.6569 0s-1.5621-4.0948 0-5.6569 4.0948-1.5621 5.6569 0c1.562 1.5621 1.562 4.0948 0 5.6569zm-4.1504 4.349c-.2052-.273-.5355-.4225-.8761-.3963l-2.9122.224c-.4862.0374-.9285-.2814-1.0468-.7545l-1.0046-4.0183c-.1339-.5358-.6769-.8615-1.2127-.7276-.5358.134-.8615.6769-.7276 1.2127l1.4142 5.6569c.1183.4731.5606.7919 1.0469.7545l.4692-.0361c.4214-.0324.8176.2036.9899.5895.1722.386.0832.8385-.2224 1.1305-1.1484 1.0974-2.7445 2.1391-4.8761 2.7007-.2586.0681-.5337.0299-.7638-.1063-.2302-.1361-.3963-.3587-.4611-.6182l-.9598-3.8391c-.1339-.5358-.6769-.8615-1.2127-.7276l-5.6568 1.4143c-.5358.1339-.8616.6768-.7276 1.2126.1339.5358.6769.8616 1.2127.7276l3.7165-.9291c.2573-.0643.5296-.0238.7571.1126.2274.1365.3913.3577.4556.615l.9291 3.7166c.1214.4856.5831.8066 1.0806.7513 6.8468-.7607 9.9293-5.5908 10.7254-7.7138.1199-.3198.0683-.6788-.1369-.9519z" fill="#333" fill-rule="evenodd"/></svg>