<svg fill="none" height="48" viewBox="0 0 48 48" width="48" xmlns="http://www.w3.org/2000/svg"><path clip-rule="evenodd" d="m2 7c0-1.65685 1.34315-3 3-3h21 11c1.6569 0 3 1.34315 3 3v2.71711c.0476.04664.0949.09355.1421.14075 7.8105 7.81044 7.8105 20.47374 0 28.28424s-20.4737 7.8105-28.2842 0c-5.98658-5.9865-7.38459-14.824-4.19405-22.1421h-2.66385c-1.65685 0-3-1.3431-3-3zm22.7806 9c.8974 1.6224.6729 3.8465-1.1596 5.1399l-.9774.6899c-1.3789.9733-.5447 3.1432 1.131 2.9422 1.7474-.2096 3.393.8659 3.9023 2.5506l1.5136 5.0065c.4016-.1671.7733-.3546 1.1166-.5562-.5837-.4027-1.0244-1.0109-1.2071-1.742l-1.4143-5.6568c-.4018-1.6074.5755-3.2362 2.1829-3.6381 1.6073-.4018 3.2362.5755 3.638 2.1829l.7997 3.1989 2.0702-.1592c1.0217-.0786 2.0129.3698 2.6285 1.189.6155.8193.7704 1.896.4106 2.8555-.9711 2.5895-4.5579 8.1306-12.3772 8.9994-1.4924.1658-2.8776-.7973-3.2417-2.2541l-.6867-2.7464-2.7464.6866c-1.6074.4019-3.2362-.5754-3.638-2.1828-.4019-1.6074.5754-3.2362 2.1828-3.638l5.6569-1.4142c.3092-.0774.6193-.1036.9212-.0842-.342-.4365-.8954-.681-1.4737-.6117-3.7373.4484-5.5978-4.3912-2.5226-6.5618l.9775-.6899c1.5369-1.0849.7694-3.5033-1.1119-3.5033l-11.48716.0001c-3.33825 6.7317-2.20377 15.1179 3.40346 20.7251 7.0294 7.0295 18.4264 7.0295 25.4558 0 6.5762-6.5762 7.0002-16.9748 1.2721-24.0439v.316c0 1.6569-1.3431 3-3 3zm9.9497-10h-8.7274-.0058-8.7274-12.2697c-.55228 0-1 .44772-1 1v6c0 .5523.44772 1 1 1h32c.5523 0 1-.4477 1-1v-6c0-.55228-.4477-1-1-1zm-27.2423 7.096c1.248 0 2.016-.776 2.016-1.832v-.016c0-1.04-.744-1.44-1.504-1.568l1.096-1.048c.224-.216.368-.384.368-.688 0-.336-.264-.544-.624-.544h-2.728c-.288 0-.528.24-.528.528s.24.528.528.528h1.72l-1.088 1.096c-.192.192-.264.336-.264.504 0 .288.24.528.528.528h.192c.688 0 1.096.256 1.096.712v.016c0 .416-.328.68-.792.68-.44 0-.776-.144-1.096-.416-.096-.08-.216-.152-.392-.152-.32 0-.592.272-.592.592 0 .176.096.344.208.44.456.392 1.056.64 1.856.64zm4.9528 0c1.216 0 2.1359-.792 2.1359-1.936v-.016c0-1.168-.8559-1.784-1.9679-1.784-.552 0-.88.176-1.16.36.08-.736.432-1.296 1.1279-1.296.3361 0 .5681.08.8241.224.088.048.1999.088.304.088.3199 0 .584-.248.584-.568 0-.248-.128-.416-.32-.528-.336-.2-.792-.336-1.352-.336-1.6721 0-2.456 1.328-2.456 3.056v.016c0 1.112.2559 1.712.6639 2.12.3921.392.8881.6 1.6161.6zm-.0481-1.056c-.608 0-.976-.36-.976-.832v-.016c0-.472.3521-.808.9601-.808s.976.344.976.816v.016c0 .48-.352.824-.9601.824zm3.3129-.952h2.384c.312 0 .568-.256.568-.568s-.256-.568-.568-.568h-2.384c-.312 0-.568.256-.568.568s.256.568.568.568zm5.4765 2.008c1.248 0 2.016-.776 2.016-1.832v-.016c0-1.04-.744-1.44-1.504-1.568l1.096-1.048c.224-.216.368-.384.368-.688 0-.336-.264-.544-.624-.544h-2.728c-.288 0-.528.24-.528.528s.24.528.528.528h1.72l-1.088 1.096c-.192.192-.264.336-.264.504 0 .288.24.528.528.528h.192c.688 0 1.096.256 1.096.712v.016c0 .416-.328.68-.792.68-.44 0-.776-.144-1.096-.416-.096-.08-.216-.152-.392-.152-.32 0-.592.272-.592.592 0 .176.096.344.208.44.456.392 1.056.64 1.856.64zm4.7607-.016c1.24 0 2.16-.608 2.16-1.648v-.016c0-.664-.336-1.024-.904-1.32.432-.264.712-.624.712-1.224v-.016c0-.864-.784-1.536-1.968-1.536s-1.968.68-1.968 1.536v.016c0 .6.28.96.712 1.224-.592.272-.904.672-.904 1.352v.016c0 .976.92 1.616 2.16 1.616zm0-3.392c-.488 0-.8-.296-.8-.688v-.016c0-.344.296-.648.8-.648s.8.312.8.656v.016c0 .392-.312.68-.8.68zm0 2.376c-.608 0-.968-.312-.968-.696v-.016c0-.432.408-.688.968-.688s.968.256.968.688v.016c0 .392-.36.696-.968.696zm4.1671.52c.112.312.344.504.64.504h.128c.296 0 .52-.184.632-.504l1.104-3.208 1.104 3.208c.112.32.336.504.632.504h.128c.296 0 .528-.192.64-.504l1.568-4.4c.024-.072.048-.168.048-.24 0-.336-.272-.592-.608-.592-.304 0-.512.2-.592.44l-1.112 3.432-1.12-3.4c-.096-.296-.312-.488-.624-.488h-.096c-.312 0-.528.2-.624.488l-1.12 3.4-1.112-3.432c-.08-.256-.312-.44-.6-.44-.344 0-.632.256-.632.6 0 .072.024.16.048.232zm10.0322 7.1734c.7811.781.7811 2.0473 0 2.8284-.781.781-2.0473.781-2.8284 0-.781-.7811-.781-2.0474 0-2.8284.7811-.7811 2.0474-.7811 2.8284 0zm1.4143 4.2426c-1.5621 1.5621-4.0948 1.5621-5.6569 0s-1.5621-4.0948 0-5.6569 4.0948-1.5621 5.6569 0c1.562 1.5621 1.562 4.0948 0 5.6569zm-4.1504 4.349c-.2052-.273-.5355-.4225-.8761-.3963l-2.9122.224c-.4862.0374-.9285-.2814-1.0468-.7545l-1.0046-4.0183c-.1339-.5358-.6769-.8615-1.2127-.7276-.5358.134-.8615.6769-.7276 1.2127l1.4142 5.6569c.1183.4731.5606.7919 1.0469.7545l.4692-.0361c.4214-.0324.8176.2036.9899.5895.1722.386.0832.8385-.2224 1.1305-1.1484 1.0974-2.7445 2.1391-4.8761 2.7007-.2586.0681-.5337.0299-.7638-.1063-.2302-.1361-.3963-.3587-.4611-.6182l-.9598-3.8391c-.1339-.5358-.6769-.8615-1.2127-.7276l-5.6568 1.4143c-.5358.1339-.8616.6768-.7276 1.2126.1339.5358.6769.8616 1.2127.7276l3.7165-.9291c.2573-.0643.5296-.0238.7571.1126.2274.1365.3913.3577.4556.615l.9291 3.7166c.1214.4856.5831.8066 1.0806.7513 6.8468-.7607 9.9293-5.5908 10.7254-7.7138.1199-.3198.0683-.6788-.1369-.9519z" fill="#333" fill-rule="evenodd"/></svg>