<svg fill="none" height="48" viewBox="0 0 48 48" width="48" xmlns="http://www.w3.org/2000/svg"><g clip-rule="evenodd" fill="#333" fill-rule="evenodd"><path d="m23.0074 7.08878c-.0332-.52491.0454-1.05082.231-1.54537.1856-.49454.4743-.94726.8483-1.33028s.8254-.68824 1.3264-.89687 1.0411-.31626 1.5869-.31626 1.0859.10763 1.5869.31626.9524.51385 1.3264.89687.6627.83574.8483 1.33028c.1856.49455.2642 1.02046.231 1.54537.004 1.02859-.4143 2.01699-1.1636 2.74967-.7493.73265-1.7689 1.15025-2.8364 1.16155-1.0662-.0113-2.0843-.4293-2.8312-1.16243-.7469-.73309-1.1619-1.72152-1.154-2.74879zm3.9852 1.911c.5549-.01124 1.0696-.23095 1.4381-.59132.3708-.36255.5637-.83561.5619-1.31192l-.0003-.06719.0043-.06706c.0153-.24162-.0207-.48499-.1074-.71614-.0869-.23135-.2239-.44837-.4068-.63574-.1832-.18756-.4085-.34129-.6643-.44783-.256-.10659-.5346-.16258-.8181-.16258s-.5621.05599-.8181.16258c-.2558.10654-.4811.26027-.6643.44783-.1829.18736-.3199.40438-.4068.63574-.0867.23115-.1227.47452-.1074.71614l.0045.0709-.0005.07104c-.0037.47362.1868.94466.5549 1.30595.3659.35915.878.57838 1.4303.5896z"/><path d="m25.5693 10.9393c-1.1946-.7192-2.6091-.9681-3.9744-.697l-.0098.002-.0099.0021c-1.1452.2515-1.963 1.0708-2.5456 1.8226-.3002.3874-.5672.7962-.8024 1.1682-.0703.1112-.1366.2172-.2.3185l-.0001.0003h-.0001v.0001c-.1548.2474-.2925.4675-.4301.6703l-2.7344 3.789-.0073.0102-.0071.0103c-.3364.4916-.478 1.0911-.4003 1.6805.0777.5896.3702 1.1323.8251 1.5187h-.0001l.0078.0065 4.937 4.1079.0064.0053.0064.0053c.247.1986.5299.3447.8314.4309-.4951 1.5166-1.3368 4.0026-2.1795 6.4693-.6923 2.0268-1.3811 4.0289-1.8492 5.3896-.3483 1.0123-.5744 1.6697-.5891 1.7181l-.3893 1.2891h1.3466 4.4093l.1449 2.9956c.007.62.2517 1.2167.6879 1.6611.4432.4515 1.0483.7087 1.6834.7087.635 0 1.2401-.2572 1.6833-.7087.4356-.4438.6802-1.0394.6878-1.6585l.1544-2.9144h3.9062 1v-1c0-.1477-.0585-1.0724-.1314-2.2246l-.0001-.001v-.0003c-.0335-.5291-.07-1.1062-.1053-1.678-.0573-.9303-.1132-1.871-.1522-2.6276-.0406-.7896-.0581-1.303-.0512-1.4371.0016-.0299.0161-.1247.2296-.3382.1033-.1034.2236-.2058.3741-.3318l.0305-.0255c.1319-.1104.2972-.2485.442-.3919l.008-.0079.0078-.0081c.6323-.6546 1.1564-1.4079 1.5529-2.2307l.0085-.0175.0077-.0178c.3336-.7669.5283-1.5883.5751-2.4248l.002-.0348-.0005-.035c-.0228-1.6405-.4541-3.2491-1.2547-4.675l-.264-.528-.0015-.0031c-.9808-1.9955-1.8871-3.3193-3.2232-5.0199-1.0955-1.7946-2.4972-3.3769-4.14-4.6717l-.0494-.0389zm-4.9587 2.3547c.494-.6376.942-.9915 1.3846-1.0921.8521-.1665 1.735-.018 2.4909.4203 1.4471 1.1505 2.6827 2.5552 3.648 4.1491l.0317.0524.0378.0481c1.2999 1.6513 2.1279 2.8618 3.0386 4.7155l.0031.0062.2781.5562.0113.0226.0125.0221c.6372 1.1279.9845 2.403 1.0084 3.7062-.0366.5824-.1729 1.1534-.4026 1.687-.3017.6214-.6977 1.1894-1.1729 1.6832-.0822.0804-.1861.1675-.3394.2958l-.0001.0001h-.0001l-.0024.0021c-.1452.1215-.3301.2767-.5044.4511-.3419.3419-.7731.8828-.8127 1.6493-.0137.2641.0134.9087.0512 1.643.0395.7672.0959 1.7163.1533 2.6479.0392.6347.079 1.2638.1144 1.823l.0001.0021v.0001l.0461.7298.0141.2258h-3.7964-.9484l-.0502.9472-.2057 3.8843-.0014.0264v.0265c0 .1113-.0436.2144-.1153.2875-.0712.0725-.1636.1097-.256.1097s-.1849-.0372-.2561-.1097c-.0717-.0731-.1153-.1762-.1153-.2875v-.0242l-.0012-.0241-.192-3.9682-.046-.9517h-.9528-3.9618l.3129-.9094c.4513-1.3118 1.0516-3.0583 1.6605-4.8409 1.0298-3.0148 2.1111-6.209 2.5143-7.5208.0025-.0115.0053-.0232.0085-.035.1679-.6218.4002-1.7287.4366-2.8132-.0222-1.3669-.2105-2.7259-.5609-4.046-.0895-.413-.1781-.8059-.265-1.1912-.119-.5273-.2347-1.0406-.3455-1.5725l-.4141-1.9889-1.3235 1.5412-2.8799 3.3534-.6665.776.791.6487 3.7866 3.1056c.1332.0573.2265.1897.2265.344 0 .1584-.0984.2939-.2375.3485-.0168.0083-.0301.0128-.0409.0157-.0148.004-.0363.008-.0687.0091-.0089.0006-.018.001-.0272.001-.1129 0-.2142-.0501-.2829-.1292l-4.8609-4.0447c-.0711-.0615-.1209-.1511-.1344-.2535-.0133-.1008.0104-.2014.0633-.2824l2.7331-3.7873.0081-.0112.0078-.0115c.1633-.24.3343-.5133.4999-.778l.0001-.0001c.0592-.0946.1176-.1881.1748-.2785.2272-.3594.4531-.7025.6929-1.012zm.6244 5.6903c.1162.4356.2125.8761.2885 1.32l-1.3943-1.1435.9095-1.059c.0633.282.1257.5618.1851.8362l.005.0233z"/></g></svg>