<svg fill="none" height="48" viewBox="0 0 48 48" width="48" xmlns="http://www.w3.org/2000/svg"><g clip-rule="evenodd" fill="#333" fill-rule="evenodd"><path d="m41 38h-34v-2h34z"/><path d="m42 36.0405c0-4.3984-10.9245-7.1701-18.5294-7.0358-7.2127.1273-17.4706 2.6374-17.4706 7.0358v5.9595h36zm-2 3.9595v-3.9595c0-.1991-.1197-.679-1.0426-1.3866-.8965-.6873-2.2678-1.356-4.0021-1.9335-3.454-1.1501-7.8597-1.7794-11.4494-1.716-3.4335.0606-7.5886.6937-10.8243 1.8076-1.6263.5599-2.89589 1.1994-3.71997 1.8558-.83206.6628-.96163 1.129-.96163 1.3727v3.9595z"/><path d="m38 34h-28v-2h28z"/><path d="m16 7c.5523 0 1 .44772 1 1v10h-2v-10c0-.55228.4477-1 1-1zm16 0c.5523 0 1 .44772 1 1v10h-2v-10c0-.55228.4477-1 1-1z"/><path d="m19.586 12.1009c-1.2319.2016-2.4869.407-3.586.407v-2c.9284 0 2.0252-.1789 3.316-.3895.0848-.0139.1705-.0279.2571-.0419 1.3622-.22163 2.8908-.45745 4.4269-.45745 1.5897 0 3.1512.23506 4.5216.45735.1278.0207.2534.0412.3768.0614 1.2433.2029 2.2676.3701 3.1016.3701v2c-1.0077 0-2.2022-.1958-3.3961-.3916-.1342-.022-.2685-.044-.4025-.0657-1.3696-.2222-2.7892-.4316-4.2014-.4316-1.3546 0-2.7359.2087-4.1058.4315-.1025.0167-.2053.0335-.3082.0504z"/><path d="m19.586 15.4818c-1.2319.2017-2.4869.4071-3.586.4071v-2c.9284 0 2.0252-.179 3.316-.3896.0848-.0138.1705-.0278.2571-.0419 1.3622-.2216 2.8908-.4574 4.4269-.4574 1.5897 0 3.1512.2351 4.5216.4573.1278.0208.2534.0413.3768.0614 1.2433.203 2.2676.3702 3.1016.3702v2c-1.0077 0-2.2022-.1959-3.3961-.3916-.1342-.022-.2685-.044-.4025-.0658-1.3696-.2221-2.7892-.4315-4.2014-.4315-1.3546 0-2.7359.2086-4.1058.4315-.1025.0166-.2053.0335-.3082.0503z"/><path d="m19.6033 8.5407c-1.2289.22635-2.4936.4593-3.6033.4593v-2c.9179 0 2.0055-.19959 3.3012-.43738.0833-.01529.1674-.03073.2524-.04628 1.3615-.24916 2.8991-.51634 4.4464-.51634 1.6007 0 3.1709.26622 4.541.51624.127.02317.2516.04605.374.06853 1.2474.22901 2.2617.41523 3.085.41523v2c-1.0184 0-2.2234-.22232-3.4147-.44211-.1347-.02485-.2692-.04967-.4033-.07413-1.3699-.24998-2.7809-.48376-4.182-.48376-1.3433 0-2.7157.23282-4.0864.48366-.1031.01887-.2065.03793-.3103.05704z"/><path d="m15 18c0 4.9706 4.0294 9 9 9s9-4.0294 9-9h-2c0 3.866-3.134 7-7 7s-7-3.134-7-7z"/></g></svg>