<svg fill="none" height="48" viewBox="0 0 48 48" width="48" xmlns="http://www.w3.org/2000/svg"><path clip-rule="evenodd" d="m35.2929 15.7071-1.2929-1.2929-3.0858 3.0858.7929.7929.7071.7071 1.2929 1.2929-1.4142 1.4142-1.2929-1.2929-5.8787 5.8787c-.9553.9554-2.3948 1.1317-3.5288.5289l-2.0776 2.0776c.1345.0654.2837.1006.437.1006h9.0481 1.2837.3021l2.7071-2.7071.2929-.2929h.4142 4c.8885 0 1.6868.3863 2.2361 1h.7639c1.6569 0 3 1.3432 3 3v6c0 1.6569-1.3431 3-3 3h-2-5c-1.4806 0-2.7733-.8044-3.4649-2h-14.2807c-1.6956 0-3.3335-.6154-4.6095-1.7319l-2.94772-2.5793-.47017.4978-1.45402-1.3732.41795-.4425-1.84944-1.6183-.3415-.2988v-.4538-15-2.8166l1.77611 2.186 8.05409 9.9128.4428-.4688 1.454 1.3732-.6246.6614 2.078 2.5575 1.9979-1.9979c-.6029-1.134-.4266-2.5735.5288-3.5289l5.8787-5.8787-1.2929-1.2929 1.4142-1.4142 1.2929 1.2929.7071.7071.7929.7929 3.0858-3.0858-1.2929-1.2929 1.4142-1.4142 4 4zm-18.5342 13.1201-2.0415-2.5125-4.6458 4.919 2.8905 2.5292c.9114.7975 2.0814 1.2371 3.2925 1.2371h13.7456 2c0 1.1046.8954 2 2 2h.9996c-.6277-.8356-.9996-1.8744-.9996-3v-2h1.1707c-.1105-.3128-.1707-.6493-.1707-1v-1h2v1c0 .5523.4477 1 1 1h1v-3c0-.5523-.4477-1-1-1h-3.5858l-2.7071 2.7071-.2929.2929h-.4142-.7163-1.2837-9.0481c-.6889 0-1.3498-.2367-1.8775-.6601l-1.6602 1.6602h-2.8284zm11.2413-11.413 1.5858 1.5858-2.0858 2.0858-1.5858-1.5858zm-14.555 7.3347-4.87982 5.1669-1.56518-1.3696v-11.7296zm28.555 11.2511c0 .5523-.4477 1-1 1h-2c-1.6569 0-3-1.3431-3-3v-.7639c.5308.4751 1.2316.7639 2 .7639h2 1v-1-4c.5523 0 1 .4477 1 1zm-17.5-15.0858-2.3787 2.3787c-.3905.3905-.3905 1.0237 0 1.4142l.1716.1716c.3905.3905 1.0237.3905 1.4142 0l2.3787-2.3787z" fill="#333" fill-rule="evenodd"/></svg>