<svg fill="none" height="48" viewBox="0 0 48 48" width="48" xmlns="http://www.w3.org/2000/svg"><path clip-rule="evenodd" d="m29.2499 9c0-1.65685 1.3432-3 3-3 1.6569 0 3 1.34315 3 3 0 1.6569-1.3431 3-3 3-1.6568 0-3-1.3431-3-3zm3-5c-2.7614 0-5 2.23858-5 5 0 2.3458 1.6155 4.3143 3.7946 4.8537l-2.7532.4589c-1.1046.1841-2.0544.8856-2.5551 1.8871l-2.4723 4.9445c-.434.868-.3264 1.9087.2759 2.6697l2.6987 3.4094-1.4386 4.7953c-.0595-.1392-.1326-.2749-.2196-.4053l-4-6c-.4637-.6955-1.2443-1.1133-2.0802-1.1133h-.9365c1.4472-.7481 2.4364-2.2585 2.4364-4 0-2.4853-2.0147-4.5-4.5-4.5s-4.5 2.0147-4.5 4.5c0 1.7415.9892 3.2519 2.4364 4h-.9365c-.8359 0-1.6165.4178-2.0801 1.1133l-4.00003 6c-.76588 1.1488-.45544 2.7009.69338 3.4668.906.604 2.06286.5386 2.88705-.0795v5.9994c0 1.3807 1.1193 2.5 2.5 2.5s2.5-1.1193 2.5-2.5v-4h.9999v4c0 1.3807 1.1193 2.5 2.5 2.5 1.3808 0 2.5-1.1193 2.5-2.5v-5.9991c.8242.6178 1.9809.6831 2.8868.0792.0391-.026.0772-.053.1143-.0808h1.2486 1.5v6c0 1.3807 1.1193 2.5 2.5 2.5s2.5-1.1193 2.5-2.5v-6h1v6c0 1.3807 1.1193 2.5 2.5 2.5s2.5-1.1193 2.5-2.5v-6h1.5 1.344l-.3862-1.2874-2.0965-6.9884c.0999-.1052.192-.2207.2748-.346l2.6999-4.0873c.4924-.7454.5497-1.6969.1501-2.496l-2.6999-5.3999c-.4909-.9817-1.5645-1.5284-2.6471-1.348l-.9259.1543c1.3762-.8907 2.2869-2.4393 2.2869-4.2006 0-2.76142-2.2386-5-5-5zm-5.6561 28.9993 1.1918-3.9726c.884.6393 2.1183.6436 3.0159-.0669.1604-.127.3012-.2697.4216-.4243.5948.0542 1.375.0361 2.1763-.1485.7058-.1626 1.4748-.4663 2.1431-1.0042.2336.0743.4739.1127.7133.1167l1.6499 5.4998h-1.1559-1v1 7c0 .2761-.2239.5-.5.5-.2762 0-.5-.2239-.5-.5v-7-1h-1-3-1v1 7c0 .2761-.2239.5-.5.5-.2762 0-.5-.2239-.5-.5v-7-1h-1zm7.4219-6.9827c-.3345-.7533-.2898-1.6561.1982-2.3949l.8545-1.2936c-.0907-.1188-.2046-.2123-.3323-.2785l-.442-.2288-2.8604-.9535-.6837-.2279-.0001-.7207-.0001-.919c0-.2762-.2239-.5-.5-.5-.2762.0001-.5.224-.5.5001l.0003 2c0 .2152.1377.4062.3419.4743l.6332.2111 2.2903.7634-2.1593 1.0797-.8351.4175 1.189 1.5022c.2658.3358.4316.7188.5015 1.113.3589.0082.7954-.0208 1.2388-.123.3853-.0887.7481-.2257 1.0653-.4214zm-6.2656-5.0166c.0001.6091.2207 1.1795.5974 1.6215-.207.1658-.3883.3562-.5413.5649l-.4506.6145.4729.5975 1.8134 2.2909c.1714.2165.1348.531-.0817.7024-.2165.1713-.531.1347-.7024-.0818l-3.7498-4.7373c-.1205-.1522-.142-.3604-.0552-.534l2.4722-4.9445c.2146-.4292.6217-.7298 1.0951-.8087l7.5976-1.2663c.2165-.0361.4312.0733.5294.2696l.4882.9763c-.3767-.1704-.7949-.2653-1.2352-.2653-1.6569 0-3 1.3432-3 3 0 .0965.0045.1919.0134.286l-.2636-.0879-.0001-.1984c-.0001-1.3807-1.1196-2.4998-2.5003-2.4997-1.3807.0002-2.4998 1.1196-2.4997 2.5003zm9.3047.8091c.9384-.3525 1.6534-1.1617 1.8741-2.1568l.5182 1.0363c.0799.1598.0684.3502-.03.4992l-2.7 4.0874c-.1522.2304-.4624.2938-.6928.1416s-.2938-.4624-.1416-.6928l1.1586-1.754.2484-.376-.1172-.4352c-.0317-.1179-.071-.2347-.1177-.3497zm-2.0547-2.8094c0-.5522.4477-1 1-1s1 .4478 1 1c0 .5523-.4477 1-1 1s-1-.4477-1-1zm-22.0001 1.5003c0-1.3807 1.1193-2.5 2.5-2.5s2.5 1.1193 2.5 2.5-1.1193 2.5-2.5 2.5-2.5-1.1193-2.5-2.5zm-.9161 6.2226c.0927-.1391.2488-.2226.416-.2226h6.0002c.1672 0 .3233.0835.4161.2226l4 6c.1531.2298.0911.5402-.1387.6934s-.5402.0911-.6934-.1387l-1.2519-1.8778-1.8321-2.7481v3.3028 9.0458c0 .2761-.2238.5-.5.5-.2761 0-.5-.2239-.5-.5v-5-1h-1-2.9999-1v1 5c0 .2761-.2238.5-.5.5-.2761 0-.5-.2239-.5-.5v-9.0463-3.3028l-1.832 2.7481-1.25228 1.8783c-.15317.2298-.46361.2919-.69337.1387s-.29185-.4636-.13868-.6934z" fill="#333" fill-rule="evenodd"/></svg>