<svg fill="none" height="48" viewBox="0 0 48 48" width="48" xmlns="http://www.w3.org/2000/svg"><g fill="#333"><path d="m16.8011 33.5987-.001.0013c-.3315.4413-.9584.5312-1.4.2-.4419-.3314-.5314-.9582-.2-1.4l.8.6c-.8-.6-.8003-.5997-.8-.6l.001-.0014.0014-.0018.0036-.0047.0104-.0137c.0085-.0111.02-.0258.0344-.044.0289-.0365.0696-.0868.1219-.1491.1045-.1246.2559-.2974.4521-.5022.3918-.4088.9673-.9503 1.712-1.4918 1.4854-1.0804 3.6876-2.1913 6.4632-2.1913 2.7755 0 4.9777 1.1109 6.4631 2.1913.7447.5415 1.3202 1.083 1.712 1.4918.1963.2048.3476.3776.4522.5022.0523.0623.093.1126.1218.1491l.0187.0238.0157.0202.0105.0137.0035.0047.0014.0018c.0002.0003.0011.0014-.7636.5749l.7647-.5735c.3313.4418.2418 1.0686-.2 1.4-.4412.3309-1.0668.2421-1.3985-.198l-.0007-.0009c-.0002-.0003-.0008-.0011.7992-.6011l-.8.6-.0011-.0013-.0179-.0229c-.0175-.0222-.0462-.0577-.0857-.1048-.079-.0942-.2011-.2339-.3642-.4041-.327-.3412-.814-.7997-1.4443-1.2582-1.2646-.9196-3.0624-1.8087-5.2868-1.8087-2.2245 0-4.0223.8891-5.2869 1.8087-.6303.4585-1.1173.917-1.4443 1.2582-.1631.1702-.2851.3099-.3642.4041-.0395.0471-.0681.0826-.0857.1048z"/><path d="m17.6286 20.0715c.5128-.2051 1.0948.0443 1.2999.5571s-.0443 1.0948-.5571 1.2999l-2.4994.9998-.0009.0003-2.4997.9999c-.5128.2051-1.0947-.0443-1.2999-.5571-.2051-.5128.0443-1.0947.5571-1.2999z"/><path d="m29.0715 20.6286c.2051-.5128.7871-.7622 1.2999-.5571l5 2c.5128.2052.7622.7871.5571 1.2999-.2052.5128-.7871.7622-1.2999.5571l-5-2c-.5128-.2051-.7622-.7871-.5571-1.2999z"/><path clip-rule="evenodd" d="m44 24c0 11.0457-8.9543 20-20 20s-20-8.9543-20-20 8.9543-20 20-20 20 8.9543 20 20zm-2 0c0 9.9411-8.0589 18-18 18s-18-8.0589-18-18 8.0589-18 18-18 18 8.0589 18 18z" fill-rule="evenodd"/></g></svg>