<svg fill="none" height="48" viewBox="0 0 48 48" width="48" xmlns="http://www.w3.org/2000/svg"><g fill="#333"><path clip-rule="evenodd" d="m16.6417 30.2284c.1721-.042.346-.0613.5179-.0593.2843.0033.5537.1275.7409.3414l6.0995 6.9709 6.0995-6.9709c.1872-.2139.4566-.3381.7409-.3414.1719-.002.3458.0173.5179.0593 2.7615.6736 5.6022 1.7099 7.7778 3.1385 2.1529 1.4136 3.8639 3.3598 3.8639 5.8829v4.7502c0 .5523-.4477 1-1 1h-36c-.55228 0-1-.4477-1-1v-4.7502c0-2.5231 1.71103-4.4693 3.86388-5.8829 2.17562-1.4286 5.01632-2.4649 7.77782-3.1385zm.1296 2.0289c-2.5229.6433-4.9802 1.5801-6.80966 2.7814-1.93544 1.2709-2.96164 2.6906-2.96164 4.2111v3.7502h34v-3.7502c0-1.5205-1.0262-2.9402-2.9616-4.2111-1.8295-1.2013-4.2868-2.1381-6.8098-2.7814l-6.476 7.4012c-.1899.217-.4642.3415-.7526.3415s-.5627-.1245-.7526-.3415z" fill-rule="evenodd"/><path d="m36 37s-2-1-3-2c-1 1-3 2-3 2s1.0474 4 3 4 3-4 3-4z"/><g clip-rule="evenodd" fill-rule="evenodd"><path d="m20.5 29c0-1.1046.8954-2 2-2h3c1.1046 0 2 .8954 2 2v1.382c0 .6668-.3317 1.2833-.8733 1.6525l.8539 4.2694-1.9612.3922-1-5c-.0884-.4422.13-.8889.5334-1.0905l.4472-.2236v-1.382h-3v1.5858l.7071.7071c.2418.2418.3433.5903.2691.924l-1 4.5-1.9524-.4338.8809-3.9642-.3189-.3189c-.3751-.3751-.5858-.8838-.5858-1.4142z"/><path d="m15 17v-2h2v2c0 3.866 3.134 7 7 7s7-3.134 7-7v-2h2v2c0 4.9706-4.0294 9-9 9s-9-4.0294-9-9z"/><path d="m24.1592 3.01274-.1592.98724-.1592-.98724.1592-.02568zm9.845 10.38476c.0213-.024.0433-.0492.066-.0756.2188-.254.5045-.6232.7887-1.1.5685-.9536 1.1411-2.35488 1.1411-4.12514 0-.70478-.4146-1.23587-.8036-1.58606-.403-.36287-.93-.67135-1.4839-.93613-1.1157-.53333-2.5618-.99166-3.9547-1.36335-1.404-.37468-2.8024-.67387-3.8463-.87897-.5229-.10274-.959-.1823-1.2652-.23629-.1531-.02701-.2738-.04765-.3568-.06161l-.0954-.01591-.0253-.00414-.0096-.00156c-.0002-.00003 0 0-.1592.98724-.1592-.98724-.159-.98727-.1592-.98724l-.0096.00156-.0253.00414-.0954.01591c-.083.01396-.2037.0346-.3568.06161-.3062.05399-.7423.13355-1.2652.23629-1.0439.2051-2.4423.50429-3.8463.87897-1.3929.37169-2.839.83002-3.9547 1.36335-.5539.26478-1.0809.57326-1.4839.93613-.389.35019-.8036.88129-.8036 1.58606 0 1.77012.5726 3.17134 1.1411 4.12494.2842.4768.5698.8461.7886 1.1002.0228.0264.0448.0515.0661.0755.0099.1317.03.2818.0667.4457.1234.5521.4274 1.2304 1.0947 1.8758 1.3137 1.2703 3.8873 2.2811 8.8428 2.2811s7.5291-1.0108 8.8428-2.2811c.6673-.6454.9713-1.3237 1.0947-1.8758.0367-.1639.0568-.3139.0667-.4456zm-2.3027.6025h-15.403c.067.09.1489.1843.249.2811.7546.7297 2.6809 1.7189 7.4525 1.7189s6.6979-.9892 7.4525-1.7189c.1001-.0968.182-.1911.249-.2811zm-16.2707-2h17.1384c.1548-.1814.3627-.4515.5719-.8023.4256-.714.8474-1.74586.8587-3.04744-.0172-.02595-.0569-.07696-.1415-.15318-.1985-.17871-.531-.38989-1.0083-.61806-.9468-.45255-2.2507-.87326-3.6078-1.23543-1.346-.3592-2.6976-.64872-3.7162-.84886-.5084-.09988-.9316-.17707-1.227-.22917-.1229-.02168-.2236-.039-.299-.05178-.0754.01278-.1761.0301-.299.05178-.2954.0521-.7186.12929-1.227.22917-1.0186.20014-2.3702.48966-3.7162.84886-1.3571.36217-2.661.78288-3.6078 1.23543-.4773.22817-.8098.43935-1.0083.61806-.0846.07622-.1243.12723-.1415.15318.0113 1.30141.4331 2.33324.8587 3.04734.2092.3509.4171.6209.5719.8024z"/></g><path d="m26 9c0 1.1046-.8954 2-2 2s-2-.8954-2-2c0-1.10457.8954-2 2-2s2 .89543 2 2z"/></g></svg>