<svg fill="none" height="48" viewBox="0 0 48 48" width="48" xmlns="http://www.w3.org/2000/svg"><g fill="#333"><path clip-rule="evenodd" d="m30.1715 30.4329c.236-.2866.6114-.4188.9749-.3435 2.5635.5312 5.1865 1.3374 7.195 2.444 1.9421 1.0701 3.6586 2.6228 3.6586 4.7645v3.7021c0 .5523-.4477 1-1 1h-34c-.55228 0-1-.4477-1-1v-3.7021c0-2.13 1.75055-3.6728 3.69161-4.7343 2.01669-1.1029 4.64049-1.9146 7.17309-2.4533.365-.0777.7428.0543.98.3424l6.1553 7.4742zm1.1567 1.7416-6.4445 7.8255h15.1163v-2.7021c0-.965-.7957-2.0055-2.6238-3.0128-1.6215-.8934-3.7884-1.6043-6.048-2.1106zm-8.2119 7.8255-6.426-7.803c-2.2356.513-4.4061 1.2283-6.039 2.1213-1.85208 1.0129-2.6513 2.046-2.6513 2.9796v2.7021z" fill-rule="evenodd"/><path d="m35 35.3333s-1.3333-.6667-2-1.3333c-.6667.6666-2 1.3333-2 1.3333s.6983 2.6667 2 2.6667 2-2.6667 2-2.6667z"/><g clip-rule="evenodd" fill-rule="evenodd"><path d="m20.5 31c0-1.1046.8954-2 2-2h3c1.1046 0 2 .8954 2 2v1.3819c0 .6669-.3317 1.2834-.8733 1.6525l.4986 2.4929-1.9612.3922-.6447-3.2234c-.0884-.4422.13-.8889.5334-1.0906l.4472-.2236v-1.3819h-3v1.3819l.4472.2236c.3986.1993.6172.6383.5361 1.0765l-.5556 3-1.9665-.3641.4216-2.277c-.5472-.3684-.8828-.9882-.8828-1.659z"/><path d="m18.6379 14.5h10.7242v2h-10.7242zm-1.5796 2.3977c.3211-.0918.6668-.0174.9216.1985.767.6498 2.4391 1.4038 6.0201 1.4038s5.2531-.754 6.0201-1.4038c.2548-.2159.6005-.2903.9216-.1985.321.0919.575.3379.677.6559.2479.7723.3813 1.5947.3813 2.4464 0 4.4183-3.5817 8-8 8s-8-3.5817-8-8c0-.8517.1334-1.6741.3813-2.4464.102-.318.356-.564.677-.6559zm.9651 2.5677c-.0155.176-.0234.3543-.0234.5346 0 3.3137 2.6863 6 6 6s6-2.6863 6-6c0-.1803-.0079-.3586-.0234-.5346-1.3373.6282-3.2514 1.0346-5.9766 1.0346s-4.6393-.4064-5.9766-1.0346z"/><path d="m24.1836 6.01695-.1836.98301-.1836-.98301.1836-.03428zm8.5901 9.91285c.2041-.2161.4631-.5307.7182-.9524.5188-.8573 1.0081-2.1355 1.0081-3.8807 0-.6486-.3324-1.16589-.6866-1.5351-.3575-.37274-.8252-.68947-1.3135-.95976-.9811-.54298-2.2461-1.00644-3.4547-1.37989-1.22-.37699-2.434-.67767-3.339-.88357-.4536-.10319-.832-.18313-1.0979-.23743-.133-.02716-.238-.04794-.3103-.06203l-.0834-.0161-.0223-.00423-.0087-.00164c-.0002-.00003 0 0-.1836.98301-.1836-.98301-.1834-.98304-.1836-.98301l-.0087.00164-.0223.00423-.0834.0161c-.0723.01409-.1773.03487-.3103.06203-.2659.0543-.6443.13424-1.0979.23743-.905.2059-2.119.50658-3.339.88357-1.2086.37345-2.4736.83691-3.4547 1.37989-.4883.27029-.956.58702-1.3135.95976-.3542.36921-.6866.8865-.6866 1.5351 0 1.745.4894 3.0233 1.008 3.8806.2552.4217.5142.7364.7183.9525.009.1153.0252.2445.0523.3847.1017.527.3561 1.199.939 1.8516 1.1679 1.3077 3.4567 2.3339 7.7824 2.3339s6.6145-1.0262 7.7824-2.3339c.5829-.6526.8373-1.3246.939-1.8516.0271-.1402.0433-.2693.0523-.3847zm-2.2359.5702h-13.0756c.064.1071.1449.2194.247.3338.6183.6923 2.2159 1.6662 6.2908 1.6662s5.6725-.9739 6.2908-1.6662c.1021-.1144.183-.2267.247-.3338zm-13.9095-2h14.7434c.1136-.1268.2599-.3114.4091-.5579.3431-.5671.7153-1.4838.7192-2.8242-.0089-.0206-.0391-.0772-.1298-.1718-.162-.1688-.4365-.3717-.8388-.5944-.8002-.44291-1.9102-.85848-3.0766-1.2189-1.155-.35688-2.316-.64491-3.1923-.84425-.437-.09943-.8008-.17625-1.0544-.22805-.0811-.01656-.1508-.03055-.2081-.04189-.0573.01134-.127.02534-.2081.04189-.2536.0518-.6174.12862-1.0544.22805-.8763.19934-2.0373.48737-3.1923.84425-1.1664.36042-2.2764.77599-3.0766 1.2189-.4023.2227-.6768.4256-.8388.5944-.0907.0946-.1209.1512-.1298.1718.0039 1.3402.3761 2.2569.7192 2.8241.1492.2465.2955.4312.4091.558zm-1.1315-3.3732s.0001-.0008.0007-.0023zm17.0064 0s-.0003-.0008-.0007-.0023z"/></g><path d="m25.5 11.5c0 .8284-.6716 1.5-1.5 1.5s-1.5-.6716-1.5-1.5c0-.8285.6716-1.50004 1.5-1.50004s1.5.67154 1.5 1.50004z"/></g></svg>