<svg fill="none" height="48" viewBox="0 0 48 48" width="48" xmlns="http://www.w3.org/2000/svg"><path clip-rule="evenodd" d="m19.7639 10c.5493-.61375 1.3476-1 2.2361-1s1.6868.38625 2.2361 1h-1.2361-1zm-.7639 2c0 1.6569 1.3431 3 3 3v-3zm5 0v3c0 .5523.4477 1 1 1h1v-4zm4 0v5 1h-1-2c-.913 0-1.7308-.4079-2.281-1.0513-.2348.0338-.4748.0513-.719.0513-2.7614 0-5-2.2386-5-5 0-2.76142 2.2386-5 5-5 2.0503 0 3.8124 1.2341 4.584 3h.416 1 1v2zm-17 8h-2c-1.10457 0-2 .8954-2 2v6c0 1.1046.89543 2 2 2h2c1.1046 0 2-.8954 2-2v-4-2c0-1.1046-.8954-2-2-2zm4 8v-4-2-1c0-.5523.4477-1 1-1v12c0 2.2091 1.7909 4 4 4h2c1.7774 0 3.2841-1.1593 3.8051-2.7631l1.6913.5638c-1.1352 3.0375-4.0644 5.1993-7.4964 5.1993-4.1271 0-7.5243-3.1252-7.9541-7.1381 1.7019-.4598 2.9541-2.0146 2.9541-3.8619zm8.9071 4.6043-3.6977-1.2326c-1.0208-.3403-1.7094-1.2956-1.7094-2.3717v-6c0-1.3807 1.1193-2.5 2.5-2.5s2.5 1.1193 2.5 2.5v4.1981l.5.1667v-5.3648c0-1.1046-.8954-2-2-2h-4v12c0 1.1046.8954 2 2 2h2c.894 0 1.6509-.5865 1.9071-1.3957zm-5.9071-14.6043h4c2.2091 0 4 1.7909 4 4v6.0314l3.3785 1.1262 5.234-2.1157.3537.8751 1.5139-1.5182 3.8858-3.8969 1.4163 1.4122-2.1846 2.1908h3.0906v2h-5.5-2.146l.3198.7912-3.5134 1.4202c.5886.6474.8195 1.5852.5231 2.4743-.4158 1.2474-1.7197 1.9489-2.9744 1.6358-1.3987 3.8348-5.0771 6.5736-9.3973 6.5736-5.1853 0-9.4489-3.9467-9.9506-9h-1.0494c-2.20914 0-4-1.7909-4-4v-6c0-2.2091 1.79086-4 4-4h-1c-.55228 0-1-.4477-1-1s.44772-1 1-1h4c.5523 0 1 .4477 1 1s-.4477 1-1 1h-1c1.0465 0 1.9991.4018 2.7119 1.0596.5503-.6482 1.3712-1.0596 2.2881-1.0596zm3 4.5c-.2761 0-.5.2239-.5.5v6c0 .2152.1377.4063.3419.4743l9 3c.262.0874.5451-.0542.6324-.3162.0874-.262-.0542-.5451-.3162-.6324l-7.9743-2.6582c-.4084-.1361-.6838-.5182-.6838-.9486v-4.9189c0-.2761-.2239-.5-.5-.5zm-9.7071-1.2071-1.2929 1.2929-1.29289-1.2929-1.41422 1.4142 1.2929 1.2929-1.2929 1.2929 1.41422 1.4142 1.29289-1.2929 1.2929 1.2929 1.4142-1.4142-1.2929-1.2929 1.2929-1.2929z" fill="#333" fill-rule="evenodd"/></svg>