<svg fill="none" height="48" viewBox="0 0 48 48" width="48" xmlns="http://www.w3.org/2000/svg"><g clip-rule="evenodd" fill="#333" fill-rule="evenodd"><path d="m19.9673 11.5073c-.9499 0-1.8178.5384-2.2398 1.3894l.8959.4442-.8959-.4442-3.4672 6.9922c-.4399.8871-.3147 1.9503.3192 2.7111l5 6c.8839 1.0607 2.4603 1.204 3.521.3201s1.204-2.4604.3201-3.5211l-.7682.6402.7682-.6402-4.3742-5.249-1.5365 1.2803 4.3743 5.2491c.1768.2122.1481.5274-.064.7042-.2122.1768-.5275.1481-.7043-.064l-5-6c-.1267-.1521-.1518-.3648-.0638-.5422l3.4672-6.9922c.0844-.1702.258-.2779.448-.2779z"/><path d="m31.3258 14.4276c.6569.6563 1.2072 1.6158 1.2072 2.8887 0 1.8726-.6117 3.1247-1.2643 3.8973-.1364.1614-.275.3024-.4108.424v-5.8626h-2v27.094c0 .3467-.2879.6345-.6346.6345s-.6346-.2878-.6346-.6345v-11.652h-2v11.652c0 1.4513 1.1833 2.6345 2.6346 2.6345s2.6346-1.1832 2.6346-2.6345v-18.8642c.1573-.0681.3114-.1476.4585-.2337.4866-.2847 1.005-.7045 1.48-1.2668.9602-1.1365 1.7366-2.8468 1.7366-5.188 0-1.9029-.8378-3.3487-1.7937-4.3036-.4753-.4749-.9885-.8382-1.4633-1.0873-.4438-.2328-.9562-.4195-1.4181-.4195h-9.9344l-.0003 2h9.9347c-.0017 0-.0001.0003.0045.0012.0308.006.198.039.4844.1893.2985.1566.6479.4004.979.7312zm-11.2754 28.4414v-16.369h-2v16.369c0 1.4513 1.1833 2.6345 2.6346 2.6345s2.6346-1.1832 2.6346-2.6345v-11.652h-2v11.652c0 .3467-.2879.6345-.6346.6345s-.6346-.2878-.6346-.6345z"/><path d="m24.4672 4.49658c-1.6564 0-3 1.34355-3 3.00181s1.3436 3.00181 3 3.00181c1.6565 0 3.0001-1.34355 3.0001-3.00181s-1.3436-3.00181-3.0001-3.00181zm-5 3.00181c0-2.76202 2.2382-5.00181 5-5.00181 2.7619 0 5.0001 2.23979 5.0001 5.00181 0 2.76201-2.2382 5.00181-5.0001 5.00181-2.7618 0-5-2.2398-5-5.00181z"/><path d="m21.4999 28c.8285 0 1.5-.6716 1.5-1.5 0-.3941-.152-.7528-.4006-1.0205.5654-.3058 1.2128-.4795 1.9007-.4795 2.2091 0 4 1.7909 4 4s-1.7909 4-4 4-4-1.7909-4-4c0-.4308.0681-.8458.1942-1.2346.2327.1485.5092.2346.8057.2346zm5.0001 1c0 1.1046-.8954 2-2 2s-2-.8954-2-2 .8954-2 2-2 2 .8954 2 2z"/></g></svg>