<svg fill="none" height="48" viewBox="0 0 48 48" width="48" xmlns="http://www.w3.org/2000/svg"><g clip-rule="evenodd" fill="#333" fill-rule="evenodd"><path d="m22.8499 3.55467c-.9288-1.02165-2.5099-1.09694-3.5316-.16818l-5.5 4.99999c-1.0127.92065-1.0968 2.48452-.1888 3.50852l3.9537 4.4586v25.7756c0 1.4513 1.1832 2.6346 2.6345 2.6346s2.6346-1.1833 2.6346-2.6346v-11.1728h2.2692v11.1728c0 1.4513 1.1832 2.6346 2.6345 2.6346s2.6346-1.1833 2.6346-2.6346v-17.3851c.1573-.0681.3114-.1476.4585-.2337.4866-.2847 1.005-.7045 1.4801-1.2668.9601-1.1365 1.7365-2.8468 1.7365-5.1879 0-1.903-.8378-3.3487-1.7936-4.3037-.4754-.4749-.9886-.8382-1.4634-1.0873-.4438-.2328-.9562-.4195-1.4181-.4195h-7.8267c-.0421 0-.0841.0006-.1259.0019h-.8135l-1.6157-1.8219 3.6729-3.339c1.0216-.92877 1.0969-2.50989.1682-3.53153zm-2.1862 1.3117c.2043-.18575.5205-.17069.7063.03364.1857.20433.1707.52055-.0336.70631l-4.4038 4.00337-.7308.66441.6553.739 2.5694 2.8975.2984.3365h.4498 1.2799.0179l.0179-.0006c.0243-.0009.0488-.0013.0735-.0013h7.8267c-.0016 0-.0001.0003.0045.0012.0308.0061.198.0391.4844.1894.2985.1566.648.4004.979.7311.657.6563 1.2072 1.6158 1.2072 2.8888 0 1.8725-.6116 3.1247-1.2643 3.8972-.1356.1605-.2733.3007-.4083.4219v-6.1549h-2v6.7607h-.0025v1 18.1486c0 .3468-.2878.6346-.6346.6346-.3467 0-.6345-.2878-.6345-.6346v-12.1728-1h-1-4.2692-1v1 12.1728c0 .3468-.2878.6346-.6346.6346-.3467 0-.6345-.2878-.6345-.6346v-25.884c0-.0686.0033-.1361.0098-.2024l.0546-.5586-.4484-.3376c-.0263-.0199-.0509-.0425-.0733-.0677l-4-4.5108c-.1816-.2048-.1648-.5176.0378-.70174z"/><path d="m24.0001 11c1.6568 0 3-1.34315 3-3s-1.3432-3-3-3c-.551 0-1.0674.14856-1.5111.4078.0902-.31452.1059-.62333.0111-.9078-.1586-.47565-.4795-.75753-.8506-.91414.7007-.37391 1.5009-.58586 2.3506-.58586 1.5549 0 2.944.70978 3.8611 1.82301-.1773.26515-.3631.58014-.5166.92333-.1997.44666-.3445.94107-.3445 1.43548 0 1.00415.6715 1.81818 1.5 1.81818.1435 0 .2822-.02442.4136-.07003-.4358 2.31703-2.47 4.07003-4.9136 4.07003-2.3034 0-4.243-1.5576-4.8231-3.67691l1.3231-1.32309c.1588-.12705.3443-.28922.5377-.47681-.0248.15529-.0377.31454-.0377.47681 0 1.65685 1.3431 3 3 3z"/><path d="m28.5 8c.2423 0 .5-.21008.5-.54545 0-.33765-.1695-.8101-.5-1.34901-.3305.53891-.5 1.01136-.5 1.34901 0 .33537.2577.54545.5.54545zm-1.3271-3.50352c.0106-.01448.0211-.02889.0317-.04322.6397-.86912 1.2954-1.45326 1.2954-1.45326s.6557.58414 1.2954 1.45326c.0106.01433.0211.02874.0317.04322.5982.82238 1.1729 1.89022 1.1729 2.95807 0 1.40581-1.1193 2.54545-2.5 2.54545s-2.5-1.13964-2.5-2.54545c0-1.06785.5747-2.13569 1.1729-2.95807z"/></g></svg>