<svg fill="none" height="48" viewBox="0 0 48 48" width="48" xmlns="http://www.w3.org/2000/svg"><g clip-rule="evenodd" fill="#333" fill-rule="evenodd"><path d="m10.9517 12.1026c2.086-2.49507 4.8743-4.38276 8.061-5.35919.3676-.98307 1.001-1.83624 1.8096-2.47876-5.1238.86271-9.5513 3.77632-12.40916 7.86745.15781-.0195.31824-.0295.48061-.0295zm-3.59271 7.4056c-.69919-.2989-1.29777-.7958-1.71702-1.4236-.41874 1.5679-.64197 3.2156-.64197 4.9155 0 5.8498 2.64365 11.0821 6.8014 14.5675l.6209-2.1193c-3.33577-3.1038-5.4223-7.5324-5.4223-12.4482 0-1.1969.12369-2.3649.35899-3.4919zm12.05421 19.8659-.5228 1.2391c-.0276.2245-.0746.4425-.1391.6526 1.667.4782 3.428.7343 5.2487.7343s3.5817-.2561 5.2487-.7343c-.0645-.2101-.1115-.4281-.1391-.6526l-.5228-1.2391c-1.4591.4079-2.9975.626-4.5868.626s-3.1277-.2181-4.5868-.626zm16.1645-3.9258.6209 2.1193c4.1577-3.4854 6.8014-8.7177 6.8014-14.5675 0-1.6999-.2232-3.3476-.642-4.9155-.4192.6278-1.0178 1.1247-1.717 1.4236.2353 1.127.359 2.295.359 3.4919 0 4.9158-2.0865 9.3444-5.4223 12.4482zm1.4706-23.3457h2.0579c.1624 0 .3228.01.4807.0295-2.6389-3.77765-6.6161-6.55131-11.244-7.6334.7644.68898 1.344 1.57815 1.6488 2.58738 2.7683 1.0428 5.1928 2.78722 7.0566 5.01652z"/><path d="m24.4443 4c-2.6183 0-4.7875 2.1046-4.7875 4.71967 0 1.99203 1.2587 3.68783 3.0158 4.38283h-5.915c.5582.5314.9631 1.2225 1.1413 2h21.2073c.5064 0 .8938.4062.8938.8598 0 .4537-.3874.8598-.8938.8598h-10.7764-1.335l.3753 1.2812.7007 2.3918c.5721-.3155 1.2297-.4951 1.9292-.4951h.0099l-.3451-1.1779h9.4414c1.5768 0 2.8938-1.2676 2.8938-2.8598 0-1.5921-1.317-2.8598-2.8938-2.8598h-12.8901c1.7571-.695 3.0157-2.3908 3.0157-4.38283 0-2.61506-2.1692-4.71967-4.7875-4.71967zm9.4156 36.2552-3.5929-12.264c.6972-.0459 1.3456-.2705 1.8999-.6284l3.661 12.4962.0404.1377v.1435c0 1.5921-1.3171 2.8598-2.8938 2.8598-1.2618 0-2.1967-.9476-2.8388-1.8689-.6812-.9775-1.2657-2.2596-1.7614-3.5424-.5-1.2937-.9322-2.649-1.2912-3.7968l-.1177-.3768c-.1954-.6261-.3616-1.1585-.5029-1.5741h-1.633c-.2424-.8021-.73-1.4978-1.3755-2h.7456 2.9581.6634l.2579.6113c.2216.5253.4916 1.3915.7904 2.3501l.1225.3924c.3586 1.1464.7739 2.4463 1.2479 3.673.4783 1.2377.9943 2.3415 1.5367 3.1198.5815.8343.9934 1.0124 1.198 1.0124.4631 0 .8267-.3397.8854-.7448zm-16.0997-3.3874c.135-.3492.2651-.7044.3906-1.0603.478.485 1.0788.8486 1.7521 1.0402-.0899.248-.1823.4956-.2772.741-.4957 1.2828-1.0802 2.5649-1.7614 3.5424-.6421.9213-1.577 1.8689-2.8388 1.8689-1.5767 0-2.8937-1.2677-2.8937-2.8598v-.1435l.0403-.1377 6.1631-21.0369h-1.5005c.5359-.5382.9195-1.2283 1.0807-2h1.7548 1.335l-.3753 1.2812-6.4898 22.1519c.0587.4051.4223.7448.8854.7448.2046 0 .6165-.1781 1.198-1.0124.5424-.7783 1.0584-1.8821 1.5367-3.1198zm-6.5949-18.0457c-.5359-.5382-.9195-1.2283-1.0807-2h-1.19085c-.50639 0-.89375-.4061-.89375-.8598 0-.4536.38736-.8598.89375-.8598h1.20735c.1782-.7775.5831-1.4686 1.1413-2h-2.34865c-1.57673 0-2.89375 1.2677-2.89375 2.8598 0 1.5922 1.31702 2.8598 2.89375 2.8598zm10.4915-10.10243c0-1.47657 1.2396-2.71967 2.7875-2.71967 1.548 0 2.7875 1.2431 2.7875 2.71967 0 1.47653-1.2395 2.71963-2.7875 2.71963-1.5479 0-2.7875-1.2431-2.7875-2.71963z"/><path d="m14 18c1.1046 0 2-.8954 2-2s-.8954-2-2-2-2 .8954-2 2 .8954 2 2 2zm0 2c2.2091 0 4-1.7909 4-4s-1.7909-4-4-4-4 1.7909-4 4 1.7909 4 4 4z"/><path d="m30 26c1.1046 0 2-.8954 2-2s-.8954-2-2-2-2 .8954-2 2 .8954 2 2 2zm0 2c2.2091 0 4-1.7909 4-4s-1.7909-4-4-4-4 1.7909-4 4 1.7909 4 4 4z"/><path d="m21 35c1.1046 0 2-.8954 2-2s-.8954-2-2-2-2 .8954-2 2 .8954 2 2 2zm0 2c2.2091 0 4-1.7909 4-4s-1.7909-4-4-4-4 1.7909-4 4 1.7909 4 4 4z"/></g></svg>