<svg fill="none" height="48" viewBox="0 0 48 48" width="48" xmlns="http://www.w3.org/2000/svg"><g clip-rule="evenodd" fill="#333" fill-rule="evenodd"><path d="m18.3914 14.6872c-.3756-.3867-.9126-.6872-1.8667-.6872-.3182 0-.7765.134-1.3949.6538-.6249.5251-1.2985 1.3527-1.9819 2.4848-1.3652 2.2615-2.5694 5.4013-3.47466 8.7223-.90177 3.3083-1.47268 6.6699-1.62944 9.3197-.0788 1.3319-.04841 2.413.06844 3.188.05837.3871.13017.6412.18938.7891.00608.0152.01164.0283.01661.0395.95945.73 2.59767 1.022 4.63267.6274 2.0584-.3992 4.0766-1.4289 5.3547-2.7035.4436-.4424.8406-1.1725 1.1371-2.2612.2932-1.0761.4502-2.3611.5169-3.7614.0663-1.3927.0409-2.8325-.0039-4.2077-.0123-.3772-.0263-.7556-.0402-1.1284-.0351-.9468-.0689-1.8568-.0689-2.6168 0-.2579.0025-.531.0052-.816.0152-1.6474.0341-3.6897-.4108-5.4647-.2542-1.0139-.6162-1.7315-1.0496-2.1777zm-10.04612 24.564c-.00003 0-.00095-.0014-.00269-.0044.00185.0028.00271.0043.00269.0044zm13.50692-16.8509c.0378-3.5287.1114-10.4003-5.3275-10.4003-7.45057 0-12.77248 26.0065-9.57934 28.6602s9.57934 1.0615 12.77254-2.123c2.578-2.571 2.3549-8.5786 2.1948-12.8912-.0345-.9293-.0661-1.7799-.0661-2.5004 0-.2259.0027-.4758.0056-.7453z"/><path d="m29.6086 14.6872c.3756-.3867.9126-.6872 1.8667-.6872.3182 0 .7765.134 1.3949.6538.6249.5251 1.2985 1.3527 1.9819 2.4848 1.3652 2.2615 2.5694 5.4013 3.4747 8.7223.9017 3.3083 1.4726 6.6699 1.6294 9.3197.0788 1.3319.0484 2.413-.0684 3.188-.0584.3871-.1302.6412-.1894.7891-.0061.0152-.0117.0283-.0166.0395-.9595.73-2.5977 1.022-4.6327.6274-2.0584-.3992-4.0766-1.4289-5.3547-2.7035-.4436-.4424-.8406-1.1725-1.1371-2.2612-.2932-1.0761-.4502-2.3611-.5169-3.7614-.0663-1.3927-.0409-2.8325.0039-4.2077.0123-.3772.0263-.7556.0402-1.1284.0351-.9468.0689-1.8568.0689-2.6168 0-.2579-.0025-.531-.0052-.816-.0152-1.6474-.0341-3.6897.4108-5.4647.2542-1.0139.6162-1.7315 1.0496-2.1777zm10.0461 24.564c.0001 0 .001-.0014.0027-.0044-.0018.0028-.0027.0043-.0027.0044zm-13.5069-16.8509c-.0378-3.5287-.1114-10.4003 5.3275-10.4003 7.4506 0 12.7725 26.0065 9.5793 28.6602-3.1931 2.6537-9.5793 1.0615-12.7725-2.123-2.578-2.571-2.3549-8.5786-2.1948-12.8912.0345-.9293.0661-1.7799.0661-2.5004 0-.2259-.0027-.4758-.0056-.7453z"/><path d="m23 6.00013c0-.00009 0-.00013 1-.00013s1 .00004 1 .00013v14.49987c0 2.1023-.936 3.3079-1.9962 3.9263-.4974.2901-.986.431-1.3442.5006-.1811.0352-.3347.0534-.4477.0628-.0567.0047-.1037.0073-.1394.0087-.0179.0007-.033.0011-.0451.0013l-.016.0002-.0063.0001h-.0027-.0013c-.0006 0-.0011 0-.0011-1s-.0006-1-.0012-1h-.001-.0019-.003l-.0032.0001s.0016-.0001.0051-.0002c.0082-.0003.0257-.0012.051-.0033.0511-.0042.1318-.0134.232-.0329.2043-.0397.4657-.1176.7183-.265.4398-.2566 1.0039-.801 1.0039-2.1987z"/><path d="m25 6.00013c0-.00009 0-.00013-1-.00013s-1 .00004-1 .00013v14.49987c0 2.1023.936 3.3079 1.9962 3.9263.4974.2901.986.431 1.3442.5006.1811.0352.3347.0534.4477.0628.0567.0047.1037.0073.1394.0087.0179.0007.033.0011.0451.0013l.016.0002.0063.0001h.0027.0013c.0006 0 .0011 0 .0011-1s.0006-1 .0012-1h.001.0019.003l.0032.0001s-.0016-.0001-.0051-.0002c-.0082-.0003-.0257-.0012-.051-.0033-.0511-.0042-.1318-.0134-.232-.0329-.2043-.0397-.4657-.1176-.7183-.265-.4398-.2566-1.0039-.801-1.0039-2.1987z"/><path d="m33.5 19c.2761 0 .5-.2239.5-.5s-.2239-.5-.5-.5-.5.2239-.5.5.2239.5.5.5zm0 2c1.3807 0 2.5-1.1193 2.5-2.5s-1.1193-2.5-2.5-2.5-2.5 1.1193-2.5 2.5 1.1193 2.5 2.5 2.5z"/><path d="m32.5 31c.2761 0 .5-.2239.5-.5s-.2239-.5-.5-.5-.5.2239-.5.5.2239.5.5.5zm0 2c1.3807 0 2.5-1.1193 2.5-2.5s-1.1193-2.5-2.5-2.5-2.5 1.1193-2.5 2.5 1.1193 2.5 2.5 2.5z"/><path d="m38.5 29c.2761 0 .5-.2239.5-.5s-.2239-.5-.5-.5-.5.2239-.5.5.2239.5.5.5zm0 2c1.3807 0 2.5-1.1193 2.5-2.5s-1.1193-2.5-2.5-2.5-2.5 1.1193-2.5 2.5 1.1193 2.5 2.5 2.5z"/><path d="m31 25c.5523 0 1-.4477 1-1s-.4477-1-1-1-1 .4477-1 1 .4477 1 1 1zm0 2c1.6569 0 3-1.3431 3-3s-1.3431-3-3-3-3 1.3431-3 3 1.3431 3 3 3z"/></g></svg>