<svg fill="none" height="48" viewBox="0 0 48 48" width="48" xmlns="http://www.w3.org/2000/svg"><g clip-rule="evenodd" fill="#333" fill-rule="evenodd"><path d="m23.3931 28.9299c.5523 0 1 .4477 1 1v10c0 .5523-.4477 1-1 1s-1-.4477-1-1v-10c0-.5523.4477-1 1-1z"/><path d="m19.3931 36.9299c0-.5523.4477-1 1-1h6c.5523 0 1 .4477 1 1s-.4477 1-1 1h-6c-.5523 0-1-.4477-1-1z"/><path d="m23.3931 14.9287c-3.866 0-7 3.134-7 7s3.134 7 7 7 7-3.134 7-7-3.134-7-7-7zm0-2c-4.9706 0-9 4.0294-9 9s4.0294 9 9 9c4.9705 0 9-4.0294 9-9s-4.0295-9-9-9z"/><path d="m29.1182 16.7049c-.3893-.3918-.3873-1.0249.0045-1.4142l7.5832-7.53567c.3918-.38929 1.0249-.3873 1.4142.00446.3893.39175.3873 1.02491-.0044 1.4142l-7.5833 7.53561c-.3917.3893-1.0249.3873-1.4142-.0044z"/><path d="m35.7027 15.8272c-.3905.3905-1.0237.3905-1.4142 0l-4.2426-4.2426c-.3906-.3906-.3906-1.0237 0-1.4143.3905-.39048 1.0236-.39048 1.4142 0l4.2426 4.2427c.3905.3905.3905 1.0237 0 1.4142z"/><path d="m37.875 13c-.5523 0-1-.4477-1-1v-3h-3c-.5523 0-1-.44772-1-1s.4477-1 1-1h4c.5523 0 1 .44772 1 1v4c0 .5523-.4477 1-1 1z"/><path d="m11.1713 8.29714 6.9958 6.99576c.3905.3905.3905 1.0237 0 1.4142-.3906.3905-1.0237.3905-1.4142 0l-6.99577-6.99574c-.39052-.39053-.39052-1.02369 0-1.41422.39057-.39052 1.02367-.39052 1.41417 0z"/><path d="m15 8.53992c0 .55228-.4477 1-1 1h-3v2.99998c0 .5523-.4477 1-1 1-.55228 0-1-.4477-1-1v-3.99998c0-.55229.44772-1 1-1h4c.5523 0 1 .44771 1 1z"/></g></svg>