<svg fill="none" height="48" viewBox="0 0 48 48" width="48" xmlns="http://www.w3.org/2000/svg"><g clip-rule="evenodd" fill="#333" fill-rule="evenodd"><path d="m22.8585 9c1.2458 0 2.2692 1.0234 2.2692 2.2691 0 1.2458-1.0234 2.2692-2.2692 2.2692-1.2457 0-2.2691-1.0234-2.2691-2.2692 0-1.2457 1.0234-2.2691 2.2691-2.2691zm4.2692 2.2691c0-2.35027-1.9188-4.2691-4.2692-4.2691-2.3503 0-4.2691 1.91883-4.2691 4.2691 0 2.3504 1.9188 4.2692 4.2691 4.2692 2.3504 0 4.2692-1.9188 4.2692-4.2692z"/><path d="m29.3971 15.3384c-.1899-.2152-.463-.3384-.7499-.3384h-10.6924v2h10.2412l5.6756 6.4324c.4622.5239.4002 1.3261-.1371 1.7727-.5272.4382-1.3101.365-1.747-.1634l-3.2547-3.9371c-.1082-.4355-.5017-.7582-.9706-.7582-.5523 0-1 .4477-1 1v17.7115c0 .3467-.2878.6345-.6346.6345-.3467 0-.6345-.2878-.6345-.6345v-8.1729c0-.5523-.4477-1-1-1h-3.2692c-.5523 0-1 .4477-1 1v8.1729c0 .3467-.2878.6345-.6346.6345-.3467 0-.6345-.2878-.6345-.6345v-15.0579h-2v15.0579c0 1.4513 1.1832 2.6345 2.6345 2.6345s2.6346-1.1832 2.6346-2.6345v-7.1729h1.2692v7.1729c0 1.4513 1.1832 2.6345 2.6345 2.6345s2.6346-1.1832 2.6346-2.6345v-14.7788l1.6838 2.0369c1.142 1.3814 3.1887 1.5728 4.567.4271 1.4045-1.1674 1.5666-3.2645.3583-4.6339z"/><path d="m24.8571 26.3442c.2772-.5545.0875-1.2289-.4383-1.5575l-6.3017-3.9387c-.4683-.2927-.6107-.9096-.318-1.378.2927-.4683.9097-.6107 1.378-.318l6.3018 3.9387c1.4.8751 1.9054 2.6711 1.1671 4.1478-.8557 1.7115-3.0112 2.2956-4.6139 1.2504l-6.5529-4.2736c-2.0737-1.3523-2.8337-4.0281-1.8136-6.2724.8099-1.7819 2.593-2.9428 4.5575-2.9427l4.9242.0004-.0001 2-4.9242-.0004c-1.1729-.0001-2.2483.6959-2.7366 1.7703-.6155 1.3541-.1519 2.9628 1.0853 3.7696l6.5529 4.2736c.6018.3924 1.4112.1731 1.7325-.4695z"/><path d="m19.3018 24.9661 6-9.5 1.6909 1.068-6 9.4999z"/><path d="m30.1472 30c0-1.6569 1.3432-3 3-3 1.6569 0 3 1.3431 3 3v11c0 .5523-.4477 1-1 1s-1-.4477-1-1v-11c0-.5523-.4477-1-1-1s-1 .4477-1 1v.5c0 .5523-.4477 1-1 1s-1-.4477-1-1z"/></g></svg>