<svg fill="none" height="48" viewBox="0 0 48 48" width="48" xmlns="http://www.w3.org/2000/svg"><g clip-rule="evenodd" fill="#333" fill-rule="evenodd"><path d="m31.7112 9c1.2457 0 2.2691 1.0234 2.2691 2.2691 0 1.2458-1.0234 2.2692-2.2691 2.2692s-2.2692-1.0234-2.2692-2.2692c0-1.2457 1.0235-2.2691 2.2692-2.2691zm4.2691 2.2691c0-2.35027-1.9188-4.2691-4.2691-4.2691s-4.2692 1.91883-4.2692 4.2691c0 2.3504 1.9189 4.2692 4.2692 4.2692s4.2691-1.9188 4.2691-4.2692z"/><path d="m38.0829 18.0955c.6569.6564 1.2071 1.6159 1.2071 2.8888 0 1.8726-.6116 3.1247-1.2643 3.8972-.1363.1615-.2749.3024-.4107.4241v-5.8626h-2v19.6149c0 .3467-.2879.6345-.6346.6345s-.6346-.2878-.6346-.6345v-9.1729h-5.2691v9.1729c0 .3467-.2879.6345-.6346.6345s-.6346-.2878-.6346-.6345v-20.6149h-9.1729c-.3467 0-.6345-.2879-.6345-.6346s.2878-.6346.6345-.6346h17.9804c-.0017 0-.0001.0003.0045.0012.0307.0061.1979.0391.4844.1894.2985.1566.6479.4004.979.7311zm-.4679 9.5773c.1573-.0682.3114-.1476.4585-.2337.4866-.2848 1.005-.7046 1.48-1.2669.9601-1.1365 1.7365-2.8468 1.7365-5.1879 0-1.903-.8378-3.3487-1.7936-4.3036-.4753-.4749-.9885-.8383-1.4634-1.0874-.4437-.2328-.9561-.4195-1.418-.4195h-17.9804c-1.4513 0-2.6345 1.1833-2.6345 2.6346s1.1832 2.6346 2.6345 2.6346h7.1729v18.6149c0 1.4513 1.1833 2.6345 2.6346 2.6345s2.6346-1.1832 2.6346-2.6345v-7.1729h1.2691v7.1729c0 1.4513 1.1833 2.6345 2.6346 2.6345s2.6346-1.1832 2.6346-2.6345z"/><path d="m7 32.5c0-1.6569 1.34315-3 3-3h11c1.6569 0 3 1.3431 3 3v6c0 1.6569-1.3431 3-3 3h-11c-1.65685 0-3-1.3431-3-3zm3-1c-.55228 0-1 .4477-1 1v6c0 .5523.44772 1 1 1h11c.5523 0 1-.4477 1-1v-6c0-.5523-.4477-1-1-1z"/><path d="m11 39.5v-8h2v8z"/><path d="m18 39.5v-8h2v8z"/><path d="m12 28c0-1.1046.8954-2 2-2h3c1.1046 0 2 .8954 2 2v2.5h-2v-2.5h-3v2.5h-2z"/></g></svg>