<svg fill="none" height="48" viewBox="0 0 48 48" width="48" xmlns="http://www.w3.org/2000/svg"><g fill="#333"><path d="m27 40c0 1.6569-1.3431 3-3 3s-3-1.3431-3-3 1.3431-3 3-3 3 1.3431 3 3z"/><g clip-rule="evenodd" fill-rule="evenodd"><path d="m30.6186 37.1037c-.4288-1.6004.5209-3.2454 2.1213-3.6742l1.9319-.5177c1.6004-.4288 3.2454.521 3.6742 2.1214l1.0353 3.8637c.4288 1.6004-.5209 3.2454-2.1213 3.6742l-1.9319.5176c-1.6004.4289-3.2454-.5209-3.6742-2.1213zm2.639-1.7424c-.5335.143-.8501.6913-.7071 1.2248l1.0352 3.8637c.143.5334.6913.85 1.2248.7071l1.9318-.5177c.5335-.1429.8501-.6912.7072-1.2247l-1.0353-3.8637c-.143-.5335-.6913-.8501-1.2248-.7071z"/><path d="m9.65396 35.0324c.42884-1.6004 2.07384-2.5501 3.67424-2.1213l1.9318.5176c1.6004.4289 2.5502 2.0739 2.1214 3.6743l-1.0353 3.8637c-.4288 1.6004-2.0738 2.5501-3.6742 2.1213l-1.9319-.5176c-1.60039-.4289-2.55014-2.0739-2.12131-3.6743zm3.15664-.1894c-.5335-.143-1.0818.1736-1.2248.7071l-1.0353 3.8637c-.1429.5334.1737 1.0818.7071 1.2247l1.9319.5176c.5335.143 1.0818-.1736 1.2247-.7071l1.0353-3.8637c.143-.5334-.1736-1.0818-.7071-1.2247z"/><path d="m15.8378 39h7.1622v-7.9451c-2.8697.3173-5.3328 1.9838-6.7408 4.3511-.2497-.4813-.693-.86-1.258-1.0113l-.4029-.108c1.9304-3.1699 5.4189-5.2867 9.4017-5.2867 3.9832 0 7.4718 2.1171 9.4022 5.2874l-.4034.108c-.5648.1514-1.008.5299-1.2577 1.011-1.408-2.3675-3.8712-4.0342-6.7411-4.3515v7.9451h7.1621l.4578 1.7086c.0271.1012.0615.1985.1024.2914h-8.7223-8.7227c.0412-.0932.0757-.1907.1029-.2922zm-.7412 2.324c-.4138.6016-1.1364.9411-1.881.8529.2386 1.1879.6686 2.3073 1.2566 3.3238l1.7312-1.0014c-.5553-.9601-.9385-2.0322-1.1068-3.1753zm16.7 3.1753c.5552-.9599.9383-2.0318 1.1067-3.1747.4138.6016 1.1364.9412 1.881.8531-.2386 1.1876-.6686 2.3067-1.2565 3.323z"/><path d="m15 17v-3h2v3c0 3.866 3.134 7 7 7s7-3.134 7-7v-3h2v3c0 4.9706-4.0294 9-9 9s-9-4.0294-9-9z"/><path d="m15.5989 6.25348c-.5085.41248-.5989.70297-.5989.84329 0 1.43999.2324 2.56936.4583 3.32723.0673.2255.1339.4181.1936.576h16.6962c.0597-.1579.1264-.3504.1936-.5759.2259-.75781.4583-1.88717.4583-3.32732 0-.14033-.0904-.43082-.5989-.8433-.4913-.39844-1.235-.792-2.1672-1.13883-1.859-.69166-4.2408-1.11465-6.2339-1.11465s-4.3749.42299-6.2339 1.11465c-.9322.34683-1.6759.74039-2.1672 1.13883zm16.1026 6.74652h-15.403c.067.09.1489.1843.249.2811.7546.7297 2.6809 1.7189 7.4525 1.7189s6.6979-.9892 7.4525-1.7189c.1001-.0968.182-.1911.249-.2811zm-17.7137-.7941c-.0194-.0424-.0403-.0895-.0625-.1411-.1079-.2506-.2466-.6098-.3836-1.0695-.2741-.9195-.5417-2.24174-.5417-3.89852 0-1.02097.6321-1.82322 1.3391-2.39663.7243-.58745 1.6893-1.07292 2.7296-1.45996 2.0859-.77608 4.7041-1.24019 6.9313-1.24019s4.8454.46411 6.9313 1.24019c1.0403.38704 2.0053.87251 2.7296 1.45996.707.57341 1.3391 1.37566 1.3391 2.39662 0 1.65694-.2676 2.97923-.5417 3.89873-.137.4596-.2757.8188-.3836 1.0694-.0222.0516-.0431.0986-.0625.141-.0013.1697-.0188.3873-.0747.6372-.1234.5521-.4274 1.2305-1.0947 1.8758-1.3137 1.2703-3.8873 2.2811-8.8428 2.2811s-7.5291-1.0108-8.8428-2.2811c-.6673-.6453-.9713-1.3237-1.0947-1.8758-.0559-.2499-.0734-.4675-.0747-.6372z"/></g><path d="m20 8c0-.55228.4477-1 1-1h6c.5523 0 1 .44772 1 1s-.4477 1-1 1h-6c-.5523 0-1-.44772-1-1z"/></g></svg>