<svg fill="none" height="48" viewBox="0 0 48 48" width="48" xmlns="http://www.w3.org/2000/svg"><g fill="#333"><path clip-rule="evenodd" d="m19.101 14h9.7979v2h-9.7979zm-2.4747 3.643c.2237-.1427.495-.1907.7541-.1333 1.3059.2893 3.3929.4903 6.6196.4903 3.2266 0 5.3136-.201 6.6195-.4903.2591-.0574.5304-.0094.7542.1333.2237.1428.3815.3686.4387.6278.1229.5577.1876 1.1365.1876 1.7292 0 4.4183-3.5818 8-8 8-4.4183 0-8-3.5817-8-8 0-.5927.0646-1.1715.1876-1.7292.0571-.2592.2149-.485.4387-.6278zm1.3833 2.0135c-.0064.1136-.0096.2281-.0096.3435 0 3.3137 2.6863 6 6 6s6-2.6863 6-6c0-.1154-.0033-.2299-.0097-.3435-1.4519.2179-3.4019.3435-5.9903.3435-2.5885 0-4.5385-.1256-5.9904-.3435z" fill-rule="evenodd"/><path clip-rule="evenodd" d="m17.0018 10.3184c.0155 1.3476.1274 2.4374.2378 3.1995.026.1792.0519.3402.0763.4821h13.3681c.0245-.1418.0503-.3028.0763-.482.1104-.762.2223-1.8518.2378-3.1996-.0604-.0517-.1402-.115-.2416-.1885-.3606-.26138-.9083-.58974-1.597-.9113-1.3821-.64531-3.2359-1.2186-5.1595-1.2186-1.9237 0-3.7775.57329-5.1596 1.2186-.6887.32156-1.2364.64992-1.597.9113-.1013.0735-.1811.1368-.2416.1885zm14.2101 5.6816h-14.4238c-.0012.0008-.0024.0016-.0036.0024-.14.0939-.3205.2245-.4942.376-.1786.1559-.3196.3078-.4069.4395-.0262.0397-.0432.0706-.0541.0934.0113.0104.0257.0228.0439.0372.1491.1173.4714.291 1.0994.4614 1.2523.3396 3.4267.5901 7.0274.5901 3.6006 0 5.775-.2505 7.0273-.5901.628-.1704.9503-.3441 1.0994-.4614.0183-.0144.0326-.0268.0439-.0372-.0109-.0228-.0278-.0537-.0541-.0934-.0872-.1317-.2283-.2836-.4069-.4395-.1736-.1515-.3541-.2821-.4942-.376-.0012-.0008-.0023-.0016-.0035-.0024zm-15.8302-1.4549c-.038-.2053-.0798-.4531-.1214-.7404-.131-.9046-.2603-2.2028-.2603-3.8047 0-.31368.1339-.54796.1963-.64747.0779-.12421.1703-.23146.253-.31763.1678-.17468.3833-.35242.6203-.52422.4799-.34795 1.1409-.73834 1.9247-1.10428 1.5628-.72969 3.7091-1.4064 6.0057-1.4064 2.2965 0 4.4428.67671 6.0056 1.4064.7838.36594 1.4448.75633 1.9248 1.10428.237.1718.4525.34954.6202.52422.0827.08617.1751.19342.253.31763.0624.09951.1964.33379.1964.64747 0 1.6021-.1293 2.9003-.2604 3.8048-.0416.2873-.0834.535-.1214.7404.1277.0947.2667.2043.4065.3264.2511.2191.5358.5047.7591.8417.2187.3301.4362.7976.4017 1.3491-.0371.5933-.3516 1.0877-.822 1.4578-.4467.3515-1.0579.6153-1.8127.8199-1.5134.4104-3.9015.6599-7.5508.6599-3.6494 0-6.0375-.2495-7.5508-.6599-.7548-.2046-1.3661-.4684-1.8127-.8199-.4705-.3701-.785-.8645-.8221-1.4578-.0345-.5515.1831-1.019.4017-1.3491.2233-.337.508-.6226.7591-.8417.1399-.1221.2788-.2317.4065-.3265z" fill-rule="evenodd"/><path d="m21 11c0-.5523.4477-1 1-1h4c.5522 0 1 .4477 1 1s-.4478 1-1 1h-4c-.5523 0-1-.4477-1-1z"/><g clip-rule="evenodd" fill-rule="evenodd"><path d="m23 36.5v-4.5h2v4.5z"/><path d="m32.6933 38.6706-6.4345 1.7242-.5177-1.9319 6.4346-1.7241z"/><path d="m21.7411 40.3948-6.4345-1.7242.5177-1.9318 6.4345 1.7241z"/><path d="m31.6117 36.7444c-.4289-1.6004.5209-3.2454 2.1213-3.6743l1.9318-.5176c1.6004-.4288 3.2455.5209 3.6743 2.1213l.7764 2.8978c.4289 1.6004-.5209 3.2454-2.1213 3.6742l-1.9318.5177c-1.6004.4288-3.2454-.5209-3.6743-2.1213zm2.6389-1.7424c-.5334.1429-.85.6913-.7071 1.2247l.7765 2.8978c.1429.5335.6913.8501 1.2247.7071l1.9319-.5176c.5334-.143.85-.6913.7071-1.2248l-.7765-2.8977c-.1429-.5335-.6912-.8501-1.2247-.7071z"/><path d="m8.6564 34.673c.42883-1.6004 2.0738-2.5501 3.6742-2.1213l1.9319.5177c1.6004.4288 2.5501 2.0738 2.1213 3.6742l-.7764 2.8978c-.4289 1.6004-2.0739 2.5501-3.6743 2.1213l-1.9318-.5177c-1.60043-.4288-2.55018-2.0738-2.12136-3.6742zm3.1566-.1894c-.5335-.143-1.0818.1736-1.2247.7071l-.7765 2.8977c-.14295.5335.17364 1.0819.7071 1.2248l1.9319.5176c.5334.143 1.0818-.1736 1.2247-.7071l.7765-2.8978c.1429-.5334-.1737-1.0818-.7072-1.2247z"/><path d="m24 40c.5522 0 1-.4477 1-1s-.4478-1-1-1c-.5523 0-1 .4477-1 1s.4477 1 1 1zm0 2c1.6568 0 3-1.3431 3-3s-1.3432-3-3-3c-1.6569 0-3 1.3431-3 3s1.3431 3 3 3z"/><path d="m24 32c-4.4183 0-8 3.5817-8 8v1c0 .5523-.4477 1-1 1s-1-.4477-1-1v-1c0-5.5228 4.4771-10 10-10 5.5228 0 10 4.4772 10 10v1c0 .5523-.4478 1-1 1-.5523 0-1-.4477-1-1v-1c0-4.4183-3.5818-8-8-8z"/></g></g></svg>