<svg fill="none" height="48" viewBox="0 0 48 48" width="48" xmlns="http://www.w3.org/2000/svg"><path clip-rule="evenodd" d="m24.0002 5c-1.6565 0-3.0001 1.34355-3.0001 3.00181s1.3436 3.00179 3.0001 3.00179 3.0001-1.34353 3.0001-3.00179-1.3436-3.00181-3.0001-3.00181zm-5.0001 3.00181c0-2.76202 2.2382-5.00181 5.0001-5.00181s5.0001 2.23979 5.0001 5.00181c0 2.69779-2.1353 4.89739-4.8083 4.99819h3.3081c1.5861 0 3.0006.9978 3.5327 2.492l3.3605 9.4365c.5095 1.4307-.2373 3.0037-1.6681 3.5132s-3.0037-.2373-3.5132-1.6681c-.0031-.0086-.006-.0172-.0088-.0258l-1.4306-4.3931-.6959 3.3753 2.1916 2.6298c.1498.1797.2318.4063.2318.6402v13.3515c0 1.5489-1.3991 2.6478-2.7802 2.6478-1.5382 0-2.5792-1.2534-2.5792-2.6478v-10.7463h-.2812v10.7463c0 1.4765-1.2217 2.6478-2.6797 2.6478s-2.6797-1.1713-2.6797-2.6478v-13.3515c0-.2339.082-.4605.2318-.6402l2.1942-2.6331-.6608-3.3228-1.4097 4.3244c-.2904.8585-1.0605 1.372-1.7266 1.6232-.6808.2567-1.5274.3483-2.2597.1006-.8431-.2852-1.2905-.9357-1.4212-1.6493-.1171-.6398.0173-1.3044.1975-1.8369l3.1857-9.4176c.5153-1.5231 1.9443-2.5483 3.5523-2.5483h3.4248c-2.673-.1008-4.8083-2.3004-4.8083-4.99819zm1.3835 6.99819c-.7504 0-1.4173.4784-1.6578 1.1892l-3.1857 9.4176c-.1296.383-.1545.6728-.1246.8359.0063.0346.0139.0562.0189.068.0026.0058.0045.0093.0057.0112l.0017.0025c.0004.0005.0027.0025.0063.005.0068.0045.0252.0157.062.0281.1833.062.5411.063.9133-.0774.3817-.1439.5148-.3306.5368-.3903l2.5891-7.9425c.141-.4325.5561-.7153 1.0101-.6883.4541.027.8327.3571.9215.8032l1.4999 7.5428c.0589.2962-.0192.6031-.2126.8352l-2.2681 2.7218v12.9895c0 .336.29.6478.6797.6478s.6797-.3118.6797-.6478v-11.7463c0-.5522.4477-1 1-1h2.2812c.5523 0 1 .4478 1 1v11.7463c0 .4181.2697.6478.5792.6478.4665 0 .7802-.3842.7802-.6478v-12.9894l-2.2683-2.7219c-.1949-.2339-.2727-.5439-.2112-.8421l1.5551-7.5428c.0916-.4442.4708-.7712.9237-.7965s.8661.2575 1.0066.6888l2.5938 7.9652c.1427.3836.5676.5825.9544.4448.3902-.139.5939-.568.455-.9582l-3.3605-9.4365c-.2483-.6973-.9084-1.1629-1.6486-1.1629z" fill="#333" fill-rule="evenodd"/></svg>