<svg fill="none" height="48" viewBox="0 0 48 48" width="48" xmlns="http://www.w3.org/2000/svg"><g fill="#333"><path d="m42 39.5c0 1.3807-3.3579 2.5-7.5 2.5-4.1422 0-7.5-1.1193-7.5-2.5s3.3578-2.5 7.5-2.5c4.1421 0 7.5 1.1193 7.5 2.5z"/><path clip-rule="evenodd" d="m38.743 39.5c-1.0825-.2982-2.5609-.5-4.243-.5-1.6822 0-3.1606.2018-4.2431.5 1.0825.2982 2.5609.5 4.2431.5 1.6821 0 3.1605-.2018 4.243-.5zm-4.243 2.5c4.1421 0 7.5-1.1193 7.5-2.5s-3.3579-2.5-7.5-2.5c-4.1422 0-7.5 1.1193-7.5 2.5s3.3578 2.5 7.5 2.5z" fill-rule="evenodd"/><path d="m31.1171 19.0534c0 .5818-.4739 1.0534-1.0586 1.0534-.5846 0-1.0585-.4716-1.0585-1.0534s.4739-1.0534 1.0585-1.0534c.5847 0 1.0586.4716 1.0586 1.0534z"/><path d="m33.1757 25.5801c0 .8727-.7109 1.5801-1.5879 1.5801-.8769 0-1.5878-.7074-1.5878-1.5801 0-.8726.7109-1.5801 1.5878-1.5801.877 0 1.5879.7075 1.5879 1.5801z"/><path d="m37.1171 29.0534c0 .5818-.4739 1.0534-1.0586 1.0534-.5846 0-1.0585-.4716-1.0585-1.0534s.4739-1.0534 1.0585-1.0534c.5847 0 1.0586.4716 1.0586 1.0534z"/><path d="m32.1171 32.0534c0 .5818-.4739 1.0534-1.0586 1.0534-.5846 0-1.0585-.4716-1.0585-1.0534s.4739-1.0534 1.0585-1.0534c.5847 0 1.0586.4716 1.0586 1.0534z"/><path d="m38.1757 36.5801c0 .8727-.7109 1.5801-1.5879 1.5801-.8769 0-1.5878-.7074-1.5878-1.5801 0-.8726.7109-1.5801 1.5878-1.5801.877 0 1.5879.7075 1.5879 1.5801z"/><path clip-rule="evenodd" d="m26.9393 8.41919c-1.1108-.75415-2.6434-.46516-3.4175.66803-.7729 1.13138-.4819 2.65418.627 3.40698 1.1108.7542 2.6435.4652 3.4176-.668.7728-1.1314.4819-2.65414-.6271-3.40701zm-5.069-.46008c1.3875-2.03125 4.1574-2.57619 6.1924-1.19461 2.0369 1.38288 2.5439 4.1568 1.1551 6.1898-1.3875 2.0313-4.1574 2.5762-6.1924 1.1946-.0453-.0308-.0899-.0622-.1338-.0944.034 1.1328-.0898 2.4581-.2609 3.6961-.1739 1.2589-.4024 2.4671-.5865 3.3578-.0797.3854-.1514.7129-.2073.9611.0554.0613.1165.1289.1824.2021.328.364.7775.8657 1.2633 1.4165.9604 1.0889 2.0981 2.4093 2.6996 3.2236.4412.5972.5926 1.2678.4502 1.9156-.135.614-.5088 1.0977-.9147 1.4317-.4074.3352-.91.5737-1.4208.6661-.4972.0899-1.1332.0597-1.6647-.3336-.0951-.0703-.224-.17-.3796-.2933l-.063.3104c-.1644.8108-.388 1.9147-.625 3.0872-.4743 2.3469-1.001 4.9626-1.214 6.0557-.3394 1.7421-1.8928 2.3837-3.1704 2.2237-1.2661-.1584-2.6211-1.1455-2.5911-2.8847.0195-1.1349.16-3.2346.2927-5.0229.0668-.9002.1324-1.731.1813-2.3367.0104-.1291.0201-.248.0288-.3551l-4.5584-2.6365-.0094-.0052c-.0123-.007-.029-.0164-.0497-.0284-.0415-.0239-.0992-.0578-.1705-.1015-.14249-.0874-.34042-.2144-.57267-.3787-.4617-.3265-1.07337-.8106-1.65648-1.4351-1.14769-1.2292-2.33165-3.176-1.69989-5.5891.16861-.6441.63797-1.5383 1.21481-2.4645.59694-.9584 1.37274-2.0508 2.23546-3.1174.86177-1.0655 1.82367-2.1218 2.79527-2.9996.9569-.8645 1.9868-1.6145 2.9863-1.9906 1.5929-.5994 2.7401-.99521 3.7294-.94814.7637.03634 1.3698.32694 1.9527.73574.0124-.84863.2667-1.70406.7815-2.45769zm-10.5649 19.03219c.0073.004.0144.008.0216.0121l5.1144 2.9581c.3353.1939.5284.564.4958.9499l-.022.2638c-.0141.1699-.0343.4152-.0586.7166-.0486.6027-.1139 1.4291-.1803 2.3238-.1337 1.8014-.2692 3.8419-.2875 4.9094-.008.4632.3133.7998.8398.8657.2549.0319.4823-.02.6395-.1168.1376-.0848.2655-.2281.3194-.5048.2147-1.1017.743-3.7256 1.2168-6.0695.237-1.173.4607-2.2773.6252-3.0884l.2695-1.3287.045.0089c-.0001-.0001.0001 0 0 0l-.045-.0089c.0016-.0075.0032-.0153.0049-.0228.0001-.0007 0-.0014 0-.0022-.4703-.3978-.9723-.8294-1.4615-1.2601-.8718-.6889-2.0304-1.6309-2.9706-2.4002-.4746-.3883-.8949-.7338-1.1965-.9822-.1509-.1242-.2721-.2241-.3556-.2931l-.1291-.1066c-.4205-.3476-.4853-.9686-.1449-1.395l2.7359-3.4272c.3043-.3812.8393-.4872 1.266-.2509.4267.2364.6206.7461.459 1.2062l-.0027.0077-.0094.0271c-.0084.0244-.0209.061-.0369.1085-.032.095-.0777.2329-.1313.4016-.1077.3385-.2457.7953-.3699 1.2754-.1255.4852-.2302.9688-.2795 1.3679-.0247.1999-.0325.3553-.0283.4661.0012.0302.0031.0528.0049.069.0238.0321.0737.097.1646.2002.1414.1604.3354.3616.5745.5963.4719.4633 1.0839 1.0218 1.7316 1.593.491.3874.852.663 1.0198.7769.3336.2265.5873.4855.7714.7618.7728.6481 1.4047 1.158 1.6815 1.3653.019.003.064.0063.1441-.0082.1589-.0287.3497-.1139.5059-.2423.1576-.1297.2174-.2497.2321-.3169.0074-.0333.0249-.1214-.1054-.2978-.5414-.7328-1.6204-1.9886-2.591-3.089-.4798-.544-.9243-1.0402-1.249-1.4005-.1623-.1801-.2945-.3261-.386-.4269l-.1054-.116-.0359-.0393c-.2244-.246-.3123-.5881-.2334-.9116l.0012-.0049.0043-.0179.0174-.073c.0153-.0647.0377-.1608.0658-.2841.0561-.2467.1348-.602.224-1.0334.1787-.8644.3981-2.0261.564-3.2265.167-1.2089.274-2.4182.242-3.3909-.016-.4876-.0661-.8765-.1428-1.1596-.0755-.2785-.1502-.3563-.1495-.357 0 0 .0006.0004.0018.0014-.8745-.7236-1.1866-.8742-1.56-.892-.4925-.0234-1.2203.1788-2.9299.8222-.6518.2453-1.4611.7997-2.3501 1.6028-.8742.7898-1.7649 1.7644-2.5809 2.7733-.8152 1.0078-1.54258 2.0335-2.09287 2.9171-.57039.9158-.89229 1.5875-.97768 1.9136-.37784 1.4433.28021 2.7037 1.22695 3.7177.4641.4971.9627.8936 1.3496 1.1672.1919.1358.3528.2388.4631.3064.055.0338.0972.0585.124.074l.0283.0161.0038.0021c-.0002-.0001.0002.0001 0 0z" fill-rule="evenodd"/></g></svg>