<svg fill="none" height="48" viewBox="0 0 48 48" width="48" xmlns="http://www.w3.org/2000/svg"><g fill="#333"><path clip-rule="evenodd" d="m27.5357 13.2714.0061.003c.2662.1318.5563.2104.8537.2308s.5958-.0176.878-.1119c.2823-.0943.5425-.2428.766-.4366.2234-.1937.4058-.4289.5371-.6917l.003-.0061c.2005-.398.2774-.8455.2217-1.2861s-.2418-.8561-.536-1.19331c-.2944-.33736-.6839-.58141-1.12-.69963l.5232-1.93033c.8167.22138 1.5489.67908 2.1038 1.31507s.9075 1.42164 1.0132 2.2573c.1057.8357-.0404 1.6838-.4197 2.4368-.249.4985-.5943.9434-1.0162 1.3091-.4218.3658-.912.6452-1.4424.8224s-1.0907.2487-1.6488.2103c-.5582-.0384-1.1033-.1858-1.6042-.4338-.4952-.2432-.9358-.5783-1.2996-.9845-.1938-.2164-.3658-.453-.5126-.7067-.4225-.7298-.6176-1.5681-.5608-2.4085.002-.0295.0043-.0591.007-.0885.0541-.6102.24-1.19948.5424-1.72849.0981-.17176.2086-.33716.3309-.49486.517-.66689 1.2213-1.16599 2.0237-1.43404s1.6667-.29296 2.4833-.07158l-.5232 1.93033c-.4362-.11825-.898-.10491-1.3264.0382-.4283.14308-.8028.40899-1.0768.76246-.2739.35338-.4354.77858-.4654 1.22158s.0728.8855.2962 1.2715c.2235.3862.5582.6991.9628.8978zm-3.8999 13.193c-.0211-.1715-.0577-.3413-.11-.5072-.1706-.5421-.4995-1.0164-.943-1.3602l-6.5127-4.6571c.1228-.1154.2303-.215.3258-.3026.1347-.1234.2456-.2229.3419-.3091.0118-.0105.0234-.0209.0348-.0311.2932-.2622.453-.405.7699-.763.1231-.139.2699-.3105.4574-.5341.1139.2848.1962.606.28.933.0134.0523.0269.1048.0405.1574.1016.3916.2129.7846.39 1.127.1444.279.3324.5244.5946.7082l6.5551 4.6674c.1954.1378.414.238.6454.2959.4448.1073.9144.0523 1.3276-.1557.4131-.2079 1.8415-2.0104 2.0325-2.4377s.2302-.9074.111-1.3571-.3895-.8407-.7639-1.1055l-5.6742-3.9924c-.0285-.4934-.0632-.9742-.099-1.4687-.0128-.1779-.0258-.3575-.0387-.5401-.0138-.1956-.0274-.3945-.0406-.5985-.0618-.9532-.1139-2.0144-.1255-3.337 0-.0029 0-.0058 0-.0087-.0038-.4379-.1493-.8605-.414-1.20216-.0803-.1037-.1703-.19819-.2683-.28241-.2248-.19321-.4917-.33238-.7815-.40481-1.539-.56209-3.2403-.48429-4.7393.21673-4.0825 1.49515-9.17698 7.62565-9.17698 7.62565-.62154.7017-1.13571 1.4946-1.5248 2.3513-.28082.6989-.29225 1.4772-.03199 2.1774.26027.7003.77282 1.2703 1.43412 1.5951l8.76795 6.0357.5655 9.1861c-.0924.7089.0908 1.423.5103 1.9893.4196.5664 1.0421.9398 1.7343 1.0405.3331.0317.67-.0055.9904-.1095s.6177-.2725.8742-.4955c.2564-.2231.4667-.496.6183-.8025.1515-.3065.2412-.6403.2637-.9813l1.4819-11.1946c.1127-.381.1451-.779.0973-1.1681zm-2.2578-.2702c.1075.0898.1931.2141.2401.3636.0502.1594.053.337.0026.5073-.0296.0998-.0513.2017-.0649.3049l-1.4819 11.1946c-.0057.0435-.0101.0872-.013.131-.0051.0783-.0258.1555-.0608.2262s-.0825.1317-.138.1799c-.0554.0482-.1168.0822-.179.1023-.0461.015-.0924.0223-.1374.0228-.1404-.033-.2693-.1155-.3629-.2419-.1064-.1436-.1607-.3366-.1342-.5403.0165-.1264.0209-.2541.013-.3814l-.5655-9.1861c-.0377-.6137-.3557-1.1759-.8621-1.5245l-8.76801-6.0357c-.08043-.0554-.1648-.1048-.25244-.1478-.19481-.0957-.35627-.2687-.44101-.4967-.08147-.2191-.08388-.4697.00052-.7021.30418-.6572.70164-1.2651 1.17875-1.8038.01382-.0156.0274-.0314.04073-.0474l.00122-.0015.00818-.0098.03753-.0445c.03425-.0405.08666-.102.15575-.182.13825-.1601.34284-.3936.60198-.6799.5194-.5739 1.2517-1.3526 2.1029-2.1731 1.776-1.7118 3.8084-3.3455 5.4193-3.9354.054-.0198.1072-.042.1594-.0664 1.0226-.4782 2.1723-.5273 3.2059-.1498.0495.0181.0996.0342.1502.0483.0172 1.9274.1181 3.3231.2093 4.5837l.0005.0073c.036.4968.0696.9632.0971 1.4397.0352.6093.3467 1.1692.8458 1.5205l5.6557 3.9794c-.0329.0502-.0798.1184-.141.2034-.1401.1946-.3242.4343-.5191.673-.1717.2103-.3373.4024-.4755.5517l-6.4091-4.5634c-.0088-.0154-.0218-.0403-.0382-.0776-.0319-.0723-.068-.1716-.1101-.3122-.0429-.1437-.0826-.2972-.133-.494-.0035-.0139-.0072-.0281-.0109-.0426-.0761-.2975-.1864-.7286-.3494-1.1364-.2611-.6531-.8462-1.1211-1.5407-1.2323-.6946-.1113-1.3965.1505-1.8486.6894-.3293.3925-.4985.5827-.6213.7103-.1134.1179-.2.1963-.4069.3813-.1741.1557-.4041.3613-.7394.6766-.4361.41-.6656.9937-.6256 1.5908.0401.5972.3454 1.1451.8322 1.4932zm-.8666-6.8534s-.0003-.0005-.001-.0015zm6.1929 4.7491c-.0204.0161-.0209.0185 0 0 .0002-.0002-.0002.0002 0 0z" fill-rule="evenodd"/><path clip-rule="evenodd" d="m40.2384 37.819c.0004 0-.0035.0041-.0131.0122.008-.0082.0127-.0122.0131-.0122zm-1.6783.681c-1.1769-.3001-2.7645-.5-4.5601-.5s-3.3832.1999-4.5601.5c1.1769.3001 2.7645.5 4.5601.5s3.3832-.1999 4.5601-.5zm-10.7985-.681c.0004 0 .0051.0041.0131.0123-.0096-.0081-.0135-.0123-.0131-.0123zm0 1.362c-.0004 0 .0035-.0042.0131-.0123-.008.0082-.0127.0123-.0131.0123zm12.4637-.0122c.0096.0081.0135.0122.0131.0122s-.0051-.004-.0131-.0122zm-6.2253 1.8312c4.4183 0 8-1.1193 8-2.5s-3.5817-2.5-8-2.5-8 1.1193-8 2.5 3.5817 2.5 8 2.5z" fill-rule="evenodd"/><path d="m31.738 18.7932c0 .5817-.474 1.0534-1.0586 1.0534s-1.0586-.4717-1.0586-1.0534c0-.5818.474-1.0535 1.0586-1.0535s1.0586.4717 1.0586 1.0535z"/><path d="m33.8551 25.6403c0 .8727-.7109 1.5801-1.5878 1.5801-.877 0-1.5879-.7074-1.5879-1.5801s.7109-1.5801 1.5879-1.5801c.8769 0 1.5878.7074 1.5878 1.5801z"/><path d="m37.0308 28.2737c0 .5818-.4739 1.0534-1.0585 1.0534-.5847 0-1.0586-.4716-1.0586-1.0534 0-.5817.4739-1.0534 1.0586-1.0534.5846 0 1.0585.4717 1.0585 1.0534z"/><path d="m32.7966 32.4874c0 .5817-.474 1.0534-1.0586 1.0534s-1.0586-.4717-1.0586-1.0534c0-.5818.474-1.0534 1.0586-1.0534s1.0586.4716 1.0586 1.0534z"/><path d="m39.148 35.1743c0 .8727-.7109 1.5802-1.5879 1.5802-.8769 0-1.5878-.7075-1.5878-1.5802 0-.8726.7109-1.5801 1.5878-1.5801.877 0 1.5879.7075 1.5879 1.5801z"/></g></svg>