<svg fill="none" height="48" viewBox="0 0 48 48" width="48" xmlns="http://www.w3.org/2000/svg"><g fill="#333"><path clip-rule="evenodd" d="m35.5 8.00004.8-.6.0042.00563.0106.01423.0397.05343c.0343.04643.0841.11409.1472.20068.1261.17312.3054.42215.5202.72842.4289.61162 1.0025 1.45596 1.5777 2.38277.5732.9234 1.1592 1.9466 1.6052 2.913.4286.9285.7952 1.943.7952 2.8018 0 3.0523-2.4477 5.5-5.5 5.5s-5.5-2.4477-5.5-5.5c0-.8588.3666-1.8733.7952-2.8018.446-.9664 1.032-1.9896 1.6052-2.913.5752-.92681 1.1488-1.77115 1.5777-2.38277.2148-.30627.3941-.5553.5202-.72842.0631-.08659.1129-.15425.1472-.20068l.0397-.05343.0106-.01423.0042-.00563zm-1.4004 3.83986c.5002-.8057 1.0016-1.5504 1.4004-2.12361.3988.57321.9002 1.31791 1.4004 2.12361.5518.8891 1.0908 1.8347 1.4885 2.6964.4152.8996.6111 1.5726.6111 1.9637 0 1.9478-1.5523 3.5-3.5 3.5s-3.5-1.5522-3.5-3.5c0-.3911.1959-1.0641.6111-1.9637.3977-.8617.9367-1.8073 1.4885-2.6964z" fill-rule="evenodd"/><path d="m35.5 8.00004c.8-.6.7999-.60012.8-.6l-.8-1.06667-.8 1.06667c.0001-.00012 0 0 .8.6z"/><g clip-rule="evenodd" fill-rule="evenodd"><path d="m23.8111 14.415-.7983-1.0948-.8118 1.0784-.0032.0043-.0075.01-.0272.0367c-.0235.0316-.0573.0775-.1.136-.0853.117-.2063.285-.3511.4918-.2889.4127-.6757.9845-1.0642 1.6172-.3864.6294-.7856 1.3369-1.0914 2.0183-.2914.6495-.5564 1.3993-.5564 2.0728 0 2.2862 1.7039 4.2143 4 4.2143s4-1.9281 4-4.2143c0-.6488-.271-1.3887-.5579-2.0218-.3043-.6718-.7018-1.3807-1.0869-2.0161-.3871-.6388-.7727-1.2212-1.0606-1.6428-.1443-.2113-.2649-.3833-.3498-.5031-.0425-.06-.0761-.1069-.0994-.1393l-.027-.0374zm-.8111.585-.799-.6014c.0001-.0001 0 0 .799.6014zm-.0101 1.7502c-.1997.2975-.419.6347-.6377.9909-.3636.5921-.7144 1.2184-.9711 1.7906-.2711.6041-.3811 1.0275-.3811 1.254 0 1.3138.9361 2.2143 2 2.2143s2-.9005 2-2.2143c0-.1869-.104-.5881-.3796-1.1964-.2582-.5698-.6107-1.2029-.9756-1.8049-.225-.3712-.4505-.7239-.6549-1.0342z"/><path d="m13 39.7493v.2468c0 1.1045-.8954 2-2 2h-3c-1.10457 0-2-.8955-2-2v-10.9954c0-1.1045.89543-2 2-2h3c.946 0 1.7386.6568 1.9467 1.5393 1.3244-.4773 2.8713-1.0454 3.3446-1.2612.402-.1831.8662-.2453 1.2519-.2676.4056-.0234.8264-.0072 1.1946.0213.3714.0287.7085.0716.9519.107.1222.0178.2222.0339.2927.0457.0353.006.0633.0108.0831.0144l.0235.0042.0069.0013.0036.0006.0179.0034 6.6888 1.5005.0418.0134.0114.0035.0461.0141c.0421.0127.106.0314.1884.0542.1651.0458.4025.1075.6855.1692.5749.1254 1.2991.2425 1.9744.2425.6239 0 1.2693.2325 1.6143.8644.2963.5425.2273 1.1382.1164 1.5507-.1381.5134-.4241 1.0537-.7877 1.5127.4907-.1851 1.0271-.4043 1.6029-.6405l.1231-.0506c1.623-.666 3.5475-1.4558 5.245-1.7365 1.9397-.3209 3.3515.3832 3.9915 1.6324.5697 1.1119.4374 2.5713-.42 3.4506-.2152.2207-.5431.4522-.8724.6658-.3516.228-.7847.4857-1.2659.7586-.9638.5467-2.1569 1.1751-3.3548 1.7826-2.372 1.203-4.8584 2.3729-5.6485 2.6622-.9156.3354-1.8991.3671-2.8449.3184-.5152-.0265-1.1137-.086-1.7086-.1452-.4298-.0427-.8576-.0853-1.2507-.115-1.9278-.1461-3.4074-.6166-4.7703-1.05l-.1657-.0527c-1.4076-.4468-2.7171-.8431-4.4521-.913-.3967-.016-1.1888.0131-1.9054.0479zm4.1208-10.6506c.0641-.0292.2341-.0732.5377-.0908.2836-.0164.6072-.006.925.0186.3146.0244.6054.0612.8183.0921.1058.0154.1911.0292.2488.0389.0289.0049.0507.0087.0648.0112l.0022.0004 6.5675 1.4733.0451.0137c.0546.0164.1323.0391.2295.0661.1941.0538.468.1248.7934.1958.5852.1277 1.3692.2624 2.1684.2852-.057.1617-.1535.3526-.2843.5427-.1596.232-.3349.4114-.4788.5141-.4166.2976-.7528.4221-.9569.4751-.1033.0268-.176.0361-.2119.0393l-.0153.0012-.0058.0003-5.362-.0648-.1914 1.9837.1793-.9838-.1783.984.0532.0096.1525.0274c.132.0237.3221.0575.5558.0984.467.0818 1.1085.192 1.806.3056 1.3744.224 3.031.4722 3.9709.5289.6491.0392 1.4051-.16 2.1082-.3948.7337-.2449 1.5625-.584 2.396-.926 1.7173-.7044 3.4659-1.4212 4.9355-1.6642 1.2704-.2102 1.7226.2539 1.8851.5711.2328.4545.1062.9597-.0719 1.1424-.0437.0448-.2012.1716-.5288.3841-.3053.198-.7006.434-1.1643.697-.9261.5252-2.0888 1.138-3.2727 1.7385-2.3915 1.2129-4.772 2.3263-5.4317 2.5679-.5342.1957-1.1944.2433-2.0542.199-.5079-.0261-.9897-.0751-1.515-.1286-.4246-.0432-.8777-.0892-1.3961-.1285-1.6918-.1282-2.978-.5368-4.3563-.9747l-.1256-.0399c-1.4276-.4532-2.9552-.9238-4.9768-1.0052-.4551-.0183-1.2653.0098-1.9859.0439v-7.1009c1.4055-.503 3.4871-1.2584 4.1208-1.5473zm2.7954-.9099.1833-.9831c.0002.0001 0 0-.1833.9831zm-8.9162.8119h-3v10.9954h3z"/></g></g></svg>