<svg fill="none" height="48" viewBox="0 0 48 48" width="48" xmlns="http://www.w3.org/2000/svg"><g clip-rule="evenodd" fill="#333" fill-rule="evenodd"><path d="m23.952 25.9997c.016.0002.032.0003.048.0003h.012.02c5.5228 0 10-4.4772 10-10s-4.4772-10-10-10l-.02.00002-.012-.00002c-.016 0-.032.0001-.048.00031-5.486.04297-9.92 4.50349-9.92 9.99969s4.434 9.9567 9.92 9.9997zm8.0181-8.9997h-1.9997c-.0544.9135-.1826 1.7909-.3745 2.6154h1.5745c.4076-.8032.6836-1.6845.7997-2.6154zm-2.24 4.6154h-.7647c-.1478.3624-.3096.7079-.484 1.0341.4508-.3022.8691-.649 1.2487-1.0341zm-2.1968-2c.2181-.7974.3695-1.6765.4331-2.6154h-2.9344v2.6154zm-2.5013 2h1.7337c-.0768.148-.1562.2904-.238.4267-.4989.8314-1.0171 1.3447-1.4957 1.636zm-2-2v-2.6154h-2.9984c.0636.9389.215 1.818.4331 2.6154zm-1.7976 2h1.7976v2.1005c-.4961-.2838-1.0385-.8052-1.5596-1.6738-.0818-.1363-.1612-.2787-.238-.4267zm-2.8303-2c-.1918-.8245-.32-1.7019-.3745-2.6154h-1.9357c.1161.9309.3921 1.8122.7997 2.6154zm-.0702 2h.7007c.1376.3373.2872.6598.4479.9659-.4127-.2858-.7972-.6095-1.1486-.9659zm11.6365-6.6154c-.0544-.9135-.1826-1.7909-.3745-2.6154h1.5745c.4076.8032.6836 1.6845.7997 2.6154zm-.2403-4.6154h-.7647c-.1478-.3624-.3096-.70785-.484-1.03411.4508.30221.8691.64903 1.2487 1.03411zm-4.6981 0h1.7337c-.0768-.148-.1562-.2904-.238-.42668-.4989-.83142-1.0171-1.34476-1.4957-1.63603zm2.5013 2h-2.5013v2.6154h2.9344c-.0636-.9389-.215-1.818-.4331-2.6154zm-4.5013-4.10047v2.10047h-1.7976c.0768-.148.1562-.2904.238-.42668.5211-.8686 1.0635-1.39004 1.5596-1.67379zm0 4.10047h-2.5653c-.2181.7974-.3695 1.6765-.4331 2.6154h2.9984zm-3.5495-2.9659c-.1607.30608-.3103.6286-.4479.9659h-.7006c.3513-.3564.7358-.68007 1.1485-.9659zm-1.0784 2.9659h-1.5105c-.4076.8032-.6836 1.6845-.7997 2.6154h1.9357c.0545-.9135.1827-1.7909.3745-2.6154z"/><path d="m8.72993 17.0007c-1.03827-.0246-2.07903.6126-2.41701 1.6044-.08436.2476-.13087.5716-.16299.8672-.03498.3221-.06207.7083-.08309 1.1299-.04211.8446-.06178 1.8721-.06597 2.8938-.00827 2.0176.04351 4.1179.11657 4.7689.12794 1.1401.78352 2.2021 1.3539 3.1261l.06352.1029c.17299.2807.34429.5587.51222.8463.75373 1.2912 1.57408 2.1611 2.31722 2.9492l.0168.0179c.4176.4428.8045.8543 1.1705 1.3136-.3418.3588-.5516.8445-.5516 1.3791v2c0 1.1046.8954 2 2 2h8c1.1046 0 2-.8954 2-2v-2c0-1.0574-.8206-1.9232-1.8598-1.9952-.1353-1.1358-.3104-2.67-.3264-3.1069-.0139-.3757-.1399-.743-.2573-1.0221-.1251-.2973-.2815-.5888-.4264-.836-.1463-.2498-.2903-.4704-.3971-.628-.0537-.0792-.0988-.1436-.1311-.1891-.0161-.0228-.0292-.0408-.0385-.0537l-.0112-.0155-.0034-.0047-.0018-.0024-.0107-.0145-3.243-4.0895-.0295-.0311-.0008-.0008-.0043-.0047-.0234-.0253c-.0214-.0235-.0542-.0599-.0958-.1074-.0834-.0952-.2011-.234-.3338-.4033-.2709-.3457-.5804-.7883-.7964-1.2305-.2282-.467-.6598-.9164-1.3229-.9499-.5658-.0287-1.0083.271-1.2667.5019-.1369.1222-.2669.2649-.3863.4216-.0153-.1934-.0303-.3943-.0458-.6022l-.0049-.0652c-.0981-1.3188-.2168-2.9136-.6041-4.1901-.4535-1.4948-1.46225-2.3266-2.64867-2.3547zm10.01177 13.7386.8053-.5929c-.0001-.0001-.0002-.0002-.8053.5929zm.3838 5.2607c-.1301-1.0996-.2923-2.537-.3104-3.0287-.0004-.0037-.0033-.0315-.0188-.0878-.0171-.0617-.0443-.1394-.0833-.2322-.0788-.1873-.1887-.396-.3085-.6005-.1182-.2018-.2371-.3842-.327-.5167-.0446-.0659-.0813-.1183-.1062-.1534l-.0262-.0365-3.1676-3.9944-.0187-.0203c-.0301-.033-.0723-.0798-.1239-.1387-.1029-.1175-.2444-.2845-.4034-.4873-.2237-.2855-.4941-.6572-.7409-1.0729l-.0064.0117c-.0905.1663-.1402.3189-.1556.4189-.0545.3548-.0263.5987.0015.731.0141.0673.0288.1088.0347.1242l.0011.0028 1.8311 3.6377-1.7012 1.0388-.0244-.0334-.0694-.0955c-.06-.0827-.1462-.2018-.2517-.3483-.2109-.2928-.4992-.6959-.8086-1.1362-.607-.8641-1.3326-1.9242-1.6909-2.5596-.2681-.4755-.3922-1.1049-.4712-1.6735-.0825-.5942-.1339-1.284-.18485-1.968l-.00164-.0219c-.10414-1.3981-.21217-2.781-.52835-3.8233-.13815-.4554-.31585-.6844-.44405-.7953-.12223-.1058-.23687-.1382-.3382-.1406-.27279-.0064-.45364.1834-.47663.2508-.00174.0064-.01104.0406-.02397.1145-.01429.0817-.02912.189-.04368.323-.02912.268-.05384.6115-.07387 1.0134-.03999.8021-.05938 1.796-.06351 2.8024-.00836 2.0388.04621 4.0217.10411 4.5377.07241.6452.4736 1.3338 1.13243 2.4026l.0026.0042c.17046.2765.35334.5732.53432.8832.63259 1.0836 1.31509 1.8113 2.06189 2.6033l.0164.0174c.5568.5904 1.1603 1.2304 1.7304 2.0474zm-5.3254-10.7541c0-.0004-.0037.0015-.0112.0068.0074-.0038.0112-.0065.0112-.0068zm7.1999 14.7541v-2h-8v2z"/><path d="m41.6871 18.6051c-.338-.9918-1.3787-1.629-2.417-1.6044-1.1864.0281-2.1952.8599-2.6487 2.3547-.3872 1.2765-.5059 2.8712-.6041 4.19l-.0049.0653c-.0154.2079-.0304.4088-.0457.6022-.1195-.1567-.2495-.2994-.3863-.4216-.2584-.2309-.701-.5306-1.2667-.5019-.6632.0335-1.0947.4829-1.3229.9499-.2161.4422-.5256.8848-.7964 1.2305-.1327.1693-.2504.3081-.3339.4033-.0415.0475-.0743.0839-.0958.1074l-.0233.0253-.0044.0047-.0008.0008-.0294.0311-3.243 4.0895-.0108.0145-.0017.0024-.0035.0047-.0112.0155c-.0093.0129-.0223.0309-.0385.0537-.0323.0455-.0773.1099-.1311.1891-.1068.1576-.2507.3782-.3971.628-.1448.2472-.3013.5387-.4264.836-.1174.2791-.2434.6464-.2572 1.0221-.0161.4369-.1912 1.9711-.3265 3.1069-1.0391.072-1.8598.9378-1.8598 1.9952v2c0 1.1046.8955 2 2 2h8c1.1046 0 2-.8954 2-2v-2c0-.5346-.2098-1.0203-.5515-1.3791.366-.4593.7528-.8708 1.1704-1.3136l.0169-.0179c.7431-.7881 1.5634-1.6581 2.3172-2.9492.1679-.2876.3392-.5656.5122-.8463l.0635-.1029c.5704-.924 1.226-1.986 1.3539-3.1261.0731-.651.1248-2.7513.1166-4.7689-.0042-1.0217-.0239-2.0492-.066-2.8938-.021-.4216-.0481-.8078-.0831-1.1299-.0321-.2956-.0786-.6196-.163-.8672zm-12.4287 12.1342c-.8052-.5931-.8053-.593-.8054-.5929zm5.1587 5.2607c.5701-.817 1.1735-1.457 1.7303-2.0474l.0164-.0174c.7468-.792 1.4293-1.5197 2.0619-2.6033.1809-.3098.3636-.6062.534-.8826l.0029-.0048c.6589-1.0688 1.0601-1.7574 1.1325-2.4026.0579-.516.1124-2.4989.1041-4.5377-.0041-1.0064-.0235-2.0003-.0635-2.8024-.0201-.4019-.0448-.7454-.0739-1.0134-.0146-.134-.0294-.2413-.0437-.323-.0129-.0739-.0222-.1081-.0239-.1145-.023-.0674-.2039-.2572-.4767-.2508-.1013.0024-.2159.0348-.3382.1406-.1282.1109-.3059.3399-.444.7953-.3162 1.0423-.4242 2.4252-.5284 3.8233l-.0016.0219c-.051.684-.1023 1.3738-.1849 1.968-.0789.5686-.2031 1.198-.4712 1.6735-.3582.6354-1.0838 1.6955-1.6909 2.5596-.3094.4403-.5977.8434-.8085 1.1362-.1055.1465-.1918.2656-.2518.3483l-.0694.0955-.0244.0334-1.7012-1.0388 1.8311-3.6377.0012-.0028c.0059-.0154.0205-.0569.0346-.1242.0278-.1323.056-.3762.0015-.731-.0153-.1-.0651-.2526-.1556-.4189l-.0064-.0117c-.2468.4157-.5172.7874-.7409 1.0729-.1589.2028-.3005.3698-.4034.4873-.0515.0589-.0937.1057-.1239.1387l-.0187.0203-3.1676 3.9944-.0261.0365c-.0249.0351-.0617.0875-.1063.1534-.0899.1325-.2087.3149-.327.5167-.1197.2045-.2297.4132-.3084.6005-.0391.0928-.0663.1705-.0833.2322-.0156.0563-.0184.0841-.0188.0878-.0181.4917-.1804 1.9291-.3105 3.0287zm-.2172-10.7541c0-.0004.0037.0015.0112.0068-.0074-.0038-.0111-.0065-.0112-.0068zm-7.1999 14.7541v-2h8v2z"/></g></svg>