<svg fill="none" height="48" viewBox="0 0 48 48" width="48" xmlns="http://www.w3.org/2000/svg"><g clip-rule="evenodd" fill="#333" fill-rule="evenodd"><path d="m18.8446 15c-.7171 0-1.3616.4375-1.6263 1.1039l-3.1651 7.9663c-.1529.3849.0352.821.4201.9739.385.1529.821-.0351.9739-.4201l2.6236-6.6034c.1771-.4459.646-.7031 1.1173-.6129.4712.0901.812.5023.812.9821v6.0695l.0004.0182c.0035.1553-.0292.3076-.0936.4456l-3.4008 8.0769h2.5917c.5523 0 1 .4477 1 1v7.2555c0 .4435.3436.7447.6797.7447s.6797-.3012.6797-.7447v-7.2555c0-.5523.4477-1 1-1h3.083c.5522 0 1 .4477 1 1v7.2555c0 .4435.3436.7447.6797.7447.336 0 .6796-.3012.6796-.7447v-7.2555c0-.5523.4478-1 1-1h2.5944l-3.4154-8.1116c-.0523-.1242-.0789-.2575-.0784-.392.0001-.0072.0002-.0143.0003-.0215l.9997.0251h-1v-.0036-5.8325c0-.4744.3334-.8835.7981-.9794.4646-.0958.9327.1481 1.1204.5838l2.6401 6.1294c.1639.3805.6051.556.9855.3922.3805-.1639.556-.6051.3922-.9856l-3.3368-7.7466c-.2765-.6419-.9084-1.0577-1.6073-1.0577zm-.8445 9.2977v-.6825l-.6942 1.7473c-.5607 1.4114-2.1596 2.1011-3.571 1.5403-1.4115-.5608-2.1011-2.1596-1.5403-3.5711l3.165-7.9663c.5673-1.428 1.9484-2.3654 3.485-2.3654h10.1477c1.4977 0 2.8517.8911 3.4441 2.2665l3.3368 7.7466c.6008 1.3949-.0429 3.0128-1.4378 3.6136-1.3948.6008-3.0127-.0429-3.6135-1.4378l-.7218-1.6756v.7851l3.3371 7.9255c.555 1.3183-.4129 2.7761-1.8433 2.7761h-1.5944v6.2555c0 1.4758-1.1681 2.7447-2.6796 2.7447-1.5116 0-2.6797-1.2689-2.6797-2.7447v-6.2555h-1.083v6.2555c0 1.4758-1.1681 2.7447-2.6797 2.7447s-2.6797-1.2689-2.6797-2.7447v-6.2555h-1.5917c-1.4304 0-2.3984-1.4578-1.8433-2.7761z"/><path d="m24.0001 5c-1.6565 0-3.0001 1.34355-3.0001 3.00181s1.3436 3.00179 3.0001 3.00179 3.0001-1.34353 3.0001-3.00179-1.3436-3.00181-3.0001-3.00181zm-5.0001 3.00181c0-2.76202 2.2382-5.00181 5.0001-5.00181 2.7618 0 5.0001 2.23979 5.0001 5.00181 0 2.76199-2.2383 5.00179-5.0001 5.00179-2.7619 0-5.0001-2.2398-5.0001-5.00179z"/></g></svg>