<svg fill="none" height="48" viewBox="0 0 48 48" width="48" xmlns="http://www.w3.org/2000/svg"><path d="m11.6292 18v5.8918c0 .6894-.3551 1.3302-.9396 1.6958l-1.5696.9814" stroke="#333" stroke-width="2"/><path d="m15.6292 18v5.9139c0 .6774.3428 1.3087.911 1.6775l1.5334.9955" stroke="#333" stroke-width="2"/><path d="m9.45794 19.063.78086.6247zm1.18516-.563-.0086 1h.0086zm-5.16528 5.5381.76689.6418.00709-.0085.00689-.0086zm-.19489.2998.89693.4421.00077-.0015zm-.15358.6387.99987.0163.00002-.0014zm.13356.6432.91102-.4124-.00072-.0016zm.18543.3057.8-.6-.00662-.0089-.00682-.0086zm2.9809 3.9745-.8.6zm.70003.5144h1.00003v-.7078l-.66762-.2353zm3.00003 2.5856v-1h-1v1zm3 0h1v-1h-1zm3-2.5856-.3325-.9431-.6675.2353v.7078zm.6999-.5144-.8-.6zm2.981-3.9746-.7866-.6175-.0068.0087-.0066.0088zm.1854-.3056-.9103-.414-.0008.0016zm.1335-.6432-.9999.0149.0001.0014zm-.1536-.6387-.8977.4406.0008.0015zm-.1949-.2998-.7808.6247.0069.0086.0071.0085zm-3.9714-4.9643-.7862.618.0054.0067zm-.0487-.0588-.7546.6561.0007.0009zm-.4813-.3673-.4339.901.0013.0006zm-.5875-.1464-.0421.9991h.0012zm-.0763-.0013v1h.0085zm2.1166 6.5296.8.6.4648-.6197-.4839-.605zm-.6027-.7534.7808-.6247-1.7808-2.2261v2.8508zm0 1.5571h-1v3l1.8-2.4zm-9.60283-.8037-.78087-.6247-.48395.605.46482.6197zm.6028.8038-.8.6 1.80003 2.4v-3zm0-1.5573h1.00003v-2.8507l-1.7809 2.226zm7.49993-11.2761c0 1.6569-1.3431 3-3 3v2c2.7615 0 5-2.2386 5-5zm-3-3c1.6569 0 3 1.3431 3 3h2c0-2.7614-2.2385-5-5-5zm-3 3c0-1.6569 1.3432-3 3-3v-2c-2.7614 0-4.99996 2.2386-4.99996 5zm3 3c-1.6568 0-3-1.3431-3-3h-1.99996c0 2.7614 2.23856 5 4.99996 5zm-3.3904 3.6877c.0994-.1243.2449-.189.3957-.1877l.0172-2c-.73797-.0063-1.47573.3146-1.97463.9383zm-3.98011 4.9751 3.98011-4.9751-1.56173-1.2494-3.98011 4.9751zm-.07806.1157c.01722-.0351.03861-.0682.06408-.0986l-1.53377-1.2836c-.12996.1553-.23874.3238-.3257.501zm-.05139.213c.00109-.0733.01803-.1453.05062-.2115l-1.79385-.8843c-.16691.3385-.25114.7033-.25655 1.066zm.04397.2143c-.03051-.0671-.04519-.1396-.04399-.2129l-1.99974-.0327c-.00592.3627.06688.7299.22313 1.0735zm.06169.1022c-.02452-.0313-.04486-.065-.06097-.1006l-1.82204.8247c.08139.1798.18486.3516.3099.5109zm2.99434 3.992-2.9809-3.9745-1.6 1.2 2.9809 3.9745zm.23244.1713c-.0893-.0315-.17007-.0881-.23244-.1713l-1.6 1.2c.30673.409.71723.6988 1.16762.8575zm.66762 11.5287v-10.5856h-2.00003v10.5856zm.5.5c-.2762 0-.5-.2239-.5-.5h-2.00003c0 1.3807 1.11929 2.5 2.50003 2.5zm.5-.5c0 .2761-.2239.5-.5.5v2c1.3807 0 2.5-1.1193 2.5-2.5zm0-8v8h2v-8zm4-1h-3v2h3zm1 9v-8h-2v8zm.5.5c-.2762 0-.5-.2239-.5-.5h-2c0 1.3807 1.1193 2.5 2.5 2.5zm.5-.5c0 .2761-.2239.5-.5.5v2c1.3807 0 2.5-1.1193 2.5-2.5zm0-10.5856v10.5856h2v-10.5856zm1.3324.9431c.4504-.1588.8608-.4486 1.1675-.8575l-1.6-1.2c-.0623.0832-.1431.1398-.2324.1713zm1.1675-.8575 2.981-3.9746-1.6-1.2-2.981 3.9746zm1.4553-5.2926c-.0161.0356-.0364.0693-.0609.1005l1.5731 1.235c.1251-.1592.2285-.331.3099-.5108zm1.8214.8263c.1562-.3436.229-.7108.2231-1.0735l-1.9997.0327c.0012.0733-.0135.1458-.044.2129zm-1.8273-1.2537c.0326.0661.0495.1382.0506.2115l1.9998-.0298c-.0054-.3627-.0896-.7275-.2565-1.066zm1.7946-.8827c-.0869-.1772-.1957-.3457-.3257-.501l-1.5337 1.2836c.0254.0304.0468.0635.064.0986zm-5.8448-4.1988 3.9714 4.9643 1.5617-1.2494-3.9714-4.9643zm-.0218-.0265c.0056.0064.0111.013.0164.0198l1.5725-1.2359c-.0262-.0333-.0533-.066-.0811-.0979zm-.16-.1227c.0587.0282.1128.0684.1593.1218l1.5092-1.3123c-.2291-.2635-.5039-.469-.8034-.6127zm-.1958-.0489c.0707.0029.1359.0201.1945.0483l.8677-1.802c-.2993-.1441-.6315-.2303-.9803-.2446zm-.0269-.0004c.0086-.0001.0172 0 .0257.0004l.0842-1.9982c-.0423-.0018-.0846-.0025-.127-.0022zm-5.9808 0h5.9723v-2h-5.9723zm8.8698 4.9049-.6028-.7534-1.5617 1.2494.6027.7534zm-2.3836-.1287v1.5571h2v-1.5571zm.8027.1534-.6027.8037 1.6 1.2.6027-.8037zm-10.20553 1.2.6028.8038 1.6-1.2-.6028-.8038zm.62193-1.9782-.6028.7535 1.56173 1.2494.60281-.7535zm1.7809 2.182v-1.5573h-2.00003v1.5573z" fill="#333"/><path clip-rule="evenodd" d="m17.6292 24.834-2 2.6666c-.8285 1.1046-.6046 2.6716.5 3.5 1.1045.8285 2.6715.6046 3.5-.5l2.625-3.5h-2.5l-1.725 2.3c-.1657.221-.4791.2657-.7.1-.2209-.1656-.2657-.479-.1-.7l1.275-1.7h-.875z" fill="#333" fill-rule="evenodd"/><path clip-rule="evenodd" d="m9.6251 24.834 2 2.6666c.8284 1.1046.6046 2.6716-.5 3.5-1.1046.8285-2.67158.6046-3.5-.5l-2.62507-3.5h2.5l1.72507 2.3c.16568.221.47908.2657.7.1.2209-.1656.2657-.479.1-.7l-1.27507-1.7h.87507z" fill="#333" fill-rule="evenodd"/><g stroke="#333" stroke-width="2"><path d="m8.62915 20v-2c0-1.1046.89543-2 2.00005-2"/><path d="m18.6292 20v-2c0-1.1046-.8955-2-2-2"/><path d="m32.6292 18v5.8918c0 .6894-.3551 1.3302-.9396 1.6958l-1.5696.9814"/><path d="m36.6292 18v5.9139c0 .6774.3428 1.3087.911 1.6775l1.5334.9955"/></g><path d="m30.4579 19.063.7809.6247zm1.1852-.563-.0086 1h.0086zm-5.1653 5.5381.7669.6418.0071-.0085.0069-.0086zm-.1949.2998.897.4421.0007-.0015zm-.1535.6387.9998.0163v-.0014zm.1335.6432.911-.4124-.0007-.0016zm.1854.3057.8-.6-.0066-.0089-.0068-.0086zm2.9299 3.9064.9662.2577.1251-.4692-.2913-.3885zm-1.3782 5.1681-.9662-.2577-.3354 1.2577h1.3016zm2.1293 0h1v-1h-1zm3 0v-1h-1v1zm3 0h1v-1h-1zm3 0v-1h-1v1zm1.8707 0v1h1.477l-.5485-1.3714zm-1.8389-4.5973-.3536-.9353-.9534.3604.3785.9463zm.6681-.5027-.8-.6zm2.981-3.9746-.7866-.6175-.0068.0087-.0066.0088zm.1854-.3056-.9103-.414-.0008.0016zm.1335-.6432-.9999.0149.0001.0014zm-.1536-.6387-.8977.4406.0008.0015zm-.1949-.2998-.7808.6247.0069.0086.0071.0085zm-3.9714-4.9643-.7862.618.0054.0067zm-.0487-.0588-.7546.6561.0007.0009zm-.4813-.3673-.4339.901.0013.0006zm-.5875-.1464-.0421.9991h.0012zm-.0763-.0013v1h.0085zm2.1166 6.5296.8.6.4648-.6197-.4839-.605zm-.6027-.7534.7808-.6247-1.7808-2.2261v2.8508zm0 1.5571h-1v3l1.8-2.4zm-9.6028-.8037-.7809-.6247-.484.605.4649.6197zm.6028.8038-.8.6 1.8 2.4v-3zm0-1.5573h1v-2.8507l-1.7809 2.226zm7.4999-11.2761c0 1.6569-1.3431 3-3 3v2c2.7615 0 5-2.2386 5-5zm-3-3c1.6569 0 3 1.3431 3 3h2c0-2.7614-2.2385-5-5-5zm-3 3c0-1.6569 1.3432-3 3-3v-2c-2.7614 0-5 2.2386-5 5zm3 3c-1.6568 0-3-1.3431-3-3h-2c0 2.7614 2.2386 5 5 5zm-3.3904 3.6877c.0994-.1243.2449-.189.3957-.1877l.0172-2c-.738-.0063-1.4757.3146-1.9746.9383zm-3.9801 4.9751 3.9801-4.9751-1.5617-1.2494-3.9801 4.9751zm-.0781.1157c.0173-.0351.0386-.0682.0641-.0986l-1.5338-1.2836c-.1299.1553-.2387.3238-.3257.501zm-.0514.213c.0011-.0733.0181-.1453.0507-.2115l-1.7939-.8843c-.1669.3385-.2511.7033-.2565 1.066zm.044.2143c-.0305-.0671-.0452-.1396-.044-.2129l-1.9997-.0327c-.0059.3627.0669.7299.2231 1.0735zm.0617.1022c-.0245-.0313-.0449-.065-.061-.1006l-1.822.8247c.0814.1798.1848.3516.3099.5109zm2.9433 3.9239-2.9299-3.9064-1.6 1.2 2.9299 3.9064zm-1.212 6.0258 1.3782-5.1681-1.9325-.5154-1.3781 5.1681zm1.1631-1.2577h-2.1293v2h2.1293zm1 7v-6h-2v6zm.5.5c-.2762 0-.5-.2239-.5-.5h-2c0 1.3807 1.1193 2.5 2.5 2.5zm.5-.5c0 .2761-.2239.5-.5.5v2c1.3807 0 2.5-1.1193 2.5-2.5zm0-6v6h2v-6zm4-1h-3v2h3zm1 7v-6h-2v6zm.5.5c-.2762 0-.5-.2239-.5-.5h-2c0 1.3807 1.1193 2.5 2.5 2.5zm.5-.5c0 .2761-.2239.5-.5.5v2c1.3807 0 2.5-1.1193 2.5-2.5zm0-6v6h2v-6zm2.8707-1h-1.8707v2h1.8707zm-2.7674-3.2259 1.8389 4.5973 1.857-.7428-1.8389-4.5972zm1.2821.564c.4297-.1624.82-.4454 1.1145-.8381l-1.6-1.2c-.06.08-.1368.1353-.2217.1674zm1.1145-.8381 2.981-3.9746-1.6-1.2-2.981 3.9746zm1.4553-5.2926c-.0161.0356-.0364.0693-.0609.1005l1.5731 1.235c.1251-.1592.2285-.331.3099-.5108zm1.8214.8263c.1562-.3436.229-.7108.2231-1.0735l-1.9997.0327c.0012.0733-.0135.1458-.044.2129zm-1.8273-1.2537c.0326.0661.0495.1382.0506.2115l1.9998-.0298c-.0054-.3627-.0896-.7275-.2565-1.066zm1.7946-.8827c-.0869-.1772-.1957-.3457-.3257-.501l-1.5337 1.2836c.0254.0304.0468.0635.064.0986zm-5.8448-4.1988 3.9714 4.9643 1.5617-1.2494-3.9714-4.9643zm-.0218-.0265c.0056.0064.0111.013.0164.0198l1.5725-1.2359c-.0262-.0333-.0533-.066-.0811-.0979zm-.16-.1227c.0587.0282.1128.0684.1593.1218l1.5092-1.3123c-.2291-.2635-.5039-.469-.8034-.6127zm-.1958-.0489c.0707.0029.1359.0201.1945.0483l.8677-1.802c-.2993-.1441-.6315-.2303-.9803-.2446zm-.0269-.0004c.0086-.0001.0172 0 .0257.0004l.0842-1.9982c-.0423-.0018-.0846-.0025-.127-.0022zm-5.9808 0h5.9723v-2h-5.9723zm8.8698 4.9049-.6028-.7534-1.5617 1.2494.6027.7534zm-2.3836-.1287v1.5571h2v-1.5571zm.8027.1534-.6027.8037 1.6 1.2.6027-.8037zm-10.2055 1.2.6028.8038 1.6-1.2-.6028-.8038zm.6219-1.9782-.6028.7535 1.5617 1.2494.6028-.7535zm1.7809 2.182v-1.5573h-2v1.5573z" fill="#333"/><path clip-rule="evenodd" d="m38.6292 24.834-2 2.6666c-.8285 1.1046-.6046 2.6716.5 3.5 1.1045.8285 2.6715.6046 3.5-.5l2.625-3.5h-2.5l-1.725 2.3c-.1657.221-.4791.2657-.7.1-.2209-.1656-.2657-.479-.1-.7l1.275-1.7h-.875z" fill="#333" fill-rule="evenodd"/><path clip-rule="evenodd" d="m30.6251 24.834 2 2.6666c.8284 1.1046.6046 2.6716-.5 3.5-1.1046.8285-2.6716.6046-3.5-.5l-2.6251-3.5h2.5l1.7251 2.3c.1657.221.4791.2657.7.1.2209-.1656.2657-.479.1-.7l-1.2751-1.7h.8751z" fill="#333" fill-rule="evenodd"/><path d="m29.6292 20v-2c0-1.1046.8954-2 2-2" stroke="#333" stroke-width="2"/><path d="m39.6292 20v-2c0-1.1046-.8955-2-2-2" stroke="#333" stroke-width="2"/><path d="m38.6271 5.40545c0-.29765-.3406-.49366-.6356-.36555l-3.3644 1.46006 3.3644 1.4602c.295.12797.6356-.0679.6356-.36569z" fill="#333"/><path d="m31.2626 5.0399c-.2949-.12811-.6355.0679-.6355.36555v2.18902c0 .29779.3406.49366.6355.36569l3.3645-1.4602z" fill="#333"/></svg>