<svg fill="none" height="48" viewBox="0 0 48 48" width="48" xmlns="http://www.w3.org/2000/svg"><g clip-rule="evenodd" fill="#333" fill-rule="evenodd"><path d="m8 43c0-.5523.44772-1 1-1h30c.5523 0 1 .4477 1 1s-.4477 1-1 1h-30c-.55228 0-1-.4477-1-1z"/><path d="m12 22v20h5v-20zm-1-2c-.5523 0-1 .4477-1 1v22c0 .5523.4477 1 1 1h7c.5523 0 1-.4477 1-1v-22c0-.5523-.4477-1-1-1z"/><path d="m17 4 16 6v14h-5c-.5523 0-1 .4477-1 1v17h-10zm3 9h2v2h-2zm6 0h-2v2h2zm2 0h2v2h-2zm-6 4h-2v2h2zm2 0h2v2h-2zm6 0h-2v2h2zm-10 4h2v2h-2zm6 0h-2v2h2zm2 0h2v2h-2zm-6 4h-2v2h2zm2 0h2v2h-2zm-4 4h2v2h-2zm6 0h-2v2h2zm-4 4h-2v2h2zm2 0h2v2h-2zm-4 4h2v2h-2zm6 0h-2v2h2z"/><path d="m29 26v16h7v-16zm-1-2c-.5523 0-1 .4477-1 1v18c0 .5523.4477 1 1 1h9c.5523 0 1-.4477 1-1v-18c0-.5523-.4477-1-1-1z"/><path d="m34 30h-3v-2h3z"/><path d="m34 34h-3v-2h3z"/><path d="m34 38h-3v-2h3z"/><path d="m34 42h-3v-2h3z"/><path d="m15 13v8h-2v-8z"/></g></svg>