<svg fill="none" height="48" viewBox="0 0 48 48" width="48" xmlns="http://www.w3.org/2000/svg"><g fill="#333"><path clip-rule="evenodd" d="m34.5 34.5 8.2059-2.4558.5882 1.9115-9.7941 3.0443z" fill-rule="evenodd"/><path clip-rule="evenodd" d="m37 21c-.5523 0-1-.4477-1-1v-7c0-.5523.4477-1 1-1s1 .4477 1 1v7c0 .5523-.4477 1-1 1z" fill-rule="evenodd"/><path d="m29 10h9v6h-9z"/><g clip-rule="evenodd" fill-rule="evenodd"><path d="m36 12h-5v2h5zm-7-2v6h9v-6z"/><path d="m9.01446 20.138c.38733-1.269 1.57564-2.138 2.92364-2.138h25.6446l6.3522 14.6489c.1973.5171-.0692 1.0935-.5954 1.2874-.5261.1939-1.1126-.0681-1.3099-.5852l-5.0448-11.2222-4.8023 13.7331c-.3873 1.269-1.5756 2.138-2.9236 2.138h-22.20457c-2.04464 0-3.51112-1.9372-2.9236-3.862zm10.01544 11.6197c-.134.5358.1918 1.0787.7276 1.2127.5358.1339 1.0787-.1918 1.2126-.7276l.8107-3.2428h3.2192c.5523 0 1-.4477 1-1s-.4477-1-1-1h-2.7192l.6893-2.7572c.134-.5358-.1918-1.0788-.7276-1.2127-.5358-.134-1.0787.1918-1.2126.7276l-.8106 3.2423h-3.2193c-.5523 0-1 .4477-1 1s.4477 1 1 1h2.7193z"/><path d="m10.9158 20.7595-4.88007 13.9896c-.15982.5874.28099 1.2509 1.0186 1.2509h22.20457c.4878 0 .8859-.3128 1.0108-.7218l.0117-.0384 5.3291-15.2398h-23.6724c-.4878 0-.8859.3128-1.0108.7218zm26.069 1.3694 5.0448 11.2222c.1973.5171.7838.7791 1.3099.5852.5262-.1939.7927-.7703.5954-1.2874l-6.3522-14.6489h-25.6446c-1.348 0-2.53631.869-2.92364 2.138l-4.88373 14c-.58752 1.9248.87896 3.862 2.9236 3.862h22.20457c1.348 0 2.5363-.869 2.9236-2.138zm-19.9848 6.8711c-.5523 0-1-.4477-1-1s.4477-1 1-1h3.2193l.8106-3.2423c.1339-.5358.6768-.8616 1.2126-.7276.5358.1339.8616.6769.7276 1.2127l-.6893 2.7572h2.7192c.5523 0 1 .4477 1 1s-.4477 1-1 1h-3.2192l-.8107 3.2428c-.1339.5358-.6768.8615-1.2126.7276-.5358-.134-.8616-.6769-.7276-1.2127-.0001.0003 0-.0003 0 0l.6894-2.7577zm6.3424 2-.432 1.7278c-.4018 1.6074-2.0306 2.5847-3.638 2.1829-1.6074-.4019-2.5847-2.0307-2.1828-3.6381l.0681-.2726h-.1577c-1.6569 0-3-1.3432-3-3 0-1.6569 1.3431-3 3-3h1.6577l.4319-1.7274c.4018-1.6074 2.0306-2.5846 3.638-2.1828 1.6074.4019 2.5847 2.0307 2.1828 3.638l-.068.2722h.1576c1.6569 0 3 1.3431 3 3 0 1.6568-1.3431 3-3 3z"/></g></g></svg>