<svg fill="none" height="48" viewBox="0 0 48 48" width="48" xmlns="http://www.w3.org/2000/svg"><g fill="#333"><path clip-rule="evenodd" d="m12.488 17c-1.3248 0-2.49279.869-2.87348 2.138l-4.8 16c-.57745 1.9248.86389 3.862 2.87348 3.862h21.8239c1.3248 0 2.4928-.869 2.8735-2.138l4.7199-15.7331 4.9583 13.2222c.1939.5171.7703.7791 1.2875.5852.5171-.1939.7791-.7703.5852-1.2874l-6.2434-16.6489zm7.2694 15.9699c-.5358-.134-.8615-.6769-.7276-1.2127l.6894-2.7577h-2.7193c-.5522 0-1-.4477-1-1s.4478-1 1-1h3.2193l.8106-3.2423c.134-.5358.6769-.8615 1.2127-.7276.5358.134.8615.6769.7276 1.2127l-.6893 2.7572h2.7191c.5523 0 1 .4477 1 1s-.4477 1-1 1h-3.2191l-.8107 3.2428c-.134.5358-.6769.8615-1.2127.7276z" fill-rule="evenodd"/><path clip-rule="evenodd" d="m37 19c-.5523 0-1-.4477-1-1v-7c0-.5523.4477-1 1-1s1 .4477 1 1v7c0 .5523-.4477 1-1 1z" fill-rule="evenodd"/><path d="m28 10c0-1.10457.8954-2 2-2h6c1.1046 0 2 .89543 2 2v3c0 1.1046-.8954 2-2 2h-6c-1.1046 0-2-.8954-2-2z"/></g></svg>