<svg fill="none" height="48" viewBox="0 0 48 48" width="48" xmlns="http://www.w3.org/2000/svg"><path clip-rule="evenodd" d="m24 18c0 6.1767-3.5 11.2635-8 11.9268v8.0732 1h16v-8.9543h-4.7273c-1.8074 0-3.2727-1.4652-3.2727-3.2727 0-1.2796.7344-2.3877 1.8047-2.9258-.1095-.3693-.1683-.7603-.1683-1.1651 0-1.7256 1.0684-3.2016 2.5797-3.8027-.0819-.3557-.1252-.726-.1252-1.1065 0-2.7113 2.1978-4.9091 4.9091-4.9091 2.7112 0 4.909 2.1978 4.909 4.9091 0 .3804-.0432.7508-.1251 1.1064 1.5114.6011 2.5798 2.0772 2.5798 3.8028 0 .4048-.0588.7959-.1684 1.1651 1.0703.5381 1.8047 1.6462 1.8047 2.9258 0 1.8075-1.4652 3.2727-3.2727 3.2727h-4.7273v8.9543h6.5c.8284 0 1.5.6716 1.5 1.5s-.6716 1.5-1.5 1.5h-33c-.82843 0-1.5-.6716-1.5-1.5s.67157-1.5 1.5-1.5h6.5v-1-8.0732c-4.49995-.6633-8-5.7501-8-11.9268 0-6.6274 4.0294-12 9-12s9 5.3726 9 12z" fill="#333" fill-rule="evenodd"/></svg>