<svg fill="none" height="48" viewBox="0 0 48 48" width="48" xmlns="http://www.w3.org/2000/svg"><g fill="#333"><path d="m14 21c0-.5523.4477-1 1-1s1 .4477 1 1v18c0 .5523-.4477 1-1 1s-1-.4477-1-1z"/><path d="m6 40.5c0-.8284.67157-1.5 1.5-1.5h33c.8284 0 1.5.6716 1.5 1.5s-.6716 1.5-1.5 1.5h-33c-.82843 0-1.5-.6716-1.5-1.5z"/><path d="m29.4336 23.2187 3.6134-2.5211c.4323-.3071.9582-.4649 1.4937-.4479.6531.0158 1.2849.2287 1.8076.6092.5227.3806.9102.9097 1.1088 1.5139.2235.6802.4278 1.1398.6129 1.3789.5591.7243 1.2845 1.312 2.1184 1.7166.834.4046 1.185.6143 2.6859.6143s1.5009 2.3332 0 2.3332-2.4668-.2645-3.5893-.7783-2.1136-1.2628-2.9022-2.193l-.8375 4.6138 2.4766 2.0182 2.6714 7.1256-2.2592.7979-2.4514-6.5376-4.0737-3.3189c-.3343-.2621-.5902-.6064-.7409-.997-.1506-.3907-.1907-.8134-.1159-1.2242l.6116-3.3656-.8135.574s-1.5273 2.0984-2.556 3.4157c-1.0287 1.3174-3.1236.1231-1.9443-1.3719s2.6451-3.5538 2.6451-3.5538zm6.8315-3.5523c-.6375 0-1.2488-.2459-1.6995-.6834-.4507-.4376-.7039-1.031-.7039-1.6498s.2532-1.2123.7039-1.6498c.4507-.4376 1.062-.6834 1.6995-.6834.6374 0 1.2487.2458 1.6994.6834.4507.4375.7039 1.031.7039 1.6498s-.2532 1.2122-.7039 1.6498c-.4507.4375-1.062.6834-1.6994.6834zm-3.5714 15.3768-3.8622 4.468-2.4815-.5961 4.2167-5.0397.8964-2.5432 2.1523 1.7499z"/><path clip-rule="evenodd" d="m20.847 13.3522c.1001-.4346.153-.8872.153-1.3522 0-3.31371-2.6863-6-6-6s-6 2.68629-6 6c0 .465.05289.9176.15299 1.3522-1.84721.7347-3.15299 2.5388-3.15299 4.6478 0 .4948.07186.9727.20571 1.424-1.30813.6577-2.20571 2.012-2.20571 3.576 0 2.2091 1.79086 4 4 4h14c2.2091 0 4-1.7909 4-4 0-1.564-.8976-2.9183-2.2057-3.576.1338-.4513.2057-.9292.2057-1.424 0-2.109-1.3058-3.9131-3.153-4.6478z" fill-rule="evenodd"/></g></svg>