<svg fill="none" height="48" viewBox="0 0 48 48" width="48" xmlns="http://www.w3.org/2000/svg"><path d="m41.7083 23.794-17.6504-17.70831-17.76385 17.70591c-.39116.3899-.3922 1.0231-.00231 1.4143.38989.3911 1.02305.3922 1.41421.0023l3.29405-3.2833v19.0749c0 .5523.4477 1 1 1h7c.5523 0 1-.4477 1-1v-7.9998c0-1.1046.8954-2 2-2h4c1.1046 0 2 .8954 2 2v7.9998c0 .5523.4477 1 1 1h7c.5523 0 1-.4477 1-1v-19.0965l3.2917 3.3026c.3899.3911 1.0231.3922 1.4142.0023.3912-.3899.3922-1.0231.0024-1.4142z" fill="#333"/></svg>