<svg fill="none" height="48" viewBox="0 0 48 48" width="48" xmlns="http://www.w3.org/2000/svg"><g fill="#333"><g clip-rule="evenodd" fill-rule="evenodd"><path d="m8 43c0-.5523.44772-1 1-1h30c.5523 0 1 .4477 1 1s-.4477 1-1 1h-30c-.55228 0-1-.4477-1-1z"/><path d="m19 8h-9v-2h9z"/><path d="m38 8h-9v-2h9z"/><path d="m19 11h-7v-2h7z"/><path d="m36 11h-7v-2h7z"/><path d="m32 38h-16v-2h16z"/><path d="m29 4h-10c-1.1046 0-2 .89543-2 2v10c0 1.1046.8954 2 2 2h10c1.1046 0 2-.8954 2-2v-10c0-1.10457-.8954-2-2-2zm-4 3v3h3v2h-3v3h-2v-3h-3v-2h3v-3z"/><path d="m26 6v3h3v4h-3v3h-4v-3h-3v-4h3v-3zm-3 4h-3v2h3v3h2v-3h3v-2h-3v-3h-2zm6-5h-10c-.5523 0-1 .44772-1 1v10c0 .5523.4477 1 1 1h10c.5523 0 1-.4477 1-1v-10c0-.55228-.4477-1-1-1zm-10-1h10c1.1046 0 2 .89543 2 2v10c0 1.1046-.8954 2-2 2h-10c-1.1046 0-2-.8954-2-2v-10c0-1.10457.8954-2 2-2z"/></g><path d="m16 20h4v3h-4z"/><path d="m16 25h4v3h-4z"/><path d="m16 30h4v3h-4z"/><path d="m22 20h4v3h-4z"/><path d="m22 25h4v3h-4z"/><path d="m22 30h4v3h-4z"/><path d="m28 20h4v3h-4z"/><path d="m28 25h4v3h-4z"/><path d="m28 30h4v3h-4z"/><path clip-rule="evenodd" d="m12 42v-35h2v35z" fill-rule="evenodd"/><path clip-rule="evenodd" d="m34 42v-35h2v35z" fill-rule="evenodd"/><path clip-rule="evenodd" d="m23 36h-6v6h6zm2 0v6h6v-6z" fill-rule="evenodd"/><path clip-rule="evenodd" d="m29 42v-4h2v4z" fill-rule="evenodd"/><path clip-rule="evenodd" d="m17 42v-4h2v4z" fill-rule="evenodd"/></g></svg>