<svg fill="none" height="48" viewBox="0 0 48 48" width="48" xmlns="http://www.w3.org/2000/svg"><path clip-rule="evenodd" d="m37 6h-24c-1.1046 0-2 .89543-2 2v5.5858l3.2929-3.2929 1.4142 1.4142-4.7071 4.7071v2.1716l3.2929-3.2929 1.4142 1.4142-4.7071 4.7071v2.1716l3.2929-3.2929 1.4142 1.4142-4.7071 4.7071v2.1716l3.2929-3.2929 1.4142 1.4142-4.7071 4.7071v2.1716l3.2929-3.2929 1.4142 1.4142-4.7071 4.7071v3.5858c0 1.1046.8954 2 2 2h24c1.1046 0 2-.8954 2-2v-3.5858l-4.7071-4.7071 1.4142-1.4142 3.2929 3.2929v-2.1716l-4.7071-4.7071 1.4142-1.4142 3.2929 3.2929v-2.1716l-4.7071-4.7071 1.4142-1.4142 3.2929 3.2929v-2.1716l-4.7071-4.7071 1.4142-1.4142 3.2929 3.2929v-2.1716l-4.7071-4.7071 1.4142-1.4142 3.2929 3.2929v-5.5858c0-1.10457-.8954-2-2-2zm-24-2c-2.2091 0-4 1.79086-4 4v32c0 2.2091 1.7909 4 4 4h24c2.2091 0 4-1.7909 4-4v-32c0-2.20914-1.7909-4-4-4zm20 11v-3c0-2.20914-1.7909-4-4-4h-8c-2.2091 0-4 1.79086-4 4v3 20c0 2.2091 1.7909 4 4 4h8c2.2091 0 4-1.7909 4-4zm-2 0c0-1.1046-.8954-2-2-2h-8c-1.1046 0-2 .8954-2 2v20c0 1.1046.8954 2 2 2h8c1.1046 0 2-.8954 2-2zm-4 3c0 1.1046-.8954 2-2 2s-2-.8954-2-2 .8954-2 2-2 2 .8954 2 2z" fill="#333" fill-rule="evenodd"/></svg>