<svg fill="none" height="48" viewBox="0 0 48 48" width="48" xmlns="http://www.w3.org/2000/svg"><path clip-rule="evenodd" d="m34 6h-20c-1.1046 0-2 .89543-2 2v5.4072l2.8979-3.0911 1.4591 1.3678-4.357 4.6475v2.0758l2.8979-3.0911 1.4591 1.3678-4.357 4.6475v2.0758l2.8979-3.0911 1.4591 1.3678-4.357 4.6475v2.0758l2.8979-3.0911 1.4591 1.3678-4.357 4.6475v2.0758l2.8979-3.0911 1.4591 1.3678-4.357 4.6475v3.6686c0 1.1046.8954 2 2 2h20c1.1046 0 2-.8954 2-2v-3.6766l-4.3495-4.6395 1.459-1.3678 2.8905 3.0831v-2.0758l-4.3495-4.6395 1.459-1.3678 2.8905 3.0831v-2.0758l-4.3495-4.6395 1.459-1.3678 2.8905 3.0831v-2.0758l-4.3495-4.6395 1.459-1.3678 2.8905 3.0831v-2.0758l-4.3495-4.6395 1.459-1.3678 2.8905 3.0831v-5.3992c0-1.10457-.8954-2-2-2zm-20-2c-2.2091 0-4 1.79086-4 4v32c0 2.2091 1.7909 4 4 4h20c2.2091 0 4-1.7909 4-4v-32c0-2.20914-1.7909-4-4-4zm14.1894 4.17983c1.6283.50643 2.8106 2.02527 2.8106 3.82017v23c0 1.1995-.528 2.2756-1.3642 3.0088-.6076.5327-1.378.8843-2.2269.9705-.1344.0137-.2708.0207-.4089.0207h-6c-.8284 0-1.5981-.2518-2.2365-.6831-1.064-.7189-1.7635-1.9362-1.7635-3.3169v-23c0-2.20914 1.7908-4 4-4h6c-.0001 0 0 0 0 0 .4142.00001.8137.06296 1.1894.17983zm-8.3077 28.47857c.3192.2157.704.3416 1.1183.3416h6c.069 0 .1372-.0035.2044-.0103.4203-.0427.8022-.2155 1.1046-.4776.4232-.3667.691-.9081.691-1.5121v-21.0137c-.0074-1.0983-.9-1.9863-2-1.9863h-6c-1.1046 0-2 .8954-2 2v21c0 .6903.3497 1.299.8817 1.6584zm5.9933-18.6584c0 1.1046-.8395 2-1.875 2s-1.875-.8954-1.875-2 .8395-2 1.875-2 1.875.8954 1.875 2z" fill="#333" fill-rule="evenodd"/></svg>