<svg fill="none" height="48" viewBox="0 0 48 48" width="48" xmlns="http://www.w3.org/2000/svg"><g fill="#333"><path clip-rule="evenodd" d="m9.26322 6c-.37781 0-.7154.26219-.84521.65642l-2.30843 7.01078c-.07249.2202-.10958.4527-.10958.6872v2.7885c0 1.5779 1.15127 2.8571 2.57143 2.8571s2.57147-1.2792 2.57147-2.8571c0 1.5779 1.1512 2.8571 2.5714 2.8571 1.4201 0 2.5714-1.2792 2.5714-2.8571 0 1.5779 1.1513 2.8571 2.5714 2.8571 1.4195 0 2.5703-1.2779 2.5715-2.8548.0011 1.5769 1.1519 2.8548 2.5714 2.8548 1.4202 0 2.5714-1.2792 2.5714-2.8571 0 1.5779 1.1513 2.8571 2.5715 2.8571 1.4194 0 2.5702-1.2779 2.5714-2.8548.0011 1.5769 1.152 2.8548 2.5714 2.8548 1.4202 0 2.5714-1.2792 2.5714-2.8571 0 1.5779 1.1513 2.8571 2.5715 2.8571 1.4201 0 2.5714-1.2792 2.5714-2.8571v-2.7885c0-.2345-.0371-.467-.1096-.6872l-2.3084-7.01078c-.1298-.39424-.4674-.65642-.8452-.65642z" fill-rule="evenodd"/><path clip-rule="evenodd" d="m9 21.4771v6.5229h-1.5c-.27614 0-.5.2239-.5.5v1c0 .2761.22386.5.5.5h33c.2761 0 .5-.2239.5-.5v-1c0-.2761-.2239-.5-.5-.5h-1.5v-6.5229c-.7634-.0824-1.4418-.383-2-.8305v7.3534h-26v-7.3534c-.5582.4475-1.2366.7481-2 .8305zm28.4744-2.4771c.0972.1261.2041.2427.3194.3484.3399.3113.7529.5276 1.2062.6121v-.9605zm-28.4744.9605v-.9605h1.5256c-.0972.1261-.2041.2427-.3194.3484-.33986.3113-.75292.5276-1.2062.6121zm-.5 11.0395c-.27614 0-.5.2239-.5.5v9.5c0 .5523.44772 1 1 1h30c.5523 0 1-.4477 1-1v-9.5c0-.2761-.2239-.5-.5-.5z" fill-rule="evenodd"/><path d="m12 25.5c0-.2761.2239-.5.5-.5h3c.2761 0 .5.2239.5.5v2c0 .2761-.2239.5-.5.5h-3c-.2761 0-.5-.2239-.5-.5z"/><path d="m14 26.5c0-.2761.2239-.5.5-.5h3c.2761 0 .5.2239.5.5v1c0 .2761-.2239.5-.5.5h-3c-.2761 0-.5-.2239-.5-.5z"/><path d="m22 26.5c0 .8284-.6716 1.5-1.5 1.5s-1.5-.6716-1.5-1.5.6716-1.5 1.5-1.5 1.5.6716 1.5 1.5z"/></g></svg>