<svg fill="none" height="48" viewBox="0 0 48 48" width="48" xmlns="http://www.w3.org/2000/svg"><path clip-rule="evenodd" d="m6.19482 14.9323c1.26574-.4027 2.26911-.6345 3.30513-.6345 1.03255 0 2.03265.2302 3.29245.6305-.8912-4.0664-3.2924-8.88045-3.2924-8.88045s-2.47294 4.99575-3.30518 8.88445zm6.80518 2.1696-.3163-.1054c-1.4852-.4951-2.3554-.6987-3.18375-.6987-.8284 0-1.69855.2036-3.18378.6987l-.31617.1054v24.946h7zm4 10.946v4l-2-.0001 4 .0001v-1c0-.5523.4477-1 1-1s1 .4477 1 1v1h2v-1c0-.5523.4477-1 1-1s1 .4477 1 1v1h2v-1c0-.5523.4477-1 1-1s1 .4477 1 1v1h4-2v-4zm15.2068-2h-16.4136c-.5096-1.1564-.7932-2.4959-.7932-4.0001 0-3.7649 3.1754-6.4985 5.8358-8.7888.8018-.6903 1.5569-1.3403 2.1642-1.9662v-3.24495h2v3.24495c.6073.6259 1.3624 1.2759 2.1642 1.9662 2.6604 2.2903 5.8358 5.0239 5.8358 8.7888 0 1.5042-.2836 2.8437-.7932 4.0001zm2.7932 16h7v-24.9998c-.1048 0-.2114-.0166-.3163-.0516-1.4852-.4951-2.3554-.6987-3.1837-.6987-.8284 0-1.6986.2036-3.1838.6987l-.3162.1054zm.1948-27.1156c1.2658-.4027 2.2691-.6345 3.3051-.6345 1.0326 0 2.0327.2302 3.2925.6305-.8912-4.0664-3.2924-8.88045-3.2924-8.88045s-2.4729 4.99575-3.3052 8.88445zm-2.1948 27.1156v-8h-18v8h3.9999v-1.1193c0-1.5541.9002-2.9675 2.3085-3.6247l2.6915-1.2561 2.6916 1.2561c1.4083.6572 2.3084 2.0706 2.3084 3.6247v1.1193z" fill="#333" fill-rule="evenodd"/></svg>