<svg fill="none" height="48" viewBox="0 0 48 48" width="48" xmlns="http://www.w3.org/2000/svg"><g fill="#333"><path d="m25.381 9.54292c-.7605-.7239-2.0015-.72389-2.762 0l-15.28344 14.54928c-.48157.4584-.46226 1.1014.1716 1.3449 1.63726.6289 5.85884 1.5629 16.49284 1.5629s14.8556-.934 16.4928-1.5629c.6339-.2435.6532-.8865.1716-1.3449z"/><path clip-rule="evenodd" d="m23.9881 11.001-13.7618 13.1006c2.2617.4424 6.3973.8984 13.7737.8984s11.512-.456 13.7737-.8984l-13.7618-13.1006c-.0033-.0006-.0073-.001-.0119-.001s-.0086.0004-.0119.001zm16.6763 13.0912c.4816.4584.4623 1.1014-.1716 1.3449-1.6372.6289-5.8588 1.5629-16.4928 1.5629s-14.85558-.934-16.49284-1.5629c-.63386-.2435-.65317-.8865-.1716-1.3449l15.28344-14.54928c.7605-.72389 2.0015-.7239 2.762 0z" fill-rule="evenodd"/><path clip-rule="evenodd" d="m12 29.4071c2.6019.3356 6.4173.593 12 .593s9.3981-.2574 12-.593v11.1586c0 1.4343-8 1.4343-8 1.4343v-5c0-1.9124-1.6923-4-4-4s-4 2.0876-4 4v5s-8 0-8-1.4343z" fill-rule="evenodd"/><path d="m23.0035 6.83045c-.0486-.44704.4115-.83045.9965-.83045s1.0451.38341.9965.83045l-.408 3.75435c-.0255.2347-.2814.4152-.5885.4152s-.563-.1805-.5885-.4152z"/><path d="m26.0001 7.18734c.177-.39087.7056-.50858 1.1449-.25495s.6017.77026.3517 1.11901l-2.0995 2.9288c-.1312.1831-.4096.2215-.6402.0884-.2306-.1332-.3366-.3934-.2436-.5986z"/><path d="m22.167 7.19099c-.1782-.39284-.7077-.51223-1.147-.2586s-.6007.77195-.3496 1.12266l2.109 2.94535c.1318.1841.4106.2233.6413.0901.2306-.1331.3361-.3942.2425-.6004z"/></g></svg>