<svg fill="none" height="48" viewBox="0 0 48 48" width="48" xmlns="http://www.w3.org/2000/svg"><g fill="#333"><path d="m22.5787 8.43569c.7827-.79055 2.06-.79055 2.8426-.00001l15.73 15.88882c.4956.5007.4757 1.2029-.1767 1.4688-1.685.6868-6.03 1.7067-16.9746 1.7067s-15.28952-1.0199-16.97461-1.7067c-.65238-.2659-.67225-.9681-.17661-1.4688z"/><path d="m23.0831 3.99655c-.0447-.53646.3786-.99655.9169-.99655s.9617.46009.917.99655l-.3754 4.50518c-.0235.28164-.259.49827-.5416.49827s-.518-.21663-.5415-.49827z"/><path d="m25.9577 4.27554c.2295-.48693.8261-.67371 1.2923-.40455.4662.26915.6028.87928.2959 1.32151l-2.5778 3.71388c-.1611.23218-.4733.30207-.7181.16076-.2447-.14131-.3403-.44664-.2198-.70228z"/><path d="m22.0423 4.27554c-.2295-.48693-.8261-.67371-1.2923-.40455-.4662.26915-.6028.87928-.2959 1.32151l2.5778 3.71388c.1611.23218.4733.30207.7181.16076.2447-.14131.3403-.44664.2198-.70228z"/><path clip-rule="evenodd" d="m11 28.8528c0-.3052.2707-.5392.5732-.4986 2.7819.3729 6.7507.6442 12.4268.6442s9.6449-.2713 12.4268-.6442c.3025-.0406.5732.1934.5732.4986v13.1464c0 .8878-3.76 1.6405-8.9638 1.9017-.5658.0284-1.0362-.4257-1.0362-.9922v-4.9083c0-1.6568-1.3431-3-3-3s-3 1.3432-3 3v4.9083c0 .5665-.4704 1.0206-1.0362.9922-5.2038-.2612-8.9638-1.0139-8.9638-1.9017z" fill-rule="evenodd"/></g></svg>