<svg fill="none" height="48" viewBox="0 0 48 48" width="48" xmlns="http://www.w3.org/2000/svg"><g clip-rule="evenodd" fill="#333" fill-rule="evenodd"><path d="m25.381 6.57309c-.7605-.76412-2.0015-.76412-2.762 0l-15.28344 15.35761c-.48157.4839-.46226 1.1626.1716 1.4196.57097.2315 1.45626.5022 2.81824.7565l11.6746-14.1068-8.4533 14.5584c1.7401.1806 3.9045.3234 6.5947.3938l3.8586-14.9522v15c10.634 0 14.8556-.9859 16.4928-1.6497.6339-.257.6532-.9357.1716-1.4196z"/><path d="m12.0002 26.2192c2.6304.3659 6.4538.6437 11.9998.6437 5.5462 0 9.3697-.2779 12.0002-.6438v14.3467c0 1.4342-8 1.4342-8 1.4342v-6c0-1.9123-1.6923-4-4-4s-4 2.0877-4 4v6s-8 0-8-1.4342z"/></g></svg>