<svg fill="none" height="48" viewBox="0 0 48 48" width="48" xmlns="http://www.w3.org/2000/svg"><g clip-rule="evenodd" fill="#333" fill-rule="evenodd"><path d="m11 26.8528c0-.3052.2707-.5392.5732-.4986 2.7819.3729 6.7507.6442 12.4268.6442s9.6449-.2713 12.4268-.6442c.3025-.0406.5732.1934.5732.4986v13.1464c0 .8878-3.76 1.6405-8.9638 1.9017-.5658.0284-1.0362-.4257-1.0362-.9922v-4.9083c0-1.6568-1.3431-3-3-3s-3 1.3432-3 3v4.9083c0 .5665-.4704 1.0206-1.0362.9922-5.2038-.2612-8.9638-1.0139-8.9638-1.9017z"/><path d="m25.4213 6.43471c-.7826-.79055-2.0599-.79055-2.8426 0l-5.0962 5.14769c.0222.0518.0405.1055.0548.1602.2476.9515.954 1.5076 1.5916 1.5076s1.344-.5561 1.5917-1.5076c.1043-.4009.4285-.7426.8439-.7426s.7395.3417.8439.7426c.2476.9515.954 1.5076 1.5916 1.5076s1.344-.5561 1.5917-1.5076c.1043-.4009.4285-.7426.8439-.7426s.7395.3417.8439.7426c.2476.9515.954 1.5076 1.5916 1.5076s1.344-.5561 1.5916-1.5076c.0143-.0547.0327-.1084.0548-.1602zm8.2312 8.31429c-.9858-.0301-1.7999-.5564-2.3458-1.3263-.5624.7932-1.4095 1.3277-2.4356 1.3277s-1.8732-.5345-2.4355-1.3277c-.5624.7932-1.4095 1.3277-2.4356 1.3277s-1.8731-.5345-2.4355-1.3277c-.5624.7932-1.4095 1.3277-2.4356 1.3277s-1.8731-.5345-2.4355-1.3277c-.5459.7699-1.3601 1.2962-2.3459 1.3263l-2.3272 2.3508c.2337.1315.4047.3785.4692.6544.2426 1.0378.9686 1.6456 1.6231 1.6456s1.3805-.6078 1.6231-1.6456c.0956-.4092.4255-.7546.8468-.7546.4212 0 .7511.3454.8467.7546.2426 1.0378.9686 1.6456 1.6231 1.6456s1.3805-.6078 1.6231-1.6456c.0956-.4092.4255-.7546.8468-.7546.4212 0 .7511.3454.8467.7546.2426 1.0378.9686 1.6456 1.6231 1.6456s1.3805-.6078 1.6231-1.6456c.0956-.4092.4255-.7546.8468-.7546.4212 0 .7511.3454.8467.7546.2426 1.0378.9686 1.6456 1.6231 1.6456s1.3805-.6078 1.6231-1.6456c.0956-.4092.4255-.7546.8468-.7546.4212 0 .7511.3454.8467.7546.2426 1.0378.9686 1.6456 1.6231 1.6456s1.3805-.6078 1.6231-1.6456c.0654-.28.2405-.5301.4796-.6602zm6.0437 6.1048c-.2767.0948-.5727.1462-.8851.1462-1.0406 0-1.8995-.5702-2.4698-1.4162-.5703.846-1.4293 1.4162-2.4699 1.4162s-1.8995-.5702-2.4698-1.4162c-.5703.846-1.4293 1.4162-2.4699 1.4162s-1.8995-.5702-2.4698-1.4162c-.5703.846-1.4293 1.4162-2.4699 1.4162s-1.8995-.5702-2.4698-1.4162c-.5703.846-1.4293 1.4162-2.4699 1.4162-1.0405 0-1.8995-.5702-2.4698-1.4162-.5703.846-1.4293 1.4162-2.4699 1.4162-1.0405 0-1.8995-.5702-2.4698-1.4162-.5703.846-1.4293 1.4162-2.46987 1.4162-.30787 0-.59985-.0499-.87316-.1421l-1.45099 1.4656c-.49564.5007-.47577 1.2029.17661 1.4688 1.68509.6868 6.03001 1.7067 16.97461 1.7067s15.2896-1.0199 16.9746-1.7067c.6524-.2659.6723-.9681.1767-1.4688z"/></g></svg>