<svg fill="none" height="48" viewBox="0 0 48 48" width="48" xmlns="http://www.w3.org/2000/svg"><g fill="#333"><g clip-rule="evenodd" fill-rule="evenodd"><path d="m23 12h-18v2h18zm0 4h-15-2v2 19h-1c-.55228 0-1 .4477-1 1s.44772 1 1 1h38c.5523 0 1-.4477 1-1s-.4477-1-1-1h-1v-19-2h-2-1v2h1v19h-3v-12h-8v12h-21v-19h15zm16-2v-2h4v2zm-13 11h-15v7h-1v2h17v-2h-1z"/><path d="m6 18v-5h2v5z"/><path d="m40 18v-5h2v5z"/><path d="m35 10h-8c-1.1046 0-2 .8954-2 2v8c0 1.1046.8954 2 2 2h8c1.1046 0 2-.8954 2-2v-8c0-1.1046-.8954-2-2-2zm-3 3v2h2v2h-2v2h-2v-2h-2v-2h2v-2z"/></g><path d="m8 14h15v2h-15z"/><path d="m40 14h-1v2h1z"/></g></svg>