<svg fill="none" height="48" viewBox="0 0 48 48" width="48" xmlns="http://www.w3.org/2000/svg"><path clip-rule="evenodd" d="m14 10.7622c0 3.5714 3 3.2857 3 3.2857v4s-3.2 7-6 3.8888c0 3.1112 2.8 3.1112 2.8 3.1112h1.2v4s-2.4 7-6 3.8888c0 1.671 1.0385 2.4445 2 2.8026v8.3086h26v-8.3086c.9615-.3581 2-1.1316 2-2.8026-2.749 2.3757-5.0607-1.1445-6-2.9415v-4.9473h1.2s2.8 0 2.8-3.1112c-2.2719 2.5244-5.0376-1.608-6-3.2566v-4.6322s3 .2857 3-3.2857c-4 4.2857-10-6.71435-10-6.71435s-6 11.00005-10 6.71435zm-1 31.2857v-6h2v6zm4 0h2v-2c0-1.1046.8954-2 2-2h6c1.1046 0 2 .8954 2 2v2h2v-6h-14zm16-6v6h2v-6zm-4-22v4h-2v-1c0-.5523-.4477-1-1-1s-1 .4477-1 1v1h-2v-1c0-.5523-.4477-1-1-1s-1 .4477-1 1v1h-2v-4zm-12 15v-4h14v4h-2v-1c0-.5523-.4477-1-1-1s-1 .4477-1 1v1h-2v-1c0-.5523-.4477-1-1-1s-1 .4477-1 1v1h-2v-1c0-.5523-.4477-1-1-1s-1 .4477-1 1v1z" fill="#333" fill-rule="evenodd"/></svg>