<svg fill="none" height="48" viewBox="0 0 48 48" width="48" xmlns="http://www.w3.org/2000/svg"><g fill="#333"><path clip-rule="evenodd" d="m14 14.0479v-2h20v2zm0 2h-1c-.5523 0-1-.4478-1-1v-4c0-.5523.4477-1 1-1h22c.5523 0 1 .4477 1 1v4c0 .5522-.4477 1-1 1h-1v2h2c.5523 0 1 .4477 1 1v4c0 .5522-.4477 1-1 1v2h2c.5523 0 1 .4477 1 1v4c0 .5522-.4477 1-1 1h-1v4h-2v-4h-22v4h-2v-4h-1c-.55228 0-1-.4478-1-1v-4c0-.5523.44772-1 1-1h2v-2c-.5523 0-1-.4478-1-1v-4c0-.5523.4477-1 1-1h2zm23 12v2h-26v-2zm-21-10h16v-2h-16zm-3 2v2h22v-2zm21 4h-20v2h20zm-6 10h-8v8h8z" fill-rule="evenodd"/><path d="m24 6.04785c-2.7614 0-5 2.23858-5 5.00005h10c0-2.76147-2.2386-5.00005-5-5.00005z"/><g clip-rule="evenodd" fill-rule="evenodd"><path d="m20.126 10.0479h7.748c-.4441-1.72528-2.0102-3.00005-3.874-3.00005s-3.4299 1.27477-3.874 3.00005zm-2.126 1c0-3.31376 2.6863-6.00005 6-6.00005s6 2.68629 6 6.00005v1h-12z"/><path d="m25 11h-2v19h2zm-4-2v23h6v-23z"/><path d="m9 40v-2h11v2zm-1 2c-.55228 0-1-.4477-1-1v-4c0-.5523.44772-1 1-1h13c.5523 0 1 .4477 1 1v4c0 .5523-.4477 1-1 1z"/><path d="m28 40v-2h11v2zm-1 2c-.5523 0-1-.4477-1-1v-4c0-.5523.4477-1 1-1h13c.5523 0 1 .4477 1 1v4c0 .5523-.4477 1-1 1z"/></g></g></svg>