<svg fill="none" height="48" viewBox="0 0 48 48" width="48" xmlns="http://www.w3.org/2000/svg"><g fill="#333"><path d="m16.4453 6.16795c.3359-.22393.7735-.22393 1.1094 0l6 3.99995c.2782.1855.4453.4977.4453.8321v8c0 .5523-.4477 1-1 1h-4v-7h-4v7h-4c-.5523 0-1-.4477-1-1v-8c0-.3344.1671-.6466.4453-.8321z"/><path d="m33.5039 12.1318c.3074-.1757.6848-.1757.9922 0l7 4c.3116.178.5039.5093.5039.8682v10c0 .5523-.4477 1-1 1h-5v-8h-4v8h-5c-.5523 0-1-.4477-1-1v-10c0-.3589.1923-.6902.5039-.8682z"/><path d="m6.55279 28.1056 8.00001-4c.2815-.1408.6129-.1408.8944 0l8 4c.3388.1694.5528.5156.5528.8944v12c0 .5523-.4477 1-1 1h-6v-9h-4v9h-6c-.55228 0-1-.4477-1-1v-12c0-.3788.214-.725.55279-.8944z"/></g></svg>