<svg fill="none" height="48" viewBox="0 0 48 48" width="48" xmlns="http://www.w3.org/2000/svg"><g clip-rule="evenodd" fill="#333" fill-rule="evenodd"><path d="m37.9725 27.9747c1.2838-2.0153 2.0275-4.4082 2.0275-6.9747 0-7.1797-5.8203-13-13-13-2.5665 0-4.9593.74375-6.9747 2.0275-1.3674.0773-2.6917.3162-3.9539.6979 2.7359-2.9089 6.6201-4.7254 10.9286-4.7254 8.2843 0 15 6.7157 15 15 0 4.3085-1.8165 8.1927-4.7254 10.9286.3817-1.2622.6207-2.5864.6979-3.9539z"/><path d="m39.9333 28.6028c-.726 1.2324-1.6232 2.3519-2.6587 3.3258.3817-1.2622.6207-2.5864.6979-3.9539 0 .0002.0001-.0002 0 0 1.2835-2.0149 2.0272-4.4072 2.0275-6.9732 0-.0005 0-.001 0-.0015 0-7.1797-5.8203-13-13-13-2.5665 0-4.9593.74375-6.9747 2.0275-1.3674.0773-2.6917.3162-3.9539.6979.974-1.03552 2.0934-1.93263 3.3258-2.65864 2.2201-1.3079 4.8065-2.06047 7.5682-2.06672.0115-.00003.0231-.00004.0346-.00004 8.2843 0 15 6.7157 15 15 0 .151-.0022.3014-.0066.4513-.077 2.6051-.8182 5.0434-2.0601 7.1515z"/><path d="m36 27c0 8.2843-6.7157 15-15 15s-15-6.7157-15-15 6.7157-15 15-15 15 6.7157 15 15zm-16-5c-1.1046 0-2 .8954-2 2s.8954 2 2 2zm2-2v-1h-2v1c-2.2091 0-4 1.7909-4 4s1.7909 4 4 4v4c-.8693 0-1.6114-.5551-1.8865-1.3332-.184-.5208-.7553-.7937-1.276-.6096-.5208.184-.7937.7553-.6096 1.276.5486 1.5523 2.0289 2.6668 3.7721 2.6668v1h2v-1c2.2091 0 4-1.7909 4-4s-1.7909-4-4-4v-4c.8693 0 1.6114.5551 1.8865 1.3332.184.5208.7553.7937 1.276.6096.5208-.184.7937-.7553.6096-1.276-.5486-1.5523-2.0289-2.6668-3.7721-2.6668zm0 8v4c1.1046 0 2-.8954 2-2s-.8954-2-2-2z"/></g></svg>