<svg fill="none" height="48" viewBox="0 0 48 48" width="48" xmlns="http://www.w3.org/2000/svg"><path clip-rule="evenodd" d="m19 10c-2.2091 0-4 1.7909-4 4h-2c0-3.3137 2.6863-6 6-6h10c.5523 0 1 .44772 1 1v1h1v-2h3v6h-3v-2h-1v1c0 .5523-.4477 1-1 1h-2v7.5858l.7071.7071.2929.2929v.4142 16c0 1.6569-1.3431 3-3 3h-1c-1.6569 0-3-1.3431-3-3v-16-.4142l.2929-.2929.7071-.7071v-7.5858h-1c-1.1046 0-2-.8954-2-2zm5 4h1v8 .4142l.2929.2929.7071.7071v15.5858c0 .5523-.4477 1-1 1h-1c-.5523 0-1-.4477-1-1v-15.5858l.7071-.7071.2929-.2929v-.4142z" fill="#333" fill-rule="evenodd"/></svg>