<svg fill="none" height="48" viewBox="0 0 48 48" width="48" xmlns="http://www.w3.org/2000/svg"><path clip-rule="evenodd" d="m9.17647 8.5c-1.75432 0-3.17647 1.43908-3.17647 3.2143v19.2857c0 1.7752 1.42215 3.2143 3.17647 3.2143h10.58813v2.1429h-4.2353v2.1428h16.9412v-2.1428h-4.2352v-2.1429h10.5882c1.7543 0 3.1765-1.4391 3.1765-3.2143v-19.2857c0-1.77522-1.4222-3.2143-3.1765-3.2143zm12.70583 27.8572v-2.1429h4.2354v2.1429zm-8.4704-23.5714h2.1177v2.1428h2.1179v2.1429h-2.1179v2.1428h-2.1177v-2.1428h-2.1174v-2.1429h2.1174zm-2.118 10.7143c0-.5918.4741-1.0715 1.0589-1.0715h4.2353c.5847 0 1.0588.4797 1.0588 1.0715v4.2857c0 .5917-.4741 1.0714-1.0588 1.0714h-4.2353c-.5848 0-1.0589-.4797-1.0589-1.0714zm9.5295-9.6429c0-.5917.474-1.0714 1.0588-1.0714h4.2353c.5848 0 1.0588.4797 1.0588 1.0714v4.2857c0 .5917-.474 1.0714-1.0588 1.0714h-4.2353c-.5848 0-1.0588-.4797-1.0588-1.0714zm-.0002 9.6429c0-.5918.4741-1.0715 1.0589-1.0715h4.2353c.5847 0 1.0588.4797 1.0588 1.0715v4.2857c0 .5917-.4741 1.0714-1.0588 1.0714h-4.2353c-.5848 0-1.0589-.4797-1.0589-1.0714zm9.5295-9.6429c0-.5917.4741-1.0714 1.0589-1.0714h4.2353c.5847 0 1.0588.4797 1.0588 1.0714v4.2857c0 .5917-.4741 1.0714-1.0588 1.0714h-4.2353c-.5848 0-1.0589-.4797-1.0589-1.0714z" fill="#333" fill-rule="evenodd"/></svg>