<svg fill="none" height="48" viewBox="0 0 48 48" width="48" xmlns="http://www.w3.org/2000/svg"><g fill="#333"><g clip-rule="evenodd" fill-rule="evenodd"><path d="m16.4906 12.133c.4789.275.6442.8862.3691 1.3652-.1002.1745-.2687.5305-.3949.9549-.1284.4317-.1889.8545-.1473 1.1938.0242.1965.0722.3009.1142.3702.0528.0871.1207.1628.273.3211.0054.0057.011.0115.0167.0174.1374.1427.348.3615.5247.6529.1949.3215.3318.6981.389 1.1633.0883.7194-.0466 1.4401-.2153 2.0076-.171.5749-.4012 1.0737-.5777 1.381-.275.4789-.8863.6442-1.3652.3691-.4789-.275-.6442-.8862-.3691-1.3652.1002-.1745.2687-.5306.3949-.9549.1284-.4317.1889-.8545.1473-1.1938-.0242-.1965-.0722-.3009-.1142-.3702-.0528-.0871-.1207-.1628-.273-.3211-.0054-.0057-.011-.0115-.0167-.0174-.1374-.1427-.348-.3615-.5247-.653-.1949-.3214-.3318-.698-.389-1.1632-.0883-.7194.0466-1.4401.2153-2.0076.171-.5749.4012-1.0738.5777-1.381.275-.4789.8863-.6442 1.3652-.3691z"/><path d="m24.4906 12.1328c.4789.275.6442.8862.3691 1.3652-.1002.1745-.2687.5305-.3949.9549-.1284.4317-.1889.8545-.1473 1.1938.0242.1965.0722.3009.1142.3702.0528.0871.1207.1628.273.3211.0054.0057.011.0115.0167.0174.1374.1427.348.3615.5247.6529.1949.3215.3318.6981.389 1.1633.0883.7194-.0466 1.4401-.2153 2.0076-.171.5749-.4012 1.0737-.5777 1.381-.275.4789-.8863.6442-1.3652.3691-.4789-.275-.6442-.8863-.3691-1.3652.1002-.1745.2687-.5306.3949-.9549.1284-.4317.1889-.8545.1473-1.1938-.0242-.1965-.0722-.3009-.1142-.3702-.0528-.0871-.1207-.1628-.273-.3211-.0054-.0057-.011-.0115-.0167-.0174-.1374-.1427-.348-.3615-.5247-.653-.1949-.3214-.3318-.698-.389-1.1632-.0883-.7194.0466-1.4401.2153-2.0076.171-.5749.4012-1.0738.5777-1.381.275-.4789.8863-.6442 1.3652-.3691z"/><path d="m32.4906 12.133c.4789.275.6442.8862.3691 1.3652-.1002.1745-.2687.5305-.3949.9549-.1284.4317-.1889.8545-.1473 1.1938.0242.1965.0722.3009.1142.3702.0528.0871.1207.1628.273.3211.0054.0057.011.0115.0167.0174.1374.1427.348.3615.5247.6529.1949.3215.3318.6981.389 1.1633.0883.7194-.0466 1.4401-.2153 2.0076-.171.5749-.4012 1.0737-.5777 1.381-.275.4789-.8863.6442-1.3652.3691-.4789-.275-.6442-.8862-.3691-1.3652.1002-.1745.2687-.5306.3949-.9549.1284-.4317.1889-.8545.1473-1.1938-.0242-.1965-.0722-.3009-.1142-.3702-.0528-.0871-.1207-.1628-.273-.3211-.0054-.0057-.011-.0115-.0167-.0174-.1374-.1427-.348-.3615-.5247-.653-.1949-.3214-.3318-.698-.389-1.1632-.0883-.7194.0466-1.4401.2153-2.0076.171-.5749.4012-1.0738.5777-1.381.275-.4789.8863-.6442 1.3652-.3691z"/></g><path d="m5 26.0298c-.55228 0-1 .4477-1 1 0 .5522.44772 1 1 1h3c0 4.4182 3.5817 8 8 8h16c4.4183 0 8-3.5818 8-8h3c.5523 0 1-.4478 1-1 0-.5523-.4477-1-1-1z"/></g></svg>