<svg fill="none" height="48" viewBox="0 0 48 48" width="48" xmlns="http://www.w3.org/2000/svg"><path clip-rule="evenodd" d="m24.039 6c-4.5166 0-8.6324 1.49171-11.0668 2.71108-.2194.10987-.4251.21754-.6162.3217-.3782.20612-.6993.39853-.956.56722l2.7699 4.0776 1.3037.5191c5.0964 2.5713 11.9306 2.5713 17.027 0l1.4804-.7681 2.619-3.8286c-.3838-.25587-.9146-.56629-1.5677-.89638-.0398-.02011-.0801-.04031-.1208-.06056-2.4239-1.20609-6.4397-2.64306-10.8725-2.64306zm-6.4423 4.6162c-.9969-.184-1.9763-.4376-2.9009-.72866 2.2813-1.013 5.6811-2.08754 9.3432-2.08754 2.5373 0 4.9364.51593 6.9207 1.16919-2.3254.32827-4.8069.8824-7.1709 1.56621-1.86.5381-4.0342.4789-6.1921.0808zm15.9599 5.0638-.2452.1237c-5.6063 2.8287-13.0423 2.8287-18.6486 0l-.233-.1176c-8.42163 9.2413-14.851866 26.311 9.6092 26.311 24.461 0 17.874-17.3886 9.5176-26.3171zm-10.5566 8.32c-1.1046 0-2 .8954-2 2s.8954 2 2 2zm2-2v-1h-2v1c-2.2091 0-4 1.7909-4 4s1.7909 4 4 4v4c-.8693 0-1.6114-.5551-1.8865-1.3332-.184-.5208-.7553-.7937-1.276-.6096-.5208.184-.7937.7553-.6096 1.276.5486 1.5523 2.0289 2.6668 3.7721 2.6668v1h2v-1c2.2091 0 4-1.7909 4-4s-1.7909-4-4-4v-4c.8693 0 1.6114.5551 1.8865 1.3332.184.5208.7553.7937 1.276.6096.5208-.184.7937-.7553.6096-1.276-.5486-1.5523-2.0289-2.6668-3.7721-2.6668zm0 8v4c1.1046 0 2-.8954 2-2s-.8954-2-2-2z" fill="#333" fill-rule="evenodd"/></svg>