<svg fill="none" height="48" viewBox="0 0 48 48" width="48" xmlns="http://www.w3.org/2000/svg"><path d="m14.4356 21.8489c2.56 5.0311 6.6844 9.1378 11.7155 11.7155l3.9111-3.9111c.48-.48 1.1911-.64 1.8134-.4266 1.9911.6577 4.1422 1.0133 6.3466 1.0133.9778 0 1.7778.8 1.7778 1.7778v6.2044c0 .9778-.8 1.7778-1.7778 1.7778-16.6933 0-30.2222-13.5289-30.2222-30.22222 0-.97778.8-1.77778 1.77778-1.77778h6.22222c.9778 0 1.7778.8 1.7778 1.77778 0 2.22222.3555 4.35552 1.0133 6.34662.1956.6223.0533 1.3156-.4444 1.8134z" fill="#333"/></svg>