<svg fill="none" height="48" viewBox="0 0 48 48" width="48" xmlns="http://www.w3.org/2000/svg"><g fill="#333"><path d="m20.2973 4.69719c-.3905-.39052-1.0237-.39052-1.4142 0s-.3905 1.02369 0 1.41421l3.5906 3.5906-3.4901 3.4901c-.3905.3905-.3905 1.0237 0 1.4142s1.0237.3905 1.4142 0l3.4901-3.4901 3.4805 3.4805c.3905.3905 1.0237.3905 1.4142 0s.3905-1.0237 0-1.4142l-3.4805-3.4805 3.581-3.58098c.3905-.39053.3905-1.02369 0-1.41422-.3905-.39052-1.0237-.39052-1.4142 0l-3.581 3.58098z"/><path clip-rule="evenodd" d="m24.4922 15.0513c-.2052-.0684-.4271-.0684-.6323 0l-14.81536 4.9376c-.22912.0763-.4164.2302-.53667.4265l-3.93111 5.0458c-.19955.2561-.26232.5932-.16835.904.05952.1969.17724.3677.33383.4925l15.44366 5.1516 3.2003-4.1222c.1892-.2437.4804-.3864.789-.3867s.6.142.7897.3854l3.2177 4.1301 15.3994-5.1289c.1758-.1268.3081-.3091.3724-.5218.0939-.3108.0312-.6479-.1684-.904l-4.0031-5.1382c-.1331-.1709-.3139-.2894-.5125-.3465zm-.3121 9.7684 11.6485-3.8821-11.6526-3.8835-11.6485 3.8821z" fill-rule="evenodd"/><path d="m29.7469 37.6771c-.2747.103-.5166.3698-.5403.5958s.1797.3257.4544.2227.5166-.3698.5403-.5958-.1797-.3257-.4544-.2227z"/><path d="m30.4474 37.8313c.0118-.113.1328-.2464.2701-.2979.1374-.0515.2391-.0016.2272.1114-.0118.113-.1328.2464-.2701.2979-.1374.0515-.2391.0016-.2272-.1114z"/><path clip-rule="evenodd" d="m36.5617 35.4855c-.0474.4521-.4309.9479-.8565 1.1076l-3.7133 1.4213c-.4255.1596-.732-.0774-.6846-.5294.0475-.4521.4309-.9479.8565-1.1076l3.7133-1.4213c.4255-.1596.7321.0774.6846.5294zm-4.4587 1.4706 3.7133-1.4213c.1247-.0468.2145.0226.2006.1551-.0139.1324-.1262.2777-.2509.3245l-3.7133 1.4213c-.1247.0468-.2145-.0226-.2006-.1551.0139-.1324.1263-.2777.2509-.3245z" fill-rule="evenodd"/><path clip-rule="evenodd" d="m28.1441 34.1368 11.8468-3.9457-.0005 6.5717c-.0001 1.2912-.8263 2.4375-2.0513 2.8458l-12.763 4.2544v-12.4519l1.8631 2.3915c.2603.3342.703.468 1.1049.3342zm9.2886 1.0217c.0949-.9041-.5181-1.3782-1.3693-1.059l-6.0147 2.2847c-.8512.3192-1.6181 1.3109-1.713 2.215s.5182 1.3782 1.3693 1.0589l6.0148-2.2846c.8511-.3193 1.618-1.311 1.7129-2.215z" fill-rule="evenodd"/><path d="m23.1761 43.863v-12.4439l-1.8448 2.3762c-.2602.3352-.7037.4696-1.1063.3353l-11.86381-3.9574.00043 6.5896c.00009 1.2912.82636 2.4375 2.05128 2.8458z"/></g></svg>