<svg fill="none" height="48" viewBox="0 0 48 48" width="48" xmlns="http://www.w3.org/2000/svg"><g fill="#333"><path d="m16 20v3h16v-3z"/><path d="m16 28v-3h4v3z"/><path d="m16 30v3h4v-3z"/><path d="m22 30v3h4v-3z"/><path d="m28 30v3h4v-3z"/><path d="m28 28v-3h4v3z"/><path d="m26 28h-4v-3h4z"/><path clip-rule="evenodd" d="m30 4h-19c-.5523 0-1 .44772-1 1v38c0 .5523.4477 1 1 1h26c.5523 0 1-.4477 1-1v-31h-7c-.5523 0-1-.4477-1-1zm-16 15c0-.5523.4477-1 1-1h18c.5523 0 1 .4477 1 1v15c0 .5523-.4477 1-1 1h-18c-.5523 0-1-.4477-1-1z" fill-rule="evenodd"/><path d="m37.4142 10h-5.4142v-5.41421z"/></g></svg>