<svg fill="none" height="48" viewBox="0 0 48 48" width="48" xmlns="http://www.w3.org/2000/svg"><g fill="#333"><path d="m18.8831 4.69719c.3905-.39052 1.0237-.39052 1.4142 0l3.5906 3.59059 3.581-3.58098c.3905-.39052 1.0237-.39052 1.4142 0 .3905.39053.3905 1.02369 0 1.41422l-3.581 3.58098 3.4805 3.4805c.3905.3905.3905 1.0237 0 1.4142s-1.0237.3905-1.4142 0l-3.4805-3.4805-3.4901 3.4901c-.3905.3905-1.0237.3905-1.4142 0s-.3905-1.0237 0-1.4142l3.4901-3.4901-3.5906-3.5906c-.3905-.39052-.3905-1.02369 0-1.41421z"/><path clip-rule="evenodd" d="m23.8599 15.0513c.2052-.0684.4271-.0684.6323 0l14.7782 4.9252c.1986.0571.3794.1756.5125.3465l4.0031 5.1382c.1996.2561.2623.5932.1684.904-.0643.2127-.1966.395-.3724.5218l-15.3994 5.1289-3.2177-4.1301c-.1897-.2434-.4811-.3857-.7897-.3854s-.5998.143-.789.3867l-3.2003 4.1222-15.44366-5.1516c-.15659-.1248-.27431-.2956-.33383-.4925-.09397-.3108-.0312-.6479.16835-.904l3.93111-5.0458c.12027-.1963.30755-.3502.53667-.4265zm11.9687 5.8863-11.6485 3.8821-11.6526-3.8835 11.6485-3.8821z" fill-rule="evenodd"/><path d="m28.1441 34.1368 11.8468-3.9457-.0005 6.5717c-.0001 1.2912-.8263 2.4375-2.0513 2.8458l-12.763 4.2544v-12.4519l1.8631 2.3915c.2603.3342.703.468 1.1049.3342z"/><path d="m23.1761 31.4191v12.4439l-12.7632-4.2544c-1.22492-.4083-2.05119-1.5546-2.05128-2.8458l-.00043-6.5896 11.86381 3.9574c.4026.1343.8461-.0001 1.1063-.3353z"/></g></svg>