<svg fill="none" height="48" viewBox="0 0 48 48" width="48" xmlns="http://www.w3.org/2000/svg"><g clip-rule="evenodd" fill="#333" fill-rule="evenodd"><path d="m14.8324 13.4187c2.2207-1.9256 5.0535-3.1638 8.1675-3.3835v1.9648c0 .5523.4477 1 1 1s1-.4477 1-1v-1.9648c3.1138.2197 5.9466 1.4578 8.1671 3.3832l-1.3889 1.389c-.3906.3905-.3906 1.0237 0 1.4142.3905.3905 1.0236.3905 1.4142 0l1.3889-1.389c1.9256 2.2206 3.1637 5.0534 3.3835 8.1674h-1.9648c-.5523 0-1 .4477-1 1s.4477 1 1 1h1.9648c-.2198 3.1139-1.4579 5.9466-3.3833 8.1672l-1.3891-1.3891c-.3906-.3905-1.0237-.3905-1.4143 0-.3905.3905-.3905 1.0237 0 1.4142l1.3892 1.3891c-2.2206 1.9255-5.0534 3.1637-8.1673 3.3834v-1.9648c0-.5523-.4477-1-1-1s-1 .4477-1 1v1.9648c-3.1139-.2197-5.9465-1.4578-8.1671-3.3832l1.3889-1.3889c.3905-.3905.3905-1.0236 0-1.4142-.3905-.3905-1.0237-.3905-1.4142 0l-1.3889 1.3889c-1.9256-2.2206-3.1638-5.0534-3.3836-8.1674h1.9649c.5523 0 1-.4477 1-1s-.4477-1-1-1h-1.9649c.2198-3.1139 1.4579-5.9465 3.3833-8.1671l1.3892 1.3892c.3905.3905 1.0237.3905 1.4142 0s.3905-1.0237 0-1.4142zm5.1675 11.5813c1.1045 0 2 .8954 2 2s-.8955 2-2 2c-1.1046 0-2-.8954-2-2s.8954-2 2-2zm5-6c0-1.1046-.8955-2-2-2-1.1046 0-2 .8954-2 2s.8954 2 2 2c1.1045 0 2-.8954 2-2zm4 5c1.1045 0 2 .8954 2 2s-.8955 2-2 2c-1.1046 0-2-.8954-2-2s.8954-2 2-2z"/><path d="m20.9999 5c0-.55228.4477-1 1-1h4c.5523 0 1 .44772 1 1s-.4477 1-1 1h-1v2c0 .55228-.4477 1-1 1s-1-.44772-1-1v-2h-1c-.5523 0-1-.44772-1-1z"/><path d="m23.9999 39c.5523 0 1 .4477 1 1v2h1c.5523 0 1 .4477 1 1s-.4477 1-1 1h-4c-.5523 0-1-.4477-1-1s.4477-1 1-1h1v-2c0-.5523.4477-1 1-1z"/><path d="m12.6862 39.5567c-.3905.3905-1.0237.3905-1.4142 0l-2.82841-2.8284c-.39052-.3905-.39052-1.0237 0-1.4142.39053-.3905 1.02369-.3905 1.41422 0l.70709.7071 1.4142-1.4142c.3905-.3906 1.0237-.3906 1.4142 0 .3906.3905.3906 1.0237 0 1.4142l-1.4142 1.4142.7071.7071c.3906.3905.3906 1.0237 0 1.4142z"/><path d="m34.6065 13.3938c-.3905-.3906-.3905-1.0237 0-1.4142l1.4143-1.4143-.7072-.70707c-.3905-.39052-.3905-1.02369 0-1.41421.3906-.39052 1.0237-.39052 1.4143 0l2.8284 2.82838c.3905.3906.3905 1.0237 0 1.4143-.3905.3905-1.0237.3905-1.4142 0l-.7071-.7071-1.4142 1.4142c-.3906.3905-1.0237.3905-1.4143 0z"/><path d="m4.99988 27c-.55229 0-1-.4477-1-1v-4c0-.5523.44771-1 1-1 .55228 0 1 .4477 1 1v1h2c.55228 0 1 .4477 1 1s-.44772 1-1 1h-2v1c0 .5523-.44772 1-1 1z"/><path d="m38.9999 24c0-.5523.4477-1 1-1h2v-1c0-.5523.4477-1 1-1s1 .4477 1 1v4c0 .5523-.4477 1-1 1s-1-.4477-1-1v-1h-2c-.5523 0-1-.4477-1-1z"/><path d="m8.44353 12.6866c-.39053-.3905-.39053-1.0237 0-1.4142l2.82847-2.82844c.3905-.39053 1.0236-.39053 1.4142 0 .3905.39052.3905 1.02369 0 1.41421l-.7071.70713 1.4142 1.4142c.3905.3905.3905 1.0237 0 1.4142s-1.0237.3905-1.4142 0l-1.4143-1.4142-.70706.7071c-.39052.3905-1.02369.3905-1.41421 0z"/><path d="m34.6065 34.6069c.3905-.3905 1.0237-.3905 1.4142 0l1.4142 1.4142.7071-.7071c.3905-.3905 1.0237-.3905 1.4142 0s.3905 1.0237 0 1.4142l-2.8284 2.8285c-.3905.3905-1.0237.3905-1.4142 0-.3905-.3906-.3905-1.0237 0-1.4143l.7071-.7071-1.4142-1.4142c-.3905-.3905-.3905-1.0237 0-1.4142z"/></g></svg>