<svg fill="none" height="48" viewBox="0 0 48 48" width="48" xmlns="http://www.w3.org/2000/svg"><g fill="#333"><g clip-rule="evenodd" fill-rule="evenodd"><path d="m13.0193 11.9846c.0575-.7094.2423-1.3834.5319-1.99998h-7.5512v2.48158l4 3.0307v26.5185h28v-26.4833l4.5-3.0307v-2.51678h-18.0512c.2896.61658.4744 1.29058.5319 1.99998h14.7063l-3.687 2.4832v25.5476h-24v-25.5123l-3.32384-2.5185z"/><path d="m20 26h-4v4h4zm-6-2v8h8v-8z"/><path d="m32 26h-6v14h6zm-8-2v18h10v-18z"/></g><path d="m6 41c0 .5523.44772 1 1 1h34c.5523 0 1-.4477 1-1s-.4477-1-1-1h-34c-.55228 0-1 .4477-1 1z"/><path clip-rule="evenodd" d="m15 16h-5v-2h5z" fill-rule="evenodd"/><path clip-rule="evenodd" d="m37.5 16h-14.5v-2h14.5z" fill-rule="evenodd"/><path clip-rule="evenodd" d="m25 12c0 3.3137-2.6863 6-6 6s-6-2.6863-6-6c0-3.31371 2.6863-6 6-6s6 2.68629 6 6zm-5-3v2h2v2h-2v2h-2v-2h-2v-2h2v-2z" fill-rule="evenodd"/></g></svg>