<svg fill="none" height="48" viewBox="0 0 48 48" width="48" xmlns="http://www.w3.org/2000/svg"><g fill="#333"><path d="m25.8948 23h8.5263v18h-8.5263z"/><path d="m14.5264 23h6.6315v6.6316h-6.6315z"/><g clip-rule="evenodd" fill-rule="evenodd"><path d="m26.2102 10.7896h11.1071l-.0012.0006-1.1056.5528v1.236 26.4211h-24.421v-26.4211-1.236l-1.1056-.5528-.0012-.0006h2.3703c.0896-.7075.2907-1.38025.5851-2.00005h-5.6381-2v1.89475l.21053.1053 3.57894 1.7894v24.4211 2h-1.78947-.21053-1.78947v2h2 1.78947 2.00003 24.421 2 1.7895 2v-2h-1.7895-.2105-1.7895v-2-24.4211l3.579-1.7894.2105-.1053v-1.89475h-2-14.375c.2944.6198.4956 1.29255.5852 2.00005z"/><path d="m26.2632 11.6316c0 3.6625-2.9691 6.6316-6.6316 6.6316s-6.6316-2.9691-6.6316-6.6316c0-3.66254 2.9691-6.6316 6.6316-6.6316s6.6316 2.96906 6.6316 6.6316zm-7.6105-3.6316h2.2737v2.6526h2.6525v2.2737h-2.6525v2.6527h-2.2737v-2.6527h-2.6527v-2.2737h2.6527z"/></g></g></svg>