<svg fill="none" height="48" viewBox="0 0 48 48" width="48" xmlns="http://www.w3.org/2000/svg"><g fill="#333"><path d="m31.3519 17.6661-6.3519-4.2035v-2.4626h3v-2h-3v-3h-2v3h-3v2h3v2.4626l-6.3519 4.2035c-.2798.1852-.4481.4983-.4481.8339v4.3766l-9.56013 3.6905c-.38559.1488-.63987.5196-.63987.9329v14.5h2v-13.8141l9.5601-3.6905c.3856-.1488.6399-.5196.6399-.9329v-4.5251l5.8-3.8383 5.8 3.8383v4.5251c0 .4499.3005.8444.7342.964l9.4658 2.6101v14.8634h2v-15.625c0-.4499-.3005-.8444-.7342-.964l-9.4658-2.6101v-4.3009c0-.3356-.1683-.6487-.4481-.8339z"/><path d="m17 30c0-.5523-.4477-1-1-1s-1 .4477-1 1v12h2z"/><path d="m32 29c.5523 0 1 .4477 1 1v12h-2v-12c0-.5523.4477-1 1-1z"/><path d="m24 30c-1.6569 0-3 1.3431-3 3v9h6v-9c0-1.6569-1.3431-3-3-3z"/></g></svg>