<svg fill="none" height="48" viewBox="0 0 48 48" width="48" xmlns="http://www.w3.org/2000/svg"><g fill="#333"><path clip-rule="evenodd" d="m8 43c0-.5523.44772-1 1-1h30c.5523 0 1 .4477 1 1s-.4477 1-1 1h-30c-.55228 0-1-.4477-1-1z" fill-rule="evenodd"/><path clip-rule="evenodd" d="m12 22v20h5v-20zm-1-2c-.5523 0-1 .4477-1 1v22c0 .5523.4477 1 1 1h7c.5523 0 1-.4477 1-1v-22c0-.5523-.4477-1-1-1z" fill-rule="evenodd"/><path clip-rule="evenodd" d="m17 4 16 6v14h-2v-12.614l-12-4.5v35.114h8c0 .5523.4477 1 1 1h5v1h-16v-2z" fill-rule="evenodd"/><path d="m20 13h2v2h-2z"/><path d="m24 13h2v2h-2z"/><path d="m28 13h2v2h-2z"/><path d="m20 17h2v2h-2z"/><path d="m24 17h2v2h-2z"/><path d="m28 17h2v2h-2z"/><path d="m20 21h2v2h-2z"/><path d="m24 21h2v2h-2z"/><path d="m28 21h2v2h-2z"/><path d="m20 25h2v2h-2z"/><path d="m24 25h2v2h-2z"/><path d="m20 29h2v2h-2z"/><path d="m24 29h2v2h-2z"/><path d="m20 33h2v2h-2z"/><path d="m24 33h2v2h-2z"/><path d="m20 37h2v2h-2z"/><path d="m24 37h2v2h-2z"/><g clip-rule="evenodd" fill-rule="evenodd"><path d="m29 26v16h7v-16zm-1-2c-.5523 0-1 .4477-1 1v18c0 .5523.4477 1 1 1h9c.5523 0 1-.4477 1-1v-18c0-.5523-.4477-1-1-1z"/><path d="m34 30h-3v-2h3z"/><path d="m34 34h-3v-2h3z"/><path d="m34 38h-3v-2h3z"/><path d="m34 42h-3v-2h3z"/><path d="m15 13v9h-2v-9z"/></g></g></svg>