<svg fill="none" height="48" viewBox="0 0 48 48" width="48" xmlns="http://www.w3.org/2000/svg"><g clip-rule="evenodd" fill="#333" fill-rule="evenodd"><path d="m9.61452 19.138c.38069-1.269 1.54868-2.138 2.87348-2.138h25.2049l6.2434 16.6489c.1939.5171-.0681 1.0935-.5852 1.2874-.5172.1939-1.0936-.0681-1.2875-.5852l-4.9583-13.2222-4.7199 15.7331c-.3807 1.269-1.5487 2.138-2.8735 2.138h-21.8239c-2.00959 0-3.45093-1.9372-2.87348-3.862zm26.04138-.138h-23.1679c-.4416 0-.8309.2897-.9578.7127l-4.80002 16c-.19249.6416.28796 1.2873.95782 1.2873h21.8239c.4416 0 .8309-.2897.9578-.7127z"/><path d="m16 28c0-.5523.4477-1 1-1h8c.5523 0 1 .4477 1 1s-.4477 1-1 1h-8c-.5523 0-1-.4477-1-1z"/><path d="m19.7575 32.9702c-.5358-.134-.8616-.6769-.7276-1.2127l2-8c.1339-.5358.6768-.8616 1.2126-.7276.5358.1339.8616.6768.7276 1.2126l-1.9999 8c-.134.5358-.6769.8616-1.2127.7277z"/><path d="m37 19c-.5523 0-1-.4477-1-1v-7c0-.5523.4477-1 1-1s1 .4477 1 1v7c0 .5523-.4477 1-1 1z"/><path d="m36 10h-6v3h6zm-6-2c-1.1046 0-2 .89543-2 2v3c0 1.1046.8954 2 2 2h6c1.1046 0 2-.8954 2-2v-3c0-1.10457-.8954-2-2-2z"/></g></svg>