<svg fill="none" height="48" viewBox="0 0 48 48" width="48" xmlns="http://www.w3.org/2000/svg"><g fill="#333"><g clip-rule="evenodd" fill-rule="evenodd"><path d="m10.9158 20.7595-4.88007 13.9896c-.15982.5874.28099 1.2509 1.0186 1.2509h22.20457c.4878 0 .8859-.3128 1.0108-.7218l.0117-.0384 5.3291-15.2398h-23.6724c-.4878 0-.8859.3128-1.0108.7218zm26.069 1.3694 5.0448 11.2222c.1973.5171.7838.7791 1.3099.5852.5262-.1939.7927-.7703.5954-1.2874l-6.3522-14.6489h-25.6446c-1.348 0-2.53631.869-2.92364 2.138l-4.88373 14c-.58752 1.9248.87896 3.862 2.9236 3.862h22.20457c1.348 0 2.5363-.869 2.9236-2.138z"/><path d="m34.5 34.5 8.2059-2.4558.5882 1.9115-9.7941 3.0443z"/><path d="m37 21c-.5523 0-1-.4477-1-1v-7c0-.5523.4477-1 1-1s1 .4477 1 1v7c0 .5523-.4477 1-1 1z"/><path d="m36 12h-5v2h5zm-7-2v6h9v-6z"/></g><path d="m19.7575 32.9704c-.5358-.134-.8616-.6769-.7276-1.2127l.6894-2.7577h-2.7193c-.5523 0-1-.4477-1-1s.4477-1 1-1h3.2193l.8106-3.2423c.1339-.5358.6768-.8616 1.2126-.7276.5358.1339.8616.6769.7276 1.2127l-.6893 2.7572h2.7192c.5523 0 1 .4477 1 1s-.4477 1-1 1h-3.2192l-.8107 3.2428c-.1339.5358-.6768.8615-1.2126.7276z"/></g></svg>