<svg fill="none" height="48" viewBox="0 0 48 48" width="48" xmlns="http://www.w3.org/2000/svg"><path clip-rule="evenodd" d="m14 29.9268c-4.49995-.6633-8-5.7501-8-11.9268 0-6.6274 4.0294-12 9-12s9 5.3726 9 12c0 6.1767-3.5 11.2635-8 11.9268v7.0732h16v-6.9543h-4.7273c-1.8074 0-3.2727-1.4652-3.2727-3.2727 0-1.2796.7344-2.3877 1.8047-2.9258-.1095-.3693-.1683-.7603-.1683-1.1651 0-1.7256 1.0684-3.2016 2.5797-3.8027-.0819-.3557-.1252-.726-.1252-1.1065 0-2.7113 2.1978-4.9091 4.9091-4.9091 2.7112 0 4.909 2.1978 4.909 4.9091 0 .3804-.0432.7508-.1251 1.1064 1.5114.6011 2.5798 2.0772 2.5798 3.8028 0 .4048-.0588.7959-.1684 1.1651 1.0703.5381 1.8047 1.6462 1.8047 2.9258 0 1.8075-1.4652 3.2727-3.2727 3.2727h-4.7273v6.9543h5.5c1.3807 0 2.5 1.1193 2.5 2.5s-1.1193 2.5-2.5 2.5h-31c-1.38071 0-2.5-1.1193-2.5-2.5s1.11929-2.5 2.5-2.5h5.5zm8-11.9268c0 2.9228-.891 5.4919-2.236 7.2853-1.0822 1.4429-2.3978 2.3217-3.764 2.6098v-3.3951h-2v3.3951c-1.3662-.2881-2.6818-1.1669-3.764-2.6098-1.34496-1.7934-2.236-4.3625-2.236-7.2853s.89104-5.4919 2.236-7.2853c1.3446-1.7927 3.0494-2.7147 4.764-2.7147s3.4194.922 4.764 2.7147c1.345 1.7934 2.236 4.3625 2.236 7.2853zm13.8349.4304-.3854 1.6729 1.5952.6344c.7761.3087 1.319 1.0655 1.319 1.9444 0 .2102-.0304.4098-.0858.5964l-.4757 1.6041 1.4948.7515c.4211.2117.703.6442.703 1.1389 0 .7029-.5698 1.2727-1.2727 1.2727h-4.7273v-2.5457h-2v2.5457h-4.7273c-.7029 0-1.2727-.5698-1.2727-1.2727 0-.4947.2819-.9272.703-1.1389l1.4949-.7515-.4757-1.6041c-.0554-.1866-.0858-.3862-.0858-.5964 0-.8788.5428-1.6357 1.3189-1.9443l1.5951-.6345-.3854-1.6729c-.0482-.2094-.0741-.4292-.0741-.6575 0-1.6067 1.3024-2.9091 2.9091-2.9091 1.6066 0 2.909 1.3024 2.909 2.9091 0 .2283-.0259.4481-.0741.6575zm-27.8349 21.0696c0-.2761.22386-.5.5-.5h31c.2761 0 .5.2239.5.5s-.2239.5-.5.5h-31c-.27614 0-.5-.2239-.5-.5z" fill="#333" fill-rule="evenodd"/></svg>