<svg fill="none" height="48" viewBox="0 0 48 48" width="48" xmlns="http://www.w3.org/2000/svg"><g fill="#333"><g clip-rule="evenodd" fill-rule="evenodd"><path d="m6 39.5c0-1.3807 1.11929-2.5 2.5-2.5h31c1.3807 0 2.5 1.1193 2.5 2.5s-1.1193 2.5-2.5 2.5h-31c-1.38071 0-2.5-1.1193-2.5-2.5zm2.5-.5c-.27614 0-.5.2239-.5.5s.22386.5.5.5h31c.2761 0 .5-.2239.5-.5s-.2239-.5-.5-.5z"/><path d="m18.5127 14.5762.3853-1.6729c.0665-.2884.102-.5904.102-.9033 0-2.20914-1.7909-4-4-4s-4 1.79086-4 4c0 .3129.0355.6149.102.9033l.3853 1.6729-1.59515.6344c-1.11189.4423-1.89215 1.5271-1.89215 2.7894 0 .3002.04348.5867.12316.8554l.47572 1.604-1.49482.7515c-.65896.3313-1.10406 1.01-1.10406 1.7891 0 1.1046.89543 2 2 2h14c1.1046 0 2-.8954 2-2 0-.7791-.4451-1.4578-1.1041-1.7891l-1.4948-.7515.4757-1.604c.0797-.2687.1232-.5552.1232-.8554 0-1.2623-.7803-2.3471-1.8922-2.7894zm5.2816 4.8478c1.3081.6577 2.2057 2.012 2.2057 3.576 0 2.2091-1.7909 4-4 4h-14c-2.20914 0-4-1.7909-4-4 0-1.564.89758-2.9183 2.20571-3.576-.13385-.4513-.20571-.9292-.20571-1.424 0-2.109 1.30578-3.9131 3.15299-4.6478-.1001-.4346-.15299-.8872-.15299-1.3522 0-3.31371 2.6863-6 6-6s6 2.68629 6 6c0 .465-.0529.9176-.153 1.3522 1.8472.7347 3.153 2.5388 3.153 4.6478 0 .4948-.0719.9727-.2057 1.424z"/><path d="m14 37v-16h2v16z"/></g><path d="m29.4336 23.2187 3.6134-2.5211c.4323-.3071.9582-.4649 1.4937-.4479.6531.0158 1.2849.2287 1.8076.6092.5227.3806.9102.9097 1.1088 1.5139.2235.6802.4278 1.1398.6129 1.3789.5591.7243 1.2845 1.312 2.1184 1.7166.834.4046 1.185.6143 2.6859.6143s1.5009 2.3332 0 2.3332-2.4668-.2645-3.5893-.7783-2.1136-1.2628-2.9022-2.193l-.8375 4.6138 2.4766 2.0182 2.4781 6.4235h-2.5l-2.0173-5.0376-4.0737-3.3189c-.3343-.2621-.5902-.6064-.7409-.997-.1506-.3907-.1907-.8134-.1159-1.2242l.6116-3.3656-.8135.574s-1.5273 2.0984-2.556 3.4157c-1.0287 1.3174-3.1236.1231-1.9443-1.3719s2.6451-3.5538 2.6451-3.5538zm6.8315-3.5523c-.6375 0-1.2488-.2459-1.6995-.6834-.4507-.4376-.7039-1.031-.7039-1.6498s.2532-1.2123.7039-1.6498c.4507-.4376 1.062-.6834 1.6995-.6834.6374 0 1.2487.2458 1.6994.6834.4507.4375.7039 1.031.7039 1.6498s-.2532 1.2122-.7039 1.6498c-.4507.4375-1.062.6834-1.6994.6834zm-3.5714 15.3768-3.6937 3.9568-2.65-.0849 4.2167-5.0397.8964-2.5432 2.1523 1.7499z"/></g></svg>