<svg fill="none" height="48" viewBox="0 0 48 48" width="48" xmlns="http://www.w3.org/2000/svg"><g fill="#333"><path clip-rule="evenodd" d="m4 37c0-.5523.44772-1 1-1h36c.5523 0 1 .4477 1 1s-.4477 1-1 1h-36c-.55228 0-1-.4477-1-1z" fill-rule="evenodd"/><path clip-rule="evenodd" d="m12 23.1606v12.8394h24v-12.8394l-12-6.8571zm-2-1.1606v16h28v-16l-14-8z" fill-rule="evenodd"/><path d="m28 25h6v11h-6z"/><path d="m14 25h11v6h-11z"/><path d="m32 14.8182v-2.8182h3v5z"/><g clip-rule="evenodd" fill-rule="evenodd"><path d="m31 12c0-.5523.4477-1 1-1h3c.5523 0 1 .4477 1 1v5c0 .3761-.2111.7204-.5462.8911-.3352.1707-.7378.1389-1.042-.0824l-3-2.1818c-.2587-.1882-.4118-.4888-.4118-.8087zm2 1v1.309l1 .7272v-2.0362z"/><path d="m23.493 10.1381c.3129-.18412.7011-.18412 1.014 0l17.862 10.507-1.0141 1.7239-17.3549-10.2088-17.35491 10.2088-1.01404-1.7239z"/></g></g></svg>