<svg fill="none" height="48" viewBox="0 0 48 48" width="48" xmlns="http://www.w3.org/2000/svg"><g fill="#333"><g clip-rule="evenodd" fill-rule="evenodd"><path d="m8 43c0-.5523.44772-1 1-1h30c.5523 0 1 .4477 1 1s-.4477 1-1 1h-30c-.55228 0-1-.4477-1-1z"/><path d="m19 8h-9v-2h9z"/><path d="m39 8h-9v-2h9z"/><path d="m17 11h-6v-2h6z"/><path d="m37 11h-6v-2h6z"/><path d="m32 38h-16v-2h16z"/><path d="m25 7v8h-2v-8z"/><path d="m20 10h8v2h-8z"/><path d="m29 6h-10v10h10zm-10-2h10c1.1046 0 2 .89543 2 2v10c0 1.1046-.8954 2-2 2h-10c-1.1046 0-2-.8954-2-2v-10c0-1.10457.8954-2 2-2z"/><path d="m11 42v-35h2v35z"/><path d="m35 42v-35h2v35z"/><path d="m23 42v-4h2v4z"/><path d="m29 42v-4h2v4z"/><path d="m17 42v-4h2v4z"/></g><path d="m16 20h4v3h-4z"/><path d="m16 25h4v3h-4z"/><path d="m16 30h4v3h-4z"/><path d="m22 20h4v3h-4z"/><path d="m22 25h4v3h-4z"/><path d="m22 30h4v3h-4z"/><path d="m28 20h4v3h-4z"/><path d="m28 25h4v3h-4z"/><path d="m28 30h4v3h-4z"/></g></svg>