<svg fill="none" height="48" viewBox="0 0 48 48" width="48" xmlns="http://www.w3.org/2000/svg"><g fill="#333"><path d="m20 20c0-.5523.4477-1 1-1h20c.5523 0 1 .4477 1 1s-.4477 1-1 1h-20c-.5523 0-1-.4477-1-1z"/><g clip-rule="evenodd" fill-rule="evenodd"><path d="m29 36.9401c6.6994-.5409 12.0553-4.733 12.8875-11.9401.0743-.6428.1125-1.3096.1125-2h-30v.4121 4.5879c0 1.5 1.7534 2 2.5 2v12h14.5zm-2 3.0599v-4.9049l1.839-.1485c3.2499-.2624 6.0267-1.4774 7.9772-3.4444 1.571-1.5842 2.6921-3.7416 3.0563-6.5022h-25.8725v2.8477c.0771.0429.1819.0849.2995.1156.06.0156.113.0256.1542.0313.0313.0044.0484.0053.0505.0054h1.9958v12z"/><path d="m23.5 35h5v2h-5z"/><path d="m15 8h-6c-.55228 0-1 .44772-1 1v14h8v-14c0-.55228-.4477-1-1-1zm-6-2c-1.65685 0-3 1.34315-3 3v16h12v-16c0-1.65685-1.3431-3-3-3z"/><path d="m7 10h10.5v2h-10.5z"/></g></g></svg>