<svg fill="none" height="48" viewBox="0 0 48 48" width="48" xmlns="http://www.w3.org/2000/svg"><path clip-rule="evenodd" d="m14 6h20c1.1046 0 2 .89543 2 2v5.3992l-2.8905-3.0831-1.459 1.3678 4.3495 4.6395v2.0758l-2.8905-3.0831-1.459 1.3678 4.3495 4.6395v2.0758l-2.8905-3.0831-1.459 1.3678 4.3495 4.6395v2.0758l-2.8905-3.0831-1.459 1.3678 4.3495 4.6395v2.0758l-2.8905-3.0831-1.459 1.3678 4.3495 4.6395v3.6766c0 1.1046-.8954 2-2 2h-20c-1.1046 0-2-.8954-2-2v-3.6686l4.357-4.6475-1.4591-1.3678-2.8979 3.0911v-2.0758l4.357-4.6475-1.4591-1.3678-2.8979 3.0911v-2.0758l4.357-4.6475-1.4591-1.3678-2.8979 3.0911v-2.0758l4.357-4.6475-1.4591-1.3678-2.8979 3.0911v-2.0758l4.357-4.6475-1.4591-1.3678-2.8979 3.0911v-5.4072c0-1.10457.8954-2 2-2zm-4 2c0-2.20914 1.7909-4 4-4h20c2.2091 0 4 1.79086 4 4v32c0 2.2091-1.7909 4-4 4h-20c-2.2091 0-4-1.7909-4-4zm11 2h6c.9316 0 1.7145.6371 1.9368 1.4993-.5739-.3181-1.2342-.4993-1.9368-.4993h-6c-.7027 0-1.363.1812-1.9369.4993.2223-.8622 1.0052-1.4993 1.9369-1.4993zm10 2v23c0 2.2091-1.7909 4-4 4h-6c-2.2092 0-4-1.7909-4-4v-23c0-2.20914 1.7908-4 4-4h6c2.2091 0 4 1.79086 4 4zm-4 1c1.1045 0 2 .8954 2 2v20c0 1.1046-.8955 2-2 2h-6c-1.1046 0-2-.8954-2-2v-20c0-1.1046.8954-2 2-2zm-3 7c1.0355 0 1.875-.8954 1.875-2s-.8395-2-1.875-2-1.875.8954-1.875 2 .8395 2 1.875 2z" fill="#333" fill-rule="evenodd"/></svg>