<svg fill="none" height="48" viewBox="0 0 48 48" width="48" xmlns="http://www.w3.org/2000/svg"><g fill="#333"><path clip-rule="evenodd" d="m9 18h2v10h26v-10h2v10h1.5c.2761 0 .5.2239.5.5v1c0 .2761-.2239.5-.5.5h-33c-.27614 0-.5-.2239-.5-.5v-1c0-.2761.22386-.5.5-.5h1.5zm1 15v7h28v-7zm-1-2c-.55228 0-1 .4477-1 1v9c0 .5523.44772 1 1 1h30c.5523 0 1-.4477 1-1v-9c0-.5523-.4477-1-1-1z" fill-rule="evenodd"/><path clip-rule="evenodd" d="m10.1888 8-2.14526 5.9129c-.02876.0793-.04354.1632-.04354.248v2.3901c0 .8082.64747 1.449 1.42857 1.449.78113 0 1.42853-.6408 1.42853-1.449 0-.5523.4478-1 1-1 .5523 0 1 .4477 1 1 0 .8082.6475 1.449 1.4286 1.449s1.4286-.6408 1.4286-1.449c0-.5523.4477-1 1-1s1 .4477 1 1c0 .8082.6475 1.449 1.4286 1.449.7807 0 1.4279-.6402 1.4285-1.4478.0005-.5519.4481-.9992 1-.9992.552 0 .9996.4473 1 .9992.0007.8076.6479 1.4478 1.4286 1.4478.7811 0 1.4286-.6408 1.4286-1.449 0-.5523.4477-1 1-1s1 .4477 1 1c0 .8082.6474 1.449 1.4285 1.449.7808 0 1.428-.6402 1.4286-1.4478.0005-.5519.448-.9992 1-.9992s.9996.4473 1 .9992c.0007.8076.6479 1.4478 1.4286 1.4478.7811 0 1.4286-.6408 1.4286-1.449 0-.5523.4477-1 1-1 .5522 0 1 .4477 1 1 0 .8082.6474 1.449 1.4285 1.449s1.4286-.6408 1.4286-1.449v-2.3901c0-.0848-.0148-.1687-.0435-.248l-2.1453-5.9129zm27.5876-.09605-.0001-.00025.1418-.05145-.1418.05144c0 .00009 0 .00018.0001.00026zm-1.6335 11.08165c-.6196.6259-1.4773 1.0144-2.4286 1.0144-.9514 0-1.809-.3885-2.4286-1.0144-.6195.6259-1.4772 1.0144-2.4286 1.0144-.9513 0-1.809-.3885-2.4285-1.0144-.6196.6259-1.4772 1.0144-2.4286 1.0144s-1.809-.3885-2.4286-1.0144c-.6195.6259-1.4772 1.0144-2.4285 1.0144-.9514 0-1.8091-.3885-2.4286-1.0144-.6196.6259-1.4772 1.0144-2.4286 1.0144-.9513 0-1.809-.3885-2.4286-1.0144-.6195.6259-1.4772 1.0144-2.42853 1.0144-1.90142 0-3.42857-1.5521-3.42857-3.449v-2.3901c0-.3171.05528-.6319.16345-.9301l2.18018-6.00921c.26466-.72949.95649-1.22159 1.73827-1.22159h27.8362c.7818 0 1.4736.4921 1.7383 1.2216l2.1802 6.0092c.1081.2982.1634.613.1634.9301v2.3901c0 1.8969-1.5272 3.449-3.4286 3.449-.9513 0-1.809-.3885-2.4285-1.0144z" fill-rule="evenodd"/><path d="m12 25.5c0-.2761.2239-.5.5-.5h3c.2761 0 .5.2239.5.5v2c0 .2761-.2239.5-.5.5h-3c-.2761 0-.5-.2239-.5-.5z"/><path d="m14 26.5c0-.2761.2239-.5.5-.5h3c.2761 0 .5.2239.5.5v1c0 .2761-.2239.5-.5.5h-3c-.2761 0-.5-.2239-.5-.5z"/><path d="m22 26.5c0 .8284-.6716 1.5-1.5 1.5s-1.5-.6716-1.5-1.5.6716-1.5 1.5-1.5 1.5.6716 1.5 1.5z"/></g></svg>