<svg fill="none" height="48" viewBox="0 0 48 48" width="48" xmlns="http://www.w3.org/2000/svg"><g fill="#333"><path d="m25 16v-2h2v-2h-2v-2h-2v2h-2v2h2v2z"/><path clip-rule="evenodd" d="m24.6248 5.21913c-.3653-.29217-.8842-.29217-1.2494 0l-14.72612 11.78087h-1.64928c-.55228 0-1 .4477-1 1v4c0 .5523.44772 1 1 1h1v10h-1c-.55228 0-1 .4477-1 1v3h-1c-.55228 0-1 .4477-1 1v4c0 .5523.44772 1 1 1h38c.5523 0 1-.4477 1-1v-4c0-.5523-.4477-1-1-1h-1v-3c0-.5523-.4477-1-1-1h-1v-10h1c.5523 0 1-.4477 1-1v-4c0-.5523-.4477-1-1-1h-1.6492zm11.5245 11.78087-12.1492-9.71938-12.1493 9.71938zm-28.1493 2v2h32v-2zm30 4h-2v10h2zm-4 10v-10h-20v10h1c.5523 0 1 .4477 1 1v3h4v-8c0-2.2091 1.7909-4 4-4s4 1.7909 4 4v8h4v-3c0-.5523.4477-1 1-1zm-12-4v8h4v-8c0-1.1046-.8954-2-2-2s-2 .8954-2 2zm20 10v2h-36v-2zm-8-4v2h6v-2zm-24-2v-10h2v10zm-2 2h6v2h-6z" fill-rule="evenodd"/></g></svg>