<svg fill="none" height="48" viewBox="0 0 48 48" width="48" xmlns="http://www.w3.org/2000/svg"><path clip-rule="evenodd" d="m10 6.04785s.4847.85019 1.1222 2.13778c.8769 1.77097 2.043 4.36937 2.6352 6.72137.0978.3886.18.7705.2426 1.1409v15h2v-5.3475c-.6391-1.1916-1-2.608-1-4.224 0-3.5857 3.1754-6.1891 5.8358-8.3703.6471-.5306 1.2638-1.0362 1.7969-1.5248.1275-.1169.2501-.2327.3673-.3477v-3.18575h2v3.18575c.1172.115.2398.2308.3673.3477.5331.4886 1.1498.9942 1.7969 1.5248 2.6604 2.1812 5.8358 4.7846 5.8358 8.3703 0 1.616-.3609 3.0324-1 4.224v5.3475h2v-15c.0538-.3637.1314-.7447.2279-1.1369.5594-2.2734 1.7555-4.92052 2.6517-6.72587.6356-1.28033 1.1204-2.13728 1.1204-2.13728s.4846.85019 1.1222 2.13778c.8769 1.77097 2.043 4.36937 2.6352 6.72137.0978.3886.18.7705.2426 1.1409v26h-36v-26c.05381-.3637.13138-.7447.22788-1.1369.55946-2.2734 1.75551-4.92052 2.65173-6.72587.63559-1.28033 1.12039-2.13728 1.12039-2.13728zm18 34.00005v-.5279c0-.7576-.428-1.4501-1.1056-1.7889l-2.8944-1.4472-2.8944 1.4472c-.6776.3388-1.1056 1.0313-1.1056 1.7889v.5279zm2 0h4v-7h-20v7h4v-.5279c0-1.5151.856-2.9002 2.2111-3.5777l3.7889-1.8944 3.7889 1.8944c1.3551.6775 2.2111 2.0626 2.2111 3.5777zm6-23.5319c.8079-.1955 1.4039-.2932 2-.2932s1.1921.0977 2 .2932v23.5319h-4zm-28 0v23.5319h4v-23.5319c-.8079-.1955-1.4039-.2932-2-.2932-.59607 0-1.19214.0977-2 .2932zm.4561-2.1425c.39598-1.2594.96208-2.6327 1.54306-3.8952.56284 1.2316 1.12194 2.5966 1.52794 3.8922-.5269-.0943-1.0249-.1477-1.5271-.1477-.50753 0-1.01074.0545-1.5439.1507zm9.4748 10.6744c-.5814-.9462-.9309-2.1316-.9309-3.5715 0-1.1617.5051-2.2725 1.4659-3.4426.9794-1.1927 2.2781-2.2661 3.6379-3.381l.0277-.0227c.6325-.5186 1.2899-1.0575 1.8685-1.5891.5787.5316 1.236 1.0705 1.8685 1.5891l.0277.0227c1.3598 1.1149 2.6585 2.1883 3.6379 3.381.9608 1.1701 1.4659 2.2809 1.4659 3.4426 0 1.4399-.3495 2.6253-.9309 3.5715zm.0691 2v4h1v-1c0-.5523.4477-1 1-1s1 .4477 1 1v1h2v-1c0-.5523.4477-1 1-1s1 .4477 1 1v1h2v-1c0-.5523.4477-1 1-1s1 .4477 1 1v1h1v-4zm19.9992-16.5696c-.581 1.2625-1.1471 2.6358-1.5431 3.8952.5332-.0962 1.0364-.1507 1.5439-.1507.5022 0 1.0002.0534 1.5271.1477-.406-1.2956-.9651-2.6606-1.5279-3.8922z" fill="#333" fill-rule="evenodd"/></svg>