<svg fill="none" height="48" viewBox="0 0 48 48" width="48" xmlns="http://www.w3.org/2000/svg"><g fill="#333"><path clip-rule="evenodd" d="m11 27.0001c0-.0001 0-.0001 1-.0001s1 0 1 .0001v12.2567c.1126.0506.2791.1104.5097.1724.664.1786 1.5943.3072 2.5796.3955.9732.0872 1.9518.1313 2.6906.1533.0761.0023.1495.0043.2201.0062v-3.9842c0-2.4003 2.0778-5 5-5s5 2.5997 5 5v3.9842c.0706-.0019.144-.0039.2201-.0062.7389-.022 1.7174-.0661 2.6906-.1533.9853-.0883 1.9156-.2169 2.5796-.3955.2306-.062.3971-.1218.5097-.1724v-12.2563c0-.0001 0-.0005 1-.0005s1 0 1 .0001v12.5657c0 .7026-.4957 1.1218-.8122 1.3204-.3434.2155-.7678.3641-1.1781.4744-.836.2248-1.9057.3652-2.9204.4561-1.0268.0921-2.0483.1377-2.8094.1604-.3816.0114-.6998.0172-.9233.02-.1119.0014-.2001.0022-.2608.0025l-.07.0004h-.0186-.0065c-.0001 0-.0007 0-.0007-1h-1v-5c0-1.4243-1.3068-3-3-3s-3 1.5757-3 3v4.9991l-1 .0009c0 1-.0001 1-.0003 1h-.0069-.0186l-.07-.0004c-.0607-.0003-.1489-.0011-.2608-.0025-.2235-.0028-.5417-.0086-.9233-.02-.7611-.0227-1.7826-.0683-2.8094-.1604-1.0147-.0909-2.0844-.2313-2.9204-.4561-.4103-.1103-.8347-.2589-1.1781-.4744-.3165-.1986-.8122-.6178-.8122-1.3204zm9 13.9999-.0003 1h1.0003v-1.0009zm8 0h-1v1h1.0007z" fill-rule="evenodd"/><path clip-rule="evenodd" d="m24 11.0207-13.9285 13.9961c2.2102.4759 6.3586.9832 13.9285.9832s11.7183-.5073 13.9285-.9832zm-16.49284 15.3296c-.63386-.257-.65317-.9357-.1716-1.4196l15.28344-15.35761c.7605-.76412 2.0015-.76412 2.762 0l15.2834 15.35761c.4816.4839.4623 1.1626-.1716 1.4196-1.6372.6638-5.8588 1.6497-16.4928 1.6497s-14.85558-.9859-16.49284-1.6497z" fill-rule="evenodd"/><path d="m23.0035 6.83045c-.0486-.44704.4115-.83045.9965-.83045s1.0451.38341.9965.83045l-.408 3.75435c-.0255.2347-.2814.4152-.5885.4152s-.563-.1805-.5885-.4152z"/><path d="m26.0001 7.18734c.177-.39087.7056-.50858 1.1449-.25495s.6017.77026.3517 1.11901l-2.0995 2.9288c-.1312.1831-.4096.2215-.6402.0884-.2306-.1332-.3366-.3934-.2436-.5986z"/><path d="m22.167 7.19099c-.1782-.39284-.7077-.51223-1.147-.2586s-.6007.77195-.3496 1.12266l2.109 2.94535c.1318.1841.4106.2233.6413.0901.2306-.1331.3361-.3942.2425-.6004z"/></g></svg>