<svg fill="none" height="48" viewBox="0 0 48 48" width="48" xmlns="http://www.w3.org/2000/svg"><g fill="#333"><path clip-rule="evenodd" d="m38.4663 24.4552-14.4663-14.61243-14.46626 14.61243c2.24956.5012 6.53576 1.0448 14.46626 1.0448s12.2167-.5436 14.4663-1.0448zm-13.045-16.01952c-.7826-.79054-2.0599-.79054-2.8426.00001l-15.72992 15.88881c-.49564.5007-.47577 1.2029.17661 1.4688 1.68509.6868 6.03001 1.7067 16.97461 1.7067s15.2896-1.0199 16.9746-1.7067c.6524-.2659.6723-.9681.1767-1.4688z" fill-rule="evenodd"/><path d="m23.0831 3.99655c-.0447-.53646.3786-.99655.9169-.99655s.9617.46009.917.99655l-.3754 4.50518c-.0235.28164-.259.49827-.5416.49827s-.518-.21663-.5415-.49827z"/><path d="m25.9577 4.27554c.2295-.48693.8261-.67371 1.2923-.40455.4662.26915.6028.87928.2959 1.32151l-2.5778 3.71388c-.1611.23218-.4733.30207-.7181.16076-.2447-.14131-.3403-.44664-.2198-.70228z"/><path d="m22.0423 4.27554c-.2295-.48693-.8261-.67371-1.2923-.40455-.4662.26915-.6028.87928-.2959 1.32151l2.5778 3.71388c.1611.23218.4733.30207.7181.16076.2447-.14131.3403-.44664.2198-.70228z"/><path clip-rule="evenodd" d="m13 40.995c.3028.0907.7066.1897 1.2202.2885 1.4333.2757 3.4312.4966 5.7798.6167v-4.9009c0-2.2091 1.7909-4 4-4s4 1.7909 4 4v4.9009c2.3486-.1201 4.3465-.341 5.7798-.6167.5136-.0988.9174-.1978 1.2202-.2885v-10.4597c-2.7301.2795-6.3042.4631-11 .4631s-8.2699-.1836-11-.4631zm-2-11.563c0-.6104.5418-1.0782 1.1478-1.0044 2.7461.3346 6.5559.5708 11.8522.5708s9.1061-.2362 11.8522-.5708c.606-.0738 1.1478.394 1.1478 1.0044v12.5672c0 .9443-4.2545 1.7358-9.9756 1.9456-.5612.0205-1.0244-.4316-1.0244-.9932v-5.9523c0-1.1046-.8954-2-2-2s-2 .8954-2 2v5.9523c0 .5616-.4632 1.0137-1.0244.9932-5.7211-.2098-9.9756-1.0013-9.9756-1.9456z" fill-rule="evenodd"/></g></svg>