<svg fill="none" height="48" viewBox="0 0 48 48" width="48" xmlns="http://www.w3.org/2000/svg"><g clip-rule="evenodd" fill="#333" fill-rule="evenodd"><path d="m38.4663 24.4552-14.4663-14.61243-14.46626 14.61243c2.24956.5012 6.53576 1.0448 14.46626 1.0448s12.2167-.5436 14.4663-1.0448zm-13.045-16.01952c-.7826-.79054-2.0599-.79054-2.8426.00001l-15.72992 15.88881c-.49564.5007-.47577 1.2029.17661 1.4688 1.68509.6868 6.03001 1.7067 16.97461 1.7067s15.2896-1.0199 16.9746-1.7067c.6524-.2659.6723-.9681.1767-1.4688z"/><path d="m13 40.995c.3028.0907.7066.1897 1.2202.2885 1.4333.2757 3.4312.4966 5.7798.6167v-4.9009c0-2.2091 1.7909-4 4-4s4 1.7909 4 4v4.9009c2.3486-.1201 4.3465-.341 5.7798-.6167.5136-.0988.9174-.1978 1.2202-.2885v-10.4597c-2.7301.2795-6.3042.4631-11 .4631s-8.2699-.1836-11-.4631zm-2-11.563c0-.6104.5418-1.0782 1.1478-1.0044 2.7461.3346 6.5559.5708 11.8522.5708s9.1061-.2362 11.8522-.5708c.606-.0738 1.1478.394 1.1478 1.0044v12.5672c0 .9443-4.2545 1.7358-9.9756 1.9456-.5612.0205-1.0244-.4316-1.0244-.9932v-5.9523c0-1.1046-.8954-2-2-2s-2 .8954-2 2v5.9523c0 .5616-.4632 1.0137-1.0244.9932-5.7211-.2098-9.9756-1.0013-9.9756-1.9456z"/><path d="m13.4668 17.6396 3.5359-3.5716c.2628.1187.4579.3812.5346.6756.2476.9515.954 1.5076 1.5916 1.5076s1.344-.5561 1.5916-1.5076c.1044-.4009.4286-.7426.844-.7426s.7395.3417.8439.7426c.2476.9515.954 1.5076 1.5916 1.5076s1.344-.5561 1.5916-1.5076c.1044-.4009.4285-.7426.8439-.7426s.7396.3417.844.7426c.2476.9515.954 1.5076 1.5916 1.5076s1.344-.5561 1.5916-1.5076c.0767-.2944.2718-.5569.5346-.6756l3.5359 3.5716c-.2492.0727-.5136.1118-.791.1118-1.0261 0-1.8732-.5345-2.4356-1.3277-.5623.7932-1.4094 1.3277-2.4355 1.3277s-1.8732-.5345-2.4356-1.3277c-.5623.7932-1.4094 1.3277-2.4355 1.3277s-1.8732-.5345-2.4355-1.3277c-.5624.7932-1.4095 1.3277-2.4356 1.3277s-1.8732-.5345-2.4355-1.3277c-.5624.7932-1.4095 1.3277-2.4356 1.3277-.2774 0-.5418-.0391-.791-.1118zm-5.16504 5.2172 3.72134-3.7589c.2364.1308.4095.3793.4744.6572.2426 1.0379.9686 1.6457 1.6231 1.6457s1.3805-.6078 1.6231-1.6457c.0956-.4091.4255-.7545.8468-.7545.4212 0 .7511.3454.8467.7545.2426 1.0379.9686 1.6457 1.6231 1.6457s1.3805-.6078 1.6231-1.6457c.0956-.4091.4255-.7545.8467-.7545.4213 0 .7512.3454.8468.7545.2426 1.0379.9686 1.6457 1.6231 1.6457s1.3805-.6078 1.6231-1.6457c.0956-.4091.4255-.7545.8467-.7545.4213 0 .7512.3454.8468.7545.2426 1.0379.9686 1.6457 1.6231 1.6457s1.3805-.6078 1.6231-1.6457c.0956-.4091.4255-.7545.8467-.7545.4213 0 .7512.3454.8468.7545.2426 1.0379.9686 1.6457 1.6231 1.6457s1.3805-.6078 1.6231-1.6457c.0649-.2779.238-.5264.4743-.6572l3.7214 3.7589c-.275.0935-.569.1442-.8791.1442-1.0406 0-1.8996-.5702-2.4699-1.4163-.5703.8461-1.4292 1.4163-2.4698 1.4163s-1.8996-.5702-2.4699-1.4163c-.5703.8461-1.4292 1.4163-2.4698 1.4163s-1.8996-.5702-2.4699-1.4163c-.5702.8461-1.4292 1.4163-2.4698 1.4163s-1.8996-.5702-2.4698-1.4163c-.5703.8461-1.4293 1.4163-2.4699 1.4163s-1.8995-.5702-2.4698-1.4163c-.5703.8461-1.4293 1.4163-2.4699 1.4163s-1.8995-.5702-2.4698-1.4163c-.5703.8461-1.4293 1.4163-2.46989 1.4163-.31012 0-.60412-.0507-.87915-.1442z"/></g></svg>