<svg fill="none" height="48" viewBox="0 0 48 48" width="48" xmlns="http://www.w3.org/2000/svg"><g fill="#333"><path clip-rule="evenodd" d="m24 8.05378-14.06506 14.87712c2.15796.5088 6.31306 1.0691 14.06506 1.0691s11.9071-.5603 14.0651-1.0691zm16.6644 14.71532c.4816.5094.4623 1.2238-.1716 1.4944-1.6372.6988-5.8588 1.7365-16.4928 1.7365s-14.85558-1.0377-16.49284-1.7365c-.63386-.2706-.65317-.985-.1716-1.4944l15.28344-16.16585c.7605-.80433 2.0015-.80433 2.762 0z" fill-rule="evenodd"/><path clip-rule="evenodd" d="m10.5 25.0002c0-.0001 0-.0002 1-.0002s1 .0001 1 .0002v14.2407c.1267.0549.3145.119.5735.1846.7153.181 1.7117.3103 2.7606.3988 1.0372.0875 2.0795.1316 2.8659.1537.1049.0029.2051.0055.3.0077v-4.7226c0-2.4617 2.0409-4.7631 5-4.7631s5 2.3014 5 4.7631v4.7226c.0949-.0022.1951-.0048.3-.0077.7864-.0221 1.8287-.0662 2.8659-.1537 1.0489-.0885 2.0453-.2178 2.7606-.3988.259-.0656.4468-.1297.5735-.1846v-14.2407c0-.0001 0-.0002 1-.0002s1 .0001 1 .0002v14.5656c0 .7323-.5434 1.1494-.8567 1.3344-.3546.2094-.795.3551-1.2261.4642-.8784.2223-2.007.362-3.0831.4528-1.0878.0918-2.1705.1373-2.9779.16-.4045.0114-.742.0171-.9789.0199-.1185.0015-.212.0022-.2762.0025l-.074.0004h-.0196-.0053-.0015c-.0001 0-.0007 0-.0007-1h-1v-5.7369c0-1.363-1.1514-2.7631-3-2.7631s-3 1.4001-3 2.7631v5.7365l-1 .0004c0 1-.0001 1-.0003 1h-.0019-.0053-.0196l-.074-.0004c-.0642-.0003-.1577-.001-.2762-.0025-.2369-.0028-.5744-.0085-.9789-.0199-.8074-.0227-1.8901-.0682-2.9779-.16-1.0761-.0908-2.2047-.2305-3.0831-.4528-.4311-.1091-.8715-.2548-1.2261-.4642-.3133-.185-.8567-.6021-.8567-1.3344zm9.5 15.9998-.0003 1h1.0003v-1.0004zm8 0h-1v1h1.0007zm7.6714-1.8521c.0005 0-.0034.0034-.013.01.0077-.0068.0126-.0101.013-.01zm-23.3428 0c.0004-.0001.0053.0032.013.01-.0096-.0066-.0135-.01-.013-.01z" fill-rule="evenodd"/><path d="m22 12-11 12.5 5-.5z"/><path d="m24 11.9999v13.5001h-4z"/></g></svg>