<svg fill="none" height="48" viewBox="0 0 48 48" width="48" xmlns="http://www.w3.org/2000/svg" xmlns:xlink="http://www.w3.org/1999/xlink"><mask id="a" fill="#fff"><path d="m23 12h-18v2h18z" fill="#fff"/><path clip-rule="evenodd" d="m23 16h-17v21h-1c-.55228 0-1 .4477-1 1s.44772 1 1 1h38c.5523 0 1-.4477 1-1s-.4477-1-1-1h-1v-21h-3v2h1v19h-3v-12h-8v12h-21v-19h15zm12 21h-4v-10h4z" fill="#fff" fill-rule="evenodd"/><path d="m39 14v-2h4v2z" fill="#fff"/><path clip-rule="evenodd" d="m11 32v-7h15v7h1v2h-17v-2zm2-5h11v5h-11z" fill="#fff" fill-rule="evenodd"/><path d="m35 10h-8c-1.1046 0-2 .8954-2 2v8c0 1.1046.8954 2 2 2h8c1.1046 0 2-.8954 2-2v-8c0-1.1046-.8954-2-2-2z" fill="#fff"/></mask><path d="m32 14v-1h-2v1zm-3 1h-1v2h1zm-23-2v5h2v-5zm34 0v5h2v-5zm-10 1v4h2v-4zm-1 3h4v-2h-4zm-6-5h2v-2h-2zm-18 0v-2h-2v2zm0 2h-2v2h2zm18 0v2h2v-2zm0 2h2v-2h-2zm-17 0v-2h-2v2zm0 21v2h2v-2zm36 0h-2v2h2zm0-21h2v-2h-2zm-3 0v-2h-2v2zm0 2h-2v2h2zm1 0h2v-2h-2zm0 19v2h2v-2zm-3 0h-2v2h2zm0-12h2v-2h-2zm-8 0v-2h-2v2zm0 12v2h2v-2zm-21 0h-2v2h2zm0-19v-2h-2v2zm15 0v2h2v-2zm16-6v-2h-2v2zm0 2h-2v2h2zm4-2h2v-2h-2zm0 2v2h2v-2zm-12 23h-2v2h2zm4 0v2h2v-2zm-4-10v-2h-2v2zm4 0h2v-2h-2zm-11 0h2v-2h-2zm-11 0v-2h-2v2zm11 5v2h2v-2zm-11 0h-2v2h2zm-2 0v2h2v-2zm0-7v-2h-2v2zm15 0h2v-2h-2zm0 7h-2v2h2zm1 0h2v-2h-2zm0 2v2h2v-2zm-17 0h-2v2h2zm0-2v-2h-2v2zm13-22h-18v4h18zm-20 2v2h4v-2zm2 4h18v-4h-18zm20-2v-2h-4v2zm-20 25h1v-4h-1zm1-1c0 .5523-.44771 1-1 1v-4c-1.65685 0-3 1.3431-3 3zm-1-1c.55229 0 1 .4477 1 1h-4c0 1.6569 1.34315 3 3 3zm37 1c0-.5523.4477-1 1-1v4c1.6569 0 3-1.3431 3-3zm1 1c-.5523 0-1-.4477-1-1h4c0-1.6569-1.3431-3-3-3zm-1 0h1v-4h-1zm-5-23v2h4v-2zm2 4h1v-4h-1zm-1-2v19h4v-19zm2 17h-3v4h3zm-11 0h-21v4h21zm-19 2v-19h-4v19zm-2-17h15v-4h-15zm17-2v-2h-4v2zm12-6v2h4v-2zm6-2h-4v4h4zm2 4v-2h-4v2zm-6 2h4v-4h-4zm-8 23h4v-4h-4zm-2-12v10h4v-10zm6-2h-4v4h4zm2 12v-10h-4v10zm-13-12h-11v4h11zm2 7v-5h-4v5zm-13 2h11v-4h-11zm-2-7v5h4v-5zm16 3h-1v4h1zm2 4v-2h-4v2zm-21-2v2h4v-2zm3-2h-1v4h1zm16-18h8v-4h-8zm8 0v8h4v-8zm0 8h-8v4h8zm-8 0v-8h-4v8zm0 0h-4c0 2.2091 1.7909 4 4 4zm8 0v4c2.2091 0 4-1.7909 4-4zm0-8h4c0-2.20914-1.7909-4-4-4zm-8-4c-2.2091 0-4 1.79086-4 4h4zm-21 10h17v-4h-17zm2 19v-21h-4v21zm35 0h-38v4h38zm-3-21v21h4v-21zm-1 2h3v-4h-3zm0 19v-12h-4v12zm-2-14h-8v4h8zm-10 2v12h4v-12zm-18 0v7h4v-7zm17-2h-15v4h15zm2 9v-7h-4v7zm-18 4h17v-4h-17z" fill="#333" mask="url(#a)"/></svg>