<svg fill="none" height="48" viewBox="0 0 48 48" width="48" xmlns="http://www.w3.org/2000/svg"><g clip-rule="evenodd" fill="#333" fill-rule="evenodd"><path d="m32 17v-6h2v6z"/><path d="m30 13h6v2h-6z"/><path d="m37 13v-3h-8v3 2 1 2h8v-2-1zm-32 0h22v-3-2h2 8 2v2 3h4v2h-4v1h1 2v2 19h2v2h-2-2-3-2-4-2-21-2-2v-2h2v-19-2h2 19v-1h-22zm22 7v-2h-19v19h21v-12-2h2 4 2v2 12h3v-19h-1v2h-2-8zm-3 5h-11v6h11zm-13 0v6h-1v2h1 2 11 2 1v-2h-1v-6-2h-2-11-2zm20 12h4v-12h-4z"/><path d="m6 18v-5h2v5z"/><path d="m40 18v-5h2v5z"/></g></svg>