<svg fill="none" height="48" viewBox="0 0 48 48" width="48" xmlns="http://www.w3.org/2000/svg"><g clip-rule="evenodd" fill="#333" fill-rule="evenodd"><path d="m19 14.0479h10v4h-2v-1c0-.5523-.4477-1-1-1s-1 .4477-1 1v1h-2v-1c0-.5523-.4477-1-1-1s-1 .4477-1 1v1h-2zm-2 6v-2-4-2h14v2 6zm0 5h14v4h-2v-1c0-.5523-.4477-1-1-1s-1 .4477-1 1v1h-2v-1c0-.5523-.4477-1-1-1s-1 .4477-1 1v1h-2v-1c0-.5523-.4477-1-1-1s-1 .4477-1 1v1h-2zm-2 6v-2-6h18v8zm12 11v-2h-6v2zm2 0v-2c0-1.1046-.8954-2-2-2h-6c-1.1046 0-2 .8954-2 2v2h-2v-6h14v6zm-18 2v-10h26v10zm22-2v-6h2v6zm-18 0v-6h-2v6z"/><path d="m15.428 13.7069c-.7252-.3912-1.428-1.2162-1.428-2.9447.6826.7314 1.4235 1.0176 2.1829.9892 2.472-.0922 5.1399-3.51774 6.632-5.76938.7354-1.10963 1.1851-1.93417 1.1851-1.93417s.4497.82454 1.1851 1.93417c1.4921 2.25164 4.16 5.67718 6.632 5.76938.7594.0284 1.5003-.2578 2.1829-.9892 0 1.7286-.7028 2.5536-1.4281 2.9447-.7732.417-1.5719.341-1.5719.341h-14s-.7988.076-1.572-.341zm12.357-1.659h-7.57c.657-.5282 1.2519-1.1224 1.7692-1.6952.7623-.84396 1.4483-1.74639 2.0158-2.55768.5675.81129 1.2535 1.71372 2.0158 2.55768.5173.5728 1.1122 1.167 1.7692 1.6952z"/><path d="m32.55 29.0479h-17.55s-1.4043 4.0959-3.6759 4.629c-.698.1638-1.4779-.0089-2.3241-.7402 0 1.6603 1.0252 2.4346 1.9815 2.7956.8356.3156 1.6185.3156 1.6185.3156h22.8s.7817 0 1.6165-.3148c.9568-.3608 1.9835-1.1349 1.9835-2.7964-.8278.7155-1.616.8962-2.339.7503-2.421-.4884-4.111-4.6391-4.111-4.6391zm.9033 5c-.2018-.1979-.3849-.3978-.5491-.59-.7064-.8271-1.2506-1.7363-1.6101-2.41h-14.964c-.3139.6644-.7808 1.5345-1.3965 2.3327-.166.2152-.3559.4423-.5702.6673z"/><path d="m30.65 18.0479h-13.65s-1.8001 3.9378-3.8815 4.5938c-.6937.2186-1.4186.0727-2.1185-.705 0 1.6626.7996 2.4367 1.5443 2.7971.6487.3141 1.2557.3141 1.2557.3141h20.4s.6071 0 1.256-.3142c.7445-.3605 1.544-1.1346 1.544-2.797-.6845.7606-1.4138.9169-2.1251.7189-2.1984-.6118-4.2249-4.6077-4.2249-4.6077zm1.1746 5c-.1928-.1837-.3695-.3677-.5294-.5435-.7329-.8061-1.337-1.6967-1.7468-2.3579-.0207-.0333-.0409-.0662-.0607-.0986h-11.2738c-.0056.0099-.0112.0198-.0169.0299-.3748.6625-.9321 1.5586-1.6193 2.3719-.162.1918-.3445.3951-.5466.5982z"/></g></svg>