<svg fill="none" height="48" viewBox="0 0 48 48" width="48" xmlns="http://www.w3.org/2000/svg"><g clip-rule="evenodd" fill="#333" fill-rule="evenodd"><path d="m16.4453 6.16795c.3359-.22393.7735-.22393 1.1094 0l6 3.99995c.2782.1855.4453.4977.4453.8321v8c0 .5523-.4477 1-1 1h-12c-.5523 0-1-.4477-1-1v-8c0-.3344.1671-.6466.4453-.8321zm-.4453 11.83205h2v-4h-2zm4 0v-5c0-.5523-.4477-1-1-1h-4c-.5523 0-1 .4477-1 1v5h-2v-6.4648l5-3.33335 5 3.33335v6.4648z"/><path d="m34.4961 12.1318c-.3074-.1757-.6848-.1757-.9922 0l-7 4c-.3116.178-.5039.5093-.5039.8682v10c0 .5523.4477 1 1 1h14c.5523 0 1-.4477 1-1v-10c0-.3589-.1923-.6902-.5039-.8682zm2.5039 13.8682h3v-8.4197l-6-3.4285-6 3.4285v8.4197h3v-6c0-.5523.4477-1 1-1h4c.5523 0 1 .4477 1 1zm-2 0v-5h-2v5z"/><path d="m23.4472 28.1056-8-4c-.2815-.1408-.6129-.1408-.8944 0l-8.00001 4c-.33879.1694-.55279.5156-.55279.8944v12c0 .5523.44772 1 1 1h16c.5523 0 1-.4477 1-1v-12c0-.3788-.214-.725-.5528-.8944zm-7.4472 5.8944v6h-2v-6zm2-1v7h4v-10.382l-7-3.5-7 3.5v10.382h4v-7c0-.5523.4477-1 1-1h4c.5523 0 1 .4477 1 1z"/></g></svg>