<svg fill="none" height="48" viewBox="0 0 48 48" width="48" xmlns="http://www.w3.org/2000/svg"><path d="m0 0h48v48h-48z" fill="#fff"/><g fill="#333"><path d="m27 16c-.5523 0-1 .4477-1 1s.4477 1 1 1h6c.5523 0 1-.4477 1-1s-.4477-1-1-1z"/><path clip-rule="evenodd" d="m14 15c0-2.7614 2.2386-5 5-5s5 2.2386 5 5v4c0 2.7614-2.2386 5-5 5s-5-2.2386-5-5zm8 0v4c0 1.6569-1.3431 3-3 3s-3-1.3431-3-3v-4c0-1.6569 1.3431-3 3-3s3 1.3431 3 3z" fill-rule="evenodd"/><path clip-rule="evenodd" d="m23 40v4h2v-4h5v-2h4c2.2091 0 4-1.7908 4-3.9999v-23.8858c0-2.20911-1.7909-3.99997-4-3.99997h-6l-1.132-1.16436c-1.5707-1.61558-4.1653-1.61558-5.736 0l-1.132 1.16436h-6c-2.2091 0-4 1.79086-4 3.99997v23.8857c0 2.2092 1.7909 4 4 4h4v2zm3.566-32.49151c.3766.38732.8938.60584 1.434.60584h6c1.1046 0 2 .89543 2 1.99997v17.4245c-.2778-.2154-.5865-.4285-.9252-.6256-1.8247-1.0619-4.4643-1.6145-7.5829.2255-2.5679 1.515-4.983 1.9249-7.6101 1.9808-1.1708.0249-2.3676-.0204-3.651-.069-.175-.0067-.352-.0134-.5303-.0199-1.1679-.0431-2.3988-.0808-3.7005-.0597v-18.8566c0-1.10454.8954-1.99997 2-1.99997h6c.5402 0 1.0574-.21852 1.434-.60584l1.132-1.16437c.7854-.80779 2.0826-.80779 2.868.00001z" fill-rule="evenodd"/></g></svg>