<svg fill="none" height="48" viewBox="0 0 48 48" width="48" xmlns="http://www.w3.org/2000/svg"><path d="m0 0h48v48h-48z" fill="#fff"/><g fill="#333"><path clip-rule="evenodd" d="m20 10.2617c.4037 0 .7678.2428.9231.6154l5 12c.2124.5098-.0287 1.0953-.5385 1.3077s-1.0952-.0287-1.3077-.5385l-.9935-2.3846h-6.1667l-.9936 2.3846c-.2124.5098-.7979.7509-1.3077.5385s-.7509-.7979-.5385-1.3077l5-12c.1553-.3726.5194-.6154.9231-.6154zm0 3.6 2.25 5.4h-4.5z" fill-rule="evenodd"/><path d="m30 13c.5523 0 1 .4477 1 1v2h2c.5523 0 1 .4477 1 1s-.4477 1-1 1h-2v2c0 .5523-.4477 1-1 1s-1-.4477-1-1v-2h-2c-.5523 0-1-.4477-1-1s.4477-1 1-1h2v-2c0-.5523.4477-1 1-1z"/><path clip-rule="evenodd" d="m38 10.3761v23.8857c0 2.2091-1.7909 4-4 4h-4v1.9999h-5v4h-2v-4h-5v-1.9999h-4c-2.2091 0-4-1.7909-4-4v-23.8858c0-2.20909 1.7909-3.99995 4-3.99995h6l1.132-1.16436c1.5707-1.61559 4.1653-1.61559 5.736 0l1.132 1.16436h6c2.2091 0 4 1.79086 4 4.00005zm-10-2.00005c-.5402 0-1.0574-.21852-1.434-.60584l-1.132-1.16437c-.7854-.80779-2.0826-.80779-2.868 0l-1.132 1.16437c-.3766.38732-.8938.60584-1.434.60584h-6c-1.1046 0-2 .89543-2 1.99995v18.8568c1.3017-.0212 2.5325.0165 3.7005.0596.1784.0066.3553.0133.5303.0199 1.2833.0486 2.4802.0939 3.651.069 2.6271-.0559 5.0422-.4658 7.61-1.9808 3.1187-1.84 5.7583-1.2873 7.583-.2254.3387.1971.6474.4101.9252.6255v-17.4245c0-1.10462-.8954-2.00005-2-2.00005z" fill-rule="evenodd"/></g></svg>