<svg fill="none" height="48" viewBox="0 0 48 48" width="48" xmlns="http://www.w3.org/2000/svg"><path d="m0 0h48v48h-48z" fill="#fff"/><g fill="#333"><path d="m26 17c0-.5523.4477-1 1-1h2v-2c0-.5523.4477-1 1-1s1 .4477 1 1v2h2c.5523 0 1 .4477 1 1s-.4477 1-1 1h-2v2c0 .5523-.4477 1-1 1s-1-.4477-1-1v-2h-2c-.5523 0-1-.4477-1-1z"/><path clip-rule="evenodd" d="m14 15c0-2.7614 2.2386-5 5-5s5 2.2386 5 5v4c0 2.7614-2.2386 5-5 5s-5-2.2386-5-5zm8 0v4c0 1.6569-1.3431 3-3 3s-3-1.3431-3-3v-4c0-1.6569 1.3431-3 3-3s3 1.3431 3 3z" fill-rule="evenodd"/><path clip-rule="evenodd" d="m23 40h-5v-2h-4c-2.2091 0-4-1.7908-4-4v-23.8857c0-2.20911 1.7909-3.99997 4-3.99997h6l1.132-1.16436c1.5707-1.61558 4.1653-1.61558 5.736 0l1.132 1.16436h6c2.2091 0 4 1.79086 4 3.99997v23.8858c0 2.2091-1.7909 3.9999-4 3.9999h-4v2h-5v4h-2zm5-31.88567c-.5402 0-1.0574-.21852-1.434-.60584l-1.132-1.16436c-.7854-.8078-2.0826-.8078-2.868-.00001l-1.132 1.16437c-.3766.38732-.8938.60584-1.434.60584h-6c-1.1046 0-2 .89543-2 1.99997v18.8566c1.3017-.0211 2.5325.0166 3.7005.0597.1784.0065.3551.0132.5301.0199 1.2834.0486 2.4804.0939 3.6512.069 2.6271-.0559 5.0422-.4658 7.61-1.9808 3.1187-1.84 5.7583-1.2874 7.583-.2255.3387.1971.6474.4102.9252.6256v-17.4245c0-1.10454-.8954-1.99997-2-1.99997z" fill-rule="evenodd"/></g></svg>