<svg fill="none" height="48" viewBox="0 0 48 48" width="48" xmlns="http://www.w3.org/2000/svg"><g fill="#333"><path d="m15 37h18c2.2091 0 4-1.7791 4-3.9738v-3.5262l-4.5-2.5-5.5 1.5-6.5 1.5-6.9773.3672c-1.4142.0745-2.5227 1.2429-2.5227 2.659 0 2.1947 1.7909 3.9738 4 3.9738z"/><g clip-rule="evenodd" fill-rule="evenodd"><path d="m27 28.5 5.5-1.5 4.5 2.5v3.5262c0 2.1947-1.7909 3.9738-4 3.9738h-18c-2.2091 0-4-1.7791-4-3.9738 0-1.4161 1.1085-2.5845 2.5227-2.659l6.9773-.3672zm8 2.1768-2.7594-1.533-4.7144 1.2857c-.0253.0069-.0509.0134-.0765.0193l-6.5 1.5c-.1132.0261-.2285.0423-.3446.0484l-6.9773.3673c-.3519.0185-.6278.3093-.6278.6617 0 1.0777.883 1.9738 2 1.9738h18c1.117 0 2-.8961 2-1.9738z"/><path d="m20.3879 5.53462c1.9688-2.04616 5.2554-2.04616 7.2242 0l.5277.54848h5.1904c2.5728 0 4.6698 2.0738 4.6698 4.6458v4.2711h-2v-4.2711c0-1.45505-1.1891-2.6458-2.6698-2.6458h-5.6159c-.2719 0-.5321-.11072-.7206-.30665l-.8228-.85512c-1.182-1.22844-3.1598-1.22844-4.3418 0l-.8228.85512c-.1885.19593-.4487.30665-.7206.30665h-5.2857c-1.6631 0-3 1.3376-3 2.9738v21.9693c0 1.6362 1.3369 2.9738 3 2.9738h18c1.6631 0 3-1.3376 3-2.9738v-10.0262h2v10.0262c0 2.7532-2.2448 4.9738-5 4.9738h-18c-2.7552 0-5-2.2207-5-4.9738v-21.9693c0-2.75314 2.2448-4.9738 5-4.9738h4.8602z"/><path d="m23 44v-8h2v8z"/><path d="m30 40h-12v-2h12z"/><path d="m34.0689 28.6418c-1.294-.753-3.1544-1.2003-5.5608.2194-2.9571 1.7447-5.7421 2.1974-8.5838 2.2578-1.2344.0263-2.4948-.0216-3.7712-.07-.1752-.0067-.3506-.0133-.5264-.0198-1.4679-.0542-2.9769-.0971-4.5851-.0301l-.0832-1.9983c1.6917-.0705 3.2671-.0247 4.7421.0298.1784.0065.3551.0132.5301.0199 1.2835.0486 2.4803.0939 3.6512.069 2.6271-.0559 5.0422-.4658 7.6101-1.9808 3.1186-1.84 5.7582-1.2874 7.5829-.2255.8877.5166 1.5697 1.1429 2.0274 1.634.2303.2471.4079.4643.5301.6231.0612.0795.1088.1447.1426.1922.0168.0238.0302.0431.0402.0576l.0122.0181.0042.0062.0023.0034c.0003.0004.0005.0009-.8338.5521s-.8341.5516-.8338.552l-.0015-.0022c-.0036-.0052-.0104-.015-.0203-.0289-.0199-.028-.0523-.0726-.0969-.1305-.0894-.1162-.2265-.2844-.4083-.4795-.3665-.3931-.8985-.878-1.5703-1.269z"/><path d="m25 14c.5523 0 1 .4477 1 1v3h3v-3c0-.5523.4477-1 1-1s1 .4477 1 1v8c0 .5523-.4477 1-1 1s-1-.4477-1-1v-3h-3v3c0 .5523-.4477 1-1 1s-1-.4477-1-1v-8c0-.5523.4477-1 1-1z"/><path d="m15 15c0-.5523.4477-1 1-1h3.125c1.6476 0 2.875 1.4049 2.875 3 0 1.0964-.5799 2.1029-1.4775 2.6252l1.383 2.9504c.2344.5.019 1.0955-.4811 1.3299-.5.2344-1.0955.019-1.3299-.4811l-1.6052-3.4244h-1.4893v3c0 .5523-.4477 1-1 1s-1-.4477-1-1zm2 3h2.125c.4234 0 .875-.3859.875-1s-.4516-1-.875-1h-2.125z"/><path d="m32 19c0-.5523.4477-1 1-1h4c.5523 0 1 .4477 1 1s-.4477 1-1 1h-4c-.5523 0-1-.4477-1-1z"/><path d="m35 22c-.5523 0-1-.4477-1-1v-4c0-.5523.4477-1 1-1s1 .4477 1 1v4c0 .5523-.4477 1-1 1z"/></g></g></svg>