<svg fill="none" height="48" viewBox="0 0 48 48" width="48" xmlns="http://www.w3.org/2000/svg"><path d="m0 0h48v48h-48z" fill="#fff"/><g fill="#333"><path clip-rule="evenodd" d="m20.9231 10.8771c-.1553-.3726-.5194-.6154-.9231-.6154s-.7678.2428-.9231.6154l-5 12c-.2124.5098.0287 1.0953.5385 1.3077s1.0953-.0287 1.3077-.5385l.9936-2.3846h6.1667l.9935 2.3846c.2125.5098.7979.7509 1.3077.5385s.7509-.7979.5385-1.3077zm1.3269 8.3846-2.25-5.4-2.25 5.4z" fill-rule="evenodd"/><path d="m27 16c-.5523 0-1 .4477-1 1s.4477 1 1 1h6c.5523 0 1-.4477 1-1s-.4477-1-1-1z"/><path clip-rule="evenodd" d="m38 34.2618v-23.8857c0-2.20919-1.7909-4.00005-4-4.00005h-6l-1.132-1.16436c-1.5707-1.61559-4.1653-1.61559-5.736 0l-1.132 1.16436h-6c-2.2091 0-4 1.79086-4 3.99995v23.8858c0 2.2091 1.7909 4 4 4h4v1.9999h5v4h2v-4h5v-1.9999h4c2.2091 0 4-1.7909 4-4zm-11.434-26.49159c.3766.38732.8938.60584 1.434.60584h6c1.1046 0 2 .89543 2 2.00005v17.4245c-.2778-.2154-.5865-.4284-.9252-.6255-1.8247-1.0619-4.4643-1.6146-7.583.2254-2.5678 1.515-4.9829 1.9249-7.61 1.9808-1.1708.0249-2.3677-.0204-3.651-.069-.175-.0066-.3519-.0133-.5303-.0199-1.168-.0431-2.3988-.0808-3.7005-.0596v-18.8568c0-1.10452.8954-1.99995 2-1.99995h6c.5402 0 1.0574-.21852 1.434-.60584l1.132-1.16437c.7854-.80779 2.0826-.80779 2.868 0z" fill-rule="evenodd"/></g></svg>