<svg fill="none" height="48" viewBox="0 0 48 48" width="48" xmlns="http://www.w3.org/2000/svg"><path d="m0 0h48v48h-48z" fill="#fff"/><g fill="#333"><path clip-rule="evenodd" d="m18.3856 5.33391c1.9693-2.06012 5.2595-2.06012 7.2288 0l.5274.55175h5.1884c2.579 0 4.6698 2.09076 4.6698 4.66984v1.4445h-2v-1.4445c0-1.47451-1.1953-2.66984-2.6698-2.66984h-5.6159c-.2731 0-.5342-.11164-.7229-.30901l-.8228-.86078c-1.1815-1.23607-3.1557-1.23607-4.3372 0l-.8228.86078c-.1887.19737-.4498.30901-.7229.30901h-5.2857c-1.6569 0-3 1.34315-3 3.00004v17.0855c1.3017-.0212 2.5326.0165 3.7005.0596.1778.0066.3539.0132.5284.0198l.0012.0001c1.2833.0486 2.481.0939 3.6517.069 2.6271-.0559 5.0422-.4658 7.6101-1.9808 3.1186-1.84 5.7582-1.2873 7.5829-.2254.3387.197.6474.4101.9252.6255v-2.539h2v9c0 2.7614-2.2386 5-5 5h-3v2h-5v4h-2v-4h-5v-2h-3c-2.7614 0-5-2.2386-5-5v-22.1143c0-2.76145 2.2386-5.00004 5-5.00004h4.8582z" fill-rule="evenodd"/><path d="m34 21c0 .5523.4477 1 1 1s1-.4477 1-1v-2h2c.5523 0 1-.4477 1-1s-.4477-1-1-1h-2v-2c0-.5523-.4477-1-1-1s-1 .4477-1 1v2h-2c-.5523 0-1 .4477-1 1s.4477 1 1 1h2z"/><path d="m22 12c.5523 0 1 .4477 1 1v4h4v-4c0-.5523.4477-1 1-1s1 .4477 1 1v10c0 .5523-.4477 1-1 1s-1-.4477-1-1v-4h-4v4c0 .5523-.4477 1-1 1s-1-.4477-1-1v-10c0-.5523.4477-1 1-1z"/><path clip-rule="evenodd" d="m13 12h3c2.2091 0 4 1.7909 4 4 0 1.9491-1.3941 3.5726-3.2395 3.9278l2.8642 2.2913c.4313.345.5012.9743.1562 1.4056s-.9743.5012-1.4056.1562l-4.3753-3.5003v2.7194c0 .5523-.4477 1-1 1s-1-.4477-1-1v-10c0-.5523.4477-1 1-1zm1.0092 6h1.9908c1.1046 0 2-.8954 2-2s-.8954-2-2-2h-2v4z" fill-rule="evenodd"/></g></svg>