<svg fill="none" height="48" viewBox="0 0 48 48" width="48" xmlns="http://www.w3.org/2000/svg"><g fill="#333"><path clip-rule="evenodd" d="m28 8.3579c-.5375 0-1.0525-.21638-1.4286-.60036l-1.1321-1.15547c-.7864-.80276-2.0922-.80276-2.8786 0l-1.1321 1.15547c-.3761.38397-.8911.60036-1.4286.60036h-6c-1.1191 0-2 .89618-2 1.9694v23.7033c0 1.0732.8809 1.9694 2 1.9694h20c1.1191 0 2-.8962 2-1.9694v-23.7033c0-1.07322-.8809-1.9694-2-1.9694zm10 1.9694v23.7033c0 2.1922-1.7909 3.9694-4 3.9694h-20c-2.2091 0-4-1.7772-4-3.9694v-23.7033c0-2.19223 1.7909-3.9694 4-3.9694h6l1.132-1.15547c1.5707-1.60324 4.1653-1.60324 5.736 0l1.132 1.15547h6c2.2091 0 4 1.77718 4 3.9694z" fill-rule="evenodd"/><path d="m15 37h18c2.2091 0 4-1.7791 4-3.9738v-3.5262l-4.5-2.5-5.5 1.5-6.5 1.5-6.9773.3672c-1.4142.0745-2.5227 1.2429-2.5227 2.659 0 2.1947 1.7909 3.9738 4 3.9738z"/><g clip-rule="evenodd" fill-rule="evenodd"><path d="m27 28.5 5.5-1.5 4.5 2.5v3.5262c0 2.1947-1.7909 3.9738-4 3.9738h-18c-2.2091 0-4-1.7791-4-3.9738 0-1.4161 1.1085-2.5845 2.5227-2.659l6.9773-.3672zm8 2.1768-2.7594-1.533-4.7144 1.2857c-.0253.0069-.0509.0134-.0765.0193l-6.5 1.5c-.1132.0261-.2285.0423-.3446.0484l-6.9773.3673c-.3519.0185-.6278.3093-.6278.6617 0 1.0777.883 1.9738 2 1.9738h18c1.117 0 2-.8961 2-1.9738z"/><path d="m15 12c0-.5523.4477-1 1-1h5c2.2091 0 4 1.7909 4 4 0 1.1947-.5238 2.2671-1.3542 3 .8304.7329 1.3542 1.8053 1.3542 3 0 2.2091-1.7909 4-4 4h-5c-.2652 0-.5196-.1054-.7071-.2929s-.2929-.4419-.2929-.7071zm6 5c1.1046 0 2-.8954 2-2s-.8954-2-2-2h-4v4zm-4 2h4c1.1046 0 2 .8954 2 2s-.8954 2-2 2h-4z"/><path d="m26 18c0-.5523.4477-1 1-1h5c.5523 0 1 .4477 1 1s-.4477 1-1 1h-5c-.5523 0-1-.4477-1-1z"/><path d="m23 44v-8h2v8z"/><path d="m30 40h-12v-2h12z"/><path d="m34.0689 28.6419c-1.294-.753-3.1544-1.2004-5.5608.2194-2.9571 1.7447-5.7421 2.1973-8.5838 2.2578-1.2344.0262-2.4948-.0216-3.7712-.0701-.1752-.0066-.3506-.0133-.5264-.0198-1.4679-.0541-2.9769-.0971-4.5851-.0301l-.0832-1.9982c1.6917-.0705 3.2671-.0247 4.7421.0297.1784.0066.3551.0133.5301.0199 1.2835.0486 2.4803.0939 3.6512.069 2.6271-.0559 5.0422-.4657 7.6101-1.9808 3.1186-1.84 5.7582-1.2873 7.5829-.2254.8877.5165 1.5697 1.1428 2.0274 1.634.2303.2471.4079.4642.5301.623.0612.0795.1088.1448.1426.1923.0168.0237.0302.043.0402.0575l.0122.0181.0042.0062.0023.0034c.0003.0005.0005.0009-.8338.5522-.8343.5512-.8341.5516-.8338.552l-.0015-.0022c-.0036-.0052-.0104-.015-.0203-.029-.0199-.028-.0523-.0726-.0969-.1305-.0894-.1161-.2265-.2844-.4083-.4794-.3665-.3932-.8985-.8781-1.5703-1.269z"/></g></g></svg>