<svg fill="none" height="48" viewBox="0 0 48 48" width="48" xmlns="http://www.w3.org/2000/svg"><path d="m0 0h48v48h-48z" fill="#fff"/><g fill="#333"><path clip-rule="evenodd" d="m19.3856 5.33391c1.9693-2.06012 5.2595-2.06012 7.2288 0l.5274.55175h5.1884c2.579 0 4.6698 2.09076 4.6698 4.66984v1.4445h-2v-1.4445c0-1.47451-1.1953-2.66984-2.6698-2.66984h-5.6159c-.2731 0-.5342-.11164-.7229-.30901l-.8228-.86078c-1.1815-1.23607-3.1557-1.23607-4.3372 0l-.8228.86078c-.1887.19737-.4498.30901-.7229.30901h-5.2857c-1.6569 0-3 1.34315-3 3.00004v17.0852c1.3017-.0211 2.5325.0166 3.7005.0597.1783.0065.3549.0132.5299.0198 1.2833.0487 2.4806.094 3.6514.0691 2.6271-.0559 5.0422-.4658 7.61-1.9808 3.1187-1.84 5.7583-1.2874 7.583-.2255.3387.1971.6474.4102.9252.6256v-2.5388h2v9c0 2.7614-2.2386 5-5 5h-3v2h-5v4h-2v-4h-5v-2h-3c-2.7614 0-5-2.2386-5-5v-22.1143c0-2.76145 2.2386-5.00004 5-5.00004h4.8582z" fill-rule="evenodd"/><path clip-rule="evenodd" d="m18.4363 12.6489c-.1463-.3903-.5195-.6489-.9363-.6489s-.79.2586-.9363.6489l-3.5 9.3333c-.194.5171.0681 1.0935.5852 1.2875.5171.1939 1.0935-.0681 1.2874-.5852l.6317-1.6845h3.864l.6317 1.6845c.1939.5171.7703.7791 1.2874.5852.5171-.194.7791-.7704.5852-1.2875zm.2457 6.3511-1.182-3.152-1.182 3.152z" fill-rule="evenodd"/><path d="m32 18c0-.5523.4477-1 1-1h2v-2c0-.5523.4477-1 1-1s1 .4477 1 1v2h2c.5523 0 1 .4477 1 1s-.4477 1-1 1h-2v2c0 .5523-.4477 1-1 1s-1-.4477-1-1v-2h-2c-.5523 0-1-.4477-1-1z"/><path clip-rule="evenodd" d="m26.25 12h-3.25v11h3.25c1.8069 0 3.3376-1.4194 3.3376-3.25 0-.8836-.3566-1.6714-.9288-2.25.5722-.5786.9288-1.3664.9288-2.25 0-1.8306-1.5307-3.25-3.3376-3.25zm1.3376 3.25c0-.6547-.5625-1.25-1.3376-1.25h-1.25v2.5h1.25c.7751 0 1.3376-.5953 1.3376-1.25zm-1.3376 3.25h-1.25v2.5h1.25c.7751 0 1.3376-.5953 1.3376-1.25s-.5625-1.25-1.3376-1.25z" fill-rule="evenodd"/></g></svg>