<svg fill="none" height="48" viewBox="0 0 48 48" width="48" xmlns="http://www.w3.org/2000/svg"><g fill="#333"><g clip-rule="evenodd" fill-rule="evenodd"><path d="m39 8h-30c-.55229 0-1 .44772-1 1v30c0 .5523.44772 1 1 1h30c.5523 0 1-.4477 1-1v-30c0-.55228-.4477-1-1-1zm-30-2c-1.65685 0-3 1.34315-3 3v30c0 1.6569 1.34315 3 3 3h30c1.6569 0 3-1.3431 3-3v-30c0-1.65685-1.3431-3-3-3z"/><path d="m20.4888 16.3299c-1.6429.2838-2.8402 1.676-3.0353 3.3318l-1.4535 12.3383h16l-1.4555-12.355c-.1941-1.6476-1.3801-3.0374-3.0143-3.3232-2.4505-.4284-4.4921-.4324-7.0414.0081zm1.2414 4.3179c.0685-.548-.3203-1.0478-.8683-1.1163s-1.0478.3202-1.1163.8683l-.9047 7.2381c-.0686.548.3202 1.0478.8682 1.1163s1.0478-.3202 1.1163-.8683z"/><path d="m22.4744 18.0768c.8708.6191 1.3821 1.6846 1.2403 2.8191l-.9047 7.2381c-.0937.7496-.4564 1.3998-.9791 1.866h7.9197l-1.1923-10.121c-.1024-.8691-.704-1.4702-1.3725-1.5871-1.6711-.2921-3.1098-.3673-4.7114-.2151zm8.0701 1.5682c-.1941-1.6476-1.3801-3.0374-3.0143-3.3232-2.4505-.4284-4.4921-.4324-7.0414.0081-1.6429.2838-2.8402 1.676-3.0353 3.3318l-1.4535 12.3383h16zm-8.8143 1.0028-.9048 7.2381c-.0685.5481-.5683.9368-1.1163.8683s-.9368-.5683-.8682-1.1163l.9047-7.2381c.0685-.5481.5683-.9368 1.1163-.8683s.9368.5683.8683 1.1163z"/><path d="m33 36h-18v-2h18z"/></g><path d="m13 24c0 .3371.0152.6706.0448 1h-3.0448v-2h3.0448c-.0296.3294-.0448.6629-.0448 1z"/><path d="m15.0124 17.6563c-.3839.5428-.7197 1.1219-1.0015 1.7312l-2.6353-1.5215 1-1.732z"/><path d="m19.3875 14.0109c-.6093.2818-1.1884.6177-1.7312 1.0015l-1.5223-2.6367 1.732-1z"/><path d="m24 13c-.3371 0-.6706.0152-1 .0448v-3.0448h2v3.0448c-.3294-.0296-.6629-.0448-1-.0448z"/><path d="m30.3437 15.0124c-.5428-.3838-1.1219-.7197-1.7312-1.0015l1.5215-2.6352 1.732 1z"/><path d="m33.9891 19.3875c-.2818-.6093-.6176-1.1884-1.0015-1.7312l2.6368-1.5223 1 1.732z"/><path d="m35 24c0-.3371-.0152-.6706-.0448-1h3.0448v2h-3.0448c.0296-.3294.0448-.6629.0448-1z"/></g></svg>