<svg fill="none" height="48" viewBox="0 0 48 48" width="48" xmlns="http://www.w3.org/2000/svg"><g clip-rule="evenodd" fill="#333" fill-rule="evenodd"><path d="m39 8h-30c-.55229 0-1 .44772-1 1v30c0 .5523.44772 1 1 1h30c.5523 0 1-.4477 1-1v-30c0-.55229-.4477-1-1-1zm-30-2c-1.65685 0-3 1.34315-3 3v30c0 1.6569 1.34315 3 3 3h30c1.6569 0 3-1.3431 3-3v-30c0-1.65685-1.3431-3-3-3z"/><path d="m26.0381 14.5819h-9.0381v18.8167h9.0381zm-11.0381-2v22.8167h13.0381v-22.8167z"/><path d="m22.8353 10.0654c-.6475-.21585-1.3162.2661-1.3162.9487v26.1987c0 .6825.6687 1.1645 1.3162.9486l8.8651-2.955c.4083-.1361.6838-.5182.6838-.9487v-20.2886c0-.4304-.2755-.8126-.6838-.9487zm2.3055 14.7724c.4 0 .7243-.6486.7243-1.4487s-.3243-1.4487-.7243-1.4487c-.4001 0-.7244.6486-.7244 1.4487s.3243 1.4487.7244 1.4487z"/></g></svg>