<svg fill="none" height="48" viewBox="0 0 48 48" width="48" xmlns="http://www.w3.org/2000/svg"><path d="m16.6864 20.7207.663.7485zm15.962-.6427-.663.7485zm-2.1766-1.2854.5085-.8611-.4022-.2375-.4403.156zm-3.9905 3.2135-.5007.8656.7236.4186.5403-.638zm7.2053-3.5292-.4331.9013 1.0199.4902.361-1.0725zm1.3135-3.1561.9477.3189.3097-.9202-.9107-.3367zm-11.4926 5.0498-.979-.2037-.1594.7661.7053.3389zm2.9552 1.5781-.4996.8662.844.4867.5086-.831zm-2.9553-1.8938-.2088.9779c.5233.1118 1.0419-.2082 1.1766-.7262zm-4.2686-.6312h-1c0 .3844.2203.7348.5668.9013zm.2612-2.4237.6344.773c.3937-.323.4817-.8904.2044-1.3175zm-1.5-2.3105-.5671-.8237c-.4462.3072-.5666.9138-.2716 1.3682zm3.2089-2.2093.8027-.5965c-.3211-.432-.9264-.5324-1.3698-.2272zm1.6418 2.2093-.8026.5964c.1921.2585.4969.4087.819.4034.322-.0052.6218-.1653.8053-.4299zm.6567-.9469.8217.5699c.1161-.1673.1783-.3662.1783-.5699zm0-2.2093v-1c-.5522 0-1 .4477-1 1zm3.9926 0h1c0-.5523-.4477-1-1-1zm0 1.8287h-1c0 .3436.1764.6631.4672.8462zm1.2612 1.3275v1c.3721 0 .7134-.2066.886-.5363.1725-.3297.1478-.7279-.0643-1.0337zm-13.2612 6.8106-.8384.5449c.1515.2332.3933.3927.6672.4403.274.0476.5554-.021.7767-.1894zm-3-1.9001-.9826-.1858c-.0502.2654.0091.5398.1644.7608s.3933.3697.66.4125zm1.1567-3.9635.2827-.9592c-.3483-.1026-.725-.0084-.9839.2463zm5.21 3.9635.3714.9285c.4239-.1695.6791-.6047.6202-1.0574zm5.9374 7.5912-.9633-.2684-.0949.3408.1404.3247zm.5244-1.8826.9634.2683zm-16.3285-18.3086h30v-2h-30zm32 2v30h2v-30zm-2 32h-30v2h30zm-32-2v-30h-2v30zm2 2c-1.10457 0-2-.8954-2-2h-2c0 2.2091 1.79086 4 4 4zm32-2c0 1.1046-.8954 2-2 2v2c2.2091 0 4-1.7909 4-4zm-2-32c1.1046 0 2 .89543 2 2h2c0-2.20914-1.7909-4-4-4zm-30-2c-2.20914 0-4 1.79086-4 4h2c0-1.10457.89543-2 2-2zm7.0233 14.9721c-1.5429 1.3668-2.1124 3.2297-2.0482 5.1405.0636 1.8911.7428 3.876 1.7497 5.6599 1.0097 1.7888 2.3836 3.4378 3.911 4.65 1.5132 1.2011 3.2698 2.0445 5.0316 2.0445v-2c-1.1404 0-2.4674-.5626-3.7883-1.611-1.3068-1.0372-2.5177-2.4813-3.4126-4.0666-.8976-1.5904-1.4427-3.2609-1.4925-4.744-.0492-1.4634.3789-2.6934 1.3754-3.5762zm8.6441 17.4949c1.756 0 3.5552-.8379 5.1232-2.0437 1.584-1.2181 3.0305-2.885 4.0906-4.7184 2.0703-3.5806 2.8927-8.3085-.5697-11.3755l-1.3261 1.4971c2.3534 2.0847 2.0875 5.5513.1644 8.8773-.9366 1.6198-2.2131 3.0842-3.5784 4.1341-1.3813 1.0622-2.7578 1.6291-3.904 1.6291zm8.6441-18.1376c-.442-.3915-.7904-.5974-1.1637-.7863-.356-.1802-.6606-.3122-1.1675-.6116l-1.017 1.7221c.5814.3434 1.0024.5327 1.2812.6739.2616.1324.4573.2478.7409.499zm-3.1737-1.4794c-1.1187.3964-2.2461 1.3299-3.0256 2.061-.4067.3814-.7523.7404-.9963 1.004-.1223.1322-.2199.2412-.2878.3182-.0339.0385-.0605.069-.079.0905-.0093.0108-.0165.0192-.0217.0253-.0026.003-.0047.0055-.0063.0073-.0007.0009-.0014.0017-.0019.0023-.0002.0003-.0005.0005-.0007.0008 0 .0001-.0002.0002-.0002.0003-.0001.0001-.0002.0002.763.6464s.7631.6463.763.6464c0 0-.0001.0001-.0001.0001-.0001.0001-.0001.0001-.0001.0001 0-.0001.0002-.0002.0005-.0006.0005-.0006.0016-.0019.0032-.0037.0031-.0037.0083-.0097.0154-.018.0142-.0165.0362-.0418.0654-.0748.0582-.0662.1449-.163.255-.2819.2208-.2385.5327-.5624.8968-.904.7624-.715 1.6302-1.3882 2.3254-1.6346zm-3.6565 4.1561c.5007-.8656.5004-.8658.5002-.8659-.0001-.0001-.0004-.0002-.0007-.0004-.0004-.0003-.001-.0006-.0017-.001-.0014-.0008-.0032-.0018-.0054-.0031-.0044-.0025-.0104-.006-.0181-.0103-.0152-.0087-.0369-.0209-.0647-.0364-.0555-.0309-.1353-.0748-.2369-.129-.203-.1084-.4936-.2585-.8509-.4295-.7119-.3406-1.7013-.77-2.7974-1.1148-1.0885-.3423-2.329-.6163-3.5303-.6121-1.2021.0042-2.4594.2892-3.4521 1.1685l1.3261 1.4971c.5031-.4456 1.218-.6624 2.133-.6656.9157-.0032 1.9369.2098 2.9232.52.9787.3078 1.877.6966 2.5343 1.0111.3273.1565.5915.2931.7722.3896.0903.0482.1596.0863.2052.1118.0228.0127.0397.0222.0504.0283.0053.003.0091.0051.0112.0064.0011.0006.0018.001.0021.0011.0001.0001.0001.0001.0001.0001-.0001 0-.0002-.0001-.0002-.0001-.0002-.0001-.0003-.0002.5004-.8658zm8.1531-3.2102c.1853-.5508.3889-.9891.6153-1.4745.2251-.4828.473-1.0129.6981-1.6817l-1.8955-.6379c-.1854.5507-.3889.989-.6153 1.4744-.2251.4828-.473 1.0129-.6981 1.6817zm.7124-4.4131c-4.5585-1.6852-7.7343-.7987-9.8087.917-1.9906 1.6463-2.8147 3.9301-3.0096 4.8671l1.958.4074c.1334-.6411.7869-2.4603 2.3262-3.7334 1.4555-1.2037 3.8618-2.0531 7.8406-.5822zm-12.2724 6.8891c.6324.304 1.3527.6883 1.9218 1.0009.2831.1555.5257.2915.6973.3885.0858.0485.1537.0872.1999.1136.0231.0133.0408.0234.0526.0302.0059.0033.0103.0059.0132.0075.0014.0009.0025.0015.0031.0019.0004.0001.0006.0003.0007.0004h.0002s-.0001 0 .4995-.8662c.4996-.8663.4996-.8663.4995-.8664 0 0 0 0-.0001 0 0-.0001-.0002-.0001-.0003-.0002-.0003-.0002-.0006-.0004-.0011-.0006-.0009-.0006-.0022-.0013-.0039-.0023-.0035-.002-.0084-.0048-.0149-.0085-.0129-.0075-.0317-.0183-.0561-.0322-.0487-.0278-.1193-.068-.2079-.1182-.1773-.1002-.4272-.2403-.7188-.4005-.5802-.3186-1.3374-.7232-2.0185-1.0505zm3.3883.6768c.853.5219.8528.5222.8527.5225-.0001 0-.0002.0002-.0003.0004s-.0002.0003-.0002.0004c-.0001.0001 0-.0001.0003-.0006.0006-.001.002-.0032.0041-.0066.0043-.0069.0117-.0185.022-.0345.0206-.032.053-.0814.0965-.1453.0872-.1279.2182-.3124.3879-.5299.3422-.4385.8281-.9935 1.415-1.4871 1.2039-1.0126 2.5777-1.5795 4.0128-.8898l.8663-1.8026c-2.5052-1.204-4.7434-.0351-6.1664 1.1617-.7265.611-1.3077 1.279-1.7044 1.7874-.1997.2559-.356.4758-.4638.6339-.0539.0791-.0959.1431-.1254.1888-.0147.0228-.0262.0411-.0346.0545-.0042.0066-.0076.0121-.0102.0162-.0012.0021-.0023.0038-.0032.0053-.0004.0007-.0008.0013-.0012.0019-.0001.0002-.0003.0006-.0004.0007-.0002.0003-.0004.0007.8525.5227zm-2.7464-2.8717c-1.5645-.3342-2.3766-.3377-2.9589-.3377-.2807 0-.4112-.0024-.5447-.0252-.118-.0201-.2745-.0638-.5408-.1917l-.8663 1.8026c.3904.1876.7265.3018 1.0702.3606.3283.0561.6288.0537.8816.0537.4849 0 1.1505-.0035 2.5412.2935zm-3.4775.3467c0-1.0753.0643-1.6078.1115-1.8461.0234-.1181.0373-.136.0214-.1004-.0087.0194-.0286.0598-.0644.1108-.0182.0259-.0411.0555-.0695.0868-.0143.0157-.0299.0319-.0471.0483-.0086.0083-.0176.0166-.027.0249-.0047.0042-.0095.0083-.0144.0125-.0024.0021-.0049.0042-.0074.0063-.0012.001-.0031.0026-.0037.0031-.0019.0016-.0038.0031-.6382-.7699s-.6363-.7715-.6382-.7699c-.0006.0005-.0025.0021-.0037.0032-.0026.0021-.005.0042-.0075.0063-.005.0042-.0099.0085-.0147.0127-.0096.0086-.019.0172-.0281.0259-.0181.0174-.0353.0351-.0514.0529-.0323.0356-.0608.0719-.0861.1079-.0501.0714-.0904.1459-.1236.2199-.0649.1448-.1163.3185-.1583.5302-.0834.4212-.1496 1.1005-.1496 2.2346zm.1-2.9682-1.5-2.3106-1.6775 1.0891 1.5 2.3105zm-1.7717-.9424 3.2089-2.2093-1.1342-1.6473-3.2089 2.2093zm1.8392-2.4365 1.6418 2.2093 1.6053-1.1929-1.6418-2.2093zm3.2661 2.1828.6567-.9469-1.6434-1.1398-.6567.9468zm.835-1.5168v-2.2093h-2v2.2093zm-1-1.2093h3.9926v-2h-3.9926zm2.9926-1v1.8287h2v-1.8287zm1 1.8287c-.5328.8462-.5331.846-.5334.8459 0-.0001-.0003-.0002-.0005-.0003-.0003-.0002-.0006-.0004-.0009-.0006-.0006-.0004-.0012-.0008-.0018-.0012-.0011-.0007-.0021-.0013-.0029-.0018-.0016-.0011-.0027-.0018-.0033-.0021-.0011-.0008 0-.0001.0032.0021.0062.0043.0206.0144.0422.0307.0431.0325.1146.0894.2064.1735.1836.1681.4484.4445.7305.8512l1.6434-1.1399c-.3747-.5401-.7405-.9275-1.0233-1.1864-.1414-.1294-.262-.2268-.3527-.2952-.0454-.0342-.0834-.0613-.1127-.0815-.0147-.0101-.0273-.0185-.0375-.0252-.0052-.0034-.0097-.0064-.0137-.0089-.002-.0013-.0038-.0025-.0055-.0036-.0009-.0005-.0017-.001-.0024-.0015-.0004-.0003-.0008-.0005-.0012-.0007-.0002-.0001-.0004-.0003-.0005-.0004-.0003-.0001-.0005-.0003-.5334.8459zm1.2612.3275c-1.4038 0-2.801.9606-3.8407 2.0432-1.077 1.1215-2.0007 2.6088-2.3809 4.0705l1.9356.5034c.2766-1.0632.9947-2.2586 1.8878-3.1886.9305-.9689 1.8318-1.4285 2.3982-1.4285zm-13.2612 7.8106c.8384-.545.8382-.5454.838-.5457-.0001-.0001-.0003-.0004-.0004-.0007-.0003-.0005-.0007-.001-.001-.0015-.0007-.001-.0015-.0022-.0023-.0034-.0016-.0025-.0036-.0054-.0057-.0087-.0044-.0065-.0098-.0146-.0164-.0241-.013-.019-.0304-.0437-.052-.0734-.0433-.0594-.1041-.1393-.1823-.2336-.1559-.1878-.3843-.437-.685-.697-.5986-.5176-1.5143-1.1039-2.7347-1.2994l-.3164 1.9749c.7498.1201 1.334.4838 1.7429.8374.203.1754.3552.3421.454.4612.0491.0592.0842.1056.1049.1341.0104.0142.0171.0238.0201.0282.0015.0022.0021.003.0017.0025-.0002-.0002-.0006-.0009-.0012-.0018-.0003-.0005-.0007-.0011-.0012-.0018-.0002-.0003-.0004-.0007-.0007-.001-.0001-.0002-.0003-.0005-.0003-.0006-.0002-.0003-.0004-.0007.838-.5456zm-2.0174-1.7142c.3224-1.7044.5989-2.6357.7793-3.121.0898-.2414.1513-.36.1754-.4025.0118-.0206.0125-.0194.0008-.0035-.006.0081-.0155.0203-.0286.0356-.0066.0077-.0142.0162-.0227.0254-.0043.0046-.0089.0094-.0137.0143-.0024.0025-.0048.005-.0074.0075-.0012.0013-.0025.0026-.0038.0039-.0007.0006-.0017.0016-.002.0019-.001.001-.002.002-.7032-.711-.7012-.7129-.7022-.7119-.7032-.711-.0003.0004-.0013.0014-.002.002-.0013.0014-.0026.0027-.004.004-.0026.0027-.0053.0054-.0079.0081-.0053.0054-.0106.011-.0158.0166-.0105.0113-.021.0229-.0314.0351-.0208.0242-.0416.0503-.0626.0787-.0416.0563-.0851.1231-.1305.2028-.0901.1583-.1947.3796-.312.695-.2337.6286-.5356 1.679-.8699 3.4464zm.1741-4.1494c-.2827.9592-.2829.9592-.283.9591-.0001 0-.0002 0-.0003 0-.0001-.0001-.0002-.0001-.0002-.0001s.0003.0001.0009.0003c.0012.0003.0035.001.0069.002.0068.0021.0181.0055.0334.0103.0308.0096.078.0245.1393.0448.1228.0405.3016.102.5184.1837.4361.1642 1.0138.4056 1.5945.7165.5868.3141 1.1389.6793 1.5503 1.0794.4158.4042.616.7729.6581 1.0965l1.9833-.2579c-.1221-.9388-.6551-1.6969-1.2471-2.2725-.5962-.5798-1.3261-1.0476-2.0007-1.4088-.6807-.3644-1.3439-.6405-1.8334-.8248-.246-.0927-.4511-.1633-.5966-.2113-.0727-.0241-.1308-.0425-.1717-.0552-.0205-.0064-.0367-.0113-.0483-.0149-.0059-.0017-.0106-.0031-.0141-.0042-.0017-.0005-.0032-.001-.0044-.0013-.0006-.0002-.0011-.0003-.0015-.0005-.0002 0-.0005-.0001-.0006-.0001-.0003-.0001-.0005-.0002-.2832.959zm4.8386 3.0351c-.991.3964-1.8879.9039-2.53 1.3058-.3231.2022-.5867.3808-.771.51-.0923.0647-.165.1172-.2157.1544-.0254.0185-.0453.0333-.0594.0438-.0071.0053-.0127.0095-.0168.0126-.0021.0016-.0038.0029-.0051.0039-.0007.0005-.0012.0009-.0017.0013-.0002.0001-.0004.0003-.0006.0005-.0001 0-.0002.0001-.0003.0002-.0001 0-.0002.0001.6053.796.6055.7958.6054.7959.6053.7959 0 .0001-.0001.0001-.0001.0002-.0001 0-.0002.0001-.0003.0001 0 .0001-.0001.0001 0 0 .0002-.0001.0007-.0005.0016-.0012.0018-.0013.005-.0037.0096-.0072.0093-.0069.0241-.0179.0443-.0327.0403-.0295.1017-.0739.1818-.13.1604-.1125.3948-.2714.6842-.4525.5829-.3648 1.3693-.8072 2.2117-1.1442zm5.391 8.9167.8426 1.9472 1.8355-.7942-.8425-1.9472zm.7627 1.6182.1879 2.7538 1.9953-.1361-.1879-2.7538zm1.1129.9253 2.8564-.3316-.2306-1.9867-2.8564.3316zm-.4607-8.4516-.936 3.36 1.9267.5367.9359-3.36zm-.936 3.36-.5244 1.8826 1.9266.5367.5245-1.8826zm.5513-.6428-2.9211 1.321.8242 1.8223 2.921-1.321zm-2.2797 1.2588-2.9105-.6857-.4586 1.9467 2.9105.6857zm-1.1592.6055-.9925 2.5089 1.8597.7357.9926-2.5089z" fill="#333"/></svg>