<svg fill="none" height="48" viewBox="0 0 48 48" width="48" xmlns="http://www.w3.org/2000/svg"><path clip-rule="evenodd" d="m5 9c0-2.20914 1.79086-4 4-4h30c2.2091 0 4 1.79086 4 4v30c0 2.2091-1.7909 4-4 4h-30c-2.20914 0-4-1.7909-4-4zm4-2c-1.10457 0-2 .89543-2 2v30c0 1.1046.89543 2 2 2h30c1.1046 0 2-.8954 2-2v-30c0-1.10457-.8954-2-2-2zm13.5074 4.5333c0-.5523.4478-1 1-1h3.9926c.5523 0 1 .4477 1 1v1.346c.0194.0173.0393.0352.0596.0538.1854.1697.4064.3946.6422.6815 1.6851-.2971 3.7193-.1286 6.145.7682l.9107.3367-.3097.9202c-.2231.6629-.4686 1.1894-.6921 1.6687l-.006.013c-.2264.4854-.43.9237-.6153 1.4745l-.361 1.0725-.7848-.3772c3.2563 3.0696 2.4268 7.6955.3926 11.2137-1.0601 1.8334-2.5066 3.5003-4.0906 4.7184-1.568 1.2058-3.3672 2.0437-5.1232 2.0437-1.7618 0-3.5184-.8434-5.0316-2.0445-1.5274-1.2122-2.9013-2.8612-3.911-4.65-1.0069-1.7839-1.6861-3.7688-1.7497-5.6599-.0372-1.1083.1387-2.2005.5942-3.1891-.0095-.0118-.0197-.0243-.0306-.0374-.0988-.1191-.251-.2858-.454-.4612-.4089-.3536-.9931-.7173-1.7429-.8374-.2667-.0428-.5047-.1915-.66-.4125s-.2146-.4954-.1644-.7608c.3343-1.7674.6362-2.8178.8699-3.4464.1173-.3154.2219-.5367.312-.695.0454-.0797.0889-.1465.1305-.2028.021-.0284.0418-.0545.0626-.0787.0104-.0122.0209-.0238.0314-.0351l.0158-.0166.0079-.0081.004-.004.002-.002c.001-.0009.002-.0019.7032.711.2827-.9592.2829-.9591.2832-.959l.0021.0006.0044.0013.0141.0042.0483.0149c.0409.0127.099.0311.1717.0552.1455.048.3506.1186.5966.2113.4895.1843 1.1527.4604 1.8334.8248.5251.2811 1.0836.6268 1.5865 1.0396l-1.0357-1.5954c-.295-.4544-.1746-1.061.2716-1.3682l3.2089-2.2093c.4434-.3052 1.0487-.2048 1.3698.2272l.4958.6673zm-4.9115 7.5372c-.0982-.1407-.2235-.2869-.379-.438-.4114-.4001-.9635-.7653-1.5503-1.0794-.5315-.2845-1.0605-.5108-1.4807-.6731-.1381.4102-.317 1.0428-.5211 1.9983.7299.2721 1.3073.6699 1.7281 1.0337.1002.0866.1924.1721.2765.2544.0919-.0599.1907-.1232.2959-.189.0609-.0381.1241-.0772.1894-.117.4173-.3404.877-.5827 1.3568-.7486.028-.0138.0561-.0276.0844-.0413zm-.2678 2.4178c.2844-.1698.6037-.3488.9451-.5214.3532-.1079.7567-.1617 1.2092-.1633.9157-.0032 1.9369.2098 2.9232.52.9787.3078 1.877.6966 2.5343 1.0111.0543.026.107.0514.1577.0762l-.607 2.1791-2.1851.9882-2.5792-.6077-.4586 1.9467 1.7843.4204-.5669 1.433 1.8597.7357.8436-2.1324.6026-.2725-.0451.1622.9148 2.1143.1762 2.5824 1.9953-.1361-.123-1.8024 1.9091-.2216-.2306-1.9867-2.1183.2459-.407-.9407 1.1623-4.1726.0757-.1237.1437-.1697.0037-.0043.0154-.018c.0142-.0165.0362-.0418.0654-.0748.0582-.0662.1449-.163.255-.2819.2208-.2385.5327-.5624.8968-.904.6248-.5859 1.3204-1.1438 1.9337-1.4617.2464.1327.454.2343.6251.318.0755.0369.1439.0704.2053.1015.2616.1324.4573.2478.7409.499 2.3534 2.0847 2.0875 5.5513.1644 8.8773-.9366 1.6198-2.2131 3.0842-3.5784 4.1341-1.3813 1.0622-2.7578 1.6291-3.904 1.6291-1.1404 0-2.4674-.5626-3.7883-1.611-1.3068-1.0372-2.5177-2.4813-3.4126-4.0666-.8976-1.5904-1.4427-3.2609-1.4925-4.744-.0488-1.4529.3728-2.6758 1.3541-3.5571zm-2.6639.5608.0012.0018c.0002.0003.0004.0007 0 0m-.0012-.0018c.0006.0009.0009.0014.0012.0018.1518.2303.3916.3872.6634.4344.2739.0476.5553-.021.7765-.1893m10.0597-1.6626c.0271-.0354.0551-.0717.084-.1087.3967-.5084.9779-1.1764 1.7044-1.7874 1.2277-1.0325 3.0622-2.0443 5.1515-1.5294.1105-.2563.2208-.4929.3262-.7189l.0059-.0128c.0858-.1838.1682-.3609.2476-.5399-3.4072-1.0035-5.5385-.1981-6.8719.9046-1.133.9371-1.7861 2.1701-2.1051 3.0113.4453.2294.8839.4658 1.2515.6676.0713.0392.1401.0772.2059.1136zm.7637-6.4507c-.2678-.1863-.4287-.4925-.4287-.8207v-.8287h-1.9926v1.2093c0 .2037-.0622.4026-.1783.5699l-.6567.9469c-.1835.2646-.4833.4247-.8053.4299-.3221.0053-.6269-.1449-.819-.4034l-1.0665-1.4351-1.6129 1.1104.9701 1.4943c.209.322.2104.7237.0298 1.0404-.0048.0187-.0111.0455-.0183.0817-.0354.1792-.0807.5247-.1009 1.1423.1219.0174.253.0194.508.0194.4617 0 1.068.0022 2.0793.1697.4662-1.1589 1.2264-2.2835 2.0838-3.1763.5788-.6027 1.2684-1.1676 2.0082-1.55zm-13.272 1.4538.2832-.959c-.3484-.1027-.7255-.0086-.9844.2461z" fill="#333" fill-rule="evenodd"/></svg>