<svg fill="none" height="48" viewBox="0 0 48 48" width="48" xmlns="http://www.w3.org/2000/svg"><g clip-rule="evenodd" fill="#333" fill-rule="evenodd"><path d="m39 8h-30c-.55229 0-1 .44772-1 1v30c0 .5523.44772 1 1 1h30c.5523 0 1-.4477 1-1v-30c0-.55229-.4477-1-1-1zm-30-2c-1.65685 0-3 1.34315-3 3v30c0 1.6569 1.34315 3 3 3h30c1.6569 0 3-1.3431 3-3v-30c0-1.65685-1.3431-3-3-3z"/><path d="m12.1892 20.2759c0-4.2941 2.7815-8.2759 6.5904-8.2759 2.6431 0 4.6044 1.7865 5.815 4.3208 1.2106-2.5341 3.1718-4.3208 5.815-4.3208 3.8093 0 6.5904 3.9825 6.5904 8.2759 0 9.1907-12.4054 15.7241-12.4054 15.7241s-8.2643-4.0891-11.3022-10.8046h3.7732l1.6743-2.9272 1.9559 6.7318 4.58-5.7908h4.6855c.5737 0 1.0387-.4573 1.0387-1.0214 0-.5642-.465-1.0215-1.0387-1.0215h-5.7016l-2.6909 3.4023-2.199-7.5686-3.5192 6.1525h-3.2866c-.2405-.9196-.3748-1.8795-.3748-2.8766zm.3649 2.8764-4.5541.0003v2.0429h5.2847z"/></g></svg>