<svg fill="none" height="48" viewBox="0 0 48 48" width="48" xmlns="http://www.w3.org/2000/svg"><g clip-rule="evenodd" fill="#333" fill-rule="evenodd"><path d="m39 8h-30c-.55229 0-1 .44772-1 1v30c0 .5523.44772 1 1 1h30c.5523 0 1-.4477 1-1v-30c0-.55229-.4477-1-1-1zm-30-2c-1.65685 0-3 1.34315-3 3v30c0 1.6569 1.34315 3 3 3h30c1.6569 0 3-1.3431 3-3v-30c0-1.65685-1.3431-3-3-3z"/><path d="m13 13c-.5523 0-1 .4477-1 1v15.9592c0 .5523.4477 1 1 1h22c.5523 0 1-.4477 1-1v-15.9592c0-.5523-.4477-1-1-1zm6.504 8.679h-5.6578v1.9873h6.8327l1.6191-2.8475 1.8914 6.5486 4.429-5.6332h4.531c.5548 0 1.0045-.4449 1.0045-.9936 0-.5488-.4497-.9937-1.0045-.9937h-5.5136l-2.6022 3.3097-2.1265-7.3626z"/><path d="m13 20.679h5.9222l3.7978-6.679h-9.72zm0 3.9873v5.2929h22v-8.4503c-.3038.7234-1.0234 1.2253-1.8506 1.2253h-4.0452l-5.3343 6.7847-1.7747-6.1445-.7346 1.2919zm9.298-3.8475 1.8914 6.5486 4.429-5.6332h4.531c.5548 0 1.0045-.4449 1.0045-.9936 0-.5488-.4497-.9937-1.0045-.9937h-5.5136l-2.6022 3.3097-2.1265-7.3626-3.4031 5.985h-5.6578v1.9873h6.8327zm3.1551.0864 1.6969-2.1583h5.9994c.8272 0 1.5468.5019 1.8506 1.2253v-5.9722h-11.5412zm-13.4531-6.9052c0-.5523.4477-1 1-1h22c.5523 0 1 .4477 1 1v15.9592c0 .5523-.4477 1-1 1h-22c-.5523 0-1-.4477-1-1z"/><path d="m29.5385 35.102h-11.077v-2h11.077z"/><path d="m23 35v-6.2858h2v6.2858z"/></g></svg>