<svg fill="none" height="48" viewBox="0 0 48 48" width="48" xmlns="http://www.w3.org/2000/svg"><g clip-rule="evenodd" fill="#333" fill-rule="evenodd"><path d="m39 8h-30c-.55229 0-1 .44772-1 1v30c0 .5523.44772 1 1 1h30c.5523 0 1-.4477 1-1v-30c0-.55229-.4477-1-1-1zm-30-2c-1.65685 0-3 1.34315-3 3v30c0 1.6569 1.34315 3 3 3h30c1.6569 0 3-1.3431 3-3v-30c0-1.65685-1.3431-3-3-3z"/><path d="m23.0001 14v-3h2v3h3v2h-3v3h-2v-3h-3v-2zm-12.2748 6.0385c-.531.1517-.83853.7052-.6868 1.2362l1.9347 6.7716-1.2889 6.7666c-.0119.0628-.0177.1254-.0178.1871h-3.16645c-.55229 0-1 .4477-1 1s.44771 1 1 1h32.49995c.5523 0 1-.4477 1-1s-.4477-1-1-1h-2.6665c-.0001-.0617-.0059-.1243-.0179-.1871l-1.2888-6.7666 1.9347-6.7716c.1517-.531-.1558-1.0845-.6868-1.2362s-1.0845.1557-1.2363.6868l-1.1993 4.1977h-7.8391v2h1.3077v1.6924h-.5384c-.5523 0-1 .4477-1 1 0 .4136.2511.7685.6092.9207l-1.331 4.1591c-.0324.1013-.0478.2039-.0478.3048h-3.9994c0-.1009-.0155-.2035-.0479-.3048l-1.3309-4.1591c.3581-.1522.6092-.5071.6092-.9207 0-.5523-.4477-1-1-1h-.5384v-1.6924h1.3077v-2h-7.8391l-1.1994-4.1977c-.1517-.5311-.7052-.8385-1.2362-.6868zm19.5824 8.5769h3.7915l-.0816-.4283c-.0292-.1534-.0221-.3116.0208-.4618l.2293-.8023h-3.96zm-.9778 2.3846h5.2235l.7619 4h-7.2654zm-11.6376-4.077v1.6924h-3.7915l.0816-.4283c.0292-.1534.0221-.3116-.0209-.4618l-.2292-.8023zm-4.2457 4.077-.7619 4h7.2654l-1.28-4z"/></g></svg>