<svg fill="none" height="48" viewBox="0 0 48 48" width="48" xmlns="http://www.w3.org/2000/svg"><g clip-rule="evenodd" fill="#333" fill-rule="evenodd"><path d="m39 8h-30c-.55229 0-1 .44772-1 1v30c0 .5523.44772 1 1 1h30c.5523 0 1-.4477 1-1v-30c0-.55229-.4477-1-1-1zm-30-2c-1.65685 0-3 1.34315-3 3v30c0 1.6569 1.34315 3 3 3h30c1.6569 0 3-1.3431 3-3v-30c0-1.65685-1.3431-3-3-3z"/><path d="m17 10c-1.1046 0-2 .8954-2 2v24c0 1.1046.8954 2 2 2h14c1.1046 0 2-.8954 2-2v-24c0-1.1046-.8954-2-2-2zm14 2h-14v9h14zm-9.7273 12.6364c0 .9037-.7326 1.6363-1.6363 1.6363-.9038 0-1.6364-.7326-1.6364-1.6363 0-.9038.7326-1.6364 1.6364-1.6364.9037 0 1.6363.7326 1.6363 1.6364zm2.7273 1.6363c.9037 0 1.6364-.7326 1.6364-1.6363 0-.9038-.7327-1.6364-1.6364-1.6364s-1.6364.7326-1.6364 1.6364c0 .9037.7327 1.6363 1.6364 1.6363zm6-1.6363c0 .9037-.7326 1.6363-1.6364 1.6363-.9037 0-1.6363-.7326-1.6363-1.6363 0-.9038.7326-1.6364 1.6363-1.6364.9038 0 1.6364.7326 1.6364 1.6364zm-10.3636 6c.9037 0 1.6363-.7327 1.6363-1.6364s-.7326-1.6364-1.6363-1.6364c-.9038 0-1.6364.7327-1.6364 1.6364s.7326 1.6364 1.6364 1.6364zm6-1.6364c0 .9037-.7327 1.6364-1.6364 1.6364s-1.6364-.7327-1.6364-1.6364.7327-1.6364 1.6364-1.6364 1.6364.7327 1.6364 1.6364zm2.7272 1.6364c.9038 0 1.6364-.7327 1.6364-1.6364s-.7326-1.6364-1.6364-1.6364c-.9037 0-1.6363.7327-1.6363 1.6364s.7326 1.6364 1.6363 1.6364zm1.6364 2.7272c0 .9038-.7326 1.6364-1.6364 1.6364-.9037 0-1.6363-.7326-1.6363-1.6364 0-.9037.7326-1.6363 1.6363-1.6363.9038 0 1.6364.7326 1.6364 1.6363zm-10.3636-1.6363c-.9038 0-1.6364.7326-1.6364 1.6363 0 .9038.7326 1.6364 1.6364 1.6364h4.3636c.9037 0 1.6364-.7326 1.6364-1.6364 0-.9037-.7327-1.6363-1.6364-1.6363z"/></g></svg>