<svg fill="none" height="48" viewBox="0 0 48 48" width="48" xmlns="http://www.w3.org/2000/svg"><g fill="#333"><path clip-rule="evenodd" d="m39 8h-30c-.55229 0-1 .44772-1 1v30c0 .5523.44772 1 1 1h30c.5523 0 1-.4477 1-1v-30c0-.55229-.4477-1-1-1zm-30-2c-1.65685 0-3 1.34315-3 3v30c0 1.6569 1.34315 3 3 3h30c1.6569 0 3-1.3431 3-3v-30c0-1.65685-1.3431-3-3-3z" fill-rule="evenodd"/><path clip-rule="evenodd" d="m11.9811 18.2836c-.2078-.3698-.1211-.8157.2733-1.2141.1915-.1934.3941-.3011.5309-.3365.0191-.0049.0344-.008.0464-.01.9728.8587 1.6572 1.2722 2.4056 1.2764.1713.0009.3183-.02.4201-.0362.0435-.007.076-.0125.1028-.017.0479-.0081.0778-.0131.1206-.0181.0754-.0087.1708-.0143.3539.0361l.5306-1.9283c-.4537-.1249-.8091-.1298-1.1141-.0945-.0982.0113-.2051.0293-.2691.0401l-.04.0067c-.0677.0108-.0871.0112-.0936.0112l-.0029-.0002c-.0006-.0001-.0054-.0007-.0154-.0036-.0206-.006-.0708-.0235-.1596-.0729-.1874-.1045-.4856-.3165-.9642-.7423-.5656-.5033-1.2746-.525-1.8212-.3838-.546.141-1.0544.4642-1.452.8658-.7838.7916-1.3874 2.1921-.5957 3.601.4537.8072.967 1.477 1.412 1.9846-.0133-.445.1052-.8451.3682-1.1344.2394-.2634.5668-.4.9358-.419-.3209-.3889-.665-.864-.9724-1.411z" fill-rule="evenodd"/><path d="m16.313 21.4423c1.1423 1.0942 1.4609 2.5896.7116 3.3401-.7493.7506-2.2828.472-3.425-.6222-1.1423-1.0942-1.4609-2.5896-.7116-3.3402.7493-.7505 2.2827-.4719 3.425.6223z"/><path clip-rule="evenodd" d="m36.2662 18.2836c.2078-.3699.1211-.8157-.2734-1.2141-.1914-.1934-.3941-.3012-.5308-.3365-.0191-.0049-.0344-.008-.0464-.01-.9729.8587-1.6573 1.2721-2.4056 1.2763-.1713.001-.3183-.0199-.4202-.0362-.0435-.0069-.0759-.0124-.1027-.0169-.0479-.0081-.0778-.0132-.1206-.0181-.0754-.0087-.1709-.0143-.354.0361l-.5305-1.9284c.4537-.1248.8091-.1297 1.1141-.0945.0982.0114.205.0294.269.0402l.0401.0066c.0676.0109.0871.0113.0935.0112l.0029-.0001c.0007-.0001.0055-.0008.0155-.0037.0205-.0059.0707-.0234.1595-.0729.1874-.1044.4856-.3164.9642-.7423.5657-.5032 1.2747-.5249 1.8213-.3838.546.1411 1.0544.4642 1.452.8658.7837.7917 1.3874 2.1922.5956 3.6011-.4536.8072-.967 1.4769-1.4119 1.9846.0133-.4451-.1052-.8451-.3682-1.1344-.2394-.2634-.5668-.4-.9359-.4191.3209-.3889.6651-.864.9725-1.4109z" fill-rule="evenodd"/><path d="m31.9342 21.4423c-1.1423 1.0941-1.4609 2.5896-.7116 3.3401s2.2827.4719 3.425-.6222c1.1423-1.0942 1.4609-2.5897.7116-3.3402s-2.2827-.4719-3.425.6223z"/><path d="m24.1101 14c-10.8344 0-6.7715 8.0426-4.0629 8.0426 2.2472 0 1.0065 8.9187 2.4528 11.9574.297.624 1.0717 0 1.6101 0 .5383 0 1.1147.624 1.3899 0 1.3404-3.0387-.0256-11.9574 2.2215-11.9574 2.7086 0 7.223-8.0426-3.6114-8.0426z"/></g></svg>