<svg fill="none" height="48" viewBox="0 0 48 48" width="48" xmlns="http://www.w3.org/2000/svg"><g fill="#333"><path clip-rule="evenodd" d="m39 8h-30c-.55229 0-1 .44772-1 1v30c0 .5523.44772 1 1 1h30c.5523 0 1-.4477 1-1v-30c0-.55229-.4477-1-1-1zm-30-2c-1.65685 0-3 1.34315-3 3v30c0 1.6569 1.34315 3 3 3h30c1.6569 0 3-1.3431 3-3v-30c0-1.65685-1.3431-3-3-3z" fill-rule="evenodd"/><path clip-rule="evenodd" d="m20.8 16v.9932c0-.0037-.0001-.0057-.0005-.0057-.0006-.0001-.0018.0035-.0042.0111-.0103.0316-.0429.1318-.1459.3131-.1328.2336-.3228.4993-.5319.7621-.206.2589-.4145.4949-.5728.6673-.0787.0857-.1438.1544-.1886.201-.0223.0233-.0395.0409-.0507.0523l-.012.0123-.0024.0024-.291.2926v12.1983c0 3.0376 2.4624 5.5 5.5 5.5 2.5176 0 4.64-1.6915 5.293-4h-2.1298c-.5617 1.1825-1.767 2-3.1632 2-1.933 0-3.5-1.567-3.5-3.5v-11.3868l.0178-.0194c.1792-.1951.4207-.468.6647-.7746.2408-.3027.5009-.6591.7056-1.0192.0508-.0893.1049-.1901.1566-.2999l3.8437-.0001c.235.6359.6446 1.1691.9625 1.5285.2342.265.466.4875.6491.6517v.8198h2v-1.7841l-.3962-.2987-.0011-.0008-.0083-.0065c-.0088-.0068-.0236-.0184-.0433-.0344-.0397-.0321-.0992-.0814-.1719-.1453-.1467-.1291-.3399-.3115-.5301-.5265-.4265-.4824-.6491-.9182-.6491-1.2036v-.9999z" fill-rule="evenodd"/><path d="m32 28.0909c0 1.6067-1.3431 2.9091-3 2.9091s-3-1.3024-3-2.9091c0-2.5454 3-5.0909 3-5.0909s3 2.5455 3 5.0909z"/><path d="m20 10h9v4h-9z"/></g></svg>