<svg fill="none" height="48" viewBox="0 0 48 48" width="48" xmlns="http://www.w3.org/2000/svg"><g fill="#333"><path clip-rule="evenodd" d="m39 8h-30c-.55229 0-1 .44772-1 1v30c0 .5523.44772 1 1 1h30c.5523 0 1-.4477 1-1v-30c0-.55229-.4477-1-1-1zm-30-2c-1.65685 0-3 1.34315-3 3v30c0 1.6569 1.34315 3 3 3h30c1.6569 0 3-1.3431 3-3v-30c0-1.65685-1.3431-3-3-3z" fill-rule="evenodd"/><path d="m32.0116 27.1297c.0036 4.4-3.5136 7.8601-7.9936 7.8637-4.48.0037-8.0028-3.4505-8.0064-7.8505s7.9884-14.1495 7.9884-14.1495 8.0082 10.0506 8.0116 14.1363z"/></g></svg>