<svg fill="none" height="48" viewBox="0 0 48 48" width="48" xmlns="http://www.w3.org/2000/svg"><g fill="#333"><path clip-rule="evenodd" d="m39 8h-30c-.55229 0-1 .44772-1 1v30c0 .5523.44772 1 1 1h30c.5523 0 1-.4477 1-1v-30c0-.55229-.4477-1-1-1zm-30-2c-1.65685 0-3 1.34315-3 3v30c0 1.6569 1.34315 3 3 3h30c1.6569 0 3-1.3431 3-3v-30c0-1.65685-1.3431-3-3-3z" fill-rule="evenodd"/><path d="m19 20c0 1.6575-1.3425 3-3 3s-3-1.3425-3-3 1.3425-3 3-3 3 1.3425 3 3z"/><path clip-rule="evenodd" d="m12.2561 27.2407c-.2092.2106-.2561.3682-.2561.4866v3.2727h-2v-3.2727c0-.7885.3695-1.4252.8371-1.896.4584-.4616 1.0498-.8076 1.6367-1.0641 1.1683-.5106 2.5547-.7672 3.5262-.7672s2.3579.2566 3.5262.7672c.5869.2565 1.1783.6025 1.6367 1.0641.4676.4708.8371 1.1075.8371 1.896v3.2727h-2v-3.2727c0-.1184-.0469-.276-.2561-.4866-.2183-.2198-.564-.4422-1.0186-.6409-.9144-.3996-2.028-.5998-2.7253-.5998s-1.8109.2002-2.7253.5998c-.4546.1987-.8003.4211-1.0186.6409z" fill-rule="evenodd"/><path clip-rule="evenodd" d="m28.2561 27.2407c-.2092.2106-.2561.3682-.2561.4866v3.2727h-2v-3.2727c0-.7885.3695-1.4252.8371-1.896.4584-.4616 1.0498-.8076 1.6367-1.0641 1.1683-.5106 2.5547-.7672 3.5262-.7672s2.3579.2566 3.5262.7672c.5869.2565 1.1783.6025 1.6367 1.0641.4676.4708.8371 1.1075.8371 1.896v3.2727h-2v-3.2727c0-.1184-.0469-.276-.2561-.4866-.2183-.2198-.564-.4422-1.0186-.6409-.9144-.3996-2.028-.5998-2.7253-.5998s-1.8109.2002-2.7253.5998c-.4546.1987-.8003.4211-1.0186.6409z" fill-rule="evenodd"/><path d="m35 20c0 1.6575-1.3425 3-3 3s-3-1.3425-3-3 1.3425-3 3-3 3 1.3425 3 3z"/><path d="m27 18c0 1.6575-1.3425 3-3 3s-3-1.3425-3-3 1.3425-3 3-3 3 1.3425 3 3z"/><path clip-rule="evenodd" d="m22.6972 24.9952c-.2834.0277-.3809.092-.4513.1708l-1.4918-1.332c.5248-.5879 1.1795-.7736 1.7484-.8293.3438-.0336.7695-.0219 1.1188-.0123.1425.004.2724.0076.3787.0076s.2362-.0036.3787-.0076c.3493-.0096.775-.0213 1.1188.0123.5689.0557 1.2236.2415 1.7484.8293l-1.4918 1.332c-.0704-.0788-.1679-.1431-.4513-.1708-.151-.0147-.3274-.0161-.5537-.0111-.0614.0014-.1294.0033-.2017.0054-.17.0049-.3632.0105-.5474.0105s-.3774-.0056-.5474-.0105c-.0723-.0021-.1403-.004-.2017-.0054-.2263-.005-.4027-.0036-.5537.0111z" fill-rule="evenodd"/></g></svg>