<svg fill="none" height="48" viewBox="0 0 48 48" width="48" xmlns="http://www.w3.org/2000/svg"><g clip-rule="evenodd" fill="#333" fill-rule="evenodd"><path d="m21 10c-1.1046 0-2 .8954-2 2h-3c-1.1046 0-2 .8954-2 2v22c0 1.1046.8954 2 2 2h16c1.1046 0 2-.8954 2-2v-22c0-1.1046-.8954-2-2-2h-3c0-1.1046-.8954-2-2-2zm0 2h6v2h-6zm3.5572 16-2.4934 6.649c-.1939.5171.0681 1.0935.5852 1.2874.5171.194 1.0935-.068 1.2875-.5852l1.2583-3.3557h2.6106l1.2584 3.3557c.1939.5172.7703.7792 1.2874.5852.5172-.1939.7792-.7703.5853-1.2874l-2.4934-6.649h2.8582c.5523 0 1-.4477 1-1s-.4477-1-1-1h-4.2822c-.0127-.0002-.0255-.0002-.0382 0h-.9616c-.0127-.0002-.0254-.0002-.0381 0h-4.981c-.5522 0-1 .4477-1 1s.4478 1 1 1zm6.4428-8.76h-14v-2h14zm-14 4.16h5v-2h-5zm11.5-.4c0 1.1046-.8954 2-2 2s-2-.8954-2-2 .8954-2 2-2 2 .8954 2 2z"/><path d="m39 8h-30c-.55229 0-1 .44772-1 1v30c0 .5523.44772 1 1 1h30c.5523 0 1-.4477 1-1v-30c0-.55229-.4477-1-1-1zm-30-2c-1.65685 0-3 1.34315-3 3v30c0 1.6569 1.34315 3 3 3h30c1.6569 0 3-1.3431 3-3v-30c0-1.65685-1.3431-3-3-3z"/></g></svg>