<svg fill="none" height="48" viewBox="0 0 48 48" width="48" xmlns="http://www.w3.org/2000/svg"><g fill="#333"><path clip-rule="evenodd" d="m39 8h-30c-.55229 0-1 .44772-1 1v30c0 .5523.44772 1 1 1h30c.5523 0 1-.4477 1-1v-30c0-.55229-.4477-1-1-1zm-30-2c-1.65685 0-3 1.34315-3 3v30c0 1.6569 1.34315 3 3 3h30c1.6569 0 3-1.3431 3-3v-30c0-1.65685-1.3431-3-3-3z" fill-rule="evenodd"/><path d="m15.5462 31.3156c-7.90137-3.7772-5.026-15.9507.3783-17.866 2.2418-.7945 4.7816 2.0359 4.7964 3.7629.0147 1.7269-1.8154 3.3183-1.3988 5.4614.4165 2.143.9047 5.7549-.1576 7.4441-1.0623 1.6893-2.1572 1.8961-3.6183 1.1976z"/><path clip-rule="evenodd" d="m20.4701 25.9996s.0015 0 .0298-.9996c.0284-.9996.0299-.9996.0299-.9996l.0016.0001.0032.0001.0069.0003.0158.0007c.0114.0006.0243.0014.0389.0026.029.0023.0644.0059.1054.0116.0815.0112.1867.0308.3078.0652.2416.0686.5565.1992.8691.4478.6651.529 1.1335 1.4371 1.1335 2.8337v14.6375h-2v-14.6375c0-.923-.2876-1.1962-.3785-1.2685-.0655-.0521-.1286-.0772-.1705-.0891-.0207-.0059-.0347-.0079-.0347-.0079s.0025.0004.0094.0009l.0135.0009.0093.0004.0053.0002.0029.0001z" fill-rule="evenodd"/><path d="m32.6496 31.3156c7.9014-3.7772 5.026-15.9507-.3783-17.866-2.2418-.7945-4.7816 2.0359-4.7964 3.7629-.0147 1.7269 1.8154 3.3183 1.3988 5.4614-.4165 2.143-.9047 5.7549.1576 7.4441 1.0623 1.6893 2.1572 1.8961 3.6183 1.1976z"/><path clip-rule="evenodd" d="m27.7256 25.9996s-.0014 0-.0298-.9996-.0299-.9996-.0299-.9996l-.0015.0001-.0033.0001-.0069.0003-.0158.0007c-.0113.0006-.0243.0014-.0388.0026-.0291.0023-.0645.0059-.1054.0116-.0816.0112-.1868.0308-.3079.0652-.2416.0686-.5565.1992-.869.4478-.6651.529-1.1335 1.4371-1.1335 2.8337v14.6375h2v-14.6375c0-.923.2876-1.1962.3785-1.2685.0655-.0521.1286-.0772.1705-.0891.0206-.0059.0347-.0079.0347-.0079s-.0025.0004-.0094.0009l-.0136.0009-.0093.0004-.0053.0002-.0028.0001z" fill-rule="evenodd"/></g></svg>