<svg fill="none" height="48" viewBox="0 0 48 48" width="48" xmlns="http://www.w3.org/2000/svg"><g clip-rule="evenodd" fill="#333" fill-rule="evenodd"><path d="m39 8h-30c-.55229 0-1 .44772-1 1v30c0 .5523.44772 1 1 1h30c.5523 0 1-.4477 1-1v-30c0-.55229-.4477-1-1-1zm-30-2c-1.65685 0-3 1.34315-3 3v30c0 1.6568 1.34315 3 3 3h30c1.6568 0 3-1.3431 3-3v-30c0-1.65685-1.3431-3-3-3z"/><path d="m32.4853 32.2826c-4.6863 4.6863-12.2843 4.6863-16.9706 0-4.2804-4.2804-4.6511-10.9899-1.1123-15.6911l1.8707-.6013c1.7062-.5484 2.9974 1.5662 1.7302 2.8334-2.0208 2.0208-.5896 5.476 2.2682 5.476h.6375c.8933 0 1.675.6005 1.9052 1.4637l.2978 1.117c-.3037-.1344-.6452-.165-.9708-.0836l-3.9598.99c-.8037.2009-1.2923 1.0153-1.0914 1.819s1.0153 1.2923 1.819 1.0914l2.5046-.6261.6261 2.5046c.1821.7283.8747 1.2099 1.6209 1.127 5.1816-.5758 7.5412-4.241 8.1685-5.9139.1799-.4798.1025-1.0182-.2053-1.4278s-.8034-.6338-1.3142-.5945l-1.9544.1504-.6827-2.7309c-.2009-.8037-1.0153-1.2923-1.819-1.0914s-1.2923 1.0153-1.0914 1.819l.99 3.9598c.1774.7097.8408 1.1879 1.5702 1.1318l.0396-.0031c-.4877.4279-1.0909.8335-1.8254 1.1486l-1.273-4.7738c-.4053-1.5198-1.7817-2.5772-3.3545-2.5772h-.6375c-1.5214 0-2.2834-1.8395-1.2075-2.9153 2.2017-2.2018.2917-5.7652-2.5435-5.4723 4.7114-3.7641 11.6006-3.4641 15.9648.9 4.6863 4.6863 4.6863 12.2843 0 16.9706zm1.4142 1.4142c-5.4673 5.4673-14.3317 5.4673-19.799 0-5.46734-5.4674-5.46734-14.3317 0-19.799 5.4673-5.46735 14.3317-5.46735 19.799 0 5.4673 5.4673 5.4673 14.3316 0 19.799zm-4.4647-9.4046c1.0934 1.0935 2.8663 1.0935 3.9598 0 1.0934-1.0934 1.0934-2.8663 0-3.9598-1.0935-1.0934-2.8664-1.0934-3.9598 0-1.0935 1.0935-1.0935 2.8664 0 3.9598z"/></g></svg>