<svg fill="none" height="48" viewBox="0 0 48 48" width="48" xmlns="http://www.w3.org/2000/svg"><g fill="#333"><path clip-rule="evenodd" d="m39 8h-30c-.55229 0-1 .44772-1 1v30c0 .5523.44772 1 1 1h30c.5523 0 1-.4477 1-1v-30c0-.55229-.4477-1-1-1zm-30-2c-1.65685 0-3 1.34315-3 3v30c0 1.6569 1.34315 3 3 3h30c1.6569 0 3-1.3431 3-3v-30c0-1.65685-1.3431-3-3-3z" fill-rule="evenodd"/><path d="m19.2792 27.1331 4.0204 5.1956-4.0204 5.1337-5.0719-3.8967z"/><path d="m16.9288 14.4534 2.1648-2.8452c.8041-.9897 1.9793-1.6082 3.2163-1.6082h3.5875c.6185 0 1.237.1237 1.7937.433.5566.2474 1.0515.6803 1.4226 1.1752l2.2267 2.907c1.7318 2.2885 1.7318 5.443 0 7.6697l-2.3504 2.9689-4.0204-5.1956 2.4741-2.1545s-.0619 0-.0619-.0618c-.433-.2474-.9278-.3711-1.4226-.3711h-3.6493c-.4948 0-.9896.1855-1.4226.4329l2.4741 2.1545 5.8141 7.4223 4.8245 6.1852-5.01 3.8967-12.0612-15.3394c-1.7319-2.2266-1.7319-5.3811 0-7.6696zm3.0307 1.1752c.0619.0618.0619.1237.1238.1855.1237-.1237.3092-.1855.4948-.2474.5566-.2474 1.1752-.433 1.7937-.433h3.5874c.6185 0 1.2371.1237 1.7937.433.1237.0619.3093.1856.433.2474.433-.6185.6804-.4844.4948-1.2267-.0618-.4329-.2474-.8659-.5567-1.237-.2474-.3093-.6185-.6185-.9896-.8041s-.8041-.3093-1.237-.3093h-3.5875c-.8659 0-1.67.433-2.2266 1.1134-.6804.9278-.8041 1.2885-.1238 2.2782z"/></g></svg>