<svg fill="none" height="48" viewBox="0 0 48 48" width="48" xmlns="http://www.w3.org/2000/svg"><g clip-rule="evenodd" fill="#333" fill-rule="evenodd"><path d="m39 8h-30c-.55229 0-1 .44772-1 1v30c0 .5523.44772 1 1 1h30c.5523 0 1-.4477 1-1v-30c0-.55229-.4477-1-1-1zm-30-2c-1.65685 0-3 1.34315-3 3v30c0 1.6569 1.34315 3 3 3h30c1.6569 0 3-1.3431 3-3v-30c0-1.65685-1.3431-3-3-3z"/><path d="m38 24.4s-7.7-8.4-13.9632-8.4c-6.2631 0-14.0368 8.4-14.0368 8.4s7.7737 8.4 14.0368 8.4c6.2632 0 13.9632-8.4 13.9632-8.4zm-22.1098-2.6155c-1.2172.9375-2.2752 1.8795-3.0552 2.6155.78.736 1.838 1.678 3.0552 2.6155 1.2989 1.0006 2.7411 1.9666 4.1901 2.6755 1.4665.7175 2.8135 1.109 3.9565 1.109 1.1423 0 2.4839-.391 3.942-1.1075 1.441-.7081 2.8734-1.6731 4.1627-2.6729 1.2112-.9394 2.2626-1.8832 3.0362-2.6196-.7736-.7364-1.825-1.6802-3.0362-2.6196-1.2893-.9998-2.7217-1.9648-4.1627-2.6729-1.4581-.7165-2.7997-1.1075-3.942-1.1075-1.143 0-2.49.3915-3.9565 1.109-1.449.7089-2.8912 1.6749-4.1901 2.6755z"/><path d="m24 30.1c3.148 0 5.7-2.552 5.7-5.7s-2.552-5.7-5.7-5.7-5.7 2.552-5.7 5.7 2.552 5.7 5.7 5.7zm0 2c4.2526 0 7.7-3.4474 7.7-7.7s-3.4474-7.7-7.7-7.7-7.7 3.4474-7.7 7.7 3.4474 7.7 7.7 7.7z"/><path d="m24 27.9c1.933 0 3.5-1.567 3.5-3.5 0-.8692-.3168-1.6644-.8413-2.2764.0898.1548.1413.3346.1413.5265 0 .5799-.4701 1.05-1.05 1.05s-1.05-.4701-1.05-1.05.4701-1.05 1.05-1.05c.1919 0 .3717.0515.5265.1414-.612-.5246-1.4072-.8415-2.2765-.8415-1.933 0-3.5 1.567-3.5 3.5s1.567 3.5 3.5 3.5z"/></g></svg>