<svg fill="none" height="48" viewBox="0 0 48 48" width="48" xmlns="http://www.w3.org/2000/svg"><g clip-rule="evenodd" fill="#333" fill-rule="evenodd"><path d="m39 8h-30c-.55229 0-1 .44772-1 1v30c0 .5523.44772 1 1 1h30c.5523 0 1-.4477 1-1v-30c0-.55229-.4477-1-1-1zm-30-2c-1.65685 0-3 1.34315-3 3v30c0 1.6569 1.34315 3 3 3h30c1.6569 0 3-1.3431 3-3v-30c0-1.65685-1.3431-3-3-3z"/><path d="m18.4169 10.9803c-.6026-.1128-1.1669.3445-1.1669.9576 0 .5343-.4332.9675-.9675.9675h-.2825c-.5523 0-1 .4477-1 1v.874c0 .5522.4477 1 1 1h.25c.5523 0 1 .4477 1 1v.378c0 .4573.3117.8579.7564.9646 4.6702 1.1212 7.5324 1.1223 11.998.0055.4396-.1099.7456-.508.7456-.9612v-.3869c0-.5523.4477-1 1-1h.25c.5523 0 1-.4478 1-1v-.874c0-.5523-.4477-1-1-1h-.2838c-.5336 0-.9662-.4325-.9662-.9661 0-.6133-.5652-1.0701-1.1678-.9564-4.1922.7909-6.9738.7815-11.1653-.0026zm2.0831 2.7574c0-.5523-.4477-1-1-1s-1 .4477-1 1v2.2402c0 .5523.4477 1 1 1s1-.4477 1-1z"/><path d="m18.4169 19.9803c-.6026-.1128-1.1669.3445-1.1669.9576 0 .5343-.4332.9675-.9675.9675h-.2825c-.5523 0-1 .4477-1 1v.874c0 .5522.4477 1 1 1h.25c.5523 0 1 .4477 1 1v.378c0 .4573.3117.8579.7564.9646 4.6702 1.1212 7.5324 1.1223 11.998.0055.4396-.1099.7456-.508.7456-.9612v-.3869c0-.5523.4477-1 1-1h.25c.5523 0 1-.4478 1-1v-.874c0-.5523-.4477-1-1-1h-.2838c-.5336 0-.9662-.4325-.9662-.9661 0-.6133-.5652-1.0701-1.1678-.9564-4.1922.7909-6.9738.7815-11.1653-.0026zm2.0831 2.7574c0-.5523-.4477-1-1-1s-1 .4477-1 1v2.2402c0 .5523.4477 1 1 1s1-.4477 1-1z"/><path d="m18.4169 28.9803c-.6026-.1128-1.1669.3445-1.1669.9576 0 .5343-.4332.9675-.9675.9675h-.2825c-.5523 0-1 .4477-1 1v.874c0 .5522.4477 1 1 1h.25c.5523 0 1 .4477 1 1v.378c0 .4573.3117.8579.7564.9646 4.6702 1.1212 7.5324 1.1223 11.998.0055.4396-.1099.7456-.508.7456-.9612v-.3869c0-.5523.4477-1 1-1h.25c.5523 0 1-.4478 1-1v-.874c0-.5523-.4477-1-1-1h-.2838c-.5336 0-.9662-.4325-.9662-.9661 0-.6133-.5652-1.0701-1.1678-.9564-4.1922.7909-6.9738.7815-11.1653-.0026zm2.0831 2.7574c0-.5523-.4477-1-1-1s-1 .4477-1 1v2.2402c0 .5523.4477 1 1 1s1-.4477 1-1z"/></g></svg>