<svg fill="none" height="48" viewBox="0 0 48 48" width="48" xmlns="http://www.w3.org/2000/svg"><g clip-rule="evenodd" fill="#333" fill-rule="evenodd"><path d="m39 8h-30c-.55229 0-1 .44772-1 1v30c0 .5523.44772 1 1 1h30c.5523 0 1-.4477 1-1v-30c0-.55229-.4477-1-1-1zm-30-2c-1.65685 0-3 1.34315-3 3v30c0 1.6569 1.34315 3 3 3h30c1.6569 0 3-1.3431 3-3v-30c0-1.65685-1.3431-3-3-3z"/><path d="m34.7501 21.2979c-.0186 1.2622-.0351 2.3738.5993 3.6885 0 0 1.8754 1.6872 1.6281 3.0408s-2.6894 1.7264-2.6894 1.7264c0 7.288-9.274 4.2462-9.274 4.2462v6.5002h-4.1218c-.4749.0376-1.047.1797-1.6389.3267-1.4645.3638-3.0499.7576-3.583-.3267v-10.6396c-2.6379-1.9716-4.6704-4.6277-4.6704-8.0706 0-2.8616 1.1942-5.606 3.3199-7.6295s5.0088-3.1603 8.015-3.1603c2.2956-.0025 4.5641.4729 6.6464 1.3929 1.641.6578 3.0777 1.7046 4.1733 3.0407 1.0004 1.4036 1.5549 3.0519 1.5972 4.7476.0091.3896.0036.7593-.0017 1.1167zm-8.2588 1.1712c-.1126.126-.1713.1917-.5248.1917-.5582 0-1.1035-.1639-1.5645-.4702-.3238.3339-.7206.5924-1.1612.7565-.3987.1913-.5707.4715-.7825.8166-.0379.0618-.0771.1257-.1191.1914-.2765.4333-.4228.9333-.4221 1.4434v2.8726h-2.9727c-.0748-.6154-.2154-1.2067-.5559-1.7303-.3406-.5237-.7975-.9664-1.337-1.2956-.4683-.1958-.8726-.5126-1.1692-.916s-.4741-.878-.5135-1.3725c-.4874-.5021-.7586-1.1669-.7577-1.8577-.0037-.5955.1972-1.1752.5708-1.647-.0688-.2334-.1019-.4754-.0984-.7182-.001-.5806.1898-1.1462.5441-1.6134l1.4239-.9815c.2184-.478.5744-.8843 1.0249-1.1697.4504-.2855.9762-.438 1.5138-.439.222.0013.4432.027.6593.0766.4573-.4147 1.0447-.6675 1.6676-.7179l3.0253.205c.6677.1607 1.2514.5545 1.6401 1.1066h.1968l1.748.5953c.4958.3866.8408.9267.9777 1.5304.5999.2535 1.0921.6997 1.3943 1.2641.3021.5643.396 1.2126.2657 1.8362-.1302.6236-.4766 1.1848-.9812 1.5896l-1.7907.6342c-.5637.0063-1.1161-.1539-1.5842-.4597-.1692.1124-.2524.2056-.3176.2785zm4.7309 2.6143c0 .5983-.4851 1.0834-1.0834 1.0834s-1.0833-.4851-1.0833-1.0834.485-1.0833 1.0833-1.0833 1.0834.485 1.0834 1.0833zm-12.2777 6.5978h2.8888v-2h-2.8888zm2.8888 6.6057h-2.8888v-2h2.8888zm-2.8888-3.3279h2.8888v-2h-2.8888z"/><path d="m33.7192 26.2101-.1711-.3545c-.1275-.2643-.2351-.5234-.3259-.7772v.005c0 1.7029-1.3805 3.0834-3.0834 3.0834-1.7028 0-3.0833-1.3805-3.0833-3.0834 0-.2038.0198-.4031.0575-.5959-.0191-.0051-.0382-.0103-.0573-.0156-.4401.177-.8549.1889-1.0892.1889-.4408 0-.8779-.0601-1.2989-.1773-.1426.0801-.2891.1535-.439.2199-.0191.0305-.0393.0634-.0658.1065-.0013.0021-.0027.0044-.004.0066-.0362.0589-.0827.1347-.1337.2146-.0726.1138-.1082.24-.108.3647v.0027 4.8726h-.0838v1.2365l1.8001.5905.0018.0005.001.0004.0059.0018c.01.0032.0282.0088.054.0166.0516.0156.1335.0396.2411.0689.2161.0587.5318.1376.9125.2126.7786.1534 1.7506.2748 2.6718.215.943-.0613 1.612-.2971 2.0215-.6455.3343-.2844.7451-.8521.7451-2.2148v-1.7179l1.6905-.258c.0002-.0001-.0003 0 0 0m.0289-1.3082c-.0003-.0003-.0014-.0014-.0014-.0013l-.2869-.2581m-8.7051 7.7897s.8331.2732 2 .4597c2.7262.4357 7.274.3977 7.274-4.7059 0 0 2.4421-.3728 2.6894-1.7264s-1.6281-3.0408-1.6281-3.0408c-.6344-1.3147-.6179-2.4263-.5993-3.6885.0053-.3574.0108-.7271.0017-1.1167-.0423-1.6957-.5968-3.344-1.5972-4.7476-1.0956-1.3361-2.5323-2.3829-4.1733-3.0407-2.0823-.92-4.3508-1.3954-6.6464-1.3929-3.0062 0-5.8893 1.1368-8.015 3.1603s-3.3199 4.7679-3.3199 7.6295c0 3.4429 2.0325 6.099 4.6704 8.0706v10.6396c.5331 1.0843 2.1185.6905 3.583.3267.5919-.147 1.164-.2891 1.6389-.3267h4.1218zm-6.0696.9592h2.8888v-2h-2.8888zm0-3.2778h2.8888v-2h-2.8888zm-.0983-4c-.0889-.4021-.2277-.7867-.4577-1.1404-.3406-.5237-.7975-.9664-1.337-1.2956-.4683-.1958-.8726-.5126-1.1692-.916s-.4741-.878-.5135-1.3725c-.4874-.5021-.7586-1.1669-.7577-1.8577-.0037-.5955.1972-1.1752.5708-1.647-.0688-.2334-.1019-.4754-.0984-.7182-.001-.5806.1898-1.1462.5441-1.6134l1.4239-.9815c.2184-.478.5744-.8843 1.0249-1.1697.4504-.2855.9762-.438 1.5138-.439.222.0013.4432.027.6593.0766.4573-.4147 1.0447-.6675 1.6676-.7179l3.0253.205c.6677.1607 1.2514.5545 1.6401 1.1066h.1968l1.748.5953c.4958.3866.8408.9267.9777 1.5304.5999.2535 1.0921.6997 1.3943 1.2641.3021.5643.396 1.2126.2657 1.8362-.1286.6158-.4679 1.1707-.9622 1.5742-.0063.0052-.0127.0103-.019.0154l-1.7907.6342c-.0487.0005-.0972-.0002-.1457-.0021-.5128-.0203-1.0109-.1782-1.4385-.4576-.1692.1124-.2524.2056-.3176.2785-.1126.126-.1713.1917-.5248.1917-.5582 0-1.1035-.1639-1.5645-.4702-.3238.3339-.7206.5924-1.1612.7565-.3987.1913-.5707.4715-.7825.8166-.0379.0618-.0771.1257-.1191.1914-.2765.4333-.4228.9333-.4221 1.4434v2.8726h-2.9727c-.0243-.1997-.0555-.3968-.0982-.5899zm11.6009-3.6366c.4481.1328.7751.5476.7751 1.0388 0 .5983-.4851 1.0834-1.0834 1.0834s-1.0833-.4851-1.0833-1.0834c0-.2277.0702-.439.1903-.6134.1953-.2838.5224-.4699.893-.4699.1071 0 .2106.0155.3083.0445zm1.7602-1.2478c.2082-.2648.388-.551.5359-.854.0001.5197.0199 1.0811.1122 1.6809-.1678-.3117-.3878-.5912-.6481-.8269zm-19.0146.5537c.4743 1.8805 1.7978 3.5049 3.6751 4.9079l.0619.0463c-.0574-.3517-.1338-.5443-.2178-.6735-.1567-.2409-.3636-.4523-.6105-.6197-.7234-.3375-1.3546-.8504-1.8304-1.4976-.3753-.5103-.6427-1.0892-.7869-1.7021-.1062-.1483-.2035-.3024-.2914-.4613zm5.7518 12.9364h2.8888v2h-2.8888z"/></g></svg>