<svg fill="none" height="48" viewBox="0 0 48 48" width="48" xmlns="http://www.w3.org/2000/svg"><g clip-rule="evenodd" fill="#333" fill-rule="evenodd"><path d="m39 8h-30c-.55229 0-1 .44772-1 1v30c0 .5523.44772 1 1 1h30c.5523 0 1-.4477 1-1v-30c0-.55229-.4477-1-1-1zm-30-2c-1.65685 0-3 1.34315-3 3v30c0 1.6569 1.34315 3 3 3h30c1.6569 0 3-1.3431 3-3v-30c0-1.65685-1.3431-3-3-3z"/><path d="m14 21c-.5523 0-1 .4477-1 1v15c0 .5523.4477 1 1 1h5c0-.593.2638-1.1266.5605-1.5402.3072-.4283.7175-.8237 1.1662-1.1615.6426-.4838 1.444-.9083 2.2733-1.1339v-3.0179h-1.8c-1.1905 0-2.3347.3978-3.2116.8255-.4324.2109-.7848.4218-1.0267.5781-.1206.078-.2127.1418-.2726.1845-.0299.0214-.0517.0373-.0649.0471l-.0131.0099c.0002-.0002.0001-.0002-.6111-.7916-.6112-.7915-.611-.7916-.6108-.7918l.0018-.0013.003-.0024.0089-.0067.0281-.0212c.0234-.0173.0559-.0412.0971-.0705.0823-.0587.1995-.1397.3477-.2355.2956-.1911.7182-.4437 1.2358-.6961 1.0231-.4991 2.4789-1.028 4.0884-1.028h1.8v-2.1465h-1.1c-.8996 0-1.7577.216-2.4064.4436-.3206.1125-.5808.2245-.7578.3069-.0883.041-.1553.0744-.198.0963-.0214.011-.0367.0191-.0455.0238l-.0071.0038c.0002-.0001.0004-.0002-.4852-.8744s-.4854-.8743-.4852-.8744l.0016-.0009.0027-.0015.0074-.004.0227-.0123c.0185-.0099.044-.0233.0759-.0397.0639-.0327.154-.0775.2672-.1302.2262-.1051.5472-.2431.9391-.3806.7763-.2724 1.8682-.5564 3.0686-.5564h1.1v-2h2v2h.8c1.0511 0 2.2154.2855 3.065.543.4359.1321.8116.2639 1.0792.363.134.0497.2417.0914.3169.1211.0377.0149.0673.0268.0881.0353l.0245.01.0072.003.0034.0014c.0002.0001.0003.0001-.3843.9232s-.3845.9231-.3844.9232l-.0032-.0014-.0164-.0066c-.0152-.0062-.0389-.0158-.0704-.0283-.063-.0249-.157-.0613-.276-.1054-.2387-.0884-.5755-.2066-.9646-.3245-.8004-.2425-1.7361-.457-2.485-.457h-.8v2.1465h1.4c1.4091 0 2.9628.5311 4.0882 1.0052.5789.2438 1.0776.4871 1.4321.6696.1776.0915.32.1682.4193.2228.0496.0273.0886.0491.1159.0645l.032.0182.0092.0052.0028.0017.001.0006c.0002.0001.0007.0004-.5005.8657s-.5011.8654-.501.8655l-.005-.0029-.0225-.0128c-.0208-.0118-.0529-.0298-.0955-.0531-.085-.0468-.2114-.1149-.3713-.1972-.3205-.1651-.7718-.3852-1.2929-.6047-1.0746-.4527-2.3209-.8483-3.3118-.8483h-1.4v2.9855c.8253.2093 1.6213.6433 2.2498 1.1232.454.3468.8692.7534 1.18 1.1886.2975.4165.5702.9589.5702 1.5562h5c.5523 0 1-.4477 1-1v-15c0-.5523-.4477-1-1-1zm12.9999 17c-.0005-.0056-.0043-.0381-.0295-.101-.0301-.0749-.0832-.174-.1681-.2928-.1713-.2398-.4347-.5082-.7664-.7614-.6765-.5166-1.4485-.8319-2.0021-.8444-.6442.0557-1.446.4001-2.1042.8956-.3273.2465-.5811.5025-.744.7295-.0805.1123-.13.2053-.1578.2753-.0259.0653-.0277.0969-.0278.0992z"/><path d="m28.5 14.5c0 2.4853-2.0147 4.5-4.5 4.5s-4.5-2.0147-4.5-4.5 2.0147-4.5 4.5-4.5 4.5 2.0147 4.5 4.5z"/></g></svg>