<svg fill="none" height="48" viewBox="0 0 48 48" width="48" xmlns="http://www.w3.org/2000/svg"><g fill="#333"><path clip-rule="evenodd" d="m39.0002 8.00007h-29.99996c-.55228 0-1 .44772-1 1v30.00003c0 .5523.44772 1 1 1h29.99996c.5523 0 1-.4477 1-1v-30.00003c0-.55228-.4477-1-1-1zm-29.99996-2c-1.65685 0-3 1.34315-3 3v30.00003c0 1.6568 1.34315 3 3 3h29.99996c1.6569 0 3-1.3432 3-3v-30.00003c0-1.65685-1.3431-3-3-3z" fill-rule="evenodd"/><path d="m17.706 14.2403c4.1234-.0033 3.7531 5.6045 3.7549 7.8475.0024 2.8628.7148 8.6396-1.4905 10.8425-2.2473 2.2449-6.7446 3.3701-8.9952 1.5027-2.25071-1.8673 1.4828-20.1884 6.7308-20.1927z"/><path d="m30.2366 14.2315c-4.1235.0034-3.7439 5.6106-3.7421 7.8536.0023 2.8628-.7006 8.6407 1.5083 10.84 2.2509 2.2412 6.7501 3.359 8.9977 1.488s-1.516-20.1859-6.7639-20.1816z"/><g clip-rule="evenodd" fill-rule="evenodd"><path d="m22.9679 6.0005s0-.00013 1-.00049 1-.00023 1-.00023l.0034 5.93432c.0019 3.104.0039 6.4812.0049 7.5749.0013 1.4024-.5712 2.287-1.2903 2.7771-.3326.2267-.6608.3445-.9039.4065-.1229.0313-.2286.0495-.3089.0602-.0403.0054-.0747.0089-.1021.0112-.0138.0012-.0259.0021-.0362.0027l-.0141.0008-.006.0003-.0041.0002s-.0012 0-.0431-.9991-.0431-.9991-.0431-.9991l-.0012.0001-.0023.0001-.0042.0002-.0067.0004-.0076.0005s.0017-.0002.0065-.0008c.0133-.0018.0412-.0062.0787-.0157.0775-.0198.1769-.0566.2717-.1212.1359-.0926.4177-.3375.417-1.1229-.0011-1.0942-.0031-4.4718-.005-7.5757z"/><path d="m25.0149 6.0005s0-.00013-1-.00049-1-.00023-1-.00023l-.0034 5.93432c-.0018 3.104-.0039 6.4812-.0049 7.5749-.0013 1.4024.5713 2.287 1.2903 2.7771.3327.2267.6608.3445.904.4065.1229.0313.2286.0495.3088.0602.0403.0054.0747.0089.1022.0112.0137.0012.0258.0021.0361.0027l.0141.0008.006.0003.0041.0002s.0013 0 .0432-.9991c.0418-.9991.0431-.9991.0431-.9991l.0012.0001.0023.0001.0041.0002.0068.0004.0075.0005s-.0016-.0002-.0064-.0008c-.0133-.0018-.0413-.0062-.0787-.0157-.0776-.0198-.177-.0566-.2718-.1212-.1358-.0926-.4176-.3375-.4169-1.1229.001-1.0942.0031-4.4718.0049-7.5757z"/></g></g></svg>