<svg fill="none" height="48" viewBox="0 0 48 48" width="48" xmlns="http://www.w3.org/2000/svg"><g fill="#333"><path clip-rule="evenodd" d="m24.9159 12.0593c.0555-.1833.0841-.3699.0841-.5593 0-2.48528-4.9249-4.5-11-4.5-6.07513 0-11 2.01472-11 4.5 0 .1908.02904.3789.0854.5635-.05684-.041-.0854-.0635-.0854-.0635v22s3.47368 3 11 3c1.9634 0 3.651-.2042 5.0731-.506.0368.1867.0921.422.1747.6919.2.6529.5643 1.5219 1.2248 2.3923 1.3546 1.785 3.8376 3.4218 8.2305 3.4218 2.6279 0 4.6276-.7762 6.0762-2.2463 1.4192-1.4403 2.2-3.4374 2.641-5.6719.4421-2.24.5628-4.8269.578-7.5458.0079-1.4163-.0141-2.9425-.0363-4.488v-.0002-.0002-.0002-.0002-.0002-.0002-.0001-.0002c-.0195-1.3545-.0392-2.7237-.0392-4.0465 0-.5523-.4477-1-1-1s-1 .4477-1 1c0 1.4227.0202 2.787.04 4.1199v.0003.0002.0003.0002.0003.0003.0002.0003.0009.0004.0003.0004.0003.0003.0003.0003c.0221 1.4931.0437 2.9468.0355 4.3996-.015 2.6907-.1361 5.1225-.5401 7.1697-.4052 2.0528-1.0749 3.6116-2.1035 4.6554-.9991 1.014-2.4444 1.6501-4.6516 1.6501-3.8266 0-5.6953-1.3895-6.6373-2.6308-.4878-.6428-.7581-1.287-.9056-1.7689-.0736-.2401-.1156-.4365-.1386-.567-.0034-.0193-.0064-.037-.009-.0532 2.7017-.8697 3.9874-1.9801 3.9874-1.9801v-2.0619c3.9463-.4921 7-3.8585 7-7.9381s-3.0537-7.446-7-7.9381v-4.0619s-.0283.0209-.0841.0593zm-8.9159 11.9407c0-4.0796 3.0537-7.446 7-7.9381v-.7662c-.0508.0207-.1022.0414-.1542.0621-2.0786.8286-5.08 1.6422-8.8458 1.6422-.3401 0-.6734-.0062-1-.0182v17.9988c.3237.0127.657.0194 1 .0194 3.4896 0 5.9799-.694 7.5565-1.3475.6147-.2549 1.0945-.5052 1.4435-.7093v-1.0051c-3.9463-.4921-7-3.8585-7-7.9381zm-2-9c4.4183 0 8-1.3431 8-3s-3.5817-3-8-3c-4.41828 0-8 1.3431-8 3s3.58172 3 8 3zm12 9c0 1.1046-.8954 2-2 2s-2-.8954-2-2c0-.7403.4022-1.3866 1-1.7324v-3.2676c0-.5523.4477-1 1-1s1 .4477 1 1v3.2676c.5978.3458 1 .9921 1 1.7324z" fill-rule="evenodd"/><path d="m41 15c0 4.4183-1.7909 8-4 8s-4-3.5817-4-8 1.7909-8 4-8 4 3.5817 4 8z"/><path clip-rule="evenodd" d="m38.0396 19.7624c.5577-1.1155.9604-2.7964.9604-4.7624s-.4027-3.6469-.9604-4.7624c-.2786-.55721-.5587-.89956-.7743-1.08198-.1032-.08728-.1772-.12594-.2167-.1421-.0195-.00797-.0318-.01104-.0377-.01224-.0057-.00115-.0088-.00128-.0109-.00128s-.0052.00013-.0109.00128c-.0059.0012-.0182.00427-.0377.01224-.0395.01616-.1135.05482-.2167.1421-.2156.18242-.4957.52477-.7743 1.08198-.5577 1.1155-.9604 2.7964-.9604 4.7624s.4027 3.6469.9604 4.7624c.2786.5572.5587.8996.7743 1.082.1032.0873.1772.1259.2167.1421.0195.008.0318.011.0377.0122.0057.0012.0088.0013.0109.0013s.0052-.0001.0109-.0013c.0059-.0012.0182-.0042.0377-.0122.0395-.0162.1135-.0548.2167-.1421.2156-.1824.4957-.5248.7743-1.082zm-1.0396 3.2376c2.2091 0 4-3.5817 4-8s-1.7909-8-4-8-4 3.5817-4 8 1.7909 8 4 8z" fill-rule="evenodd"/></g></svg>