<svg fill="none" height="48" viewBox="0 0 48 48" width="48" xmlns="http://www.w3.org/2000/svg"><path clip-rule="evenodd" d="m38.2143 19.5319c-.0906.0829-.1877.1549-.2896.2158.0054 1.0874.0214 2.198.0373 3.2988v.0002.0001.0002.0002.0002.0002.0002.0002.0003c.0222 1.5453.0442 3.0715.0363 4.4877-.0152 2.7189-.1359 5.3058-.578 7.5458-.441 2.2345-1.2218 4.2316-2.641 5.6719-1.4486 1.4701-3.4483 2.2463-6.0762 2.2463-4.3929 0-6.8759-1.6368-8.2305-3.4218-.6605-.8704-1.0248-1.7394-1.2248-2.3923-.0826-.2699-.1379-.5053-.1747-.6919-1.4221.3018-3.1097.506-5.0731.506-7.52632 0-11-3-11-3v-22s.02856.0225.0854.0635c-.05636-.1846-.0854-.3727-.0854-.5635 0-2.48528 4.92487-4.5 11-4.5 6.0751 0 11 2.01472 11 4.5 0 .1894-.0286.376-.0841.5593.0558-.0384.0841-.0593.0841-.0593v4.0619c3.9463.4921 7 3.8585 7 7.9381s-3.0537 7.446-7 7.9381v2.0619s-1.2857 1.1104-3.9874 1.9801c.0026.0162.0056.0339.009.0532.023.1305.065.3269.1386.567.1475.4819.4178 1.1261.9056 1.7689.942 1.2413 2.8107 2.6308 6.6373 2.6308 2.2072 0 3.6525-.6361 4.6516-1.6501 1.0286-1.0438 1.6983-2.6026 2.1035-4.6554.404-2.0472.5251-4.479.5401-7.1697.0082-1.4527-.0134-2.9063-.0355-4.3993v-.0003-.0003-.0003-.0003-.0003-.0004-.0003-.0004-.0009-.0003-.0002-.0003-.0002-.0003-.0002l-.0001-.0009c-.0168-1.1342-.0339-2.2909-.0387-3.4871-.0445-.0342-.0878-.0707-.1298-.1096l-.0989-.0907c-4.7232-4.3067-7.809-7.1265-7.6921-10.64437.054-1.54134.8367-3.01922 2.1052-3.88963 2.3751-1.63201 5.308-.87041 6.8914.99734 1.5833-1.86775 4.5162-2.63842 6.8913-.99734 1.2685.87041 2.0512 2.34829 2.1052 3.88963.1255 3.50437-2.9451 6.31597-7.6377 10.61277l-.0543.0497zm-15.2143-3.47c-3.9463.4921-7 3.8585-7 7.9381s3.0537 7.446 7 7.9381v1.0051c-.349.2041-.8288.4544-1.4435.7093-1.5766.6535-4.0669 1.3475-7.5565 1.3475-.343 0-.6763-.0067-1-.0194v-17.9988c.3266.012.6599.0182 1 .0182 3.7658 0 6.7672-.8136 8.8458-1.6422.052-.0207.1034-.0414.1542-.0621zm-9-1.0619c4.4183 0 8-1.3431 8-3s-3.5817-3-8-3c-4.41828 0-8 1.3431-8 3s3.58172 3 8 3zm12 9c0 1.1046-.8954 2-2 2s-2-.8954-2-2c0-.7403.4022-1.3866 1-1.7324v-3.2676c0-.5523.4477-1 1-1s1 .4477 1 1v3.2676c.5978.3458 1 .9921 1 1.7324z" fill="#333" fill-rule="evenodd"/></svg>