<svg fill="none" height="48" viewBox="0 0 48 48" width="48" xmlns="http://www.w3.org/2000/svg"><g fill="#333"><path d="m6 18.7241c0-6.0832 4.0359-11.7241 9.5625-11.7241 3.8351 0 6.6809 2.53088 8.4375 6.1211 1.7565-3.58999 4.6022-6.1211 8.4375-6.1211 5.5272 0 9.5625 5.6419 9.5625 11.7241 0 1.0786-.1235 2.1313-.3501 3.155-1.9252-2.3669-4.861-3.8791-8.1499-3.8791-5.799 0-10.5 4.701-10.5 10.5 0 4.1537 2.4118 7.744 5.9115 9.447-2.7881 1.9612-4.9115 3.053-4.9115 3.053s-18-8.6955-18-22.2759z"/><path d="m36 29c0 1.1046-.8954 2-2 2s-2-.8954-2-2c0-.1188.0104-.2351.0302-.3482l-2.4194-2.4194 1.4143-1.4142 2.2989 2.2989c.2111-.0758.4387-.1171.676-.1171 1.1046 0 2 .8954 2 2z"/><path clip-rule="evenodd" d="m42 28.5c0 4.6944-3.8056 8.5-8.5 8.5s-8.5-3.8056-8.5-8.5 3.8056-8.5 8.5-8.5 8.5 3.8056 8.5 8.5zm-2 0c0 3.5899-2.9101 6.5-6.5 6.5s-6.5-2.9101-6.5-6.5 2.9101-6.5 6.5-6.5 6.5 2.9101 6.5 6.5z" fill-rule="evenodd"/></g></svg>