<svg fill="none" height="48" viewBox="0 0 48 48" width="48" xmlns="http://www.w3.org/2000/svg"><g clip-rule="evenodd" fill="#333" fill-rule="evenodd"><path d="m11.1227 12.2188c0-.6731.5457-1.2188 1.2188-1.2188s1.2187.5457 1.2187 1.2188v3.1701l2.7456-1.5852c.5829-.3365 1.3283-.1368 1.6648.4461.3366.5829.1369 1.3283-.446 1.6649l-2.7456 1.5851 2.7456 1.5852c.5829.3365.7826 1.0819.446 1.6648-.3365.5829-1.0819.7827-1.6648.4461l-2.7456-1.5851v3.1704c0 .6731-.5456 1.2188-1.2187 1.2188s-1.2188-.5457-1.2188-1.2188v-3.1704l-2.74554 1.5851c-.58292.3366-1.3283.1368-1.66485-.4461s-.13682-1.3283.4461-1.6648l2.74557-1.5852-2.74557-1.5851c-.58292-.3366-.78265-1.082-.4461-1.6649s1.08193-.7826 1.66485-.4461l2.74554 1.5852z"/><path d="m23 29.7786v-1.7787-6.2117-12.40713c0-2.95867 2.2386-5.35714 5-5.35714s5 2.39847 5 5.35714v12.40713 6.2123 1.7781c1.8289 1.4661 3 3.7189 3 6.2453 0 4.4183-3.5817 8-8 8s-8-3.5817-8-8c0-2.5264 1.1711-4.7792 3-6.2453zm3.9824-8.3335c1.1954.3101 2.5605.6642 4.0176.6398v-2.085h-2c-.5523 0-1-.4477-1-1s.4477-1 1-1h2v-2h-2c-.5523 0-1-.4477-1-1s.4477-1 1-1h2v-2h-2c-.5523 0-1-.4477-1-1s.4477-1.00002 1-1.00002h2v-.61881c0-1.7752-1.3431-3.21429-3-3.21429s-3 1.43909-3 3.21429v11.64143c.5858.0604 1.2524.2333 1.9824.4226z"/></g></svg>