<svg fill="none" height="48" viewBox="0 0 48 48" width="48" xmlns="http://www.w3.org/2000/svg"><path clip-rule="evenodd" d="m6 14c0-4.41828 3.58172-8 8-8h20c4.4183 0 8 3.58172 8 8v20c0 4.4183-3.5817 8-8 8h-20c-4.41828 0-8-3.5817-8-8zm23.9 2.1h-11.8c-1.1046 0-2 .8954-2 2v11.8c0 1.1046.8954 2 2 2h11.8c1.1046 0 2-.8954 2-2v-11.8c0-1.1046-.8954-2-2-2zm-11.8-2c-2.2091 0-4 1.7909-4 4v11.8c0 2.2091 1.7909 4 4 4h11.8c2.2091 0 4-1.7909 4-4v-11.8c0-2.2091-1.7909-4-4-4zm2.3 5.4c.4971 0 .9-.4029.9-.9s-.4029-.9-.9-.9-.9.4029-.9.9.4029.9.9.9zm2.7 1.8c0 .4971-.4029.9-.9.9s-.9-.4029-.9-.9.4029-.9.9-.9.9.4029.9.9zm-4.5.9c.4971 0 .9-.4029.9-.9s-.4029-.9-.9-.9-.9.4029-.9.9.4029.9.9.9zm2.7 1.8c0 .4971-.4029.9-.9.9s-.9-.4029-.9-.9.4029-.9.9-.9.9.4029.9.9zm.9 3.6c.4971 0 .9-.4029.9-.9s-.4029-.9-.9-.9-.9.4029-.9.9.4029.9.9.9zm-2.7-.9c0 .4971-.4029.9-.9.9s-.9-.4029-.9-.9.4029-.9.9-.9.9.4029.9.9zm.9 3.6c.4971 0 .9-.4029.9-.9s-.4029-.9-.9-.9-.9.4029-.9.9.4029.9.9.9zm4.5-11.7c0 .4971-.4029.9-.9.9s-.9-.4029-.9-.9.4029-.9.9-.9.9.4029.9.9zm.9 3.6c.4971 0 .9-.4029.9-.9s-.4029-.9-.9-.9-.9.4029-.9.9.4029.9.9.9zm-.9 1.8c0 .4971-.4029.9-.9.9s-.9-.4029-.9-.9.4029-.9.9-.9.9.4029.9.9zm.9 3.6c.4971 0 .9-.4029.9-.9s-.4029-.9-.9-.9-.9.4029-.9.9.4029.9.9.9zm-.9 1.8c0 .4971-.4029.9-.9.9s-.9-.4029-.9-.9.4029-.9.9-.9.9.4029.9.9zm2.7-9.9c.4971 0 .9-.4029.9-.9s-.4029-.9-.9-.9-.9.4029-.9.9.4029.9.9.9zm2.7 1.8c0 .4971-.4029.9-.9.9s-.9-.4029-.9-.9.4029-.9.9-.9.9.4029.9.9zm-2.7 3.6c.4971 0 .9-.4029.9-.9s-.4029-.9-.9-.9-.9.4029-.9.9.4029.9.9.9zm2.7 1.8c0 .4971-.4029.9-.9.9s-.9-.4029-.9-.9.4029-.9.9-.9.9.4029.9.9zm-2.7 3.6c.4971 0 .9-.4029.9-.9s-.4029-.9-.9-.9-.9.4029-.9.9.4029.9.9.9z" fill="#333" fill-rule="evenodd"/></svg>