<svg fill="none" height="48" viewBox="0 0 48 48" width="48" xmlns="http://www.w3.org/2000/svg"><path clip-rule="evenodd" d="m38 24.0426c0 .3803-.0151.7425-.0447 1.0874l.0099.0021c.0231.3579.0348.7194.0348 1.0841 0 1.4087-.176 2.5464-.4825 3.4682-.1743.5241.1093 1.0902.6333 1.2645.5241.1743 1.0902-.1093 1.2645-.6333.3891-1.1702.5847-2.5291.5847-4.0994 0-.1616-.0021-.3227-.0062-.4833 4.4119 2.3779 7.182 11.2671-15.7228 11.2671-22.84173 0-21.07189-9.3315-16.26421-11.2889-.00452.1678-.00679.3362-.00679.5051 0 1.3089.13586 2.4701.40606 3.4976.14046.5341.68733.8532 1.22145.7128.53409-.1405.85329-.6874.71279-1.2215-.2182-.8298-.3403-1.8156-.3403-2.9889 0-.3421.0103-.6814.0306-1.0176l.0198-.0039c-.0334-.3642-.0504-.7479-.0504-1.1521 0-7.7555 6.268-14.0426 14-14.0426s14 6.2871 14 14.0426zm-17.3736-6.7667c.5289-.1592.8285-.7169.6693-1.2458-.1591-.5288-.7169-.8285-1.2458-.6693-1.7372.5229-3.2616 1.588-4.3501 3.0395-1.0885 1.4514-1.6841 3.2131-1.6995 5.0273-.0047.5523.4392 1.0038.9914 1.0085.5523.0047 1.0038-.4392 1.0085-.9914.0118-1.3874.4672-2.7345 1.2996-3.8445.8324-1.1099 1.9981-1.9244 3.3266-2.3243z" fill="#333" fill-rule="evenodd"/></svg>