<svg fill="none" height="48" viewBox="0 0 48 48" width="48" xmlns="http://www.w3.org/2000/svg"><g clip-rule="evenodd" fill="#333" fill-rule="evenodd"><path d="m18.4453 10.1681c.4595-.3064 1.0804-.18222 1.3868.2773l1.3009 1.9515c.7146 1.0718.2443 2.5297-.9618 2.982l-4.2246 1.5842c-1.1709.4391-1.9466 1.5585-1.9466 2.809v18.228c0 1.6569 1.3431 3 3 3h14c1.6569 0 3-1.3431 3-3v-18.228c0-1.2505-.7757-2.3699-1.9466-2.809l-4.2246-1.5842c-1.2061-.4523-1.6764-1.9102-.9618-2.982l1.3009-1.9515c.3064-.45952.9273-.5837 1.3868-.2773.4595.3063.5837.9272.2774 1.3867l-1.301 1.9515 4.2245 1.5842c1.9515.7318 3.2444 2.5974 3.2444 4.6816v18.228c0 2.7614-2.2386 5-5 5h-14c-2.7614 0-5-2.2386-5-5v-18.228c0-2.0842 1.2929-3.9498 3.2444-4.6816l4.2245-1.5842-1.301-1.9515c-.3063-.4595-.1821-1.0804.2774-1.3867z"/><path d="m24 35c3.866 0 7-3.134 7-7s-3.134-7-7-7-7 3.134-7 7 3.134 7 7 7zm0 2c4.9706 0 9-4.0294 9-9s-4.0294-9-9-9-9 4.0294-9 9 4.0294 9 9 9z"/><path d="m28.2928 33.707-10-10 1.4143-1.4142 10 10z"/><path d="m17.2656 5.47416c-.7637.3015-1.2656 1.03919-1.2656 1.8603v4.66554h16v-4.66554c0-.82111-.5019-1.5588-1.2656-1.8603l-3.0266-1.19476c-.4677-.18461-.966-.2794-1.4687-.2794h-4.4782c-.5027 0-1.001.09479-1.4687.2794zm2.7344 1.52584v3h2v-3zm3 3v-3h2v3zm3-3v3h2v-3z"/><path d="m26.1198 27.9985c.049-.1845.0626-.3865.0317-.6013l-.0281-.1947c.6033.0612 1.2917-.1879 1.8245-.7208.8387-.8386.9746-2.0623.3037-2.7332s-1.8946-.535-2.7332.3036c-.7434.7434-.9346 1.7894-.5012 2.4847l.0605.4196zm-4.0329.2098c-.2077.315-.2969.7177-.1859 1.161l.1106.442c.0742.2963-.2689.5184-.5089.3296-.9667-.7607-2.3567.0973-2.1101 1.3023l.0972.4749.9797-.2004-.0972-.4749c-.0599-.2924.2774-.5006.512-.3161.9892.7784 2.403-.1372 2.0974-1.3583l-.1107-.442c-.0129-.0515-.0174-.1013-.0147-.1488z"/></g></svg>