<svg fill="none" height="48" viewBox="0 0 48 48" width="48" xmlns="http://www.w3.org/2000/svg"><g clip-rule="evenodd" fill="#333" fill-rule="evenodd"><path d="m24 39c1.1046 0 2-.8954 2-2s-.8954-2-2-2-2 .8954-2 2 .8954 2 2 2zm0 3c2.7614 0 5-2.2386 5-5s-2.2386-5-5-5-5 2.2386-5 5 2.2386 5 5 5z"/><path d="m28 6h-4-4l-2 4h4v7.9918l4-2.4805v-5.5113h4zm4.2361 4-2-4h1.7639l2 4zm7.7639-4h-5.7639l2 4h3.7639c1.1046 0 2-.89543 2-2s-.8954-2-2-2zm-24 0h1.7639l-2 4h-1.7639zm6 16.9918v-2.6467l4-2.4805v2.6467zm0 7.3533v1.6549c0 1.1046.8954 2 2 2s2-.8954 2-2v-4.1354zm4-4.8338v-2.6467l-4 2.4805v2.6467zm-12.2361-19.5113h-5.7639c-1.10457 0-2 .89543-2 2s.89543 2 2 2h3.7639z"/></g></svg>