<svg fill="none" height="48" viewBox="0 0 48 48" width="48" xmlns="http://www.w3.org/2000/svg"><path clip-rule="evenodd" d="m31 5c-1.1046 0-2 .89543-2 2v4h1v3.3431c0 .7957-.3161 1.5588-.8787 2.1214l-1.6568 1.6568c-.9377.9377-1.4645 2.2095-1.4645 3.5356v15.3431c0 2.7614 2.2386 5 5 5h7c2.7614 0 5-2.2386 5-5v-15.3431c0-1.3261-.5268-2.5979-1.4645-3.5356l-1.6568-1.6568c-.5626-.5626-.8787-1.3257-.8787-2.1214v-3.3431h1v-4c0-1.10457-.8954-2-2-2zm6 6h-5v3.3431c0 1.3261-.5268 2.5979-1.4645 3.5356l-1.6568 1.6568c-.5626.5626-.8787 1.3257-.8787 2.1214v15.3431c0 1.6569 1.3431 3 3 3h7c1.6569 0 3-1.3431 3-3v-15.3431c0-.7957-.3161-1.5588-.8787-2.1214l-1.6568-1.6568c-.9377-.9377-1.4645-2.2095-1.4645-3.5356zm-2 10.5c0-.2761-.2239-.5-.5-.5s-.5.2239-.5.5v2.7276c-.2805.2644-.5227.745-.6985 1.3668l-.8015-.8015v-1.2929c0-.1326-.0527-.2598-.1464-.3536l-1.5-1.5c-.1953-.1952-.5119-.1952-.7071 0-.1953.1953-.1953.5119 0 .7072l1.3535 1.3535v1.2929c0 .1326.0527.2598.1465.3536l.8978.8978-3.5082.6057c-.1459.6931.0763 2.0585 2.0681 2.1392l-.8815.5877c-.1759.1172-.259.3323-.2078.5373l.4146 1.6581-1.2068.8046c-.2298.1532-.2919.4636-.1387.6933.1532.2298.4636.2919.6934.1387l1.5-1c.1758-.1172.2589-.3323.2077-.5373l-.4146-1.6581.4343-.2895c-.0105.0749-.004.1525.0209.227l.9345 2.8035-1.4074 2.8148c-.1235.247-.0234.5473.2236.6708s.5473.0234.6708-.2236l1.5-3c.0593-.1186.0691-.2559.0271-.3817l-.9022-2.7069.5502-.5502c.2302 1.4208.7604 2.4152 1.3777 2.4152s1.1475-.9944 1.3777-2.4152l.5502.5502-.9022 2.7069c-.042.1258-.0322.2631.0271.3817l1.5 3c.1235.247.4238.3471.6708.2236s.3471-.4238.2236-.6708l-1.4074-2.8148.9345-2.8035c.0249-.0745.0314-.1521.0209-.227l.4343.2895-.4146 1.6581c-.0512.205.0319.4201.2078.5373l1.5 1c.2297.1532.5402.0911.6933-.1387.1532-.2297.0911-.5401-.1386-.6933l-1.2069-.8046.4146-1.6581c.0512-.205-.0319-.4201-.2077-.5373l-.8816-.5877c1.9918-.0806 2.214-1.4461 2.0681-2.1392l-3.5082-.6057.8979-.8978c.0937-.0938.1464-.221.1464-.3536v-1.2929l1.3536-1.3535c.1952-.1953.1952-.5119 0-.7072-.1953-.1952-.5119-.1952-.7071 0l-1.5 1.5c-.0938.0938-.1465.221-.1465.3536v1.2929l-.8015.8015c-.1757-.6218-.418-1.1024-.6985-1.3668zm-29-9.5h1v1.2929c0 .718.28521 1.4065.79289 1.9142.13261.1326.20711.3125.20711.5v15.5858c0 .1875-.0745.3674-.20711.5-.50768.5077-.79289 1.1962-.79289 1.9142v1.2929h-1v6h1.14286 13.71424 1.1429v-6h-1v-1.2929c0-.718-.2852-1.4065-.7929-1.9142-.1326-.1326-.2071-.3125-.2071-.5v-15.5858c0-.1875.0745-.3674.2071-.5.5077-.5077.7929-1.1962.7929-1.9142v-1.2929h1v-6h-16zm13 23v-1.2929c0-.1875-.0745-.3674-.2071-.5-.5077-.5077-.7929-1.1962-.7929-1.9142v-15.5858c0-.718.2852-1.4065.7929-1.9142.1326-.1326.2071-.3125.2071-.5v-1.2929h-1v-2c0-.55228-.4477-1-1-1s-1 .44772-1 1v2h-1v-2c0-.55228-.4477-1-1-1s-1 .44772-1 1v2h-1v-2c0-.55228-.4477-1-1-1s-1 .44772-1 1v2h-1v1.2929c0 .1875.0745.3674.20711.5.50768.5077.79289 1.1962.79289 1.9142v15.5858c0 .718-.28521 1.4065-.79289 1.9142-.13261.1326-.20711.3125-.20711.5v1.2929h1v2c0 .5523.4477 1 1 1s1-.4477 1-1v-2h1v2c0 .5523.4477 1 1 1s1-.4477 1-1v-2h1v2c0 .5523.4477 1 1 1s1-.4477 1-1v-2z" fill="#333" fill-rule="evenodd"/></svg>