<svg fill="none" height="48" viewBox="0 0 48 48" width="48" xmlns="http://www.w3.org/2000/svg"><g fill="#333"><path clip-rule="evenodd" d="m8 6c-1.10457 0-2 .89543-2 2v10c0 1.1046.89543 2 2 2h18c1.1046 0 2-.8954 2-2v-10c0-1.10457-.8954-2-2-2zm7 6c.5523 0 1-.4477 1-1s-.4477-1-1-1-1 .4477-1 1 .4477 1 1 1zm-3-1c0 .5523-.4477 1-1 1s-1-.4477-1-1 .4477-1 1-1 1 .4477 1 1zm3 5c.5523 0 1-.4477 1-1s-.4477-1-1-1-1 .4477-1 1 .4477 1 1 1zm-3-1c0 .5523-.4477 1-1 1s-1-.4477-1-1 .4477-1 1-1 1 .4477 1 1zm7-3c.5523 0 1-.4477 1-1s-.4477-1-1-1-1 .4477-1 1 .4477 1 1 1zm1 3c0 .5523-.4477 1-1 1s-1-.4477-1-1 .4477-1 1-1 1 .4477 1 1zm3-3c.5523 0 1-.4477 1-1s-.4477-1-1-1-1 .4477-1 1 .4477 1 1 1zm1 3c0 .5523-.4477 1-1 1s-1-.4477-1-1 .4477-1 1-1 1 .4477 1 1z" fill-rule="evenodd"/><path d="m31 16c0-1.6569 1.3431-3 3-3s3 1.3431 3 3v.8027c1.7934 1.0374 3 2.9765 3 5.1973v18h1c.5523 0 1 .4477 1 1s-.4477 1-1 1h-14c-.5523 0-1-.4477-1-1s.4477-1 1-1h1v-18c0-2.2208 1.2066-4.1599 3-5.1973z"/><path d="m13 27.7778c0-.8416.6579-1.5467 1.5416-1.7309l-.9295-1.8821-7.13299 1.8054-.47911-1.9403 7.133-1.8054c.8982-.2274 1.8319.2074 2.2459 1.0458l.6211 1.2577.6211-1.2577c.414-.8384 1.3477-1.2732 2.2459-1.0458l7.133 1.8054-.4791 1.9403-7.133-1.8054-.9295 1.8821c.8837.1842 1.5416.8893 1.5416 1.7309v10.4444c0 .9819-.8954 1.7778-2 1.7778v2h-2v-2c-1.1046 0-2-.7959-2-1.7778z"/></g></svg>