<svg fill="none" height="48" viewBox="0 0 48 48" width="48" xmlns="http://www.w3.org/2000/svg"><g fill="#333"><path clip-rule="evenodd" d="m13 30v-12h2v12z" fill-rule="evenodd"/><path d="m13.1339 10.5c.3849-.66667 1.3472-.66667 1.7321 0l4.3301 7.5c.3849.6667-.0962 1.5-.866 1.5h-8.66027c-.7698 0-1.25093-.8333-.86603-1.5z"/><g clip-rule="evenodd" fill-rule="evenodd"><path d="m14 13-2.5981 4.5h5.1961zm.866-2.5c-.3849-.66667-1.3472-.66667-1.7321 0l-4.3301 7.5c-.3849.6667.09623 1.5.86603 1.5h8.66027c.7698 0 1.2509-.8333.866-1.5z"/><path d="m23 29.7786v-1.7787-6.2117-12.40713c0-2.95867 2.2386-5.35714 5-5.35714s5 2.39847 5 5.35714v12.40713 6.2123 1.7781c1.8289 1.4661 3 3.7189 3 6.2453 0 4.4183-3.5817 8-8 8s-8-3.5817-8-8c0-2.5264 1.1711-4.7792 3-6.2453zm3.9824-8.3335c1.1954.3101 2.5605.6642 4.0176.6398v-2.085h-2c-.5523 0-1-.4477-1-1s.4477-1 1-1h2v-2h-2c-.5523 0-1-.4477-1-1s.4477-1 1-1h2v-2h-2c-.5523 0-1-.4477-1-1s.4477-1.00002 1-1.00002h2v-.61881c0-1.7752-1.3431-3.21429-3-3.21429s-3 1.43909-3 3.21429v11.64143c.5858.0604 1.2524.2333 1.9824.4226z"/></g></g></svg>