<svg fill="none" height="48" viewBox="0 0 48 48" width="48" xmlns="http://www.w3.org/2000/svg"><path clip-rule="evenodd" d="m29 6v2c0 1.30622.8348 2.4175 2 2.8293v1.1707h-1c-.5523 0-1 .4477-1 1v6c0 .5523.4477 1 1 1h4c.5523 0 1-.4477 1-1v-6c0-.5523-.4477-1-1-1h-1v-1h5v12.0664h-17.89c-.0815 0-.1598-.0327-.2175-.0908l-.3664-.3688.3684-.3681c1.4733-1.472 1.4741-3.8594.0018-5.3324l-1.8002-1.8011c-1.4721-1.4729-3.8597-1.4737-5.3329-.0018l-.7041.7035c-1.3392-.3806-2.83755-.04-3.89207 1.0216-1.55604 1.5666-1.55604 4.1091 0 5.6757l.83297.8386v10.6572h-3v2h3.05051c-.64828.6353-1.05051 1.5207-1.05051 2.5 0 1.933 1.567 3.5 3.5 3.5s3.5-1.567 3.5-3.5c0-.9793-.4022-1.8647-1.0505-2.5h20.101c-.6483.6353-1.0505 1.5207-1.0505 2.5 0 1.933 1.567 3.5 3.5 3.5s3.5-1.567 3.5-3.5c0-.9793-.4022-1.8647-1.0505-2.5h3.0505v-2h-4v-3.0003h.0662c2.1726 0 3.9338-1.7759 3.9338-3.9667 0-1.4819-.806-2.7741-2-3.4551v-12.5779c0-1.10457-.8954-2-2-2h-6c-.5523 0-1-.44772-1-1v-2zm-15.1737 10.8684 4.2904 4.3194.3642-.3639c.6918-.6912.6922-1.8121.0009-2.5037l-1.8002-1.8011c-.6914-.6918-1.8129-.6922-2.5048-.0009zm22.1737 17.1316h-25v-8.6437l5.2752 5.3109c.2115.2129.4981.3325.797.3325h18.9278z" fill="#333" fill-rule="evenodd"/></svg>