<svg fill="none" height="48" viewBox="0 0 48 48" width="48" xmlns="http://www.w3.org/2000/svg"><path clip-rule="evenodd" d="m16.0961 11.1052c-1.4721-1.47288-3.8597-1.4737-5.3329-.0018l-.7041.7035c-1.33923-.3806-2.83755-.04-3.89207 1.0216-1.55604 1.5666-1.55604 4.1091 0 5.6757l.83297.8386v10.6572h-3v2h2.05051c-.64828.6353-1.05051 1.5207-1.05051 2.5 0 1.933 1.567 3.5 3.5 3.5s3.5-1.567 3.5-3.5c0-.9793-.4022-1.8647-1.0505-2.5h26.101c-.6483.6353-1.0505 1.5207-1.0505 2.5 0 1.933 1.567 3.5 3.5 3.5s3.5-1.567 3.5-3.5c0-.9793-.4022-1.8647-1.0505-2.5h2.0505v-2h-4v-3.1127c1.7218-.4227 3-1.988 3-3.8543 0-2.1907-1.7612-3.9666-3.9338-3.9666h-20.9562c-.0815 0-.1598-.0327-.2175-.0908l-.3664-.3688.3684-.3681c1.4733-1.472 1.4741-3.8594.0018-5.3324zm.0206 6.0826.3642-.3639c.6918-.6912.6922-1.8121.0009-2.5037l-1.8002-1.8011c-.6914-.6918-1.8129-.6922-2.5048-.0009l-.3505.3502zm21.8833 12.8122h-29v-8.6437l5.2752 5.3109c.2115.2129.4981.3325.797.3325h22.9278z" fill="#333" fill-rule="evenodd"/></svg>