<svg fill="none" height="48" viewBox="0 0 48 48" width="48" xmlns="http://www.w3.org/2000/svg"><g fill="#333"><g clip-rule="evenodd" fill-rule="evenodd"><path d="m27.9912 8.11433c-.5402 0-1.0574-.21852-1.434-.60584l-1.132-1.16436c-.7854-.8078-2.0826-.8078-2.868-.00001l-1.132 1.16437c-.3766.38732-.8938.60584-1.434.60584h-6c-1.1046 0-2 .89543-2 1.99997v23.8857c0 1.1046.8954 2 2 2h20c1.1046 0 2-.8954 2-1.9999v-23.8858c0-1.10454-.8954-1.99997-2-1.99997zm10 1.99997v23.8858c0 2.2091-1.7909 3.9999-4 3.9999h-20c-2.2091 0-3.99999-1.7908-3.99999-4v-23.8857c0-2.20911 1.79089-3.99997 3.99999-3.99997h6l1.132-1.16436c1.5707-1.61558 4.1653-1.61558 5.736 0l1.132 1.16436h6c2.2091 0 4 1.79086 4 3.99997z"/><path d="m26.9912 44v-8h2v8z"/><path d="m33 40h-18v-2h18z"/></g><path d="m28 27.1222c-5.525 3.5793-10.4001 1.8942-17 2.1961l.0088 5.4377 2.5 2.1962h21l2.4912-2.1962v-5.4377s-3.475-5.7755-9-2.1961z"/><path clip-rule="evenodd" d="m37 29.3183s-3.475-5.7755-9-2.1961c-3.9775 2.5768-7.6182 2.4252-11.808 2.2508-1.6302-.0679-3.3434-.1393-5.192-.0547l.0088 5.4377 2.5 2.1962h21l2.4912-2.1962zm-2 4.5347v-3.8988c-.0462-.0586-.0976-.1217-.1541-.1882-.328-.3864-.789-.8437-1.3509-1.2027-.5548-.3545-1.1635-.5863-1.8269-.6092-.6458-.0223-1.5006.1469-2.5807.8466-3.1655 2.0508-6.1616 2.5785-9.1376 2.6481-1.2726.0297-2.5712-.0245-3.8436-.0776-.175-.0073-.3496-.0146-.5235-.0217-.8525-.0345-1.7068-.0643-2.5795-.0691l.0041 2.5692 1.2552 1.1026h19.4906z" fill-rule="evenodd"/><path d="m17 39.9522c0-1.1046.8954-2 2-2h2c1.1046 0 2 .8954 2 2s-.8954 2-2 2h-2c-1.1046 0-2-.8954-2-2z"/><path clip-rule="evenodd" d="m32 11.4522h4.5v2h-4.5z" fill-rule="evenodd"/><path clip-rule="evenodd" d="m32 16.4522h4.5v2h-4.5z" fill-rule="evenodd"/><path clip-rule="evenodd" d="m32 21.4522h4.5v2h-4.5z" fill-rule="evenodd"/><path d="m26 9.95219c0 1.10461-.8954 2.00001-2 2.00001s-2-.8954-2-2.00001c0-1.10457.8954-2 2-2s2 .89543 2 2z"/></g></svg>