<svg fill="none" height="48" viewBox="0 0 48 48" width="48" xmlns="http://www.w3.org/2000/svg"><ellipse cx="24" cy="12" fill="#333" rx="5" ry="3"/><g stroke="#333"><path d="m24 11v-5" stroke-width="2"/><path d="m20 13.5-1 3" stroke-linecap="round" stroke-width="2"/><path d="m16.5553 19.3225-2.1106 2.3548" stroke-linecap="round" stroke-width="2"/><path d="m11 23.5-2 1v3" stroke-linecap="round" stroke-width="2"/><path d="m7 41.5 2-1v-3" stroke-linecap="round" stroke-width="2"/><path d="m9 31v3" stroke-linecap="round" stroke-width="2"/><path d="m28 13.5 1 3" stroke-linecap="round" stroke-width="2"/><path d="m31.4447 19.3225 2.1106 2.3548" stroke-linecap="round" stroke-width="2"/><path d="m37 23.5 2 1v3" stroke-linecap="round" stroke-width="2"/><path d="m41 41.5-2-1v-3" stroke-linecap="round" stroke-width="2"/><path d="m39 31v3" stroke-linecap="round" stroke-width="2"/><path d="m17 27v15" stroke-width="2"/><path d="m17 37h15v5" stroke-width="2"/><path d="m32 33.5h-12" stroke-linecap="round" stroke-width="3"/></g></svg>