<svg fill="none" height="48" viewBox="0 0 48 48" width="48" xmlns="http://www.w3.org/2000/svg"><path clip-rule="evenodd" d="m27.8858 6 4.1086 1.1404-.7324 2.84985 2.7335.76365-.7325 2.8498 2.7335.7636-.7324 2.8499 2.7335.7636-.7324 2.8499 2.7335.7636-.7325 2.8499 2.7336.7636-1.1071 4.2798-20.7873 12.5124-4.1003-1.1454.7324-2.8499-2.7335-.7636.7325-2.8499-2.7335-.7636.7324-2.8498-2.7335-.7637.7324-2.8498-2.73347-.7636.73244-2.8499-2.73351-.7636 1.0903-4.2698zm-11.6785 22.5005c2.4853 4.3047 7.9896 5.7795 12.2942 3.2943 4.3046-2.4853 5.7795-7.9896 3.2942-12.2943-2.4852-4.3046-7.9896-5.7795-12.2942-3.2942s-5.7795 7.9896-3.2942 12.2942zm1.7342-1.0021c1.9327 3.3475 6.2131 4.4945 9.5606 2.5618s4.4944-6.2131 2.5617-9.5606c-1.9326-3.3475-6.2131-4.4944-9.5606-2.5617-3.3474 1.9326-4.4944 6.213-2.5617 9.5605zm8.5581.8309c-2.3911 1.3805-5.4485.5613-6.829-1.8298-1.3805-2.391-.5613-5.4485 1.8298-6.829 2.3911-1.3804 5.4485-.5612 6.829 1.8299 1.3805 2.391.5612 5.4485-1.8298 6.8289zm-.9084-1.5756c-1.5214.8784-3.4667.3571-4.345-1.1642-.8784-1.5214-.3571-3.4667 1.1642-4.345 1.5213-.8784 3.4667-.3571 4.345 1.1642.8783 1.5214.3571 3.4667-1.1642 4.345z" fill="#333" fill-rule="evenodd"/></svg>