<svg fill="none" height="48" viewBox="0 0 48 48" width="48" xmlns="http://www.w3.org/2000/svg"><path clip-rule="evenodd" d="m20.1604 12.6419s-11.16039 0-11.16039 4.2264c0 .073.00017.1458.00052.2183l-1.63051.3623c-1.9702.4379-3.30561 2.2748-3.11426 4.284l.5734 6.0207c.14334 1.5051 1.12307 2.8008 2.53219 3.3488l7.19185 2.7968c4.0973 4.1008 8.9629 4.1008 8.9629 4.1008h.9678s4.7938 0 8.8717-4.0103c.1583.0233.3245.0087.4855-.0497l6.7536-2.4506c1.463-.5309 2.4852-1.8621 2.6204-3.4126l.5571-6.3873c.1718-1.9692-1.1206-3.7686-3.0416-4.2347l-1.7309-.42c.0002-.0554.0003-.1109.0003-.1665 0-4.2264-10.9856-4.2268-10.9856-4.2268l-.9006-1.6154c-.3531-.6335-1.0215-1.0261-1.7468-1.0261h-2.5591c-.7253 0-1.3938.3927-1.7469 1.0263zm18.784 6.4375c-.2809 5.4491-1.5995 9.3288-3.3346 12.0912l4.3027-1.5613c.7315-.2654 1.2426-.931 1.3102-1.7062l.5571-6.3873c.0859-.9847-.5603-1.8844-1.5208-2.1174zm-31.14052.3219 1.25398-.2787c.27415 5.2073 1.49714 8.9781 3.12474 11.7088l-4.09635-1.593c-.70456-.274-1.19443-.9219-1.2661-1.6744l-.5734-6.0207c-.09567-1.0046.57203-1.9231 1.55713-2.142zm16.43862-.8714-.2425-.0607-.2425.0607-6 1.5c-.5358.1339-.8616.6768-.7276 1.2126.1339.5358.6768.8616 1.2126.7276l5.7575-1.4393 5.7575 1.4393c.5358.134 1.0787-.1918 1.2126-.7276.134-.5358-.1918-1.0787-.7276-1.2126z" fill="#333" fill-rule="evenodd"/></svg>