<svg fill="none" height="48" viewBox="0 0 48 48" width="48" xmlns="http://www.w3.org/2000/svg"><path d="m21.2628 7.45335-1.4903.84798-1.2189-2.18756-2.63 1.44397 1.2412 2.22744-1.5083.85822 1.0613 1.8382c-.7517.9331-.8928 2.2677-.2528 3.3682l.5955 1.0239c-2.7533 1.585-4.8739 3.4782-6.0592 5.8317-1.14278 2.2691-1.35911 4.851-.5977 7.7784-2.08659 1.8327-3.4036 4.5205-3.4036 7.5159 0 1.4223.2969 2.7751.83209 4h32.16791c.5523 0 1-.4477 1-1 0-.5522-.4477-1-1-1h-13.2c.1311-.6462.2-1.315.2-2 0-1.5365-.3465-2.9921-.9657-4.2928l12.0421-6.7862-.9928-1.7362-12.08 6.8075.9927 1.7361-6.5141 3.671-.9927-1.7362 6.508-3.6675c-1.8247-2.4264-4.7278-3.9957-7.9975-3.9957-1.7522 0-3.3991.4507-4.8312 1.2424-.4414-2.2112-.1791-4.0529.6188-5.6371.948-1.8823 2.7154-3.5283 5.2783-5.0024l2.9218 5.0241c.8329 1.4322 2.6734 1.9254 4.1109 1.1015l.6672-.3824.6091 1.1773 2.6739-1.3624-.6771-1.3086.8485-.4863c1.4374-.8239 1.9275-2.6529 1.0946-4.0852l-4.5227-7.7769c-.7275-1.25096-2.2237-1.78552-3.5486-1.35178z" fill="#333"/></svg>