<svg fill="none" height="48" viewBox="0 0 48 48" width="48" xmlns="http://www.w3.org/2000/svg"><g fill="#333"><path clip-rule="evenodd" d="m12.9665 7.00504c-.0028-1.65686 1.3382-3.0022 2.995-3.00491l15.9722-.02616c1.6569-.00272 3.0022 1.33823 3.0049 2.99508l.0557 33.98685c.0027 1.6569-1.3382 3.0022-2.9951 3.0049l-15.9722.0262c-1.6568.0027-3.0022-1.3382-3.0049-2.9951zm1.9991.99664c-.0018-1.10457.8921-2.00147 1.9967-2.00328l13.9772-.02289c1.1046-.00181 2.0015.89215 2.0033 1.99672l.0442 26.98987c.0018 1.1045-.8921 2.0014-1.9967 2.0032l-13.9772.0229c-1.1046.0018-2.0015-.8921-2.0033-1.9967zm9.0443 33.97282c1.1032-.0018 1.996-.8984 1.9942-2.0026s-.8976-1.9979-2.0008-1.9961c-1.1031.0018-1.996.8984-1.9942 2.0026s.8976 1.9979 2.0008 1.9961z" fill-rule="evenodd"/><path d="m23.1923 27.5397-.0002-.0002c-1.5888-1.3158-2.8951-2.3977-3.8063-3.4152-.9094-1.0155-1.4092-1.9496-1.41-2.9675-.0013-1.6562 1.4179-2.9568 3.2284-2.9583 1.0241-.0008 2.0099.4352 2.653 1.125l.1172.1257.117-.1259c.642-.6908 1.627-1.1285 2.6512-1.1293 1.8104-.0015 3.2318 1.2967 3.2332 2.953.0008 1.0178-.4973 1.9528-1.4051 2.9705-.9065 1.0162-2.2053 2.0978-3.7846 3.413l-.0159.0132-.0003.0003-.7879.6523z"/></g></svg>