<svg fill="none" height="48" viewBox="0 0 48 48" width="48" xmlns="http://www.w3.org/2000/svg"><path clip-rule="evenodd" d="m36 16c2.2091 0 4-1.7909 4-4 0-2.20914-1.7909-4-4-4s-4 1.79086-4 4c0 2.2091 1.7909 4 4 4zm0 2c3.3137 0 6-2.6863 6-6 0-3.31371-2.6863-6-6-6s-6 2.68629-6 6c0 3.3137 2.6863 6 6 6zm-17.9039-2.8948c-1.4721-1.4729-3.8597-1.4737-5.3329-.0018l-.7041.7035c-1.3392-.3806-2.83755-.04-3.89207 1.0216-1.55604 1.5666-1.55604 4.1091 0 5.6757l.83297.8386v10.6572h-3v2h3 .05051c-.64828.6353-1.05051 1.5207-1.05051 2.5 0 1.933 1.567 3.5 3.5 3.5s3.5-1.567 3.5-3.5c0-.9793-.4022-1.8647-1.0505-2.5h20.101c-.6483.6353-1.0505 1.5207-1.0505 2.5 0 1.933 1.567 3.5 3.5 3.5s3.5-1.567 3.5-3.5c0-.9793-.4022-1.8647-1.0505-2.5h3.0505v-2h-4v-3.0003h.0662c2.1726 0 3.9338-1.7759 3.9338-3.9667 0-2.1907-1.7612-3.9666-3.9338-3.9666h-17.9562c-.0815 0-.1598-.0327-.2175-.0908l-.3664-.3688.3684-.3681c1.4733-1.472 1.4741-3.8594.0019-5.3324zm.0206 6.0826.3642-.3639c.6918-.6912.6922-1.8121.0009-2.5037l-1.8002-1.8011c-.6914-.6918-1.8129-.6922-2.5048-.0009l-.3505.3502zm17.8833 9.8119v3.0003h-25v-8.6437l5.2752 5.3109c.2115.2129.4981.3325.797.3325zm1-20.9997c0-.55228-.4477-1-1-1s-1 .44772-1 1v2.3028l1.1679 1.7519c.3064.4595.9273.5837 1.3868.2774.4595-.3064.5837-.9273.2774-1.3868l-.8321-1.2481z" fill="#333" fill-rule="evenodd"/></svg>