<svg fill="none" height="48" viewBox="0 0 48 48" width="48" xmlns="http://www.w3.org/2000/svg"><g clip-rule="evenodd" fill="#333" fill-rule="evenodd"><path d="m32.342 29.1912c-.2577-.1222-.5473-.1912-.8562-.1912h-3.8192l-12.6184 4.5426.3994 1.7306zm-16.0421 9.7752 16.7954-6.0464.3393-1.4703c.0424-.1838.0582-.3664.05-.5442l-17.5841 6.3303zm16.2604-3.7281-15.5472 5.597c.4864.6285 1.2128 1.0505 2.0266 1.1447l13.0489-4.6976zm-3.9469 6.7617h-3.7246l6.6648-2.3993-.017.0739c-.3141 1.3612-1.5262 2.3254-2.9232 2.3254zm-12.0994-13h5.248l-7.1667 2.58-.03-.1303c-.2892-1.2532.6626-2.4497 1.9487-2.4497z"/><path d="m25.4382 8.02853c3.1597-1.5698 9.5303-3.75073 14.1394 1.1052 4.1209 4.34157 2.14 8.87717.2335 13.24237-1.0365 2.3731-2.051 4.6959-2.051 6.9096-1.2601 2.2143-27.7601 1.7143-28.53465 0 0-2.5633-.85584-5.2318-1.68582-7.8197-1.36718-4.2629-2.66418-8.307.05007-11.3013 4.362-4.81203 9.7308-5.84076 15.9103-1.03102 0 0 .0102-.00703.0301-.02041l6.8168 4.96273c.4464.3251 1.0719.2266 1.397-.2199.325-.4465.2266-1.0719-.2199-1.397z"/></g></svg>