<svg fill="none" height="48" viewBox="0 0 48 48" width="48" xmlns="http://www.w3.org/2000/svg"><path clip-rule="evenodd" d="m19 6.04785h-2v2h5v2.00005h-5v2.0829c2.8377.4761 5 2.9441 5 5.9171v2h-12v-2c0-2.973 2.1623-5.441 5-5.9171v-2.0829h-2.1707c-.4118 1.1651-1.5231 2-2.8293 2-1.65685 0-3-1.3432-3-3.00005s1.34315-3 3-3c1.3062 0 2.4175.83481 2.8293 2h2.1707v-2h-2v-2h6zm-9 16.00005v21c0 .5522.4477 1 1 1h10c.5523 0 1-.4478 1-1v-21zm0-14.00005c-.55228 0-1 .44772-1 1 0 .55229.44772 1.00005 1 1.00005.5523 0 1-.44776 1-1.00005 0-.55228-.4477-1-1-1zm16 13.00005c0-2.2092 1.7909-4 4-4s4 1.7908 4 4v6c0 2.2091-1.7909 4-4 4s-4-1.7909-4-4zm4-2c-1.1046 0-2 .8954-2 2v6c0 1.1045.8954 2 2 2s2-.8955 2-2v-6c0-1.1046-.8954-2-2-2zm5 7h3c.5523 0 1 .4477 1 1 0 .5522-.4477 1-1 1-1.6569 0-3 1.3431-3 3v2c0 .5522.4477 1 1 1h5v-2h-4v-1c0-.5523.4477-1 1-1 1.6569 0 3-1.3432 3-3 0-1.6569-1.3431-3-3-3h-3z" fill="#333" fill-rule="evenodd"/></svg>