<svg fill="none" height="48" viewBox="0 0 48 48" width="48" xmlns="http://www.w3.org/2000/svg"><path clip-rule="evenodd" d="m23.7059 11.0442c.1916-.0589.3966-.0589.5882 0l13 4c.4196.1291.7059.5168.7059.9558v1h1c2.7614 0 5 2.2386 5 5v4c0 2.7614-2.2386 5-5 5h-2.4564c-1.1224 1.7244-2.83 3.0575-4.8968 3.6934l-7.3527 2.2624c-.1916.0589-.3966.0589-.5882 0l-7.3527-2.2624c-2.0668-.6359-3.7744-1.969-4.8968-3.6934h-2.4564c-2.76142 0-5-2.2386-5-5v-4c0-2.7614 2.23858-5 5-5h1v-1c0-.439.2863-.8267.7059-.9558zm-13.7059 15.0472c0 1.0101.1684 1.99.4823 2.9086h-1.4823c-1.65685 0-3-1.3431-3-3v-4c0-1.6569 1.34315-3 3-3h1zm27.5177 2.9086h1.4823c1.6569 0 3-1.3431 3-3v-4c0-1.6569-1.3431-3-3-3h-1v7.0914c0 1.0101-.1684 1.99-.4823 2.9086zm-7.5177-8h-12v-2h12zm0 6h-12v-2h12z" fill="#333" fill-rule="evenodd"/></svg>