<svg fill="none" height="48" viewBox="0 0 48 48" width="48" xmlns="http://www.w3.org/2000/svg"><path clip-rule="evenodd" d="m24 6.5c0-.82843.6716-1.5 1.5-1.5s1.5.67157 1.5 1.5v12.5h1v-10.5c0-.82843.6716-1.5 1.5-1.5s1.5.67157 1.5 1.5v10.5 5l2.9227-3.6534c.6095-.7618 1.7004-.9312 2.5122-.39.8644.5763 1.098 1.7441.5217 2.6085l-4.2493 6.374c-.9166 1.3749-2.1727 2.4522-3.6165 3.1507l.9092 10.9102h-12l.9049-10.8589c-1.7408-1.0503-2.9049-2.9597-2.9049-5.1411v-8-8.5c0-.82843.6716-1.5 1.5-1.5s1.5.67157 1.5 1.5v8.5h1v-10.5c0-.82843.6716-1.5 1.5-1.5s1.5.67157 1.5 1.5v10.5h1zm-12 5.5h2v16c0 1.8502 1.0919 3.7842 2.5166 4.6438l.5445.3285-.845 8.0277h-2.0111l.7381-7.0115c-1.7623-1.3418-2.9431-3.7025-2.9431-5.9885z" fill="#333" fill-rule="evenodd"/></svg>