<svg fill="none" height="48" viewBox="0 0 48 48" width="48" xmlns="http://www.w3.org/2000/svg"><path clip-rule="evenodd" d="m30.3629 4c2.5778 0 4.7331 1.95978 4.9775 4.52595l1.4466 15.18965c.0849.8914-.2279 1.7218-.787 2.3246v3.9598c0 .5523-.4477 1-1 1h-2.9999v12c0 .5523-.4477 1-1 1h-14c-.5523 0-1-.4477-1-1v-12h-3.0001c-.5523 0-1-.4477-1-1v-3.96c-.559-.6028-.8718-1.4331-.7869-2.3244l1.4467-15.18965c.2443-2.56618 2.3996-4.52595 4.9774-4.52595h3.3628c0 1.65685 1.3432 3 3 3 1.6569 0 3-1.34315 3-3zm3.6371 25h-1.9999v-2h1.8005.1994zm-19.8004-2h1.8004v2h-2v-2zm2.8004-2h14v-2h-14z" fill="#333" fill-rule="evenodd"/></svg>