<svg fill="none" height="48" viewBox="0 0 48 48" width="48" xmlns="http://www.w3.org/2000/svg"><path clip-rule="evenodd" d="m12.3683 10.9961c.2916-.5103.8556-1.29996 1.5593-1.94805.7261-.66886 1.4485-1.04805 2.0725-1.04805h7v6h-4c-1.1045 0-2 .8954-2 2v3h-1c-2.7614 0-5 2.2386-5 5v16c0 1.1046.8955 2 2 2h22c1.1046 0 2-.8954 2-2v-16c0-2.7614-2.2386-5-5-5h-1v-3c0-1.1046-.8954-2-2-2h-4v-6h8v-2h-17c-1.3761 0-2.5703.78748-3.4275 1.57695-.8797.81024-1.5657 1.77055-1.9408 2.42695zm5.6318 18.0039h5v-5h2v5h5v2h-5v5h-2v-5h-5z" fill="#333" fill-rule="evenodd"/></svg>