<svg fill="none" height="48" viewBox="0 0 48 48" width="48" xmlns="http://www.w3.org/2000/svg"><g clip-rule="evenodd" fill="#333" fill-rule="evenodd"><path d="m23 6 2-2v7h-2zm0 13h-4v-2h1v-5c0-.5523.4477-1 1-1h2zm2 0h4v-2h-1v-5c0-.5523-.4477-1-1-1h-2z"/><path d="m18 19c-2.2091 0-4 1.7909-4 4v17c0 2.2091 1.7909 4 4 4h12c2.2091 0 4-1.7909 4-4v-17c0-2.2091-1.7909-4-4-4h-4v2c0 .5523-.4477 1-1 1v2h-2v-2c-.5523 0-1-.4477-1-1v-2zm6 14c2.2091 0 4-1.7909 4-4s-1.7909-4-4-4-4 1.7909-4 4 1.7909 4 4 4zm-1 1v2h2v-2zm-5-13h3v2h-3v11h3v2h-3-2v-2-11c0-1.1046.8954-2 2-2zm12 2h-3v-2h3c1.1046 0 2 .8954 2 2v11 2h-2-3v-2h3z"/></g></svg>