<svg fill="none" height="48" viewBox="0 0 48 48" width="48" xmlns="http://www.w3.org/2000/svg"><path d="m12 10c1.1046 0 2-.89543 2-2s-.8954-2-2-2c-.7403 0-1.3866.4022-1.7324 1h-.2676c-1.65685 0-3 1.34315-3 3v9c-.55226 0-1.00469.4487-.95457.9987.23249 2.5512 1.35025 4.9533 3.17643 6.7795 1.33914 1.3391 2.98794 2.2973 4.77814 2.8048v2.417c0 1.3064.835 2.4177 2.0004 2.8294.0426 3.9675 3.2721 7.1706 7.2496 7.1706 4.0041 0 7.25-3.2459 7.25-7.25v-4c0-2.0711 1.6789-3.75 3.75-3.75s3.75 1.6789 3.75 3.75v2.4207c-1.1652.4118-2 1.5231-2 2.8293 0 1.6569 1.3431 3 3 3s3-1.3431 3-3c0-1.3062-.8348-2.4175-2-2.8293v-2.4207c0-3.1756-2.5744-5.75-5.75-5.75s-5.75 2.5744-5.75 5.75v4c0 2.8995-2.3505 5.25-5.25 5.25-2.8731 0-5.2071-2.3079-5.2494-5.1709 1.1649-.412 1.9994-1.5231 1.9994-2.8291v-2.417c1.7902-.5075 3.4391-1.4657 4.7782-2.8048 1.8262-1.8262 2.9439-4.2283 3.1764-6.7795.0502-.55-.4023-.9987-.9546-.9987v-9c0-1.65685-1.3431-3-3-3h-.2676c-.3458-.5978-.9921-1-1.7324-1-1.1046 0-2 .89543-2 2s.8954 2 2 2c.7403 0 1.3866-.4022 1.7324-1h.2676c.5523 0 1 .44772 1 1v9h.2095c-.5523 0-.9929.4499-1.0692.9969-.2155 1.5437-.9276 2.9861-2.0424 4.101-1.3521 1.352-3.1858 2.1116-5.0979 2.1116-1.912 0-3.7458-.7596-5.0978-2.1116-1.1149-1.1149-1.8269-2.5573-2.0424-4.101-.07636-.547-.51694-.9969-1.06923-.9969h.20943v-9c0-.55228.44772-1 1-1h.2676c.3458.5978.9921 1 1.7324 1z" fill="#333"/></svg>