<svg fill="none" height="48" viewBox="0 0 48 48" width="48" xmlns="http://www.w3.org/2000/svg"><g fill="#333"><path clip-rule="evenodd" d="m26.185 36.6489c-.6281-.4104-1.3787-.6489-2.1849-.6489-2.2092 0-4 1.7909-4 4s1.7908 4 4 4c2.199 0 3.9836-1.7746 3.9998-3.9698l.2236-4.018h1.5531l.2236 4.018c.0162 2.1952 1.8008 3.9698 3.9999 3.9698 2.2091 0 4-1.7909 4-4s-1.7909-4-4-4c-.8063 0-1.5569.2385-2.185.6489l-1.8166-32.6489-.9984.05555-.9985-.05555zm3.4803-2.6367-.6652-11.9564-.6653 11.9564zm.3347-15.976c0 .5515-.4477.9986-1 .9986-.5522 0-1-.4471-1-.9986s.4478-.9986 1-.9986c.5523 0 1 .4471 1 .9986zm-7.9999 21.9638c0-1.1046.8954-2 2-2 1.1045 0 2 .8954 2 2s-.8955 2-2 2c-1.1046 0-2-.8954-2-2zm12-2c-1.1046 0-2 .8954-2 2s.8954 2 2 2c1.1045 0 2-.8954 2-2s-.8955-2-2-2z" fill-rule="evenodd"/><path d="m15.0001 15v-11s-3.478 2.26067-3.9478 10.998c-.0593 1.103.8432 2.002 1.9478 2.002 1.1045 0 2-.8954 2-2z"/><path d="m12.0001 20.5c0-.8284.6715-1.5 1.5-1.5.8284 0 1.5.6716 1.5 1.5v.0858l-3 3z"/><path d="m12.0001 26.4142v1.6716l3-3v-1.6716z"/><path d="m12.0001 32.5858v-1.6716l3-3v1.6716z"/><path d="m12.0001 35.4142v7.0858c0 .8284.6715 1.5 1.5 1.5.8284 0 1.5-.6716 1.5-1.5v-10.0858z"/></g></svg>