<svg fill="none" height="48" viewBox="0 0 48 48" width="48" xmlns="http://www.w3.org/2000/svg"><g fill="#333"><path clip-rule="evenodd" d="m6.81815 13.3639c-.45187.4519-.45187 1.1845 0 1.6364.45187.4518 1.18449.4519 1.63636 0l.8187-.8188 4.09039 4.0905-3.2727 3.2728c-.45191.4519-.45191 1.1845 0 1.6364.4518.4519 1.1844.4519 1.6363 0l1.636-1.6361 13.9095 13.9098c1.6774 1.6775 4.1288 2.1095 6.2048 1.2961l1.1586 1.1586c.6059.6059 1.4641.8056 2.2363.5991l2.6731 2.6732c.4518.4519 1.1844.4519 1.6363 0s.4519-1.1845 0-1.6364l-2.6735-2.6736c.2059-.7719.0061-1.6295-.5994-2.2351l-1.1585-1.1585c.8136-2.0762.3816-4.5278-1.2959-6.2054l-13.9095-13.9098 1.6367-1.6367c.4519-.4519.4519-1.1845 0-1.6364-.4518-.45189-1.1845-.45188-1.6363 0l-3.2728 3.2728-4.0903-4.09045.8176-.81767c.4519-.45188.4519-1.18452 0-1.6364-.4518-.45188-1.1844-.45188-1.6363 0zm10.04025 1.4131-4.0903-4.0904-2.0807 2.0807 4.0904 4.0905zm3.2724.0004-5.3534 5.3535 4.406 4.406 5.3534-5.3535zm.6889 11.3959 2.4546 2.4547 1.6364 1.6364 1.6359 1.636c1.0997 1.0996.8487.8486 1.6364 1.6364l.5039.5039c1.0981 1.0981 2.703 1.3805 4.0618.8472l2.1388-2.1389c.5333-1.3588.2509-2.9637-.8472-4.0619l-7.8672-7.8673zm15.7027 9.9094c-.0084-.011-.0177-.0216-.0277-.0317l-.8241-.8241c-.0696.0775-.1416.1535-.2161.228-.0746.0746-.1507.1467-.2283.2163l.8241.8242c.0102.0101.0209.0194.032.0279.0505-.0898.114-.1742.1904-.2506.0762-.0762.1603-.1395.2497-.19z" fill-rule="evenodd"/><path d="m9.27321 12.7672-.70712.7071-.8187.8188c-.06134.0613-.16078.0613-.22213 0-.06135-.0614-.06135-.1609 0-.2223l6.54544-6.54554-.7071-.7071.7071.70709c.0613-.06134.1608-.06134.2221.00001.0614.06135.0614.16084 0 .2222l-.8176.81767-.7071.7071-.7071.70713-2.08071 2.08074zm4.79749 6.2118.7071-.7071.7071-.7072 2.0807-2.0807.707-.7071.7071-.7071 3.2728-3.2728c.0613-.0614.1608-.0614.2221 0 .0614.0613.0614.1608 0 .2222l-1.6367 1.6367-.7071.7071-.7071.7071-5.3534 5.3536-.7071.7071-.7071.7071-1.636 1.6361c-.0613.0613-.1608.0613-.2221 0-.0614-.0614-.0614-.1609 0-.2222zm7.7894 9.6491-2.6149-2.615.1366-.1365-.9071-.6939c-.1354-.1036-.2668-.2156-.3935-.336.2103.1998.4349.3773.6706.5322l.6805.4472.5757-.5758 5.2422-5.2424.5758-.5757-.4471-.6805c-.1534-.2334-.329-.4559-.5264-.6644.1182.1248.2282.2541.3301.3873l.6939.9071.1363-.1363 8.7345 8.7346c1.3865 1.3865 1.7458 3.4139 1.072 5.1333l-.2388.6092.4627.4627 1.1585 1.1586c.343.343.4581.829.3404 1.2702l-.1486.5571.4077.4078 2.6735 2.6736c.0614.0613.0614.1608 0 .2222-.0613.0613-.1608.0613-.2221 0l-2.6731-2.6732-.408-.408-.5574.149c-.4414.1181-.9277.0031-1.2708-.3401l-1.1586-1.1586-.4627-.4627-.6093.2388c-1.6346.6405-3.5475.3473-4.9235-.8746l2.5598-2.5598c.8423-.8424.8423-2.2082 0-3.0506l-.7071.7071.7071-.7071c-.8424-.8424-2.2082-.8424-3.0506 0l-2.5657 2.5658-.222-.222 2.5658-2.5659c.8424-.8424.8424-2.2082 0-3.0506s-2.2082-.8424-3.0506 0z" stroke="#333" stroke-width="2"/></g></svg>