<svg fill="none" height="48" viewBox="0 0 48 48" width="48" xmlns="http://www.w3.org/2000/svg"><g fill="#333"><path d="m5 19.6765h4.6c4.4183 0 8 3.5817 8 8v2.8h-12.6z"/><path clip-rule="evenodd" d="m9.6 21.6765h-2.6v6.8h8.6v-.8c0-3.3137-2.6863-6-6-6zm-4.6-2v10.8h12.6v-2.8c0-4.4183-3.5817-8-8-8z" fill-rule="evenodd"/><path d="m32 23.7266c0 3.7279-3.0221 6.75-6.75 6.75s-6.75-3.0221-6.75-6.75c0-3.728 3.0221-6.75 6.75-6.75s6.75 3.022 6.75 6.75z"/><path clip-rule="evenodd" d="m25.25 28.4766c2.6234 0 4.75-2.1267 4.75-4.75 0-2.6234-2.1266-4.75-4.75-4.75s-4.75 2.1266-4.75 4.75c0 2.6233 2.1266 4.75 4.75 4.75zm0 2c3.7279 0 6.75-3.0221 6.75-6.75 0-3.728-3.0221-6.75-6.75-6.75s-6.75 3.022-6.75 6.75c0 3.7279 3.0221 6.75 6.75 6.75z" fill-rule="evenodd"/><path d="m4 33.1758c0-.5523.44772-1 1-1h33.2l-3.6 2h-29.6c-.55228 0-1-.4477-1-1z"/><g clip-rule="evenodd" fill-rule="evenodd"><path d="m43.2584 24.1836c0 9.9411-8.0589 18-18 18-5.0353 0-9.5877-2.0676-12.8546-5.4h5.8777c2.0669 1.1469 4.4456 1.8 6.9769 1.8 7.9529 0 14.4-6.4471 14.4-14.4s-6.4471-14.40001-14.4-14.40001c-3.652 0-6.9865 1.35951-9.525 3.60001h-4.8763c3.2839-4.37201 8.5123-7.20001 14.4013-7.20001 9.9411 0 18 8.05891 18 18.00001z"/><path d="m10.0575 12.783c3.4647-4.61263 8.9841-7.59941 15.2009-7.59941 10.4934 0 19 8.50661 19 19.00001s-8.5066 19-19 19c-5.3149 0-10.1215-2.1836-13.5687-5.7l-1.6666-1.7h8.5173l.2263.1256c1.9222 1.0666 4.1345 1.6744 6.4916 1.6744 7.4007 0 13.4-5.9994 13.4-13.4s-5.9993-13.4-13.4-13.4c-3.399 0-6.5004 1.2643-8.8632 3.3497l-.2835.2503h-7.25638zm2.9631-.3994h2.3418c2.6758-2.2462 6.1289-3.60001 9.8959-3.60001 8.5052 0 15.4 6.89481 15.4 15.40001s-6.8948 15.4-15.4 15.4c-2.6116 0-5.074-.6509-7.231-1.8h-2.9708c2.8419 2.1355 6.3736 3.4 10.2019 3.4 9.3888 0 17-7.6112 17-17s-7.6112-17.00001-17-17.00001c-4.8053 0-9.1449 1.99291-12.2378 5.20001z"/></g></g></svg>