<svg fill="none" height="48" viewBox="0 0 48 48" width="48" xmlns="http://www.w3.org/2000/svg"><path clip-rule="evenodd" d="m18.9829 29.7391-.0015-1.7786-.0051-6.2117-.0101-12.40718c-.0024-2.95867 2.2342-5.35897 4.9956-5.36123 2.7614-.00227 5.002 2.39438 5.0044 5.35304l.0101 12.40717.0051 6.2122.0015 1.7781c1.8301 1.4646 3.003 3.7165 3.0051 6.2429.0036 4.4183-3.5752 8.003-7.9935 8.0066-4.4182.0036-8.0029-3.5752-8.0065-7.9935-.0021-2.5264 1.1672-4.7802 2.9949-6.2478zm3.9755-8.3367c1.1957.3091 2.5611.6621 4.0182.6365l-.0017-2.085-2 .0016c-.5523.0005-1.0004-.4469-1.0008-.9992-.0005-.5523.4469-1.0003.9991-1.0008l2-.0016-.0016-2-2 .0016c-.5523.0005-1.0004-.4469-1.0008-.9992-.0005-.5522.4469-1.0003.9992-1.0008l2-.0016-.0017-2-2 .0016c-.5523.0005-1.0003-.4469-1.0008-.9992-.0004-.5522.4469-1.00033.9992-1.00078l2-.00164-.0005-.61881c-.0015-1.7752-1.3458-3.21318-3.0027-3.21183-1.6568.00136-2.9988 1.44154-2.9973 3.21674l.0095 11.64142c.5858.0599 1.2526.2323 1.9827.421z" fill="#333" fill-rule="evenodd"/></svg>