<svg fill="none" height="48" viewBox="0 0 48 48" width="48" xmlns="http://www.w3.org/2000/svg"><path clip-rule="evenodd" d="m33 6h2v-2h-30v2h2v2h-1v2 9c0 2.3266 1.35331 4.6533 2.4856 6.1928.81437 1.1072 1.5144 1.8072 1.5144 1.8072-.78671 0-1.52037.2271-2.13899.6194-1.11854.7092-1.86101 1.9582-1.86101 3.3806v1 6c0 1.4806.8044 2.7733 2 3.4649v2.5351h2v-2h20v2h2v-2.5351c1.1956-.6916 2-1.9843 2-3.4649v-4h2c.5523 0 1 .4477 1 1v2h2 1 2v-2c0-3.3137-2.6863-6-6-6h4v-2h-5v2h-1-.5351c-.3242-.5603-.7803-1.0347-1.3259-1.3806-.6186-.3923-1.3523-.6194-2.139-.6194 0 0 .7-.7 1.5144-1.8072 1.1323-1.5395 2.4856-3.8662 2.4856-6.1928v-9-2h-1zm-1 26v1.3466c-2.4444 1.1973-4.8889.7494-7.3333-1.3466-.5556.4762-1.1111.8673-1.6667 1.1735v-4.1735h2v-6h2v4.1716l-1.8284 1.8284h4.8284c1.1046 0 2 .8954 2 2zm-11-3v-6h2v6zm-2 0h2v4.9082c-.6667.1224-1.3333.1224-2 0zm-2 0v-6h2v6zm0 0h-2v-6h-2v4.1716l1.8284 1.8284h-4.8284c-1.10457 0-2 .8954-2 2v2.3469c2.4444 1.1973 4.8889.7483 7.3333-1.3469.5556.4762 1.1111.8673 1.6667 1.1735zm17 3v-1h2c2.2091 0 4 1.7909 4 4h-1c0-1.6569-1.3431-3-3-3zm-3-26h-22v2h22zm-21.58772 17h1.58772v2.1339c-.0339-.0388-.0695-.0798-.1065-.123-.3363-.3923-.7843-.9526-1.2294-1.6203-.08579-.1287-.16987-.259-.25182-.3906zm19.69422 2.0109c-.037.0432-.0726.0842-.1065.123v-2.1339h1.5877c-.0819.1316-.166.2619-.2518.3906-.4451.6677-.8931 1.228-1.2294 1.6203zm2.8935-9.0109h-24v-6h24zm7.5 27c.8284 0 1.5-.814 1.5-1.8182 0-1.5909-1.5-3.1818-1.5-3.1818s-1.5 1.5909-1.5 3.1818c0 1.0042.6716 1.8182 1.5 1.8182z" fill="#333" fill-rule="evenodd"/></svg>