<svg fill="none" height="48" viewBox="0 0 48 48" width="48" xmlns="http://www.w3.org/2000/svg"><path clip-rule="evenodd" d="m40.2099 38.2219c-.1178 2.1197-1.8709 3.7781-3.9938 3.7781h-24.4321c-2.12298 0-3.87613-1.6585-3.99389-3.7781l-1.55555-28c-.12738-2.29283 1.6975-4.2219 3.99384-4.2219h27.5432c2.2964 0 4.1212 1.92908 3.9939 4.2219zm-5.9657-20.4433c.8198-.5401 1.026-1.6109.3532-2.3076-1.1245-1.1644-2.4584-2.1405-3.945-2.8815-2.0221-1.0078-4.2696-1.5518-6.5585-1.5876s-4.5544.4377-6.6111 1.3818c-1.5121.6941-2.8798 1.628-4.0449 2.7566-.6972.6753-.529 1.7519.2713 2.3174l4.3119 3.0465c.8003.5654 1.9276.3826 2.7568-.1448.2123-.135.435-.2562.6666-.3625.7312-.3357 1.5321-.514 2.3446-.5228l3.393-3.9012c.3624-.4167.994-.4607 1.4108-.0983.4167.3624.4607.9941.0983 1.4108l-2.6304 3.0244c.1227.0507.2436.1057.3624.1649.2277.1135.446.2416.6534.3832.8101.5529 1.9302.7709 2.7501.2308z" fill="#333" fill-rule="evenodd"/></svg>