<svg fill="none" height="48" viewBox="0 0 48 48" width="48" xmlns="http://www.w3.org/2000/svg"><g fill="#333"><path d="m16 33c.5523 0 1-.4477 1-1s-.4477-1-1-1-1 .4477-1 1 .4477 1 1 1z"/><path clip-rule="evenodd" d="m8 6h4.7808l2.75 11h10.4692c1.6569 0 3 1.3431 3 3v3h1c1.6569 0 3 1.3431 3 3v1.414l6.0713 6.0713 2.1213-2.1213 1.4142 1.4142-3.5355 3.5355-6.0713-6.0712v5.9282c1.1652.4118 2 1.5231 2 2.8293 0 1.6569-1.3431 3-3 3s-3-1.3431-3-3c0-1.3062.8348-2.4175 2-2.8293v-7.1707h-5.4578c.2974.947.4578 1.9548.4578 3 0 5.5228-4.4772 10-10 10s-10-4.4772-10-10c0-5.0957 3.81139-9.3012 8.7389-9.9212l-3.5197-14.0788h-3.2192zm19 17v-3c0-.5523-.4477-1-1-1h-9.9692l.7576 3.0306c1.2738.0994 2.4806.4374 3.5757.9694zm-15 9c0-2.2091 1.7909-4 4-4s4 1.7909 4 4-1.7909 4-4 4-4-1.7909-4-4zm20 6c-.5523 0-1 .4477-1 1s.4477 1 1 1 1-.4477 1-1-.4477-1-1-1z" fill-rule="evenodd"/></g></svg>