<svg fill="none" height="48" viewBox="0 0 48 48" width="48" xmlns="http://www.w3.org/2000/svg"><path clip-rule="evenodd" d="m16 8.02165c1.9626.1493 3.712 1.06118 4.9525 2.43995l2.1687-2.16863 1.4142 1.41421-2.4403 2.44032c.4879.9895.762 2.1033.762 3.2811 0 2.3223.815 4.4543 2.1745 6.1256l2.2612-2.2612 1.4143 1.4142-2.2613 2.2613c1.6713 1.3594 3.8033 2.1744 6.1256 2.1744.6552 0 1.2906.0848 1.8958.2441l1.6668-2.887 1.7321 1-1.5369 2.662c2.1964 1.2905 3.6708 3.6778 3.6708 6.4094 0 1.0875-.2337 2.1203-.6535 3.0511l2.6176 1.5113-1 1.732-2.679-1.5467c-1.3626 1.6381-3.4164 2.6809-5.7137 2.6809-.191 0-.3814-.0022-.5714-.0065v3.0065h-2v-3.1329c-3.0721-.3195-5.9761-1.2051-8.6056-2.5505l-1.5284 2.6473-1.7321-1 1.5186-2.6302c-1.9742-1.2227-3.7624-2.7171-5.3122-4.4312l-2.6331 2.6331-1.4143-1.4142 2.7621-2.7621c-1.6377-2.1375-2.9323-4.5519-3.80119-7.1608l-2.99502.8025-.51764-1.9319 2.95895-.7928c-.45753-1.8742-.7001-3.8326-.7001-5.8477 0-.681.09162-1.3405.26322-1.967l-2.76322-1.5954 1-1.732 2.55552 1.4754c1.06418-1.77207 2.84648-3.06369 4.94448-3.47237v-3.13723h2zm-.5714 1.97835c-2.9981 0-5.4286 2.4305-5.4286 5.4286 0 12.4658 10.1056 22.5714 22.5714 22.5714 2.9981 0 5.4286-2.4305 5.4286-5.4286s-2.4305-5.4285-5.4286-5.4285c-6.4696 0-11.7143-5.2447-11.7143-11.7143 0-2.9981-2.4304-5.4286-5.4285-5.4286zm-.4286 5c-.5523 0-1 .4477-1 1s.4477 1 1 1 1-.4477 1-1-.4477-1-1-1zm-3 1c0-1.6569 1.3431-3 3-3s3 1.3431 3 3-1.3431 3-3 3-3-1.3431-3-3zm11 14c0-.5523.4477-1 1-1s1 .4477 1 1-.4477 1-1 1-1-.4477-1-1zm1-3c-1.6569 0-3 1.3431-3 3s1.3431 3 3 3 3-1.3431 3-3-1.3431-3-3-3zm-5-3c0 1.1046-.8954 2-2 2s-2-.8954-2-2 .8954-2 2-2 2 .8954 2 2zm13 10c1.1046 0 2-.8954 2-2s-.8954-2-2-2-2 .8954-2 2 .8954 2 2 2z" fill="#333" fill-rule="evenodd"/></svg>