<svg fill="none" height="48" viewBox="0 0 48 48" width="48" xmlns="http://www.w3.org/2000/svg"><path clip-rule="evenodd" d="m23.9999 7c-6.5424 0-11.8461 4.9249-11.8461 11h-2.1538c0-7.1797 6.268-13 13.9999-13s13.9999 5.8203 13.9999 13c0 4.5012-2.4645 8.4674-6.2038 10.7993-2.552 1.5915-4.5654 3.7082-4.5654 6.112v.0887c0 4.4183-3.8572 8-8.6153 8s-8.6153-3.5817-8.6153-8v-2h2.1538v2c0 3.3137 2.8929 6 6.4615 6s6.4615-2.6863 6.4615-6v-.0887c0-3.4574 2.8303-6.096 5.5184-7.7723 3.169-1.9763 5.2507-5.3321 5.2507-9.139 0-6.0751-5.3036-11-11.846-11zm-4.9111 10.0195c.3832-1.7049 1.9635-3.0195 3.9112-3.0195 2.2438 0 4 1.7447 4 3.8209h2c0-3.2489-2.721-5.8209-6-5.8209s-6 2.572-6 5.8209c0 1.6393.6387 2.9504 2.0188 3.7079.7492.4112 1.2505.7607 1.556 1.0412.0749.0687.1313.1271.1736.1751-.1847.0872-.4852.1864-.9363.2727l.3758 1.9644c.6723-.1286 1.2956-.32 1.7689-.6235.4938-.3166.966-.865.9019-1.6488-.0545-.6667-.489-1.2072-.9314-1.6133-.4725-.4338-1.1292-.8727-1.9461-1.3211-.3216-.1765-.5736-.4113-.7417-.7441.6927.0458 1.5466.152 2.3876.3821.9431.258 1.7972.6521 2.4031 1.223.5683.5355.9591 1.2613.9696 2.3271-.1293 1.3618-.4519 2.2411-.8202 2.8108-.3634.562-.8009.87-1.2548 1.0486-.4718.1857-.9926.2428-1.5167.2428-.2603 0-.5094-.0138-.7504-.0292l-.0917-.0059c-.2001-.0131-.4185-.0273-.6022-.0273-.9496 0-1.4306.7353-1.6527 1.1673-.1538.2991-.3056.7075-.4359 1.0582-.0552.1484-.1066.2865-.1526.4015-.1896.4742-.3736.8205-.595 1.0485-.1842.1898-.4141.3211-.8163.3211-.5317 0-.8076-.1198-.9478-.2157-.1379-.0943-.2243-.2197-.2816-.3766-.0612-.1673-.0819-.3541-.0819-.5153 0-.0771.0047-.1396.0089-.1791.002-.0195.0038-.0327.0047-.0385.0003-.002.0004-.0031.0004-.0031l-.0004.0031-.0007.0034-.0003.0018c-.0001.0005-.0004.0019-.9841-.1779s-.9838-.1793-.9839-.1787l-.0002.0011-.0004.0024-.001.0055-.0023.014c-.0018.0106-.0038.0236-.0061.0391-.0045.0308-.0098.0713-.0149.1201-.0102.097-.0197.2297-.0197.3868 0 .3072.0363.7448.2035 1.202.1709.4676.484.9667 1.031 1.3407.5445.3725 1.2389.5649 2.0768.5649.9675 0 1.7078-.3683 2.2512-.9278.5063-.5214.8073-1.1743 1.0172-1.6993.0959-.2399.1695-.4398.2334-.6137.0993-.27.1756-.4773.2767-.6742.0157-.0304.0296-.0558.0418-.0768.0829.004.1805.0103.2999.018l.0989.0064c.2486.0158.5505.0332.8777.0332.6508 0 1.4512-.0677 2.249-.3817.8158-.3209 1.5964-.8871 2.202-1.8239.5964-.9225.9904-2.153 1.1368-3.762.0027-.0301.0041-.0603.0041-.0906 0-1.6578-.6335-2.9177-1.5983-3.8267-.935-.881-2.1355-1.3925-3.2469-1.6965-1.1202-.3065-2.2247-.4223-3.0382-.4635-.0093-.0005-.0185-.0009-.0278-.0014zm1.1035 11.8997c0 .0005-.003.0043-.0091.01.006-.0076.0091-.0104.0091-.01z" fill="#333" fill-rule="evenodd"/></svg>