<svg fill="none" height="48" viewBox="0 0 48 48" width="48" xmlns="http://www.w3.org/2000/svg"><g clip-rule="evenodd" fill="#333" fill-rule="evenodd"><path d="m24 29.0479c2.7614 0 5-2.2386 5-5 0-.65-.124-1.271-.3497-1.8407-.2532.1952-.5706.3114-.9151.3114-.8284 0-1.5-.6716-1.5-1.5 0-.4564.2038-.8651.5253-1.1403-.791-.5248-1.7401-.8304-2.7605-.8304-2.7614 0-5 2.2385-5 5 0 2.7614 2.2386 5 5 5zm0-2c1.6569 0 3-1.3432 3-3 0-1.6569-1.3431-3-3-3s-3 1.3431-3 3c0 1.6568 1.3431 3 3 3z"/><path d="m44 24.0479s-11-12-19.9474-12c-8.9473 0-20.0526 12-20.0526 12s11.1053 12 20.0526 12c8.9474 0 19.9474-12 19.9474-12zm-36.74549-.427c-.15703.1496-.30504.2923-.4435.4269.13846.1347.28647.2774.4435.427 1.14558 1.0913 2.75949 2.5424 4.63699 3.9886 1.1075.853 2.2935 1.6942 3.5177 2.4552-1.5076-1.8826-2.4092-4.2714-2.4092-6.8707 0-2.5994.9016-4.9882 2.4092-6.8708-1.2242.7611-2.4102 1.6022-3.5177 2.4552-1.8775 1.4462-3.49141 2.8973-4.63699 3.9886zm28.90139 4.8465c-1.1437.887-2.3724 1.761-3.6413 2.5453 1.5533-1.8968 2.4854-4.322 2.4854-6.9648 0-2.6429-.9321-5.0681-2.4854-6.9649 1.2689.7843 2.4976 1.6583 3.6413 2.5453 1.864 1.4455 3.4644 2.896 4.6 3.9868.1579.1518.3067.2964.4456.4328-.1389.1363-.2877.2809-.4456.4327-1.1356 1.0908-2.736 2.5413-4.6 3.9868zm-12.1559 4.5805c4.9706 0 9-4.0295 9-9 0-4.9706-4.0294-9-9-9s-9 4.0294-9 9c0 4.9705 4.0294 9 9 9z"/></g></svg>