<svg fill="none" height="48" viewBox="0 0 48 48" width="48" xmlns="http://www.w3.org/2000/svg"><path d="m14.0267 19.5583.6626.749zm21.7664-.8752-.6625.749zm-17.3841-5.1613.5653.8249c.2291-.1571.3826-.4023.4237-.677s-.034-.5542-.2072-.7713zm-2.409-3.0211-.539-.84232c-.2386.15267-.4012.39942-.4475.67882-.0464.2795.028.5655.2046.787zm3.3726-2.15792.7818-.62344c-.3193-.40041-.8894-.4949-1.3208-.21889zm2.4089 3.02112-.7818.6234c.2884.3618.7873.4784 1.2062.2821zm2.7625-1.2948.4244.9055c.3512-.1646.5756-.5176.5756-.9055zm0-3.06906-.0001-1c-.5522.00001-.9999.44772-.9999 1zm4.304-.00004h1c0-.26522-.1054-.51957-.2929-.70711-.1876-.18754-.4419-.29289-.7071-.29289zm0 3.0691h-1c0 .3655.1994.7018.52.8773zm-15.848 9.9603-.8623.5063c.1392.2372.37.4065.638.4682s.5495.0103.7785-.1421zm-4-2.6668-.98253-.1861c-.05028.2655.00898.54.1643.761.15533.2211.39349.3699.66027.4126zm.89552-4.7275.28228-.9593c-.27089-.0797-.56289-.0412-.80385.1061-.24095.1473-.40839.3896-.46095.6671zm7.10448 5.3972.3709.9286c.4243-.1694.6797-.6048.6207-1.0578zm14.5843-.795.4201.9075zm-8.4286 2.1673-.8966-.4429-.5276 1.0681 1.1434.3345zm6.0969-6.2198-.4201-.9075zm9.4175-1.3891.9993.0368.0369-1.0016-1.0017-.0346zm-.1749 4.7517-.0345.9994.9971.0344.0367-.997zm-10.2926 3.7865-.8464-.5325zm-1.3399.4439-.3916.9201zm-13.4986-1.9685c-2.0048 1.7734-2.756 4.1959-2.6711 6.7174.0841 2.5016.9862 5.1477 2.3395 7.5419 1.3561 2.3991 3.2 4.6074 5.2427 6.2264 2.0286 1.6078 4.3456 2.705 6.6347 2.705v-2c-1.6685 0-3.5563-.8172-5.3924-2.2724-1.8221-1.4442-3.5029-3.4477-4.7439-5.6432-1.2438-2.2005-2.0113-4.532-2.0818-6.625-.0697-2.0732.5395-3.8624 1.9975-5.1521zm11.5458 23.1907c2.2833 0 4.6597-1.0915 6.764-2.7074 2.1203-1.6281 4.0619-3.8613 5.4851-6.3193 2.7966-4.8298 3.8174-11.0405-.7033-15.0392l-1.3251 1.498c3.4099 3.0162 2.9466 7.9641.2976 12.539-1.2995 2.2444-3.0709 4.2751-4.9724 5.7353-1.9175 1.4724-3.8716 2.2936-5.5459 2.2936zm11.5458-24.0659c-.574-.5077-1.0213-.7716-1.51-1.0186-.4714-.2383-.9079-.4285-1.6128-.8441l-1.0159 1.7227c.7793.4596 1.3322.707 1.7264.9063.377.1905.6717.3642 1.0872.7317zm-12.6445.6154c-1.4898-.4877-3.422-.964-5.2829-1.0706-1.8141-.104-3.8055.1285-5.1642 1.3304l1.3252 1.498c.7451-.6591 2.0487-.9278 3.7245-.8317 1.6289.0934 3.3816.5184 4.775.9746zm-4.6204-5.6511-2.4089-3.02114-1.5638 1.24694 2.409 3.0211zm-2.6518-1.5554 3.3725-2.15789-1.0779-1.68466-3.3726 2.15793zm2.0517-2.37677 2.409 3.02107 1.5637-1.2469-2.409-3.02106zm3.6152 3.30317 2.7625-1.2948-.8488-1.81095-2.7625 1.29475zm3.3381-2.2003v-3.06906h-2v3.06906zm-1-2.06906 4.304-.00004v-2l-4.3041.00004zm3.304-1.00004v3.0691h2v-3.0691zm1 3.0691c-.48.8773-.4802.8772-.4804.877-.0001 0-.0003-.0001-.0004-.0002-.0002-.0001-.0005-.0002-.0007-.0003-.0004-.0003-.0008-.0005-.001-.0006-.0006-.0004-.0009-.0005-.0009-.0005-.0001-.0001.001.0005.003.0017.0042.0024.0126.0072.0247.0144.0244.0144.064.0383.1162.0718.1046.0672.2585.1718.4406.3133.367.2851.8345.7088 1.2487 1.2654l1.6044-1.1941c-.5494-.7382-1.1579-1.287-1.6261-1.65068-.2353-.18284-.4388-.32173-.5872-.41695-.0742-.04768-.135-.08461-.1794-.11083-.0222-.01311-.0403-.02356-.054-.03134-.0069-.0039-.0126-.00713-.0172-.00969-.0023-.00129-.0043-.00241-.0061-.00336-.0008-.00047-.0016-.00091-.0023-.0013-.0004-.0002-.0007-.00038-.001-.00056-.0002-.00009-.0004-.00021-.0005-.00026-.0002-.00012-.0005-.00024-.4804.87707zm-11.3852 6.5897c.2225-.7929.615-1.3828.9524-1.7746.1684-.1954.3204-.3384.4252-.4289.0523-.0452.0923-.0768.1161-.095.0119-.0091.0197-.0148.0228-.0171.0016-.0011.002-.0014.0012-.0008-.0004.0003-.0011.0008-.0022.0015-.0005.0003-.0011.0008-.0017.0012-.0004.0002-.0007.0005-.0011.0008-.0002.0001-.0005.0003-.0006.0003-.0003.0003-.0006.0005-.5659-.8244-.5654-.8249-.5657-.8246-.566-.8244-.0001.0001-.0004.0003-.0007.0004-.0004.0004-.0009.0007-.0014.001-.001.0007-.0021.0015-.0033.0023-.0023.0016-.005.0035-.008.0056-.006.0043-.0134.0095-.022.0157-.0171.0124-.0392.0287-.0658.049-.0531.0406-.1242.0973-.2085.1701-.1685.1455-.3922.3574-.6334.6375-.4817.5592-1.0437 1.4028-1.3627 2.5395zm-4.4628 3.3706c.8623-.5063.8621-.5066.8619-.507 0-.0001-.0003-.0005-.0004-.0007-.0003-.0006-.0007-.0011-.001-.0017-.0007-.0012-.0015-.0025-.0024-.004-.0017-.0029-.0038-.0064-.0062-.0104-.0048-.008-.011-.0181-.0186-.0303-.0151-.0242-.0357-.0566-.0618-.0959-.0522-.0786-.1266-.1856-.2236-.3127-.1934-.2536-.4799-.5916-.8622-.9444-.7623-.7035-1.9355-1.4924-3.52774-1.7471l-.31592 1.9749c1.09431.175 1.92106.7195 2.48716 1.242.282.2601.4917.5082.6285.6876.0682.0893.1173.1604.1475.2058.015.0227.0253.0389.0307.0476.0027.0043.0042.0068.0045.0073.0002.0002 0 0-.0005-.0008-.0002-.0004-.0005-.0009-.0009-.0015-.0002-.0003-.0004-.0007-.0006-.0011-.0001-.0002-.0003-.0005-.0004-.0006-.0002-.0003-.0003-.0007.862-.507zm-3.01747-2.4807.89557-4.7275-1.9651-.3722-.89553 4.7275zm-.08701-4.9136c-.28231.9593-.2825.9593-.28266.9592-.00002 0-.00016 0-.0002 0h.00004c.00023.0001.00085.0002.00186.0006.00203.0006.00562.0016.01072.0032.0102.0031.02643.008.04831.0148.04378.0136.11008.0346.19581.0629.1716.0565.4202.1419.7212.2551.6044.2273 1.4077.5623 2.2178.9954.8162.4363 1.6014.9522 2.196 1.5296.5989.5816.9321 1.1539 1.004 1.7055l1.9832-.2583c-.152-1.1675-.8188-2.1294-1.5939-2.882-.7795-.757-1.7425-1.3754-2.6464-1.8586-.9101-.4865-1.7989-.8561-2.4566-1.1035-.3301-.1242-.605-.2187-.7992-.2827-.0972-.0321-.1744-.0565-.2283-.0733-.027-.0084-.0482-.0148-.0632-.0194-.0075-.0022-.0135-.004-.0179-.0053-.0022-.0007-.0039-.0012-.0053-.0016-.0007-.0002-.0013-.0004-.0018-.0006-.0002 0-.0005-.0001-.0007-.0001-.0002-.0001-.0005-.0002-.28278.9591zm6.73358 4.4685c-1.2922.5161-2.3281 1.0331-3.0449 1.4235-.3586.1954-.638.3593-.8302.4762-.0961.0584-.1705.1051-.2222.138-.0258.0165-.046.0295-.0603.0389-.0072.0047-.013.0084-.0172.0112-.0022.0015-.0039.0026-.0053.0036-.0008.0004-.0014.0008-.0019.0012-.0002.0001-.0005.0003-.0007.0004-.0001.0001-.0002.0002-.0003.0002-.0001.0001-.0003.0002.5539.8326s.554.8325.5539.8326c0 0-.0001.0001-.0002.0001-.0001.0001-.0002.0002-.0003.0002-.0001.0001-.0002.0002-.0002.0002.0001-.0001.0005-.0004.0013-.0009.0015-.001.0045-.003.0089-.0058.0089-.0058.0234-.0152.0434-.028.0402-.0255.1025-.0647.186-.1155.1672-.1016.4191-.2497.748-.4288.6582-.3585 1.6223-.8401 2.8301-1.3226zm12.42 3.7628c.9139-1.4527 1.8808-2.2242 2.9553-2.7216l-.8401-1.815c-1.4409.667-2.6977 1.7066-3.8081 3.4716zm-6.1742-.5021c1.2407.363 2.6876.9469 3.5962 1.3336l.7832-1.8402c-.9239-.3933-2.4595-1.0155-3.8178-1.4129zm5.9576-8.087c-2.9263 1.3545-4.9123 3.3214-6.5734 6.6844l1.7932.8857c1.4819-3 3.1533-4.6132 5.6204-5.7551zm9.8721-1.481c-3.7527-.1295-7.0516.1755-9.8721 1.481l.8402 1.815c2.3968-1.1094 5.3219-1.4228 8.9629-1.2972zm.7899 5.7879.1749-4.7517-1.9986-.0736-.1749 4.7517zm-7.4901 1.5606c1.2975-.6005 3.0136-.7168 6.4563-.598l.069-1.9988c-3.3797-.1166-5.5715-.0485-7.3654.7818zm-4.6482 1.6566c-.017.0271-.0424.0456-.067.0539-.0225.0076-.0323.0035-.0349.0024l-.7832 1.8402c.9747.4149 2.0537.0017 2.578-.8315z" fill="#333"/><path d="m28 20.5-2.3285 5.0376m.754 9.8098-.28-4.1032m0 0-.4125-.9534c-.5454-1.2604-.6419-2.6698-.2733-3.9927l.2118-.7605m.474 5.7066 4.256-.494m-4.73-5.2126-4.3524 1.9684m0 0-4.3367-1.0218m4.3367 1.0218-1.4789 3.7382" stroke="#333" stroke-width="2"/></svg>