<svg fill="none" height="48" viewBox="0 0 48 48" width="48" xmlns="http://www.w3.org/2000/svg"><g fill="#333"><path clip-rule="evenodd" d="m12.548 30.7535c-10.86423-4.5823-6.57663-20.0491.965-22.60461 3.1286-1.06012 6.5808 2.45691 6.5587 4.64061-.0096.9442-.4968 1.8648-1.0044 2.824-.6664 1.2592-1.368 2.5849-1.0701 4.1176.5249 2.7001 1.1128 7.2559-.402 9.4185-1.5149 2.1626-3.0383 2.4512-5.0472 1.6039zm.7772-1.8428c.7827.3301 1.1672.3084 1.3781.2477.2165-.0624.6391-.2787 1.2538-1.1562.3727-.5322.6265-1.6551.6041-3.3337-.0209-1.5761-.275-3.2581-.5272-4.5558-.4044-2.0803.4261-3.8181 1.0187-4.9644.102-.1975.1952-.3734.281-.5356.1979-.3738.357-.6744.4976-.9967.1874-.4295.2388-.684.2405-.8467.0005-.0519-.0346-.3164-.2939-.7518-.2436-.4088-.6134-.8443-1.0675-1.2143-.9632-.7849-1.8953-.98383-2.5555-.7601-2.81.9522-5.45174 4.6188-6.04536 8.9214-.56952 4.1279.84112 8.1011 5.21566 9.9462z" fill-rule="evenodd"/><path clip-rule="evenodd" d="m34.3473 8.14889c7.5417 2.55551 11.8293 18.02231.9651 22.60461-2.009.8473-3.5324.5587-5.0472-1.6039s-.9269-6.7184-.4021-9.4185c.2979-1.5327-.4036-2.8584-1.0701-4.1176-.5076-.9592-.9948-1.8798-1.0043-2.824-.0221-2.1837 3.4301-5.70073 6.5586-4.64061zm-1.1903 21.00951c.211.0607.5955.0824 1.3781-.2477 4.3746-1.8451 5.7852-5.8183 5.2157-9.9462-.5936-4.3026-3.2353-7.9692-6.0453-8.9214-.6603-.22373-1.5924-.0248-2.5556.7601-.4541.37-.8239.8055-1.0674 1.2143-.2593.4354-.2945.6999-.2939.7518.0016.1627.0531.4172.2405.8467.1406.3223.2997.6229.4975.9967.0859.1622.179.3381.2811.5356.5925 1.1463 1.423 2.8841 1.0187 4.9644-.2523 1.2977-.5063 2.9797-.5273 4.5558-.0223 1.6786.2315 2.8015.6042 3.3337.6147.8775 1.0373 1.0938 1.2537 1.1562z" fill-rule="evenodd"/><path d="m28.6181 22.7799c.0686.9976.0692.9976.0698.9975l.0012-.0001.0022-.0001.0039-.0003.0055-.0005.0029-.0003c-.0017.0002-.0102.0012-.0245.0035-.0287.0046-.079.0142-.1434.0325-.1311.0371-.3039.1052-.4731.2257-.2897.2063-.7157.6645-.7157 1.8207v14.4661c0 .0001 0 .0002-1 .0002s-1-.0005-1-.0006v-14.4657c0-1.7663.7096-2.8474 1.5555-3.4498.3986-.2838.7936-.4375 1.0883-.5209.1486-.0421.2758-.0675.3712-.0829.0478-.0077.0882-.0129.1197-.0164.0158-.0018.0295-.0031.0408-.0041l.0153-.0013.0064-.0005.0028-.0002.0013-.0001c.0007 0 .0013-.0001.0699.9976z"/><path d="m19.2423 22.7799c-.0686.9976-.0693.9976-.0699.9975l-.0011-.0001-.0023-.0001-.0038-.0003-.0056-.0005c-.0019-.0002-.0029-.0003-.0031-.0003.0017.0002.0105.0012.0247.0035.0288.0046.0791.0142.1434.0325.1311.0371.3039.1052.4732.2257.2897.2063.7157.6645.7157 1.8207v14.4661c0 .0001 0 .0002 1 .0002s1-.0005 1-.0006v-14.4657c0-1.7663-.7097-2.8474-1.5556-3.4498-.3985-.2838-.7935-.4375-1.0883-.5209-.1485-.0421-.2757-.0675-.3711-.0829-.0479-.0077-.0882-.0129-.1198-.0164-.0158-.0018-.0294-.0031-.0408-.0041l-.0153-.0013-.0063-.0005-.0028-.0002-.0014-.0001c-.0006 0-.0013-.0001-.0698.9976z"/></g></svg>