<svg fill="none" height="48" viewBox="0 0 48 48" width="48" xmlns="http://www.w3.org/2000/svg"><g stroke="#333" stroke-width="2"><path d="m16.5247 13c1.2088 0 2.0095.3991 2.584.9905.6034.6211 1.0255 1.5273 1.3023 2.6313.4792 1.9117.4573 4.1037.441 5.7432-.0028.2773-.0054.5389-.0054.7806 0 .7402.0327 1.6204.0675 2.5587.014.377.0284.7635.0411 1.154.045 1.3822.0715 2.8541.0032 4.2878-.0685 1.4375-.231 2.8026-.5508 3.9766-.3215 1.1803-.7824 2.0946-1.3959 2.7064-1.4373 1.4335-3.6438 2.5454-5.8705 2.9772-2.2491.4362-4.28632.1406-5.5567-.9152-.02529-.021-.1114-.1123-.21127-.3617-.09691-.2421-.18426-.5769-.24982-1.0117-.13119-.87-.15886-2.0274-.07788-3.3961.16153-2.7306.74634-6.1612 1.66289-9.5237.9183-3.3688 2.15238-6.6056 3.58338-8.9761.7159-1.1859 1.456-2.1129 2.1946-2.7336.7354-.618 1.4135-.8882 2.0383-.8882z"/><path d="m31.4753 12.9998c-1.2088 0-2.0095.399-2.584.9904-.6034.6212-1.0255 1.5273-1.3023 2.6313-.4792 1.9118-.4573 4.1037-.441 5.7432.0028.2774.0054.539.0054.7807 0 .7402-.0327 1.6203-.0675 2.5586-.014.3771-.0284.7635-.0411 1.1541-.045 1.3822-.0715 2.8541-.0032 4.2878.0685 1.4374.231 2.8025.5508 3.9765.3215 1.1803.7824 2.0947 1.3959 2.7065 1.4373 1.4334 3.6438 2.5454 5.8705 2.9772 2.2491.4361 4.2863.1405 5.5567-.9152.0253-.021.1114-.1123.2113-.3618.0969-.2421.1842-.5769.2498-1.0117.1312-.87.1588-2.0273.0779-3.3961-.1616-2.7306-.7464-6.1612-1.6629-9.5236-.9183-3.3688-2.1524-6.6056-3.5834-8.9762-.7159-1.1859-1.456-2.1128-2.1946-2.7335-.7354-.6181-1.4135-.8882-2.0383-.8882z"/><path d="m24 6v14.5c0 3.5-3 3.5-3 3.5"/><path d="m24 6v14.5c0 3.5 3 3.5 3 3.5"/></g></svg>