<svg fill="none" height="48" viewBox="0 0 48 48" width="48" xmlns="http://www.w3.org/2000/svg"><g fill="#333"><path clip-rule="evenodd" d="m29.5844 22.8731c1.1594 0 2.2919-.3152 3.2494-.9044.9722.5881 2.1196.8964 3.2904.8842l3.7191-1.2198c1.048-.7787 1.7674-1.8582 2.038-3.0577.2705-1.1996.0756-2.4465-.552-3.5321s-1.6499-1.944-2.8957-2.4315c-.2845-1.1613-1.001-2.2001-2.0307-2.94391l-3.6304-1.14509h-.4087c-.8075-1.06192-2.0198-1.81939-3.4064-2.12842l-7.7833-.39438c-1.2938.09689-2.5138.58325-3.4636 1.38081-.4488-.09537-.9082-.1448-1.3693-.14735-1.1165.00207-2.2085.29535-3.1441.84444s-1.6749 1.33053-2.1286 2.25l-2.95735 1.8881c-.73587.8986-1.13202 1.9866-1.13007 3.1034-.00728.4671.06158.9325.20437 1.3815-.77588.9074-1.19309 2.0225-1.18534 3.1681-.00185 1.3286.56131 2.6074 1.57364 3.5733.0817.9512.45049 1.8642 1.06647 2.6401s1.45568 1.3853 2.42828 1.762c1.1206.6332 2.0695 1.4848 2.7768 2.492.7074 1.0073 1.1552 2.1447 1.3106 3.3285h7.6356v-5.5258c-.0014-.9811.3023-1.9429.8767-2.7764.5743-.8334 1.3963-1.5051 2.3728-1.9389.5491-.1893.6842-.4442.8497-.7565.1103-.2081.2342-.4418.503-.6986.2336.1437.4146.2712.5715.3817.4866.3425.7425.5227 1.6192.5227zm4.4476-2.5282c.5332.2884 1.148.4621 1.7905.4962l3.0553-1.0021c.5579-.4855.9122-1.0875 1.0524-1.7094.1575-.6982.0489-1.4317-.3324-2.0912-.3849-.6658-1.0391-1.2358-1.893-1.5699l-.9668-.3783-.247-1.0084c-.1447-.5907-.4919-1.1614-1.0318-1.6203l-2.9946-.9446h-1.0925l-.6003-.78939c-.4758-.62569-1.2097-1.11927-2.1004-1.35091l-7.4614-.37806c-.8517.08592-1.626.41483-2.2134.90808l-.7473.62748-.9545-.20281c-.3127-.06645-.6339-.10137-.9572-.10366-.7701.0027-1.5096.20628-2.1282.56932-.6194.36345-1.0768.86165-1.3474 1.41005l-.2469.5005-3.12557 1.9955c-.34149.5006-.50941 1.0572-.50845 1.6071l.00003.0173-.00027.0174c-.00388.2489.03268.4992.11054.7441l.3372 1.0602-.72303.8457c-.47754.5585-.70983 1.2121-.70549 1.8548l.00005.0081-.00001.0082c-.00104.7492.31462 1.5132.95427 2.1235l.54732.5222.06473.7537c.04675.5443.25886 1.0874.64018 1.5677.3831.4826.9251.8852 1.5844 1.1406l.1351.0524.1263.0713c.1462.0826.2902.1684.4319.2573l-.0062.0046c2.7187 1.6587 3.8723 4.0727 4.2639 5.3071h.612v-7.2936l-2.2033-1.9585-1.4955 1.4956c-.3905.3905-1.0237.3905-1.4142 0s-.3905-1.0237 0-1.4142l1.7918-1.7919-.5376-2.9569-2.4359-1.2179c-.494-.247-.6942-.8477-.4472-1.3417.247-.4939.8477-.6942 1.3417-.4472l2.3768 1.1885 2.9114-1.8527-.9055-2.4149c-.194-.5171.0681-1.0935.5852-1.2875.5171-.1939 1.0935.0681 1.2874.5852l.9731 2.5949h1.0765l.5142-1.0285-.8153-1.9025c-.2176-.5076.0176-1.0955.5252-1.31306.5076-.21755 1.0955.0176 1.3131.52523l.7021 1.63823 2.788.5069.0115-.0093 1.8019-1.4416c.4313-.345 1.0606-.2751 1.4056.1562.345.4312.2751 1.0605-.1562 1.4055l-1.2045.9637 1.3351 1.7166.5127-1.0252c.1693-.3388.5156-.5528.8944-.5528h2.1623c.5523 0 1 .4477 1 1s-.4477 1-1 1h-1.5443l-.2681.5362 1.669.3709c.0798.0178.1571.0452.2303.0818l1.4415.7208c.494.2469.6942.8476.4473 1.3416-.247.494-.8477.6942-1.3417.4472l-1.3314-.6657-3.1234-.6941c-.2271-.0505-.4296-.1786-.5724-.3622l-2.2882-2.942-2.7733-.5042c-.0402.0331-.0834.0633-.1293.0903l-.5881 1.176v.5657h1.1624c.1552 0 .3083.0362.4472.1056l2.8831 1.4416c.494.247.6942.8476.4472 1.3416s-.8477.6942-1.3416.4472l-2.672-1.336h-.9263v1.523c0 .5522-.4477 1-1 1s-1-.4478-1-1v-2.5153-.0077-.0076-.7941h-1.2315l-3.1514 2.0054.5388 2.9634 2.9858 2.6539c.2134.1898.3356.4618.3356.7474v7.7427h1.4376v-3.566c0-2.7018 1.5092-4.3601 2.3335-5.1452.6593-.6281 1.6497-1.1576 2.0625-1.3438.082-.1836.3617-.6601.8242-1.0976s.9427-.8932 1.125-1.0664c1.2379.7075 2.1992 1.4179 2.1992 1.4179s1.2812-.0703 1.8633-.3046c.4656-.1875 1.2773-.7084 1.625-.9454z" fill-rule="evenodd"/><path d="m15 38h8v-2h-8z"/><path d="m23 42h-8v-2h8z"/></g></svg>