<svg fill="none" height="48" viewBox="0 0 48 48" width="48" xmlns="http://www.w3.org/2000/svg"><g clip-rule="evenodd" fill="#333" fill-rule="evenodd"><path d="m14.75 7.22898c0-1.27364 1.166-2.20506 2.3933-1.97021 5.1979.99459 8.5152 1.00625 13.7091.00346 1.228-.23708 2.3976.69391 2.3976 1.96991v.41394h.75c1.1046 0 2 .89543 2 2v1.52792c0 1.1046-.8954 2-2 2h-.75v.8784c0 .9045-.6104 1.7054-1.4978 1.9311-2.8541.7261-5.2245 1.1008-7.6501 1.0999-2.4237-.0008-4.8564-.3766-7.8342-1.1032-.8963-.2187-1.5179-1.0236-1.5179-1.9367v-.8695h-.75c-1.1046 0-2-.8954-2-2v-1.52792c0-1.10457.8954-2 2-2h.75zm2 0v.4171c0 1.10457-.8954 2-2 2h-.75v1.52792h.75c1.1046 0 2 .8955 2 2v.8652c2.8856.7036 5.147 1.0435 7.3528 1.0442 2.2033.0008 4.3973-.3367 7.1472-1.0358v-.8736c0-1.1045.8954-2 2-2h.75v-1.52792h-.75c-1.1046 0-2-.89543-2-2v-.41394c0-.00011 0 .0001 0 0-.0005-.00052-.0012-.0015-.0021-.00225-.003-.00243-.006-.00372-.0078-.00422l-.0024-.00034c-.0007-.00003-.0026-.00004-.0062.00064-5.4477 1.05181-9.0213 1.0386-14.464-.00284-.0035-.00066-.0053-.00064-.006-.00061l-.0021.00031c-.0017.00045-.0046.00168-.0074.00404-.0009.0007-.0015.00162-.002.00211z"/><path d="m19 9.00011c.5523 0 1 .44772 1 .99999v2c0 .5523-.4477 1-1 1s-1-.4477-1-1v-2c0-.55227.4477-.99999 1-.99999z"/><path d="m14.75 20.229c0-1.2737 1.166-2.2051 2.3933-1.9702 5.1979.9946 8.5152 1.0062 13.7091.0034 1.228-.2371 2.3976.6939 2.3976 1.9699v.414h.75c1.1046 0 2 .8954 2 2v1.5279c0 1.1046-.8954 2-2 2h-.75v.8784c0 .9045-.6104 1.7054-1.4978 1.9311-2.8541.7261-5.2245 1.1008-7.6501 1.0999-2.4237-.0008-4.8564-.3766-7.8342-1.1032-.8963-.2187-1.5179-1.0236-1.5179-1.9367v-.8695h-.75c-1.1046 0-2-.8954-2-2v-1.5279c0-1.1046.8954-2 2-2h.75zm2 0v.4171c0 1.1046-.8954 2-2 2h-.75v1.5279h.75c1.1046 0 2 .8955 2 2v.8652c2.8856.7036 5.147 1.0435 7.3528 1.0442 2.2033.0008 4.3973-.3367 7.1472-1.0358v-.8736c0-1.1045.8954-2 2-2h.75v-1.5279h-.75c-1.1046 0-2-.8954-2-2v-.414c0-.0001 0 .0001 0 0-.0005-.0005-.0012-.0015-.0021-.0022-.003-.0024-.006-.0037-.0078-.0042l-.0024-.0004c-.0007 0-.0026 0-.0062.0007-5.4477 1.0518-9.0213 1.0386-14.464-.0029-.0035-.0006-.0053-.0006-.006-.0006l-.0021.0003c-.0017.0005-.0046.0017-.0074.0041-.0009.0007-.0015.0016-.002.0021z"/><path d="m19 22.0001c.5523 0 1 .4477 1 1v2c0 .5523-.4477 1-1 1s-1-.4477-1-1v-2c0-.5523.4477-1 1-1z"/><path d="m14.75 33.229c0-1.2737 1.166-2.2051 2.3933-1.9702 5.1979.9946 8.5152 1.0062 13.7091.0034 1.228-.2371 2.3976.6939 2.3976 1.9699v.414h.75c1.1046 0 2 .8954 2 2v1.5279c0 1.1046-.8954 2-2 2h-.75v.8784c0 .9045-.6104 1.7054-1.4978 1.9311-2.8541.7261-5.2245 1.1008-7.6501 1.0999-2.4237-.0008-4.8564-.3766-7.8342-1.1032-.8963-.2187-1.5179-1.0236-1.5179-1.9367v-.8695h-.75c-1.1046 0-2-.8954-2-2v-1.5279c0-1.1046.8954-2 2-2h.75zm2 0v.4171c0 1.1046-.8954 2-2 2h-.75v1.5279h.75c1.1046 0 2 .8955 2 2v.8652c2.8856.7036 5.147 1.0435 7.3528 1.0442 2.2033.0008 4.3973-.3367 7.1472-1.0358v-.8736c0-1.1045.8954-2 2-2h.75v-1.5279h-.75c-1.1046 0-2-.8954-2-2v-.414c0-.0001 0 .0001 0 0-.0005-.0005-.0012-.0015-.0021-.0022-.003-.0024-.006-.0037-.0078-.0042l-.0024-.0004c-.0007 0-.0026 0-.0062.0007-5.4477 1.0518-9.0213 1.0386-14.464-.0029-.0035-.0006-.0053-.0006-.006-.0006l-.0021.0003c-.0017.0005-.0046.0017-.0074.0041-.0009.0007-.0015.0016-.002.0021z"/><path d="m19 35.0001c.5523 0 1 .4477 1 1v2c0 .5523-.4477 1-1 1s-1-.4477-1-1v-2c0-.5523.4477-1 1-1z"/></g></svg>