<svg fill="none" height="48" viewBox="0 0 48 48" width="48" xmlns="http://www.w3.org/2000/svg"><path clip-rule="evenodd" d="m16.7155 15.1219c1.1799 1.2862 3.1733 1.8379 6.8265 1.9161.2083-2.759 1.271-4.9324 2.8437-6.458 1.7482-1.69565 4.0666-2.53215 6.3666-2.53215 2.2999 0 4.6183.8365 6.3665 2.53215 1.76 1.7071 2.8812 4.2255 2.8812 7.4679v11c0 3.0822-.5133 6.3012-2.0665 8.7808-1.5984 2.5517-4.2384 4.2192-8.1903 4.2192-4.041 0-6.8547-2.3982-9.4274-4.6179l-.112-.0966c-2.5907-2.2359-5.0046-4.3191-8.4369-4.7853-1.6831.0127-2.8161.527-3.6071 1.2311-.82037.7302-1.34943 1.7338-1.6797 2.8116-.32963 1.0758-.44367 2.1693-.47219 3.0067-.01415.4156-.00701.7604.00341.9984.0052.1189.0112.2106.01569.2706.00225.03.00412.052.00532.0655l.00126.0138.00011.0011c-.00003-.0003-.00007-.0007-.99489.101-.99483.1016-.99487.1011-.99492.1007l-.00011-.0012-.00029-.0028-.00081-.0084-.00248-.027c-.002-.0224-.00463-.0538-.0076-.0933-.00593-.0792-.0132-.1916-.01937-.3325-.01232-.2815-.02033-.6789-.00416-1.154.03214-.9438.16068-2.2253.55879-3.5245.39748-1.2972 1.08132-2.6686 2.26224-3.7197 1.2002-1.0682 2.8382-1.7373 5.0009-1.7373.503 0 .9769.0114 1.4322.0223.846.0204 1.6278.0392 2.4123-.0196 1.1546-.0865 2.1069-.3381 2.8938-.9279 1.5062-1.1289 2.8118-3.8242 2.927-10.5847-3.719-.0771-6.4804-.63-8.2546-2.5642-.9636-1.0504-1.5585-2.4251-1.9173-4.1258-.3575-1.6944-.4934-3.77516-.4934-6.30015h2c0 2.47501.1353 4.39425.4503 5.88735.3137 1.4868.7925 2.4871 1.4342 3.1867zm6.6551 20.5764c-1.3083-1.1306-2.7075-2.3398-4.3262-3.3119.9439-.1835 1.8753-.5269 2.7244-1.1634 1.3004-.9746 2.2804-2.5335 2.9097-4.9277 1.6466-1.111 3.0002-1.3456 4.1888-1.2148 1.2713.1398 2.447.7023 3.7431 1.3593l.2157.1096c1.177.5988 2.5049 1.2743 3.9161 1.452 1.0718.135 2.1528-.0154 3.2578-.5692v1.6157c0 2.9177-.4958 5.6987-1.7614 7.7191-1.2204 1.9483-3.2088 3.2809-6.4954 3.2809-3.1976 0-5.4781-1.8519-8.1209-4.1322zm16.6294-10.6239v-7.0265c0-2.7577-.9407-4.7393-2.2737-6.0322-1.3446-1.3043-3.1501-1.9678-4.974-1.9678s-3.6294.6635-4.9741 1.9678c-1.3329 1.2929-2.2736 3.2745-2.2736 6.0322 0 2.1943-.112 4.0761-.331 5.686 1.3826-.6143 2.6788-.7771 3.9123-.6415 1.6818.185 3.1624.9215 4.4288 1.5635l.0903.0458c1.291.6547 2.3318 1.1825 3.3872 1.3154.8903.1122 1.854-.0557 3.0078-.9427z" fill="#333" fill-rule="evenodd"/></svg>