<svg fill="none" height="48" viewBox="0 0 48 48" width="48" xmlns="http://www.w3.org/2000/svg"><path clip-rule="evenodd" d="m23.5592 11.1258c.1993-.1566 8.5212-6.63065 14.0216-.2531 3.0196 3.5012 2.7636 7.1336 1.6431 10.6908l-3.9423 11.293c-1.1527 3.9265-1.9746 5.1386-3.9942 6.8445-1.1988 1.0125-2.5508-.7364-3.9736-2.5771-1.2326-1.5946-2.5184-3.2581-3.804-3.2542-1.3068.004-2.6133 1.6701-3.8633 3.2641-1.4417 1.8386-2.8082 3.5812-4.0134 2.5672-2.4335-2.0478-3.5007-4.8773-4.6162-9.4181-.2147-.8742-.5414-1.9227-.9016-3.079-1.51085-4.8495-3.61252-11.5956-.52996-15.3382 3.80656-4.62151 8.53466-5.36549 13.92346-.777zm-2.6591.4746c-1.8644-1.2811-3.4492-1.68857-4.7693-1.5847-1.622.1275-3.3067 1.0637-5.0017 3.1216-1.27471 1.5476-1.40445 4.1621-.7172 7.5778.3273 1.6267.8048 3.2741 1.2857 4.8388.1037.3376.2091.6759.3136 1.0111.3643 1.1691.7171 2.3011.948 3.2408 1.0212 4.1571 1.9095 6.3913 3.5208 7.9654.3326-.3093.7533-.8062 1.3099-1.5115.0867-.11.1767-.2249.2694-.3433.5702-.7279 1.2455-1.5902 1.9344-2.2795.7318-.7322 1.9415-1.7624 3.5101-1.7672 1.5758-.0048 2.7823 1.0421 3.4992 1.7692.6789.6887 1.3448 1.5512 1.9068 2.2791.0919.119.181.2344.2669.3449.5452.7009.9582 1.1957 1.2848 1.5052.6478-.5857 1.0679-1.0747 1.4314-1.6828.4693-.785.9064-1.8735 1.4697-3.7922.0094-.0322.0197-.0641.0308-.0958l3.9319-11.2633c.5141-1.6397.7752-3.137.6389-4.5441-.1327-1.3706-.6526-2.767-1.898-4.211-2.0645-2.39383-4.6009-2.43004-6.9938-1.6885-1.2051.3734-2.2867.9296-3.0788 1.4052-.2972.1784-.5477.3419-.7421.4745l3.841 2.8242c.4449.3272.5404.9531.2132 1.398-.3271.445-.9531.5405-1.398.2133l-5.4248-3.9888c-.0751-.0478-.1477-.101-.2172-.1597l-1.1581-.8515c-.0809-.0595-.1502-.1288-.2075-.2052zm-4.7708 26.4445.0039-.0019c-.0027.0013-.004.0019-.0039.0019z" fill="#333" fill-rule="evenodd"/></svg>