<svg fill="none" height="48" viewBox="0 0 48 48" width="48" xmlns="http://www.w3.org/2000/svg"><path clip-rule="evenodd" d="m23.9999 12.5191-2.6761 5.4224c-.437.8855-1.2817 1.4992-2.2588 1.6411l-5.984.8696 4.33 4.2208c.7071.6892 1.0298 1.6822.8628 2.6554l-1.0222 5.9598 5.3523-2.8138c.874-.4595 1.9181-.4595 2.7921 0l5.3522 2.8138-1.0221-5.9598c-.167-.9732.1557-1.9662.8627-2.6554l4.3301-4.2208-5.984-.8696c-.9771-.1419-1.8218-.7556-2.2588-1.6411zm.8968-2.70214c-.3668-.74325-1.4267-.74325-1.7935-.00001l-3.5729 7.23945c-.1456.2951-.4272.4997-.7529.547l-7.9892 1.1609c-.82022.1192-1.14773 1.1272-.5542 1.7057l5.781 5.6351c.2357.2298.3433.5608.2876.8852l-1.3647 7.9569c-.1401.8169.7173 1.4399 1.451 1.0542l7.1457-3.7568c.2913-.1531.6394-.1531.9307 0l7.1457 3.7568c.7337.3856 1.5911-.2373 1.451-1.0542l-1.3647-7.9569c-.0557-.3244.0519-.6554.2876-.8852l5.781-5.6351c.5935-.5785.266-1.5865-.5542-1.7057l-7.9892-1.1609c-.3257-.0473-.6073-.2519-.7529-.547z" fill="#333" fill-rule="evenodd"/></svg>