<svg fill="none" height="48" viewBox="0 0 48 48" width="48" xmlns="http://www.w3.org/2000/svg"><path clip-rule="evenodd" d="m23.9999 16.5191-1.5006 3.0405c-.4369.8854-1.2816 1.4991-2.2588 1.6411l-3.3553.4875 2.4279 2.3667c.7071.6892 1.0297 1.6822.8628 2.6554l-.5731 3.3418 3.0011-1.5777c.874-.4595 1.9181-.4595 2.792 0l3.0012 1.5777-.5732-3.3418c-.1669-.9732.1557-1.9662.8628-2.6554l2.428-2.3667-3.3554-.4875c-.9771-.142-1.8218-.7557-2.2588-1.6411zm.8968-2.7021c-.3669-.7433-1.4267-.7433-1.7935 0l-2.3973 4.8574c-.1457.2952-.4273.4997-.753.5471l-5.3605.7789c-.8202.1192-1.1477 1.1272-.5542 1.7057l3.8789 3.781c.2357.2297.3432.5607.2876.8851l-.9157 5.3389c-.1401.8169.7173 1.4399 1.451 1.0542l4.7946-2.5207c.2913-.1531.6393-.1531.9307 0l4.7946 2.5207c.7336.3857 1.591-.2373 1.4509-1.0542l-.9157-5.3389c-.0556-.3244.0519-.6554.2876-.8851l3.8789-3.781c.5936-.5785.266-1.5865-.5542-1.7057l-5.3605-.7789c-.3257-.0474-.6073-.2519-.7529-.5471z" fill="#333" fill-rule="evenodd"/></svg>