<svg fill="none" height="48" viewBox="0 0 48 48" width="48" xmlns="http://www.w3.org/2000/svg"><path clip-rule="evenodd" d="m24 8.51907-3.8517 7.80443c-.437.8854-1.2817 1.4991-2.2589 1.6411l-8.61264 1.2515 6.23224 6.0749c.707.6892 1.0297 1.6822.8627 2.6554l-1.4712 8.5779 7.7034-4.0499c.874-.4595 1.9181-.4595 2.7921 0l7.7034 4.0499-1.4712-8.5779c-.1669-.9732.1557-1.9662.8628-2.6554l6.2322-6.0749-8.6127-1.2515c-.9771-.142-1.8218-.7557-2.2588-1.6411zm.8967-2.70211c-.3668-.74325-1.4267-.74325-1.7935 0l-4.7484 9.62144c-.1457.2951-.4272.4997-.7529.547l-10.6179 1.5429c-.82022.1191-1.14773 1.1271-.55421 1.7057l7.68311 7.4892c.2357.2297.3433.5607.2876.8851l-1.8137 10.575c-.1401.8169.7173 1.4398 1.4509 1.0541l9.4969-4.9928c.2914-.1531.6394-.1531.9307 0l9.4969 4.9928c.7336.3857 1.5911-.2372 1.451-1.0541l-1.8138-10.575c-.0556-.3244.0519-.6554.2876-.8851l7.6831-7.4892c.5936-.5786.2661-1.5866-.5542-1.7057l-10.6178-1.5429c-.3257-.0473-.6073-.2519-.7529-.547z" fill="#333" fill-rule="evenodd"/></svg>