<svg fill="none" height="48" viewBox="0 0 48 48" width="48" xmlns="http://www.w3.org/2000/svg"><path clip-rule="evenodd" d="m31 5c-1.1046 0-2 .89543-2 2v4h1v3.3431c0 .7957-.3161 1.5588-.8787 2.1214l-1.6568 1.6568c-.9377.9377-1.4645 2.2095-1.4645 3.5356v6.5951c-.6392-.1645-1.3094-.252-2-.252-1.4571 0-2.8233.3896-4 1.0703v-13.3632c0-.1875.0745-.3674.2071-.5.5077-.5077.7929-1.1962.7929-1.9142v-1.2929h1v-6h-16v6h1v1.2929c0 .718.28521 1.4065.79289 1.9142.13261.1326.20711.3125.20711.5v15.5858c0 .1875-.0745.3674-.20711.5-.50768.5077-.79289 1.1962-.79289 1.9142v1.2929h-1v6h1.14286 10.61174c1.4661 1.8289 3.719 3 6.2454 3 2.1455 0 4.0938-.8446 5.5304-2.2195.4647.1427.9582.2195 1.4696.2195h7c2.7614 0 5-2.2386 5-5v-15.3431c0-1.3261-.5268-2.5979-1.4645-3.5356l-1.6568-1.6568c-.5626-.5626-.8787-1.3257-.8787-2.1214v-3.3431h1v-4c0-1.10457-.8954-2-2-2zm-.0698 34.9992c.0232.0005.0465.0008.0698.0008h7c1.6569 0 3-1.3431 3-3v-15.3431c0-.7957-.3161-1.5588-.8787-2.1214l-1.6568-1.6568c-.9377-.9377-1.4645-2.2095-1.4645-3.5356v-3.3431h-5v3.3431c0 1.3261-.5268 2.5979-1.4645 3.5356l-1.6568 1.6568c-.5626.5626-.8787 1.3257-.8787 2.1214v7.4134c.8562.4953 1.6121 1.1447 2.2298 1.9103l-.2149-.8593c-.0512-.205.0319-.4201.2078-.5373l.8815-.5877c-1.9918-.0807-2.214-1.4461-2.0681-2.1392l3.5082-.6057-.8978-.8978c-.0938-.0938-.1465-.221-.1465-.3536v-1.2929l-1.3535-1.3535c-.1953-.1953-.1953-.5119 0-.7072.1952-.1952.5118-.1952.7071 0l1.5 1.5c.0937.0938.1464.221.1464.3536v1.2929l.8015.8015c.1758-.6218.418-1.1024.6985-1.3668v-2.7276c0-.2761.2239-.5.5-.5s.5.2239.5.5v2.7276c.2805.2644.5228.745.6985 1.3668l.8015-.8015v-1.2929c0-.1326.0527-.2598.1465-.3536l1.5-1.5c.1952-.1952.5118-.1952.7071 0 .1952.1953.1952.5119 0 .7072l-1.3536 1.3535v1.2929c0 .1326-.0527.2598-.1464.3536l-.8979.8978 3.5082.6057c.1459.6931-.0763 2.0586-2.0681 2.1392l.8816.5877c.1758.1172.2589.3323.2077.5373l-.4146 1.6581 1.2069.8046c.2297.1532.2918.4636.1386.6933-.1531.2298-.4636.2919-.6933.1387l-1.5-1c-.1759-.1172-.259-.3323-.2078-.5373l.4146-1.6581-.4343-.2895c.0105.0749.004.1525-.0209.227l-.9345 2.8035 1.4074 2.8148c.1235.247.0234.5473-.2236.6708s-.5473.0234-.6708-.2236l-1.5-3c-.0593-.1186-.0691-.2559-.0271-.3817l.9022-2.7069-.5502-.5502c-.2302 1.4208-.7604 2.4152-1.3777 2.4152s-1.1475-.9944-1.3777-2.4152l-.5502.5502.9022 2.7069c.042.1258.0322.2631-.0271.3817l-1.4481 2.8962c-.0207 1.4119-.4072 2.7352-1.0689 3.8794zm.8803-5.7382.6497-1.2994-.9345-2.8035c-.0249-.0745-.0314-.1521-.0209-.227l-.4343.2895.4146 1.6581c.0512.205-.0319.4201-.2077.5373l-.0925.0617c.2753.5606.487 1.1582.6256 1.7833zm-15.7486.739c.2039-1.635.9011-3.1168 1.9381-4.2916v-15.0013c0-.718.2852-1.4065.7929-1.9142.1326-.1326.2071-.3125.2071-.5v-1.2929h-1v-2c0-.55228-.4477-1-1-1s-1 .44772-1 1v2h-1v-2c0-.55228-.4477-1-1-1s-1 .44772-1 1v2h-1v-2c0-.55228-.4477-1-1-1s-1 .44772-1 1v2h-1v1.2929c0 .1875.0745.3674.20711.5.50768.5077.79289 1.1962.79289 1.9142v15.5858c0 .718-.28521 1.4065-.79289 1.9142-.13261.1326-.20711.3125-.20711.5v1.2929h1v2c0 .5523.4477 1 1 1s1-.4477 1-1v-2h1v2c0 .5523.4477 1 1 1s1-.4477 1-1v-2zm5.9381 3v2h-2v-2zm3 2v-5h-2v5zm3 0h-2v-8h2z" fill="#333" fill-rule="evenodd"/></svg>