<svg fill="none" height="48" viewBox="0 0 48 48" width="48" xmlns="http://www.w3.org/2000/svg"><path clip-rule="evenodd" d="m24.0522 43.3145c11.0457 0 20-8.9544 20-20 0-11.0457-8.9543-20.00005-20-20.00005-11.0456 0-19.99995 8.95435-19.99995 20.00005 0 11.0456 8.95435 20 19.99995 20zm-14.30719-22.0059c1.18019 1.5272 4.62699.8408 7.69869-1.533s4.6051-5.5361 3.425-7.0632c-1.1801-1.5272-4.627-.8408-7.6987 1.533s-4.60513 5.5361-3.42499 7.0632zm21.69429 5.5414c3.2866 1.9844 5.1511 4.9177 4.1645 6.5516-.9865 1.634-4.4506 1.3498-7.7372-.6346-3.2866-1.9845-5.1512-4.9177-4.1646-6.5517.9866-1.6339 4.4507-1.3498 7.7373.6347zm.8314-3.9948c1.7491-.8183 1.8329-4.3337.1871-7.8521-1.6459-3.5183-4.398-5.70715-6.1472-4.8889-1.7491.8182-1.8329 4.3337-.1871 7.852 1.6459 3.5183 4.398 5.7072 6.1472 4.889zm-11.6507 7.0777c1.7841 3.5491 1.8 7.1452.0356 8.0322s-4.6411-1.2711-6.4252-4.8202-1.8001-7.1452-.0356-8.0322c1.7644-.8869 4.6411 1.2711 6.4252 4.8202zm-6.9985-10.5423c.5523 0 1-.4477 1-1s-.4477-1-1-1-1 .4477-1 1 .4477 1 1 1zm2.7939-3.4062c0 .2761-.2239.5-.5.5-.2762 0-.5-.2239-.5-.5 0-.2762.2238-.5.5-.5.2761 0 .5.2238.5.5zm-.726 1.9062c.2761 0 .5-.2238.5-.5 0-.2761-.2239-.5-.5-.5-.2762 0-.5.2239-.5.5 0 .2762.2238.5.5.5zm2.7106-2.8136c0 .3866-.3134.7-.7.7s-.7-.3134-.7-.7.3134-.7.7-.7.7.3134.7.7zm13.0707 16.8214c.5523 0 1-.4477 1-1 0-.5522-.4477-1-1-1s-1 .4478-1 1c0 .5523.4477 1 1 1zm-1-2.1855c0 .2502-.2029.4531-.4531.4531-.2503 0-.4531-.2029-.4531-.4531 0-.2503.2028-.4531.4531-.4531.2502 0 .4531.2028.4531.4531zm-3.5916-1.2268c.247 0 .4472-.2002.4472-.4471 0-.247-.2002-.4472-.4472-.4472-.2469 0-.4471.2002-.4471.4472 0 .2469.2002.4471.4471.4471zm2.2576.4579c0 .4242-.3439.7681-.7682.7681-.4242 0-.7682-.3439-.7682-.7681 0-.4243.344-.7682.7682-.7682.4243 0 .7682.3439.7682.7682zm.2162-11.8678c.5523 0 1-.4477 1-1s-.4477-1-1-1c-.5522 0-1 .4477-1 1s.4478 1 1 1zm-1-2.9805c0 .2761-.2238.5-.5.5-.2761 0-.5-.2239-.5-.5s.2239-.5.5-.5c.2762 0 .5.2239.5.5zm1.8762 5.1539c.3866 0 .7-.3134.7-.7s-.3134-.7-.7-.7-.7.3134-.7.7.3134.7.7.7zm-11.7194 12.7699c0 .5523-.4477 1-1 1s-1-.4477-1-1 .4477-1 1-1 1 .4477 1 1zm-1.0845-1.8965c.2502 0 .4531-.2028.4531-.4531 0-.2502-.2029-.4531-.4531-.4531-.2503 0-.4531.2029-.4531.4531 0 .2503.2028.4531.4531.4531zm-1.2054-1.496c0 .2761-.2239.5-.5.5-.2762 0-.5-.2239-.5-.5 0-.2762.2238-.5.5-.5.2761 0 .5.2238.5.5zm2.7 6.2085c.3866 0 .7-.3134.7-.7s-.3134-.7-.7-.7-.7.3134-.7.7.3134.7.7.7z" fill="#333" fill-rule="evenodd"/></svg>