<svg fill="none" height="48" viewBox="0 0 48 48" width="48" xmlns="http://www.w3.org/2000/svg"><path clip-rule="evenodd" d="m44.0522 24c0 11.0457-8.9543 20-20 20-11.0456 0-19.99995-8.9543-19.99995-20s8.95435-20 19.99995-20c11.0457 0 20 8.9543 20 20zm-26.6085-3.5389c-3.0717 2.3738-6.5185 3.0602-7.69869 1.5331-1.18014-1.5271.35329-4.6895 3.42499-7.0632 3.0717-2.3738 6.5186-3.0602 7.6987-1.5331s-.3533 4.6894-3.425 7.0632zm18.1601 13.6261c.9866-1.634-.8779-4.5672-4.1645-6.5517-3.2866-1.9844-6.7507-2.2686-7.7373-.6346-.9866 1.6339.878 4.5672 4.1646 6.5516 3.2866 1.9845 6.7507 2.2686 7.7372.6347zm-3.146-18.3985c1.6458 3.5183 1.562 7.0338-.1871 7.852-1.7492.8182-4.5013-1.3706-6.1472-4.889-1.6458-3.5183-1.562-7.0338.1871-7.852 1.7492-.8182 4.5013 1.3707 6.1472 4.889zm-11.8022 22.9619c1.7644-.8869 1.7485-4.4831-.0356-8.0322-1.7841-3.549-4.6608-5.7071-6.4252-4.8201-1.7645.887-1.7485 4.4831.0356 8.0322 1.7841 3.549 4.6608 5.7071 6.4252 4.8201zm-7.6556-18.1506c0 .5523-.4477 1-1 1s-1-.4477-1-1 .4477-1 1-1 1 .4477 1 1zm-.5-1.5c.2761 0 .5-.2239.5-.5s-.2239-.5-.5-.5-.5.2239-.5.5.2239.5.5.5zm2.0678.5c0 .2761-.2238.5-.5.5-.2761 0-.5-.2239-.5-.5s.2239-.5.5-.5c.2762 0 .5.2239.5.5zm18.4322 13.5c.5523 0 1-.4477 1-1s-.4477-1-1-1-1 .4477-1 1 .4477 1 1 1zm-2.0938-.5469c0 .2503-.2029.4531-.4531.4531-.2503 0-.4531-.2028-.4531-.4531 0-.2502.2028-.4531.4531-.4531.2502 0 .4531.2029.4531.4531zm-1.9062-12.4531c.5523 0 1-.4477 1-1s-.4477-1-1-1-1 .4477-1 1 .4477 1 1 1zm3.4.7c0 .3866-.3134.7-.7.7s-.7-.3134-.7-.7.3134-.7.7-.7.7.3134.7.7zm-14.4 15.3c.5523 0 1-.4477 1-1s-.4477-1-1-1-1 .4477-1 1 .4477 1 1 1zm1.9062-3.5469c0 .2503-.2028.4531-.4531.4531-.2502 0-.4531-.2028-.4531-.4531 0-.2502.2029-.4531.4531-.4531.2503 0 .4531.2029.4531.4531zm-.2062 4.9469c.3866 0 .7-.3134.7-.7s-.3134-.7-.7-.7-.7.3134-.7.7.3134.7.7.7z" fill="#333" fill-rule="evenodd"/></svg>