<svg fill="none" height="48" viewBox="0 0 48 48" width="48" xmlns="http://www.w3.org/2000/svg"><path clip-rule="evenodd" d="m44 24c0 11.0457-8.9543 20-20 20s-20-8.9543-20-20 8.9543-20 20-20 20 8.9543 20 20zm-25.5563-4.2243c-3.0717 2.3738-6.5185 3.0602-7.6987 1.5331-1.1801-1.5271.3533-4.6894 3.4251-7.0632 3.0717-2.3738 6.5185-3.0602 7.6986-1.5331 1.1802 1.5271-.3533 4.6894-3.425 7.0632zm18.1602 13.6261c.9865-1.6339-.878-4.5672-4.1646-6.5517-3.2866-1.9844-6.7507-2.2686-7.7373-.6346-.9865 1.6339.878 4.5672 4.1646 6.5516 3.2866 1.9845 6.7507 2.2686 7.7373.6347zm-3.1461-18.3985c1.6458 3.5183 1.5621 7.0338-.1871 7.852-1.7491.8182-4.5013-1.3706-6.1471-4.8889-1.6458-3.5184-1.5621-7.0338.1871-7.8521 1.7491-.81819 4.5013 1.3707 6.1471 4.889zm-11.8022 22.9619c1.7645-.8869 1.7485-4.4831-.0356-8.0321-1.7841-3.5491-4.6608-5.7072-6.4252-4.8202s-1.7485 4.4831.0356 8.0322 4.6608 5.7071 6.4252 4.8201z" fill="#333" fill-rule="evenodd"/></svg>