<svg fill="none" height="48" viewBox="0 0 48 48" width="48" xmlns="http://www.w3.org/2000/svg"><g clip-rule="evenodd" fill="#333" fill-rule="evenodd"><path d="m25 5.99854c0-.55229-.4477-1-1-1s-1 .44771-1 1v4.58376c-.3229.404-.6065.9976-.8308 1.7277l-1.126-1.1357v-1.98292c0-.26373-.1042-.51679-.2899-.70407l-2.3742-2.39463c-.3888-.39219-1.022-.3949-1.4142-.00605-.3921.38884-.3949 1.022-.006 1.4142l2.0843 2.10226v1.98291c0 .2637.1042.5168.2899.7041l.7522.7587-7.0162 1.2219c-.2878 1.3783.1726 4.1347 4.3164 4.1347.0766 0 .1521-.0013.2266-.0039l-.5011.3369c-.3187.2143-.4865.5921-.4318.9723l.4854 3.3725-1.8529 1.2459c-.4584.3082-.5801.9295-.2719 1.3879.3082.4583.9295.58 1.3878.2718l2.3742-1.5964c.3187-.2143.4865-.5922.4318-.9723l-.4853-3.3725.3288-.2211c.005.0186.0105.0371.0166.0555l1.4589 4.4144-1.7647 3.8198c-.2316.5014-.0129 1.0956.4884 1.3272.5014.2316 1.0956.013 1.3272-.4884l1.9303-4.1781c.1064-.2303.1213-.4924.0417-.7332l-1.3903-4.2069.6768-.6827c.3842 2.1347 1.1973 3.6069 2.1382 3.6069s1.754-1.4721 2.1382-3.6067l.6767.6825-1.3904 4.2069c-.0796.2408-.0647.5029.0417.7331l1.9301 4.1782c.2316.5013.8258.72 1.3271.4884.5014-.2316.7201-.8258.4885-1.3272l-1.7645-3.8197 1.4589-4.4145c.0061-.0184.0116-.0369.0166-.0555l.3288.221-.4855 3.3725c-.0548.3802.1131.7581.4318.9724l2.3742 1.5964c.4583.3082 1.0796.1865 1.3878-.2718.3082-.4584.1865-1.0797-.2718-1.3879l-1.8529-1.2459.4855-3.3725c.0547-.3801-.1131-.758-.4318-.9723l-.501-.3369c.0744.0026.1498.0039.2263.0039 4.1438 0 4.6042-2.7564 4.3164-4.1347l-7.016-1.2219.7523-.7587c.1856-.1873.2898-.4404.2898-.7041v-1.98291l2.0844-2.10226c.3888-.3922.3861-1.02536-.0061-1.4142-.3922-.38885-1.0254-.38614-1.4142.00605l-2.3742 2.39463c-.1857.18728-.2899.44034-.2899.70407v1.98292l-1.1258 1.1356c-.2245-.7303-.5081-1.3241-.8312-1.7282z"/><path d="m24 28.0002c-4.081 0-7.7403-.4422-10.3489-1.1379-1.3117-.3497-2.3011-.7489-2.939-1.1511-.6879-.4337-.7121-.6991-.7121-.711v-.0002c-.00002-.0071-.00028-.0955.1637-.2751.1707-.1871.4689-.4133.9328-.6555.9259-.4833 2.3224-.933 4.0999-1.289l-.3928-1.9611c-1.8659.3738-3.4693.8699-4.6326 1.4771-.58071.3032-1.0994.6583-1.48436 1.08-.39011.4273-.68659.9749-.68664 1.6236v.0002 4.6668c0 .8014.43861 1.4383 1 1.9275v7.7133c0 1.0556.79461 1.8016 1.5711 2.2858.8292.517 1.9626.946 3.2744 1.2919 2.6383.6958 6.2281 1.1145 10.1545 1.1145s7.5162-.4187 10.1545-1.1145c1.3118-.3459 2.4452-.7749 3.2744-1.2919.7765-.4842 1.5711-1.2302 1.5711-2.2858v-7.7133c.5614-.4892 1-1.1261 1-1.9275v-4.6668c0-.0001 0-.0001 0-.0002 0-.6487-.2965-1.1963-.6866-1.6236-.385-.4217-.9037-.7768-1.4844-1.08-1.1633-.6072-2.7667-1.1033-4.6326-1.4771l-.3928 1.9611c1.7775.356 3.174.8057 4.0999 1.289.4639.2422.7621.4684.9328.6555.164.1796.1637.268.1637.2751v.0002c0 .0119-.0242.2773-.7121.711-.6379.4022-1.6273.8014-2.939 1.1511-2.6086.6957-6.2679 1.1379-10.3489 1.1379zm14-.3882c-.8386.4632-1.9128.8567-3.1357 1.1828-2.8203.7521-6.661 1.2054-10.8643 1.2054s-8.044-.4533-10.8643-1.2054c-1.2229-.3261-2.2971-.7196-3.1357-1.1828v2.055c0 .0119.0242.2774.7121.7111.6379.4021 1.6273.8013 2.939 1.1511 2.6086.6956 6.2679 1.1378 10.3489 1.1378s7.7403-.4422 10.3489-1.1378c1.3117-.3498 2.3011-.749 2.939-1.1511.6879-.4337.7121-.6992.7121-.7111zm-1 5.1429c-.6364.2634-1.3559.4988-2.1357.7068-2.8203.752-6.661 1.2053-10.8643 1.2053s-8.044-.4533-10.8643-1.2053c-.7799-.208-1.4993-.4434-2.1357-.7068v6.5495l.0001-.0003.0005.0018c.006.022.0644.2387.6287.5905.5876.3664 1.5045.733 2.7262 1.0552 2.4287.6406 5.8389 1.0484 9.6445 1.0484s7.2158-.4078 9.6445-1.0484c1.2217-.3222 2.1386-.6888 2.7262-1.0552.5642-.3518.6227-.5685.6287-.5905l.0005-.0018.0001.0003z"/></g></svg>