<svg fill="none" height="48" viewBox="0 0 48 48" width="48" xmlns="http://www.w3.org/2000/svg"><g fill="#333"><path clip-rule="evenodd" d="m4.49756 16.1519c-1.10457 0-2 .8954-2 2v12c0 1.1045.89543 2 2 2h39.00484c1.1046 0 2-.8955 2-2v-12c0-1.1046-.8954-2-2-2zm37.50244 8.0019c0-1.1046-.8955-2-2-2-1.1046 0-2 .8954-2 2s.8954 2 2 2c1.1045 0 2-.8954 2-2zm-6-.8789c.5523 0 1 .4477 1 1s-.4477 1-1 1-1-.4477-1-1 .4477-1 1-1zm-15.1964-1.1211h5.8037v4h-5.8037zm-2 0h-8.80363c-1.10457 0-2 .8954-2 2s.89543 2 2 2h8.80363zm10.7487 4h-.945v-4h.945c1.1046 0 2 .8954 2 2s-.8954 2-2 2zm-19.55233 2c-2.20914 0-4-1.7909-4-4s1.79086-4 4-4h19.55233c2.2092 0 4 1.7909 4 4s-1.7908 4-4 4z" fill-rule="evenodd"/><path d="m9.88688 14.9063c1.06402 0 1.76702-.3135 2.36552-.836.133-.114.247-.2945.247-.5225 0-.3705-.3135-.6745-.684-.6745-.171 0-.323.0665-.437.1615-.418.3325-.8265.5225-1.44402.5225-1.14 0-1.9285-.95-1.9285-2.09v-.019c0-1.14.8075-2.07098 1.9285-2.07098.52252 0 .95002.171 1.35852.475.1045.0665.2375.1425.437.1425.399 0 .722-.3135.722-.7125 0-.2565-.133-.4655-.285-.5795-.551-.4085-1.2255-.6745-2.22302-.6745-2.0425 0-3.4675 1.5485-3.4675 3.43898v.019c0 1.9095 1.4535 3.42 3.4105 3.42z"/><path d="m27.3371 14.1151c0 .4085.323.7315.7315.7315s.7315-.323.7315-.7315v-1.3205h1.1115c1.4915 0 2.6885-.798 2.6885-2.337v-.019c0-1.35851-.9595-2.29901-2.546-2.29901h-1.9855c-.4085 0-.7315.323-.7315.7315zm1.463-2.622v-2.03301h1.1305c.7315 0 1.1875.3515 1.1875 1.00701v.019c0 .57-.4275 1.007-1.159 1.007z"/><path d="m33.632 14.1246c0 .399.323.722.722.722s.722-.323.722-.722v-3.192h.608c.3325 0 .5985-.2565.5985-.589s-.266-.58901-.5985-.58901h-.627v-.1995c0-.38.19-.551.5225-.551h.1235c.323 0 .589-.2755.589-.5985s-.247-.5415-.494-.5795c-.1615-.0285-.361-.038-.589-.038-.513 0-.9025.133-1.1685.399s-.4085.6745-.4085 1.235v.323h-.057c-.3325 0-.5985.26601-.5985.59851s.266.589.5985.589h.057z"/><path d="m14.3869 39.4316c0 .4085.323.7315.7315.7315s.7315-.323.7315-.7315v-1.3205h1.1115c1.4915 0 2.6885-.798 2.6885-2.337v-.019c0-1.3585-.9595-2.299-2.546-2.299h-1.9855c-.4085 0-.7315.323-.7315.7315zm1.463-2.622v-2.033h1.1305c.7315 0 1.1875.3515 1.1875 1.007v.019c0 .57-.4275 1.007-1.159 1.007z"/><path d="m23.3904 39.5836 1.558-3.6005c.0285-.0665.076-.2185.076-.342 0-.3895-.3135-.684-.6935-.684s-.5795.247-.6745.494l-1.1115 2.9735-1.0925-2.9545c-.1045-.2945-.3135-.513-.703-.513s-.703.3325-.703.6745c0 .133.038.2565.076.3515l1.558 3.6005c.1615.38.4275.627.817.627h.076c.3895 0 .6555-.2565.817-.627z"/></g></svg>