<svg fill="none" height="48" viewBox="0 0 48 48" width="48" xmlns="http://www.w3.org/2000/svg"><path clip-rule="evenodd" d="m10.4851 5c0-1.10457.8954-2 2-2h12c1.1046 0 2 .89543 2 2v38c0 1.1046-.8954 2-2 2h-12c-1.1046 0-2-.8954-2-2zm11 33.0195c0 1.6569-1.3431 3-3 3-1.6568 0-3-1.3431-3-3 0-1.6568 1.3432-3 3-3 1.6569 0 3 1.3432 3 3zm-3-7.9062c-1.1046 0-2 .8954-2 2s.8954 2 2 2 2-.8954 2-2-.8954-2-2-2zm2-5.1133v-14c0-1.10457-.8954-2-2-2s-2 .89543-2 2v14c0 1.1046.8954 2 2 2s2-.8954 2-2zm-2-18c-2.2091 0-4 1.79086-4 4v14c0 2.2091 1.7909 4 4 4s4-1.7909 4-4v-14c0-2.20914-1.7909-4-4-4zm16.0923 25.6671c0 1.2898-.9832 2.0135-2.3838 2.0135-.8534 0-1.716-.2598-2.4395-.7794-.1577-.1114-.269-.3155-.269-.5382 0-.3711.2968-.6587.6679-.6587.1855 0 .3153.0649.4081.1299.4916.3618 1.0296.5845 1.6603.5845.5844 0 .9369-.232.9369-.6124v-.0185c0-.3619-.2227-.5475-1.3079-.8258-1.3079-.3341-2.152-.6959-2.152-1.9857v-.0185c0-1.1784.9462-1.9578 2.2726-1.9578.7884 0 1.4748.2041 2.0592.5753.1576.0928.3153.2876.3153.566 0 .3711-.2968.6587-.6678.6587-.1391 0-.2505-.0371-.3618-.102-.473-.2784-.9182-.4361-1.3635-.4361-.5472 0-.8348.2505-.8348.566v.0185c0 .4269.2783.566 1.4006.8537 1.3172.3433 2.0592.8165 2.0592 1.9485zm1.9242 1.1694c0 .2933.2267.5307.5067.5307s.5067-.2374.5067-.5307v-3.9386c0-.2933-.2267-.5307-.5067-.5307h-.0133c-.14 0-.2867.0349-.48.0908l-.66.2025c-.2067.0628-.34.2444-.34.4609 0 .2514.2066.4609.4466.4609.0534 0 .1267-.014.18-.028l.36-.0977zm-1.9242 7.5103c0 1.2898-.9832 2.0135-2.3838 2.0135-.8534 0-1.716-.2598-2.4395-.7794-.1577-.1114-.269-.3155-.269-.5382 0-.3711.2968-.6588.6679-.6588.1855 0 .3153.065.4081.1299.4916.3619 1.0296.5846 1.6603.5846.5844 0 .9369-.232.9369-.6124v-.0186c0-.3618-.2227-.5474-1.3079-.8257-1.3079-.3341-2.152-.6959-2.152-1.9857v-.0185c0-1.1784.9462-1.9578 2.2726-1.9578.7884 0 1.4748.2041 2.0592.5753.1576.0927.3153.2876.3153.566 0 .3711-.2968.6587-.6678.6587-.1391 0-.2505-.0371-.3618-.102-.473-.2784-.9182-.4361-1.3635-.4361-.5472 0-.8348.2505-.8348.566v.0185c0 .4268.2783.566 1.4006.8537 1.3172.3433 2.0592.8165 2.0592 1.9485zm-3.0609-17.9402c0 .3989.3153.7144.7142.7144.3988 0 .7142-.3155.7142-.7144v-4.5187h1.3728c.3618 0 .6586-.2969.6586-.6588s-.2968-.6588-.6586-.6588h-4.174c-.3618 0-.6586.2969-.6586.6588s.2968.6588.6586.6588h1.3728zm3.6082-8.6519c-.5844.5103-1.2708.8165-2.3096.8165-1.9108 0-3.33-1.4753-3.33-3.3403v-.0185c0-1.8465 1.3914-3.35888 3.3856-3.35888.974 0 1.6325.2598 2.1705.65878.1484.11134.2783.31547.2783.566 0 .3897-.3154.6959-.705.6959-.1948 0-.3246-.0742-.4267-.1392-.3988-.2969-.8162-.4639-1.3264-.4639-1.0945 0-1.8829.9093-1.8829 2.0227v.0186c0 1.1134.7699 2.0413 1.8829 2.0413.6029 0 1.0018-.1856 1.4099-.5104.1113-.0927.2597-.1577.4267-.1577.3618 0 .6679.2969.6679.6588 0 .2227-.1114.399-.2412.5103z" fill="#333" fill-rule="evenodd"/></svg>