<svg fill="none" height="48" viewBox="0 0 48 48" width="48" xmlns="http://www.w3.org/2000/svg"><g fill="#333"><path d="m16.8367 22.6545c-.2144.8002-1.0369 1.2751-1.8371 1.0607s-1.2751-1.0369-1.0607-1.8371c.2145-.8002 1.037-1.2751 1.8372-1.0607s1.275 1.0369 1.0606 1.8371z"/><path d="m32.3863 28.3739c.8002.2145 1.6227-.2604 1.8371-1.0606s-.2605-1.6227-1.0607-1.8371-1.6227.2604-1.8371 1.0606.2605 1.6227 1.0607 1.8371z"/><path clip-rule="evenodd" d="m13.2065 14.9525 1.4488.3882-.1326.495-1.6846 1.203c-.5663.4044-.9743.9929-1.1544 1.665l-1.2896 4.8127c-.3523 1.315.226 2.6601 1.3312 3.3359l-.9046 3.3763c-.143.5335.1736 1.0818.7071 1.2247l3.8637 1.0353c.5334.143 1.0818-.1736 1.2247-.7071l.873-3.2581 9.5151 2.5496c.0004.0001.0009.0002.0013.0003l1.2959.3473-.873 3.2581c-.1429.5334.1737 1.0818.7071 1.2247l3.8637 1.0353c.5335.1429 1.0819-.1737 1.2248-.7071l.955-3.564c1.0766-.2216 1.9911-1.029 2.295-2.163l1.3201-4.9267c.1518-.5667.1342-1.1654-.0507-1.7222l-.7171-2.1587c-.0444-.1335-.0977-.2627-.1592-.3868l.0044-.0166 1.4489.3882c1.067.2859 2.1636-.3473 2.4495-1.4142l.9059-3.3807c.2859-1.067-.3473-2.1636-1.4142-2.4495l-1.489-.399c.1373-1.4321-.7748-2.7958-2.2107-3.1805l-16.4207-4.39995c-1.4358-.38474-2.9076.34019-3.5047 1.64909l-1.489-.39896c-1.0669-.28589-2.1636.34728-2.4495 1.41421l-.9059 3.38071c-.2858 1.067.3473 2.1636 1.4143 2.4495zm1.4235-5.31257 1.4488.38827-.9058 3.3807-1.4489-.3882zm13.8579 19.75997 4.8296 1.2941c.5335.143 1.0818-.1736 1.2248-.7071l1.3201-4.9266c.0506-.1889.0447-.3885-.017-.5741l-.717-2.1587c-.106-.3191-.3654-.5636-.6902-.6507l-17.4711-4.6813c-.2886-.0774-.5967-.0216-.8399.1521l-2.1269 1.5187c-.1887.1348-.3247.331-.3848.555l-1.2895 4.8128c-.143.5334.1736 1.0818.7071 1.2247l4.8296 1.2941 1.2941-4.8296c.1429-.5335.6913-.8501 1.2247-.7071l8.6934 2.3294c.5334.1429.85.6912.7071 1.2247zm-8.6933-2.3293 2.4148.647.6683-2.4944c.143-.5335.6913-.85 1.2248-.7071s.85.6913.7071 1.2247l-.6684 2.4944 2.4148.6471 1.0353-3.8637-6.7615-1.8117zm18.5005-11.0896 1.4489.3882-.9058 3.3808-1.4489-.3883zm-1.5436-1.9665c.143-.5335-.1736-1.0818-.7071-1.2248l-16.4207-4.3999c-.5333-.14288-1.0814.17338-1.2246.70644l-1.5531 5.79626 18.3526 4.9175z" fill-rule="evenodd"/><path d="m11 34.0002c-1.32608 0-2.59785.5268-3.53553 1.4645-.93769.9377-1.46447 2.2094-1.46447 3.5355v2c0 .5523.44772 1 1 1s1-.4477 1-1v-2c0-.7956.31607-1.5587.87868-2.1213s1.32572-.8787 2.12132-.8787c.7957 0 1.5587.3161 2.1213.8787s.8787 1.3257.8787 2.1213v1c0 .5523.4477 1 1 1s1-.4477 1-1c0-.5304.2107-1.0391.5858-1.4142s.8838-.5858 1.4142-.5858 1.0391.2107 1.4142.5858.5858.8838.5858 1.4142c0 .5523.4477 1 1 1s1-.4477 1-1c0-.2652.1054-.5195.2929-.7071.1875-.1875.4419-.2929.7071-.2929s.5196.1054.7071.2929c.1875.1876.2929.4419.2929.7071v1c0 .5523.4477 1 1 1 .0863 0 .1701-.0109.25-.0315.0799.0206.1637.0315.25.0315h9c.5523 0 1-.4477 1-1s-.4477-1-1-1h-8.5c0-.7956-.3161-1.5587-.8787-2.1213s-1.3256-.8787-2.1213-.8787c-.6528 0-1.2838.2128-1.8.6-.1129-.1505-.2369-.2938-.3716-.4284-.7501-.7501-1.7675-1.1716-2.8284-1.1716-.9046 0-1.7776.3065-2.4803.8618-.2431-.514-.5744-.9875-.9842-1.3973-.9376-.9377-2.2094-1.4645-3.5355-1.4645z"/></g></svg>