<svg fill="none" height="48" viewBox="0 0 48 48" width="48" xmlns="http://www.w3.org/2000/svg"><g clip-rule="evenodd" fill="#333" fill-rule="evenodd"><path d="m4 17c0-1.6569 1.34315-3 3-3h20c1.6569 0 3 1.3431 3 3v2h5.718c.7542 0 1.4807.284 2.0349.7956l5.2819 4.8757c.6153.5679.9652 1.3671.9652 2.2044v8.1243h-6v-2h4v-6.1243c0-.2791-.1166-.5455-.3217-.7348l-5.282-4.8757c-.1847-.1705-.4269-.2652-.6783-.2652h-5.718v12h2v2h-17v-2h13v-16c0-.5523-.4477-1-1-1h-20c-.55228 0-1 .4477-1 1v16h3v2h-5z"/><path d="m12 36c1.1046 0 2-.8954 2-2s-.8954-2-2-2-2 .8954-2 2 .8954 2 2 2zm0 2c2.2091 0 4-1.7909 4-4s-1.7909-4-4-4c-2.20914 0-4 1.7909-4 4s1.79086 4 4 4z"/><path d="m35 36c1.1046 0 2-.8954 2-2s-.8954-2-2-2-2 .8954-2 2 .8954 2 2 2zm0 2c2.2091 0 4-1.7909 4-4s-1.7909-4-4-4-4 1.7909-4 4 1.7909 4 4 4z"/><path d="m43 28h-14v-2h14z"/><path d="m16 27v-8h2v8z"/><path d="m33 16c.5523 0 1 .4477 1 1v3h-2v-3c0-.5523.4477-1 1-1z"/><path d="m21 24h-8v-2h8z"/><path d="m35 20h-4v-2h4z"/><path d="m33 13.5c-.5523 0-1-.4477-1-1v-1.5c0-.5523.4477-1 1-1s1 .4477 1 1v1.5c0 .5523-.4477 1-1 1z"/><path d="m36.5 17c0-.5523.4477-1 1-1h1.5c.5523 0 1 .4477 1 1s-.4477 1-1 1h-1.5c-.5523 0-1-.4477-1-1z"/><path d="m35.759 14.1715c-.3709-.4093-.3397-1.0417.0695-1.4125l.9142-.8284c.4093-.3709 1.0417-.3398 1.4125.0695.3709.4092.3397 1.0416-.0695 1.4125l-.9142.8284c-.4093.3709-1.0417.3397-1.4125-.0695z"/></g></svg>