<svg fill="none" height="48" viewBox="0 0 48 48" width="48" xmlns="http://www.w3.org/2000/svg"><g clip-rule="evenodd" fill="#333" fill-rule="evenodd"><path d="m6 17c0-1.6569 1.34315-3 3-3h16c1.6569 0 3 1.3431 3 3v2h5.718c.7542 0 1.4807.2841 2.0349.7956l5.2819 4.8757c.6153.5679.9652 1.3671.9652 2.2044v8.1243h-6v-2h4v-6.1243c0-.2791-.1166-.5455-.3217-.7348l-5.282-4.8757c-.1847-.1705-.4269-.2652-.6783-.2652h-5.718v12h2v2h-13v-2h9v-16c0-.5523-.4477-1-1-1h-16c-.55228 0-1 .4477-1 1v16h3v2h-5z"/><path d="m14 36c1.1046 0 2-.8954 2-2s-.8954-2-2-2-2 .8954-2 2 .8954 2 2 2zm0 2c2.2091 0 4-1.7909 4-4s-1.7909-4-4-4-4 1.7909-4 4 1.7909 4 4 4z"/><path d="m33 36c1.1046 0 2-.8954 2-2s-.8954-2-2-2-2 .8954-2 2 .8954 2 2 2zm0 2c2.2091 0 4-1.7909 4-4s-1.7909-4-4-4-4 1.7909-4 4 1.7909 4 4 4z"/><path d="m41 28h-14v-2h14z"/><path d="m17 18c.5523 0 1 .4477 1 1v8c0 .5523-.4477 1-1 1s-1-.4477-1-1v-8c0-.5523.4477-1 1-1z"/><path d="m31 16c.5523 0 1 .4477 1 1v3h-2v-3c0-.5523.4477-1 1-1z"/><path d="m12 23c0-.5523.4477-1 1-1h8c.5523 0 1 .4477 1 1s-.4477 1-1 1h-8c-.5523 0-1-.4477-1-1z"/><path d="m33 20h-4v-2h4z"/><path d="m31 14 1-2h-2z"/><path d="m33.707 14.1213 2.1213-.7071-1.4142-1.4142z"/><path d="m34 17 2 1v-2z"/></g></svg>