<svg fill="none" height="48" viewBox="0 0 48 48" width="48" xmlns="http://www.w3.org/2000/svg"><g clip-rule="evenodd" fill="#333" fill-rule="evenodd"><path d="m38.5 36.5c-3.0376 0-5.5-2.4624-5.5-5.5s2.4624-5.5 5.5-5.5 5.5 2.4624 5.5 5.5-2.4624 5.5-5.5 5.5zm0 2c-4.1421 0-7.5-3.3579-7.5-7.5s3.3579-7.5 7.5-7.5 7.5 3.3579 7.5 7.5-3.3579 7.5-7.5 7.5z"/><path d="m29.4106 8.5862c-.1623-.357-.5182-.5862-.9104-.5862h-5.2499c-.5523 0-1 .44772-1 1s.4477 1 1 1h4.606l9.7336 21.4138c.2285.5028.8214.7251 1.3241.4966.5028-.2286.7251-.8214.4966-1.3242z"/><path d="m9.5 36.5c-3.03757 0-5.5-2.4624-5.5-5.5s2.46243-5.5 5.5-5.5c3.0376 0 5.5 2.4624 5.5 5.5s-2.4624 5.5-5.5 5.5zm0 2c-4.14214 0-7.5-3.3579-7.5-7.5s3.35786-7.5 7.5-7.5c4.1421 0 7.5 3.3579 7.5 7.5s-3.3579 7.5-7.5 7.5z"/><path d="m33.6441 20.7351c-.4224-.3557-1.0533-.3017-1.409.1208l-7.7004 9.1441h-15.03472c-.55229 0-1 .4477-1 1s.44771 1 1 1h15.50002c.295 0 .5749-.1302.7649-.3558l8-9.5c.3557-.4225.3017-1.0533-.1208-1.4091z"/><path d="m31 14h-5.246c-3.9575 0-7.4507 2.5852-8.6071 6.37l-.1033.3378c-.0926.3031-.036.6323.1526.8871s.4868.4051.8038.4051h15.5v-2h-14.0709c1.1444-2.4153 3.5923-4 6.3249-4h5.246z"/><path d="m13.1643 16.2526c-.183-.1627-.4194-.2526-.6643-.2526h-6.00004c-.55229 0-1 .4477-1 1v4c0 .5523.44771 1 1 1h10.50004c.4151 0 .7871-.2565.9347-.6446.1475-.3881.0399-.827-.2704-1.1028zm-1.0445 1.7474 2.25 2h-6.86984v-2z"/><path d="m38.4962 12.1318c-.2608-.1491-.5748-.173-.8552-.0651l-6.5 2.5.718 1.8666 5.3561-2.06.5714 3.4282-5.1345-.7899-.3041 1.9768 6.5 1c.317.0487.6382-.0575.8636-.2857s.3276-.5507.2749-.8671l-1-6c-.0494-.2963-.2294-.5547-.4902-.7038z"/><path d="m23.7568 30.669-4.5-5 1.4866-1.3379 4.5 5z"/><path d="m27.5 20h-9c-1.6569 0-3 1.3431-3 3s1.3431 3 3 3h6c1.6569 0 3-1.3431 3-3zm-2 2v1c0 .5523-.4477 1-1 1h-6c-.5523 0-1-.4477-1-1s.4477-1 1-1z"/></g></svg>