<svg fill="none" height="48" viewBox="0 0 48 48" width="48" xmlns="http://www.w3.org/2000/svg"><g clip-rule="evenodd" fill="#333" fill-rule="evenodd"><path d="m37.5 36c-2.4853 0-4.5-2.0147-4.5-4.5s2.0147-4.5 4.5-4.5 4.5 2.0147 4.5 4.5-2.0147 4.5-4.5 4.5zm0 2c-3.5899 0-6.5-2.9101-6.5-6.5s2.9101-6.5 6.5-6.5 6.5 2.9101 6.5 6.5-2.9101 6.5-6.5 6.5z"/><path d="m29.4157 10.598c-.1596-.3633-.5188-.598-.9157-.598h-5.5v2h4.8469l8.7374 19.902c.2221.5057.812.7357 1.3177.5136.5057-.222.7356-.8119.5136-1.3176z"/><path d="m10.5 36c-2.48528 0-4.5-2.0147-4.5-4.5s2.01472-4.5 4.5-4.5c2.4853 0 4.5 2.0147 4.5 4.5s-2.0147 4.5-4.5 4.5zm0 2c-3.58985 0-6.5-2.9101-6.5-6.5s2.91015-6.5 6.5-6.5c3.5899 0 6.5 2.9101 6.5 6.5s-2.9101 6.5-6.5 6.5z"/><path d="m33.6306 22.7239c-.4286-.3483-1.0584-.2831-1.4067.1455l-6.1999 7.6306h-15.524c-.55228 0-1 .4477-1 1s.44772 1 1 1h16c.3011 0 .5862-.1357.7761-.3694l6.5-8c.3483-.4286.2831-1.0584-.1455-1.4067z"/><path d="m30.9032 16h-3.1716c-4.1016 0-7.6821 2.7786-8.7003 6.7517l.9687.2483v1h13v-2h-11.5818c1.1354-2.4066 3.575-4 6.3134-4h3.1716z"/><path d="m16.5517 18.2806c-.1864-.18-.4354-.2806-.6946-.2806h-8.8571c-.55229 0-1 .4477-1 1v4c0 .5523.44771 1 1 1h13c.4077 0 .7745-.2475.9272-.6254.1527-.378.0607-.8108-.2326-1.094zm-1.0985 1.7194 2.0714 2h-9.5246v-2z"/><path d="m38.7849 13.6267-7.6439 2.94.718 1.8666 5.3561-2.06.5714 3.4282-5.1344-.7899-.3042 1.9768 7.8656 1.2101z"/><path d="m22.6258 31.9856-2.5-4.5 1.7484-.9712 2.5 4.5z"/><path d="m28 22h-9c-1.6569 0-3 1.3431-3 3s1.3431 3 3 3h6c1.6569 0 3-1.3431 3-3zm-2 2v1c0 .5523-.4477 1-1 1h-6c-.5523 0-1-.4477-1-1s.4477-1 1-1z"/></g></svg>