<svg fill="none" height="48" viewBox="0 0 48 48" width="48" xmlns="http://www.w3.org/2000/svg"><g clip-rule="evenodd" fill="#333" fill-rule="evenodd"><path d="m37.5 36c-2.4853 0-4.5-2.0147-4.5-4.5s2.0147-4.5 4.5-4.5 4.5 2.0147 4.5 4.5-2.0147 4.5-4.5 4.5zm0 2c-3.5899 0-6.5-2.9101-6.5-6.5s2.9101-6.5 6.5-6.5 6.5 2.9101 6.5 6.5-2.9101 6.5-6.5 6.5z"/><path d="m28.9073 10.5795c-.1637-.3534-.5178-.5795-.9073-.5795h-5v2h4.3613l9.2314 19.9205c.2322.5011.8267.719 1.3278.4868s.719-.8267.4868-1.3278z"/><path d="m10.5 36c-2.48528 0-4.5-2.0147-4.5-4.5s2.01472-4.5 4.5-4.5c2.4853 0 4.5 2.0147 4.5 4.5s-2.0147 4.5-4.5 4.5zm0 2c-3.58985 0-6.5-2.9101-6.5-6.5s2.91015-6.5 6.5-6.5c3.5899 0 6.5 2.9101 6.5 6.5s-2.9101 6.5-6.5 6.5z"/><path d="m21.5 31.5c0 .5523-.4478 1-1 1h-10c-.55229 0-1-.4477-1-1s.44771-1 1-1h10c.5522 0 1 .4477 1 1z"/><path d="m31 16h-8.0173c-.9805 0-1.9544.1602-2.8832.4743l-4.4199 1.4947c-.2997.1014-.5337.3385-.6311.6395s-.0466.6303.137.888l4.3332 6.0837c.1877.2634.4911.4198.8145.4198h8.1668c.2449 0 .4813-.0899.6643-.2526l4.5-4-1.3287-1.4948-4.2158 3.7474h-7.2711l-3.2534-4.5675 3.1449-1.0636c.7224-.2443 1.4799-.3689 2.2425-.3689h8.0173z"/><path d="m6 20h10.0833v-2h-11.0833c-.55229 0-1 .4477-1 1v3.5c0 .5124.38738.942.8971.9947l14.5 1.5.2058-1.9894-13.6029-1.4072z"/><path d="m29 24h-7c-1.6569 0-3 1.3431-3 3v3c0 1.6569 1.3431 3 3 3h4c1.6569 0 3-1.3431 3-3zm-2 2v4c0 .5523-.4477 1-1 1h-4c-.5523 0-1-.4477-1-1v-3c0-.5523.4477-1 1-1z"/><path d="m36.3776 14.3415c-.1899-.217-.4642-.3415-.7526-.3415h-6.625v2h6.1712l2.625 3h-5.7962v2h8c.3924 0 .7485-.2295.9106-.5868.1622-.3573.1004-.7764-.158-1.0717z"/></g></svg>