<svg fill="none" height="48" viewBox="0 0 48 48" width="48" xmlns="http://www.w3.org/2000/svg"><g clip-rule="evenodd" fill="#333" fill-rule="evenodd"><path d="m38 38c-2.7614 0-5-2.2386-5-5s2.2386-5 5-5 5 2.2386 5 5-2.2386 5-5 5zm0 2c-3.866 0-7-3.134-7-7s3.134-7 7-7 7 3.134 7 7-3.134 7-7 7z"/><path d="m28.9106 10.5862c-.1623-.357-.5182-.5862-.9104-.5862h-5.2499c-.5523 0-1 .4477-1 1s.4477 1 1 1h4.606l9.7336 21.4138c.2285.5028.8214.7251 1.3241.4966.5028-.2286.7251-.8214.4966-1.3242z"/><path d="m9 38c-2.76142 0-5-2.2386-5-5s2.23858-5 5-5c2.7614 0 5 2.2386 5 5s-2.2386 5-5 5zm0 2c-3.86599 0-7-3.134-7-7s3.13401-7 7-7c3.866 0 7 3.134 7 7s-3.134 7-7 7z"/><path d="m22 33c0-.5523-.4477-1-1-1h-12c-.55229 0-1 .4477-1 1s.44771 1 1 1h12c.5523 0 1-.4477 1-1z"/><path d="m30.5001 16h-8.6005c-.9805 0-1.9544.1602-2.8832.4743l-4.4199 1.4947c-.2786.0943-.5016.3063-.6097.5798-.1081.2736-.0903.5808.0487.84l4.3333 8.0837c.1741.3248.5128.5275.8813.5275h8.75c.2709 0 .5303-.1099.7187-.3046l5-5.167-1.4373-1.3908-4.7052 4.8624h-7.7276l-3.4923-6.5148 3.3007-1.1163c.7224-.2443 1.4799-.3689 2.2425-.3689h8.6005z"/><path d="m4.99992 20h10.08328v-2h-11.08328c-.55229 0-1 .4477-1 1v3.5c0 .5095.38314.9376.88957.9939l13.50001 1.5.2209-1.9878-12.61048-1.4011z"/><path d="m28 26h-7c-1.6569 0-3 1.3431-3 3v2c0 1.6569 1.3431 3 3 3h4c1.6569 0 3-1.3431 3-3zm-2 2v3c0 .5523-.4477 1-1 1h-4c-.5523 0-1-.4477-1-1v-2c0-.5523.4477-1 1-1z"/><path d="m36.433 13.4108c-.1882-.2581-.4885-.4108-.808-.4108h-6.625v2h6.1165l2.9167 4h-6.0332v2h8c.3763 0 .7208-.2113.8914-.5468.1706-.3354.1383-.7383-.0834-1.0424z"/></g></svg>