<svg fill="none" height="48" viewBox="0 0 48 48" width="48" xmlns="http://www.w3.org/2000/svg"><g fill="#333"><path clip-rule="evenodd" d="m13 40c2.7614 0 5-2.2386 5-5s-2.2386-5-5-5-5 2.2386-5 5 2.2386 5 5 5zm0 2c3.866 0 7-3.134 7-7s-3.134-7-7-7c-3.86599 0-7 3.134-7 7s3.13401 7 7 7z" fill-rule="evenodd"/><path d="m14.75 35c0 .9665-.7835 1.75-1.75 1.75s-1.75-.7835-1.75-1.75.7835-1.75 1.75-1.75 1.75.7835 1.75 1.75z"/><path clip-rule="evenodd" d="m35 40c2.7614 0 5-2.2386 5-5s-2.2386-5-5-5-5 2.2386-5 5 2.2386 5 5 5zm0 2c3.866 0 7-3.134 7-7s-3.134-7-7-7-7 3.134-7 7 3.134 7 7 7z" fill-rule="evenodd"/><path d="m36.75 35c0 .9665-.7835 1.75-1.75 1.75s-1.75-.7835-1.75-1.75.7835-1.75 1.75-1.75 1.75.7835 1.75 1.75z"/><path clip-rule="evenodd" d="m35 18c2.7614 0 5-2.2386 5-5s-2.2386-5-5-5-5 2.2386-5 5 2.2386 5 5 5zm0 2c3.866 0 7-3.134 7-7 0-3.86599-3.134-7-7-7s-7 3.13401-7 7c0 3.866 3.134 7 7 7z" fill-rule="evenodd"/><path d="m36.75 13c0 .9665-.7835 1.75-1.75 1.75s-1.75-.7835-1.75-1.75.7835-1.75 1.75-1.75 1.75.7835 1.75 1.75z"/><path clip-rule="evenodd" d="m13 18c2.7614 0 5-2.2386 5-5s-2.2386-5-5-5-5 2.2386-5 5 2.2386 5 5 5zm0 2c3.866 0 7-3.134 7-7 0-3.86599-3.134-7-7-7-3.86599 0-7 3.13401-7 7 0 3.866 3.13401 7 7 7z" fill-rule="evenodd"/><path d="m14.75 13c0 .9665-.7835 1.75-1.75 1.75s-1.75-.7835-1.75-1.75.7835-1.75 1.75-1.75 1.75.7835 1.75 1.75z"/><path clip-rule="evenodd" d="m18.72 23.7755-5.72 11.2245 11-5.8367 11 5.8367-5.72-11.2245 5.28-10.7755-10.56 5.3878-10.56-5.3878zm-.8435-6.2667 2.6395 5.3867c.2769.565.2717 1.2274-.014 1.7881l-2.844 5.5807 5.4046-2.8677c.5862-.3111 1.2886-.3111 1.8748 0l5.4046 2.8677-2.844-5.5807c-.2857-.5607-.2909-1.2231-.014-1.7881l2.6395-5.3867-5.2146 2.6605c-.5709.2913-1.2469.2913-1.8178 0z" fill-rule="evenodd"/></g></svg>