<svg fill="none" height="48" viewBox="0 0 48 48" width="48" xmlns="http://www.w3.org/2000/svg"><g fill="#333"><path clip-rule="evenodd" d="m42.1198 16.1733 1.8066 4.4505-1.8531.7523-1.6645-4.1006-9.4131.7918c-.0377 3.7701-.3464 7.3722-1.8864 10.0929-.8525 1.506-2.0758 2.7356-3.7927 3.5772-1.7017.8342-3.8371 1.2626-6.4898 1.2626-5.1089 0-7.8096-.1032-9.24295-.2091-.71437-.0528-1.13631-.1077-1.39464-.1565-.12874-.0243-.23725-.0508-.33075-.0826-.04766-.0162-.10173-.0372-.15813-.0654-.02877-.0144-.06098-.032-.09504-.0536-.01717-.0109-.03533-.0232-.05415-.0369-.00943-.0068-.0191-.0141-.02896-.0219l-.01495-.0119-.0076-.0063c-.00385-.0032-.00767-.0065.63981-.7685-.93786.347-.93848.3453-.93848.3453l-.00074-.002-.00185-.0051-.00506-.0141c-.00397-.0112-.0091-.0259-.01525-.044-.01229-.0361-.02865-.086-.0479-.1486-.03845-.1252-.08855-.3019-.14058-.5229-.10386-.441-.21668-1.0638-.25846-1.8091-.08348-1.489.11555-3.4997 1.26892-5.5166 1.74407-3.0498 5.49846-5.8513 12.99996-7.0752v-2.795c0-.5523.4477-1 1-1s1 .4477 1 1v2.5174c2.066-.2396 4.3821-.3706 6.9767-.3714l10.3277-.8687 1.7409-5.5754 1.9091.5961zm-33.18689 14.5496c-.08122-.3481-.17129-.848-.20493-1.4481-.02187-.3901-.01981-.8193.02301-1.2748h11.16901c.4082 0 .7046-.201.8739-.3576.1701-.1574.2939-.343.3836-.5009.1813-.3192.3324-.7238.4615-1.1406.2626-.8481.4987-1.9637.6961-3.0946.2675-1.5324.4792-3.1847.5869-4.367 1.7906-.2197 3.8055-.3555 6.0723-.3865-.0444 3.7043-.3668 6.7984-1.6255 9.0222-.6656 1.1759-1.5981 2.1125-2.9325 2.7666-1.3497.6616-3.1613 1.0584-5.6095 1.0584-5.0926 0-7.7357-.1032-9.09559-.2036-.34954-.0259-.60848-.0511-.7983-.0735zm11.95019-11.8818c-6.8113 1.1938-9.8346 3.7271-11.1469 6.022-.21753.3803-.39255.7611-.53204 1.1369h10.31044c.0619-.1395.1346-.3346.2139-.5907.2249-.7262.4438-1.7434.6364-2.8469.229-1.312.4091-2.6758.5182-3.7213z" fill-rule="evenodd"/><path d="m8.13944 31.5873-.64748.762c-.13081-.1111-.23081-.254-.29038-.415z"/><path d="m5 10c-.55228 0-1 .4477-1 1s.44772 1 1 1h33.0048c.5523 0 1-.4477 1-1s-.4477-1-1-1z"/><path d="m4.37534 34.2192c.43126-.345 1.06056-.2751 1.40557.1561.22088.2761.78338.6006 1.75809.88.92409.2649 2.03732.4403 3.1351.5536 1.0915.1126 2.1357.1606 2.9094.1803.386.0098.7026.0125.9217.0128.1095.0001.1945-.0003.2514-.0008l.0639-.0007.0153-.0002.0034-.0001.0092-.0002h15.6516c.5523 0 1 .4478 1 1 0 .5523-.4477 1-1 1h-15.635l-.018.0003-.073.0008c-.0631.0005-.1548.001-.2713.0009-.2329-.0003-.5659-.0032-.97-.0134-.8067-.0206-1.9054-.0707-3.0639-.1903-1.15219-.1189-2.3961-.3095-3.48094-.6205-1.03422-.2964-2.13243-.7577-2.76869-1.5531-.34501-.4312-.27509-1.0605.15617-1.4055z"/></g></svg>