<svg fill="none" height="48" viewBox="0 0 48 48" width="48" xmlns="http://www.w3.org/2000/svg"><g fill="#333"><path clip-rule="evenodd" d="m29.7124 24.1887c.3708-.125.7627-.1889 1.1577-.1889h1.1122c.1448 0 .2593-.1227.2494-.2672l-.4495-6.5172c-.0181-.2622-.2364-.4671-.4989-.4538-4.2664.2163-7.694 3.3865-7.9573 7.7344l-.035.5788c-.0204.3355.2897.5951.6165.5162zm.1878-5.193c-2.0806.5719-3.6897 2.099-4.3113 4.1316l3.5778-.8643c.3083-.0979.6244-.1687.9442-.212z" fill-rule="evenodd"/><path clip-rule="evenodd" d="m10.5 6c-1.93301 0-3.50001 1.567-3.50001 3.5 0 .5765.13936 1.1204.38623 1.5999l-1.1607 13.2763c-.00186.0213-.00294.0424-.00327.0634l-.08196 2.3206c-.08949 2.5339 1.77823 4.7134 4.29591 5.013l.1806.0215c1.9365.2304 3.824-.7154 4.7986-2.4045l2.1961-3.8062c.4945-.857-.2785-1.889-1.24-1.6554l-1.6815.4085-2.5476-.1656-1.0664-.1269 1.6923-11.2212c1.8145.5616 3.6072 1.1578 5.1526 2.002 1.4947.8165 2.6878 1.8284 3.4167 3.1972-1.2831 1.7927-2.0864 3.9574-2.2172 6.3118l-.3117 5.6101c-.0319.5732.4244 1.0555.9984 1.0555h21.6495c.2926 0 .5226-.25.4983-.5415l-.5902-7.0831c-.0648-.7774-.7147-1.3754-1.4948-1.3754h-3.8263c-.025 0-.0461-.0184-.0495-.0431l-1.0045-7.232c-.1373-.9888-.9827-1.7249-1.981-1.7249h-1.9067c-1.8166 0-3.543.4048-5.091 1.131-2.9141-4.40759-8.0121-5.64953-12.6486-6.64572-.6335-.89844-1.6794-1.48528-2.8623-1.48528zm-1.50001 3.5c0-.82843.67157-1.5 1.50001-1.5.8284 0 1.5.67157 1.5 1.5 0 .8284-.6716 1.5-1.5 1.5-.82844 0-1.50001-.6716-1.50001-1.5zm1.97681 3.4678c-.1559.0212-.3151.0322-.4768.0322-.53446 0-1.04093-.1198-1.49403-.334l-1.03487 11.8371-.0819 2.3189c-.05736 1.6243 1.13989 3.0214 2.7538 3.2134l.1806.0215c1.2413.1477 2.4512-.4585 3.076-1.5413l1.4667-2.5419-.3559.0865c-.1108.0268-.2249.0368-.3386.0294l-2.6896-.1748-1.7533-.2086c-.63062-.0751-1.07417-.6569-.97946-1.2849zm7.9029.1024c-1.6331-.8921-3.4812-1.5217-5.2194-2.0642.1942-.4069.3122-.8571.3354-1.33219 4.2543.96169 8.0366 2.15769 10.278 5.45739-.5568.3858-1.0796.8177-1.5628 1.2902-.967-1.4693-2.3357-2.5342-3.8312-3.3512zm2.2376 11.3751c.2944-5.2992 4.6772-9.4453 9.9846-9.4453h1.9067l1.0045 7.232c.1407 1.0135 1.0073 1.768 2.0305 1.768h3.3662l.4167 5h-18.9623z" fill-rule="evenodd"/><path d="m23.5 39c.8284 0 1.5-.6716 1.5-1.5s-.6716-1.5-1.5-1.5-1.5.6716-1.5 1.5.6716 1.5 1.5 1.5z"/><path d="m31 37.5c0 .8284-.6716 1.5-1.5 1.5s-1.5-.6716-1.5-1.5.6716-1.5 1.5-1.5 1.5.6716 1.5 1.5z"/><path d="m35.5 39c.8284 0 1.5-.6716 1.5-1.5s-.6716-1.5-1.5-1.5-1.5.6716-1.5 1.5.6716 1.5 1.5 1.5z"/><path clip-rule="evenodd" d="m21.5 33c-2.4853 0-4.5 2.0147-4.5 4.5s2.0147 4.5 4.5 4.5h16c2.4853 0 4.5-2.0147 4.5-4.5s-2.0147-4.5-4.5-4.5zm16 2h-16c-1.3807 0-2.5 1.1193-2.5 2.5s1.1193 2.5 2.5 2.5h16c1.3807 0 2.5-1.1193 2.5-2.5s-1.1193-2.5-2.5-2.5z" fill-rule="evenodd"/></g></svg>