<svg fill="none" height="48" viewBox="0 0 48 48" width="48" xmlns="http://www.w3.org/2000/svg"><g clip-rule="evenodd" fill="#333" fill-rule="evenodd"><path d="m4 13c0-1.6569 1.34315-3 3-3h22c1.6569 0 3 1.3431 3 3v6h3.718c.7542 0 1.4807.2841 2.0349.7956l5.2819 4.8757c.6153.5679.9652 1.3671.9652 2.2044v8.1243h-4v-2h2v-6.1243c0-.2791-.1166-.5455-.3217-.7348l-5.282-4.8757c-.1847-.1705-.4269-.2652-.6783-.2652h-3.718v12h2v2h-11v-2h7v-20c0-.5523-.4477-1-1-1h-22c-.55228 0-1 .4477-1 1v20h3v2h-5zm10 20h3v2h-3z"/><path d="m11 36c1.1046 0 2-.8954 2-2s-.8954-2-2-2c-1.10457 0-2 .8954-2 2s.89543 2 2 2zm0 2c2.2091 0 4-1.7909 4-4s-1.7909-4-4-4c-2.20914 0-4 1.7909-4 4s1.79086 4 4 4z"/><path d="m20 36c1.1046 0 2-.8954 2-2s-.8954-2-2-2-2 .8954-2 2 .8954 2 2 2zm0 2c2.2091 0 4-1.7909 4-4s-1.7909-4-4-4-4 1.7909-4 4 1.7909 4 4 4z"/><path d="m37 36c1.1046 0 2-.8954 2-2s-.8954-2-2-2-2 .8954-2 2 .8954 2 2 2zm0 2c2.2091 0 4-1.7909 4-4s-1.7909-4-4-4-4 1.7909-4 4 1.7909 4 4 4z"/><path d="m43 28h-38v-2h38z"/><path d="m17 23v-8h2v8z"/><path d="m22 20h-8v-2h8z"/></g></svg>