<svg fill="none" height="48" viewBox="0 0 48 48" width="48" xmlns="http://www.w3.org/2000/svg"><path clip-rule="evenodd" d="m13.8064 14.0986c0 .0005 0 .0011.0001.0016.0014.0211.0054.0708.016.1451.0213.1489.0685.3935.1715.7028.2039.6116.6322 1.4948 1.5492 2.4118l3.7367 3.7368-10.45157 10.4516 1.1506 1.1506 14.91637-5.7371 8.2659 6.1994-6.1994-8.2659 5.7371-14.91637-1.1506-1.1506-10.4516 10.45157-3.7368-3.7367c-.917-.917-1.8002-1.3453-2.4118-1.5492-.3093-.103-.5539-.1502-.7028-.1715-.0743-.0106-.124-.0146-.1451-.016-.0005-.0001-.0011-.0001-.0016-.0001h-.2922zm2.6451-6.9374c1.1613-1.16129 2.3226 0 1.1613 1.16129l-3.4839 3.48391s.1687 0 .4605.0454c.3982.062 1.0257.2086 1.7673.5552.7318.3422 1.5746.8791 2.4174 1.7219l2.3226 2.3226 9.0374-9.03738c.781-.78105 2.0474-.78105 2.8284 0l1.1506 1.1506c.5589.55888.7362 1.39448.4525 2.13218l-5.3399 13.8837 6.9678 9.2903 4.0298-2.015c.3675-.1837.8113-.1117 1.1017.1788.3728.3727.3728.977 0 1.3498l-7.9405 7.9405c-.3728.3728-.9771.3728-1.3498 0-.2905-.2904-.3625-.7342-.1788-1.1017l2.015-4.0298-9.2903-6.9678-13.8837 5.3399c-.73771.2837-1.5733.1064-2.13218-.4525l-1.1506-1.1506c-.78105-.781-.78105-2.0474 0-2.8284l9.03738-9.0374-2.3226-2.3226c-.8428-.8428-1.3797-1.6856-1.7219-2.4174-.3466-.7416-.4932-1.3691-.5552-1.7673-.0454-.2918-.0454-.4605-.0454-.4605l-3.48391 3.4839c-1.16129 1.1613-2.32258 0-1.16129-1.1613z" fill="#333" fill-rule="evenodd"/></svg>