<svg fill="none" height="48" viewBox="0 0 48 48" width="48" xmlns="http://www.w3.org/2000/svg"><g fill="#333"><g clip-rule="evenodd" fill-rule="evenodd"><path d="m17.9592 33.0358c-.1016-.0048-.2146-.0092-.34-.013-.7358-.0222-1.7307-.0224-3.1192-.0224-1.3884 0-2.3833.0002-3.1191.0225-.1255.0038-.2385.0082-.3401.013.2579 1.6786 1.7084 2.9641 3.4592 2.9641s3.2014-1.2855 3.4592-2.9642zm-7.7456.0816c-.0003.0001.0003-.0001 0 0zm8.5719-.0004c-.0003-.0001.0004.0001 0 0zm-4.2855 4.883c3.0376 0 5.5-2.4624 5.5-5.5 0-.444 0-.7566-.1427-.9766-.3393-.5232-1.4855-.523-5.3573-.523-5.5 0-5.5 0-5.5 1.4996 0 3.0376 2.4624 5.5 5.5 5.5z"/><path d="m31.175 16h4.825v12h-2v-10h-1.175l-2.8432 14.69-1.9636-.38z"/><path d="m38.4476 35.9376c1.8986-.3632 3.1432-2.1968 2.7799-4.0954l1.9644-.3758c.5708 2.9834-1.385 5.8647-4.3684 6.4356-2.9835.5708-5.8648-1.385-6.4356-4.3684l1.9643-.3759c.3633 1.8986 2.1969 3.1432 4.0954 2.7799z"/><path d="m40.371 28.8124c-.9776-.6846-2.1872-.9527-3.3625-.7455-1.1754.2073-2.2202.8729-2.9048 1.8506-.4899.6997-.7666 1.5183-.8083 2.3581l8.6417-1.5237c-.3264-.775-.8664-1.4496-1.5661-1.9395zm1.6783 1.9196c.0006-.0001 0 0 0 0zm-5.3881-4.6347c1.6977-.2993 3.4448.088 4.857 1.0768 1.0869.7611 1.9068 1.8305 2.3634 3.0568.4549 1.2221-.459 2.2899-1.4864 2.471l-8.8633 1.5629c-1.0274.1811-2.2514-.5097-2.2418-1.8137.0095-1.3085.4142-2.5938 1.1753-3.6808.9888-1.4121 2.4981-2.3736 4.1958-2.673z"/><path d="m21 20h-9c-.5523 0-1 .4477-1 1v2h11v-2c0-.5523-.4477-1-1-1zm-9-2c-1.6569 0-3 1.3431-3 3v3c0 .5523.44772 1 1 1h13c.5523 0 1-.4477 1-1v-3c0-1.6569-1.3431-3-3-3z"/><path d="m21 25h-6.9136c-3.9738 0-7.15191 2.6346-7.91269 6h14.71519c.0579 0 .0935-.0185.1111-.0324zm-6.9136-2c-5.57056 0-10.0864 4.2782-10.0864 9.5556 0 .2454.21004.4444.46914.4444h16.41976c1.1659 0 2.1111-.8954 2.1111-2v-7.2c0-.4418-.3781-.8-.8444-.8z"/><path d="m35 12h-2c-1.1046 0-2 .8954-2 2s.8954 2 2 2h2zm-2-2c-2.2091 0-4 1.7909-4 4s1.7909 4 4 4h3.3846c.3399 0 .6154-.2755.6154-.6154v-6.7692c0-.3399-.2755-.6154-.6154-.6154z"/></g><path d="m25.3462 11 4.9245.8655-.3462 1.9698-4.9245-.8655z"/><path clip-rule="evenodd" d="m32 33h-12v-2h12z" fill-rule="evenodd"/><path clip-rule="evenodd" d="m30 28h-9v-2h9z" fill-rule="evenodd"/></g></svg>