<svg fill="none" height="48" viewBox="0 0 48 48" width="48" xmlns="http://www.w3.org/2000/svg"><g fill="#333"><g clip-rule="evenodd" fill-rule="evenodd"><path d="m17.9592 31.0357c-.1016-.0048-.2146-.0092-.34-.013-.7358-.0223-1.7307-.0225-3.1192-.0225-1.3884 0-2.3833.0003-3.1191.0226-.1255.0038-.2385.0082-.3401.013.2579 1.6786 1.7084 2.9641 3.4592 2.9641s3.2014-1.2856 3.4592-2.9642zm-6.9529-.8935c.0001.0001-.0002.0031-.0009.0085.0005-.0058.0009-.0086.0009-.0085zm-.7927.9751c.0003-.0001.0007-.0002.001-.0003zm8.5719-.0004c.0004.0001.0007.0002.001.0003zm-.7909-.9663c-.0008-.0055-.001-.0084-.0009-.0085 0-.0001.0004.0026.0009.0085zm-3.4946 5.8493c3.0376 0 5.5-2.4624 5.5-5.5 0-.4441 0-.7566-.1427-.9766-.3393-.5232-1.4855-.5231-5.3573-.5231-5.5 0-5.5.0001-5.5 1.4997 0 3.0376 2.4624 5.5 5.5 5.5z"/><path d="m28.4942 27h-5.4942v2h5.239zm-7.4942-2v6h9l.7656-6z"/><path d="m30.1529 17h4.8472v9h-2v-7h-1.1529l-1.8607 11.1644-1.9728-.3288z"/><path d="m33.0625 31.1578c.3633 1.8986 2.1968 3.1432 4.0954 2.7799 1.8986-.3632 3.1432-2.1968 2.7799-4.0954l1.9644-.3758c.5708 2.9834-1.385 5.8647-4.3684 6.4356-2.9835.5708-5.8648-1.385-6.4357-4.3684z"/><path d="m40.6472 28.7519c-.3265-.7749-.8664-1.4495-1.5661-1.9394-.9777-.6846-2.1872-.9527-3.3626-.7455-1.1753.2072-2.2202.8729-2.9047 1.8505-.49.6998-.7667 1.5184-.8083 2.3582zm.1121-.0198c.0006-.0002 0 0 0 0zm.3459 1.9699-8.8632 1.5629c-1.0274.1811-2.2514-.5097-2.2419-1.8137.0096-1.3085.4143-2.5938 1.1754-3.6808.9888-1.4121 2.498-2.3737 4.1957-2.673 1.6978-.2994 3.4449.088 4.857 1.0768 1.087.761 1.9069 1.8305 2.3634 3.0568.4549 1.222-.459 2.2899-1.4864 2.471z"/><path d="m21 19h-9c-.5523 0-1 .4477-1 1v1h11v-1c0-.5523-.4477-1-1-1zm-9-2c-1.6569 0-3 1.3431-3 3v2c0 .5523.44772 1 1 1h13c.5523 0 1-.4477 1-1v-2c0-1.6569-1.3431-3-3-3z"/><path d="m21 23h-6.4444c-3.6396 0-6.67817 2.5734-7.3953 6h13.8397zm-6.4444-2c-5.27743 0-9.5556 4.2782-9.5556 9.5556 0 .2454.19898.4444.44444.4444h15.55556c1.1046 0 2-.8954 2-2v-7.2c0-.4418-.3582-.8-.8-.8z"/><path d="m35 14h-2.5c-.8284 0-1.5.6716-1.5 1.5s.6716 1.5 1.5 1.5h2.5zm-2.5-2c-1.933 0-3.5 1.567-3.5 3.5s1.567 3.5 3.5 3.5h3.8846c.3399 0 .6154-.2755.6154-.6154v-5.7692c0-.3399-.2755-.6154-.6154-.6154z"/></g><path d="m25.1731 13.9849c.0956-.5439.614-.9074 1.158-.8118l2.9547.5193c.544.0956.9074.614.8118 1.158-.0956.5439-.614.9074-1.158.8118l-2.9547-.5193c-.5439-.0956-.9074-.614-.8118-1.158z"/></g></svg>