<svg fill="none" height="48" viewBox="0 0 48 48" width="48" xmlns="http://www.w3.org/2000/svg"><g fill="#333"><path d="m31 18c0-.5523.4477-1 1-1h11c.5523 0 1 .4477 1 1s-.4477 1-1 1h-11c-.5523 0-1-.4477-1-1z"/><g clip-rule="evenodd" fill-rule="evenodd"><path d="m9.15885 21.9997c5.59785-.0003 8.60565-.0001 11.83295.0001 2.8222.0001 5.8124.0003 10.8496.0002-.9192-5.7275-5.697-10-11.3413-10-5.6442 0-10.4219 4.2724-11.34125 9.9997zm22.83645 0-.0012.0002zm-22.98986 0-.00121-.0002zm-1.86936.0055c-.15052 1.0943.76677 1.9946 1.8714 1.9945 5.69532-.0003 8.72772-.0001 11.98362.0001 2.8502.0001 5.8717.0003 11.0011.0001 1.1045 0 2.0224-.9002 1.8719-1.9945-.9335-6.7872-6.5611-12.0054-13.364-12.0054-6.8028 0-12.43042 5.2181-13.36402 12.0052z"/><path d="m40.8128 28h-33.62565c-.45526 0-.79866.2044-.99518.4612-.19194.2509-.24116.5363-.14066.8203l1.39727 3.9487c.564 1.5939 2.20041 2.7698 4.15712 2.7698h24.7886c1.9567 0 3.5931-1.1759 4.1571-2.7698l1.3973-3.9487c.1005-.284.0513-.5694-.1407-.8203-.1965-.2568-.5399-.4612-.9952-.4612zm-33.62565-2c-2.17375 0-3.70868 2.0061-3.02128 3.9487l1.39727 3.9487c.86696 2.45 3.30097 4.1026 6.04256 4.1026h24.7886c2.7416 0 5.1756-1.6526 6.0426-4.1026l1.3972-3.9487c.6874-1.9426-.8475-3.9487-3.0213-3.9487z"/><path d="m15 33c.5523 0 1-.4477 1-1s-.4477-1-1-1-1 .4477-1 1 .4477 1 1 1zm0 2c1.6569 0 3-1.3431 3-3 0-1.6568-1.3431-3-3-3s-3 1.3432-3 3c0 1.6569 1.3431 3 3 3z"/><path d="m24 33c.5523 0 1-.4477 1-1s-.4477-1-1-1-1 .4477-1 1 .4477 1 1 1zm0 2c1.6569 0 3-1.3431 3-3 0-1.6568-1.3431-3-3-3s-3 1.3432-3 3c0 1.6569 1.3431 3 3 3z"/><path d="m33 33c.5523 0 1-.4477 1-1s-.4477-1-1-1-1 .4477-1 1 .4477 1 1 1zm0 2c1.6569 0 3-1.3431 3-3 0-1.6568-1.3431-3-3-3s-3 1.3432-3 3c0 1.6569 1.3431 3 3 3z"/></g></g></svg>