<svg fill="none" height="48" viewBox="0 0 48 48" width="48" xmlns="http://www.w3.org/2000/svg"><g fill="#333"><path clip-rule="evenodd" d="m16.7358 8.57878c.4288-1.6004 2.0738-2.55015 3.6742-2.12132l16.4207 4.39994c1.6004.4288 2.5502 2.0738 2.1213 3.6742l-.1294.483 2.2132.5931c.5335.1429.8501.6912.7072 1.2247l-.9059 3.3807c-.143.5335-.6913.8501-1.2248.7072l-2.2132-.5931-.4165 1.5544c.0405.0728.0766.1486.108.2269l.8583 2.1404c.161.4015.1875.8443.0756 1.262l-1.2298 4.5896c-.2859 1.0669-1.3826 1.7001-2.4495 1.4142l-5.7431-1.5389 1.4486-5.4061c.1429-.5334-.1737-1.0818-.7071-1.2247l-8.6934-2.3294c-.5334-.1429-1.0818.1737-1.2247.7071l-1.4486 5.4061-6.235-1.6706c-1.0669-.2859-1.7001-1.3826-1.4142-2.4495l1.1976-4.4696c.1315-.4906.4446-.9128.876-1.1809l2.292-1.4249c.0281-.0174.0565-.0341.0852-.0501l.4044-1.5089-2.3136-.6199c-.5334-.143-.85-.6913-.7071-1.2248l.9059-3.38071c.1429-.53346.6913-.85004 1.2248-.7071l2.3135.6199zm3.1566-.18947c-.5335-.14294-1.0819.17364-1.2248.70711l-1.5529 5.79558 18.3526 4.9175 1.5529-5.7955c.1429-.5335-.1736-1.0818-.7071-1.2248zm-4.6241 15.32539c.8002.2144 1.6227-.2605 1.8371-1.0607s-.2605-1.6227-1.0607-1.8371-1.6227.2605-1.8371 1.0607.2605 1.6227 1.0607 1.8371zm19.2238 3.598c-.2144.8002-1.0369 1.2751-1.8371 1.0607s-1.2751-1.0369-1.0607-1.8371 1.0369-1.2751 1.8371-1.0607 1.2751 1.0369 1.0607 1.8371z" fill-rule="evenodd"/><path d="m15 38.9998c0-1.0608-.4741-2.0782-1.318-2.8284-.8439-.7501-1.9885-1.1716-3.182-1.1716-1.19347 0-2.33807.4215-3.18198 1.1716-.84391.7502-1.31802 1.7676-1.31802 2.8284v2c0 .5523.44772 1 1 1h27.5c.5523 0 1-.4477 1-1 0-.5522-.4477-1-1-1h-9.5c0-.5304-.2107-1.0391-.5858-1.4142-.3751-.375-.8838-.5858-1.4142-.5858s-1.0391.2108-1.4142.5858c-.3751.3751-.5858.8838-.5858 1.4142 0-.7956-.3161-1.5587-.8787-2.1213s-1.3257-.8787-2.1213-.8787-1.5587.3161-2.1213.8787-.8787 1.3257-.8787 2.1213z"/><path d="m17.6447 28.9454-5.7955-1.553-.7599 2.8357c-.1429.5335.1737 1.0818.7072 1.2248l3.8637 1.0352c.5334.143 1.0818-.1736 1.2247-.7071z"/><path d="m28.4454 31.886 5.7955 1.5529-.7481 2.7922c-.143.5334-.6913.85-1.2248.7071l-3.8637-1.0353c-.5334-.1429-.85-.6913-.7071-1.2247z"/><path d="m20.0632 27.07 1.0353-3.8637 2.5161.6742-1.1272 3.8391z"/><path d="m24.4198 28.2373 1.1272-3.839 2.313.6197-1.0353 3.8637z"/></g></svg>