<svg fill="none" height="48" viewBox="0 0 48 48" width="48" xmlns="http://www.w3.org/2000/svg"><g clip-rule="evenodd" fill="#333" fill-rule="evenodd"><path d="m28 15h2v4h5.718c.7542 0 1.4807.2841 2.0349.7956l5.2819 4.8757c.6153.5679.9652 1.3671.9652 2.2044v8.1243h-6v-2h4v-6.1243c0-.2791-.1166-.5455-.3217-.7348l-5.282-4.8757c-.1847-.1705-.4269-.2652-.6783-.2652h-5.718v12h2v2h-3.5v-1h-.5z"/><path d="m12 36c1.1046 0 2-.8954 2-2s-.8954-2-2-2-2 .8954-2 2 .8954 2 2 2zm0 2c2.2091 0 4-1.7909 4-4s-1.7909-4-4-4c-2.20914 0-4 1.7909-4 4s1.79086 4 4 4z"/><path d="m35 36c1.1046 0 2-.8954 2-2s-.8954-2-2-2-2 .8954-2 2 .8954 2 2 2zm0 2c2.2091 0 4-1.7909 4-4s-1.7909-4-4-4-4 1.7909-4 4 1.7909 4 4 4z"/><path d="m43 28h-14v-2h14z"/><path d="m33 16c.5523 0 1 .4477 1 1v3h-2v-3c0-.5523.4477-1 1-1z"/><path d="m6 14h22c1.1046 0 2 .8954 2 2v19h-14.126c.0822-.3196.126-.6547.126-1 0-2.2091-1.7909-4-4-4-2.20914 0-4 1.7909-4 4 0 .3453.04375.6804.12602 1h-4.12602v-19c0-1.1046.89543-2 2-2zm10 8v-3h2v3h3v2h-3v3h-2v-3h-3v-2z"/><path d="m14 17h6v3h3v6h-3v3h-4.6822c1.3528.8994 2.3196 2.3332 2.5992 4h10.083v-17h-22v17h.08296c.47608-2.8377 2.94404-5 5.91704-5 .7013 0 1.3744.1203 2 .3414v-2.3414h-3v-6h3zm-5.87398 16c-.08227.3196-.12602.6547-.12602 1s.04375.6804.12602 1h-4.12602v-19c0-1.1046.89543-2 2-2h22c1.1046 0 2 .8954 2 2v19h-14.126c.0822-.3196.126-.6547.126-1s-.0438-.6804-.126-1c-.4441-1.7252-2.0102-3-3.874-3s-3.42994 1.2748-3.87398 3zm7.87398-11h-3v2h3v3h2v-3h3v-2h-3v-3h-2z"/><path d="m35 20h-4v-2h4z"/><path d="m33 13.5c-.5523 0-1-.4477-1-1v-1.5c0-.5523.4477-1 1-1s1 .4477 1 1v1.5c0 .5523-.4477 1-1 1z"/><path d="m36.5 17c0-.5523.4477-1 1-1h1.5c.5523 0 1 .4477 1 1s-.4477 1-1 1h-1.5c-.5523 0-1-.4477-1-1z"/><path d="m35.759 14.1715c-.3709-.4093-.3397-1.0417.0695-1.4125l.9142-.8284c.4093-.3709 1.0417-.3398 1.4125.0695.3709.4092.3397 1.0416-.0695 1.4125l-.9142.8284c-.4093.3709-1.0417.3397-1.4125-.0695z"/></g></svg>