<svg fill="none" height="48" viewBox="0 0 48 48" width="48" xmlns="http://www.w3.org/2000/svg"><g fill="#333"><path d="m31 14 1-2h-2z"/><path clip-rule="evenodd" d="m9 14c-1.65685 0-3 1.3431-3 3v18h4.126c.4441 1.7252 2.0102 3 3.874 3s3.4299-1.2748 3.874-3h11.252c.4441 1.7252 2.0102 3 3.874 3s3.4299-1.2748 3.874-3h5.126v-8.1243c0-.8373-.3499-1.6365-.9652-2.2044l-5.2819-4.8757c-.5542-.5115-1.2807-.7956-2.0349-.7956h-.718v-1h-1v-1c0-.5523-.4477-1-1-1s-1 .4477-1 1v1h-1v1h-1v-2c0-1.6569-1.3431-3-3-3zm24 16c-1.8638 0-3.4299 1.2748-3.874 3h-1.126v-5h12v5h-3.126c-.4441-1.7252-2.0102-3-3.874-3zm6.5257-4h-11.5257v-5h5.718c.2514 0 .4936.0947.6783.2652zm-23.5257 8c0 1.1046-.8954 2-2 2s-2-.8954-2-2 .8954-2 2-2 2 .8954 2 2zm17 2c1.1046 0 2-.8954 2-2s-.8954-2-2-2-2 .8954-2 2 .8954 2 2 2zm-16-18c.5523 0 1 .4477 1 1v3h3c.5523 0 1 .4477 1 1s-.4477 1-1 1h-3v3c0 .5523-.4477 1-1 1s-1-.4477-1-1v-3h-3c-.5523 0-1-.4477-1-1s.4477-1 1-1h3v-3c0-.5523.4477-1 1-1z" fill-rule="evenodd"/><path d="m33.7071 14.1213 2.1213-.7071-1.4142-1.4142z"/><path d="m34 17 2 1v-2z"/></g></svg>