<svg fill="none" height="48" viewBox="0 0 48 48" width="48" xmlns="http://www.w3.org/2000/svg"><g fill="#333"><g clip-rule="evenodd" fill-rule="evenodd"><path d="m37.5 35c-1.933 0-3.5-1.567-3.5-3.5s1.567-3.5 3.5-3.5 3.5 1.567 3.5 3.5-1.567 3.5-3.5 3.5zm0 3c-3.5899 0-6.5-2.9101-6.5-6.5s2.9101-6.5 6.5-6.5 6.5 2.9101 6.5 6.5-2.9101 6.5-6.5 6.5z"/><path d="m29.4157 10.598c-.1596-.3633-.5188-.598-.9157-.598h-5.5v2h4.8469l8.7374 19.902c.2221.5057.812.7357 1.3177.5136.5057-.222.7356-.8119.5136-1.3176z"/><path d="m10.5 35c-1.933 0-3.5-1.567-3.5-3.5s1.567-3.5 3.5-3.5 3.5 1.567 3.5 3.5-1.567 3.5-3.5 3.5zm0 3c-3.58985 0-6.5-2.9101-6.5-6.5s2.91015-6.5 6.5-6.5c3.5899 0 6.5 2.9101 6.5 6.5s-2.9101 6.5-6.5 6.5z"/><path d="m33.6306 22.7239c-.4286-.3483-1.0584-.2831-1.4067.1455l-6.1999 7.6306h-15.524c-.55229 0-1 .4477-1 1s.44771 1 1 1h16c.3011 0 .5862-.1357.7761-.3694l6.5-8c.3483-.4286.2831-1.0584-.1455-1.4067z"/></g><path d="m28 25h-10.5c-.8284 0-1.5.6716-1.5 1.5s.6716 1.5 1.5 1.5h7.5c1.6569 0 3-1.3431 3-3z"/><path d="m27.9421 17h-4.2574c-3.1415 0-5.4466 2.9523-4.6847 6h10.3819c.7434 0 1.2269-.7823.8945-1.4472l-2.2505-4.501c-.0159-.0317-.0483-.0518-.0838-.0518z"/><path d="m6 19c0-.5523.44772-1 1-1h5.0969c1.5189 0 2.9555.6904 3.9043 1.8765l1.199 1.4988c.5239.6548.0577 1.6247-.7808 1.6247h-9.4194c-.55228 0-1-.4477-1-1z"/><path d="m34 16.5 6.0667-2.5.9333 6-6.0667-1z"/><path clip-rule="evenodd" d="m22.6258 31.9856-2.5-4.5 1.7484-.9712 2.5 4.5z" fill-rule="evenodd"/></g></svg>