<svg fill="none" height="48" viewBox="0 0 48 48" width="48" xmlns="http://www.w3.org/2000/svg"><g fill="#333"><g clip-rule="evenodd" fill-rule="evenodd"><path d="m38.5 35.5c-2.4853 0-4.5-2.0147-4.5-4.5s2.0147-4.5 4.5-4.5 4.5 2.0147 4.5 4.5-2.0147 4.5-4.5 4.5zm0 3c-4.1421 0-7.5-3.3579-7.5-7.5s3.3579-7.5 7.5-7.5 7.5 3.3579 7.5 7.5-3.3579 7.5-7.5 7.5z"/><path d="m29.4106 8.5862c-.1623-.357-.5182-.5862-.9104-.5862h-5.2499c-.5523 0-1 .44772-1 1s.4477 1 1 1h4.606l9.7336 21.4138c.2285.5028.8214.7251 1.3241.4966.5028-.2286.7251-.8214.4966-1.3242z"/><path d="m9.5 35.5c-2.48528 0-4.5-2.0147-4.5-4.5s2.01472-4.5 4.5-4.5c2.4853 0 4.5 2.0147 4.5 4.5s-2.0147 4.5-4.5 4.5zm0 3c-4.14214 0-7.5-3.3579-7.5-7.5s3.35786-7.5 7.5-7.5c4.1421 0 7.5 3.3579 7.5 7.5s-3.3579 7.5-7.5 7.5z"/><path d="m33.6441 20.7351c-.4224-.3557-1.0533-.3017-1.409.1208l-7.7004 9.1441h-15.03472c-.55229 0-1 .4477-1 1s.44771 1 1 1h15.50002c.295 0 .5749-.1302.7649-.3558l8-9.5c.3557-.4225.3017-1.0533-.1208-1.4091z"/><path d="m23.7568 30.669-4.5-5 1.4866-1.3379 4.5 5z"/></g><path d="m27.7764 15.5529c-.1694-.3388-.5156-.5528-.8944-.5528h-1.128c-3.5178 0-7.1228 1.2979-8.1508 4.6622-.0513.168.0743.3378.25.3378h10.5288c.7434 0 1.2268-.7823.8944-1.4472z"/><path d="m6 17.0001c0-.5523.44772-1 1-1h4.5c.3148 0 .6111.1482.8.4l1.5 2c.4944.6592.024 1.6-.8 1.6h-6c-.55228 0-1-.4478-1-1z"/><path d="m35.3764 16.441c-.2071-.5176.0491-1.1046.5695-1.3047l4.4102-1.6963c.5908-.2272 1.2413.1446 1.3454.769l.5714 3.4282c.1119.6716-.4655 1.2563-1.1385 1.1528l-4.57-.7031c-.3498-.0538-.645-.2885-.7765-.617z"/><path d="m26.5 23.5001c0-.5523-.4477-1-1-1h-7c-1.1046 0-2 .6454-2 1.75 0 1.1045.8954 1.75 2 1.75h6c1.1046 0 2-.6455 2-1.75z"/><path clip-rule="evenodd" d="m41.2083 14.2912c-.052-.3122-.3773-.4981-.6727-.3845l-4.4102 1.6963c-.2602.1-.3883.3935-.2848.6523l.4116 1.0289c.0657.1643.2133.2816.3882.3085l4.57.7031c.3365.0518.6252-.2405.5693-.5764zm-1.0317-1.3178c.8861-.3408 1.862.2169 2.0181 1.1534l.5714 3.4282c.1679 1.0075-.6983 1.8845-1.7077 1.7292l-4.5701-.7031c-.5246-.0807-.9675-.4326-1.1646-.9255l-.4116-1.0289c-.3105-.7764.0738-1.6569.8543-1.9571zm-23.0516 6.5428c1.1282-3.692 5.0457-5.0161 8.629-5.0161h1.128c.5681 0 1.0875.321 1.3416.8292l1.5 3c.4987.9973-.2266 2.1708-1.3416 2.1708h-10.5288c-.5117 0-.8777-.4946-.7282-.9839zm1.0609-.0161h10.1961c.3717 0 .6134-.3912.4472-.7236l-1.5-3c-.0847-.1694-.2578-.2764-.4472-.2764h-1.128c-3.3331 0-6.5172 1.1855-7.5681 4zm-12.6859-2.5c0-.8284.67157-1.5 1.5-1.5h4.5c.4721 0 .9167.2223 1.2.6l1.5 2c.7416.9889.0361 2.4-1.2 2.4h-6c-.82843 0-1.5-.6716-1.5-1.5zm1.5-.5c-.27614 0-.5.2239-.5.5v2c0 .2761.22386.5.5.5h6c.412 0 .6472-.4704.4-.8l-1.5-2c-.0944-.1259-.2426-.2-.4-.2zm9.7671 6.0755c.4679-.3871 1.0874-.5755 1.7329-.5755h7c.8284 0 1.5.6716 1.5 1.5v.75c0 .7003-.2896 1.2794-.7671 1.6745-.4679.3871-1.0874.5755-1.7329.5755h-6c-.6455 0-1.265-.1884-1.7329-.5755-.4775-.3951-.7671-.9742-.7671-1.6745s.2896-1.2794.7671-1.6745zm.6374.7705c-.2463.2038-.4045.4997-.4045.904s.1582.7002.4045.904c.2559.2117.6364.346 1.0955.346h6c.4591 0 .8396-.1343 1.0955-.346.2463-.2038.4045-.4997.4045-.904v-.75c0-.2761-.2239-.5-.5-.5h-7c-.4591 0-.8396.1343-1.0955.346z" fill-rule="evenodd"/></g></svg>