<svg fill="none" height="48" viewBox="0 0 48 48" width="48" xmlns="http://www.w3.org/2000/svg"><path clip-rule="evenodd" d="m35.7452 12.1705-4.9267 1.478 3.2802 8.5788c.6094-.1485 1.2461-.2273 1.9013-.2273 4.4183 0 8 3.5817 8 8s-3.5817 8-8 8-8-3.5817-8-8c0-3.0554 1.7128-5.7107 4.2307-7.0581l-1.6477-4.3092-5.682 11.8011c-.1667.3462-.5168.5662-.901.5662h-4.0619c-.4921 3.9463-3.8585 7-7.9381 7-4.41828 0-8-3.5817-8-8s3.58172-8 8-8c4.0796 0 7.446 3.0537 7.9381 7h2.5l-4.8798-13.6637c-.0397-.1111-.0586-.2247-.0586-.3363h-1.4997c-.5523 0-1-.4477-1-1s.4477-1 1-1h4.5c.5523 0 1 .4477 1 1s-.4477 1-1 1h-.9381l1.8419 5.1574 8.1268-4.2772-.9647-2.523c-.0992-.2597-.0859-.549.0367-.7985.1227-.2494.3438-.4366.6101-.5165l5.9578-1.7873zm-13.6619 9.8894 1.9717 5.5208 4.2296-8.7846zm12.9826 8.2973-2.1132-5.5269c-1.7673 1.044-2.9527 2.9684-2.9527 5.1697 0 3.3137 2.6863 6 6 6s6-2.6863 6-6-2.6863-6-6-6c-.4036 0-.798.0399-1.1792.1158l2.1133 5.5271c.1972.5159-.0611 1.094-.577 1.2912-.5158.1973-1.0939-.061-1.2912-.5769zm-17.1489-1.3572h-5.917c-.5523 0-1 .4477-1 1s.4477 1 1 1h5.917c-.476 2.8377-2.944 5-5.917 5-3.31371 0-6-2.6863-6-6s2.68629-6 6-6c2.973 0 5.441 2.1623 5.917 5z" fill="#333" fill-rule="evenodd"/></svg>