<svg fill="none" height="48" viewBox="0 0 48 48" width="48" xmlns="http://www.w3.org/2000/svg"><g clip-rule="evenodd" fill="#333" fill-rule="evenodd"><path d="m38.5 36c-2.2091 0-4-1.7909-4-4s1.7909-4 4-4 4 1.7909 4 4-1.7909 4-4 4zm0 3c-3.866 0-7-3.134-7-7s3.134-7 7-7 7 3.134 7 7-3.134 7-7 7z"/><path d="m9.5 36c-2.20914 0-4-1.7909-4-4s1.79086-4 4-4c2.2091 0 4 1.7909 4 4s-1.7909 4-4 4zm0 3c-3.86599 0-7-3.134-7-7s3.13401-7 7-7c3.866 0 7 3.134 7 7s-3.134 7-7 7z"/><path d="m22.5 32c0-.5523-.4477-1-1-1h-12c-.55229 0-1 .4477-1 1s.44771 1 1 1h12c.5523 0 1-.4477 1-1z"/><path d="m34.493 13c-.7433 0-1.2268.7823-.8944 1.4472l2 4c.1694.3388.5157.5528.8944.5528h3.9152c.8179 0 1.2899-.9283.808-1.5892l-2.9166-4c-.1883-.2581-.4885-.4108-.808-.4108zm-6.2207 11.4327c-.1664.3467-.517.5673-.9016.5673h-6.0599c-.3484 0-.6716-.1813-.8533-.4785l-3.4396-5.627c-.3162-.5173-.103-1.1947.4525-1.4377l2.3662-1.0352c.8256-.2792 1.6913-.4216 2.5629-.4216h4.4919c.3738 0 .7165.2085.8882.5406l1.9914 3.8496c.1442.2789.1491.6092.0133.8922zm-22.7723-6.4327c-.55228 0-1 .4477-1 1v1.6128c0 .5062.37826.9326.88085.9929l9.80305 1.1764c.785.0942 1.3637-.7169 1.0192-1.4286l-1.35-2.7892c-.167-.3451-.5167-.5643-.9001-.5643zm22 11c0-1.1046-.8954-2-2-2h-4c-1.1046 0-2 .8954-2 2v2c0 1.1046.8954 2 2 2h4c1.1046 0 2-.8954 2-2z"/><path d="m29.4101 9.5862c-.1622-.357-.5182-.5862-.9103-.5862h-5.25c-.5523 0-1 .44772-1 1 0 .5523.4477 1 1 1h4.606l9.7336 21.4138c.2285.5028.8214.7251 1.3242.4966.5027-.2286.7251-.8214.4965-1.3242z"/></g></svg>