<svg fill="none" height="48" viewBox="0 0 48 48" width="48" xmlns="http://www.w3.org/2000/svg"><g fill="#333"><g clip-rule="evenodd" fill-rule="evenodd"><path d="m37.5 35c-1.933 0-3.5-1.567-3.5-3.5s1.567-3.5 3.5-3.5 3.5 1.567 3.5 3.5-1.567 3.5-3.5 3.5zm0 3c-3.5899 0-6.5-2.9101-6.5-6.5s2.9101-6.5 6.5-6.5 6.5 2.9101 6.5 6.5-2.9101 6.5-6.5 6.5z"/><path d="m28.9073 10.5795c-.1638-.3534-.5178-.5795-.9073-.5795h-5v2h4.3613l9.2314 19.9205c.2322.5011.8267.719 1.3278.4868s.719-.8267.4868-1.3278z"/><path d="m10.5 35c-1.933 0-3.5-1.567-3.5-3.5s1.567-3.5 3.5-3.5 3.5 1.567 3.5 3.5-1.567 3.5-3.5 3.5zm0 3c-3.58985 0-6.5-2.9101-6.5-6.5s2.91015-6.5 6.5-6.5c3.5899 0 6.5 2.9101 6.5 6.5s-2.9101 6.5-6.5 6.5z"/><path d="m21.5 31.5c0 .5523-.4477 1-1 1h-10c-.55225 0-.99996-.4477-.99996-1s.44771-1 .99996-1h10c.5523 0 1 .4477 1 1z"/></g><path d="m28.0528 23.8944 1-2c.2815-.563.2815-1.2258 0-1.7888l-1-2c-.3388-.6776-1.0313-1.1056-1.7889-1.1056h-3.2812c-.8715 0-1.7372.1424-2.5628.4216l-3.1449 1.0636c-.6351.2147-.8831.9813-.4942 1.5274l3.2534 4.5676c.1876.2634.4911.4198.8145.4198h5.4152c.7576 0 1.4501-.428 1.7889-1.1056z"/><path d="m5 19h8.0964c.3073 0 .5976.1414.7872.3833l2.8827 3.68c.2731.3488-.0086.8542-.4489.8053l-11.42783-1.2698c-.50643-.0562-.88957-.4843-.88957-.9938v-1.605c0-.5523.44771-1 1-1z"/><path d="m28 27h-6c-1.1046 0-2 .8954-2 2v2c0 1.1046.8954 2 2 2h4c1.1046 0 2-.8954 2-2z"/><path d="m33.309 15h3.9307c.1631 0 .316.0796.4096.2133l2.8 4c.232.3314-.0051.7867-.4096.7867h-4.7307c-.1894 0-.3625-.107-.4472-.2764l-2-4c-.1662-.3324.0755-.7236.4472-.7236z"/></g></svg>