<svg fill="none" height="48" viewBox="0 0 48 48" width="48" xmlns="http://www.w3.org/2000/svg"><g fill="#333"><path clip-rule="evenodd" d="m13 40c2.7614 0 5-2.2386 5-5s-2.2386-5-5-5-5 2.2386-5 5 2.2386 5 5 5zm0 2c3.866 0 7-3.134 7-7s-3.134-7-7-7c-3.86599 0-7 3.134-7 7s3.13401 7 7 7z" fill-rule="evenodd"/><path d="m14.75 35c0 .9665-.7835 1.75-1.75 1.75s-1.75-.7835-1.75-1.75.7835-1.75 1.75-1.75 1.75.7835 1.75 1.75z"/><path clip-rule="evenodd" d="m35 40c2.7614 0 5-2.2386 5-5s-2.2386-5-5-5-5 2.2386-5 5 2.2386 5 5 5zm0 2c3.866 0 7-3.134 7-7s-3.134-7-7-7-7 3.134-7 7 3.134 7 7 7z" fill-rule="evenodd"/><path d="m36.75 35c0 .9665-.7835 1.75-1.75 1.75s-1.75-.7835-1.75-1.75.7835-1.75 1.75-1.75 1.75.7835 1.75 1.75z"/><path clip-rule="evenodd" d="m35 18c2.7614 0 5-2.2386 5-5s-2.2386-5-5-5-5 2.2386-5 5 2.2386 5 5 5zm0 2c3.866 0 7-3.134 7-7 0-3.86599-3.134-7-7-7s-7 3.13401-7 7c0 3.866 3.134 7 7 7z" fill-rule="evenodd"/><path d="m36.75 13c0 .9665-.7835 1.75-1.75 1.75s-1.75-.7835-1.75-1.75.7835-1.75 1.75-1.75 1.75.7835 1.75 1.75z"/><path clip-rule="evenodd" d="m13 18c2.7614 0 5-2.2386 5-5s-2.2386-5-5-5-5 2.2386-5 5 2.2386 5 5 5zm0 2c3.866 0 7-3.134 7-7 0-3.86599-3.134-7-7-7-3.86599 0-7 3.13401-7 7 0 3.866 3.13401 7 7 7z" fill-rule="evenodd"/><path d="m14.75 13c0 .9665-.7835 1.75-1.75 1.75s-1.75-.7835-1.75-1.75.7835-1.75 1.75-1.75 1.75.7835 1.75 1.75z"/><path d="m13 35 5.72-11.2245-5.28-10.7755 10.56 5.3878 10.56-5.3878-5.28 10.7755 5.72 11.2245-11-5.8367z"/></g></svg>