<svg fill="none" height="48" viewBox="0 0 48 48" width="48" xmlns="http://www.w3.org/2000/svg"><g fill="#333"><path clip-rule="evenodd" d="m43.9264 20.6238-1.8066-4.4505 1.8346-5.8753-1.9091-.5961-1.7409 5.5754-10.3277.8687c-2.5946.0008-4.9107.1318-6.9767.3714v-2.5174c0-.5523-.4477-1-1-1s-1 .4477-1 1v2.795c-7.5015 1.2239-11.25589 4.0254-12.99996 7.0752-1.15337 2.0169-1.3524 4.0276-1.26892 5.5166.04178.7453.1546 1.3681.25846 1.8091.05203.221.10213.3977.14058.5229.01925.0626.03561.1125.0479.1486.00615.0181.01128.0328.01525.044l.00506.0141.00185.0051.00074.002c.00031.0008.00059.0016.79904-.2937l-.79842.2954c.05957.161.15957.3039.29038.415l.50804-.5979c-.50745.5983-.50392.6014-.50037.6044l.0076.0063.01495.0119c.00986.0078.01953.0151.02896.0219.01882.0137.03698.026.05415.0369.03406.0216.06627.0392.09504.0536.0564.0282.11047.0492.15813.0654.0935.0318.20201.0583.33075.0826.25833.0488.68027.1037 1.39464.1565 1.43335.1059 4.13405.2091 9.24295.2091 2.6527 0 4.7881-.4284 6.4898-1.2626 1.7169-.8416 2.9402-2.0712 3.7927-3.5772 1.54-2.7207 1.8487-6.3228 1.8864-10.0929l9.4131-.7918 1.6645 4.1006zm-34.9264 6.3762.00004-.3669c.00001-.0001-.00001 0 0 0 0 .1042-.00004.2256-.00004.3669zm.20416-1h10.31044c.0619-.1395.1346-.3346.2139-.5907.2249-.7262.4438-1.7434.6364-2.8469.229-1.312.4091-2.6758.5182-3.7213-6.8113 1.1938-9.8346 3.7271-11.1469 6.022-.21753.3803-.39255.7611-.53204 1.1369z" fill-rule="evenodd"/><path d="m5 10c-.55228 0-1 .4477-1 1s.44772 1 1 1h33.0048c.5523 0 1-.4477 1-1s-.4477-1-1-1z"/><path d="m4.37534 34.2192c.43126-.345 1.06056-.2751 1.40557.1561.22088.2761.78338.6006 1.75809.88.92409.2649 2.03732.4403 3.1351.5536 1.0915.1126 2.1357.1606 2.9094.1803.386.0098.7026.0125.9217.0128.1095.0001.1945-.0003.2514-.0008l.0639-.0007.0153-.0002.0034-.0001.0092-.0002h15.6516c.5523 0 1 .4478 1 1 0 .5523-.4477 1-1 1h-15.635l-.018.0003-.073.0008c-.0631.0005-.1548.001-.2713.0009-.2329-.0003-.5659-.0032-.97-.0134-.8067-.0206-1.9054-.0707-3.0639-.1903-1.15219-.1189-2.3961-.3095-3.48094-.6205-1.03422-.2964-2.13243-.7577-2.76869-1.5531-.34501-.4312-.27509-1.0605.15617-1.4055z"/></g></svg>