<svg fill="none" height="48" viewBox="0 0 48 48" width="48" xmlns="http://www.w3.org/2000/svg"><g fill="#333"><path d="m11.9877 8.5c0 1.38071-1.1192 2.5-2.49996 2.5-1.38071 0-2.5-1.11929-2.5-2.5s1.11929-2.5 2.5-2.5c1.38076 0 2.49996 1.11929 2.49996 2.5z"/><path d="m13.9877 8.50003c0 1.01124-.3335 1.94457-.8966 2.69597 2.6313.8522 5.2699 1.9115 7.0102 3.8024.0992.1078.269.1135.3736.0109.8228-.8077 1.7446-1.5139 2.7447-2.0992.1351-.0791.1689-.261.0656-.3785-2.3494-2.67133-5.7693-3.82029-9.3416-4.66417.0291.20669.0441.41789.0441.6326z"/><path d="m10.7195 12.8293c-.3915.1112-.80466.1707-1.23176.1707-.89376 0-1.72666-.2605-2.42688-.7098l-.97588 11.1622-.08245 2.3388c-.07343 2.079 1.45906 3.8673 3.52484 4.1131l.18061.0215c1.58892.1891 3.13762-.5869 3.93732-1.9729l2.1961-3.8061c.1099-.1905-.0619-.4198-.2755-.3679l-1.7743.431c-.0246.006-.05.0082-.0753.0066l-2.6662-.1733-1.73-.2059c-.14014-.0166-.2387-.1459-.21766-.2855z"/><g clip-rule="evenodd" fill-rule="evenodd"><path d="m31.1019 13c-6.3688 0-11.6282 4.9754-11.9815 11.3344l-.3117 5.6101c-.0318.5732.4244 1.0555.9985 1.0555h21.6495c.2925 0 .5225-.25.4982-.5415l-.5902-7.0831c-.0648-.7774-.7147-1.3754-1.4948-1.3754h-3.8263c-.025 0-.0461-.0184-.0495-.0431l-1.0045-7.232c-.1373-.9888-.9827-1.7249-1.981-1.7249zm.4303 4.2155c-.0181-.2622-.2365-.4671-.4989-.4538-4.2664.2163-7.694 3.3865-7.9573 7.7343l-.0351.5788c-.0203.3356.2897.5952.6165.5163l5.805-1.4023c.3708-.125.7626-.1889 1.1576-.1889h1.1122c.1449 0 .2594-.1227.2494-.2672z"/><path d="m17 37.5c0-2.4853 2.0147-4.5 4.5-4.5h16c2.4853 0 4.5 2.0147 4.5 4.5s-2.0147 4.5-4.5 4.5h-16c-2.4853 0-4.5-2.0147-4.5-4.5zm8 0c0 .8284-.6716 1.5-1.5 1.5s-1.5-.6716-1.5-1.5.6716-1.5 1.5-1.5 1.5.6716 1.5 1.5zm4.5 1.5c.8284 0 1.5-.6716 1.5-1.5s-.6716-1.5-1.5-1.5-1.5.6716-1.5 1.5.6716 1.5 1.5 1.5zm7.5-1.5c0 .8284-.6716 1.5-1.5 1.5s-1.5-.6716-1.5-1.5.6716-1.5 1.5-1.5 1.5.6716 1.5 1.5z"/></g></g></svg>