<svg fill="none" height="48" viewBox="0 0 48 48" width="48" xmlns="http://www.w3.org/2000/svg"><path clip-rule="evenodd" d="m7 10c-1.65685 0-3 1.3431-3 3v22h3.12602c.44404 1.7252 2.01014 3 3.87398 3 1.8638 0 3.4299-1.2748 3.874-3h1.252c.4441 1.7252 2.0102 3 3.874 3s3.4299-1.2748 3.874-3h9.252c.4441 1.7252 2.0102 3 3.874 3s3.4299-1.2748 3.874-3h3.126v-8.1243c0-.8373-.3499-1.6365-.9652-2.2044l-5.2819-4.8757c-.5542-.5115-1.2807-.7956-2.0349-.7956h-3.718v-6c0-1.6569-1.3431-3-3-3zm33.874 23h1.126v-5h-10v5h1.126c.4441-1.7252 2.0102-3 3.874-3s3.4299 1.2748 3.874 3zm-8.874-7h9.5257l-5.1294-4.7348c-.1847-.1705-.4269-.2652-.6783-.2652h-3.718zm-26 7v-5h24v5h-6.126c-.4441-1.7252-2.0102-3-3.874-3s-3.4299 1.2748-3.874 3h-1.252c-.4441-1.7252-2.0102-3-3.874-3-1.86384 0-3.42994 1.2748-3.87398 3zm3 1c0 1.1046.89543 2 2 2 1.1046 0 2-.8954 2-2s-.8954-2-2-2c-1.10457 0-2 .8954-2 2zm11 2c1.1046 0 2-.8954 2-2s-.8954-2-2-2-2 .8954-2 2 .8954 2 2 2zm19-2c0 1.1046-.8954 2-2 2s-2-.8954-2-2 .8954-2 2-2 2 .8954 2 2zm-20-19v3h3v2h-3v3h-2v-3h-3v-2h3v-3z" fill="#333" fill-rule="evenodd"/></svg>