<svg fill="none" height="48" viewBox="0 0 48 48" width="48" xmlns="http://www.w3.org/2000/svg"><path d="m11.8064 14.1289-3.48391 3.4839c-1.16129 1.1613-2.32258 0-1.16129-1.1613l9.2903-9.2903c1.1613-1.16129 2.3226 0 1.1613 1.16129l-3.4839 3.48391s2.3226 0 4.6452 2.3225l2.3226 2.3226 9.0374-9.03738c.781-.78105 2.0474-.78105 2.8284 0l1.1506 1.1506c.5589.55888.7362 1.39448.4525 2.13218l-5.3399 13.8837 6.9678 9.2903 4.0298-2.015c.3675-.1837.8113-.1117 1.1017.1788.3728.3727.3728.977 0 1.3498l-7.9405 7.9405c-.3728.3728-.9771.3728-1.3498 0-.2905-.2904-.3625-.7342-.1788-1.1017l2.015-4.0298-9.2903-6.9678-13.8837 5.3399c-.73771.2837-1.5733.1064-2.13218-.4525l-1.1506-1.1506c-.78105-.781-.78105-2.0474 0-2.8284l9.03738-9.0374-2.3226-2.3226c-2.3225-2.3226-2.3225-4.6452-2.3225-4.6452z" fill="#333"/></svg>