<svg fill="none" height="48" viewBox="0 0 48 48" width="48" xmlns="http://www.w3.org/2000/svg"><g fill="#333"><path clip-rule="evenodd" d="m14.5 34c1.3807 0 2.5-1.1192 2.5-2.5 0-.5609-.1848-1.0787-.4967-1.4958 2.2928.0165 3.0822.0998 3.354.5188.1427.2201.1427.5326.1427.9767 0 3.0376-2.4624 5.5-5.5 5.5s-5.5-2.4624-5.5-5.5c0-1.2895 0-1.4702 3.4967-1.4955-.3119.4171-.4967.9349-.4967 1.4958 0 1.3808 1.1193 2.5 2.5 2.5z" fill-rule="evenodd"/><path clip-rule="evenodd" d="m10.2254 30.0916c-1.2254.141-1.2254.499-1.2254 1.4081 0 3.0376 2.4624 5.5 5.5 5.5s5.5-2.4624 5.5-5.5c0-.4441 0-.7566-.1427-.9767-.1495-.2305-.4557-.3594-1.0827-.4315-.5127-.0589-1.2399-.0799-2.2713-.0873.3119.4171.4967.9349.4967 1.4958 0 .1744-.0178.3445-.0518.5087-.235 1.1368-1.2418 1.9913-2.4482 1.9913s-2.2132-.8545-2.4482-1.9913c-.034-.1642-.0518-.3344-.0518-.5087 0-.5609.1848-1.0787.4967-1.4958-1.0314.0074-1.7586.0284-2.2713.0874z" fill-rule="evenodd"/><path d="m21 25h9.7656l-.7656 6h-9z"/><path clip-rule="evenodd" d="m28.4942 27h-5.4942v2h5.239zm-7.4942-2v6h9l.7656-6z" fill-rule="evenodd"/><path d="m34 18v8l-3 3v1h-2l2-12z"/><g clip-rule="evenodd" fill-rule="evenodd"><path d="m30.1527 17h4.8471v9.4142l-3 3v1.5858h-4.1805zm.1465 11.2864 2.7006-2.7006v-6.5858h-1.1529z"/><path d="m36.5001 34.001c1.3807 0 2.5-1.1193 2.5-2.5 0-.3494-.0717-.682-.2011-.984l2.9308-.5608c.5708 2.9835-1.385 5.8648-4.3684 6.4356-2.9834.5709-5.8648-1.3849-6.4356-4.3684l3.0751-.5884c-.0006.022-.0008.0439-.0008.066 0 1.3807 1.1192 2.5 2.5 2.5z"/><path d="m30.9258 32.0234c.1674.8751.5336 1.6618 1.0429 2.3222 1.1253 1.4594 2.9491 2.3024 4.8702 2.1208.1735-.0164.3478-.0411.5225-.0746.6753-.1292 1.2979-.3767 1.8505-.7171 1.1727-.7222 2.0301-1.8623 2.4059-3.1753.2295-.8018.2794-1.6681.112-2.5432l-2.9308.5608c.1294.302.2011.6346.2011.984 0 .021-.0003.042-.0008.0629-.0207.839-.4548 1.5754-1.1063 2.0133-.2935.1974-.6312.3341-.9951.3923-.0851.0136-.1717.0229-.2595.0277-.0458.0025-.0919.0038-.1383.0038-1.0303 0-1.9151-.6233-2.2978-1.5133-.1301-.3027-.2022-.6363-.2022-.9867 0-.0221.0002-.044.0008-.066z"/></g><path d="m32.0684 31.3201c-.5439.0959-1.0722-.2693-1.0682-.8216.0081-1.1072.3505-2.1948.9945-3.1145.8367-1.1949 2.1138-2.0085 3.5503-2.2618s2.9148.0744 4.1097.9111c.9197.644 1.6135 1.5489 1.9998 2.5866.1927.5176-.1789 1.0414-.7228 1.1373l-4.4316.7814z"/><path clip-rule="evenodd" d="m40.6472 28.792c-.3265-.775-.8664-1.4495-1.5661-1.9395-.9777-.6846-2.1872-.9527-3.3626-.7455-1.1753.2073-2.2202.8729-2.9047 1.8506-.49.6997-.7667 1.5183-.8083 2.3582zm.1121-.0199c.0006-.0001 0 0 0 0zm.3459 1.97-8.8632 1.5628c-1.0274.1812-2.2514-.5097-2.2419-1.8136.0096-1.3085.4143-2.5939 1.1754-3.6809.9888-1.4121 2.498-2.3736 4.1957-2.673 1.6978-.2993 3.4449.088 4.857 1.0768 1.087.7611 1.9069 1.8305 2.3634 3.0568.4549 1.2221-.459 2.2899-1.4864 2.4711z" fill-rule="evenodd"/><path d="m9 20c0-1.6569 1.3431-3 3-3h9c1.6569 0 3 1.3431 3 3 0 .5523-.4477 1-1 1h-13c-.55228 0-1-.4477-1-1z"/><path clip-rule="evenodd" d="m12 17c-1.6569 0-3 1.3431-3 3 0 .5523.44772 1 1 1h13c.5523 0 1-.4477 1-1 0-1.6569-1.3431-3-3-3z" fill-rule="evenodd"/><path d="m5 30.5556c0-5.2774 3.5-7.5556 7.5556-7.5556h9.6444c.4418 0 .8.3582.8.8v5.2c0 1.1046-.8954 2-2 2h-15.55556c-.24546 0-.44444-.199-.44444-.4444z"/><path clip-rule="evenodd" d="m21 25h-8.4444c-1.6743 0-3.04423.4702-3.96943 1.2931-.64972.5779-1.19984 1.4352-1.4468 2.7069h13.86063zm-8.4444-2c-4.0556 0-7.5556 2.2782-7.5556 7.5556 0 .2454.19898.4444.44444.4444h15.55556c1.1046 0 2-.8954 2-2v-5.2c0-.4418-.3582-.8-.8-.8z" fill-rule="evenodd"/><path d="m29 15.5c0-1.933 1.567-3.5 3.5-3.5h3.8846c.3399 0 .6154.2755.6154.6154v5.7692c0 .3399-.2755.6154-.6154.6154h-3.8846c-1.933 0-3.5-1.567-3.5-3.5z"/><path clip-rule="evenodd" d="m35 14h-2.5c-.8284 0-1.5.6716-1.5 1.5s.6716 1.5 1.5 1.5h2.5zm-2.5-2c-1.933 0-3.5 1.567-3.5 3.5s1.567 3.5 3.5 3.5h3.8846c.3399 0 .6154-.2755.6154-.6154v-5.7692c0-.3399-.2755-.6154-.6154-.6154z" fill-rule="evenodd"/><path d="m25.1731 13.9849c.0956-.5439.614-.9074 1.158-.8118l2.9547.5193c.544.0956.9074.614.8118 1.158-.0956.5439-.614.9074-1.158.8118l-2.9547-.5193c-.5439-.0956-.9074-.614-.8118-1.158z"/></g></svg>