<svg fill="none" height="48" viewBox="0 0 48 48" width="48" xmlns="http://www.w3.org/2000/svg"><g fill="#333"><path clip-rule="evenodd" d="m14.5 35c1.3807 0 2.5-1.1193 2.5-2.5s-1.1193-2.5-2.5-2.5-2.5 1.1193-2.5 2.5 1.1193 2.5 2.5 2.5zm0 3c3.0376 0 5.5-2.4624 5.5-5.5s-2.4624-5.5-5.5-5.5-5.5 2.4624-5.5 5.5 2.4624 5.5 5.5 5.5z" fill-rule="evenodd"/><path clip-rule="evenodd" d="m38 35c1.3807 0 2.5-1.1193 2.5-2.5s-1.1193-2.5-2.5-2.5-2.5 1.1193-2.5 2.5 1.1193 2.5 2.5 2.5zm0 3c3.0375 0 5.5-2.4624 5.5-5.5s-2.4625-5.5-5.5-5.5c-3.0376 0-5.5 2.4624-5.5 5.5s2.4624 5.5 5.5 5.5z" fill-rule="evenodd"/><path d="m33.3583 33.28c-.5439.0959-1.0723-.2693-1.0683-.8216.0081-1.1072.3506-2.1948.9946-3.1145.8366-1.1949 2.1137-2.0085 3.5502-2.2618 1.4366-.2533 2.9149.0745 4.1098.9111.9197.644 1.6135 1.5489 1.9998 2.5866.1927.5176-.179 1.0414-.7229 1.1373z"/><path clip-rule="evenodd" d="m40.371 28.8124c-.9776-.6846-2.1872-.9527-3.3625-.7455-1.1754.2073-2.2202.8729-2.9048 1.8506-.4899.6997-.7666 1.5183-.8083 2.3581l8.6417-1.5237c-.3264-.775-.8664-1.4496-1.5661-1.9395zm1.6783 1.9196c.0006-.0001 0 0 0 0zm-5.3881-4.6347c1.6977-.2993 3.4448.088 4.857 1.0768 1.0869.7611 1.9068 1.8305 2.3634 3.0568.4549 1.2221-.459 2.2899-1.4864 2.471l-8.8633 1.5629c-1.0274.1811-2.2514-.5097-2.2418-1.8137.0095-1.3085.4142-2.5938 1.1753-3.6808.9888-1.4121 2.4981-2.3736 4.1958-2.673z" fill-rule="evenodd"/><path d="m9 21c0-1.6569 1.3431-3 3-3h9c1.6569 0 3 1.3431 3 3v1h-15z"/><path clip-rule="evenodd" d="m23.8293 20c.1105.3128.1707.6494.1707 1v1h-15v-1c0-.3506.06015-.6872.17071-1 .41183-1.1652 1.52309-2 2.82929-2h9c1.3062 0 2.4175.8348 2.8293 2z" fill-rule="evenodd"/><path d="m4 32.6c0-4.7497 4.51584-8.6 10.0864-8.6h8.0692c.4663 0 .8444.3224.8444.72v6.48c0 .9941-.9452 1.8-2.1111 1.8h-16.41976c-.2591 0-.46914-.1791-.46914-.4z"/><path clip-rule="evenodd" d="m21 26h-6.9136c-4.0077 0-6.98257 2.2821-7.83667 5h14.63917c.0438 0 .081-.0054.1111-.0131zm-6.9136-2c-5.57056 0-10.0864 3.8503-10.0864 8.6 0 .2209.21004.4.46914.4h16.41976c1.1659 0 2.1111-.8059 2.1111-1.8v-6.48c0-.3976-.3781-.72-.8444-.72z" fill-rule="evenodd"/><path clip-rule="evenodd" d="m30.8047 18.5627-1.8047 14.4373h3.5l2.5-4.3288v-9.6712h-2.5c-.6151 0-1.1931-.1587-1.6953-.4373z" fill-rule="evenodd"/><path d="m29 13.5c0-1.933 1.567-3.5 3.5-3.5h3.8846c.3399 0 .6154.2755.6154.6154v5.7692c0 .3399-.2755.6154-.6154.6154h-3.8846c-1.933 0-3.5-1.567-3.5-3.5z"/><path clip-rule="evenodd" d="m35 12h-2.5c-.8284 0-1.5.6716-1.5 1.5s.6716 1.5 1.5 1.5h2.5zm-2.5-2c-1.933 0-3.5 1.567-3.5 3.5s1.567 3.5 3.5 3.5h3.8846c.3399 0 .6154-.2755.6154-.6154v-5.7692c0-.3399-.2755-.6154-.6154-.6154z" fill-rule="evenodd"/><path d="m25.3462 11 4.9245.8655-.3462 1.9698-4.9245-.8655z"/><path d="m21 26h10l-1.7647 7h-8.2353z"/></g></svg>