<svg fill="none" height="48" viewBox="0 0 48 48" width="48" xmlns="http://www.w3.org/2000/svg"><g fill="#333"><path d="m9.00738 23.9997c-1.10463.0001-2.02193-.9002-1.8714-1.9945.9336-6.7871 6.56122-12.0052 13.36402-12.0052 4.9969 0 9.3598 2.8154 11.694 7h10.806c.5523 0 1 .4477 1 1s-.4477 1-1 1h-9.8864c.3525.9559.607 1.9621.7504 3.0054.1505 1.0943-.7674 1.9945-1.8719 1.9945-5.1293.0002-8.1508 0-11.0011-.0001h-.0167c-3.2496-.0002-6.2813-.0004-11.96692-.0001z"/><path clip-rule="evenodd" d="m4.16587 29.9487c-.6874-1.9426.84753-3.9487 3.02128-3.9487h33.62565c2.1738 0 3.7087 2.0061 3.0213 3.9487l-1.3972 3.9487c-.867 2.45-3.301 4.1026-6.0426 4.1026h-24.7886c-2.74159 0-5.1756-1.6526-6.04256-4.1026zm11.83413 2.0513c0 1.3807-1.1193 2.5-2.5 2.5s-2.5-1.1193-2.5-2.5 1.1193-2.5 2.5-2.5 2.5 1.1193 2.5 2.5zm8 2.5c1.3807 0 2.5-1.1193 2.5-2.5s-1.1193-2.5-2.5-2.5-2.5 1.1193-2.5 2.5 1.1193 2.5 2.5 2.5zm13-2.5c0 1.3807-1.1193 2.5-2.5 2.5s-2.5-1.1193-2.5-2.5 1.1193-2.5 2.5-2.5 2.5 1.1193 2.5 2.5z" fill-rule="evenodd"/></g></svg>