<svg fill="none" height="48" viewBox="0 0 48 48" width="48" xmlns="http://www.w3.org/2000/svg"><path clip-rule="evenodd" d="m6 5h1 14 1v1 5 1h-1v1.2929c0 .718-.2852 1.4065-.7929 1.9142-.1326.1326-.2071.3125-.2071.5v13.3632c1.1767-.6807 2.5429-1.0703 4-1.0703.6906 0 1.3608.0875 2 .252v-6.5951c0-1.3261.5268-2.5979 1.4645-3.5356l1.6568-1.6568c.5626-.5626.8787-1.3257.8787-2.1214v-3.3431h-1v-2-2c0-1.10457.8954-2 2-2h7c1.1046 0 2 .89543 2 2v2 2h-1v3.3431c0 .7957.3161 1.5588.8787 2.1214l1.6568 1.6568c.9377.9377 1.4645 2.2095 1.4645 3.5356v15.3431c0 2.7614-2.2386 5-5 5h-7c-.5114 0-1.0049-.0768-1.4696-.2195-1.4366 1.3749-3.3849 2.2195-5.5304 2.2195-2.0289 0-3.8814-.7553-5.2916-2h-11.7084-1v-1-5-1h1v-1.2929c0-.718.28521-1.4065.79289-1.9142.13261-.1326.20711-.3125.20711-.5v-15.5858c0-.1875-.0745-.3674-.20711-.5-.50768-.5077-.79289-1.1962-.79289-1.9142v-1.2929h-1v-1-5zm11.0703 35c-.4385-.758-.7562-1.5946-.9268-2.4835-.0911-.1507-.1435-.3275-.1435-.5165v-1-1h.0619c.2039-1.635.9011-3.1168 1.9381-4.2916v-15.0013c0-.718.2852-1.4065.7929-1.9142.1326-.1326.2071-.3125.2071-.5v-3.2929h1v-3h-12v3h1v3.2929c0 .1875.0745.3674.20711.5.50768.5077.79289 1.1962.79289 1.9142v15.5858c0 .718-.28521 1.4065-.79289 1.9142-.13261.1326-.20711.3125-.20711.5v3.2929h-1v3zm13.8599-.0008c.0232.0005.0465.0008.0698.0008h7c1.6569 0 3-1.3431 3-3v-15.3431c0-.7957-.3161-1.5588-.8787-2.1214l-1.6568-1.6568c-.9377-.9377-1.4645-2.2095-1.4645-3.5356v-3.3431h-5v3.3431c0 1.3261-.5268 2.5979-1.4645 3.5356l-1.6568 1.6568c-.5626.5626-.8787 1.3257-.8787 2.1214v7.4134c.8562.4952 1.6121 1.1447 2.2297 1.9103l-.2148-.8593c-.0512-.205.0319-.4201.2077-.5373l.8816-.5877c-1.9918-.0807-2.214-1.4461-2.0681-2.1392l3.5082-.6057-.8979-.8978c-.0937-.0938-.1464-.221-.1464-.3536v-1.2929l-1.3536-1.3535c-.1952-.1953-.1952-.5119 0-.7072.1953-.1952.5119-.1952.7071 0l1.5 1.5c.0938.0938.1465.221.1465.3536v1.2929l.8015.8015c.1757-.6218.418-1.1024.6985-1.3668v-2.7276c0-.2761.2239-.5.5-.5s.5.2239.5.5v2.7276c.2805.2644.5227.745.6985 1.3668l.8015-.8015v-1.2929c0-.1326.0527-.2598.1464-.3536l1.5-1.5c.1953-.1952.5119-.1952.7071 0 .1953.1953.1953.5119 0 .7072l-1.3535 1.3535v1.2929c0 .1326-.0527.2598-.1465.3536l-.8978.8978 3.5082.6057c.1459.6931-.0763 2.0586-2.0681 2.1392l.8815.5877c.1759.1172.259.3323.2078.5373l-.4146 1.6581 1.2068.8046c.2298.1532.2919.4636.1387.6933-.1532.2298-.4636.2919-.6934.1387l-1.5-1c-.1758-.1172-.2589-.3323-.2077-.5373l.4146-1.6581-.4343-.2895c.0105.0749.004.1525-.0209.227l-.9345 2.8035 1.4074 2.8148c.1235.247.0234.5473-.2236.6708s-.5473.0234-.6708-.2236l-1.5-3c-.0593-.1186-.0691-.2559-.0271-.3817l.9022-2.7069-.5502-.5502c-.2302 1.4208-.7604 2.4152-1.3777 2.4152s-1.1475-.9944-1.3777-2.4152l-.5502.5502.9022 2.7069c.042.1258.0322.2631-.0271.3817l-1.4481 2.8962c-.0207 1.4119-.4072 2.7352-1.0689 3.8794zm.8803-5.7382.6497-1.2994-.9345-2.8035c-.0249-.0745-.0314-.1521-.0209-.227l-.4343.2895.4146 1.6581c.0512.205-.0319.4201-.2078.5373l-.0924.0617c.2753.5606.487 1.1582.6256 1.7833zm-.8105-27.261h7v2h-7zm3 21.0067c.0007 1.0135.1567 1.8866.3757 2.4706.0425.1135.0846.2084.1243.2869.0397-.0785.0818-.1734.1243-.2869.219-.584.375-1.4571.3757-2.4706v-.0143c-.0008-1.0131-.1567-1.8859-.3757-2.4697-.0425-.1135-.0846-.2084-.1243-.2869-.0397.0785-.0818.1734-.1243.2869-.219.5838-.3749 1.4566-.3757 2.4697zm-2.7076-.0067c-.7316 0-1.0185-.1972-1.1333-.322l2.5136-.434c-.0169.0292-.0344.0579-.0527.0861-.2403.3697-.6158.6699-1.3276.6699zm7.5485-.322c-.1148.1248-.4017.322-1.1333.322-.7118 0-1.0873-.3002-1.3276-.6699-.0183-.0282-.0359-.0569-.0527-.0861zm-27.8409-18.678c.5523 0 1 .44772 1 1v1 1h-2v-1-1c0-.55228.4477-1 1-1zm1 28c0 .5523-.4477 1-1 1s-1-.4477-1-1v-1-1h2v1zm2-28c.5523 0 1 .44772 1 1v1 1h-2v-1-1c0-.55228.4477-1 1-1zm1 28c0 .5523-.4477 1-1 1s-1-.4477-1-1v-1-1h2v1zm2-28c.5523 0 1 .44772 1 1v1 1h-2v-1-1c0-.55228.4477-1 1-1zm5 29v2h-2v-2zm3 2v-5h-2v5zm3 0h-2v-8h2z" fill="#333" fill-rule="evenodd"/></svg>