<svg fill="none" height="48" viewBox="0 0 48 48" width="48" xmlns="http://www.w3.org/2000/svg"><g clip-rule="evenodd" fill="#333" fill-rule="evenodd"><path d="m24 42c9.9411 0 18-8.0589 18-18s-8.0589-18-18-18-18 8.0589-18 18 8.0589 18 18 18zm0 2c11.0457 0 20-8.9543 20-20s-8.9543-20-20-20-20 8.9543-20 20 8.9543 20 20 20z"/><path d="m13.4944 20.0435c1.0304-.2052 2.3816-.8113 3.7263-1.8504 1.3447-1.0392 2.272-2.1939 2.7304-3.1393.3089-.637.3237-.9701.312-1.1007-.1233-.0442-.4494-.1138-1.1438.0244-1.0304.2052-2.3816.8113-3.7263 1.8504-1.3447 1.0392-2.2719 2.1939-2.7303 3.1393-.309.637-.3238.9701-.3121 1.1007.1234.0442.4494.1138 1.1438-.0244zm-2.7494 1.2651c1.1802 1.5272 4.627.8408 7.6987-1.533s4.6051-5.5361 3.425-7.0632c-1.1801-1.5272-4.627-.8408-7.6987 1.533s-4.60513 5.5361-3.425 7.0632z"/><path d="m34.4362 31.3301c-.5552-.8734-1.5942-1.9007-3.0306-2.768-1.4365-.8674-2.8294-1.3084-3.8609-1.3931-.6704-.0549-.9807.0408-1.1021.0972.0066.1338.0663.4529.4272 1.0206.5552.8735 1.5941 1.9007 3.0306 2.7681 1.4365.8673 2.8294 1.3084 3.8609 1.393.6704.055.9806-.0407 1.1021-.0972-.0066-.1337-.0664-.4529-.4272-1.0206zm2.1677 2.0715c.9866-1.6339-.878-4.5672-4.1646-6.5516-3.2866-1.9845-6.7507-2.2686-7.7372-.6347-.9866 1.634.8779 4.5672 4.1645 6.5517 3.2866 1.9844 6.7507 2.2686 7.7373.6346z"/><path d="m32.6379 19.8933c.0251-1.0511-.2712-2.5031-.9917-4.0435-.7205-1.5403-1.6452-2.6983-2.4681-3.3528-.5556-.4418-.878-.5288-1.0077-.5457-.0702.1104-.2101.4136-.227 1.1233-.025 1.0511.2712 2.5031.9918 4.0434.7205 1.5404 1.6452 2.6984 2.4681 3.3528.5556.4419.8779.5289 1.0077.5458.0702-.1105.21-.4136.2269-1.1233zm.6328 2.9611c1.7491-.8182 1.8329-4.3337.1871-7.852s-4.398-5.70718-6.1471-4.889c-1.7492.8183-1.8329 4.3337-.1871 7.8521 1.6458 3.5183 4.3979 5.7072 6.1471 4.8889z"/><path d="m20.9685 34.9564c-.0048-1.0836-.3519-2.5663-1.1354-4.125-.7836-1.5587-1.7664-2.7217-2.6333-3.372-.6273-.4706-.9733-.5333-1.0969-.5399-.0684.1031-.2245.4182-.221 1.2024.0048 1.0836.3519 2.5663 1.1354 4.125.7836 1.5587 1.7665 2.7217 2.6333 3.372.6273.4706.9733.5334 1.0969.54.0685-.1032.2245-.4183.221-1.2025zm.6871 3.0089c1.7645-.887 1.7485-4.4831-.0356-8.0322-1.7841-3.549-4.6608-5.7071-6.4252-4.8201s-1.7485 4.4831.0356 8.0322c1.7841 3.549 4.6608 5.7071 6.4252 4.8201z"/></g></svg>