<svg fill="none" height="48" viewBox="0 0 48 48" width="48" xmlns="http://www.w3.org/2000/svg"><g fill="#333"><g clip-rule="evenodd" fill-rule="evenodd"><path d="m24.0522 41.3149c9.9412 0 18-8.0588 18-18 0-9.9411-8.0588-17.99996-18-17.99996-9.9411 0-17.99995 8.05886-17.99995 17.99996 0 9.9412 8.05885 18 17.99995 18zm0 2c11.0457 0 20-8.9543 20-20s-8.9543-19.99996-20-19.99996c-11.0456 0-19.99995 8.95426-19.99995 19.99996s8.95435 20 19.99995 20z"/><path d="m12.4945 20.0435c1.0304-.2052 2.3816-.8113 3.7263-1.8504 1.3447-1.0392 2.2719-2.1939 2.7303-3.1393.3089-.637.3238-.9701.3121-1.1007-.1234-.0442-.4494-.1138-1.1438.0244-1.0304.2052-2.3817.8113-3.7264 1.8504-1.3447 1.0392-2.2719 2.1939-2.7303 3.1393-.3089.637-.3237.9701-.312 1.1007.1233.0442.4494.1138 1.1438-.0244zm-2.74943 1.2651c1.18013 1.5272 4.62693.8408 7.69873-1.533 3.0717-2.3738 4.6051-5.5361 3.425-7.0632-1.1802-1.5272-4.627-.8408-7.6987 1.533s-4.60517 5.5361-3.42503 7.0632z"/><path d="m33.4361 31.3301c-.5552-.8734-1.5941-1.9007-3.0306-2.768-1.4365-.8674-2.8294-1.3084-3.8609-1.3931-.6704-.0549-.9806.0408-1.1021.0972.0066.1338.0664.4529.4272 1.0206.5552.8735 1.5941 1.9007 3.0306 2.7681 1.4365.8673 2.8294 1.3084 3.8609 1.393.6704.055.9807-.0407 1.1021-.0972-.0066-.1337-.0663-.4529-.4272-1.0206zm2.1677 2.0715c.9866-1.6339-.8779-4.5672-4.1645-6.5516-3.2866-1.9845-6.7507-2.2686-7.7373-.6347-.9866 1.634.878 4.5672 4.1646 6.5517 3.2866 1.9844 6.7507 2.2686 7.7372.6346z"/><path d="m31.6379 19.8931c.0251-1.0512-.2712-2.5032-.9917-4.0435s-1.6452-2.6983-2.4681-3.3528c-.5556-.4419-.878-.5288-1.0077-.5458-.0702.1105-.2101.4137-.227 1.1233-.025 1.0511.2712 2.5032.9918 4.0435.7205 1.5403 1.6452 2.6983 2.4681 3.3528.5556.4419.8779.5288 1.0077.5458.0702-.1105.21-.4137.2269-1.1233zm.6328 2.9611c1.7491-.8182 1.8329-4.3337.1871-7.852-1.6458-3.5184-4.398-5.70722-6.1471-4.889-1.7492.8182-1.8329 4.3337-.1871 7.852s4.3979 5.7072 6.1471 4.889z"/><path d="m19.9685 34.9561c-.0048-1.0836-.3519-2.5662-1.1354-4.1249-.7836-1.5587-1.7664-2.7218-2.6333-3.3721-.6273-.4706-.9733-.5333-1.0969-.5399-.0684.1031-.2245.4182-.221 1.2025.0048 1.0836.3519 2.5663 1.1354 4.1249.7836 1.5587 1.7665 2.7218 2.6333 3.3721.6273.4706.9733.5333 1.0969.5399.0685-.1031.2245-.4182.221-1.2025zm.6871 3.009c1.7645-.887 1.7485-4.4831-.0356-8.0322s-4.6608-5.7071-6.4252-4.8202c-1.7644.887-1.7485 4.4831.0356 8.0322s4.6608 5.7072 6.4252 4.8202z"/></g><path d="m14.6216 18.3906c0 .5523-.4477 1-1 1s-1-.4477-1-1 .4477-1 1-1 1 .4477 1 1z"/><path d="m16.4154 15.9844c0 .2761-.2239.5-.5.5s-.5-.2239-.5-.5c0-.2762.2239-.5.5-.5s.5.2238.5.5z"/><path d="m16.1895 17.3906c0 .2762-.2239.5-.5.5-.2762 0-.5-.2238-.5-.5 0-.2761.2238-.5.5-.5.2761 0 .5.2239.5.5z"/><path d="m18.4 15.077c0 .3866-.3134.7-.7.7s-.7-.3134-.7-.7.3134-.7.7-.7.7.3134.7.7z"/><path d="m32.4707 30.8984c0 .5523-.4477 1-1 1s-1-.4477-1-1c0-.5522.4477-1 1-1s1 .4478 1 1z"/><path d="m30.4707 29.7129c0 .2502-.2028.4531-.4531.4531-.2502 0-.4531-.2029-.4531-.4531 0-.2503.2029-.4531.4531-.4531.2503 0 .4531.2028.4531.4531z"/><path d="m27.3263 28.039c0 .2469-.2002.4471-.4471.4471-.247 0-.4472-.2002-.4472-.4471 0-.247.2002-.4472.4472-.4472.2469 0 .4471.2002.4471.4472z"/><path d="m29.1367 28.944c0 .4242-.3439.7681-.7682.7681-.4242 0-.7682-.3439-.7682-.7681 0-.4243.344-.7682.7682-.7682.4243 0 .7682.3439.7682.7682z"/><path d="m30.353 16.0762c0 .5523-.4477 1-1 1s-1-.4477-1-1 .4477-1 1-1 1 .4477 1 1z"/><path d="m28.353 14.0957c0 .2761-.2239.5-.5.5-.2762 0-.5-.2239-.5-.5s.2238-.5.5-.5c.2761 0 .5.2239.5.5z"/><path d="m30.9291 18.5496c0 .3866-.3134.7-.7.7s-.7-.3134-.7-.7.3134-.7.7-.7.7.3134.7.7z"/><path d="m18.5098 32.0195c0 .5523-.4477 1-1 1s-1-.4477-1-1 .4477-1 1-1 1 .4477 1 1z"/><path d="m17.8783 29.6699c0 .2503-.2028.4531-.4531.4531-.2502 0-.4531-.2028-.4531-.4531 0-.2502.2029-.4531.4531-.4531.2503 0 .4531.2029.4531.4531z"/><path d="m16.2198 28.627c0 .2761-.2239.5-.5.5-.2762 0-.5-.2239-.5-.5 0-.2762.2238-.5.5-.5.2761 0 .5.2238.5.5z"/><path d="m19.6198 34.1355c0 .3866-.3134.7-.7.7s-.7-.3134-.7-.7.3134-.7.7-.7.7.3134.7.7z"/></g></svg>