<svg fill="none" height="48" viewBox="0 0 48 48" width="48" xmlns="http://www.w3.org/2000/svg"><path clip-rule="evenodd" d="m24 42c9.9411 0 18-8.0589 18-18s-8.0589-18-18-18-18 8.0589-18 18 8.0589 18 18 18zm0 2c11.0457 0 20-8.9543 20-20s-8.9543-20-20-20-20 8.9543-20 20 8.9543 20 20 20zm-11.5578-23.271c1.0304-.2052 2.3816-.8112 3.7263-1.8504s2.2719-2.1939 2.7303-3.1392c.3089-.6371.3238-.9702.3121-1.1007-.1234-.0442-.4494-.1139-1.1438.0244-1.0304.2052-2.3817.8112-3.7264 1.8504-1.3447 1.0391-2.2719 2.1939-2.7303 3.1392-.3089.6371-.3237.9702-.3121 1.1007.1234.0442.4495.1139 1.1439-.0244zm-2.74943 1.2652c1.18013 1.5271 4.62693.8407 7.69863-1.5331 3.0718-2.3738 4.6052-5.5361 3.4251-7.0632-1.1802-1.5271-4.627-.8407-7.6987 1.5331-3.0717 2.3737-4.60517 5.5361-3.42503 7.0632zm20.66053 7.2534c1.4364.8674 2.4754 1.8946 3.0306 2.7681.3608.5677.4206.8868.4272 1.0206-.1215.0564-.4317.1521-1.1021.0972-1.0315-.0847-2.4244-.5257-3.8609-1.3931-1.4365-.8673-2.4754-1.8946-3.0306-2.768-.3609-.5677-.4206-.8869-.4272-1.0206.1214-.0565.4317-.1522 1.1021-.0972 1.0315.0846 2.4244.5257 3.8609 1.393zm1.0337-1.7121c3.2866 1.9845 5.1512 4.9177 4.1646 6.5517-.9866 1.6339-4.4507 1.3498-7.7373-.6347-3.2866-1.9844-5.1511-4.9177-4.1645-6.5516.9865-1.634 4.4506-1.3498 7.7372.6346zm.1986-6.9559c.0251-1.0511-.2711-2.5031-.9917-4.0435-.7205-1.5403-1.6452-2.6983-2.4681-3.3528-.5556-.4418-.8779-.5288-1.0077-.5458-.0702.1105-.21.4137-.2269 1.1233-.0251 1.0512.2711 2.5032.9917 4.0435.7205 1.5403 1.6452 2.6984 2.4681 3.3528.5556.4419.8779.5288 1.0077.5458.0702-.1105.21-.4137.2269-1.1233zm.6328 2.9611c1.7492-.8182 1.8329-4.3337.1871-7.852s-4.398-5.7072-6.1471-4.889c-1.7492.8182-1.8329 4.3337-.1871 7.852 1.6458 3.5184 4.398 5.7072 6.1471 4.889zm-13.4376 7.976c.7835 1.5587 1.1307 3.0414 1.1355 4.125.0034.7842-.1526 1.0993-.2211 1.2025-.1236-.0066-.4696-.0694-1.0969-.54-.8668-.6503-1.8497-1.8133-2.6332-3.372-.7836-1.5587-1.1307-3.0413-1.1355-4.125-.0035-.7842.1526-1.0993.221-1.2024.1236.0066.4696.0693 1.0969.5399.8669.6503 1.8498 1.8133 2.6333 3.372zm1.7869-.8983c1.7841 3.5491 1.8001 7.1453.0356 8.0322-1.7644.887-4.6411-1.2711-6.4252-4.8201-1.7841-3.5491-1.8-7.1452-.0356-8.0322 1.7645-.887 4.6411 1.2711 6.4252 4.8201zm-2.4632-14.3611c0 .5523-.4478 1-1 1-.5523 0-1-.4477-1-1s.4477-1 1-1c.5522 0 1 .4477 1 1zm-2.9172 1.2368c.2762 0 .5-.2238.5-.5 0-.2761-.2238-.5-.5-.5-.2761 0-.5.2239-.5.5 0 .2762.2239.5.5.5zm1.2332.482c0 .2761-.2239.5-.5.5s-.5-.2239-.5-.5c0-.2762.2239-.5.5-.5s.5.2238.5.5zm11.3547 12.4041c.5523 0 1-.4477 1-1s-.4477-1-1-1-1 .4477-1 1 .4477 1 1 1zm2.0482.0986c0 .2503-.2029.4531-.4531.4531-.2503 0-.4531-.2028-.4531-.4531 0-.2502.2028-.4531.4531-.4531.2502 0 .4531.2029.4531.4531zm-.8718-12.968c.5523 0 1-.4478 1-1 0-.5523-.4477-1-1-1s-1 .4477-1 1c0 .5522.4477 1 1 1zm-.2733-3.01c0 .3866-.3134.7-.7.7s-.7-.3134-.7-.7.3134-.7.7-.7.7.3134.7.7zm-11.9095 17.8169c.5523 0 1-.4477 1-1s-.4477-1-1-1-1 .4477-1 1 .4477 1 1 1zm1.9619.1768c0 .2502-.2029.4531-.4531.4531-.2503 0-.4531-.2029-.4531-.4531 0-.2503.2028-.4532.4531-.4532.2502 0 .4531.2029.4531.4532zm-2.8338-2.498c.3866 0 .7-.3134.7-.7s-.3134-.7-.7-.7-.7.3134-.7.7.3134.7.7.7z" fill="#333" fill-rule="evenodd"/></svg>