<svg fill="none" height="48" viewBox="0 0 48 48" width="48" xmlns="http://www.w3.org/2000/svg"><g clip-rule="evenodd" fill="#333" fill-rule="evenodd"><path d="m25.0001 5.96606c0-.55228-.4477-1-1-1s-1 .44772-1 1v4.58954c-.3231.4047-.6068.9995-.8312 1.731l-1.1257-1.1369v-1.98664c0-.26349-.104-.51634-.2894-.70358l-2.3742-2.39791c-.3886-.39246-1.0217-.39561-1.4142-.00703-.3924.38858-.3956 1.02174-.007 1.4142l2.0848 2.10563v1.98663c0 .2635.104.5163.2894.7036l.7539.7614-7.0174 1.2238c-.2878 1.3801.1726 4.1403 4.3164 4.1403.077 0 .153-.0013.2278-.0039l-.5028.3386c-.3183.2143-.4859.5919-.4313.9717l.4855 3.3786-1.8536 1.2481c-.4581.3084-.5794.9299-.271 1.388.3085.4581.9299.5794 1.388.271l2.3742-1.5987c.3184-.2143.4859-.5919.4314-.9717l-.4856-3.3786.3288-.2214c.005.0187.0106.0373.0167.0559l1.4592 4.4214-1.7651 3.8259c-.2314.5015-.0124 1.0956.4891 1.3269.5015.2314 1.0956.0124 1.3269-.489l1.9303-4.1839c.1061-.23.121-.4918.0416-.7323l-1.3908-4.2142.6769-.6836c.3842 2.1379 1.1973 3.6124 2.1384 3.6124.941 0 1.7542-1.4745 2.1383-3.6125l.677.6837-1.3908 4.2142c-.0794.2405-.0645.5022.0416.7323l1.9301 4.1838c.2313.5015.8254.7205 1.3269.4892.5015-.2314.7205-.8255.4891-1.327l-1.7649-3.8259 1.4593-4.4214c.0061-.0186.0116-.0372.0166-.0559l.3288.2214-.4857 3.3785c-.0547.3799.1129.7575.4313.9718l2.3742 1.5987c.4581.3084 1.0795.1871 1.388-.271.3084-.4581.1871-1.0796-.271-1.388l-1.8536-1.2481.4858-3.3785c.0546-.3799-.113-.7575-.4313-.9718l-.5029-.3386c.0748.0026.1507.0039.2276.0039 4.1438 0 4.6042-2.7602 4.3164-4.1403l-7.0172-1.2238.7539-.7614c.1854-.1873.2894-.4401.2894-.7036v-1.98663l2.0848-2.10563c.3886-.39246.3855-1.02562-.007-1.4142-.3924-.38858-1.0256-.38543-1.4142.00703l-2.3742 2.39791c-.1854.18724-.2894.44009-.2894.70358v1.98664l-1.1257 1.137c-.2244-.7315-.5081-1.3263-.8312-1.731zm-.6258 10.39084c0 1.2525-.1505 2.3568-.3742 3.2004-.2238-.8436-.3742-1.9479-.3742-3.2004 0-1.2526.1504-2.3569.3742-3.2004.2237.8435.3742 1.9478.3742 3.2004zm-6.9888.0332c-1.2144 0-1.7638-.2902-2.0146-.5115l4.5024-.7853c-.0086.0138-.0172.0274-.026.041-.4492.6982-1.1415 1.2558-2.4618 1.2558zm15.2436-.5115c-.2508.2213-.8002.5115-2.0146.5115-1.3203 0-2.0126-.5576-2.4618-1.2558-.0088-.0136-.0174-.0272-.026-.041z"/><path d="m24 28.0002c-4.081 0-7.7403-.4422-10.3489-1.1379-1.3117-.3497-2.3011-.7489-2.939-1.1511-.6879-.4337-.7121-.6991-.7121-.711v-.0002c-.00002-.0071-.00028-.0955.1637-.2751.1707-.1871.4689-.4133.9328-.6555.9259-.4833 2.3224-.933 4.0999-1.289l-.3928-1.9611c-1.8659.3738-3.4693.8699-4.6326 1.4771-.58071.3032-1.0994.6583-1.48436 1.08-.39011.4273-.68659.9749-.68664 1.6236v.0002 4.6668c0 .8014.43861 1.4383 1 1.9275v7.7133c0 1.0556.79461 1.8016 1.5711 2.2858.8292.517 1.9626.946 3.2744 1.2919 2.6383.6958 6.2281 1.1145 10.1545 1.1145s7.5162-.4187 10.1545-1.1145c1.3118-.3459 2.4452-.7749 3.2744-1.2919.7765-.4842 1.5711-1.2302 1.5711-2.2858v-7.7133c.5614-.4892 1-1.1261 1-1.9275v-4.6668c0-.0001 0-.0001 0-.0002 0-.6487-.2965-1.1963-.6866-1.6236-.385-.4217-.9037-.7768-1.4844-1.08-1.1633-.6072-2.7667-1.1033-4.6326-1.4771l-.3928 1.9611c1.7775.356 3.174.8057 4.0999 1.289.4639.2422.7621.4684.9328.6555.164.1796.1637.268.1637.2751v.0002c0 .0119-.0242.2773-.7121.711-.6379.4022-1.6273.8014-2.939 1.1511-2.6086.6957-6.2679 1.1379-10.3489 1.1379zm14-.3882c-.8386.4632-1.9128.8567-3.1357 1.1828-2.8203.7521-6.661 1.2054-10.8643 1.2054s-8.044-.4533-10.8643-1.2054c-1.2229-.3261-2.2971-.7196-3.1357-1.1828v2.055c0 .0119.0242.2774.7121.7111.6379.4021 1.6273.8013 2.939 1.1511 2.6086.6956 6.2679 1.1378 10.3489 1.1378s7.7403-.4422 10.3489-1.1378c1.3117-.3498 2.3011-.749 2.939-1.1511.6879-.4337.7121-.6992.7121-.7111zm-1 5.1429c-.6364.2634-1.3559.4988-2.1357.7068-2.8203.752-6.661 1.2053-10.8643 1.2053s-8.044-.4533-10.8643-1.2053c-.7799-.208-1.4993-.4434-2.1357-.7068v6.5495l.0001-.0003.0005.0018c.006.022.0644.2387.6287.5905.5876.3664 1.5045.733 2.7262 1.0552 2.4287.6406 5.8389 1.0484 9.6445 1.0484s7.2158-.4078 9.6445-1.0484c1.2217-.3222 2.1386-.6888 2.7262-1.0552.5642-.3518.6227-.5685.6287-.5905l.0005-.0018.0001.0003z"/></g></svg>