<svg fill="none" height="48" viewBox="0 0 48 48" width="48" xmlns="http://www.w3.org/2000/svg"><g fill="#333"><path clip-rule="evenodd" d="m24.4851 5h-12v38h12zm-12-2c-1.1046 0-2 .89543-2 2v38c0 1.1046.8954 2 2 2h12c1.1046 0 2-.8954 2-2v-38c0-1.10457-.8954-2-2-2z" fill-rule="evenodd"/><path d="m21.4851 38.0195c0 1.6569-1.3431 3-3 3-1.6568 0-3-1.3431-3-3 0-1.6568 1.3432-3 3-3 1.6569 0 3 1.3432 3 3z"/><path d="m16.4851 32.1133c0-1.1046.8954-2 2-2s2 .8954 2 2-.8954 2-2 2-2-.8954-2-2z"/><path clip-rule="evenodd" d="m20.4851 25v-14c0-1.10457-.8954-2-2-2s-2 .89543-2 2v14c0 1.1046.8954 2 2 2s2-.8954 2-2zm-2-18c-2.2091 0-4 1.79086-4 4v14c0 2.2091 1.7909 4 4 4s4-1.7909 4-4v-14c0-2.20914-1.7909-4-4-4z" fill-rule="evenodd"/><path d="m14.4851 13h8v2h-8z"/><path d="m14.4851 21h8v2h-8z"/><path d="m32.1936 34.6806c1.4006 0 2.3838-.7237 2.3838-2.0135v-.0185c0-1.132-.742-1.6052-2.0592-1.9485-1.1223-.2877-1.4006-.4268-1.4006-.8537v-.0185c0-.3155.2876-.566.8348-.566.4453 0 .8905.1577 1.3635.4361.1113.0649.2227.102.3618.102.371 0 .6678-.2876.6678-.6587 0-.2784-.1577-.4732-.3153-.566-.5844-.3712-1.2708-.5753-2.0592-.5753-1.3264 0-2.2726.7794-2.2726 1.9578v.0185c0 1.2898.8441 1.6516 2.152 1.9857 1.0852.2783 1.3079.4639 1.3079.8258v.0185c0 .3804-.3525.6124-.9369.6124-.6307 0-1.1687-.2227-1.6603-.5845-.0928-.065-.2226-.1299-.4081-.1299-.3711 0-.6679.2876-.6679.6587 0 .2227.1113.4268.269.5382.7235.5196 1.5861.7794 2.4395.7794z"/><path d="m36.5016 33.8365c0 .2933.2267.5307.5067.5307s.5067-.2374.5067-.5307v-3.9386c0-.2933-.2267-.5307-.5067-.5307h-.0133c-.14 0-.2867.0349-.48.0908l-.66.2025c-.2067.0628-.34.2444-.34.4609 0 .2514.2066.4609.4466.4609.0534 0 .1267-.014.18-.028l.36-.0977z"/><path d="m32.1936 43.3603c1.4006 0 2.3838-.7237 2.3838-2.0135v-.0185c0-1.132-.742-1.6052-2.0592-1.9485-1.1223-.2877-1.4006-.4269-1.4006-.8537v-.0185c0-.3155.2876-.566.8348-.566.4453 0 .8905.1577 1.3635.4361.1113.0649.2227.102.3618.102.371 0 .6678-.2876.6678-.6587 0-.2784-.1577-.4733-.3153-.566-.5844-.3712-1.2708-.5753-2.0592-.5753-1.3264 0-2.2726.7794-2.2726 1.9578v.0185c0 1.2898.8441 1.6516 2.152 1.9857 1.0852.2783 1.3079.4639 1.3079.8257v.0186c0 .3804-.3525.6124-.9369.6124-.6307 0-1.1687-.2227-1.6603-.5846-.0928-.0649-.2226-.1299-.4081-.1299-.3711 0-.6679.2877-.6679.6588 0 .2227.1113.4268.269.5382.7235.5196 1.5861.7794 2.4395.7794z"/><path d="m31.5165 23.4066c0 .3989.3153.7144.7142.7144.3988 0 .7142-.3155.7142-.7144v-4.5187h1.3728c.3618 0 .6586-.2969.6586-.6588s-.2968-.6588-.6586-.6588h-4.174c-.3618 0-.6586.2969-.6586.6588s.2968.6588.6586.6588h1.3728z"/><path d="m32.8151 15.5712c1.0388 0 1.7252-.3062 2.3096-.8165.1298-.1113.2412-.2876.2412-.5103 0-.3619-.3061-.6588-.6679-.6588-.167 0-.3154.065-.4267.1577-.4081.3248-.807.5104-1.4099.5104-1.113 0-1.8829-.9279-1.8829-2.0413v-.0186c0-1.1134.7884-2.0227 1.8829-2.0227.5102 0 .9276.167 1.3264.4639.1021.065.2319.1392.4267.1392.3896 0 .705-.3062.705-.6959 0-.25053-.1299-.45466-.2783-.566-.538-.39898-1.1966-.65878-2.1705-.65878-1.9942 0-3.3856 1.51238-3.3856 3.35888v.0185c0 1.865 1.4192 3.3403 3.33 3.3403z"/></g></svg>