<svg fill="none" height="48" viewBox="0 0 48 48" width="48" xmlns="http://www.w3.org/2000/svg"><g fill="#333"><g clip-rule="evenodd" fill-rule="evenodd"><path d="m31 10h-2v1h-3.5c-.2761 0-.5.2239-.5.5s.2239.5.5.5h9c.2761 0 .5-.2239.5-.5s-.2239-.5-.5-.5h-3.5z"/><path d="m28 6c-.5523 0-1 .44772-1 1v2c0 .55228.4477 1 1 1h4c.5523 0 1-.44772 1-1v-2c0-.55228-.4477-1-1-1zm2 3c.5523 0 1-.44772 1-1s-.4477-1-1-1-1 .44772-1 1 .4477 1 1 1z"/><path d="m36 39v-20.1603c0-.5838-.2551-1.1385-.6984-1.5185l-1.8193-1.5593c-.5279-.4525-.8661-1.0813-.9574-1.7619h-5.0498c-.0913.6806-.4295 1.3094-.9574 1.7619l-1.8193 1.5593c-.4433.38-.6984.9347-.6984 1.5185v20.1603zm-12.6032-23.1973c-.8865.7599-1.3968 1.8693-1.3968 3.037v21.1603c0 .5523.4477 1 1 1h14c.5523 0 1-.4477 1-1v-21.1603c0-1.1677-.5103-2.2771-1.3968-3.037l-1.8193-1.5593c-.1802-.1545-.2839-.38-.2839-.6173 0-.8981-.728-1.6261-1.6261-1.6261h-5.7478c-.8981 0-1.6261.728-1.6261 1.6261 0 .2373-.1037.4628-.2839.6173z"/><path d="m30 23c2.7614 0 5 2.2386 5 5s-2.2386 5-5 5-5-2.2386-5-5 2.2386-5 5-5zm0 1.5c1.933 0 3.5 1.567 3.5 3.5 0 .6951-.2026 1.3428-.552 1.8874l-4.8354-4.8354c.5446-.3494 1.1923-.552 1.8874-.552zm-2.948 1.6126c-.3494.5446-.552 1.1923-.552 1.8874 0 1.933 1.567 3.5 3.5 3.5.695 0 1.3428-.2026 1.8874-.552z"/></g><path d="m20 39.5c0 .8284-.5 1.5-4 1.5s-4-.6716-4-1.5c0-.5 1.7909-1.5 4-1.5s4 1 4 1.5z"/><path clip-rule="evenodd" d="m12.6929 34.6785c.1776.1066.2352.3369.1286.5145l-1.1592 1.9321h1.0287c.3314 0 .6344.1872.7826.4836l.8618 1.7237c.0926.1852.0175.4104-.1677.5031-.1853.0926-.4105.0175-.5031-.1677l-.8618-1.7236c-.0212-.0424-.0645-.0691-.1118-.0691h-1.2495c-.4858 0-.7859-.53-.5359-.9466l1.2728-2.1214c.1066-.1776.3369-.2352.5145-.1286z" fill-rule="evenodd"/><path clip-rule="evenodd" d="m16.6269 34.568c.1005.1811.0352.4094-.1459.5099l-1.7769.9864c-.0849.0472-.086.169-.0018.2176l.6996.4039c.287.1657.4558.4794.436.8102l-.1155 1.9236c-.0124.2067-.1901.3643-.3968.3519s-.3643-.1901-.3519-.3968l.1155-1.9236c.0028-.0473-.0213-.0921-.0623-.1158l-.6996-.4039c-.589-.3401-.5819-1.1927.0128-1.5228l1.7769-.9864c.1811-.1006.4094-.0353.5099.1458z" fill-rule="evenodd"/><path clip-rule="evenodd" d="m20.3739 36.5295c-.0159.2065-.1961.361-.4026.3452l-2.2499-.1726.671.6644c.3542.3508.3442.9262-.022 1.2645l-1.616 1.4926c-.1521.1405-.3894.1311-.5299-.021-.1405-.1522-.1311-.3894.021-.5299l1.616-1.4927c.0523-.0483.0538-.1305.0032-.1806l-.9128-.9039c-.4134-.4093-.0924-1.1118.4876-1.0673l2.5892.1987c.2065.0158.361.1961.3452.4026z" fill-rule="evenodd"/><path d="m12.9655 39.6804c.1177.5396-.443 1.1201-1.2524 1.2967-.8094.1765-1.561-.1178-1.6787-.6574-.11764-.5396.4431-1.1202 1.2525-1.2967s1.5609.1178 1.6786.6574z"/><path clip-rule="evenodd" d="m7.2229 38.8869c-.06218-.1225-.21168-.172-.33471-.1105-.12349.0618-.17355.212-.1118.3355l.2236-.1118c-.2236.1118-.22367.1116-.2236.1118l.00062.0012.00081.0016.00223.0043.00687.0128c.00567.0103.01356.0241.02379.041.02045.0337.05038.0795.09085.1335.08085.1078.20453.2488.37976.389.35363.2829.90794.5548 1.71867.5548h1.99951c.1381 0 .2505-.112.2505-.25 0-.1381-.1119-.25-.25-.25h-2.00001c-.68927 0-1.13495-.2282-1.40632-.4453-.13727-.1098-.23235-.2188-.29211-.2985-.02985-.0398-.05071-.072-.06346-.093-.00636-.0105-.01068-.0182-.01307-.0225z" fill-rule="evenodd"/><path clip-rule="evenodd" d="m11.0606 39.7574c.134.0335.2154.1693.1819.3032l-.2425-.0606c.2425.0606.2425.0607.2425.0608l-.0001.0002-.0001.0007-.0005.0017-.0015.0057-.0052.0196c-.0046.0167-.0113.0403-.0203.0698-.0179.0591-.045.1424-.0823.2418-.0742.1979-.1904.464-.358.7322-.3307.5291-.89683 1.1175-1.77451 1.1175-.81073 0-1.36504-.2719-1.71867-.5548-.17523-.1402-.29891-.2812-.37976-.389-.04047-.0539-.0704-.0998-.09085-.1335-.01023-.0169-.01812-.0307-.02379-.041l-.00687-.0128-.00223-.0043-.00081-.0016-.00034-.0006-.00015-.0003c-.00007-.0002-.00013-.0003.22347-.1121l-.2236.1118c-.06175-.1235-.01169-.2737.1118-.3354.12303-.0615.27253-.0121.33471.1104m0 0 .00213.0039c.00239.0044.00671.012.01307.0225.01275.021.03361.0532.06346.093.05976.0797.15484.1887.29211.2986.27137.2171.71705.4452 1.40632.4452.62233 0 1.05621-.4117 1.35051-.8825.1449-.2319.2475-.4658.3138-.6428.0331-.0881.0568-.1611.0721-.2114.0076-.0251.0131-.0445.0166-.0571l.0037-.0139.0007-.0029.0001-.0001" fill-rule="evenodd"/><path clip-rule="evenodd" d="m7 10.9429h.31429v.8496c0 .5627.22354 1.1024.62146 1.5003.02284.0229.03568.0538.03568.0862v10.242c0 .0324-.01284.0633-.03568.0862-.39792.3979-.62146.9376-.62146 1.5003v.8496h-.31429v3.9429h.75102 9.01228.751v-3.9429h-.3143v-.8496c0-.5627-.2235-1.1024-.6215-1.5003-.0228-.0229-.0356-.0538-.0356-.0862v-10.242c0-.0324.0128-.0633.0356-.0862.398-.3979.6215-.9376.6215-1.5003v-.8496h.3143v-3.9429h-10.5143zm8.2 15.1142v-.8496c0-.0323-.0128-.0633-.0357-.0861-.3979-.3979-.6214-.9376-.6214-1.5004v-10.242c0-.5628.2235-1.1025.6214-1.5004.0229-.0228.0357-.0538.0357-.0861v-.8496h-5.88571v.8496c0 .0323.01283.0633.03567.0861.39792.3979.62147.9376.62147 1.5004v10.242c0 .5628-.22355 1.1025-.62147 1.5004-.02284.0228-.03567.0538-.03567.0861v.8496z" fill-rule="evenodd"/></g></svg>