<svg fill="none" height="48" viewBox="0 0 48 48" width="48" xmlns="http://www.w3.org/2000/svg"><path clip-rule="evenodd" d="m12 8c0-2.20914 1.7909-4 4-4h8.6c-.3314 0-.6.26729-.6.59702 0 .32972.2686.59701.6.59701s.6-.26729.6-.59701c0-.32973-.2686-.59702-.6-.59702h7.4c2.2091 0 4 1.79086 4 4v32c0 2.2091-1.7909 4-4 4h-7.385c.3244-.0079.585-.2721.585-.5968 0-.3298-.2686-.597-.6-.597s-.6.2672-.6.597c0 .3247.2606.5889.585.5968h-8.585c-2.2091 0-4-1.7909-4-4zm13.2 32.4183c0-.3297-.2686-.597-.6-.597s-.6.2673-.6.597.2686.597.6.597.6-.2673.6-.597zm-.6-3.5824c.3314 0 .6.2673.6.5971 0 .3297-.2686.597-.6.597s-.6-.2673-.6-.597c0-.3298.2686-.5971.6-.5971zm.6-2.3878c0-.3297-.2686-.597-.6-.597s-.6.2673-.6.597.2686.597.6.597.6-.2673.6-.597zm-.6-3.5824c.3314 0 .6.2673.6.597 0 .3298-.2686.5971-.6.5971s-.6-.2673-.6-.5971c0-.3297.2686-.597.6-.597zm.6-2.3878c0-.3297-.2686-.597-.6-.597s-.6.2673-.6.597.2686.597.6.597.6-.2673.6-.597zm-.6-3.5824c.3314 0 .6.2673.6.597s-.2686.597-.6.597-.6-.2673-.6-.597.2686-.597.6-.597zm.6-2.3878c0-.3298-.2686-.5971-.6-.5971s-.6.2673-.6.5971c0 .3297.2686.597.6.597s.6-.2673.6-.597zm-.6-3.5824c.3314 0 .6.2673.6.597s-.2686.597-.6.597-.6-.2673-.6-.597.2686-.597.6-.597zm.6-2.3879c0-.3297-.2686-.597-.6-.597s-.6.2673-.6.597c0 .3298.2686.5971.6.5971s.6-.2673.6-.5971zm-.6-3.5818c.3314 0 .6.2673.6.597s-.2686.597-.6.597-.6-.2673-.6-.597.2686-.597.6-.597zm.6-2.3884c0-.3297-.2686-.59699-.6-.59699s-.6.26729-.6.59699c0 .3298.2686.597.6.597s.6-.2672.6-.597zm-.6-3.58185c.3314 0 .6.26729.6.59702 0 .32972-.2686.59701-.6.59701s-.6-.26729-.6-.59701c0-.32973.2686-.59702.6-.59702zm-4.6 1.69127c0 .82431-.6716 1.49258-1.5 1.49258s-1.5-.66827-1.5-1.49258.6716-1.49254 1.5-1.49254 1.5.66823 1.5 1.49254zm-1.5 6.46768c.8284 0 1.5-.6682 1.5-1.4925 0-.8244-.6716-1.4926-1.5-1.4926s-1.5.6682-1.5 1.4926c0 .8243.6716 1.4925 1.5 1.4925zm1.5 3.4826c0 .8243-.6716 1.4925-1.5 1.4925s-1.5-.6682-1.5-1.4925.6716-1.4926 1.5-1.4926 1.5.6683 1.5 1.4926zm-1.5 6.4677c.8284 0 1.5-.6683 1.5-1.4926s-.6716-1.4925-1.5-1.4925-1.5.6682-1.5 1.4925.6716 1.4926 1.5 1.4926zm1.5 3.4825c0 .8243-.6716 1.4926-1.5 1.4926s-1.5-.6683-1.5-1.4926.6716-1.4925 1.5-1.4925 1.5.6682 1.5 1.4925zm-1.5 6.4677c.8284 0 1.5-.6682 1.5-1.4925s-.6716-1.4926-1.5-1.4926-1.5.6683-1.5 1.4926.6716 1.4925 1.5 1.4925zm1.5 3.4826c0 .8243-.6716 1.4925-1.5 1.4925s-1.5-.6682-1.5-1.4925.6716-1.4925 1.5-1.4925 1.5.6682 1.5 1.4925zm10.5-28.3582c.8284 0 1.5-.66827 1.5-1.49258s-.6716-1.49254-1.5-1.49254-1.5.66823-1.5 1.49254.6716 1.49258 1.5 1.49258zm1.5 3.4826c0 .8243-.6716 1.4925-1.5 1.4925s-1.5-.6682-1.5-1.4925c0-.8244.6716-1.4926 1.5-1.4926s1.5.6682 1.5 1.4926zm-1.5 6.4676c.8284 0 1.5-.6682 1.5-1.4925s-.6716-1.4926-1.5-1.4926-1.5.6683-1.5 1.4926.6716 1.4925 1.5 1.4925zm1.5 3.4826c0 .8243-.6716 1.4926-1.5 1.4926s-1.5-.6683-1.5-1.4926.6716-1.4925 1.5-1.4925 1.5.6682 1.5 1.4925zm-1.5 6.4677c.8284 0 1.5-.6683 1.5-1.4926s-.6716-1.4925-1.5-1.4925-1.5.6682-1.5 1.4925.6716 1.4926 1.5 1.4926zm1.5 3.4826c0 .8243-.6716 1.4925-1.5 1.4925s-1.5-.6682-1.5-1.4925.6716-1.4926 1.5-1.4926 1.5.6683 1.5 1.4926zm-1.5 6.4676c.8284 0 1.5-.6682 1.5-1.4925s-.6716-1.4925-1.5-1.4925-1.5.6682-1.5 1.4925.6716 1.4925 1.5 1.4925z" fill="#333" fill-rule="evenodd"/></svg>