<svg fill="none" height="48" viewBox="0 0 48 48" width="48" xmlns="http://www.w3.org/2000/svg"><path clip-rule="evenodd" d="m12 8c0-2.20914 1.7909-4 4-4h8.6c-.3314 0-.6.26729-.6.59702 0 .32972.2686.59701.6.59701s.6-.26729.6-.59701c0-.32973-.2686-.59702-.6-.59702h7.4c2.2091 0 4 1.79086 4 4v32c0 2.2091-1.7909 4-4 4h-7.385c.3244-.0079.585-.2721.585-.5968 0-.3298-.2686-.597-.6-.597s-.6.2672-.6.597c0 .3247.2606.5889.585.5968h-8.585c-2.2091 0-4-1.7909-4-4zm13.2 32.4183c0-.3297-.2686-.597-.6-.597s-.6.2673-.6.597.2686.597.6.597.6-.2673.6-.597zm-.6-3.5824c.3314 0 .6.2673.6.5971 0 .3297-.2686.597-.6.597s-.6-.2673-.6-.597c0-.3298.2686-.5971.6-.5971zm.6-2.3878c0-.3297-.2686-.597-.6-.597s-.6.2673-.6.597.2686.597.6.597.6-.2673.6-.597zm-.6-3.5824c.3314 0 .6.2673.6.597 0 .3298-.2686.5971-.6.5971s-.6-.2673-.6-.5971c0-.3297.2686-.597.6-.597zm.6-2.3878c0-.3297-.2686-.597-.6-.597s-.6.2673-.6.597.2686.597.6.597.6-.2673.6-.597zm-.6-3.5824c.3314 0 .6.2673.6.597s-.2686.597-.6.597-.6-.2673-.6-.597.2686-.597.6-.597zm.6-2.3878c0-.3298-.2686-.5971-.6-.5971s-.6.2673-.6.5971c0 .3297.2686.597.6.597s.6-.2673.6-.597zm-.6-3.5824c.3314 0 .6.2673.6.597s-.2686.597-.6.597-.6-.2673-.6-.597.2686-.597.6-.597zm.6-2.3879c0-.3297-.2686-.597-.6-.597s-.6.2673-.6.597c0 .3298.2686.5971.6.5971s.6-.2673.6-.5971zm-.6-3.5818c.3314 0 .6.2673.6.597s-.2686.597-.6.597-.6-.2673-.6-.597.2686-.597.6-.597zm.6-2.3884c0-.3297-.2686-.59699-.6-.59699s-.6.26729-.6.59699c0 .3298.2686.597.6.597s.6-.2672.6-.597zm-.6-3.58185c.3314 0 .6.26729.6.59702 0 .32972-.2686.59701-.6.59701s-.6-.26729-.6-.59701c0-.32973.2686-.59702.6-.59702zm-6.7593-.14957c.4616-.46159 1.2099-.46159 1.6715 0 .4616.4616.4616 1.20998 0 1.67157l-1.6715 1.67155c-.4616.4616-1.21.4616-1.6716 0-.4616-.46157-.4616-1.20995 0-1.67155zm1.6715 5.00002c-.4616-.4616-1.2099-.4616-1.6715 0l-1.6716 1.6716c-.4616.4615-.4616 1.2099 0 1.6715s1.21.4616 1.6716 0l1.6715-1.6715c.4616-.4616.4616-1.21 0-1.6716zm-1.6715 5c.4616-.4616 1.2099-.4616 1.6715 0s.4616 1.21 0 1.6716l-1.6715 1.6715c-.4616.4616-1.21.4616-1.6716 0s-.4616-1.21 0-1.6715zm1.6715 5c-.4616-.4616-1.2099-.4616-1.6715 0l-1.6716 1.6716c-.4616.4615-.4616 1.2099 0 1.6715s1.21.4616 1.6716 0l1.6715-1.6715c.4616-.4616.4616-1.21 0-1.6716zm-1.6715 5c.4616-.4616 1.2099-.4616 1.6715 0s.4616 1.21 0 1.6716l-1.6715 1.6715c-.4616.4616-1.21.4616-1.6716 0s-.4616-1.21 0-1.6715zm1.6715 5c-.4616-.4616-1.2099-.4616-1.6715 0l-1.6716 1.6716c-.4616.4615-.4616 1.2099 0 1.6715s1.21.4616 1.6716 0l1.6715-1.6715c.4616-.4616.4616-1.21 0-1.6716zm-1.6715 5c.4616-.4616 1.2099-.4616 1.6715 0s.4616 1.21 0 1.6716l-1.6715 1.6715c-.4616.4616-1.21.4616-1.6716 0s-.4616-1.21 0-1.6715zm13.6715-30.00002c-.4616-.46159-1.2099-.46159-1.6715 0l-1.6716 1.67157c-.4616.4616-.4616 1.20998 0 1.67155.4616.4616 1.21.4616 1.6716 0l1.6715-1.67155c.4616-.46159.4616-1.20997 0-1.67157zm-1.6715 5.00002c.4616-.4616 1.2099-.4616 1.6715 0s.4616 1.21 0 1.6716l-1.6715 1.6715c-.4616.4616-1.21.4616-1.6716 0s-.4616-1.21 0-1.6715zm1.6715 5c-.4616-.4616-1.2099-.4616-1.6715 0l-1.6716 1.6716c-.4616.4615-.4616 1.2099 0 1.6715s1.21.4616 1.6716 0l1.6715-1.6715c.4616-.4616.4616-1.21 0-1.6716zm-1.6715 5c.4616-.4616 1.2099-.4616 1.6715 0s.4616 1.21 0 1.6716l-1.6715 1.6715c-.4616.4616-1.21.4616-1.6716 0s-.4616-1.21 0-1.6715zm1.6715 5c-.4616-.4616-1.2099-.4616-1.6715 0l-1.6716 1.6716c-.4616.4615-.4616 1.2099 0 1.6715s1.21.4616 1.6716 0l1.6715-1.6715c.4616-.4616.4616-1.21 0-1.6716zm-1.6715 5c.4616-.4616 1.2099-.4616 1.6715 0s.4616 1.21 0 1.6716l-1.6715 1.6715c-.4616.4616-1.21.4616-1.6716 0s-.4616-1.21 0-1.6715zm1.6715 5c-.4616-.4616-1.2099-.4616-1.6715 0l-1.6716 1.6716c-.4616.4615-.4616 1.2099 0 1.6715s1.21.4616 1.6716 0l1.6715-1.6715c.4616-.4616.4616-1.21 0-1.6716z" fill="#333" fill-rule="evenodd"/></svg>