<svg fill="none" height="48" viewBox="0 0 48 48" width="48" xmlns="http://www.w3.org/2000/svg"><path clip-rule="evenodd" d="m12 8c0-2.20914 1.7909-4 4-4h16c2.2091 0 4 1.79086 4 4v15c-.5523 0-1 .4477-1 1s.4477 1 1 1v15c0 2.2091-1.7909 4-4 4h-16c-2.2091 0-4-1.7909-4-4v-15c.5523 0 1-.4477 1-1s-.4477-1-1-1zm3 17c.5523 0 1-.4477 1-1s-.4477-1-1-1-1 .4477-1 1 .4477 1 1 1zm4-1c0 .5523-.4477 1-1 1s-1-.4477-1-1 .4477-1 1-1 1 .4477 1 1zm2 1c.5523 0 1-.4477 1-1s-.4477-1-1-1-1 .4477-1 1 .4477 1 1 1zm4-1c0 .5523-.4477 1-1 1s-1-.4477-1-1 .4477-1 1-1 1 .4477 1 1zm2 1c.5523 0 1-.4477 1-1s-.4477-1-1-1-1 .4477-1 1 .4477 1 1 1zm4-1c0 .5523-.4477 1-1 1s-1-.4477-1-1 .4477-1 1-1 1 .4477 1 1zm2 1c.5523 0 1-.4477 1-1s-.4477-1-1-1-1 .4477-1 1 .4477 1 1 1zm-5.9289-13.5858c-.7811-.781-2.0474-.781-2.8285 0l-2.8284 2.8284c-.781.7811-.781 2.0474 0 2.8285.7811.781 2.0474.781 2.8284 0l2.8285-2.8285c.781-.781.781-2.0473 0-2.8284z" fill="#333" fill-rule="evenodd"/></svg>