<svg fill="none" height="48" viewBox="0 0 48 48" width="48" xmlns="http://www.w3.org/2000/svg"><path clip-rule="evenodd" d="m16 4c-2.2091 0-4 1.79086-4 4v15c.5523 0 1 .4477 1 1s-.4477 1-1 1v15c0 2.2091 1.7909 4 4 4h16c2.2091 0 4-1.7909 4-4v-15c-.5523 0-1-.4477-1-1s.4477-1 1-1v-15c0-2.20914-1.7909-4-4-4zm0 20c0 .5523-.4477 1-1 1s-1-.4477-1-1 .4477-1 1-1 1 .4477 1 1zm2 1c.5523 0 1-.4477 1-1s-.4477-1-1-1-1 .4477-1 1 .4477 1 1 1zm4-1c0 .5523-.4477 1-1 1s-1-.4477-1-1 .4477-1 1-1 1 .4477 1 1zm2 1c.5523 0 1-.4477 1-1s-.4477-1-1-1-1 .4477-1 1 .4477 1 1 1zm4-1c0 .5523-.4477 1-1 1s-1-.4477-1-1 .4477-1 1-1 1 .4477 1 1zm2 1c.5523 0 1-.4477 1-1s-.4477-1-1-1-1 .4477-1 1 .4477 1 1 1zm4-1c0 .5523-.4477 1-1 1s-1-.4477-1-1 .4477-1 1-1 1 .4477 1 1zm-16.4926-15.16422c.4615-.46159 1.2099-.46159 1.6715 0 .4616.4616.4616 1.21002 0 1.67162l-1.6715 1.6715c-.4616.4616-1.21.4616-1.6716 0s-.4616-1.21 0-1.6715zm6.0049 0c-.4616-.46159-1.21-.46159-1.6716 0l-1.6716 1.67162c-.4616.4615-.4616 1.2099 0 1.6715s1.21.4616 1.6716 0l1.6716-1.6715c.4615-.4616.4615-1.21002 0-1.67162zm2.6617 0c.4616-.46159 1.21-.46159 1.6716 0 .4616.4616.4616 1.21002 0 1.67162l-1.6716 1.6715c-.4616.4616-1.21.4616-1.6715 0-.4616-.4616-.4616-1.21 0-1.6715zm6.0049 0c-.4616-.46159-1.21-.46159-1.6715 0l-1.6716 1.67162c-.4616.4615-.4616 1.2099 0 1.6715s1.21.4616 1.6716 0l1.6715-1.6715c.4616-.4616.4616-1.21002 0-1.67162zm-14.6715 6.00002c.4615-.4616 1.2099-.4616 1.6715 0s.4616 1.21 0 1.6716l-1.6715 1.6715c-.4616.4616-1.21.4616-1.6716 0s-.4616-1.21 0-1.6715zm6.0049 0c-.4616-.4616-1.21-.4616-1.6716 0l-1.6716 1.6716c-.4616.4615-.4616 1.2099 0 1.6715s1.21.4616 1.6716 0l1.6716-1.6715c.4615-.4616.4615-1.21 0-1.6716zm2.6617 0c.4616-.4616 1.21-.4616 1.6716 0s.4616 1.21 0 1.6716l-1.6716 1.6715c-.4616.4616-1.21.4616-1.6715 0-.4616-.4616-.4616-1.21 0-1.6715zm6.0049 0c-.4616-.4616-1.21-.4616-1.6715 0l-1.6716 1.6716c-.4616.4615-.4616 1.2099 0 1.6715s1.21.4616 1.6716 0l1.6715-1.6715c.4616-.4616.4616-1.21 0-1.6716zm-14.6715 15c.4615-.4616 1.2099-.4616 1.6715 0s.4616 1.21 0 1.6716l-1.6715 1.6715c-.4616.4616-1.21.4616-1.6716 0s-.4616-1.21 0-1.6715zm6.0049 0c-.4616-.4616-1.21-.4616-1.6716 0l-1.6716 1.6716c-.4616.4615-.4616 1.2099 0 1.6715s1.21.4616 1.6716 0l1.6716-1.6715c.4615-.4616.4615-1.21 0-1.6716zm2.6617 0c.4616-.4616 1.21-.4616 1.6716 0s.4616 1.21 0 1.6716l-1.6716 1.6715c-.4616.4616-1.21.4616-1.6715 0-.4616-.4616-.4616-1.21 0-1.6715zm6.0049 0c-.4616-.4616-1.21-.4616-1.6715 0l-1.6716 1.6716c-.4616.4615-.4616 1.2099 0 1.6715s1.21.4616 1.6716 0l1.6715-1.6715c.4616-.4616.4616-1.21 0-1.6716zm-14.6715 6c.4615-.4616 1.2099-.4616 1.6715 0s.4616 1.21 0 1.6716l-1.6715 1.6715c-.4616.4616-1.21.4616-1.6716 0s-.4616-1.21 0-1.6715zm6.0049 0c-.4616-.4616-1.21-.4616-1.6716 0l-1.6716 1.6716c-.4616.4615-.4616 1.2099 0 1.6715s1.21.4616 1.6716 0l1.6716-1.6715c.4615-.4616.4615-1.21 0-1.6716zm2.6617 0c.4616-.4616 1.21-.4616 1.6716 0s.4616 1.21 0 1.6716l-1.6716 1.6715c-.4616.4616-1.21.4616-1.6715 0-.4616-.4616-.4616-1.21 0-1.6715zm6.0049 0c-.4616-.4616-1.21-.4616-1.6715 0l-1.6716 1.6716c-.4616.4615-.4616 1.2099 0 1.6715s1.21.4616 1.6716 0l1.6715-1.6715c.4616-.4616.4616-1.21 0-1.6716z" fill="#333" fill-rule="evenodd"/></svg>