<svg fill="none" height="48" viewBox="0 0 48 48" width="48" xmlns="http://www.w3.org/2000/svg"><path d="m26.078 30.7687 2.5357 5.4378-5.3724 2.5052c-1.5016.7002-3.2865.0505-3.9867-1.4511-.7003-1.5016-.0506-3.2865 1.451-3.9868zm-12.1292-21.2649c.4499-.73629 1.5814-.6428 1.9084.13071l5.0637 11.97919c.2753.6513-.2349 1.4426-1.0674 1.3832l-11.86643-.8467c-.82375-.0588-1.21384-.9037-.84096-1.5139zm27.0512 4.4962c0 3.866-3.134 7-7 7s-7-3.134-7-7 3.134-7 7-7 7 3.134 7 7zm-4.1404 2.7098c1.0765.2475 2.1498-.4245 2.3973-1.501s-.4246-2.1498-1.5011-2.3973l-6.6156-1.5209c-1.0765-.2475-2.1498.4246-2.3973 1.501-.2474 1.0765.4246 2.1498 1.5011 2.3973z" fill="#333" stroke="#333" stroke-width="2"/></svg>