<svg fill="none" height="48" viewBox="0 0 48 48" width="48" xmlns="http://www.w3.org/2000/svg"><g fill="#333"><path clip-rule="evenodd" d="m31.3692 25.9151-6.4952 3.75 3.5 6.0622 6.4952-3.75c1.674-.9665 2.2476-3.107 1.2811-4.7811-.9665-1.674-3.1071-2.2476-4.7811-1.2811zm-1.9952 11.5443 6.4952-3.75c2.6306-1.5188 3.5319-4.8826 2.0131-7.5132s-4.8825-3.5319-7.5131-2.0131l-6.4952 3.75c-.1381-.2392-.4439-.3211-.683-.183l-7.3612 4.25c-2.8698 1.6568-3.853 5.3264-2.1962 8.1961 1.6569 2.8698 5.3264 3.853 8.1962 2.1962l7.3612-4.25c.2391-.1381.3211-.4439.183-.683zm-9.3973-5.7387-3.7441 2.1395c-1.5063.8608-2.1753 2.6149-1.7602 4.2132.1389.5345.7651.7014 1.2446.4274.2398-.137.3168-.4421.2353-.7059-.3067-.9923.0982-2.103 1.0245-2.6323l3.7441-2.1395c.3596-.2055.4846-.6636.2791-1.0233-.2055-.3596-.6637-.4846-1.0233-.2791z" fill-rule="evenodd"/><path clip-rule="evenodd" d="m23.258 28.8661-3.0503 1.7611c.6552-.0526 1.3128.268 1.6605.8765.4795.8391.188 1.9081-.6512 2.3876l-3.744 2.1395c-.5032.2876-.7393.9057-.5653 1.4688.1795.5809.0597 1.4384-.6945 1.8694-.4736.2706-1.039.3364-1.5489.1744-.11-.035-.2173-.0807-.3197-.137.0482.0976.0998.1942.155.2898 1.3808 2.3915 4.4387 3.2109 6.8302 1.8302l6.9282-4zm1.616.799 6.4952-3.75c1.674-.9665 3.8146-.3929 4.7811 1.2811.9665 1.6741.3929 3.8146-1.2811 4.7811l-6.4952 3.75zm4.5 7.7943 6.4952-3.75c2.6306-1.5188 3.5319-4.8826 2.0131-7.5132s-4.8825-3.5319-7.5131-2.0131l-6.4952 3.75c-.1381-.2392-.4439-.3211-.683-.183l-7.3612 4.25c-2.8698 1.6568-3.853 5.3264-2.1962 8.1961 1.6569 2.8698 5.3264 3.853 8.1962 2.1962l7.3612-4.25c.2391-.1381.3211-.4439.183-.683zm-13.1414-3.5992 3.7441-2.1395c.3596-.2055.8178-.0805 1.0233.2791.2055.3597.0805.8178-.2791 1.0233l-3.7441 2.1395c-.9263.5293-1.3312 1.64-1.0245 2.6323.0815.2638.0045.5689-.2353.7059-.4795.274-1.1057.1071-1.2446-.4274-.4151-1.5983.2539-3.3524 1.7602-4.2132z" fill-rule="evenodd"/><path d="m39.4047 17.7141c.2082.2082.5518.1927.7238-.0463 2.2515-3.1264 1.9709-7.5121-.8416-10.32465-2.8126-2.81256-7.1983-3.09311-10.3247-.84167-.239.17205-.2545.51566-.0463.72384z"/><path d="m27.8553 8.28599c-.2082-.20819-.5518-.19268-.7239.04625-2.2514 3.12636-1.9708 7.51206.8417 10.32466 2.8126 2.8125 7.1983 3.0931 10.3247.8417.2389-.1721.2544-.5157.0462-.7239z"/><path d="m13.2458 9.4613c.8428-1.4163 2.9407-1.26258 3.5681.26144l4.9061 11.91826c.566 1.3748-.5127 2.8646-1.9955 2.7559l-11.49708-.8423c-1.48279-.1087-2.33286-1.7398-1.57257-3.0174z"/></g></svg>