<svg fill="none" height="48" viewBox="0 0 48 48" width="48" xmlns="http://www.w3.org/2000/svg"><path clip-rule="evenodd" d="m2.43325 36.8752c-1.17158-1.1715-1.17158-3.071 0-4.2426l29.69845-29.6985c1.1716-1.17157 3.0711-1.17157 4.2427 0l9.1924 9.1924c1.1715 1.1716 1.1715 3.0711 0 4.2426l-29.6985 29.6985c-1.1716 1.1716-3.0711 1.1716-4.2427 0zm8.13175-6.0118c.5858.5858.5858 1.5355 0 2.1213s-1.53555.5858-2.12134 0c-.58578-.5858-.58578-1.5355 0-2.1213.58579-.5858 1.53554-.5858 2.12134 0zm2.8284-.7068c.5858-.5858.5858-1.5355 0-2.1213s-1.5355-.5858-2.1213 0-.5858 1.5355 0 2.1213 1.5355.5858 2.1213 0zm2.8284-4.9495c.5858.5858.5858 1.5356 0 2.1214s-1.5355.5858-2.1213 0-.5858-1.5356 0-2.1214c.5858-.5857 1.5355-.5857 2.1213 0zm2.8285-.7068c.5857-.5857.5857-1.5355 0-2.1213-.5858-.5858-1.5356-.5858-2.1214 0-.5857.5858-.5857 1.5356 0 2.1213.5858.5858 1.5356.5858 2.1214 0zm2.8284-4.9494c.5858.5858.5858 1.5355 0 2.1213s-1.5355.5858-2.1213 0-.5858-1.5355 0-2.1213 1.5355-.5858 2.1213 0zm2.8284-.7068c.5858-.5858.5858-1.5355 0-2.1213s-1.5355-.5858-2.1213 0-.5858 1.5355 0 2.1213 1.5355.5858 2.1213 0zm2.8284-4.9514c.5858.5858.5858 1.5355 0 2.1213s-1.5355.5858-2.1213 0-.5858-1.5355 0-2.1213 1.5355-.5858 2.1213 0zm2.8285-.7068c.5857-.5858.5857-1.5355 0-2.1213-.5858-.5858-1.5356-.5858-2.1214 0-.5857.5858-.5857 1.5355 0 2.1213.5858.5858 1.5356.5858 2.1214 0zm2.8284-4.94946c.5858.58579.5858 1.53554 0 2.12136-.5858.5857-1.5355.5857-2.1213 0-.5858-.58582-.5858-1.53557 0-2.12136s1.5355-.58579 2.1213 0zm-15.5564 31.82056c.5858-.5858.5858-1.5356 0-2.1213-.5857-.5858-1.5355-.5858-2.1213 0-.5858.5857-.5858 1.5355 0 2.1213s1.5356.5858 2.1213 0zm-4.2426-2.1213c.5858.5857.5858 1.5355 0 2.1213s-1.5355.5858-2.1213 0-.5858-1.5356 0-2.1213c.5858-.5858 1.5355-.5858 2.1213 0zm7.0711-.7068c.5858-.5858.5858-1.5356 0-2.1214s-1.5356-.5858-2.1213 0c-.5858.5858-.5858 1.5356 0 2.1214.5857.5857 1.5355.5857 2.1213 0zm2.8284-4.9514c.5858.5857.5858 1.5355 0 2.1213s-1.5355.5858-2.1213 0-.5858-1.5356 0-2.1213c.5858-.5858 1.5355-.5858 2.1213 0zm2.8284-.7068c.5858-.5858.5858-1.5356 0-2.1214s-1.5355-.5858-2.1213 0-.5858 1.5356 0 2.1214c.5858.5857 1.5355.5857 2.1213 0zm2.8284-4.9495c.5858.5858.5858 1.5355 0 2.1213-.5857.5858-1.5355.5858-2.1213 0s-.5858-1.5355 0-2.1213 1.5356-.5858 2.1213 0zm2.8285-.7068c.5858-.5858.5858-1.5355 0-2.1213s-1.5356-.5858-2.1213 0c-.5858.5858-.5858 1.5355 0 2.1213.5857.5858 1.5355.5858 2.1213 0zm2.8284-4.9494c.5858.5857.5858 1.5355 0 2.1213s-1.5355.5858-2.1213 0-.5858-1.5356 0-2.1213c.5858-.5858 1.5355-.5858 2.1213 0zm2.8284-.7068c.5858-.5858.5858-1.5356 0-2.1214-.5857-.5858-1.5355-.5858-2.1213 0s-.5858 1.5356 0 2.1214c.5858.5857 1.5356.5857 2.1213 0zm2.8285-4.9495c.5858.5858.5858 1.5355 0 2.1213s-1.5356.5858-2.1214 0c-.5857-.5858-.5857-1.5355 0-2.1213.5858-.5858 1.5356-.5858 2.1214 0zm0-2.1228c.5858-.5858.5858-1.5355 0-2.1213s-1.5356-.5858-2.1214 0c-.5857.5858-.5857 1.5355 0 2.1213.5858.5858 1.5356.5858 2.1214 0zm-2.8285-4.94946c.5858.58579.5858 1.53554 0 2.12136-.5857.5857-1.5355.5857-2.1213 0-.5858-.58582-.5858-1.53557 0-2.12136s1.5356-.58579 2.1213 0zm-30.24676 28.33396.67243-2.5095-2.50955.6724z" fill="#333" fill-rule="evenodd"/></svg>