<svg fill="none" height="48" viewBox="0 0 48 48" width="48" xmlns="http://www.w3.org/2000/svg"><path clip-rule="evenodd" d="m2.93325 31.4247c-1.17158-1.1715-1.17158-3.071-.00001-4.2426l24.74876-24.74873c1.1716-1.17158 3.071-1.17158 4.2426 0l14.1422 14.14213c1.1715 1.1716 1.1715 3.0711 0 4.2426l-24.7488 24.7488c-1.1716 1.1716-3.071 1.1716-4.2426 0zm6.01041-1.7675c.19526-.1953.19526-.5118 0-.7071s-.51185-.1953-.70711 0-.19526.5118 0 .7071.51185.1953.70711 0zm.70711.7071c.58583-.5858.58583-1.5355 0-2.1213-.58579-.5858-1.53554-.5858-2.12132 0-.58579.5858-.58579 1.5355 0 2.1213.58578.5858 1.53553.5858 2.12132 0zm2.82843-4.9494c.1952.1953.1952.5119 0 .7071-.1953.1953-.5119.1953-.7071 0-.1953-.1952-.1953-.5118 0-.7071.1952-.1952.5118-.1952.7071 0zm.7071-.7071c.5858.5858.5858 1.5356 0 2.1214-.5858.5857-1.5355.5857-2.1213 0-.5858-.5858-.5858-1.5356 0-2.1214s1.5355-.5858 2.1213 0zm2.8284-2.1209c.1953-.1953.1953-.5119 0-.7071-.1952-.1953-.5118-.1953-.7071 0-.1952.1952-.1952.5118 0 .7071.1953.1953.5119.1953.7071 0zm.7071.7071c.5858-.5858.5858-1.5355 0-2.1213-.5857-.5858-1.5355-.5858-2.1213 0s-.5858 1.5355 0 2.1213 1.5356.5858 2.1213 0zm2.8285-4.9494c.1952.1953.1952.5119 0 .7071-.1953.1953-.5119.1953-.7072 0-.1952-.1952-.1952-.5118 0-.7071.1953-.1952.5119-.1952.7072 0zm.7071-.7071c.5857.5858.5857 1.5356 0 2.1213-.5858.5858-1.5356.5858-2.1214 0-.5857-.5857-.5857-1.5355 0-2.1213.5858-.5858 1.5356-.5858 2.1214 0zm2.8284-2.1209c.1952-.1953.1952-.5119 0-.7071-.1953-.1953-.5119-.1953-.7071 0-.1953.1952-.1953.5118 0 .7071.1952.1952.5118.1952.7071 0zm.7071.7071c.5858-.5858.5858-1.5355 0-2.1213s-1.5355-.5858-2.1213 0-.5858 1.5355 0 2.1213 1.5355.5858 2.1213 0zm2.8285-4.9513c.1952.1952.1952.5118 0 .7071-.1953.1952-.5119.1952-.7071 0-.1953-.1953-.1953-.5119 0-.7071.1952-.1953.5118-.1953.7071 0zm.7071-.7071c.5858.5857.5858 1.5355 0 2.1213s-1.5356.5858-2.1214 0c-.5857-.5858-.5857-1.5356 0-2.1213.5858-.58583 1.5356-.58583 2.1214 0zm2.8284-2.12099c.1952-.19526.1952-.51184 0-.7071-.1953-.19527-.5119-.19527-.7071 0-.1953.19526-.1953.51184 0 .7071.1952.19527.5118.19527.7071 0zm.7071.70711c.5858-.58579.5858-1.53553 0-2.12132s-1.5355-.58579-2.1213 0-.5858 1.53553 0 2.12132 1.5355.58579 2.1213 0zm-18.3848 23.33388c.1952.1952.1952.5118 0 .7071-.1953.1952-.5119.1952-.7071 0-.1953-.1953-.1953-.5119 0-.7071.1952-.1953.5118-.1953.7071 0zm.7071-.7072c.5858.5858.5858 1.5356 0 2.1214s-1.5355.5858-2.1213 0-.5858-1.5356 0-2.1214c.5858-.5857 1.5355-.5857 2.1213 0zm2.8284-2.1209c.1953-.1953.1953-.5118 0-.7071-.1952-.1953-.5118-.1953-.7071 0-.1952.1953-.1952.5118 0 .7071.1953.1953.5119.1953.7071 0zm.7071.7071c.5858-.5858.5858-1.5355 0-2.1213-.5857-.5858-1.5355-.5858-2.1213 0s-.5858 1.5355 0 2.1213 1.5356.5858 2.1213 0zm2.8285-4.9494c.1952.1953.1952.5119 0 .7071-.1953.1953-.5119.1953-.7072 0-.1952-.1952-.1952-.5118 0-.7071.1953-.1952.5119-.1952.7072 0zm.7071-.7071c.5857.5858.5857 1.5356 0 2.1214-.5858.5857-1.5356.5857-2.1214 0-.5857-.5858-.5857-1.5356 0-2.1214.5858-.5858 1.5356-.5858 2.1214 0zm2.8284-2.1209c.1952-.1953.1952-.5119 0-.7071-.1953-.1953-.5119-.1953-.7071 0-.1953.1952-.1953.5118 0 .7071.1952.1953.5118.1953.7071 0zm.7071.7071c.5858-.5858.5858-1.5355 0-2.1213s-1.5355-.5858-2.1213 0-.5858 1.5355 0 2.1213 1.5355.5858 2.1213 0zm2.8285-4.9494c.1952.1953.1952.5119 0 .7071-.1953.1953-.5119.1953-.7071 0-.1953-.1952-.1953-.5118 0-.7071.1952-.1952.5118-.1952.7071 0zm.7071-.7071c.5858.5858.5858 1.5356 0 2.1213-.5858.5858-1.5356.5858-2.1214 0-.5857-.5857-.5857-1.5355 0-2.1213.5858-.5858 1.5356-.5858 2.1214 0zm2.8284-2.1209c.1952-.1953.1952-.5119 0-.7071-.1953-.1953-.5119-.1953-.7071 0-.1953.1952-.1953.5118 0 .7071.1952.1952.5118.1952.7071 0zm.7071.7071c.5858-.5858.5858-1.5355 0-2.1213s-1.5355-.5858-2.1213 0-.5858 1.5355 0 2.1213 1.5355.5858 2.1213 0zm2.8284-4.9513c.1953.1952.1953.5118 0 .7071-.1953.1952-.5118.1952-.7071 0-.1953-.1953-.1953-.5119 0-.7071.1953-.1953.5118-.1953.7071 0zm.7071-.7071c.5858.5857.5858 1.5355 0 2.1213s-1.5355.5858-2.1213 0-.5858-1.5356 0-2.1213c.5858-.58583 1.5355-.58583 2.1213 0zm-18.3848 26.1642c.1953-.1953.1953-.5119 0-.7071-.1952-.1953-.5118-.1953-.7071 0-.1952.1952-.1952.5118 0 .7071.1953.1952.5119.1952.7071 0zm.7071.7071c.5858-.5858.5858-1.5356 0-2.1213-.5857-.5858-1.5355-.5858-2.1213 0-.5858.5857-.5858 1.5355 0 2.1213s1.5356.5858 2.1213 0zm2.8285-4.9513c.1952.1952.1952.5118 0 .7071-.1953.1952-.5119.1952-.7072 0-.1952-.1953-.1952-.5119 0-.7071.1953-.1953.5119-.1953.7072 0zm.7071-.7072c.5857.5858.5857 1.5356 0 2.1214-.5858.5858-1.5356.5858-2.1214 0-.5857-.5858-.5857-1.5356 0-2.1214.5858-.5857 1.5356-.5857 2.1214 0zm2.8284-2.1209c.1952-.1953.1952-.5118 0-.7071-.1953-.1953-.5119-.1953-.7071 0-.1953.1953-.1953.5118 0 .7071.1952.1953.5118.1953.7071 0zm.7071.7071c.5858-.5858.5858-1.5355 0-2.1213s-1.5355-.5858-2.1213 0-.5858 1.5355 0 2.1213 1.5355.5858 2.1213 0zm2.8285-4.9494c.1952.1953.1952.5119 0 .7071-.1953.1953-.5119.1953-.7071 0-.1953-.1952-.1953-.5118 0-.7071.1952-.1952.5118-.1952.7071 0zm.7071-.7071c.5858.5858.5858 1.5356 0 2.1214-.5858.5857-1.5356.5857-2.1214 0-.5857-.5858-.5857-1.5356 0-2.1214.5858-.5858 1.5356-.5858 2.1214 0zm2.8284-2.1209c.1952-.1953.1952-.5119 0-.7071-.1953-.1953-.5119-.1953-.7071 0-.1953.1952-.1953.5118 0 .7071.1952.1953.5118.1953.7071 0zm.7071.7071c.5858-.5858.5858-1.5355 0-2.1213s-1.5355-.5858-2.1213 0-.5858 1.5355 0 2.1213 1.5355.5858 2.1213 0zm2.8284-4.9494c.1953.1953.1953.5119 0 .7071-.1953.1953-.5118.1953-.7071 0-.1953-.1952-.1953-.5118 0-.7071.1953-.1952.5118-.1952.7071 0zm.7071-.7071c.5858.5858.5858 1.5356 0 2.1213-.5858.5858-1.5355.5858-2.1213 0-.5858-.5857-.5858-1.5355 0-2.1213s1.5355-.5858 2.1213 0zm2.8284-2.1209c.1953-.1953.1953-.5119 0-.7071-.1952-.1953-.5118-.1953-.7071 0-.1952.1952-.1952.5118 0 .7071.1953.1952.5119.1952.7071 0zm.7071.7071c.5858-.5858.5858-1.5355 0-2.1213-.5857-.5858-1.5355-.5858-2.1213 0s-.5858 1.5355 0 2.1213 1.5356.5858 2.1213 0zm-17.6776 24.7473c.5857-.5857.5857-1.5355 0-2.1213-.5858-.5858-1.5356-.5858-2.1214 0-.5857.5858-.5857 1.5356 0 2.1213.5858.5858 1.5356.5858 2.1214 0zm3.5355-5.6564c.5858.5858.5858 1.5355 0 2.1213s-1.5356.5858-2.1213 0c-.5858-.5858-.5858-1.5355 0-2.1213.5857-.5858 1.5355-.5858 2.1213 0zm3.5356-1.4158c.5858-.5858.5858-1.5356 0-2.1213-.5858-.5858-1.5356-.5858-2.1214 0-.5857.5857-.5857 1.5355 0 2.1213.5858.5858 1.5356.5858 2.1214 0zm3.5355-5.6565c.5858.5858.5858 1.5355 0 2.1213s-1.5355.5858-2.1213 0-.5858-1.5355 0-2.1213 1.5355-.5858 2.1213 0zm3.5355-1.4138c.5858-.5858.5858-1.5356 0-2.1214-.5858-.5857-1.5355-.5857-2.1213 0-.5858.5858-.5858 1.5356 0 2.1214s1.5355.5858 2.1213 0zm3.5355-5.6565c.5858.5858.5858 1.5355 0 2.1213s-1.5355.5858-2.1213 0-.5858-1.5355 0-2.1213 1.5355-.5858 2.1213 0zm3.5356-1.4138c.5857-.5858.5857-1.5356 0-2.1214-.5858-.5858-1.5356-.5858-2.1214 0s-.5858 1.5356 0 2.1214c.5858.5857 1.5356.5857 2.1214 0z" fill="#333" fill-rule="evenodd"/></svg>