<svg fill="none" height="48" viewBox="0 0 48 48" width="48" xmlns="http://www.w3.org/2000/svg"><g clip-rule="evenodd" fill="#333" fill-rule="evenodd"><path d="m16 26c5.5228 0 10-4.4772 10-10s-4.4772-10-10-10-10 4.4772-10 10 4.4772 10 10 10zm4.3037-10.6917c.5106-.2105.7539-.795.5435-1.3056-.2104-.5107-.795-.754-1.3056-.5436l-7.8452 3.2331c-.5106.2104-.754.795-.5435 1.3056.2104.5106.7949.754 1.3056.5435z"/><path d="m32 42c5.5228 0 10-4.4772 10-10s-4.4772-10-10-10-10 4.4772-10 10 4.4772 10 10 10zm3.9107-8.0748c.5383.1237 1.0749-.2123 1.1986-.7506.1238-.5382-.2122-1.0748-.7505-1.1986l-8.2695-1.9011c-.5383-.1238-1.0749.2122-1.1987.7505-.1237.5382.2123 1.0749.7506 1.1986z"/></g></svg>