<svg fill="none" height="48" viewBox="0 0 48 48" width="48" xmlns="http://www.w3.org/2000/svg" xmlns:xlink="http://www.w3.org/1999/xlink"><mask id="a" fill="#fff"><path clip-rule="evenodd" d="m24 23c4.6944 0 8.5-3.8056 8.5-8.5 0-4.69442-3.8056-8.5-8.5-8.5s-8.5 3.80558-8.5 8.5c0 4.6944 3.8056 8.5 8.5 8.5zm1.2976-12.0099c.0461-.5504-.3627-1.03392-.9131-1.08002-.5503-.0461-1.0338.36272-1.0799.91302l-.6021 7.1873c-.0461.5504.3627 1.0339.913 1.08.5504.0461 1.0339-.3627 1.08-.913zm-10.7976 31.0099c4.6944 0 8.5-3.8056 8.5-8.5s-3.8056-8.5-8.5-8.5c-4.69442 0-8.5 3.8056-8.5 8.5s3.80558 8.5 8.5 8.5zm1.8429-5.2427c.3906.3905 1.0237.3905 1.4143 0 .3905-.3905.3905-1.0237 0-1.4142l-5.1-5.1c-.3906-.3905-1.0237-.3905-1.4143 0-.3905.3905-.3905 1.0237 0 1.4142zm25.6571-5.2573c0 4.6944-3.8056 8.5-8.5 8.5s-8.5-3.8056-8.5-8.5 3.8056-8.5 8.5-8.5 8.5 3.8056 8.5 8.5zm-4.2412-1.7549c.2104.5107-.0329 1.0952-.5435 1.3056l-6.6684 2.7482c-.5107.2104-1.0952-.033-1.3056-.5436-.2105-.5106.0329-1.0951.5435-1.3056l6.6684-2.7481c.5106-.2104 1.0952.0329 1.3056.5435z" fill="#fff" fill-rule="evenodd"/></mask><g fill="#333"><path clip-rule="evenodd" d="m24 23c4.6944 0 8.5-3.8056 8.5-8.5 0-4.69442-3.8056-8.5-8.5-8.5s-8.5 3.80558-8.5 8.5c0 4.6944 3.8056 8.5 8.5 8.5zm1.2976-12.0099c.0461-.5504-.3627-1.03392-.9131-1.08002-.5503-.0461-1.0338.36272-1.0799.91302l-.6021 7.1873c-.0461.5504.3627 1.0339.913 1.08.5504.0461 1.0339-.3627 1.08-.913zm-10.7976 31.0099c4.6944 0 8.5-3.8056 8.5-8.5s-3.8056-8.5-8.5-8.5c-4.69442 0-8.5 3.8056-8.5 8.5s3.80558 8.5 8.5 8.5zm1.8429-5.2427c.3906.3905 1.0237.3905 1.4143 0 .3905-.3905.3905-1.0237 0-1.4142l-5.1-5.1c-.3906-.3905-1.0237-.3905-1.4143 0-.3905.3905-.3905 1.0237 0 1.4142zm25.6571-5.2573c0 4.6944-3.8056 8.5-8.5 8.5s-8.5-3.8056-8.5-8.5 3.8056-8.5 8.5-8.5 8.5 3.8056 8.5 8.5zm-4.2412-1.7549c.2104.5107-.0329 1.0952-.5435 1.3056l-6.6684 2.7482c-.5107.2104-1.0952-.033-1.3056-.5436-.2105-.5106.0329-1.0951.5435-1.3056l6.6684-2.7481c.5106-.2104 1.0952.0329 1.3056.5435z" fill-rule="evenodd"/><path d="m24.3845 9.91008-.1669 1.99302zm.9131 1.08002-1.993-.167zm-1.993-.167-1.9931-.1669zm-.6021 7.1873 1.993.167zm.913 1.08.167-1.993zm1.08-.913-1.993-.167zm-6.9383 18.5799-1.4143-1.4142zm-1.4143 0 1.4143-1.4142zm1.4143-1.4142-1.4143 1.4142zm-5.1-5.1 1.4142-1.4142zm-1.4143 0-1.41417-1.4142zm0 1.4142-1.41417 1.4142zm25.9724-.6066.762 1.8492zm.5435-1.3056 1.8491-.762zm-7.2119 4.0538.762 1.8491zm-.7621-1.8492-.762-1.8491zm6.6684-2.7481.7621 1.8491zm-5.9532-14.7016c0 3.5899-2.9101 6.5-6.5 6.5v4c5.799 0 10.5-4.701 10.5-10.5zm-6.5-6.5c3.5899 0 6.5 2.9101 6.5 6.5h4c0-5.79899-4.701-10.5-10.5-10.5zm-6.5 6.5c0-3.5899 2.9101-6.5 6.5-6.5v-4c-5.799 0-10.5 4.70101-10.5 10.5zm6.5 6.5c-3.5899 0-6.5-2.9101-6.5-6.5h-4c0 5.799 4.701 10.5 10.5 10.5zm.2176-9.0969c-.5504-.0461-.9592-.5296-.913-1.08l3.986.3339c.1383-1.65106-1.088-3.10163-2.7391-3.23994zm1.08-.913c-.0461.5503-.5297.9591-1.08.913l.3339-3.98604c-1.6511-.13831-3.1017 1.08803-3.24 2.73914zm-.6021 7.1873.6021-7.1873-3.9861-.3339-.602 7.1873zm-.913-1.08c.5503.0461.9591.5296.913 1.08l-3.986-.3339c-.1383 1.6511 1.088 3.1016 2.7391 3.2399zm-1.08.913c.0461-.5503.5296-.9591 1.08-.913l-.3339 3.986c1.651.1383 3.1016-1.088 3.2399-2.7391zm.6021-7.1873-.6021 7.1873 3.986.3339.6021-7.1873zm-2.3046 22.6769c0 3.5899-2.9101 6.5-6.5 6.5v4c5.799 0 10.5-4.701 10.5-10.5zm-6.5-6.5c3.5899 0 6.5 2.9101 6.5 6.5h4c0-5.799-4.701-10.5-10.5-10.5zm-6.5 6.5c0-3.5899 2.9101-6.5 6.5-6.5v-4c-5.79899 0-10.5 4.701-10.5 10.5zm6.5 6.5c-3.5899 0-6.5-2.9101-6.5-6.5h-4c0 5.799 4.70101 10.5 10.5 10.5zm1.8429-4.6569c.3906-.3905 1.0237-.3905 1.4143 0l-2.8285 2.8284c1.1716 1.1716 3.0711 1.1716 4.2427 0zm0 1.4142c-.3905-.3905-.3905-1.0237 0-1.4142l2.8285 2.8284c1.1715-1.1716 1.1715-3.0711 0-4.2426zm-5.1-5.1 5.1 5.1 2.8285-2.8284-5.1-5.1zm1.4143 0c-.3906.3905-1.0237.3905-1.4143 0l2.8285-2.8284c-1.1716-1.1716-3.0711-1.1716-4.24267 0zm0-1.4142c.3905.3905.3905 1.0237 0 1.4142l-2.82847-2.8284c-1.17157 1.1716-1.17157 3.071 0 4.2426zm5.1 5.1-5.1-5.1-2.82847 2.8284 5.09997 5.1zm15.7428 6.6569c5.799 0 10.5-4.701 10.5-10.5h-4c0 3.5898-2.9102 6.5-6.5 6.5zm-10.5-10.5c0 5.799 4.701 10.5 10.5 10.5v-4c-3.5898 0-6.5-2.9102-6.5-6.5zm10.5-10.5c-5.799 0-10.5 4.701-10.5 10.5h4c0-3.5898 2.9102-6.5 6.5-6.5zm10.5 10.5c0-5.799-4.701-10.5-10.5-10.5v4c3.5898 0 6.5 2.9102 6.5 6.5zm-6.0227 1.3999c1.5319-.6313 2.2619-2.3849 1.6306-3.9168l-3.6982 1.5241c-.2104-.5106.0329-1.0952.5435-1.3056zm-6.6684 2.7481 6.6684-2.7481-1.5241-3.6983-6.6684 2.7481zm-3.9168-1.6306c.6313 1.5318 2.3849 2.2619 3.9168 1.6306l-1.5241-3.6983c.5106-.2104 1.0952.0329 1.3056.5436zm1.6307-3.9168c-1.5319.6313-2.262 2.3849-1.6307 3.9168l3.6983-1.5241c.2104.5106-.0329 1.0951-.5435 1.3056zm6.6684-2.7481-6.6684 2.7481 1.5241 3.6983 6.6684-2.7482zm3.9167 1.6306c-.6313-1.5319-2.3849-2.2619-3.9167-1.6306l1.5241 3.6982c-.5107.2105-1.0952-.0329-1.3056-.5435z" mask="url(#a)"/></g></svg>