<svg fill="none" height="48" viewBox="0 0 48 48" width="48" xmlns="http://www.w3.org/2000/svg"><path d="m22 14.5c0 4.1421-3.3579 7.5-7.5 7.5s-7.5-3.3579-7.5-7.5 3.3579-7.5 7.5-7.5 7.5 3.3579 7.5 7.5zm-3.3891-.325c.9208-.6102 1.1725-1.8513.5622-2.772-.6102-.9207-1.8512-1.1724-2.7719-.5622l-6.012 3.9845c-.92072.6102-1.17243 1.8513-.56221 2.772.61021.9207 1.85131 1.1724 2.77201.5622zm22.3891.325c0 4.1421-3.3579 7.5-7.5 7.5s-7.5-3.3579-7.5-7.5 3.3579-7.5 7.5-7.5 7.5 3.3579 7.5 7.5zm-6.8745-4.0759c-.3829-1.03602-1.5333-1.56544-2.5693-1.18246-1.0361.38298-1.5655 1.53336-1.1825 2.56936l2.5007 6.7651c.383 1.0361 1.5333 1.5655 2.5694 1.1825 1.036-.383 1.5655-1.5333 1.1825-2.5694zm-12.1255 23.0759c0 4.1421-3.3579 7.5-7.5 7.5s-7.5-3.3579-7.5-7.5 3.3579-7.5 7.5-7.5 7.5 3.3579 7.5 7.5zm-7.9562 4.0986c.4256 1.0193 1.5969 1.5006 2.6162 1.0751 1.0193-.4256 1.5006-1.5969 1.075-2.6162l-2.7788-6.6557c-.4255-1.0193-1.5968-1.5006-2.6161-1.075-1.0193.4255-1.5006 1.5968-1.0751 2.6161zm26.9562-4.0986c0 4.1421-3.3579 7.5-7.5 7.5s-7.5-3.3579-7.5-7.5 3.3579-7.5 7.5-7.5 7.5 3.3579 7.5 7.5zm-3.4628-.8401c.8365-.7214.9299-1.9842.2086-2.8208-.7213-.8365-1.9842-.9299-2.8207-.2086l-5.4623 4.71c-.8365.7213-.9299 1.9842-.2086 2.8207s1.9842.9299 2.8207.2086z" fill="#333" stroke="#333" stroke-width="2"/></svg>