<svg fill="none" height="48" viewBox="0 0 48 48" width="48" xmlns="http://www.w3.org/2000/svg"><path clip-rule="evenodd" d="m22 14c-2.2091 0-4 1.7909-4 4v11.3808l9.2495-15.1823c-.3928-.1289-.8126-.1985-1.2495-.1985zm7.9607 3.4363-9.8144 16.1097c.5543.2905 1.1845.454 1.8537.454h4c2.2091 0 4-1.7909 4-4v-12c0-.1914-.0134-.3795-.0393-.5637zm-15.9607.5637c0-4.4183 3.5817-8 8-8h4c2.0477 0 3.9198.7719 5.3338 2.0375 1.6335 1.462 2.6662 3.593 2.6662 5.9625v12c0 4.4183-3.5817 8-8 8h-4c-2.3695 0-4.5005-1.0327-5.9625-2.6662-1.2656-1.414-2.0375-3.2861-2.0375-5.3338z" fill="#333" fill-rule="evenodd"/></svg>