<svg fill="none" height="48" viewBox="0 0 48 48" width="48" xmlns="http://www.w3.org/2000/svg"><path clip-rule="evenodd" d="m26 14c2.2091 0 4 1.7909 4 4 0 1.1845-.5123 2.2467-1.3338 2.9819-.019.017-.0376.0344-.0559.0521l-14 13.5277c-.5863.5665-.77 1.432-.4646 2.1878.3055.7558 1.0391 1.2505 1.8543 1.2505h16c1.1046 0 2-.8954 2-2s-.8954-2-2-2h-11.052l10.4162-10.0649c1.6159-1.4611 2.6358-3.5803 2.6358-5.9351 0-4.4183-3.5817-8-8-8h-4c-3.4864 0-6.447 2.229-7.5443 5.3335-.3681 1.0414.1778 2.1841 1.2192 2.5522 1.0415.3681 2.1841-.1778 2.5522-1.2192.5501-1.5563 2.0344-2.6665 3.7729-2.6665z" fill="#333" fill-rule="evenodd"/></svg>