<svg fill="none" height="48" viewBox="0 0 48 48" width="48" xmlns="http://www.w3.org/2000/svg"><path clip-rule="evenodd" d="m25.8692 14c2.3223 0 4.1308 1.8313 4.1308 4s-1.8085 4-4.1308 4h-4.0872c-1.1046 0-2 .8954-2 2s.8954 2 2 2h4.0872c2.3223 0 4.1308 1.8313 4.1308 4s-1.8085 4-4.1308 4h-4.0872c-1.8225 0-3.344-1.1374-3.9009-2.6794-.3752-1.0389-1.5216-1.5769-2.5605-1.2017s-1.5769 1.5216-1.2017 2.5605c1.1264 3.1188 4.1467 5.3206 7.6631 5.3206h4.0872c4.4496 0 8.1308-3.5413 8.1308-8 0-2.4037-1.0698-4.5407-2.7531-6 1.6833-1.4593 2.7531-3.5963 2.7531-6 0-4.4587-3.6812-8-8.1308-8h-4.0872c-3.5164 0-6.5367 2.2018-7.6631 5.3206-.3752 1.0389.1628 2.1853 1.2017 2.5605s2.1853-.1628 2.5605-1.2017c.5569-1.542 2.0784-2.6794 3.9009-2.6794z" fill="#333" fill-rule="evenodd"/></svg>