<svg fill="none" height="48" viewBox="0 0 48 48" width="48" xmlns="http://www.w3.org/2000/svg"><path clip-rule="evenodd" d="m34 12c0-1.1046-.8954-2-2-2h-14c-.9534 0-1.7742.6729-1.9612 1.6078l-2 10c-.1586.7932.1762 1.6039.8483 2.054s1.5492.451 2.2223.0023c.672-.448 3.2861-1.6641 6.8906-1.6641 3.3137 0 6 2.6863 6 6s-2.6863 6-6 6h-2.2181c-1.8224 0-3.344-1.1374-3.9009-2.6794-.3752-1.0389-1.5215-1.5769-2.5604-1.2017s-1.5769 1.5216-1.2017 2.5605c1.1264 3.1188 4.1467 5.3206 7.663 5.3206h2.2181c5.5228 0 10-4.4772 10-10s-4.4772-10-10-10c-2.0136 0-3.8153.3044-5.3043.7194l.9439-4.7194h12.3604c1.1046 0 2-.8954 2-2z" fill="#333" fill-rule="evenodd"/></svg>