<svg fill="none" height="48" viewBox="0 0 48 48" width="48" xmlns="http://www.w3.org/2000/svg"><path clip-rule="evenodd" d="m14 12c0-1.1046.8954-2 2-2h16c.782 0 1.4922.4557 1.8181 1.1666.3258.7108.2075 1.5464-.3029 2.1388-1.7607 2.0437-4.3626 5.7228-6.6787 9.9761-2.3265 4.2722-4.2669 8.947-4.8573 13.0064-.159 1.093-1.174 1.8503-2.2671 1.6913-1.093-.159-1.8503-1.174-1.6913-2.2671.6896-4.7406 2.8825-9.8991 5.3027-14.3436 1.4954-2.746 3.1147-5.2867 4.5988-7.3685h-11.9223c-1.1046 0-2-.8954-2-2z" fill="#333" fill-rule="evenodd"/></svg>