<svg fill="none" height="48" viewBox="0 0 48 48" width="48" xmlns="http://www.w3.org/2000/svg"><path clip-rule="evenodd" d="m25.9679 14c2.2369 0 4.0321 1.8009 4.0321 4s-1.7952 4-4.0321 4h-3.9358c-2.2369 0-4.0321-1.8009-4.0321-4s1.7952-4 4.0321-4zm-9.2485 10c-1.6664-1.4643-2.7194-3.6071-2.7194-6 0-4.4283 3.6062-8 8.0321-8h3.9358c4.4259 0 8.0321 3.5717 8.0321 8 0 2.3929-1.053 4.5357-2.7194 6 1.6664 1.4643 2.7194 3.6071 2.7194 6 0 4.4283-3.6062 8-8.0321 8h-3.9358c-4.4259 0-8.0321-3.5717-8.0321-8 0-2.3929 1.053-4.5357 2.7194-6zm5.3127 2h3.9358c2.2369 0 4.0321 1.8009 4.0321 4s-1.7952 4-4.0321 4h-3.9358c-2.2369 0-4.0321-1.8009-4.0321-4s1.7952-4 4.0321-4z" fill="#333" fill-rule="evenodd"/></svg>