<svg fill="none" height="48" viewBox="0 0 48 48" width="48" xmlns="http://www.w3.org/2000/svg"><path clip-rule="evenodd" d="m22.0321 34c-1.7592 0-3.2526-1.117-3.8043-2.6697-.3698-1.0408-1.5134-1.5847-2.5542-1.2149-1.0408.3699-1.5848 1.5134-1.2149 2.5543 1.1044 3.1081 4.0797 5.3303 7.5734 5.3303h3.9358c4.4259 0 8.0321-3.5717 8.0321-8v-12c0-4.4283-3.6062-8-8.0321-8h-3.9358c-4.4259 0-8.0321 3.5717-8.0321 8s3.6062 8 8.0321 8h3.9358c1.4681 0 2.846-.393 4.0321-1.0799v5.0799c0 2.1991-1.7952 4-4.0321 4zm7.9679-16c0 2.1991-1.7952 4-4.0321 4h-3.9358c-2.2369 0-4.0321-1.8009-4.0321-4s1.7952-4 4.0321-4h3.9358c2.2369 0 4.0321 1.8009 4.0321 4z" fill="#333" fill-rule="evenodd"/></svg>