<svg fill="none" height="48" viewBox="0 0 48 48" width="48" xmlns="http://www.w3.org/2000/svg"><path clip-rule="evenodd" d="m24 10c.8074 0 1.5356.4855 1.8462 1.2308l7.4828 17.9586c.0123.0278.024.0558.035.0842l2.4822 5.9572c.4248 1.0196-.0573 2.1905-1.0769 2.6154-1.0196.4248-2.1906-.0574-2.6154-1.077l-1.9872-4.7692h-12.3333l-1.9872 4.7692c-.4248 1.0196-1.5958 1.5018-2.6154 1.077-1.0196-.4249-1.5018-1.5958-1.0769-2.6154l2.4821-5.9572c.0111-.0284.0228-.0564.0351-.0841l7.4828-17.9587c.3105-.7453 1.0387-1.2308 1.8461-1.2308zm-4.5 18h9l-4.5-10.8z" fill="#333" fill-rule="evenodd"/></svg>