<svg fill="none" height="48" viewBox="0 0 48 48" width="48" xmlns="http://www.w3.org/2000/svg"><path clip-rule="evenodd" d="m31.0711 16.9289c-1.3986-1.3985-3.1804-2.3509-5.1202-2.7367-1.9398-.3859-3.9505-.1879-5.7777.569-1.8273.7569-3.3891 2.0386-4.4879 3.6831s-1.6853 3.5779-1.6853 5.5557.5865 3.9112 1.6853 5.5557 2.6606 2.9262 4.4879 3.6831c1.8272.7569 3.8379.9549 5.7777.5691 1.9398-.3859 3.7216-1.3383 5.1202-2.7368.781-.7811 2.0473-.7811 2.8284 0 .781.781.781 2.0474 0 2.8284-1.9579 1.9579-4.4525 3.2913-7.1682 3.8315-2.7158.5402-5.5307.2629-8.0889-.7967-2.5581-1.0596-4.7446-2.854-6.283-5.1563-1.5383-2.3023-2.3594-5.0091-2.3594-7.778s.8211-5.4757 2.3594-7.778c1.5384-2.3023 3.7249-4.0967 6.283-5.1563 2.5582-1.0596 5.3731-1.33688 8.0889-.7967 2.7157.5402 5.2103 1.8736 7.1682 3.8315.781.7811.781 2.0474 0 2.8284-.7811.7811-2.0474.7811-2.8284 0z" fill="#333" fill-rule="evenodd"/></svg>