<svg fill="none" height="48" viewBox="0 0 48 48" width="48" xmlns="http://www.w3.org/2000/svg"><path clip-rule="evenodd" d="m26 8c0-1.10457-.8954-2-2-2s-2 .89543-2 2v2c-4.4183 0-8 3.5817-8 8s3.5817 8 8 8v8c-1.7385 0-3.2228-1.1102-3.7729-2.6665-.3681-1.0414-1.5107-1.5873-2.5522-1.2192-1.0414.3681-1.5873 1.5108-1.2192 2.5522 1.0973 3.1045 4.0579 5.3335 7.5443 5.3335v2c0 1.1046.8954 2 2 2s2-.8954 2-2v-2c4.4183 0 8-3.5817 8-8s-3.5817-8-8-8v-8c1.7385 0 3.2228 1.1102 3.7729 2.6665.3681 1.0414 1.5107 1.5873 2.5522 1.2192 1.0414-.3681 1.5873-1.5108 1.2192-2.5522-1.0973-3.1045-4.0579-5.3335-7.5443-5.3335zm-4 6c-2.2091 0-4 1.7909-4 4s1.7909 4 4 4zm4 12v8c2.2091 0 4-1.7909 4-4s-1.7909-4-4-4z" fill="#333" fill-rule="evenodd"/></svg>