<svg fill="none" height="48" viewBox="0 0 48 48" width="48" xmlns="http://www.w3.org/2000/svg"><path clip-rule="evenodd" d="m33.4907 16.3891c-.7364.8233-2.0008.8937-2.824.1573-1.3306-1.1901-2.9584-2.0047-4.7158-2.3542-1.9398-.3859-3.9505-.1879-5.7777.569-1.8273.7569-3.3891 2.0386-4.4879 3.6831s-1.6853 3.5779-1.6853 5.5557.5865 3.9112 1.6853 5.5557 2.6606 2.9262 4.4879 3.6831c1.8272.7569 3.8379.9549 5.7777.5691 1.4738-.2932 2.8565-.9134 4.0491-1.8079v-6h-6c-1.1046 0-2-.8954-2-2s.8954-2 2-2h8c1.1046 0 2 .8954 2 2v8.9443c0 .5691-.2425 1.1113-.6667 1.4907-1.8627 1.6661-4.1416 2.8066-6.602 3.296-2.7158.5402-5.5307.2629-8.0889-.7967-2.5581-1.0596-4.7446-2.854-6.283-5.1563-1.5383-2.3023-2.3594-5.0091-2.3594-7.778s.8211-5.4757 2.3594-7.778c1.5384-2.3023 3.7249-4.0967 6.283-5.1563 2.5582-1.0596 5.3731-1.33688 8.0889-.7967 2.4604.4894 4.7393 1.6299 6.602 3.296.8233.7364.8938 2.0008.1574 2.8241z" fill="#333" fill-rule="evenodd"/></svg>