<svg fill="none" height="48" viewBox="0 0 48 48" width="48" xmlns="http://www.w3.org/2000/svg"><path clip-rule="evenodd" d="m26 8c0-1.10457-.8954-2-2-2s-2 .89543-2 2v2.114c-1.1472.1655-2.2753.4738-3.3576.9221-2.5581 1.0596-4.7446 2.854-6.283 5.1563-1.5383 2.3023-2.3594 5.009-2.3594 7.778 0 2.7689.8211 5.4757 2.3594 7.778 1.5384 2.3022 3.7249 4.0967 6.283 5.1563 1.0823.4483 2.2104.7565 3.3576.9221v2.1732c0 1.1046.8954 2 2 2s2-.8954 2-2v-2.1732c.2444-.0353.4882-.0771.7313-.1254 2.7157-.5402 5.2103-1.8736 7.1682-3.8315.781-.7811.781-2.0474 0-2.8285-.7811-.781-2.0474-.781-2.8284 0-1.3867 1.3868-3.1503 2.3349-5.0711 2.7269v-19.5959c1.9208.3921 3.6844 1.3402 5.0711 2.7269.781.7811 2.0473.7811 2.8284 0 .781-.781.781-2.0474 0-2.8284-1.9579-1.958-4.4525-3.2913-7.1682-3.8315-.2431-.0484-.4869-.0902-.7313-.1254zm-4 6.1724c-.6225.1271-1.2343.3137-1.8268.5592-1.8273.7569-3.3891 2.0386-4.4879 3.6831s-1.6853 3.5779-1.6853 5.5557.5865 3.9112 1.6853 5.5557 2.6606 2.9262 4.4879 3.6831c.5925.2454 1.2043.4321 1.8268.5591z" fill="#333" fill-rule="evenodd"/></svg>