<svg fill="none" height="48" viewBox="0 0 48 48" width="48" xmlns="http://www.w3.org/2000/svg"><path clip-rule="evenodd" d="m16 17.5241v18.4759c0 1.1046-.8954 2-2 2s-2-.8954-2-2v-24c0-.842.5274-1.5939 1.3191-1.8805.7918-.2867 1.6783-.0467 2.2173.6001l8.4636 10.1563 8.4636-10.1563c.539-.6468 1.4255-.8868 2.2172-.6001.7918.2866 1.3192 1.0385 1.3192 1.8805v24c0 1.1046-.8954 2-2 2s-2-.8954-2-2v-18.4759l-6.4636 7.7563c-.3799.456-.9428.7196-1.5364.7196s-1.1565-.2636-1.5364-.7196z" fill="#333" fill-rule="evenodd"/></svg>