<svg fill="none" height="48" viewBox="0 0 48 48" width="48" xmlns="http://www.w3.org/2000/svg"><path clip-rule="evenodd" d="m10 24c0-7.732 6.268-14 14-14s14 6.268 14 14c0 3.1447-1.0368 6.0472-2.7872 8.3843l2.2014 2.2015c.7811.781.7811 2.0474 0 2.8284-.781.7811-2.0474.7811-2.8284 0l-2.2015-2.2014c-2.3371 1.7504-5.2396 2.7872-8.3843 2.7872-7.732 0-14-6.268-14-14zm22.3432 5.5148-2.929-2.929c-.781-.7811-2.0474-.7811-2.8284 0-.7811.781-.7811 2.0474 0 2.8284l2.929 2.929c-1.5809 1.047-3.4766 1.6568-5.5148 1.6568-5.5228 0-10-4.4772-10-10s4.4772-10 10-10 10 4.4772 10 10c0 2.0382-.6098 3.9339-1.6568 5.5148z" fill="#333" fill-rule="evenodd"/></svg>