<svg fill="none" height="48" viewBox="0 0 48 48" width="48" xmlns="http://www.w3.org/2000/svg"><g clip-rule="evenodd" fill="#333" fill-rule="evenodd"><path d="m24 14.0001c2.222.0172 4 1.8113 4 3.9999 0 2.1991-1.7952 4-4.0321 4-1.1046 0-2 .8954-2 2v6c0 1.1046.8954 2 2 2s2-.8954 2-2v-4.2502c3.4629-.8845 6.0321-4.012 6.0321-7.7498 0-4.3856-3.5369-7.931-7.9041-7.999-.0212-.0007-.0424-.001-.0638-.001h-.0642c-.0213 0-.0426.0003-.0637.001-4.3673.068-7.9042 3.6134-7.9042 7.999 0 1.1046.8955 2 2 2 1.1046 0 2-.8954 2-2 0-2.1886 1.778-3.9827 4-3.9999z"/><path d="m24 38c1.1046 0 2-.8954 2-2s-.8954-2-2-2-2 .8954-2 2 .8954 2 2 2z"/></g></svg>