<svg fill="none" height="48" viewBox="0 0 48 48" width="48" xmlns="http://www.w3.org/2000/svg"><path clip-rule="evenodd" d="m16 12c0-1.1046.8954-2 2-2h12c1.1046 0 2 .8954 2 2s-.8954 2-2 2h-3.0703c.3581.619.6356 1.2905.8183 2h2.252c1.1046 0 2 .8954 2 2s-.8954 2-2 2h-2.252c-.7553 2.9345-3.1338 5.2174-6.1213 5.8345l6.0374 9.0561c.6127.9191.3644 2.1608-.5547 2.7735s-2.1608.3644-2.7735-.5547l-8-12c-.4091-.6137-.4473-1.4028-.0992-2.0531.348-.6503 1.0257-1.0563 1.7633-1.0563h2c1.4806 0 2.7733-.8044 3.4649-2h-5.4649c-1.1046 0-2-.8954-2-2s.8954-2 2-2h5.4649c-.6916-1.1956-1.9843-2-3.4649-2h-2c-1.1046 0-2-.8954-2-2z" fill="#333" fill-rule="evenodd"/></svg>