<svg fill="none" height="48" viewBox="0 0 48 48" width="48" xmlns="http://www.w3.org/2000/svg"><path clip-rule="evenodd" d="m22 14c-2.2091 0-4 1.7909-4 4s1.7909 4 4 4h4c4.4183 0 8 3.5817 8 8s-3.5817 8-8 8h-4c-3.4864 0-6.447-2.229-7.5443-5.3335-.3681-1.0414.1778-2.1841 1.2192-2.5522 1.0415-.3681 2.1841.1778 2.5522 1.2192.5501 1.5563 2.0344 2.6665 3.7729 2.6665h4c2.2091 0 4-1.7909 4-4s-1.7909-4-4-4h-4c-4.4183 0-8-3.5817-8-8s3.5817-8 8-8h4c3.4864 0 6.447 2.229 7.5443 5.3335.3681 1.0414-.1778 2.1841-1.2192 2.5522-1.0415.3681-2.1841-.1778-2.5522-1.2192-.5501-1.5563-2.0344-2.6665-3.7729-2.6665z" fill="#333" fill-rule="evenodd"/></svg>