<svg fill="none" height="48" viewBox="0 0 48 48" width="48" xmlns="http://www.w3.org/2000/svg"><path clip-rule="evenodd" d="m11.671 10.027c-1.0895.1816-1.82555 1.2121-1.644 2.3016l4 24c.1391.8344.788 1.491 1.6207 1.64.8326.1489 1.6689-.2421 2.0886-.9765l6.2635-10.9611 6.2635 10.9611c.4197.7344 1.256 1.1254 2.0887.9765.8326-.149 1.4816-.8056 1.6206-1.64l4-24c.1816-1.0895-.5544-2.12-1.644-2.3016-1.0895-.18155-2.12.5545-2.3016 1.644l-3.0768 18.4609-5.2139-9.1244c-.3561-.6231-1.0188-1.0077-1.7365-1.0077s-1.3804.3846-1.7365 1.0077l-5.2139 9.1244-3.0768-18.4609c-.1816-1.0895-1.212-1.82555-2.3016-1.644z" fill="#333" fill-rule="evenodd"/></svg>