<svg fill="none" height="48" viewBox="0 0 48 48" width="48" xmlns="http://www.w3.org/2000/svg"><path clip-rule="evenodd" d="m35.2804 10.4636c.8486.7071.9632 1.9683.2561 2.8168l-8.933 10.7197 8.933 10.7196c.7071.8485.5925 2.1097-.2561 2.8168-.8485.7071-2.1097.5925-2.8168-.2561l-8.4636-10.1562-8.4635 10.1562c-.7071.8486-1.9683.9632-2.8168.2561-.8486-.7071-.9632-1.9683-.2561-2.8168l8.933-10.7196-8.933-10.7197c-.7071-.8485-.5925-2.1097.2561-2.8168.8485-.70712 2.1097-.59247 2.8168.2561l8.4635 10.1563 8.4636-10.1563c.7071-.84857 1.9683-.96322 2.8168-.2561z" fill="#333" fill-rule="evenodd"/></svg>