<svg fill="none" height="48" viewBox="0 0 48 48" width="48" xmlns="http://www.w3.org/2000/svg"><path clip-rule="evenodd" d="m35.2804 10.4636c.8486.7071.9632 1.9683.2561 2.8168l-7.2664 8.7197h1.7299c1.1046 0 2 .8954 2 2 0 1.1045-.8954 2-2 2h-3.9999v2h3.9999c1.1046 0 2 .8954 2 2 0 1.1045-.8954 2-2 2h-3.9999v4c0 1.1045-.8955 2-2 2-1.1046 0-2-.8955-2-2v-4h-4c-1.1046 0-2-.8955-2-2 0-1.1046.8954-2 2-2h4v-2h-4c-1.1046 0-2-.8955-2-2 0-1.1046.8954-2 2-2h1.7299l-7.2664-8.7197c-.7071-.8485-.5925-2.1097.2561-2.8168.8485-.70712 2.1097-.59247 2.8168.2561l8.4636 10.1563 8.4635-10.1563c.7071-.84857 1.9683-.96322 2.8168-.2561z" fill="#333" fill-rule="evenodd"/></svg>