<svg fill="none" height="48" viewBox="0 0 48 48" width="48" xmlns="http://www.w3.org/2000/svg"><g clip-rule="evenodd" fill="#333" fill-rule="evenodd"><path d="m10.4894 32v4c0 1.1046.8954 2 2 2h30c1.1045 0 2-.8954 2-2v-16c0-1.1046-.8955-2-2-2h-2.4894v3.6687c.108.1608.2315.3111.3692.4487.2785.2786.6093.4996.9732.6503.3637.1507.7534.2282 1.147.2284v10.0039c-.3881.0023-.772.0798-1.1306.2284-.364.1507-.6947.3717-.9733.6503s-.4995.6093-.6503.9732c-.1508.364-.2284.7541-.2284 1.1481h-24.0216c-.0048-.3812-.0822-.7581-.2281-1.1105-.1508-.3639-.3718-.6946-.6504-.9732-.2785-.2786-.6092-.4996-.9732-.6503-.3628-.1503-.7515-.2279-1.1441-.2284v-1.0376z"/><path d="m21 22c1.1046 0 2-.8954 2-2s-.8954-2-2-2-2 .8954-2 2 .8954 2 2 2zm0 2c2.2091 0 4-1.7909 4-4s-1.7909-4-4-4-4 1.7909-4 4 1.7909 4 4 4z"/><path d="m6 10c-1.10457 0-2 .8954-2 2v16c0 1.1046.89543 2 2 2h30c1.1046 0 2-.8954 2-2v-16c0-1.1046-.8954-2-2-2zm2.99817 2h24.00293c.0005.3926.0781.7814.2284 1.1441.1507.364.3717.6947.6503.9733s.6093.4996.9732.6503c.3637.1507.7534.2282 1.147.2284v10.004c-.388.0022-.772.0797-1.1306.2283-.364.1507-.6947.3717-.9733.6503-.2785.2786-.4995.6093-.6503.9732-.1507.364-.2283.7541-.2283 1.1481h-24.02169c-.00478-.3812-.08216-.7581-.22813-1.1105-.15076-.3639-.37174-.6946-.65031-.9732-.27858-.2786-.6093-.4996-.97327-.6503-.36276-.1503-.75148-.2279-1.1441-.2284v-10.0376c.39334-.0002.78281-.0778 1.14622-.2284.36398-.1507.69469-.3717.97327-.6503s.49955-.6093.65032-.9732c.15076-.364.22836-.7541.22836-1.1481z"/></g></svg>