<svg fill="none" height="48" viewBox="0 0 48 48" width="48" xmlns="http://www.w3.org/2000/svg"><path clip-rule="evenodd" d="m9.17647 8.5c-1.75432 0-3.17647 1.43908-3.17647 3.2143v19.2857c0 1.7752 1.42215 3.2143 3.17647 3.2143h10.58813v2.1428h-4.2353v2.1429h16.9412v-2.1429h-4.2352v-2.1428h10.5882c1.7543 0 3.1765-1.4391 3.1765-3.2143v-19.2857c0-1.77522-1.4222-3.2143-3.1765-3.2143zm12.70583 27.8571h4.2354v-2.1428h-4.2354zm-13.76465-24.6428c0-.5917.47405-1.0714 1.05882-1.0714h29.64703c.5848 0 1.0589.4797 1.0589 1.0714v19.2857c0 .5917-.4741 1.0714-1.0589 1.0714h-29.64703c-.58477 0-1.05882-.4797-1.05882-1.0714zm7.41165 1.0714h-2.1177v2.1429h-2.1176v2.1428h2.1176v2.1429h2.1177v-2.1429h2.1177v-2.1428h-2.1177zm-3.1765 8.5714c-.5848 0-1.0589.4797-1.0589 1.0715v4.2857c0 .5917.4741 1.0714 1.0589 1.0714h4.2353c.5847 0 1.0588-.4797 1.0588-1.0714v-4.2857c0-.5918-.4741-1.0715-1.0588-1.0715zm1.0588 4.2858v-2.1429h2.1176v2.1429zm7.4121-11.7858c0-.5917.4741-1.0714 1.0589-1.0714h4.2352c.5848 0 1.0589.4797 1.0589 1.0714v4.2858c0 .5917-.4741 1.0714-1.0589 1.0714h-4.2352c-.5848 0-1.0589-.4797-1.0589-1.0714zm2.1177 1.0715v2.1428h2.1176v-2.1428zm-1.0588 6.4285c-.5848 0-1.0589.4797-1.0589 1.0715v4.2857c0 .5917.4741 1.0714 1.0589 1.0714h4.2352c.5848 0 1.0589-.4797 1.0589-1.0714v-4.2857c0-.5918-.4741-1.0715-1.0589-1.0715zm1.0588 4.2858v-2.1429h2.1176v2.1429zm7.4116-11.7858c0-.5917.4741-1.0714 1.0588-1.0714h4.2353c.5848 0 1.0589.4797 1.0589 1.0714v4.2858c0 .5917-.4741 1.0714-1.0589 1.0714h-4.2353c-.5847 0-1.0588-.4797-1.0588-1.0714zm2.1177 1.0715v2.1428h2.1176v-2.1428z" fill="#333" fill-rule="evenodd"/></svg>