<svg fill="none" height="48" viewBox="0 0 48 48" width="48" xmlns="http://www.w3.org/2000/svg"><g clip-rule="evenodd" fill="#333" fill-rule="evenodd"><path d="m16.4906 12.1029c.4789.275.6441.8863.3691 1.3652-.1002.1745-.2688.5306-.3949.9549-.1284.4318-.189.8545-.1473 1.1938.0241.1965.0722.3009.1141.3702.0529.0871.1208.1628.273.3211.0055.0057.0111.0115.0168.0175.1373.1426.3479.3614.5246.6529.1949.3214.3319.6981.389 1.1633.0884.7194-.0465 1.44-.2153 2.0075-.1709.5749-.4011 1.0738-.5776 1.381-.2751.4789-.8863.6442-1.3652.3691-.4789-.275-.6442-.8862-.3691-1.3651.1002-.1745.2687-.5306.3949-.955.1284-.4317.1889-.8545.1472-1.1938-.0241-.1965-.0721-.3009-.1141-.3702-.0528-.0871-.1207-.1627-.273-.3211-.0054-.0057-.011-.0115-.0167-.0174-.1374-.1427-.348-.3615-.5247-.6529-.1949-.3215-.3319-.6981-.389-1.1633-.0883-.7194.0466-1.4401.2153-2.0076.1709-.5748.4012-1.0737.5777-1.381.275-.4789.8862-.6442 1.3652-.3691z"/><path d="m24.4906 12.1029c.4789.275.6441.8863.3691 1.3652-.1002.1745-.2688.5306-.3949.9549-.1284.4318-.189.8545-.1473 1.1938.0241.1965.0722.3009.1141.3702.0529.0871.1208.1628.273.3211.0055.0057.0111.0115.0168.0175.1373.1426.3479.3614.5246.6529.1949.3214.3319.6981.389 1.1633.0884.7194-.0465 1.44-.2153 2.0075-.1709.5749-.4011 1.0738-.5776 1.381-.2751.4789-.8863.6442-1.3652.3691-.4789-.275-.6442-.8862-.3691-1.3651.1002-.1745.2687-.5306.3949-.955.1284-.4317.1889-.8545.1472-1.1938-.0241-.1965-.0721-.3009-.1141-.3702-.0528-.0871-.1207-.1627-.273-.3211-.0054-.0057-.011-.0115-.0167-.0174-.1374-.1427-.348-.3615-.5247-.6529-.1949-.3215-.3319-.6981-.389-1.1633-.0883-.7194.0466-1.4401.2153-2.0076.1709-.5748.4012-1.0737.5777-1.381.275-.4789.8862-.6442 1.3652-.3691z"/><path d="m32.4906 12.1029c.4789.275.6441.8863.3691 1.3652-.1002.1745-.2688.5306-.3949.9549-.1284.4318-.189.8545-.1473 1.1938.0241.1965.0722.3009.1141.3702.0529.0871.1208.1628.273.3211.0055.0057.0111.0115.0168.0175.1373.1426.3479.3614.5246.6529.1949.3214.3319.6981.389 1.1633.0884.7194-.0465 1.44-.2153 2.0075-.1709.5749-.4011 1.0738-.5776 1.381-.2751.4789-.8863.6442-1.3652.3691-.4789-.275-.6442-.8862-.3691-1.3651.1002-.1745.2687-.5306.3949-.955.1284-.4317.1889-.8545.1472-1.1938-.0241-.1965-.0721-.3009-.1141-.3702-.0528-.0871-.1207-.1627-.273-.3211-.0054-.0057-.011-.0115-.0167-.0174-.1374-.1427-.348-.3615-.5247-.6529-.1949-.3215-.3319-.6981-.389-1.1633-.0883-.7194.0466-1.4401.2153-2.0076.1709-.5748.4012-1.0737.5777-1.381.275-.4789.8862-.6442 1.3652-.3691z"/><path d="m38 28h-28c0 3.3137 2.6863 6 6 6h16c3.3137 0 6-2.6863 6-6zm-30-2v2c0 4.4183 3.5817 8 8 8h16c4.4183 0 8-3.5817 8-8v-2z"/><path d="m4 27c0-.5523.44772-1 1-1h38c.5523 0 1 .4477 1 1s-.4477 1-1 1h-38c-.55228 0-1-.4477-1-1z"/></g></svg>