<svg fill="none" height="48" viewBox="0 0 48 48" width="48" xmlns="http://www.w3.org/2000/svg"><path clip-rule="evenodd" d="m23 6h3v3h-2v2h2v3h-2v2h2v3h-2v2h2v3h-1-2zm-2 18v-18-2h2 3 2v2 18h2v-7h2v7h2v2 14c0 2.2091-1.7909 4-4 4h-12c-2.2091 0-4-1.7909-4-4v-14-2h1v-10l2.5-2 2.5 2v10zm-1 2h-2-1-1v14c0 1.1046.8954 2 2 2h12c1.1046 0 2-.8954 2-2v-14h-4-2-3-2zm-2-2v-9.0388l-.5-.4-.5.4v9.0388zm13-16c-1.1046 0-2 .89543-2 2v4 2h2 2v4c.5523 0 1-.4477 1-1v-6c0-.5523-.4477-1-1-1v-2c0-1.10457-.8954-2-2-2z" fill="#333" fill-rule="evenodd"/></svg>