<svg fill="none" height="48" viewBox="0 0 48 48" width="48" xmlns="http://www.w3.org/2000/svg"><g fill="#333"><path d="m40.8992 19.5969-3.716-8.0513c.271-.2458.488-.5452.6373-.8792.1492-.3341.2275-.69548.2298-1.06135-.0023-.59379-.2065-1.16913-.5792-1.63139s-.8917-.78392-1.4715-.91205-1.1859-.05512-1.7187.20704c-.5328.26215-.9605.69783-1.2128 1.23537l-18.7863 4.77568c-.4634-.3986-1.0541-.6183-1.6653-.6193-.5303-.0036-1.049.155-1.4866.4545-.4377.2995-.7733.7256-.962 1.2212-.18864.4956-.22132 1.0371-.0936 1.5518.1277.5147.4096.9781.8081 1.328l-3.81233 8.2577 11.07913-.0413-3.7986-8.2577c.4048-.3629.6842-.8447.7983-1.3763l6.7851-1.7203v21.1397h-.1377l-9.166 2.849c-.2932.0928-.5495.2758-.7324.523-.1829.2471-.283.5458-.2861.8532v.0964c-.0119.1935.0172.3873.0855.5688.0682.1814.174.3464.3104.4842.1365.1377.3004.2451.4813.315.1808.0699.3743.1009.5679.0908h21.8692c.1924.0099.3847-.0207.5645-.0898s.3431-.1752.4793-.3114c.1362-.1363.2423-.2995.3115-.4794.0691-.1798.0997-.3721.0898-.5645v-.1101c-.0021-.3057-.1002-.6031-.2805-.85-.1803-.247-.4336-.4311-.7242-.5262l-9.1523-2.849h-.1514v-22.0205l7.3219-1.9406.2752.289-3.7297 8.0788c.8236 0 10.2142-.0275 10.969-.0275zm-31.55826 5.8767 3.27556-7.1016 3.2301 7.07zm26.14946-12.7719 3.193 6.8814h-6.4273z"/><g clip-rule="evenodd" fill-rule="evenodd"><path d="m12.6198 30.7178c2.332 0 4.325-1.4513 5.1251-3.5-1.9126 0-3.1336 0-4.1717 0-1.741.0001-2.9674.0001-6.07843 0 .80009 2.0487 2.79313 3.5 5.12503 3.5zm-7.23037-3.5c-.17573-.6367-.26962-1.3074-.26962-2h2c3.39799.0001 4.64959.0001 6.46529 0h4.5347 2v.0027c-.0002.6916-.0941 1.3614-.2696 1.9973-.8753 3.1712-3.7809 5.5-7.2304 5.5-3.44952 0-6.35512-2.3288-7.23037-5.5z"/><path d="m35.0256 25.0137c2.332 0 4.325-1.4513 5.1251-3.5-1.9125 0-3.1336 0-4.1716 0-1.741.0001-2.9675.0001-6.0785 0 .8001 2.0487 2.7931 3.5 5.125 3.5zm-7.2303-3.5c-.1758-.6367-.2697-1.3074-.2697-2h2c3.398.0001 4.6496.0001 6.4653 0h4.5347 2v.0027c-.0002.6916-.0941 1.3614-.2696 1.9973-.8752 3.1712-3.7808 5.5-7.2304 5.5-3.4495 0-6.3551-2.3288-7.2303-5.5z"/></g></g></svg>