<svg fill="none" height="48" viewBox="0 0 48 48" width="48" xmlns="http://www.w3.org/2000/svg"><g clip-rule="evenodd" fill="#333" fill-rule="evenodd"><path d="m30.532 14.928 2.9573-4.323c-2.7494.1978-6.0224.8443-9.1725 1.7556-2.2494.6508-4.7489.5514-7.0649.124-.5882-.1085-1.1691-.239-1.7368-.3859l1.9204 2.827c4.1148 1.465 8.9809 1.4657 13.0965.0023zm-14.2511 1.7022c4.8155 1.8604 10.6025 1.8597 15.4173-.0019 1.9038 1.995 3.696 4.5046 4.9883 7.1425 1.3515 2.7587 2.0873 5.5151 1.9673 7.8914-.1159 2.293-1.0179 4.2523-3.0774 5.7074-2.1476 1.5173-5.7578 2.6275-11.5375 2.6275-5.7848 0-9.4131-1.0913-11.5796-2.5915-2.0753-1.4371-2.9862-3.369-3.11556-5.6318-.13436-2.3504.58505-5.0929 1.93216-7.8694 1.285-2.6482 3.0786-5.1972 5.005-7.2742zm-1.1495-6.71387c.7998.23787 1.6354.44507 2.4834.60147 2.1496.3967 4.3067.4537 6.1462-.0784 2.1458-.62076 4.3904-1.13543 6.5293-1.47145-1.8401-.55405-3.9909-.96795-6.2514-.96795-3.4448 0-6.6578.96102-8.9075 1.91633zm-1.9783-1.29484c2.4543-1.20158 6.4793-2.62149 10.8858-2.62149 4.3147 0 8.2343 1.36139 10.6754 2.54616.0463.02248.0921.0449.1374.06724.7363.36358 1.3297.70754 1.7482.9866l-3.6939 5.4c8.5156 8.7055 15.094 26.9971-8.8671 26.9971-23.9610973 0-17.56038-17.9587-8.9707-26.9971l-3.6683-5.4c.282-.18528.6416-.39918 1.0693-.62842.2116-.11347.44-.23071.6839-.35009z"/><path d="m23 24c-1.1046 0-2 .8954-2 2s.8954 2 2 2h2c2.2091 0 4 1.7909 4 4s-1.7909 4-4 4h-2c-1.7432 0-3.2235-1.1145-3.7721-2.6668-.1841-.5207.0888-1.092.6096-1.276.5207-.1841 1.092.0888 1.276.6096.2751.7781 1.0173 1.3332 1.8865 1.3332h2c1.1046 0 2-.8954 2-2s-.8954-2-2-2h-2c-2.2091 0-4-1.7909-4-4s1.7909-4 4-4h2c1.7432 0 3.2235 1.1145 3.7721 2.6668.1841.5207-.0888 1.092-.6096 1.276-.5207.1841-1.092-.0888-1.276-.6096-.2751-.7781-1.0172-1.3332-1.8865-1.3332z"/><path d="m23 37v-16h2v16z"/></g></svg>