<svg fill="none" height="48" viewBox="0 0 48 48" width="48" xmlns="http://www.w3.org/2000/svg"><path clip-rule="evenodd" d="m9.77778 9c-.4255 0-.77778.35228-.77778.77778 0 16.14102 13.0812 29.22222 29.2222 29.22222.4255 0 .7778-.3523.7778-.7778v-6.2044c0-.4255-.3523-.7778-.7778-.7778-2.3113 0-4.5682-.3727-6.6603-1.0638l-.0107-.0035c-.2598-.0891-.571-.0231-.7819.1877l-4.426 4.4261-.6482-.3321c-5.2161-2.6725-9.4941-6.9308-12.1508-12.152l-.3293-.6472 4.4246-4.4245c.2213-.2214.2855-.5199.1992-.8009-.6892-2.0893-1.061-4.3256-1.061-6.65202 0-.4255-.3523-.77778-.7778-.77778zm-2.77778.77778c0-1.53006 1.24772-2.77778 2.77778-2.77778h6.22222c1.5301 0 2.7778 1.24772 2.7778 2.77778 0 2.11492.3383 4.14242.9628 6.03302l.0023.0069.0022.0069c.3023.9619.0814 2.0475-.6913 2.8203l-3.39 3.39c2.3653 4.3382 5.959 7.9194 10.3027 10.3l3.3886-3.3887c.7476-.7476 1.8556-1.002 2.8388-.6675 1.8888.6234 3.9324.9613 6.0283.9613 1.5301 0 2.7778 1.2477 2.7778 2.7778v6.2044c0 1.5301-1.2477 2.7778-2.7778 2.7778-17.2456 0-31.2222-13.9766-31.2222-31.22222z" fill="#333" fill-rule="evenodd"/></svg>