<svg fill="none" height="48" viewBox="0 0 48 48" width="48" xmlns="http://www.w3.org/2000/svg"><g clip-rule="evenodd" fill="#333" fill-rule="evenodd"><path d="m5 41v-36h2v36z"/><path d="m17 10v-4h2v4z"/><path d="m24 11h-12v10h12zm-14-2v14h16v-14z"/><path d="m30 26v4h10v-4zm-2 6h14v-8h-14z"/><path d="m10 13h-3v6h3zm-5-2v10h7v-10z"/><path d="m24 21v-10h6c5.5228 0 10 4.4772 10 10v5h-10v-3c0-1.1046-.8954-2-2-2zm8 3h6v-3c0-4.4183-3.5817-8-8-8h-4v6h2c2.2091 0 4 1.7909 4 4z"/><path d="m35 42c1.1046 0 2-.8954 2-2 0-1.0664-.6536-2.3702-1.5909-3.6004-.1371-.18-.2746-.351-.4091-.5116-.1345.1606-.272.3316-.4091.5116-.9373 1.2302-1.5909 2.534-1.5909 3.6004 0 1.1046.8954 2 2 2zm0 2c2.2091 0 4-1.7909 4-4 0-3.5-4-7-4-7s-4 3.5-4 7c0 2.2091 1.7909 4 4 4z"/><path d="m27 6c0 .55228-.4477 1-1 1h-16c-.55229 0-1-.44772-1-1s.44771-1 1-1h16c.5523 0 1 .44772 1 1z"/></g></svg>