<svg fill="none" height="48" viewBox="0 0 48 48" width="48" xmlns="http://www.w3.org/2000/svg"><g clip-rule="evenodd" fill="#333" fill-rule="evenodd"><path d="m14 19c0-.5523.4477-1 1-1h18c.5523 0 1 .4477 1 1v15c0 .5523-.4477 1-1 1h-18c-.5523 0-1-.4477-1-1zm2 6v3h4v-3zm0 8v-3h4v3zm6 0v-3h4v3zm6 0v-3h4v3zm0-8v3h4v-3zm-6 3h4v-3h-4zm-6-5h16v-3h-16z"/><path d="m10 5c0-.55228.4477-1 1-1h20c.2652 0 .5196.10536.7071.29289l6 6.00001c.1875.1875.2929.4419.2929.7071v32c0 .5523-.4477 1-1 1h-26c-.5523 0-1-.4477-1-1zm2 1v36h24v-30h-5c-.5523 0-1-.4477-1-1v-5zm20 1.41421v2.58579h2.5858z"/></g></svg>