<svg fill="none" height="48" viewBox="0 0 48 48" width="48" xmlns="http://www.w3.org/2000/svg"><path d="m0 0h48v48h-48z" fill="#fff"/><g clip-rule="evenodd" fill="#333" fill-rule="evenodd"><path d="m16.5 12c.4169 0 .79.2586.9364.6489l3.5 9.3333c.1939.5171-.0681 1.0935-.5852 1.2875-.5172.1939-1.0936-.0681-1.2875-.5852l-2.5637-6.8365-2.5636 6.8365c-.194.5171-.7704.7791-1.2875.5852-.5171-.194-.7791-.7704-.5852-1.2875l3.5-9.3333c.1464-.3903.5195-.6489.9363-.6489z"/><path d="m13.5557 19h5.8889v2h-5.8889z"/><path d="m31 18c0-.5523.4477-1 1-1h6c.5523 0 1 .4477 1 1s-.4477 1-1 1h-6c-.5523 0-1-.4477-1-1z"/><path d="m18.3856 5.33391c1.9693-2.06012 5.2595-2.06012 7.2288 0l.5274.55175h5.1884c2.579 0 4.6698 2.09076 4.6698 4.66984v3.4445h-2v-3.4445c0-1.47451-1.1953-2.66984-2.6698-2.66984h-5.6159c-.2731 0-.5342-.11164-.7229-.30901l-.8228-.86078c-1.1815-1.23607-3.1557-1.23607-4.3372 0l-.8228.86078c-.1887.19737-.4498.30901-.7229.30901h-5.2857c-1.6569 0-3 1.34315-3 3.00004v22.1143c0 1.6568 1.3431 3 3 3h18c1.6569 0 3-1.3432 3-3v-11h2v11c0 2.7614-2.2386 5-5 5h-18c-2.7614 0-5-2.2386-5-5v-22.1143c0-2.76145 2.2386-5.00004 5-5.00004h4.8582z"/><path d="m21 44v-8h2v8z"/><path d="m28 40h-12v-2h12z"/><path d="m32.069 27.6418c-1.294-.753-3.1544-1.2003-5.5607.2194-2.9572 1.7447-5.7422 2.1974-8.5838 2.2578-1.2345.0263-2.4949-.0216-3.7713-.07-.1752-.0067-.3506-.0133-.5263-.0198-1.468-.0542-2.977-.0971-4.58517-.0301l-.08323-1.9983c1.6917-.0705 3.2671-.0247 4.7421.0298.1784.0065.3551.0132.5301.0199 1.2835.0486 2.4803.0939 3.6512.069 2.6272-.0559 5.0422-.4658 7.6101-1.9808 3.1186-1.84 5.7582-1.2874 7.583-.2255.8876.5166 1.5696 1.1429 2.0273 1.634.2304.2471.4079.4643.5301.6231.0612.0795.1089.1447.1426.1922.0168.0238.0303.0431.0402.0576l.0122.0181.0042.0062.0023.0034c.0003.0004.0006.0009-.8338.5521-.8343.5512-.8341.5516-.8338.552l-.0015-.0022c-.0036-.0052-.0104-.015-.0203-.0289-.0199-.028-.0523-.0726-.0969-.1305-.0894-.1162-.2265-.2844-.4083-.4795-.3665-.3931-.8985-.878-1.5703-1.269z"/><path d="m26.5877 15.25c0-.6547-.5626-1.25-1.3377-1.25v-2c1.807 0 3.3377 1.4194 3.3377 3.25s-1.5307 3.25-3.3377 3.25v-2c.7751 0 1.3377-.5953 1.3377-1.25z"/><path d="m26.5877 19.75c0-.6547-.5626-1.25-1.3377-1.25v-2c1.807 0 3.3377 1.4194 3.3377 3.25s-1.5307 3.25-3.3377 3.25v-2c.7751 0 1.3377-.5953 1.3377-1.25z"/><path d="m22 12h3.25v2h-1.25v7h1.25v2h-3.25z"/><path d="m23 16.5h3.75v2h-3.75z"/></g></svg>