<svg fill="none" height="48" viewBox="0 0 48 48" width="48" xmlns="http://www.w3.org/2000/svg"><path d="m0 0h48v48h-48z" fill="#fff"/><g clip-rule="evenodd" fill="#333" fill-rule="evenodd"><path d="m31 18c0-.5523.4477-1 1-1h6c.5523 0 1 .4477 1 1s-.4477 1-1 1h-6c-.5523 0-1-.4477-1-1z"/><path d="m18.3856 5.33391c1.9693-2.06012 5.2595-2.06012 7.2288 0l.5274.55175h5.1884c2.579 0 4.6698 2.09076 4.6698 4.66984v3.4445h-2v-3.4445c0-1.47451-1.1953-2.66984-2.6698-2.66984h-5.6159c-.2731 0-.5342-.11164-.7229-.30901l-.8228-.86078c-1.1815-1.23607-3.1557-1.23607-4.3372 0l-.8228.86078c-.1887.19737-.4498.30901-.7229.30901h-5.2857c-1.6569 0-3 1.34315-3 3.00004v22.1143c0 1.6568 1.3431 3 3 3h18c1.6569 0 3-1.3432 3-3v-11h2v11c0 2.7614-2.2386 5-5 5h-18c-2.7614 0-5-2.2386-5-5v-22.1143c0-2.76145 2.2386-5.00004 5-5.00004h4.8582z"/><path d="m21 44v-8h2v8z"/><path d="m28 40h-12v-2h12z"/><path d="m32.069 27.6421c-1.294-.753-3.1544-1.2004-5.5607.2194-2.9572 1.7447-5.7422 2.1973-8.5838 2.2578-1.2345.0262-2.4949-.0216-3.7713-.0701-.1752-.0066-.3506-.0133-.5263-.0198-1.468-.0541-2.977-.0971-4.58517-.0301l-.08323-1.9982c1.6917-.0705 3.2671-.0247 4.7421.0297.1784.0066.3551.0133.5301.0199 1.2835.0486 2.4803.0939 3.6512.069 2.6272-.0559 5.0422-.4658 7.6101-1.9808 3.1186-1.84 5.7582-1.2873 7.583-.2254.8876.5165 1.5696 1.1428 2.0273 1.6339.2304.2472.4079.4643.5301.6231.0612.0795.1089.1448.1426.1923.0168.0237.0303.043.0402.0575l.0122.0181.0042.0062.0023.0034c.0003.0005.0006.0009-.8338.5522-.8343.5512-.8341.5516-.8338.552l-.0015-.0022c-.0036-.0052-.0104-.015-.0203-.029-.0199-.028-.0523-.0726-.0969-.1305-.0894-.1161-.2265-.2844-.4083-.4794-.3665-.3932-.8985-.8781-1.5703-1.269z"/><path d="m22 12c.5523 0 1 .4477 1 1v10c0 .5523-.4477 1-1 1s-1-.4477-1-1v-10c0-.5523.4477-1 1-1z"/><path d="m13 12c.5523 0 1 .4477 1 1v10c0 .5523-.4477 1-1 1s-1-.4477-1-1v-10c0-.5523.4477-1 1-1z"/><path d="m28 12c.5523 0 1 .4477 1 1v10c0 .5523-.4477 1-1 1s-1-.4477-1-1v-10c0-.5523.4477-1 1-1z"/><path d="m21 18c0-.5523.4477-1 1-1h6c.5523 0 1 .4477 1 1s-.4477 1-1 1h-6c-.5523 0-1-.4477-1-1z"/><path d="m13.2192 18.3753c.345-.4313.9743-.5012 1.4055-.1562l5 4c.4313.345.5012.9743.1562 1.4056s-.9743.5012-1.4056.1562l-5-4c-.4312-.345-.5011-.9743-.1561-1.4056z"/><path d="m13 12h3c2.2091 0 4 1.7909 4 4s-1.7909 4-4 4h-3v-2h3c1.1046 0 2-.8954 2-2s-.8954-2-2-2h-3z"/></g></svg>