<svg fill="none" height="48" viewBox="0 0 48 48" width="48" xmlns="http://www.w3.org/2000/svg"><path d="m0 0h48v48h-48z" fill="#fff"/><g clip-rule="evenodd" fill="#333" fill-rule="evenodd"><path d="m28 8.11433c-.5402 0-1.0574-.21852-1.434-.60584l-1.132-1.16436 1.1219-1.09075-1.1219 1.09074c-.7854-.80779-2.0826-.80779-2.868 0l-1.132 1.16437c-.3766.38732-.8938.60584-1.434.60584h-6c-1.1046 0-2 .89543-2 1.99997v23.8857c0 1.1046.8954 2 2 2h20c1.1046 0 2-.8954 2-1.9999v-23.8858c0-1.10454-.8954-1.99997-2-1.99997zm10 1.99997v23.8858c0 2.2091-1.7909 3.9999-4 3.9999h-20c-2.2091 0-4-1.7908-4-4v-23.8857c0-2.20911 1.7909-3.99997 4-3.99997h6l1.132-1.16436c1.5707-1.61558 4.1653-1.61558 5.736 0l1.132 1.16436h6c2.2091 0 4 1.79086 4 3.99997z"/><path d="m20 10c.4037 0 .7678.2427.9231.6154l5 12c.2124.5098-.0287 1.0953-.5385 1.3077s-1.0952-.0287-1.3077-.5385l-4.0769-9.7846-4.0769 9.7846c-.2124.5098-.7979.7509-1.3077.5385s-.7509-.7979-.5385-1.3077l5-12c.1553-.3727.5194-.6154.9231-.6154z"/><path d="m16 19h8v2h-8z"/><path d="m26 17c0-.5523.4477-1 1-1h6c.5523 0 1 .4477 1 1s-.4477 1-1 1h-6c-.5523 0-1-.4477-1-1z"/><path d="m23 44v-8h2v8z"/><path d="m30 40h-12v-2h12z"/><path d="m34.069 28.6421c-1.294-.753-3.1544-1.2004-5.5607.2194-2.9572 1.7447-5.7422 2.1973-8.5838 2.2578-1.2345.0262-2.4949-.0216-3.7713-.0701-.1752-.0066-.3506-.0133-.5263-.0198-1.468-.0541-2.977-.0971-4.5852-.0301l-.0832-1.9982c1.6917-.0705 3.2671-.0247 4.7421.0297.1784.0066.3551.0133.5301.0199 1.2835.0486 2.4803.0939 3.6512.069 2.6272-.0559 5.0422-.4658 7.6101-1.9808 3.1186-1.84 5.7582-1.2873 7.583-.2254.8876.5165 1.5696 1.1428 2.0273 1.6339.2304.2472.4079.4643.5301.6231.0612.0795.1089.1448.1426.1923.0168.0237.0303.043.0402.0575l.0122.0181.0042.0062.0023.0034c.0003.0005.0006.0009-.8338.5522-.8343.5512-.8341.5516-.8338.552l-.0015-.0022c-.0036-.0052-.0104-.015-.0203-.029-.0199-.028-.0523-.0726-.0969-.1305-.0894-.1161-.2265-.2844-.4083-.4794-.3665-.3932-.8985-.8781-1.5703-1.269z"/></g></svg>