<svg fill="none" height="48" viewBox="0 0 48 48" width="48" xmlns="http://www.w3.org/2000/svg"><path d="m0 0h48v48h-48z" fill="#fff"/><g clip-rule="evenodd" fill="#333" fill-rule="evenodd"><path d="m28 8.11433c-.5402 0-1.0574-.21852-1.434-.60584l-1.132-1.16436 1.1219-1.09075-1.1219 1.09074c-.7854-.80779-2.0826-.80779-2.868 0l-1.132 1.16437c-.3766.38732-.8938.60584-1.434.60584h-6c-1.1046 0-2 .89543-2 1.99997v23.8857c0 1.1046.8954 2 2 2h20c1.1046 0 2-.8954 2-1.9999v-23.8858c0-1.10454-.8954-1.99997-2-1.99997zm10 1.99997v23.8858c0 2.2091-1.7909 3.9999-4 3.9999h-20c-2.2091 0-4-1.7908-4-4v-23.8857c0-2.20911 1.7909-3.99997 4-3.99997h6l1.132-1.16436c1.5707-1.61558 4.1653-1.61558 5.736 0l1.132 1.16436h6c2.2091 0 4 1.79086 4 3.99997z"/><path d="m26 17c0-.5523.4477-1 1-1h6c.5523 0 1 .4477 1 1s-.4477 1-1 1h-6c-.5523 0-1-.4477-1-1z"/><path d="m23 44v-8h2v8z"/><path d="m30 40h-12v-2h12z"/><path d="m34.069 28.6418c-1.294-.753-3.1544-1.2003-5.5607.2194-2.9572 1.7447-5.7422 2.1974-8.5838 2.2578-1.2345.0263-2.4949-.0216-3.7713-.07-.1752-.0067-.3506-.0133-.5263-.0198-1.468-.0542-2.977-.0971-4.5852-.0301l-.0832-1.9983c1.6917-.0705 3.2671-.0247 4.7421.0298.1784.0065.3551.0132.5301.0199 1.2835.0486 2.4803.0939 3.6512.069 2.6272-.0559 5.0422-.4658 7.6101-1.9808 3.1186-1.84 5.7582-1.2874 7.583-.2255.8876.5166 1.5696 1.1429 2.0273 1.634.2304.2471.4079.4643.5301.6231.0612.0795.1089.1447.1426.1922.0168.0238.0303.0431.0402.0576l.0122.0181.0042.0062.0023.0034c.0003.0004.0006.0009-.8338.5521-.8343.5512-.8341.5516-.8338.552l-.0015-.0022c-.0036-.0052-.0104-.015-.0203-.0289-.0199-.028-.0523-.0726-.0969-.1305-.0894-.1162-.2265-.2844-.4083-.4795-.3665-.3931-.8985-.878-1.5703-1.269z"/><path d="m22 19v-4c0-1.6569-1.3431-3-3-3s-3 1.3431-3 3v4c0 1.6569 1.3431 3 3 3s3-1.3431 3-3zm-3-9c-2.7614 0-5 2.2386-5 5v4c0 2.7614 2.2386 5 5 5s5-2.2386 5-5v-4c0-2.7614-2.2386-5-5-5z"/></g></svg>