<svg fill="none" height="48" viewBox="0 0 48 48" width="48" xmlns="http://www.w3.org/2000/svg"><path clip-rule="evenodd" d="m23.1009 6.84867c.3649-.75005 1.4336-.75005 1.7985 0l16.4014 33.71413c.3231.6642-.1606 1.4374-.8992 1.4374h-32.80294c-.73864 0-1.22236-.7732-.89923-1.4374zm-1.1008 11.15133c0-1.1046.8955-2 2-2 1.1046 0 2 .8954 2 2v12c0 1.1046-.8954 2-2 2-1.1045 0-2-.8954-2-2zm1.9663 17.0001c-1.0859 0-1.9663.8804-1.9663 1.9663 0 1.086.8804 1.9663 1.9663 1.9663h.0674c1.086 0 1.9663-.8803 1.9663-1.9663 0-1.0859-.8803-1.9663-1.9663-1.9663z" fill="#333" fill-rule="evenodd"/></svg>