<svg fill="none" height="48" viewBox="0 0 48 48" width="48" xmlns="http://www.w3.org/2000/svg"><g fill="#333"><path d="m13.0001 20c0-6.0751 4.9249-11 11-11 6.0752 0 11 4.9249 11 11s-4.9248 11-11 11c-6.0751 0-11-4.9249-11-11z"/><path clip-rule="evenodd" d="m31.0001 34.391c5.3279-2.5968 8.9989-8.0652 8.9989-14.391 0-8.8366-7.1634-16-16-16-8.8365 0-15.99998 7.1634-15.99998 16 0 6.3267 3.67208 11.7957 9.00108 14.3921v8.608c0 .3688.203.7077.5282.8817.3251.174.7197.1549 1.0265-.0496l5.4453-3.6302 5.4453 3.6302c.3069.2045.7014.2236 1.0266.0496.3251-.174.5281-.5129.5281-.8817zm-7.0011-.391c7.732 0 14-6.268 14-14s-6.268-14-14-14-13.99998 6.268-13.99998 14 6.26798 14 13.99998 14z" fill-rule="evenodd"/></g></svg>