<svg fill="none" height="48" viewBox="0 0 48 48" width="48" xmlns="http://www.w3.org/2000/svg"><g fill="#333"><path clip-rule="evenodd" d="m29.9553 35.0299c5.583-1.3431 9.1341-6.6094 7.9315-11.7626s-6.7034-8.2419-12.2864-6.8988c-5.5831 1.3431-9.1342 6.6094-7.9316 11.7626s6.7034 8.2419 12.2865 6.8988zm2.0725-4.5365c1.304 0 2.3611-1.0733 2.3611-2.3972 0-1.324-1.0571-2.3973-2.3611-2.3973s-2.3611 1.0733-2.3611 2.3973c0 1.3239 1.0571 2.3972 2.3611 2.3972z" fill-rule="evenodd"/><path d="m17.3891 17.1557c0-1.685 1.3454-3.051 3.005-3.051 1.6597 0 3.0051 1.366 3.0051 3.051 0 1.6851-1.3454 3.0511-3.0051 3.0511-1.6596 0-3.005-1.366-3.005-3.0511z"/><path d="m13.0961 16.2837c0-1.6851 1.3454-3.0511 3.0051-3.0511 1.6596 0 3.005 1.366 3.005 3.0511 0 1.685-1.3454 3.051-3.005 3.051-1.6597 0-3.0051-1.366-3.0051-3.051z"/><path d="m9.66177 18.8991c0-1.685 1.34543-3.051 3.00503-3.051 1.6597 0 3.0051 1.366 3.0051 3.051 0 1.6851-1.3454 3.0511-3.0051 3.0511-1.6596 0-3.00503-1.366-3.00503-3.0511z"/><path d="m7.94449 23.258c0-1.685 1.34541-3.051 3.00501-3.051 1.6597 0 3.0051 1.366 3.0051 3.051 0 1.6851-1.3454 3.0511-3.0051 3.0511-1.6596 0-3.00501-1.366-3.00501-3.0511z"/><path d="m8.80313 27.6167c0-1.6851 1.34537-3.0511 3.00507-3.0511 1.6596 0 3.005 1.366 3.005 3.0511 0 1.685-1.3454 3.051-3.005 3.051-1.6597 0-3.00507-1.366-3.00507-3.051z"/><path d="m11.3788 31.9751c0-1.6851 1.3454-3.0511 3.0051-3.0511 1.6596 0 3.005 1.366 3.005 3.0511 0 1.685-1.3454 3.051-3.005 3.051-1.6597 0-3.0051-1.366-3.0051-3.051z"/><path d="m13.096 36.3336c0-1.2036.961-2.1793 2.1465-2.1793 1.1854 0 2.1464.9757 2.1464 2.1793s-.961 2.1793-2.1464 2.1793c-1.1855 0-2.1465-.9757-2.1465-2.1793z"/><path d="m13.0962 40.2565c0-.9628.7688-1.7434 1.7171-1.7434.9484 0 1.7172.7806 1.7172 1.7434 0 .9629-.7688 1.7435-1.7172 1.7435-.9483 0-1.7171-.7806-1.7171-1.7435z"/><path d="m16.1011 29.7955c-.8586-1.3076-2.1464-9.1532 3.4344-8.7173s1.2879-.4359 1.2879-.4359l-.4293-3.051-3.8637-1.3076-4.2929 3.0511-.8586 6.9738s5.5808 4.7945 4.7222 3.4869z"/><g clip-rule="evenodd" fill-rule="evenodd"><path d="m29.1527 17.9385c-.1258.541.2048 1.0845.7385 1.2138.5334.1293 1.0678-.2041 1.1939-.7448"/><path d="m6.65356 6.06197c.51808-.19135 1.09318.07351 1.28453.59159.55313 1.49761 1.81165 2.22318 3.13481 2.22318 1.3347 0 2.7556-.74587 3.53-2.31851.1608-.32657.4864-.53995.85-.55709.3637-.01714.7079.16467.8987.47467 1.0635 1.7276 2.319 2.40093 3.3984 2.40093 1.0795 0 2.335-.67333 3.3984-2.40093.1909-.31.5351-.49181.8987-.47467s.6892.23052.85.55709c.8073 1.63917 2.0287 2.31852 3.1758 2.31853 1.1691 0 2.5323-.70618 3.5755-2.40094.1821-.29569.5044-.47579.8516-.47579s.6696.1801.8516.47578c1.0635 1.7276 2.319 2.40093 3.3984 2.40093 1.0795 0 2.335-.67333 3.3984-2.40093.2896-.47032.9055-.61688 1.3758-.32737.4704.28952.6169.90548.3274 1.3758-1.2976 2.10802-3.1116 3.35246-5.1016 3.35246-1.5887 0-3.0651-.7931-4.2563-2.18556-1.2371 1.40876-2.8045 2.18566-4.4208 2.18566-1.5835 0-3.0512-.7461-4.1347-2.107-1.1791 1.3436-2.6297 2.1069-4.1882 2.1069-1.5652 0-3.0216-.7699-4.2034-2.12438-1.1767 1.40328-2.835 2.12438-4.4737 2.12438-2.10036 0-4.1474-1.19219-5.01093-3.5302-.19135-.51808.07351-1.09318.59159-1.28453z"/></g></g></svg>