<svg fill="none" height="48" viewBox="0 0 48 48" width="48" xmlns="http://www.w3.org/2000/svg"><g fill="#333"><path clip-rule="evenodd" d="m29.9553 35.0298c5.5831-1.343 9.1341-6.6093 7.9316-11.7625-1.2026-5.1532-6.7035-8.242-12.2865-6.8989-5.5831 1.3431-9.1341 6.6094-7.9316 11.7626 1.2026 5.1532 6.7035 8.2419 12.2865 6.8988zm2.0725-4.5365c1.3041 0 2.3612-1.0732 2.3612-2.3972s-1.0571-2.3973-2.3612-2.3973c-1.304 0-2.3611 1.0733-2.3611 2.3973s1.0571 2.3972 2.3611 2.3972z" fill-rule="evenodd"/><path d="m17.389 17.1557c0-1.685 1.3454-3.051 3.005-3.051 1.6597 0 3.0051 1.366 3.0051 3.051 0 1.6851-1.3454 3.0511-3.0051 3.0511-1.6596 0-3.005-1.366-3.005-3.0511z"/><path d="m13.096 16.2837c0-1.6851 1.3454-3.0511 3.0051-3.0511 1.6596 0 3.005 1.366 3.005 3.0511 0 1.685-1.3454 3.051-3.005 3.051-1.6597 0-3.0051-1.366-3.0051-3.051z"/><path d="m9.66168 18.8992c0-1.6851 1.34542-3.0511 3.00502-3.0511 1.6597 0 3.0051 1.366 3.0051 3.0511 0 1.685-1.3454 3.051-3.0051 3.051-1.6596 0-3.00502-1.366-3.00502-3.051z"/><path d="m7.94452 23.2581c0-1.6851 1.3454-3.0511 3.00508-3.0511 1.6596 0 3.005 1.366 3.005 3.0511 0 1.685-1.3454 3.051-3.005 3.051-1.65968 0-3.00508-1.366-3.00508-3.051z"/><path d="m8.80304 27.6167c0-1.685 1.34536-3.051 3.00506-3.051 1.6596 0 3.005 1.366 3.005 3.051 0 1.6851-1.3454 3.0511-3.005 3.0511-1.6597 0-3.00506-1.366-3.00506-3.0511z"/><path d="m11.3788 31.9752c0-1.6851 1.3454-3.0511 3.0051-3.0511 1.6596 0 3.005 1.366 3.005 3.0511 0 1.685-1.3454 3.051-3.005 3.051-1.6597 0-3.0051-1.366-3.0051-3.051z"/><path d="m13 36.5001c0-1.3807 1.1193-2.5 2.5-2.5s2.5 1.1193 2.5 2.5-1.1193 2.5-2.5 2.5-2.5-1.1193-2.5-2.5z"/><path d="m13.096 40.2567c0-.9629.7688-1.7435 1.7172-1.7435s1.7172.7806 1.7172 1.7435c0 .9628-.7688 1.7434-1.7172 1.7434s-1.7172-.7806-1.7172-1.7434z"/><path d="m16.1011 29.7958c-.8586-1.3076-2.1465-9.1532 3.4343-8.7174 5.5808.4359 1.2879-.4358 1.2879-.4358l-.4293-3.0511-3.8636-1.3076-4.293 3.0511-.8586 6.9738s5.5808 4.7946 4.7223 3.487z"/><g clip-rule="evenodd" fill-rule="evenodd"><path d="m31.7042 17.3271.0017-.007.009-.0374c.0086-.0347.0223-.0884.0413-.1589.0381-.1411.0975-.3487.1805-.6047.1666-.5138.4254-1.214.7933-1.9599.7535-1.5281 1.8803-3.0768 3.4462-3.7714.5076-.2251.7354-.81321.5087-1.31354-.2266-.50032-.8218-.7234-1.3294-.49826-2.2175.98349-3.6126 3.0501-4.4351 4.7179-.4202.8521-.7129 1.6449-.9009 2.2247-.0943.2907-.1629.53-.2085.6992-.0229.0846-.04.1518-.0517.1993-.0059.0237-.0104.0425-.0136.0562l-.0039.0164-.0016.0071s-.0003.0014.9817.2158l-.982-.2144c-.1216.5357.2195 1.066.762 1.1844.5422.1185 1.0805-.22 1.2023-.7555z"/><path d="m6.64464 6.06531c.51623-.19628 1.09383.0631 1.29011.57933.54564 1.43512 1.79727 2.14991 3.13815 2.14991 1.3501 0 2.7678-.73292 3.5352-2.24669.1626-.32076.4849-.5295.8441-.54669s.7.15983.8925.46359c1.0571 1.66818 2.3118 2.32979 3.4053 2.32979s2.3483-.66161 3.4053-2.32979c.1925-.30376.5333-.48078.8925-.46359s.6816.22593.8442.54669c.8 1.57817 2.0182 2.2467 3.1809 2.2467 1.183.00001 2.5455-.6934 3.5824-2.32979.1834-.28937.5021-.46474.8447-.46474s.6613.17536.8447.46473c1.0571 1.66818 2.3118 2.32979 3.4053 2.32979s2.3483-.66161 3.4053-2.32979c.2957-.4665.9135-.60504 1.38-.30942s.605.91344.3094 1.37995c-1.304 2.05786-3.1187 3.25921-5.0947 3.25921-1.5818 0-3.0603-.7699-4.2561-2.13273-1.2417 1.37883-2.8115 2.13283-4.421 2.13283-1.5757 0-3.0463-.7235-4.1343-2.05674-1.1838 1.31544-2.6364 2.05664-4.1886 2.05664-1.5587 0-3.017-.7475-4.2036-2.0734-1.1809 1.3745-2.8428 2.0734-4.4735 2.0734-2.08265 0-4.13657-1.14818-5.00759-3.43909-.19628-.51623.0631-1.09383.57933-1.2901z"/></g></g></svg>