<svg fill="none" height="48" viewBox="0 0 48 48" width="48" xmlns="http://www.w3.org/2000/svg"><g clip-rule="evenodd" fill="#333" fill-rule="evenodd"><path d="m15 23c-1.1046 0-2 .8954-2 2v2c0 1.1046.8954 2 2 2h2c1.1046 0 2-.8954 2-2v-2c0-1.1046-.8954-2-2-2zm0 2v2h2v-2z"/><path d="m21 25c0-1.1046.8954-2 2-2h2c1.1046 0 2 .8954 2 2v2c0 1.1046-.8954 2-2 2h-2c-1.1046 0-2-.8954-2-2zm2 0h2v2h-2z"/><path d="m31 23c-1.1046 0-2 .8954-2 2v2c0 1.1046.8954 2 2 2h2c1.1046 0 2-.8954 2-2v-2c0-1.1046-.8954-2-2-2zm0 2v2h2v-2z"/><path d="m13 33c0-1.1046.8954-2 2-2h2c1.1046 0 2 .8954 2 2v2c0 1.1046-.8954 2-2 2h-2c-1.1046 0-2-.8954-2-2zm2 2v-2h2v2z"/><path d="m23 31c-1.1046 0-2 .8954-2 2v2c0 1.1046.8954 2 2 2h2c1.1046 0 2-.8954 2-2v-2c0-1.1046-.8954-2-2-2zm2 2h-2v2h2z"/><path d="m29 33c0-1.1046.8954-2 2-2h2c1.1046 0 2 .8954 2 2v2c0 1.1046-.8954 2-2 2h-2c-1.1046 0-2-.8954-2-2zm2 2v-2h2v2z"/><path d="m16 6c-.5523 0-1 .44772-1 1v3h-4c-2.20914 0-4 1.7909-4 4v24c0 2.2092 1.79086 4 4 4h26c2.2091 0 4-1.7908 4-4v-24c0-2.2091-1.7909-4-4-4h-2v3c0 .5523-.4477 1-1 1s-1-.4477-1-1v-6c0-.55228-.4477-1-1-1s-1 .44772-1 1v3h-12v3c0 .5523-.4477 1-1 1s-1-.4477-1-1v-6c0-.55228-.4477-1-1-1zm-7 32v-17h30v17c0 1.1046-.8954 2-2 2h-26c-1.10457 0-2-.8954-2-2z"/></g></svg>