<svg fill="none" height="48" viewBox="0 0 48 48" width="48" xmlns="http://www.w3.org/2000/svg"><path d="m24.0001 5.02246.4296.72151c1.9471 3.26998 3.0704 7.12733 3.0704 11.25583 0 .9684-.0618 1.9219-.1816 2.8565.5949-.8366 1.2662-1.6336 2.0143-2.3817 2.6669-2.6669 5.9551-4.3583 9.4439-5.0857l.7473-.1558-.1558.7474c-.7273 3.4887-2.4187 6.7769-5.0856 9.4439-.796.7959-1.6473 1.505-2.5428 2.1275.4162-.0344.8365-.0519 1.2603-.0519 3.4172 0 6.6027 1.137 9.2942 3.0957l.5555.4043-.5555.4043c-2.6915 1.9587-5.877 3.0957-9.2942 3.0957-1.471 0-2.8991-.2107-4.2633-.6069.2508.333.4835.684.6964 1.0526 1.1581 2.0059 1.5692 4.2599 1.3321 6.4988l-.0723.6833-.6279-.279c-2.0575-.9141-3.804-2.3972-4.9621-4.4031-.0349-.0606-.0693-.1214-.1029-.1825v6.7368h-2v-6.7368c-.0336.0611-.0679.1219-.1029.1825-1.1581 2.0059-2.9045 3.489-4.962 4.4031l-.6279.279-.0724-.6833c-.2371-2.2389.1741-4.4929 1.3322-6.4988.2128-.3686.4455-.7196.6964-1.0526-1.3643.3962-2.7924.6069-4.2634.6069-3.4172 0-6.6027-1.137-9.29419-3.0957l-.55552-.4043.55552-.4043c2.69149-1.9587 5.87699-3.0957 9.29419-3.0957.4239 0 .8441.0175 1.2603.0519-.8954-.6225-1.7467-1.3316-2.5427-2.1275-2.6669-2.667-4.35835-5.9552-5.08568-9.4439l-.1558-.7474.74732.1558c3.48876.7274 6.77696 2.4188 9.44386 5.0857.7481.7481 1.4195 1.5451 2.0143 2.3817-.1198-.9346-.1816-1.8881-.1816-2.8565 0-4.1285 1.1234-7.98585 3.0704-11.25583z" fill="#333"/></svg>