<svg fill="none" height="48" viewBox="0 0 48 48" width="48" xmlns="http://www.w3.org/2000/svg"><g clip-rule="evenodd" fill="#333" fill-rule="evenodd"><path d="m12 9c0-1.65685 1.3431-3 3-3h8c1.6569 0 3 1.34315 3 3v2c0 1.6569-1.3431 3-3 3h-8c-1.6569 0-3-1.3431-3-3zm3-1c-.5523 0-1 .44772-1 1v2c0 .5523.4477 1 1 1h8c.5523 0 1-.4477 1-1v-2c0-.55228-.4477-1-1-1z"/><path d="m13 9h-4c-1.65685 0-3 1.3431-3 3v9h7.035l3.2983-5.5339 1.9995 7.3387 2.1776-2.8048h5.2576c.5523 0 1 .4477 1 1s-.4477 1-1 1h-4.2784l-4.0335 5.1952-1.815-6.6613-1.4698 2.4661h-8.1713v16c0 1.6569 1.34315 3 3 3h20c1.6569 0 3-1.3431 3-3v-27c0-1.6569-1.3431-3-3-3h-4v2c0 1.1046-.8954 2-2 2h-8c-1.1046 0-2-.8954-2-2zm-2 21c0-.5523.4477-1 1-1h14c.5523 0 1 .4477 1 1s-.4477 1-1 1h-14c-.5523 0-1-.4477-1-1zm1 4c-.5523 0-1 .4477-1 1s.4477 1 1 1h14c.5523 0 1-.4477 1-1s-.4477-1-1-1z"/><path d="m39 15c-1.6569 0-3 1.3431-3 3v3h6v-3c0-1.6569-1.3431-3-3-3zm3 8h-6v15l3 4 3-4z"/></g></svg>