<svg fill="none" height="48" viewBox="0 0 48 48" width="48" xmlns="http://www.w3.org/2000/svg"><g fill="#333"><path d="m22.7203 11.4c-.0508 0-.0996.0212-.1355.0589-.4665.4898-.4862 1.2773-.0449 1.7921l1.4603 1.7036 1.4602-1.7036c.4413-.5148.4216-1.3023-.0449-1.7921-.0359-.0377-.0846-.0589-.1355-.0589z"/><path clip-rule="evenodd" d="m37.295 6h-26.59c-3.12601 7.8479-4.71286 14.1062-4.70497 19.8515.00771 5.6146 1.53754 10.6599 4.50427 16.1486h26.9914c2.9667-5.4887 4.4966-10.534 4.5043-16.1486.0079-5.7453-1.579-12.0036-4.705-19.8515zm-12.1417 10.3 1.5813-1.8448c1.0512-1.2265 1.0043-3.1023-.1069-4.2691-.3574-.37526-.8422-.5861-1.3477-.5861h-2.5597c-.5055 0-.9903.21084-1.3477.5861-1.1112 1.1668-1.1581 3.0426-.1069 4.2691l1.5813 1.8448-3.7697 4.3979 1.2742 1.2042 3.6487-4.2567 3.6486 4.2567 1.2742-1.2042zm-.2962 15.2462 7.0221-7.3731-1.2122-1.2728-6.667 7.0003-6.667-7.0003-1.2122 1.2728 7.0221 7.3731v10.4537h1.7142z" fill-rule="evenodd"/></g></svg>