<svg fill="none" height="48" viewBox="0 0 48 48" width="48" xmlns="http://www.w3.org/2000/svg"><g fill="#333"><g clip-rule="evenodd" fill-rule="evenodd"><path d="m8 40v-33h-2v34c0 .5523.44772 1 1 1h35v-2z"/><path d="m15.2849 26.1196-7.50002 9.5-1.56976-1.2392 7.49998-9.5z"/><path d="m27.6838 28.9487-12-4 .6324-1.8974 12 4z"/><path d="m38.7682 16.6402-10 12-1.5364-1.2804 10-12z"/></g><path d="m19 24c0 1.6569-1.3431 3-3 3s-3-1.3431-3-3 1.3431-3 3-3 3 1.3431 3 3z"/><path clip-rule="evenodd" d="m16 25c.5523 0 1-.4477 1-1s-.4477-1-1-1-1 .4477-1 1 .4477 1 1 1zm0 2c1.6569 0 3-1.3431 3-3s-1.3431-3-3-3-3 1.3431-3 3 1.3431 3 3 3z" fill-rule="evenodd"/><path d="m31 28c0 1.6569-1.3431 3-3 3s-3-1.3431-3-3 1.3431-3 3-3 3 1.3431 3 3z"/><path clip-rule="evenodd" d="m28 29c.5523 0 1-.4477 1-1s-.4477-1-1-1-1 .4477-1 1 .4477 1 1 1zm0 2c1.6569 0 3-1.3431 3-3s-1.3431-3-3-3-3 1.3431-3 3 1.3431 3 3 3z" fill-rule="evenodd"/><path d="m41 16c0 1.6569-1.3431 3-3 3s-3-1.3431-3-3 1.3431-3 3-3 3 1.3431 3 3z"/><path clip-rule="evenodd" d="m38 17c.5523 0 1-.4477 1-1s-.4477-1-1-1-1 .4477-1 1 .4477 1 1 1zm0 2c1.6569 0 3-1.3431 3-3s-1.3431-3-3-3-3 1.3431-3 3 1.3431 3 3 3z" fill-rule="evenodd"/></g></svg>