<svg fill="none" height="48" viewBox="0 0 48 48" width="48" xmlns="http://www.w3.org/2000/svg"><g clip-rule="evenodd" fill="#333" fill-rule="evenodd"><path d="m8 40v-33h-2v34c0 .5523.44772 1 1 1h34v-2z"/><path d="m39.7682 19.6402-10 12c-.2635.3162-.6939.4386-1.0844.3085l-11.3525-3.7842-9.56308 11.4757-1.53644-1.2804 10.00002-12c.2635-.3162.6939-.4387 1.0844-.3085l11.3525 3.7842 9.5631-11.4757z"/><path d="m38.7682 10.6402-10 12c-.2698.3238-.7138.4436-1.1099.2996l-10.3696-3.7708-9.54876 10.5037-1.47988-1.3454 10.00004-11c.2729-.3002.7003-.4058 1.0816-.2671l10.3398 3.7599 9.5503-11.46028z"/></g></svg>