<svg fill="none" height="48" viewBox="0 0 48 48" width="48" xmlns="http://www.w3.org/2000/svg"><g fill="#333"><path clip-rule="evenodd" d="m8 40v-33h-2v34c0 .5523.44772 1 1 1h34v-2z" fill-rule="evenodd"/><path d="m12 25h6v16h-6z"/><path clip-rule="evenodd" d="m11 25c0-.5523.4477-1 1-1h6c.5523 0 1 .4477 1 1v16c0 .5523-.4477 1-1 1h-6c-.5523 0-1-.4477-1-1zm2 1v14h4v-14z" fill-rule="evenodd"/><path d="m22 21h6v20h-6z"/><path clip-rule="evenodd" d="m21 21c0-.5523.4477-1 1-1h6c.5523 0 1 .4477 1 1v20c0 .5523-.4477 1-1 1h-6c-.5523 0-1-.4477-1-1zm2 1v18h4v-18z" fill-rule="evenodd"/><path d="m32 13h6v28h-6z"/><path clip-rule="evenodd" d="m31 13c0-.5523.4477-1 1-1h6c.5523 0 1 .4477 1 1v28c0 .5523-.4477 1-1 1h-6c-.5523 0-1-.4477-1-1zm2 1v26h4v-26z" fill-rule="evenodd"/></g></svg>