<svg fill="none" height="48" viewBox="0 0 48 48" width="48" xmlns="http://www.w3.org/2000/svg"><g fill="#333"><path clip-rule="evenodd" d="m24 6c-9.9411 0-18 8.0589-18 18s8.0589 18 18 18 18-8.0589 18-18-8.0589-18-18-18zm-20 18c0-11.0457 8.9543-20 20-20s20 8.9543 20 20-8.9543 20-20 20-20-8.9543-20-20z" fill-rule="evenodd"/><path clip-rule="evenodd" d="m40.9544 15.366-32.90899 19-1-1.732 32.90899-19z" fill-rule="evenodd"/><path d="m7.54552 33.5c-1.6676-2.8884-2.54552-6.1648-2.54552-9.5s.87792-6.6116 2.54552-9.5 4.06608-5.28688 6.95448-6.95448 6.1648-2.54552 9.5-2.54552v19z"/><path clip-rule="evenodd" d="m7.93561 32.1201 15.06439-8.6975v-17.39481c-2.8119.15645-5.553.97096-8 2.38375-2.7363 1.57983-5.00863 3.85216-6.58846 6.58846s-2.41154 5.8403-2.41154 9c0 2.8256.66513 5.6066 1.93561 8.1201zm-1.25612 1.8799c-1.75537-3.0404-2.67949-6.4893-2.67949-10s.92412-6.9596 2.67949-10 4.28011-5.56515 7.32051-7.32051c3.0404-1.75537 6.4893-2.67949 10-2.67949.5523 0 1 .44771 1 1v19c0 .3573-.1906.6874-.5.866l-16.45459 9.5c-.47829.2762-1.08978.1123-1.36592-.366z" fill-rule="evenodd"/></g></svg>