<svg fill="none" height="48" viewBox="0 0 48 48" width="48" xmlns="http://www.w3.org/2000/svg"><g fill="#333"><path d="m24 4h-14v8h15c.5523 0 1 .4477 1 1v1h8c0-5.52285-4.4772-10-10-10z"/><path d="m36 16h-12v4h12z"/><path clip-rule="evenodd" d="m38 36c0 4.4183-3.5817 8-8 8s-8-3.5817-8-8c0-7 8-14 8-14s8 7 8 14zm-11.9623-1.7821c-.5523.0066-1.0052-.4358-1.0118-.9881-.0208-1.7629 1.3915-3.2089 3.1544-3.2298.5523-.0065 1.0053.4359 1.0118.9882.0065.5522-.4359 1.0052-.9881 1.0117-.6585.0078-1.186.5479-1.1782 1.2063.0065.5523-.4359 1.0052-.9881 1.0117zm5.9623-3.2179c-.5523 0-1 .4477-1 1s.4477 1 1 1 1 .4477 1 1 .4477 1 1 1 1-.4477 1-1c0-1.6569-1.3431-3-3-3zm-2.4119 7.9269c.1184.5395-.2229 1.0728-.7624 1.1912-1.722.378-3.4245-.7115-3.8025-2.4336-.1184-.5394.2229-1.0727.7623-1.1912.5395-.1184 1.0728.2229 1.1912.7624.1412.6432.777 1.0501 1.4202.9089.5395-.1184 1.0728.2229 1.1912.7623zm4.4119.0731c.5523 0 1-.4477 1-1s-.4477-1-1-1-1 .4477-1 1 .4477 1 1 1zm-2-11c0 .5523-.4477 1-1 1s-1-.4477-1-1 .4477-1 1-1 1 .4477 1 1zm-2 8c.5523 0 1-.4477 1-1s-.4477-1-1-1-1 .4477-1 1 .4477 1 1 1z" fill-rule="evenodd"/></g></svg>