<svg fill="none" height="48" viewBox="0 0 48 48" width="48" xmlns="http://www.w3.org/2000/svg"><path clip-rule="evenodd" d="m20 4c-1.6569 0-3 1.34315-3 3h-4c-1.6569 0-3 1.34315-3 3v31c0 1.6569 1.3431 3 3 3h22c1.6569 0 3-1.3431 3-3v-31c0-1.65685-1.3431-3-3-3h-4c0-1.65685-1.3431-3-3-3zm-1 3c0-.55228.4477-1 1-1h8c.5523 0 1 .44772 1 1v2c0 .55228-.4477 1-1 1h-8c-.5523 0-1-.44772-1-1zm0 8v3h-3v2h3v3h2v-3h3v-2h-3v-3zm-2 11c-.5523 0-1 .4477-1 1s.4477 1 1 1h14c.5523 0 1-.4477 1-1s-.4477-1-1-1zm-1 6c0-.5523.4477-1 1-1h14c.5523 0 1 .4477 1 1s-.4477 1-1 1h-14c-.5523 0-1-.4477-1-1zm1 4c-.5523 0-1 .4477-1 1s.4477 1 1 1h14c.5523 0 1-.4477 1-1s-.4477-1-1-1z" fill="#333" fill-rule="evenodd"/></svg>