<svg fill="none" height="48" viewBox="0 0 48 48" width="48" xmlns="http://www.w3.org/2000/svg"><g fill="#333"><path clip-rule="evenodd" d="m42 17c0 3.1693-2.4573 5.7647-5.5705 5.9849l-3.0508 3.0507c.8552 1.4459 1.2397 3.3662 1.429 5.5014.1923 2.1688.1923 4.7052.1923 7.4285v1.0345h-2v-1c0-2.7636-.0008-5.215-.1845-7.2863-.1608-1.8135-.4549-3.2272-.9423-4.2526-1.1974-.1601-2.2895-.7626-3.2263-1.5043-1.1042-.8741-2.0858-2.0144-2.8939-3.1148-.8122-1.106-1.4742-2.2062-1.932-3.0267-.0615-.1101-.1194-.2154-.1735-.3152-1.3432.9299-3.1546 1.4999-5.1475 1.4999-4.1421 0-7.5-2.4624-7.5-5.5 0-2.7926 2.8381-5.0991 6.5146-5.453 1.2829-2.35488 4.8213-4.047 8.9854-4.047 4.708 0 8.6161 2.163 9.369 5.0014.0436-.0009.0872-.0014.131-.0014 3.3137 0 6 2.6863 6 6zm-11.973.5729c-1.0905.2755-2.2807.4271-3.527.4271-.4343 0-.8618-.0184-1.2806-.054-.0245.0361-.0496.072-.0751.1077.1078.2087.25.4768.4232.7871.4315.7733 1.049 1.7981 1.7975 2.8174.0368.0501.0739.1001.1112.15l-.0001-.1461c1.1051-.0009 2.2646-.5973 3.2271-1.3077.0737-.0544.1455-.1088.215-.163-.4858-.7721-.8007-1.6626-.8912-2.6185zm2.2257 4.1133c.5044.4038 1.0754.7279 1.6938.9532l-2.6187 2.6187c-.4653-.187-.9466-.4791-1.4396-.8694-.3423-.271-.6776-.5795-1.0029-.9135 1.1832-.3064 2.2299-.939 3.0056-1.5116.1259-.093.2467-.1858.3618-.2774z" fill-rule="evenodd"/><path d="m15.5041 28.0023c1.3807-.0011 2.4991-1.1213 2.4979-2.502-.0011-1.3807-1.1213-2.4991-2.502-2.498-1.3807.0012-2.4991 1.1214-2.498 2.5021.0012 1.3807 1.1214 2.4991 2.5021 2.4979z"/><path d="m8.50409 32.0023c1.38072-.0011 2.49911-1.1213 2.49791-2.502-.0011-1.3807-1.12129-2.4991-2.502-2.498-1.38071.0012-2.49908 1.1214-2.49795 2.5021s1.12133 2.4991 2.50204 2.4979z"/><path d="m28.002 29.5001c.0012 1.3807-1.1172 2.5009-2.4979 2.502s-2.5009-1.1172-2.5021-2.4979c-.0011-1.3808 1.1173-2.501 2.498-2.5021s2.5009 1.1172 2.502 2.498z"/><path d="m15 29c1.1046 0 2 .8954 2 2v2h2c1.1046 0 2 .8954 2 2s-.8954 2-2 2h-4c-1.1046 0-2-.8954-2-2v-4c0-1.1046.8954-2 2-2z"/><path d="m10 35c0-1.1046-.89543-2-2-2s-2 .8954-2 2v5c0 1.1046.89543 2 2 2h4c1.1046 0 2-.8954 2-2s-.8954-2-2-2h-2z"/><path d="m26 33c-1.1046 0-2 .8954-2 2v3h-2c-1.1046 0-2 .8954-2 2s.8954 2 2 2h4c1.1046 0 2-.8954 2-2v-5c0-1.1046-.8954-2-2-2z"/></g></svg>