<svg fill="none" height="48" viewBox="0 0 48 48" width="48" xmlns="http://www.w3.org/2000/svg"><path clip-rule="evenodd" d="m6 20.5c0-8.0081 6.4919-14.5 14.5-14.5h7c8.0081 0 14.5 6.4919 14.5 14.5s-6.4919 14.5-14.5 14.5h-.7v7s-20.8-3.5-20.8-21.5zm21.6914-8.0185c1.0297.6849 1.8063 1.7939 1.8063 3.2796 0 1.5787-.6368 2.7387-1.6679 3.4492-.4273.2944-.8871.4868-1.3298.6133v1.5323c0 .8285-.6716 1.5-1.5 1.5s-1.5-.6715-1.5-1.5v-2.7973c0-.7896.6121-1.4439 1.3999-1.4966.554-.0371.9744-.1474 1.2277-.322.1066-.0735.1831-.1577.2405-.2723.0597-.1191.1296-.3338.1296-.7066 0-.3126-.123-.5523-.4678-.7817-.3921-.2608-1.0221-.4529-1.7786-.4769-.7485-.0238-1.4753.1225-2.0095.3815-.5369.2603-.7331.5518-.7885.7673-.2061.8024-1.0236 1.2858-1.826 1.0797-.8023-.2061-1.2857-1.0236-1.0797-1.826.3445-1.3413 1.3479-2.2175 2.3855-2.7205 1.0402-.5043 2.2628-.7171 3.4136-.6805 1.1428.0363 2.3622.324 3.3447.9775zm-2.6914 16.5185c1.1046 0 2-.8954 2-2s-.8954-2-2-2-2 .8954-2 2 .8954 2 2 2z" fill="#333" fill-rule="evenodd"/></svg>