<svg fill="none" height="48" viewBox="0 0 48 48" width="48" xmlns="http://www.w3.org/2000/svg"><g fill="#333"><path d="m19.2728 25.5855c-.1578-.6842-.0827-1.3189.1525-1.862l1.9113 1.9113.5672 2.4601c.6279 2.7239-2.4825 4.7506-4.7206 3.076l-.489-.3659c-.7279-.5446-1.7461.086-1.5828.9804l.2595 1.4211-1.9675.3593-.2595-1.4211c-.49-2.6831 2.5647-4.575 4.7485-2.941l.489.3658c.746.5583 1.7828-.1173 1.5735-1.0253z"/><path d="m34.106 14.1504c-1.4075-1.4074-3.9747-1.1222-5.734.6371-1.7568 1.7569-2.0437 4.3194-.6428 5.7281l.4082 3.4213.0017.0151 1.6114 1.6114c.3059-.5231.457-1.1579.3728-1.8635l-.273-2.2882c1.2133.0544 2.5617-.4705 3.6186-1.5274 1.7593-1.7593 2.0445-4.3264.6371-5.7339z"/><path clip-rule="evenodd" d="m24 43c10.4934 0 19-8.5066 19-19s-8.5066-19-19-19-19 8.5066-19 19 8.5066 19 19 19zm0-2c4.3346 0 8.2903-1.6223 11.293-4.2928l-24.0002-24.0002c-2.67054 3.0027-4.2928 6.9584-4.2928 11.293 0 9.3888 7.6112 17 17 17zm-11.293-29.7072 24.0002 24.0002c2.6705-3.0027 4.2928-6.9584 4.2928-11.293 0-9.3888-7.6112-17-17-17-4.3346 0-8.2903 1.62226-11.293 4.2928z" fill-rule="evenodd"/></g></svg>