<svg fill="none" height="48" viewBox="0 0 48 48" width="48" xmlns="http://www.w3.org/2000/svg"><g fill="#333"><path d="m17.5016 32.4595c2.4853 0 4.4998-2.2386 4.4995-5-.0004-2.7615-2.0153-5-4.5006-5s-4.4998 2.2385-4.4994 5c.0003 2.7614 2.0152 5 4.5005 5z"/><path d="m34.6475 27.2064c.0021 2.6299-1.9861 4.7636-4.4407 4.7657s-4.4461-2.1281-4.4482-4.758c-.002-2.63 1.9861-4.7637 4.4407-4.7658s4.4461 2.1282 4.4482 4.7581z"/><path d="m25.4062 38c.9211 0 1.5938-.8295 1.5938-1.7241 0-1.9971-3-3.2759-3-3.2759s-3 1.3611-3 3.2759c0 .8944.6726 1.7241 1.5938 1.7241.6392 0 1.1135-.3722 1.4062-.9002.2928.528.7671.9002 1.4062.9002z"/><path clip-rule="evenodd" d="m13.1538 36.0025c-2.3996 0-2.3823-.5982-2.3118-3.0442.0139-.4813.0298-1.0342.0298-1.6681 0-1.5254-.4496-2.2461-.9929-3.1173-.82998-1.3307-1.87887-3.0123-1.8789-8.4493-.00009-18.29814 32.0001-18.29814 32 0 0 5.437-1.0489 7.1186-1.8789 8.4493-.5433.8712-.9929 1.5919-.9929 3.1173 0 .6339.0159 1.1867.0298 1.668.0705 2.446.0878 3.0443-2.3118 3.0443-2.8718 0-2.8718 2.5704-2.8718 4.2839 0 1.7136-3.8719 1.7136-7.9744 1.7136s-7.9744 0-7.9744-1.7136c0-1.7135 0-4.2839-2.8718-4.2839zm0-2c-.128 0-.2379-.0022-.3318-.0056-.0005-.0912.0003-.194.0023-.3104.0028-.1708.0088-.3796.0155-.6165.0142-.4987.032-1.1222.032-1.7798 0-2.1492-.7898-3.3932-1.3651-4.2995-.1208-.1903-.2322-.3657-.3248-.5314-.5077-.9088-1.1819-2.4765-1.1819-6.7357-.00002-3.9154 1.6801-6.7714 4.2126-8.7022 2.588-1.97321 6.1383-3.0214 9.7874-3.0214s7.1994 1.04819 9.7874 3.0214c2.5325 1.9308 4.2126 4.7868 4.2126 8.7022 0 4.2592-.6742 5.8269-1.1819 6.7357-.0926.1657-.2039.3411-.3247.5313-.5753.9062-1.3652 2.1504-1.3652 4.2996 0 .6576.0178 1.281.032 1.7796.0067.2367.0127.446.0155.6167.002.1164.0028.2192.0023.3104-.0939.0034-.2038.0056-.3318.0056-1.0204 0-1.9658.2313-2.7655.7615-.8019.5317-1.2951 1.2563-1.592 1.965-.419 1.0001-.4976 2.1217-.5117 2.9313-.1737.0475-.4145.0994-.7377.1461-1.3058.1889-3.1331.1936-5.2393.1936s-3.9335-.0047-5.2393-.1936c-.3232-.0467-.564-.0986-.7377-.1461-.0141-.8095-.0927-1.9312-.5117-2.9313-.2969-.7087-.7901-1.4333-1.592-1.965-.7997-.5302-1.7451-.7615-2.7655-.7615z" fill-rule="evenodd"/></g></svg>