<svg fill="none" height="48" viewBox="0 0 48 48" width="48" xmlns="http://www.w3.org/2000/svg"><g fill="#333"><path clip-rule="evenodd" d="m15.4147 25.3107c.1304.0137.3187.0246.5852.0246.87 0 1.7018.1883 2.4207.6446.7266.4611 1.1802 1.096 1.4532 1.7196.3231.7384.4199 1.546.4483 2.1733.7977.121 1.9924.1272 3.6778.1272s2.8801-.0062 3.6778-.1272c.0284-.6273.1252-1.4349.4484-2.1733.2729-.6236.7265-1.2585 1.4532-1.7196.7188-.4563 1.5506-.6446 2.4206-.6446.2665 0 .4549-.0109.5852-.0246.0041-.0243.0082-.0509.0122-.0798.0473-.3386.0693-.826.0693-1.5608 0-1.8401.7396-2.9465 1.2056-3.6436.0908-.1358.1712-.256.2337-.3631.3594-.616.894-1.7429.894-4.9895 0-2.8623-1.2721-4.95258-3.2415-6.38992-2.0279-1.48002-4.8406-2.28398-7.7585-2.28398-2.9178 0-5.7306.80396-7.7585 2.28398-1.9693 1.43734-3.2415 3.52762-3.2415 6.38992 0 3.2466.5346 4.3735.8941 4.9895.0625.1071.1429.2273.2336.3631.466.6971 1.2056 1.8035 1.2056 3.6436.0001.7348.022 1.2222.0693 1.5608.0041.0289.0081.0555.0122.0798zm-2.0815-1.6405c.0001 2.9987.3334 3.6651 2.6667 3.6651s2.3333 1.9991 2.3333 3.3319 2.3334 1.3328 5.6667 1.3328 5.6667 0 5.6667-1.3328 0-3.3319 2.3333-3.3319 2.6666-.6664 2.6667-3.6651c0-1.1865.3652-1.747.8067-2.4246.6744-1.035 1.5266-2.3429 1.5266-6.5717.0001-14.231877-26.0001-14.231876-26 0 0 4.2288.8523 5.5367 1.5266 6.5717.4415.6776.8067 1.2381.8067 2.4246z" fill-rule="evenodd"/><path d="m22.0014 18.9976c0 1.6568-1.3432 3-3 3-1.6569 0-3-1.3432-3-3 0-1.6569 1.3431-3 3-3 1.6568 0 3 1.3431 3 3z"/><path d="m32.0024 18.9951c.0013 1.6568-1.3407 3.0011-2.9976 3.0024-1.6568.0014-3.0011-1.3406-3.0024-2.9975-.0014-1.6569 1.3407-3.0011 2.9975-3.0025 1.6569-.0013 3.0011 1.3407 3.0025 2.9976z"/><path clip-rule="evenodd" d="m20.7253 38.5027-11.02418 3.5453.61228 1.904 13.6874-4.4018 13.6945 4.3794.6092-1.905-11.03-3.5273 11.0242-3.5453-.6123-1.904-13.6873 4.4018-13.6946-4.3794-.60919 1.905z" fill-rule="evenodd"/></g></svg>