<svg fill="none" height="48" viewBox="0 0 48 48" width="48" xmlns="http://www.w3.org/2000/svg"><g clip-rule="evenodd" fill="#333" fill-rule="evenodd"><path d="m8 9v26c0 1.6569 1.34315 3 3 3h11.8321c-.5352-1.2249-.8321-2.5778-.8321-4 0-5.5228 4.4772-10 10-10 .6849 0 1.3538.0689 2 .2v-15.2c0-1.65685-1.3431-3-3-3h-20c-1.65685 0-3 1.34315-3 3zm5 4c-.5523 0-1 .4477-1 1s.4477 1 1 1h16c.5523 0 1-.4477 1-1s-.4477-1-1-1zm0 5c-.5523 0-1 .4477-1 1s.4477 1 1 1h16c.5523 0 1-.4477 1-1s-.4477-1-1-1zm-1 6c0-.5523.4477-1 1-1h8c.5523 0 1 .4477 1 1s-.4477 1-1 1h-8c-.5523 0-1-.4477-1-1zm1 4c-.5523 0-1 .4477-1 1s.4477 1 1 1h5c.5523 0 1-.4477 1-1s-.4477-1-1-1z"/><path d="m32 42c4.4183 0 8-3.5817 8-8s-3.5817-8-8-8-8 3.5817-8 8 3.5817 8 8 8zm2.567-11.7071c.3905-.3905 1.0236-.3905 1.4142 0 .3905.3905.3905 1.0237 0 1.4142l-.791.7909-1.4142-1.4142zm-6.567 6.5668 5.0689-5.0688 1.4142 1.4143-5.0688 5.0688h-1.4142z"/></g></svg>