<svg fill="none" height="48" viewBox="0 0 48 48" width="48" xmlns="http://www.w3.org/2000/svg"><path clip-rule="evenodd" d="m10 8c0-2.20914 1.7909-4 4-4h20c2.2091 0 4 1.79086 4 4v21.5155c-1.4301-.9572-3.1499-1.5155-5-1.5155-4.9706 0-9 4.0294-9 9 0 1.8501.5583 3.5699 1.5155 5h-11.5155c-2.2091 0-4-1.7909-4-4zm4 4c0-.5523.4477-1 1-1h18c.5523 0 1 .4477 1 1s-.4477 1-1 1h-18c-.5523 0-1-.4477-1-1zm1 3c-.5523 0-1 .4477-1 1s.4477 1 1 1h18c.5523 0 1-.4477 1-1s-.4477-1-1-1zm-1 9c0-.5523.4477-1 1-1h18c.5523 0 1 .4477 1 1s-.4477 1-1 1h-18c-.5523 0-1-.4477-1-1zm1-5c-.5523 0-1 .4477-1 1s.4477 1 1 1h18c.5523 0 1-.4477 1-1s-.4477-1-1-1zm-1 9c0-.5523.4477-1 1-1h9c.5523 0 1 .4477 1 1s-.4477 1-1 1h-9c-.5523 0-1-.4477-1-1zm26 9c0 3.866-3.134 7-7 7s-7-3.134-7-7 3.134-7 7-7 7 3.134 7 7zm-4.433-3.9858c.3905-.3906 1.0237-.3905 1.4142 0s.3905 1.0237 0 1.4142l-.791.7909-1.4142-1.4142zm-1.4981 1.498 1.4142 1.4142-5.0688 5.0689h-1.4142l-.0001-1.4143z" fill="#333" fill-rule="evenodd"/></svg>