<svg fill="none" height="48" viewBox="0 0 48 48" width="48" xmlns="http://www.w3.org/2000/svg"><g fill="#333"><path clip-rule="evenodd" d="m12.9524 4.09151c-1.6569.00135-2.99892 1.3456-2.99756 3.00245l.02047 25.00004c.00136 1.6568 1.34559 2.9989 3.00249 2.9975l4.75-.0039c.6903-.0006 1.2495-.5607 1.2489-1.251-.0005-.6904.5587-1.2505 1.249-1.251l7.5-.0062c.6904-.0005 1.2505.5586 1.251 1.249.0006.6903.5607 1.2495 1.2511 1.249l4.75-.0039c1.6568-.0014 2.9989-1.3456 2.9975-3.0025l-.0205-24.99997c-.0013-1.65685-1.3456-2.9989-3.0024-2.99754zm20.0032 3.98359-18 .01474.0148 17.99996 18-.0147zm-16.9822 21.5139c-.0005-.5523.4469-1.0004.9992-1.0008l3.9998-.0033c.5523-.0004 1.0004.4469 1.0008.9992.0005.5523-.4468 1.0004-.9991 1.0008l-3.9999.0033c-.5523.0004-1.0004-.4469-1.0008-.9992zm10.9992-1.009c-.5523.0005-.9997.4485-.9992 1.0008.0004.5523.4485.9997 1.0008.9992l3.9999-.0033c.5523-.0004.9996-.4485.9991-1.0008-.0004-.5523-.4485-.9996-1.0008-.9992z" fill-rule="evenodd"/><path d="m27.9641 18.3342c.0018 2.1334-1.7569 3.811-3.9969 3.8128-2.24.0019-4.0013-1.6729-4.0031-3.8062-.0017-2.1333 3.9944-6.8604 3.9944-6.8604s4.004 4.8729 4.0056 6.8538z"/><path clip-rule="evenodd" d="m27.9762 33.0792-8 .0066.0074 9 8-.0066zm-10.0016-1.9918.0107 13 12-.0098-.0107-13z" fill-rule="evenodd"/><path d="m25.9804 38.0807c.0009 1.1046-.8938 2.0007-1.9984 2.0016-1.1045.0009-2.0007-.8937-2.0016-1.9983s.8938-2.0007 1.9984-2.0017c1.1045-.0009 2.0007.8938 2.0016 1.9984z"/></g></svg>