<svg fill="none" height="48" viewBox="0 0 48 48" width="48" xmlns="http://www.w3.org/2000/svg"><g fill="#333"><path d="m42.9822 28.9419c.0013 1.6-1.3176 2.8582-2.9976 2.8596s-3.0011-1.2547-3.0024-2.8547 2.9958-5.1453 2.9958-5.1453 3.003 3.6547 3.0042 5.1404z"/><path clip-rule="evenodd" d="m24.1256 17.5979 17.7191-.0145c1.1753-.001 2.1289.951 2.1298 2.1263.001 1.1753-.951 2.1289-2.1263 2.1299h-.0051c.0859-.1675.1329-.3494.1327-.5396-.0006-.8284-.8966-1.4992-2.0012-1.4983s-1.9994.6732-1.9988 1.5016c.0002.1902.0475.372.1337.5393l-13.0221.0107.0009 1.064 6.8889-.0056c1.1045-.0009 2.0007.8938 2.0016 1.9983l.0002.2562c.0009 1.1046-.8938 2.0007-1.9984 2.0016l-6.8888.0057.0008 1.064 5.7778-.0047c1.1046-.0009 2.0007.8938 2.0016 1.9984l.0003.2561c.0009 1.1046-.8938 2.0007-1.9984 2.0017l-8 .0065.0009 1.064 4.1111-.0033c1.1045-.0009 2.0007.8938 2.0016 1.9983l.0002.2562c.0009 1.1046-.8938 2.0007-1.9983 2.0016l-7.4445.0061-4.0993.0034c-6.32712.0052-11.46043-5.1197-11.46562-11.4468-.00381-4.6546 2.80896-8.8488 7.11672-10.6119l12.8827-5.2728c.9736-.3985 2.0935-.0882 2.7232.7546.8803 1.1782.4488 2.8681-.8885 3.4802l-2.1054.9635c-.9771.4471-.6576 1.9102.4169 1.9093z" fill-rule="evenodd"/></g></svg>