<svg fill="none" height="48" viewBox="0 0 48 48" width="48" xmlns="http://www.w3.org/2000/svg"><path d="m40.7463 23.0423 1.1026 1.815c.2756.4568.1631 1.068-.2475 1.3766-.6694.2083-1.6188.7984-2.1039-.0055-1.2263-2.0187-1.9857-2.5255-2.897-3.2786l2.2558 10.0251-2.2558 9.0251h-3.0002-2.1003c0-2.3949 1.5076-1.7361 1.6759-1.818l.0142-.0153c.5098-1.737 3.4104-3.1667 1.8442-7.1918.1129-1.14-1.8442-.9749-2.434-2.665-.5898-1.6902-3.5453 1.3571-4.7487 1.6901-2.3516 1.5-4.6937 1.7333-6.8802-.6901-1.2238 1.0336-.6795 4.9036-.5715 7.6901.0659 1.7022-.4285 3-.4285 3h-3.1717-1.7997c0-2.5 1.7997-1.8333 1.7997-1.8333l1-4.707-1-6.707-2.7997-7.836-2.3811 3.3047c-.3376.3704-.7932.5803-1.2714.5803h-1.74378c-.68065 0-1.30505-.426-1.60882-1.0927l-.80441-1.7656c-.30376-.6667-.24188-1.4693.16876-2.0681l4.19645-6.1302c.0956-.142.2362-.2284.36-.3333-.225-.1359-.45-.2593-.6357-.463-.92249-1.0125-1.035-5.58054-.34309-6.72879.15749-.25928.49499-.29632.69749-.07408 2.4486 2.68087 2.3656 7.26587 5.1978 7.71647l4.5677 5.0128h13.253c2.8576 0 5.5071 1.5557 7.0934 4.1671z" fill="#333"/></svg>