<svg fill="none" height="48" viewBox="0 0 48 48" width="48" xmlns="http://www.w3.org/2000/svg"><g fill="#333"><path d="m24.4327 28.2786-1.8669-.7067c.5004-1.3205 1.3506-2.7516 2.6909-4.2409l1.4866 1.338c-1.1831 1.3146-1.9013 2.5296-2.3106 3.6096z"/><path clip-rule="evenodd" d="m15.5625 7c-5.5266 0-9.5625 5.6409-9.5625 11.7241 0 13.5804 18 22.2759 18 22.2759s18-9.2556 18-22.2759c0-6.0822-4.0353-11.7241-9.5625-11.7241-3.8353 0-6.681 2.53111-8.4375 6.1211-1.7566-3.59022-4.6024-6.1211-8.4375-6.1211zm1.4375 17.9585c0 2.8076 3.1423 3.7036 5.4412 2.958-1.0978 3.2505-.0782 5.7837.83 6.7634l1.4667-1.3598c-.3639-.3925-1.1999-2.014-.5088-4.4216 1.2069 2.2367 6.7709 2.5184 6.7709-1.7003v-11.1982c-2.8822 2.4388-5.961 3.4029-8.4954 4.1966-3.1812.9962-5.5046 1.7238-5.5046 4.7619z" fill-rule="evenodd"/></g></svg>