<svg fill="none" height="48" viewBox="0 0 48 48" width="48" xmlns="http://www.w3.org/2000/svg"><g fill="#333"><path clip-rule="evenodd" d="m13.0699 26.2851c.9625 1.176 3.4104 5.5325 3.9301 7.7149h14c.5198-2.1807 2.9648-6.5372 3.9273-7.7115 1.6489-2.0168 2.6826-4.4489 2.9821-7.016.2996-2.5672-.1473-5.1651-1.289-7.4943-1.1417-2.32929-2.9319-4.29521-5.1643-5.67133s-4.8163-2.10646-7.4539-2.10687-5.2216.72911-7.4545 2.10453c-2.2328 1.37542-4.0237 3.34078-5.1661 5.66967-1.1425 2.3289-1.59023 4.9266-1.2915 7.4939.2987 2.5673 1.3316 4.9997 2.9798 7.017zm11.9301-14.2851-6 9h4v6l6-9h-4z" fill-rule="evenodd"/><path d="m17 37c0-.5523.4477-1 1-1h12c.5523 0 1 .4477 1 1s-.4477 1-1 1h-12c-.5523 0-1-.4477-1-1z"/><path d="m31 40h-14v2c0 1.1046.8954 2 2 2h10c1.1046 0 2-.8954 2-2z"/></g></svg>