<svg fill="none" height="48" viewBox="0 0 48 48" width="48" xmlns="http://www.w3.org/2000/svg"><g clip-rule="evenodd" fill="#333" fill-rule="evenodd"><path d="m28 10.0001h-14v27h14zm-16-2.00004v31.00004h18v-31.00004z"/><path d="m22.3162 4.4388c-.6475-.21584-1.3162.26613-1.3162.94868v37.22512c0 .6826.6687 1.1646 1.3162.9487l13-4.3333c.4084-.1361.6838-.5183.6838-.9487v-28.55848c0-.43043-.2754-.81257-.6838-.94868zm3.6838 20.5613c.5523 0 1-.8955 1-2 0-1.1046-.4477-2-1-2s-1 .8954-1 2c0 1.1045.4477 2 1 2z"/></g></svg>