<svg fill="none" height="48" viewBox="0 0 48 48" width="48" xmlns="http://www.w3.org/2000/svg"><path clip-rule="evenodd" d="m29 6v8h12.9999v2h-12.9999v7h13v-15c0-1.10457-.8358-2-1.8667-2zm0 19h13v7h-13zm0 9h13v6c0 1.1046-.8358 2-1.8667 2h-11.1333zm-2 0v8h-11.1334c-1.0309 0-1.8666-.8954-1.8666-2v-6zm0-20h-13v-6c0-1.10457.8357-2 1.8666-2h11.1334zm-3.9475 2v7h3.9475v-7zm0 9v7h3.9475v-7zm-17.0525-8c0-.5523.44772-1 1-1h13.1579c.5523 0 1 .4477 1 1v14c0 .5523-.4477 1-1 1h-13.1579c-.55228 0-1-.4477-1-1zm3.60654 2h2.26046l1.8341 3.754 1.9383-3.754h2.1117l-2.9094 5 2.9757 5h-2.2273l-1.9989-3.93-1.9905 3.93h-2.26037l3.02497-5.018z" fill="#333" fill-rule="evenodd"/></svg>