<svg fill="none" height="48" viewBox="0 0 48 48" width="48" xmlns="http://www.w3.org/2000/svg"><path clip-rule="evenodd" d="m23.4236 41.8172c.0004.0002.0007.0004.5764-.8172zm1.1528 0 .0036-.0026.0091-.0064.0318-.0228c.0273-.0196.0666-.048.117-.085.1008-.0741.2463-.1826.4302-.3239.3676-.2827.889-.6971 1.513-1.2306 1.2466-1.0659 2.9097-2.6131 4.5754-4.54 3.3074-3.826 6.7435-9.2864 6.7435-15.529 0-3.7315-1.4736-7.3114-4.0984-9.9518-2.6251-2.64056-6.1867-4.1251-9.9016-4.1251s-7.2765 1.48454-9.9016 4.1251c-2.6248 2.6404-4.0984 6.2203-4.0984 9.9518 0 6.2426 3.4361 11.703 6.7435 15.529 1.6657 1.9269 3.3288 3.4741 4.5754 4.54.624.5335 1.1454.9479 1.513 1.2306.1839.1413.3294.2498.4302.3239.0504.037.0897.0654.117.085l.0318.0228.0091.0064.0036.0026c.3453.2431.8075.2431 1.1528 0zm-.5764-.8172.5764.8172c-.0004.0002-.0007.0004-.5764-.8172zm5-21c0 2.7614-2.2386 5-5 5s-5-2.2386-5-5 2.2386-5 5-5 5 2.2386 5 5z" fill="#333" fill-rule="evenodd"/></svg>