<svg fill="none" height="48" viewBox="0 0 48 48" width="48" xmlns="http://www.w3.org/2000/svg"><g fill="#333"><path d="m20.3002 30-4.2158 7.4402c-.0859.151-.1072.3285-.0593.4945.0477.166.161.3073.3152.3935 4.667 2.61 10.6535 2.61 15.3178 0 .1548-.0858.2685-.227.3166-.3931.0482-.1661.0269-.3438-.0593-.4949l-4.2148-7.44c-1.0153.7819-2.3012 1.2491-3.7001 1.2491-1.399 0-2.685-.4672-3.7003-1.2493z"/><path d="m20.8499 17.7241-4.3355-7.3712c-.0878-.1498-.2309-.2571-.3986-.2985-.1676-.0417-.3466-.0143-.4984.0762-4.5938 2.7367-7.58705 7.9212-7.65893 13.2656-.00307.177.06236.3461.18218.4708.11969.1247.28428.1952.4582.196l8.55065.0699c-.1694-1.2702.0689-2.6175.7683-3.8289.6995-1.2116 1.7472-2.0917 2.9321-2.5799z"/><path d="m30.8499 24.2752 8.5514-.0691c.1736-.0011.3381-.0714.4578-.1959.1199-.1244.1857-.2931.1832-.4698-.0732-5.3466-3.0664-10.5311-7.6589-13.2656-.1517-.0911-.3309-.119-.4988-.0776-.1679.0413-.3112.1486-.3989.2988l-4.3358 7.3701c1.1847.4884 2.2324 1.3684 2.9318 2.5799.6995 1.2115.9378 2.5589.7682 3.8292z"/><path d="m29 23.9999c0 2.7614-2.2386 5-5 5s-5-2.2386-5-5 2.2386-5 5-5 5 2.2386 5 5z"/><path clip-rule="evenodd" d="m24 42c9.9411 0 18-8.0589 18-18s-8.0589-18-18-18-18 8.0589-18 18 8.0589 18 18 18zm0 2c11.0457 0 20-8.9543 20-20s-8.9543-20-20-20-20 8.9543-20 20 8.9543 20 20 20z" fill-rule="evenodd"/></g></svg>