<svg fill="none" height="48" viewBox="0 0 48 48" width="48" xmlns="http://www.w3.org/2000/svg"><path clip-rule="evenodd" d="m17 7c0-1.65685 1.3431-3 3-3h8c1.6569 0 3 1.34315 3 3h3c1.6569 0 3 1.34315 3 3v15h-2v-15c0-.55228-.4477-1-1-1h-3c0 1.6569-1.3431 3-3 3h-8c-1.6569 0-3-1.3431-3-3h-3c-.5523 0-1 .44772-1 1v28c0 .5523.4477 1 1 1h12v2h-12c-1.6569 0-3-1.3431-3-3v-28c0-1.65685 1.3431-3 3-3zm3-1c-.5523 0-1 .44772-1 1v2c0 .55228.4477 1 1 1h8c.5523 0 1-.44772 1-1v-2c0-.55228-.4477-1-1-1zm3 10v3h-3v2h3v3h2v-3h3v-2h-3v-3zm5 11c-.5523 0-1 .4477-1 1v6.7889c0 2.3405 1.1697 4.5261 3.1171 5.8244l3.3282 2.2188c.3359.2239.7735.2239 1.1094 0l3.3282-2.2188c1.9474-1.2983 3.1171-3.4839 3.1171-5.8244v-6.7889c0-.5523-.4477-1-1-1zm9.7071 5.7072-4 4c-.3906.3905-1.0237.3905-1.4143 0l-2-2 1.4143-1.4142 1.2929 1.2929 3.2928-3.2929z" fill="#333" fill-rule="evenodd"/></svg>