<svg fill="none" height="48" viewBox="0 0 48 48" width="48" xmlns="http://www.w3.org/2000/svg"><path clip-rule="evenodd" d="m17 7c0-1.65685 1.3431-3 3-3h8c1.6569 0 3 1.34315 3 3h3c2.2091 0 4 1.79086 4 4v28c0 2.2091-1.7909 4-4 4h-20c-2.2091 0-4-1.7909-4-4v-28c0-2.20914 1.7909-4 4-4zm3-1c-.5523 0-1 .44772-1 1v2c0 .55228.4477 1 1 1h8c.5523 0 1-.44772 1-1v-2c0-.55228-.4477-1-1-1zm-4 14c-.5523 0-1 .4477-1 1s.4477 1 1 1h7c.5523 0 1-.4477 1-1s-.4477-1-1-1zm-1-4c0-.5523.4477-1 1-1h15.5c.5523 0 1 .4477 1 1s-.4477 1-1 1h-15.5c-.5523 0-1-.4477-1-1zm11.0251 7.641c0-.9025.7519-1.641 1.6709-1.641.9191 0 1.671.7385 1.671 1.641 0 .9026-.7519 1.6411-1.671 1.6411-.919 0-1.6709-.7385-1.6709-1.6411zm-.4353 4.0155h-4.7543c-.4595 0-.8355-.3692-.8355-.8205s.376-.8205.8355-.8205h13.329c.4595 0 .8355.3692.8355.8205s-.376.8205-.8355.8205h-4.7543l2.8846 9.8462c0 .4513-.376.8205-.8355.8205-1.0075 0-1.7589-2.4089-2.2314-3.9239-.1343-.4305-.2461-.7888-.3348-.9992h-2.7862c-.0887.2104-.2005.5687-.3348.9992-.4725 1.515-1.2239 3.9239-2.2314 3.9239-.4595 0-.8355-.3692-.8355-.8205zm-8.5898 6.3435v-2h2v2zm-2-3c0-.5523.4477-1 1-1h4c.5523 0 1 .4477 1 1v4c0 .5523-.4477 1-1 1h-4c-.5523 0-1-.4477-1-1z" fill="#333" fill-rule="evenodd"/></svg>