<svg fill="none" height="48" viewBox="0 0 48 48" width="48" xmlns="http://www.w3.org/2000/svg"><g clip-rule="evenodd" fill="#333" fill-rule="evenodd"><path d="m29.0656 10.3347c-1.5706.2097-3.2291.5146-5.0656.9053-1.8365-.3907-3.495-.6956-5.0656-.9053 1.4545.536 2.9293 1.202 4.4937 1.9387.3494.1646.5719.5166.5719.9028 0-.3862.2225-.7382.5719-.9028 1.5644-.7367 3.0392-1.4027 4.4937-1.9387zm-5.0656 26.084c0 .7344-.766 1.2176-1.4351.9148-4.8195-2.1813-8.8828-3.3577-14.33106-2.3633-.63364.1157-1.23384-.3591-1.23384-1.0032v-23.1937c-.72018.1445-1.46576.31-2.24341.4973-.4454.1073-.75659.5077-.75659.9658v25.5385c0 .6328.58268 1.1055 1.20425.9869 6.21255-1.1852 10.40065-1.2682 16.12155-.4007.4961.9727 1.5073 1.6389 2.6742 1.6389s2.1781-.6662 2.6742-1.6389c5.7209-.8675 9.909-.7845 16.1215.4007.6216.1186 1.2043-.3541 1.2043-.9869v-25.5385c0-.4581-.3112-.8585-.7566-.9658-.7776-.1873-1.5232-.3528-2.2434-.4973v23.1937c0 .6441-.6002 1.1189-1.2338 1.0032-5.4483-.9944-9.5116.182-14.3311 2.3633-.6691.3028-1.4351-.1804-1.4351-.9148z"/><path d="m8 10.5375v23.4295c0 .0004 0 .0008.00001.0011.00094.0013.00299.0038.00677.0068.00608.0049.01376.0089.02178.011.00698.0018.01502.0025.02573.0006 5.73141-1.0461 10.01381.2141 14.92301 2.436.005.0023.0074.0027.0077.0027h.0011c.0016-.0001.006-.001.0111-.0043.0011-.0007.0021-.0014.0028-.002 0 0 0 .0001 0 0v-23.2417c-5.3169-2.504-9.3416-4.05487-15-2.6397zm-.51599-1.93257c6.39439-1.60872 10.98089.22569 16.37019 2.76377.7011.3302 1.1458 1.0356 1.1458 1.8075v23.2425c0 1.4782-1.5322 2.4211-2.8474 1.8258-4.7299-2.1407-8.5741-3.2332-13.73921-2.2905-1.21298.2214-2.41339-.6839-2.41339-1.987v-23.443c0-.88505.589-1.69389 1.48401-1.91907z"/><path d="m40 10.5375v23.4295.0011c-.001.0013-.003.0038-.0068.0068-.0061.0049-.0137.0089-.0218.011-.0069.0018-.015.0025-.0257.0006-5.7314-1.0461-10.0138.2141-14.923 2.436-.005.0023-.0074.0027-.0077.0027h-.0011c-.0016-.0001-.006-.001-.0111-.0043-.0011-.0007-.0021-.0016-.0028-.0022 0-.0001 0 .0001 0 0v-23.2425c5.3169-2.5039 9.3416-4.05387 15-2.6387zm.516-1.93257c-6.3944-1.60872-10.9809.22569-16.3702 2.76377-.7011.3302-1.1458 1.0365-1.1458 1.8085v23.2417c0 1.4782 1.5322 2.4209 2.8474 1.8256 4.7299-2.1407 8.5741-3.2332 13.7392-2.2905 1.213.2214 2.4134-.6839 2.4134-1.987v-23.443c0-.88505-.589-1.69389-1.484-1.91907z"/><path d="m32 14c.5523 0 1 .4477 1 1v8c0 .5523-.4477 1-1 1s-1-.4477-1-1v-8c0-.5523.4477-1 1-1z"/><path d="m32.5604 19.3396c-1.0308.2704-2.1112.7378-3.5822 1.5387-.4851.2641-1.0924.0849-1.3565-.4001-.2641-.4851-.0849-1.0924.4001-1.3565 1.5373-.8369 2.7783-1.388 4.0311-1.7166 1.2599-.3306 2.4807-.4228 3.9609-.4024.5522.0076.9937.4615.9861 1.0137s-.4615.9937-1.0137.9861c-1.3771-.019-2.4022.0685-3.4258.3371z"/><path d="m11.5097 27.5c2.9162-.0284 4.535.2466 7.6324 1.4338l.7158-1.8676c-3.3204-1.2727-5.1882-1.597-8.3676-1.5661z"/><path d="m11.5097 22.5c2.9162-.0284 4.535.2466 7.6324 1.4338l.7158-1.8676c-3.3204-1.2727-5.1882-1.597-8.3676-1.5661z"/><path d="m11.5097 17.5c2.9162-.0284 4.535.2466 7.6324 1.4338l.7158-1.8676c-3.3204-1.2727-5.1882-1.597-8.3676-1.5661z"/></g></svg>