<svg fill="none" height="48" viewBox="0 0 48 48" width="48" xmlns="http://www.w3.org/2000/svg"><path clip-rule="evenodd" d="m21.671 6.80092c1.7472-1.0679 3.9893-1.06789 5.7366 0l2.0379 1.24554c2.857 1.74618 6.1126 2.13594 9.3822 2.52744 1.057.1266 2.1155.2533 3.1624.4261 0 0 .0231 1.8335-.0012 2.6659l-.2089 7.1511c-.1792 6.1328-2.9065 11.9484-7.5849 16.174-2.2071 1.9934-4.4897 3.7941-7.1126 5.2903-1.5551.8871-3.479.9574-5.1011.1863-3.0284-1.4396-5.7104-3.2653-8.1587-5.4766-4.67848-4.2256-7.40574-10.0412-7.58492-16.174l-.20826-7.1283c-.02467-.8442 0-2.6887 0-2.6887.84998-.1004 1.71631-.1827 2.5892-.2656 3.85348-.3662 7.83468-.74454 11.10078-2.74073zm.3288 15.19908v-7h4v7h7v4h-7v7h-4v-7h-7v-4z" fill="#333" fill-rule="evenodd"/></svg>