<svg fill="none" height="48" viewBox="0 0 48 48" width="48" xmlns="http://www.w3.org/2000/svg"><g clip-rule="evenodd" fill="#333" fill-rule="evenodd"><path d="m17 7c0-1.65685 1.3431-3 3-3h8c1.6569 0 3 1.34315 3 3v2c0 1.6569-1.3431 3-3 3h-8c-1.6569 0-3-1.3431-3-3zm3-1c-.5523 0-1 .44772-1 1v2c0 .55228.4477 1 1 1h8c.5523 0 1-.44772 1-1v-2c0-.55228-.4477-1-1-1z"/><path d="m18 7h-5c-1.6569 0-3 1.34315-3 3v31c0 1.6569 1.3431 3 3 3h22c1.6569 0 3-1.3431 3-3v-31c0-1.65685-1.3431-3-3-3h-5v2c0 1.1046-.8954 2-2 2h-8c-1.1046 0-2-.8954-2-2zm-3 14c0-.5523.4477-1 1-1h7c.5523 0 1 .4477 1 1s-.4477 1-1 1h-7c-.5523 0-1-.4477-1-1zm1-6c-.5523 0-1 .4477-1 1s.4477 1 1 1h15.5c.5523 0 1-.4477 1-1s-.4477-1-1-1zm1 14v2h2v-2zm-1-2c-.5523 0-1 .4477-1 1v4c0 .5523.4477 1 1 1h4c.5523 0 1-.4477 1-1v-4c0-.5523-.4477-1-1-1zm15 2c0 1.6575-1.3425 3-3 3s-3-1.3425-3-3 1.3425-3 3-3 3 1.3425 3 3zm-3 4.3182c-2.0025 0-6 1.066-6 3.1819v2.4998h12v-2.4998c0-2.1159-3.9975-3.1819-6-3.1819z"/></g></svg>