<svg fill="none" height="48" viewBox="0 0 48 48" width="48" xmlns="http://www.w3.org/2000/svg"><g fill="#333"><path d="m16.6308 28.7073 5.563 7.1891-5.563 7.1036-7.01798-5.3919z"/><path d="m13.3785 11.1621 2.9955-3.93688c1.1126-1.36937 2.7387-2.22522 4.4504-2.22522h4.9639c.8559 0 1.7117.17117 2.482.5991.7703.34234 1.455.94143 1.9685 1.62612l3.081 4.02248c2.3964 3.1667 2.3964 7.5315 0 10.6126l-3.2522 4.1081-5.563-7.1892 3.4234-4.3648s-.0856 0-.0856-.0856c-.5991-.3424-1.2838-.5135-1.9685-.5135h-4.9639-.0856c-.6847 0-1.3694.2567-1.9685.5991l3.4234 4.3648 8.0451 10.2702 6.6756 8.5586-6.9324 5.3918-16.6891-21.2251c-2.3964-3.0811-2.3964-7.4459 0-10.6126zm4.1937 1.6262c.0855.0855.0855.1711.1711.2567.1712-.1712.428-.2567.6847-.3423.7703-.3424 1.6261-.5991 2.482-.5991h4.9639c.8559 0 1.7117.1711 2.482.5991.1712.0856.4279.2567.5991.3423.5991-.8558.9414-2.054.6847-3.08106-.0856-.59909-.3424-1.19819-.7703-1.7117-.3423-.42793-.8558-.85585-1.3694-1.11261-.5135-.25676-1.1126-.42793-1.7117-.42793h-4.9639c-1.1982 0-2.3108.5991-3.0811 1.54054-.9414 1.28378-1.1126 3.16666-.1711 4.53606z"/><path d="m41.6589 32.6986c0 .7188-.5827 1.3014-1.3015 1.3014s-1.3015-.5826-1.3015-1.3014.5827-1.3015 1.3015-1.3015 1.3015.5827 1.3015 1.3015z"/><path d="m36.7198 23.6071c.0366-.4535.0996-.665.2887-1.0412.3193-.6121.7219-.9151 1.2425-1.1815.3791-.1798.6192-.2312 1.0412-.314.5999-.0703.9497-.0947 1.5557-.0418 1.1855.126 2.1772.5694 2.7493 1.5373.4027.7077.4454 1.454.3824 2.0824-.0586.5832-.2258 1.031-.5267 1.4174-.2034.2847-.5105.5999-1.0372.9354-.4152.2645-.7995.4611-1.1127.7559-.1159.1411-.2196.2481-.2196.5186 0 .5572-.002 1.0348-.002 1.5719 0 .3681-.3589.5125-.724.5125-.3321 0-.7565-.0753-.7666-.5308-.0102-.4555.0061-1.0031.0061-1.5495v-.5267c.0427-.36.2381-.6883.5318-1.0224.4259-.4612.8493-.6487 1.2459-.9212.8914-.5416 1.0901-.9165 1.0676-1.6878-.0265-.9059-.5249-1.2079-1.0676-1.4032-.2594-.1188-1.3772-.2511-2.0824-.0569-.5059.1393-.8947.3937-1.0025.9375-.034.1713.0101.2826-.0224.4982-.0757.2709-.203.4663-.5064.5755-.2117.0762-.3833.0593-.5511-.0122-.4433-.1892-.528-.5833-.49-1.0534z"/></g></svg>