<svg fill="none" height="48" viewBox="0 0 48 48" width="48" xmlns="http://www.w3.org/2000/svg"><g fill="#333"><path d="m17.018 28.7073 5.5631 7.1891-5.5631 7.1036-7.018-5.3919z"/><path d="m13.7657 11.1621 2.9955-3.93688c1.1126-1.36937 2.7387-2.22522 4.4504-2.22522h4.9639c.8559 0 1.7117.17117 2.482.5991.7703.34234 1.455.94143 1.9685 1.62612l3.081 4.02248c2.3964 3.1667 2.3964 7.5315 0 10.6126l-3.2522 4.1081-5.563-7.1892 3.4234-4.3648s-.0856 0-.0856-.0856c-.5991-.3424-1.2838-.5135-1.9685-.5135h-4.9639-.0856c-.6847 0-1.3694.2567-1.9685.5991l3.4235 4.3648 8.045 10.2702 6.6756 8.5586-6.9324 5.3918-16.6891-21.2251c-2.3964-3.0811-2.3964-7.4459 0-10.6126zm4.1937 1.6262c.0855.0855.0856.1711.1711.2567.1712-.1712.428-.2567.6847-.3423.7703-.3424 1.6261-.5991 2.482-.5991h4.9639c.8559 0 1.7117.1711 2.482.5991.1712.0856.4279.2567.5991.3423.5991-.8558.9414-2.054.6847-3.08106-.0856-.59909-.3424-1.19819-.7703-1.7117-.3423-.42793-.8558-.85585-1.3694-1.11261-.5135-.25676-1.1126-.42793-1.7117-.42793h-4.9639c-1.1982 0-2.3108.5991-3.0811 1.54054-.9414 1.28378-1.1126 3.16666-.1711 4.53606z"/><g clip-rule="evenodd" fill-rule="evenodd"><path d="m40 21c.5523 0 1 .4477 1 1v10c0 .5523-.4477 1-1 1s-1-.4477-1-1v-10c0-.5523.4477-1 1-1z"/><path d="m34 27c0-.5523.4477-1 1-1h10c.5523 0 1 .4477 1 1s-.4477 1-1 1h-10c-.5523 0-1-.4477-1-1z"/></g></g></svg>