<svg fill="none" height="48" viewBox="0 0 48 48" width="48" xmlns="http://www.w3.org/2000/svg"><g clip-rule="evenodd" fill="#333" fill-rule="evenodd"><path d="m14.8326 13.4187c2.2206-1.9256 5.0534-3.1638 8.1674-3.3835v1.9648c0 .5523.4477 1 1 1s1-.4477 1-1v-1.9648c3.1139.2197 5.9466 1.4578 8.1671 3.3832l-1.3889 1.389c-.3905.3905-.3905 1.0237 0 1.4142s1.0237.3905 1.4142 0l1.389-1.389c1.9255 2.2206 3.1637 5.0534 3.3834 8.1674h-1.9648c-.5523 0-1 .4477-1 1s.4477 1 1 1h1.9648c-.2197 3.1139-1.4578 5.9466-3.3833 8.1672l-1.3891-1.3891c-.3905-.3905-1.0237-.3905-1.4142 0-.3906.3905-.3906 1.0237 0 1.4142l1.3891 1.3891c-2.2206 1.9255-5.0534 3.1637-8.1673 3.3834v-1.9648c0-.5523-.4477-1-1-1s-1 .4477-1 1v1.9648c-3.1138-.2197-5.9465-1.4578-8.1671-3.3832l1.3889-1.3889c.3905-.3905.3905-1.0236 0-1.4142-.3905-.3905-1.0237-.3905-1.4142 0l-1.3889 1.3889c-1.9256-2.2206-3.1638-5.0534-3.3835-8.1674h1.9648c.5523 0 1-.4477 1-1s-.4477-1-1-1h-1.9648c.2197-3.1139 1.4578-5.9465 3.3832-8.1671l1.3892 1.3892c.3905.3905 1.0237.3905 1.4142 0s.3905-1.0237 0-1.4142zm2.1674 8.0813c0-.5523-.4477-1-1-1s-1 .4477-1 1v2.5 2.5c0 .5523.4477 1 1 1s1-.4477 1-1v-1.5h2v1.5c0 .5523.4477 1 1 1s1-.4477 1-1v-2.5-2.5c0-.5523-.4477-1-1-1s-1 .4477-1 1v1.5h-2zm5 0c0-.5523.4477-1 1-1h2c1.3807 0 2.5 1.1193 2.5 2.5s-1.1193 2.5-2.5 2.5h-1v1c0 .5523-.4477 1-1 1s-1-.4477-1-1v-2zm2 2h1c.2761 0 .5-.2239.5-.5s-.2239-.5-.5-.5h-1zm5.9285-2.3714c-.2051-.5128-.7871-.7622-1.2999-.5571s-.7622.7871-.5571 1.2999l2 5c.1519.3796.5196.6286.9285.6286s.7766-.249.9285-.6286l2-5c.2051-.5128-.0443-1.0948-.5571-1.2999s-1.0948.0443-1.2999.5571l-1.0715 2.6788z"/><path d="m21 5c0-.55228.4477-1 1-1h4c.5523 0 1 .44772 1 1s-.4477 1-1 1h-1v2c0 .55228-.4477 1-1 1s-1-.44772-1-1v-2h-1c-.5523 0-1-.44772-1-1z"/><path d="m24 39c.5523 0 1 .4477 1 1v2h1c.5523 0 1 .4477 1 1s-.4477 1-1 1h-4c-.5523 0-1-.4477-1-1s.4477-1 1-1h1v-2c0-.5523.4477-1 1-1z"/><path d="m12.6864 39.5567c-.3906.3905-1.0237.3905-1.4143 0l-2.82839-2.8284c-.39052-.3906-.39052-1.0237 0-1.4143.39053-.3905 1.02369-.3905 1.41422 0l.70707.7072 1.4142-1.4143c.3906-.3905 1.0237-.3905 1.4143 0 .3905.3906.3905 1.0237 0 1.4143l-1.4143 1.4142.7072.7071c.3905.3905.3905 1.0237 0 1.4142z"/><path d="m34.6067 13.3938c-.3905-.3906-.3905-1.0237 0-1.4143l1.4142-1.4142-.7071-.70708c-.3905-.39052-.3905-1.02369 0-1.41421.3905-.39053 1.0237-.39053 1.4142 0l2.8285 2.82839c.3905.3906.3905 1.0237 0 1.4142-.3906.3906-1.0237.3906-1.4143 0l-.7071-.7071-1.4142 1.4143c-.3905.3905-1.0237.3905-1.4142 0z"/><path d="m5 27c-.55228 0-1-.4477-1-1v-4c0-.5523.44772-1 1-1s1 .4477 1 1v1h2c.55228 0 1 .4477 1 1s-.44772 1-1 1h-2v1c0 .5523-.44772 1-1 1z"/><path d="m39 24c0-.5523.4477-1 1-1h2v-1c0-.5523.4477-1 1-1s1 .4477 1 1v4c0 .5523-.4477 1-1 1s-1-.4477-1-1v-1h-2c-.5523 0-1-.4477-1-1z"/><path d="m8.44368 12.6866c-.39053-.3905-.39053-1.0237 0-1.4142l2.82842-2.82844c.3905-.39053 1.0237-.39053 1.4142 0 .3905.39052.3905 1.02369 0 1.41421l-.7071.70713 1.4142 1.4142c.3906.3905.3906 1.0237 0 1.4142-.3905.3905-1.0237.3905-1.4142 0l-1.4142-1.4142-.70711.7071c-.39052.3905-1.02369.3905-1.41421 0z"/><path d="m34.6067 34.6069c.3905-.3905 1.0237-.3905 1.4142 0l1.4142 1.4142.7071-.7071c.3905-.3905 1.0237-.3905 1.4142 0s.3905 1.0237 0 1.4142l-2.8284 2.8284c-.3905.3906-1.0237.3906-1.4142 0-.3905-.3905-.3905-1.0237 0-1.4142l.7071-.7071-1.4142-1.4142c-.3906-.3905-.3906-1.0237 0-1.4142z"/></g></svg>