<svg fill="none" height="48" viewBox="0 0 48 48" width="48" xmlns="http://www.w3.org/2000/svg" xmlns:xlink="http://www.w3.org/1999/xlink"><clipPath id="a"><path d="m0 0h48v48h-48z"/></clipPath><g clip-path="url(#a)" clip-rule="evenodd" fill="#333" fill-rule="evenodd"><path d="m14.8326 13.4187c2.2206-1.9255 5.0534-3.1637 8.1674-3.3835v1.9649c0 .5522.4477 1 1 1s1-.4478 1-1v-1.9649c3.1139.2198 5.9466 1.4579 8.1671 3.3833l-1.3889 1.3889c-.3905.3906-.3905 1.0237 0 1.4143.3905.3905 1.0237.3905 1.4142 0l1.389-1.389c1.9255 2.2206 3.1637 5.0534 3.3834 8.1674h-1.9648c-.5523 0-1 .4477-1 1 0 .5522.4477 1 1 1h1.9648c-.2197 3.1139-1.4578 5.9466-3.3833 8.1672l-1.3891-1.3892c-.3905-.3905-1.0237-.3905-1.4142 0-.3906.3906-.3906 1.0237 0 1.4143l1.3891 1.3891c-2.2206 1.9255-5.0534 3.1636-8.1673 3.3834v-1.9648c0-.5523-.4477-1-1-1s-1 .4477-1 1v1.9648c-3.1138-.2198-5.9465-1.4578-8.1671-3.3832l1.3889-1.3889c.3905-.3905.3905-1.0237 0-1.4142s-1.0237-.3905-1.4142 0l-1.3889 1.3889c-1.9256-2.2206-3.1638-5.0534-3.3835-8.1674h1.9648c.5523 0 1-.4478 1-1 0-.5523-.4477-1-1-1h-1.9648c.2197-3.1139 1.4578-5.9466 3.3832-8.1671l1.3892 1.3892c.3905.3905 1.0237.3905 1.4142 0s.3905-1.0237 0-1.4142zm1.1674 7.5814c0-.5523-.4477-1-1-1s-1 .4477-1 1v6c0 .5522.4477 1 1 1s1-.4478 1-1v-2h2v2c0 .5522.4477 1 1 1s1-.4478 1-1v-6c0-.5523-.4477-1-1-1s-1 .4477-1 1v2h-2zm5 0c0-.5523.4477-1 1-1h2.5c1.3807 0 2.5 1.1192 2.5 2.5 0 1.3807-1.1193 2.5-2.5 2.5h-1.5v2c0 .5522-.4477 1-1 1s-1-.4478-1-1zm2 2h1.5c.2761 0 .5-.2239.5-.5 0-.2762-.2239-.5-.5-.5h-1.5zm8.9231 4.3846c-.1553.3726-.5194.6154-.9231.6154s-.7678-.2428-.9231-.6154l-2.5-6c-.2124-.5098.0287-1.0953.5385-1.3077s1.0953.0286 1.3077.5384l1.5769 3.7847 1.5769-3.7847c.2124-.5098.7979-.7508 1.3077-.5384s.7509.7979.5385 1.3077z"/><path d="m21 5.00006c0-.55228.4477-1 1-1h4c.5523 0 1 .44772 1 1 0 .55229-.4477 1-1 1h-1v2c0 .55229-.4477 1-1 1s-1-.44771-1-1v-2h-1c-.5523 0-1-.44771-1-1z"/><path d="m24 39.0001c.5523 0 1 .4477 1 1v2h1c.5523 0 1 .4477 1 1 0 .5522-.4477 1-1 1h-4c-.5523 0-1-.4478-1-1 0-.5523.4477-1 1-1h1v-2c0-.5523.4477-1 1-1z"/><path d="m12.6863 39.5568c-.3905.3905-1.0237.3905-1.4142 0l-2.82845-2.8285c-.39052-.3905-.39052-1.0236 0-1.4142.39053-.3905 1.02369-.3905 1.41422 0l.70713.7071 1.4142-1.4142c.3905-.3905 1.0237-.3905 1.4142 0 .3905.3906.3905 1.0237 0 1.4142l-1.4142 1.4143.7071.7071c.3905.3905.3905 1.0237 0 1.4142z"/><path d="m34.6066 13.3938c-.3905-.3905-.3905-1.0237 0-1.4142l1.4142-1.4142-.7071-.70711c-.3905-.39052-.3905-1.02369 0-1.41421s1.0237-.39052 1.4142 0l2.8284 2.82842c.3906.3905.3906 1.0237 0 1.4142-.3905.3905-1.0236.3905-1.4142 0l-.7071-.7071-1.4142 1.4142c-.3905.3906-1.0237.3906-1.4142 0z"/><path d="m5 27.0001c-.55228 0-1-.4478-1-1v-4c0-.5523.44772-1 1-1s1 .4477 1 1v1h2c.55228 0 1 .4477 1 1 0 .5522-.44772 1-1 1h-2v1c0 .5522-.44772 1-1 1z"/><path d="m39 24.0001c0-.5523.4477-1 1-1h2v-1c0-.5523.4477-1 1-1s1 .4477 1 1v4c0 .5522-.4477 1-1 1s-1-.4478-1-1v-1h-2c-.5523 0-1-.4478-1-1z"/><path d="m8.44365 12.6867c-.39052-.3906-.39052-1.0237 0-1.4143l2.82845-2.82838c.3905-.39053 1.0237-.39053 1.4142 0 .3905.39052.3905 1.02369 0 1.41421l-.7071.70707 1.4142 1.4143c.3905.3905.3905 1.0236 0 1.4142-.3905.3905-1.0237.3905-1.4142 0l-1.4142-1.4142-.70714.7071c-.39052.3905-1.02369.3905-1.41421 0z"/><path d="m34.6066 34.607c.3905-.3906 1.0237-.3906 1.4142 0l1.4142 1.4142.7071-.7071c.3906-.3905 1.0237-.3905 1.4142 0 .3906.3905.3906 1.0237 0 1.4142l-2.8284 2.8284c-.3905.3905-1.0237.3905-1.4142 0s-.3905-1.0237 0-1.4142l.7071-.7071-1.4142-1.4142c-.3905-.3905-.3905-1.0237 0-1.4142z"/></g></svg>