<svg fill="none" height="48" viewBox="0 0 48 48" width="48" xmlns="http://www.w3.org/2000/svg"><g fill="#333"><path clip-rule="evenodd" d="m10 7v30c0 1.6569 1.3431 3 3 3h13v-3.5351c-1.1956-.6916-2-1.9843-2-3.4649 0-2.2091 1.7909-4 4-4s4 1.7909 4 4c0 1.4806-.8044 2.7733-2 3.4649v3.5351h5c1.6569 0 3-1.3431 3-3v-30c0-1.65685-1.3431-3-3-3h-22c-1.6569 0-3 1.34315-3 3zm18 28c1.1046 0 2-.8954 2-2s-.8954-2-2-2-2 .8954-2 2 .8954 2 2 2zm-10-24c0-.5523.4477-1 1-1h10c.5523 0 1 .4477 1 1s-.4477 1-1 1h-10c-.5523 0-1-.4477-1-1zm-3 5c-.5523 0-1 .4477-1 1s.4477 1 1 1h18c.5523 0 1-.4477 1-1s-.4477-1-1-1zm-1 5c0-.5523.4477-1 1-1h18c.5523 0 1 .4477 1 1s-.4477 1-1 1h-18c-.5523 0-1-.4477-1-1zm1 3c-.5523 0-1 .4477-1 1s.4477 1 1 1h18c.5523 0 1-.4477 1-1s-.4477-1-1-1z" fill-rule="evenodd"/><path d="m26 44v-4h4v4l-2-1.5z"/></g></svg>