<svg fill="none" height="48" viewBox="0 0 48 48" width="48" xmlns="http://www.w3.org/2000/svg"><g fill="#333"><path d="m30 34c0 1.1046-.8954 2-2 2s-2-.8954-2-2 .8954-2 2-2 2 .8954 2 2z"/><path clip-rule="evenodd" d="m10 35c0 2.7614 2.2386 5 5 5h11v4l2-1.3333 2 1.3333v-4h3c2.7614 0 5-2.2386 5-5v-26c0-2.76142-2.2386-5-5-5h-18c-2.7614 0-5 2.23858-5 5zm20 5h-4v-2.5351c-1.1956-.6916-2-1.9843-2-3.4649 0-2.2091 1.7909-4 4-4s4 1.7909 4 4c0 1.4806-.8044 2.7733-2 3.4649zm-12-29c0-.5523.4477-1 1-1h10c.5523 0 1 .4477 1 1s-.4477 1-1 1h-10c-.5523 0-1-.4477-1-1zm-3 5c-.5523 0-1 .4477-1 1s.4477 1 1 1h18c.5523 0 1-.4477 1-1s-.4477-1-1-1zm-1 5c0-.5523.4477-1 1-1h18c.5523 0 1 .4477 1 1s-.4477 1-1 1h-18c-.5523 0-1-.4477-1-1zm1 3c-.5523 0-1 .4477-1 1s.4477 1 1 1h18c.5523 0 1-.4477 1-1s-.4477-1-1-1z" fill-rule="evenodd"/></g></svg>