<svg fill="none" height="48" viewBox="0 0 48 48" width="48" xmlns="http://www.w3.org/2000/svg"><g fill="#333"><path clip-rule="evenodd" d="m16 5h13l9 9v23c0 1.1046-.8954 2-2 2h-20c-1.1046 0-2-.8954-2-2v-30c0-1.10457.8954-2 2-2zm19 9-6-6v5c0 .5523.4477 1 1 1zm-13.7071 6.2929c.3905-.3905 1.0237-.3905 1.4142 0l3.2929 3.2929 3.2929-3.2929c.3905-.3905 1.0237-.3905 1.4142 0s.3905 1.0237 0 1.4142l-3.2929 3.2929 3.2929 3.2929c.3905.3905.3905 1.0237 0 1.4142s-1.0237.3905-1.4142 0l-3.2929-3.2929-3.2929 3.2929c-.3905.3905-1.0237.3905-1.4142 0s-.3905-1.0237 0-1.4142l3.2929-3.2929-3.2929-3.2929c-.3905-.3905-.3905-1.0237 0-1.4142z" fill-rule="evenodd"/><path d="m12 11h-2v27c0 2.7614 2.2386 5 5 5h19v-2h-19c-1.6569 0-3-1.3431-3-3z"/></g></svg>