<svg fill="none" height="48" viewBox="0 0 48 48" width="48" xmlns="http://www.w3.org/2000/svg"><g clip-rule="evenodd" fill="#333" fill-rule="evenodd"><path d="m39 13c-1.6569 0-3 1.3431-3 3v2h6v-2c0-1.6569-1.3431-3-3-3zm3 7h-6v16.5l3 4.5 3-4.5z"/><path d="m6 9v29.9992c0 1.6569 1.34315 3 3 3h22c1.6569 0 3-1.3431 3-3v-29.9992c0-1.65685-1.3431-3-3-3h-22c-1.65685 0-3 1.34314-3 3zm14 6c0-.5523.4477-1 1-1h8c.5523 0 1 .4477 1 1s-.4477 1-1 1h-8c-.5523 0-1-.4477-1-1zm1 3c-.5523 0-1 .4477-1 1s.4477 1 1 1h8c.5523 0 1-.4477 1-1s-.4477-1-1-1zm-1 10c0-.5523.4477-1 1-1h8c.5523 0 1 .4477 1 1s-.4477 1-1 1h-8c-.5523 0-1-.4477-1-1zm1 3c-.5523 0-1 .4477-1 1s.4477 1 1 1h8c.5523 0 1-.4477 1-1s-.4477-1-1-1zm-9-3v3h3v-3zm-1-2h5c.5523 0 1 .4477 1 1v5c0 .5523-.4477 1-1 1h-5c-.5523 0-1-.4477-1-1v-5c0-.5523.4477-1 1-1zm6.7071-10.2929c.3905-.3905.3905-1.0237 0-1.4142s-1.0237-.3905-1.4142 0l-3.2929 3.2929-1.2929-1.2929c-.3905-.3905-1.0237-.3905-1.4142 0-.39053.3905-.39053 1.0237 0 1.4142l2.7071 2.7071z"/></g></svg>