<svg fill="none" height="48" viewBox="0 0 48 48" width="48" xmlns="http://www.w3.org/2000/svg"><path d="m28.7526 6.3415c-.2744-.31353-.7143-.42414-1.1043-.2776-.39.14653-.6483.51949-.6483.9361v7c0 1.1046.8954 2 2 2h6c.3924 0 .7485-.2295.9106-.5868.1622-.3573.1004-.7764-.158-1.0717zm-8.0026 16.6585h-1.5l.75-1.8zm6.8076-18 9.4424 10.3866v24.6134c0 1.6569-1.3431 3-3 3h-20c-1.6569 0-3-1.3431-3-3v-32c0-1.65685 1.3431-3 3-3zm-5.7114 10.2308c-.3106-.7453-1.0388-1.2308-1.8462-1.2308s-1.5356.4855-1.8462 1.2308l-5 12c-.4248 1.0196.0574 2.1905 1.077 2.6154 1.0196.4248 2.1905-.0574 2.6154-1.077l.7371-1.7692h4.8334l.7371 1.7692c.4249 1.0196 1.5958 1.5018 2.6154 1.077 1.0196-.4249 1.5018-1.5958 1.077-2.6154l-.103-.2471c.0841.0107.1698.0163.2568.0163h1v1c0 1.1046.8954 2 2 2s2-.8954 2-2v-1h1c1.1046 0 2-.8954 2-2s-.8954-2-2-2h-1v-1c0-1.1046-.8954-2-2-2s-2 .8954-2 2v1h-1c-.6479 0-1.2238.3081-1.5893.7857zm-6.8462 15.7692c-1.1046 0-2 .8954-2 2s.8954 2 2 2c-1.1046 0-2 .8954-2 2s.8954 2 2 2h12c1.1046 0 2-.8954 2-2 0-1.1038-.8942-1.9988-1.9977-2h5.9977c1.1046 0 2-.8954 2-2s-.8954-2-2-2z" fill="#333" stroke="#333" stroke-linejoin="round" stroke-width="2"/></svg>