<svg fill="none" height="48" viewBox="0 0 48 48" width="48" xmlns="http://www.w3.org/2000/svg"><g clip-rule="evenodd" fill="#333" fill-rule="evenodd"><path d="m13 8h4v2.0008c0 .5523.4477 1 1 1s1-.4477 1-1v-2.0008h8v2.0008c0 .5523.4477 1 1 1s1-.4477 1-1v-2.0008h1c1.6569 0 3 1.34315 3 3v24c0 1.6569-1.3431 3-3 3h-17c-1.6569 0-3-1.3431-3-3v-24c0-1.65685 1.3431-3 3-3zm2 10c-.5523 0-1 .4477-1 1s.4477 1 1 1h13c.5523 0 1-.4477 1-1s-.4477-1-1-1zm-1 6c0-.5523.4477-1 1-1h7c.5523 0 1 .4477 1 1s-.4477 1-1 1h-7c-.5523 0-1-.4477-1-1zm1 4c-.5523 0-1 .4477-1 1s.4477 1 1 1h11c.5523 0 1-.4477 1-1s-.4477-1-1-1z"/><path d="m8 10v25c0 2.7614 2.2386 5 5 5h17v2h-17c-3.86599 0-7-3.134-7-7v-25z"/><path d="m39 10c-1.6569 0-3 1.3431-3 3v3h6v-3c0-1.6569-1.3431-3-3-3zm3 8h-6v15l3 4 3-4z"/><path d="m26 6c.5523 0 1 .44772 1 1v4c0 .5523-.4477 1-1 1s-1-.4477-1-1v-4c0-.55228.4477-1 1-1z"/><path d="m16 6c.5523 0 1 .44772 1 1v4c0 .5523-.4477 1-1 1s-1-.4477-1-1v-4c0-.55228.4477-1 1-1z"/></g></svg>