<svg fill="none" height="48" viewBox="0 0 48 48" width="48" xmlns="http://www.w3.org/2000/svg"><g fill="#333"><path d="m29.0001 3.5c0-.82843-.6716-1.5-1.5-1.5s-1.5.67157-1.5 1.5v3.00082c0 .82843.6716 1.5 1.5 1.5s1.5-.67157 1.5-1.5z"/><path clip-rule="evenodd" d="m14.0001 4.18945h-1.9644c-2.20913 0-4 1.79086-4 4v28.00005c0 2.2091 1.79086 4 4 4h20c2.2091 0 4-1.7909 4-4v-28.00005c0-2.20914-1.7909-4-4-4h-2.0356v2.31055c0 1.38071-1.1193 2.5-2.5 2.5s-2.5-1.11929-2.5-2.5v-2.31055h-6v2.31055c0 1.38071-1.1193 2.5-2.5 2.5s-2.5-1.11929-2.5-2.5zm0 10.81055c0-.5523.4477-1 1-1h14c.5523 0 1 .4477 1 1s-.4477 1-1 1h-14c-.5523 0-1-.4477-1-1zm1.0355 4.1895c-.5522 0-1 .4477-1 1 0 .5522.4478 1 1 1h14c.5523 0 1-.4478 1-1 0-.5523-.4477-1-1-1zm-1 6c0-.5523.4478-1 1-1h14c.5523 0 1 .4477 1 1 0 .5522-.4477 1-1 1h-14c-.5522 0-1-.4478-1-1zm1 4.0546c-.5522 0-1 .4478-1 1 0 .5523.4478 1 1 1h8c.5523 0 1-.4477 1-1 0-.5522-.4477-1-1-1z" fill-rule="evenodd"/><path d="m5.03565 8.95703c.55229 0 1 .44772 1 1l-.00001 27.04257c0 2.7614 2.23858 5 4.99996 5h19.0647c.5522 0 1 .4477 1 1 0 .5522-.4478 1-1 1h-19.0647c-3.86595 0-6.99996-3.1341-6.99996-7l.00001-27.04257c0-.55228.44772-1 1-1z"/><path d="m16.5087 2c.8285 0 1.5.67157 1.5 1.5v3.00082c0 .82843-.6715 1.5-1.5 1.5-.8284 0-1.5-.67157-1.5-1.5v-3.00082c0-.82843.6716-1.5 1.5-1.5z"/><path d="m42.0001 10h-2c-1.1045 0-2 .8954-2 2v4h6v-4c0-1.1046-.8954-2-2-2z"/><path d="m44.0001 17h-6v18l3 4 3-4z"/></g></svg>