<svg fill="none" height="48" viewBox="0 0 48 48" width="48" xmlns="http://www.w3.org/2000/svg"><g fill="#333"><g clip-rule="evenodd" fill-rule="evenodd"><path d="m35 40c2.7614 0 5-2.2386 5-5s-2.2386-5-5-5-5 2.2386-5 5 2.2386 5 5 5zm0 2c3.866 0 7-3.134 7-7s-3.134-7-7-7-7 3.134-7 7 3.134 7 7 7z"/><path d="m35 31.5c.5523 0 1 .4477 1 1v2.0858l.7071.7071c.3905.3905.3905 1.0237 0 1.4142s-1.0237.3905-1.4142 0l-1.2929-1.2929v-2.9142c0-.5523.4477-1 1-1z"/><path d="m14 23h-2v2h2zm-2-2c-1.1046 0-2 .8954-2 2v2c0 1.1046.8954 2 2 2h2c1.1046 0 2-.8954 2-2v-2c0-1.1046-.8954-2-2-2z"/><path d="m22 23h-2v2h2zm-2-2c-1.1046 0-2 .8954-2 2v2c0 1.1046.8954 2 2 2h2c1.1046 0 2-.8954 2-2v-2c0-1.1046-.8954-2-2-2z"/><path d="m30 23h-2v2h2zm-2-2c-1.1046 0-2 .8954-2 2v2c0 1.1046.8954 2 2 2h2c1.1046 0 2-.8954 2-2v-2c0-1.1046-.8954-2-2-2z"/><path d="m14 31h-2v2h2zm-2-2c-1.1046 0-2 .8954-2 2v2c0 1.1046.8954 2 2 2h2c1.1046 0 2-.8954 2-2v-2c0-1.1046-.8954-2-2-2z"/><path d="m22 31h-2v2h2zm-2-2c-1.1046 0-2 .8954-2 2v2c0 1.1046.8954 2 2 2h2c1.1046 0 2-.8954 2-2v-2c0-1.1046-.8954-2-2-2z"/><path d="m8 12c0-.5523.44772-1 1-1h5v-2h-5c-1.65685 0-3 1.3431-3 3v24c0 1.6569 1.34315 3 3 3h20.2547c-.4213-.604-.7498-1.2776-.9648-2h-19.2899c-.55228 0-1-.4477-1-1zm26 16.0709c.3266-.0467.6605-.0709 1-.0709s.6734.0242 1 .0709v-16.0709c0-1.6568-1.3431-3-3-3h-3v2h3c.5523 0 1 .4477 1 1zm-18-17.0709h10.5625v-2h-10.5625z"/><path d="m28 9h-12v3c0 .5523-.4477 1-1 1s-1-.4477-1-1v-3h-5c-1.10457 0-2 .89543-2 2v5c0 1.1046.89543 2 2 2h24c1.1046 0 2-.8961 2-2.0007v-4.9987c0-1.10452-.8954-2.0006-2-2.0006h-3v3c0 .5523-.4477 1-1 1s-1-.4477-1-1z"/><path d="m36 18h-28v-2h28z"/></g><path d="m12 7c0-.55228.4477-1 1-1s1 .44772 1 1v4c0 .5523-.4477 1-1 1s-1-.4477-1-1z"/><path d="m26 7c0-.55228.4477-1 1-1s1 .44772 1 1v4c0 .5523-.4477 1-1 1s-1-.4477-1-1z"/></g></svg>