<svg fill="none" height="48" viewBox="0 0 48 48" width="48" xmlns="http://www.w3.org/2000/svg"><path clip-rule="evenodd" d="m16.6038 5.55598c1.0166-2.03332 3.8373-2.24111 5.141-.37875l4.874 6.96297c1.0433.2669 1.9406.8984 2.5481 1.7508.6192-.5541 1.4368-.891 2.3331-.891 1.7632 0 3.2219 1.3039 3.4646 3h5.0354v2h-5.3368c-.5617 1.1825-1.767 2-3.1632 2-.5006 0-.9766-.1051-1.4072-.2944.0951.5568.2707 1.1526.5596 1.7192.5835 1.1442 1.6378 2.1967 3.5519 2.5962l-.4087 1.9578c-2.5573-.5338-4.0905-2.0091-4.9249-3.6454-.1831-.359-.332-.7242-.4515-1.0876-.2312.5418-.3727 1.0367-.4095 1.5179-.0852 1.1149.3732 2.4999 2.6475 4.4825l-1.3142 1.5076c-2.5056-2.1842-3.4812-4.1325-3.3274-6.1426.0454-.5946.1884-1.1607.3859-1.7015-.2912.0592-.5927.0903-.9015.0903-.4741 0-.931-.0733-1.3601-.2092-.0497.0576-.1028.1139-.1595.1689-1.0322 1.0011-2.4744 1.418-3.9642 1.5478-.9347.0814-1.9415.0543-2.9719-.0405-1.3436 1.7011-3.4817 3.3996-6.7283 4.4818l-.63241-1.8974c2.25981-.7532 3.86461-1.8225 4.98431-2.9254-.096-.0258-.1913-.0547-.2856-.0869-1.1408-.3894-2.0408-.7849-2.7515-1.1754-1.1422-.6275-1.65213-1.7434-1.3805-2.8599.2542-1.0447 1.1373-1.867 2.2817-2.1931 2.1261-.6059 4.4686-.8613 6.4437-.9433l-1.5846-.6338c-.6287-.2515-1.1997-.6281-1.6785-1.1069l-2.3383-2.3383c-.95-.94999-1.1856-2.40132-.5847-3.60299.726-1.45195 2.3732-2.03686 3.7828-1.56661zm3.5025.76818 4.1043 5.86334c-.2234.0667-.4396.1503-.647.2493l.1437-.1437-5.4907-5.49073.176-.35197c.3389-.67776 1.2791-.74703 1.7137-.12624zm2.0113 7.20764-5.7433-5.74339c-.5412-.54119-1.4536-.39314-1.7959.29143-.2158.43169-.1312.95308.2101 1.29436l2.3383 2.3383c.2873.2873.6299.5132 1.0071.6641l3.7186 1.4874c.0832-.1149.1717-.2258.2651-.3322zm2.8824 21.4682h3.5859l-5.5858 5.5859-7.2929-7.2929-1.4142 1.4142 7.2928 7.2928h-9.5858v2h24v-2h-11.5856l5.5856-5.5856v3.5856h2v-7h-7z" fill="#333" fill-rule="evenodd"/></svg>