<svg fill="none" height="48" viewBox="0 0 48 48" width="48" xmlns="http://www.w3.org/2000/svg"><g fill="#333"><path d="m18.7479 12.8156c-1.7407.0677-3.3126.6887-4.1535 1.5298-.3905.3906-1.0237.3906-1.4142.0001-.3906-.3904-.3907-1.0236-.0002-1.4142 1.2974-1.2976 3.4088-2.0332 5.4901-2.1142 2.0949-.0815 4.382.4921 5.9837 2.0941.3904.3905.3904 1.0237-.0002 1.4142-.3905.3905-1.0237.3904-1.4142-.0001-1.091-1.0913-2.7645-1.5769-4.4915-1.5097z"/><path clip-rule="evenodd" d="m28.9355 27.3841c1.912-2.2634 3.0645-5.1892 3.0645-8.3841 0-7.1797-5.8203-13-13-13s-13 5.8203-13 13 5.8203 13 13 13c3.1949 0 6.1207-1.1525 8.3841-3.0645l-.3841 2.2087 7.5137 7.5137 4.1442-4.1442-7.5137-7.5137zm-9.9355 1.6159c5.5228 0 10-4.4772 10-10s-4.4772-10-10-10-10 4.4772-10 10 4.4772 10 10 10z" fill-rule="evenodd"/><path d="m35.9279 40.0721 4.1442-4.1442 1.3557 1.3558c.7629.7629.7629 1.9998 0 2.7627l-1.3814 1.3814c-.7629.7629-1.9998.7629-2.7627 0z"/></g></svg>