<svg fill="none" height="48" viewBox="0 0 48 48" width="48" xmlns="http://www.w3.org/2000/svg"><g clip-rule="evenodd" fill="#333" fill-rule="evenodd"><path d="m16 20c0-.5523-.4477-1-1-1s-1 .4477-1 1v4.5837c-.3229.4041-.6065.9977-.8308 1.7277l-1.126-1.1356v-1.983c0-.2637-.1042-.5167-.2899-.704l-2.37415-2.3947c-.38885-.3921-1.02201-.3949-1.4142-.006-.3922.3888-.39491 1.022-.00606 1.4142l2.08431 2.1023v1.9829c0 .2637.1042.5168.2899.704l.7522.7588-7.01621 1.2219c-.28776 1.3782.17266 4.1347 4.31642 4.1347.07658 0 .1521-.0014.22657-.004l-.50105.3369c-.3187.2143-.48652.5922-.43181.9723l.48534 3.3726-1.85291 1.2459c-.45831.3082-.58002.9295-.27185 1.3878s.92952.58 1.38783.2719l2.3742-1.5964c.31867-.2143.48647-.5922.43177-.9723l-.4853-3.3726.3288-.2211c.005.0186.0105.0372.0166.0556l1.4589 4.4144-1.76467 3.8198c-.23163.5013-.01297 1.0955.48837 1.3272.5014.2316 1.0956.0129 1.3272-.4884l1.9303-4.1782c.1064-.2302.1213-.4923.0417-.7332l-1.3903-4.2069.6768-.6826c.3842 2.1347 1.1973 3.6068 2.1382 3.6068s1.754-1.4721 2.1382-3.6067l.6767.6825-1.3904 4.2069c-.0796.2409-.0647.5029.0417.7332l1.9301 4.1781c.2316.5014.8258.7201 1.3271.4885.5014-.2316.7201-.8258.4885-1.3272l-1.7645-3.8198 1.4589-4.4144c.0061-.0184.0116-.037.0166-.0556l.3288.2211-.4855 3.3725c-.0548.3802.1131.7581.4318.9724l2.3742 1.5964c.4583.3081 1.0796.1864 1.3878-.2719s.1865-1.0796-.2718-1.3878l-1.8529-1.2459.4855-3.3725c.0547-.3801-.1131-.758-.4318-.9724l-.501-.3369c.0744.0026.1498.004.2263.004 4.1438 0 4.6042-2.7565 4.3164-4.1347l-7.016-1.2219.7523-.7588c.1856-.1872.2898-.4403.2898-.704v-1.9829l2.0844-2.1023c.3888-.3922.3861-1.0254-.0061-1.4142-.3922-.3889-1.0254-.3861-1.4142.006l-2.3742 2.3947c-.1857.1873-.2899.4403-.2899.704v1.983l-1.1258 1.1355c-.2245-.7303-.5081-1.3241-.8312-1.7281z"/><path d="m34 5c0-.55228-.4477-1-1-1s-1 .44772-1 1v4.58373c-.3229.40403-.6065.99767-.8308 1.72767l-1.126-1.1356v-1.98296c0-.26373-.1042-.51678-.2899-.70407l-2.3742-2.39462c-.3888-.3922-1.022-.39491-1.4142-.00606-.3921.38885-.3949 1.02201-.006 1.4142l2.0843 2.10226v1.98295c0 .2637.1042.5168.2899.704l.7522.7588-7.0162 1.2219c-.2878 1.3782.1726 4.1347 4.3164 4.1347.0766 0 .1521-.0014.2266-.004l-.5011.3369c-.3187.2143-.4865.5922-.4318.9723l.4854 3.3726-1.8529 1.2459c-.4584.3082-.5801.9295-.2719 1.3878s.9295.58 1.3878.2719l2.3742-1.5964c.3187-.2143.4865-.5922.4318-.9723l-.4853-3.3726.3288-.2211c.005.0186.0105.0372.0166.0556l1.4589 4.4144-1.7647 3.8198c-.2316.5013-.0129 1.0955.4884 1.3272.5014.2316 1.0956.0129 1.3272-.4884l1.9303-4.1782c.1064-.2302.1213-.4923.0417-.7332l-1.3903-4.2069.6768-.6826c.3842 2.1347 1.1973 3.6068 2.1382 3.6068s1.754-1.4721 2.1382-3.6067l.6767.6825-1.3904 4.2069c-.0796.2409-.0647.5029.0417.7332l1.9301 4.1781c.2316.5014.8258.7201 1.3271.4885.5014-.2316.7201-.8258.4885-1.3272l-1.7645-3.8198 1.4589-4.4144c.0061-.0184.0116-.037.0166-.0556l.3288.2211-.4855 3.3725c-.0548.3802.1131.7581.4318.9724l2.3742 1.5964c.4583.3081 1.0796.1864 1.3878-.2719s.1865-1.0796-.2718-1.3878l-1.8529-1.2459.4855-3.3725c.0547-.3801-.1131-.758-.4318-.9724l-.501-.3369c.0744.0026.1498.004.2263.004 4.1438 0 4.6042-2.7565 4.3164-4.1347l-7.016-1.2219.7523-.7588c.1856-.1872.2898-.4403.2898-.704v-1.98295l2.0844-2.10226c.3888-.39219.3861-1.02535-.0061-1.4142s-1.0254-.38614-1.4142.00606l-2.3742 2.39462c-.1857.18729-.2899.44034-.2899.70407v1.98296l-1.1258 1.1355c-.2245-.7303-.5081-1.32406-.8312-1.72809z"/></g></svg>