<svg fill="none" height="48" viewBox="0 0 48 48" width="48" xmlns="http://www.w3.org/2000/svg"><path clip-rule="evenodd" d="m24 14c0-5.52285 4.4772-10 10-10s10 4.47715 10 10c0 5.5228-4.4772 10-10 10h-9c-.5523 0-1-.4477-1-1zm-16.22222-5c-1.53006 0-2.77778 1.2477-2.77778 2.7778 0 17.2456 13.9766 31.2222 31.2222 31.2222 1.5301 0 2.7778-1.2477 2.7778-2.7778v-6.2044c0-1.5301-1.2477-2.7778-2.7778-2.7778-2.0959 0-4.1395-.3379-6.0283-.9613-.9832-.3345-2.0912-.0801-2.8388.6675l-3.3886 3.3887c-4.3437-2.3806-7.9374-5.9618-10.3027-10.3l3.39-3.39c.7727-.7728.9936-1.8584.6913-2.8203l-.0022-.0069-.0023-.0069c-.6245-1.8906-.9628-3.9181-.9628-6.033 0-1.5301-1.2477-2.7778-2.7778-2.7778zm25.22222 10v-4h-4v-2h4v-4h2v4h4v2h-4v4z" fill="#333" fill-rule="evenodd"/></svg>