<svg fill="none" height="48" viewBox="0 0 48 48" width="48" xmlns="http://www.w3.org/2000/svg"><g fill="#333"><path d="m35.4653 12.1208c-2.8738-2.37575-6.4985-3.87644-10.4653-4.09351v4.97271h-2v-4.97271c-3.9668.21708-7.5914 1.71774-10.4652 4.09341l3.0008 3.0006-1.4142 1.4143-3.0564-3.0563c-2.70187 2.7898-4.50823 6.451-4.95619 10.5207h3.94389v2h-4.0527c.00246 4.2022 1.44565 8.0662 3.86416 11.1274l2.91834-2.9184 1.4142 1.4142-3.0052 3.0053.0188.019-1.42061 1.4078c-3.57808-3.6107-5.78969-8.5812-5.78969-14.0661 0-11.0402 8.9548-19.9892 20-19.9892s20 8.949 20 19.9892c0 5.6344-2.3337 10.7256-6.0848 14.3579l-1.3913-1.4368.0126-.0123-3.4771-3.4771 1.4142-1.4142 3.4204 3.4203c2.5638-3.1069 4.1035-7.0867 4.106-11.427h-4.3157v-2h4.2069c-.448-4.0697-2.2543-7.7308-4.9561-10.5206l-2.9352 2.9348-1.4141-1.4143z"/><path d="m20.6265 37.7042c-.0283.3922.0875.7812.3257 1.0941l1.9224 2.2113c1.1255.4905 1.6255.4905 2.5681 0l1.9224-2.2113c.2382-.3129.354-.7019.3257-1.0941l-2.3812-13.8021c-.1442-1.9969-2.1692-2.015-2.3135-.0182z"/></g></svg>