<svg fill="none" height="48" viewBox="0 0 48 48" width="48" xmlns="http://www.w3.org/2000/svg"><g fill="#333"><path d="m12 31v7c0 1.1046.8954 2 2 2s2-.8954 2-2v-7z"/><path d="m7 26v-6c0-1.6569 1.34315-3 3-3h6v12h-4.5-1.5c-1.65685 0-3-1.3431-3-3z"/><path d="m34 23v-1c0-1.6569-1.3431-3-3-3v7c1.6569 0 3-1.3431 3-3z"/><path d="m18 30v-15l9.4631-6.02199c.6657-.42364 1.5369.05457 1.5369.84366v25.35663c0 .7891-.8712 1.2673-1.5369.8437z"/><path clip-rule="evenodd" d="m40.8322 17.4453c.3063.4595.1821 1.0804-.2774 1.3867l-3 2c-.4595.3064-1.0804.1822-1.3867-.2773-.3064-.4595-.1822-1.0804.2773-1.3868l3-2c.4595-.3063 1.0804-.1821 1.3868.2774zm-4.8321 6.5547c0-.5523.4477-1 1-1h4c.5523 0 1 .4477 1 1s-.4477 1-1 1h-4c-.5523 0-1-.4477-1-1zm.168 3.4453c.3063-.4595.9272-.5837 1.3867-.2774l3 2c.4595.3064.5837.9273.2774 1.3868-.3064.4595-.9273.5837-1.3868.2773l-3-2c-.4595-.3063-.5837-.9272-.2773-1.3867z" fill-rule="evenodd"/></g></svg>