<svg fill="none" height="48" viewBox="0 0 48 48" width="48" xmlns="http://www.w3.org/2000/svg"><path clip-rule="evenodd" d="m44 24c0 11.0457-8.9543 20-20 20s-20-8.9543-20-20 8.9543-20 20-20 20 8.9543 20 20zm-27.7782 7.7782c-.3905-.3905-.3905-1.0236 0-1.4142l6.364-6.3639-6.364-6.364c-.3905-.3906-.3905-1.0237 0-1.4143.3905-.3905 1.0237-.3905 1.4142 0l6.364 6.364 6.364-6.3639c.3905-.3905 1.0237-.3905 1.4142 0s.3905 1.0237 0 1.4142l-6.364 6.364 6.364 6.3639c.3905.3905.3905 1.0237 0 1.4142-.3906.3905-1.0237.3905-1.4142 0l-6.364-6.3639-6.3639 6.3639c-.3906.3906-1.0237.3906-1.4143 0z" fill="#333" fill-rule="evenodd"/></svg>