<svg fill="none" height="48" viewBox="0 0 48 48" width="48" xmlns="http://www.w3.org/2000/svg"><path clip-rule="evenodd" d="m24.0117 12.3538c-3.2197 0-6.1345 1.3049-8.2433 3.4137l-.0091-7.68701c2.4687-1.27201 5.2844-2.08049 8.2524-2.08049 2.9664 0 5.7671.71777 8.2346 1.98895l-.0083 7.76275c-2.1076-2.0993-5.0152-3.3979-8.2263-3.3979zm-.0162 23.2925c3.2194 0 6.1329-1.3044 8.2417-3.4136l-.0059 7.7781c-2.4674 1.2716-5.2678 1.9893-8.2358 1.9893s-5.7675-.7177-8.2362-1.9889l.0083-7.7627c2.1088 2.0996 5.0165 3.3978 8.2279 3.3978zm-8.2284-3.413c-2.1088-2.1088-3.4137-5.0219-3.4137-8.2416 0-3.2115 1.2986-6.1187 3.3983-8.2279l-7.76317-.0079c-1.27076 2.4682-1.98853 5.2678-1.98853 8.2358 0 2.9676.71777 5.7683 1.98936 8.2366zm19.8795-8.2341c0-3.2198-1.3045-6.1346-3.4137-8.2433l7.7781.0058c1.2716 2.4687 1.9894 5.2694 1.9894 8.2375 0 2.9663-.7178 5.7671-1.989 8.2345l-7.7631-.0083c2.1-2.1071 3.3983-5.0152 3.3983-8.2262z" fill="#333" fill-rule="evenodd"/></svg>