<svg fill="none" height="48" viewBox="0 0 48 48" width="48" xmlns="http://www.w3.org/2000/svg"><g fill="#333"><path clip-rule="evenodd" d="m23.0022 6.64949c0-.35307-.3225-.61939-.6641-.52993-4.2295 1.10783-7.3359 4.78884-7.3359 9.15914 0 1.7183.4803 3.3301 1.3201 4.7208.027.0446.0543.0889.0819.1331-.0529.0007-.1059.0019-.1589.0036-1.2016.0378-2.4074.3121-3.5554.8474-3.96079 1.847-5.98415 6.218-5.20069 10.5194.06327.3474.44095.5272.76094.378.22535-.1051.35248-.3458.33095-.5935-.24745-2.8471 1.2769-5.6732 4.0172-6.951.8061-.3759 1.6471-.5851 2.4843-.6417.0157-.001.0314-.0021.0472-.003.6593-.0401 1.3157.0143 1.9503.1563 2.0466.4578 3.8659 1.8265 4.8207 3.8742.7263 1.5574.8302 3.2455.4138 4.7838-.0081.0299-.0163.0596-.0248.0894-.1751.6145-.4335 1.2041-.7687 1.7507-.6931 1.1302-1.7146 2.0763-3.0061 2.6786-2.7403 1.2778-5.8851.629-7.907-1.3907-.1759-.1757-.442-.233-.66738-.1279-.31999.1492-.42504.5541-.19961.8258 2.79149 3.3651 7.44049 4.6247 11.40129 2.7778 1.6389-.7642 2.946-1.9606 3.8599-3.4053.9139 1.4447 2.2211 2.6411 3.8599 3.4053 3.9609 1.8469 8.6098.5873 11.4013-2.7778.2255-.2717.1204-.6766-.1996-.8258-.2253-.1051-.4914-.0478-.6673.1279-2.022 2.0197-5.1667 2.6685-7.9071 1.3907-1.2915-.6023-2.3129-1.5484-3.0061-2.6786-.012-.0196-.0239-.0392-.0357-.0589-.3338-.5565-.5887-1.1565-.7578-1.7812-.4163-1.5383-.3124-3.2264.4138-4.7838.9549-2.0477 2.7741-3.4164 4.8207-3.8742.0327-.0073.0655-.0144.0983-.0213.6191-.1292 1.258-.1754 1.8992-.132.8372.0566 1.6782.2658 2.4843.6417 2.7403 1.2778 4.2647 4.1039 4.0172 6.951-.0215.2477.1056.4884.331.5935.32.1492.6977-.0306.7609-.378.7835-4.3014-1.2399-8.6724-5.2007-10.5194-1.148-.5353-2.3538-.8096-3.5554-.8474-.0414-.0013-.0827-.0023-.1241-.003-.0116-.0003-.0232-.0004-.0348-.0006.0277-.0441.055-.0885.0819-.1331.8399-1.3907 1.3201-3.0024 1.3201-4.7208 0-4.3703-3.1063-8.05131-7.3359-9.15914-.3415-.08946-.6641.17686-.6641.52993 0 .24864.1645.46559.398.55076 2.685.97897 4.602 3.55485 4.602 6.57845 0 1.2001-.3019 2.3296-.834 3.3167-.0036.0067-.0072.0133-.0108.0199-.3176.5847-.7161 1.119-1.1804 1.588-1.2686 1.2815-3.029 2.0754-4.9748 2.0754-1.9457 0-3.7061-.7939-4.9748-2.0754-.031-.0314-.0618-.0631-.0922-.095-.4302-.4512-.8007-.9597-1.0989-1.5129-.5321-.9872-.8341-2.1167-.8341-3.3167 0-3.0236 1.9171-5.59948 4.602-6.57845.2336-.08517.398-.30212.398-.55076zm4 18.31931c0-1.1046-.8954-2-2-2-1.1045 0-2 .8954-2 2 0 1.1045.8955 2 2 2 1.1046 0 2-.8955 2-2z" fill-rule="evenodd"/><path d="m15.029 25.7072c.2389 3.2722 2.0523 6.1074 4.686 7.7511.3812-.5718.6407-1.2166.7628-1.8909-1.8547-1.2742-3.1454-3.31-3.4207-5.6564-.6478-.2039-1.338-.2771-2.0281-.2038z"/><path d="m30.2894 33.4583c2.6337-1.6437 4.4471-4.4789 4.6859-7.7511-.69-.0733-1.3802-.0001-2.028.2039-.2753 2.3463-1.566 4.3821-3.4207 5.6563.1221.6743.3817 1.3191.7628 1.8909z"/><path d="m25.0022 14.9688c-1.6067 0-3.1249.3789-4.4702 1.0522.3124.6215.7505 1.1689 1.281 1.6087.9771-.4252 2.0556-.6609 3.1892-.6609s2.2121.2357 3.1892.6609c.5306-.4398.9687-.9871 1.281-1.6086-1.3452-.6734-2.8634-1.0523-4.4702-1.0523z"/></g></svg>