<svg fill="none" height="49" viewBox="0 0 49 49" width="49" xmlns="http://www.w3.org/2000/svg"><path clip-rule="evenodd" d="m15.0196 6.98037c-1.1046 0-2 .89543-2 2v32.00003c0 1.1045.8954 2 2 2h18c1.1046 0 2-.8955 2-2v-32.00003c0-1.10457-.8954-2-2-2zm8 5.00003c0-.5523.4477-1 1-1s1 .4477 1 1v4c0 .5523-.4477 1-1 1s-1-.4477-1-1zm0 11c0-.5523.4477-1 1-1s1 .4477 1 1v4c0 .5523-.4477 1-1 1s-1-.4477-1-1zm1 10c-.5523 0-1 .4477-1 1v4c0 .5523.4477 1 1 1s1-.4477 1-1v-4c0-.5523-.4477-1-1-1z" fill="#333" fill-rule="evenodd"/></svg>