<svg fill="none" height="49" viewBox="0 0 49 49" width="49" xmlns="http://www.w3.org/2000/svg"><path d="m0 0h48v48h-48z" fill="#fff" transform="matrix(.99999966 -.000819 .000819 .99999966 0 1)"/><path clip-rule="evenodd" d="m15.005 6.9877c-1.1046.00091-1.9993.89707-1.9984 2.00164l.0262 31.99996c.0009 1.1046.8971 1.9993 2.0016 1.9984l18-.0148c1.1046-.0009 1.9993-.897 1.9984-2.0016l-.0262-31.99998c-.0009-1.10457-.8971-1.99926-2.0017-1.99836zm8.004 4.9935c-.0004-.5523.4469-1.0004.9992-1.0009.5523-.0004 1.0004.4469 1.0008.9992l.0033 4c.0005.5523-.4469 1.0004-.9992 1.0008-.5522.0005-1.0003-.4469-1.0008-.9992zm.0091 10.9999c-.0005-.5522.4469-1.0003.9991-1.0008.5523-.0004 1.0004.4469 1.0009.9992l.0032 4c.0005.5523-.4469 1.0004-.9991 1.0008-.5523.0005-1.0004-.4469-1.0009-.9992zm1.0081 9.9992c-.5522.0005-.9996.4486-.9991 1.0008l.0032 4c.0005.5523.4486.9997 1.0009.9992.5522-.0004.9996-.4485.9991-1.0008l-.0032-4c-.0005-.5523-.4486-.9996-1.0009-.9992z" fill="#333" fill-rule="evenodd"/></svg>