<svg fill="none" height="48" viewBox="0 0 48 48" width="48" xmlns="http://www.w3.org/2000/svg"><path clip-rule="evenodd" d="m6.05569 40.0011c-.06133 1.1029.83989 1.999 1.94446 1.999h13.99995c1.1046.0001 1.9886-.8981 2.111-1.9959.1873-1.6785.6103-3.3258 1.2592-4.8924.9046-2.1838 2.2305-4.1681 3.9019-5.8396 1.6715-1.6714 3.6558-2.9973 5.8397-3.9019 1.5665-.6489 3.2138-1.0719 4.8924-1.2592 1.0977-.1224 1.9959-1.0064 1.9959-2.1109v-14.00005c0-1.10457-.8962-2.00579-1.999-1.94446-4.0443.22491-8.0266 1.13106-11.7776 2.68479-4.3678 1.80912-8.3364 4.46092-11.6793 7.80382s-5.9946 7.3115-7.80381 11.6792c-1.55373 3.7511-2.45989 7.7334-2.6848 11.7776zm30.95701-24.3631c.7296-.1615 1.4678-.2932 2.2129-.3941l-.0671-.4955-.1342-.9909-.0671-.4955c-.8003.1084-1.5932.2498-2.3768.4233l.108.4881.2162.9764zm-8.2985 3.3573c1.2778-.7851 2.6189-1.4625 4.0092-2.025l-.1876-.4635-.375-.927-.1875-.4635c-1.4933.6041-2.9337 1.3317-4.3061 2.175l.2617.426.5235.852zm-5.2485 4.2087c.5235-.5398 1.0675-1.0558 1.6305-1.5472l-.3287-.3767-.6576-.7534-.3287-.3767c-.6047.5277-1.1891 1.082-1.7513 1.6617-.5622.5798-1.0981 1.181-1.607 1.8016l.3866.317.7734.6341.3866.317c.4738-.5779.9728-1.1376 1.4962-1.6774zm-5.9456 9.4452c.5194-1.4069 1.1551-2.7682 1.9006-4.0696l-.4339-.2485-.8677-.4971-.4339-.2485c-.8006 1.3978-1.4835 2.8599-2.0413 4.3711l.469.1731.9382.3463zm-1.5254 6.5523c.078-.7478.1868-1.4898.3258-2.224l-.4913-.093-.9825-.186-.4913-.0929c-.1493.7886-.2662 1.5854-.3499 2.3887l.4973.0518.9946.1036z" fill="#333" fill-rule="evenodd"/></svg>