<svg fill="none" height="48" viewBox="0 0 48 48" width="48" xmlns="http://www.w3.org/2000/svg"><path clip-rule="evenodd" d="m18 4c-.5523 0-1 .44772-1 1v4c0 .55228.4477 1 1 1h2v4c-3.866 0-7 3.134-7 7v20c0 1.6569 1.3431 3 3 3h16c1.6569 0 3-1.3431 3-3v-20c0-3.866-3.134-7-7-7v-4h2c.5523 0 1-.44772 1-1v-4c0-.55228-.4477-1-1-1zm4 11v-5h4v5c0 .5523.4477 1 1 1h1c2.419 0 4.4367 1.7178 4.9 4h-17.8c.4633-2.2822 2.481-4 4.9-4h1c.5523 0 1-.4477 1-1zm6.2427 15.5356-.7067-.7067-2.1218 2.1218 2.1214 2.1213.707-.7071 1.4142 1.4142-2.8284 2.8285-1.4142-1.4142.7071-.7072-2.1213-2.1213-2.1209 2.121.7068.7068-1.4142 1.4142-.7069-.7068-.0003.0004-1.4143-1.4142.0004-.0004-.7074-.7074 1.4142-1.4142.7074.7074 2.121-2.121-2.1214-2.1214-.707.707-1.4143-1.4142.7071-.7071 1.4142-1.4142.7072-.7072 1.4142 1.4143-.7072.7071 2.1214 2.1215 2.1218-2.1218-.7075-.7075 1.4142-1.4142 2.8284 2.8284z" fill="#333" fill-rule="evenodd"/></svg>