<svg fill="none" height="48" viewBox="0 0 48 48" width="48" xmlns="http://www.w3.org/2000/svg"><g clip-rule="evenodd" fill="#333" fill-rule="evenodd"><path d="m44 24c0 11.0457-8.9543 20-20 20s-20-8.9543-20-20 8.9543-20 20-20 20 8.9543 20 20zm-31 0c0-.5523.4477-1 1-1h9v-9c0-.5523.4477-1 1-1s1 .4477 1 1v9h9c.5523 0 1 .4477 1 1s-.4477 1-1 1h-9v9c0 .5523-.4477 1-1 1s-1-.4477-1-1v-9h-9c-.5523 0-1-.4477-1-1z"/><path d="m24 42c9.9411 0 18-8.0589 18-18s-8.0589-18-18-18-18 8.0589-18 18 8.0589 18 18 18zm-13-18c0-1.6569 1.3431-3 3-3h7v-7c0-1.6569 1.3431-3 3-3s3 1.3431 3 3v7h7c1.6569 0 3 1.3431 3 3s-1.3431 3-3 3h-7v7c0 1.6569-1.3431 3-3 3s-3-1.3431-3-3v-7h-7c-1.6569 0-3-1.3431-3-3zm3-1c-.5523 0-1 .4477-1 1s.4477 1 1 1h9v9c0 .5523.4477 1 1 1s1-.4477 1-1v-9h9c.5523 0 1-.4477 1-1s-.4477-1-1-1h-9v-9c0-.5523-.4477-1-1-1s-1 .4477-1 1v9zm10 21c11.0457 0 20-8.9543 20-20s-8.9543-20-20-20-20 8.9543-20 20 8.9543 20 20 20z"/></g></svg>