<svg fill="none" height="48" viewBox="0 0 48 48" width="48" xmlns="http://www.w3.org/2000/svg"><path clip-rule="evenodd" d="m27 15v-11h-17c-.55228 0-1 .44772-1 1v38c0 .5523.44772 1 1 1h28c.5523 0 1-.4477 1-1v-27h-11c-.5523 0-1-.4477-1-1zm2-1v-9.41421l9.4142 9.41421zm-12 5c0-.5523.4477-1 1-1h5c2.2091 0 4 1.7909 4 4 0 2.0759-1.5814 3.7825-3.6052 3.9808l3.6052 3.6051 3.2929-3.2929 1.4143 1.4142-3.293 3.2929 3.2929 3.2929-1.4143 1.4142-3.2928-3.2929-3.2928 3.2929-1.4143-1.4142 3.2929-3.2929-5.0001-5.0001h-1.5857v7h-2v-8zm6 5h-4v-4h4c1.1046 0 2 .8954 2 2s-.8954 2-2 2z" fill="#333" fill-rule="evenodd"/></svg>