<svg fill="none" height="48" viewBox="0 0 48 48" width="48" xmlns="http://www.w3.org/2000/svg"><path d="m25.8009 27.8689c-.466.0947-.8008.5045-.8008.98v2.1511c0 .8284-.6716 1.5-1.5 1.5-.8285 0-1.5-.6716-1.5-1.5v-4.322c0-.7879.6095-1.4415 1.3954-1.4964 1.7774-.1241 4.3925-.7288 6.5143-2.0828 2.0712-1.3217 3.5902-3.2851 3.5902-6.2539 0-2.8604-1.0611-4.8428-2.6018-6.1575-1.5787-1.34713-3.7745-2.08494-6.1319-2.17735-4.8817-.19137-9.4312 2.30975-10.3024 6.20385-.1809.8084-.9829 1.3172-1.7913 1.1363-.8085-.1809-1.3172-.9829-1.1364-1.7913.6655-2.9742 2.587-5.15114 5.0734-6.5762 2.4996-1.43266 5.5318-2.07786 8.2742-1.97035 2.8685.11245 5.7598 1.01401 7.9618 2.89302 2.2402 1.91163 3.6544 4.74343 3.6544 8.43953 0 4.2381-2.2706 7.0562-4.9764 8.7829-1.8314 1.1687-3.9 1.8707-5.7227 2.2411zm-4.8009 12.1311c0-1.6568 1.3432-3 3-3 1.6569 0 3 1.3432 3 3 0 1.6569-1.3431 3-3 3-1.6568 0-3-1.3431-3-3z" fill="#333" stroke="#333" stroke-linecap="round" stroke-linejoin="round" stroke-width="2"/></svg>