<svg fill="none" height="48" viewBox="0 0 48 48" width="48" xmlns="http://www.w3.org/2000/svg"><path clip-rule="evenodd" d="m24 44c11.0457 0 20-8.9543 20-20s-8.9543-20-20-20-20 8.9543-20 20 8.9543 20 20 20zm7.6631-31.6973c2.0263 1.5649 3.3369 3.9269 3.3369 6.9876 0 3.5204-1.9544 5.9534-4.1898 7.4452-1.5273 1.0192-3.2583 1.6595-4.8102 1.9936v1.2709c0 1.1046-.8954 2-2 2s-2-.8954-2-2v-3c0-1.0556.8203-1.9294 1.8738-1.996 1.302-.0823 3.2006-.5844 4.716-1.5957 1.4646-.9774 2.4102-2.2981 2.4102-4.118 0-1.7941-.7144-2.9974-1.7819-3.8219-1.1329-.875-2.7757-1.3963-4.614-1.4615-1.8307-.065-3.6733.331-5.1034 1.081-1.4303.7501-2.2856 1.7552-2.5592 2.8617-.265 1.0723-1.3492 1.7267-2.4215 1.4616-1.0722-.265-1.7266-1.3492-1.4616-2.4215.6265-2.5344 2.4712-4.3359 4.5846-5.4442 2.1137-1.1086 4.6585-1.62284 7.1029-1.5361 2.4366.0864 4.9564.7788 6.9172 2.2933zm-9.6631 23.6973c0-1.1046.8954-2 2-2 1.1045 0 2 .8954 2 2s-.8955 2-2 2c-1.1046 0-2-.8954-2-2z" fill="#333" fill-rule="evenodd"/></svg>