<svg fill="none" height="48" viewBox="0 0 48 48" width="48" xmlns="http://www.w3.org/2000/svg"><path clip-rule="evenodd" d="m23.1006 6.84867c.3649-.75005 1.4336-.75005 1.7985 0l16.4015 33.71413c.3231.6642-.1606 1.4374-.8993 1.4374h-32.80288c-.73864 0-1.22236-.7732-.89924-1.4374zm4.5906 15.13283c1.0298.6849 1.8064 1.7939 1.8064 3.2796 0 1.5787-.6368 2.7387-1.6679 3.4492-.4273.2945-.8871.4868-1.3298.6133v1.1764c0 .8284-.6716 1.5-1.5 1.5-.8285 0-1.5-.6716-1.5-1.5v-2.4414c0-.7896.6121-1.4439 1.3999-1.4966.554-.0371.9743-.1474 1.2277-.322.1066-.0734.1831-.1577.2405-.2723.0597-.1191.1296-.3338.1296-.7066 0-.3126-.123-.5523-.4678-.7817-.3921-.2608-1.0221-.4529-1.7786-.4769-.7485-.0238-1.4753.1225-2.0095.3815-.5369.2603-.7331.5518-.7885.7673-.2061.8024-1.0236 1.2858-1.826 1.0797s-1.2858-1.0236-1.0797-1.826c.3445-1.3413 1.3479-2.2175 2.3854-2.7205 1.0403-.5043 2.2629-.7171 3.4136-.6805 1.1429.0363 2.3623.324 3.3447.9775zm-2.6913 16.0185c1.1045 0 2-.8954 2-2s-.8955-2-2-2c-1.1046 0-2 .8954-2 2s.8954 2 2 2z" fill="#333" fill-rule="evenodd"/></svg>