<svg fill="none" height="48" viewBox="0 0 48 48" width="48" xmlns="http://www.w3.org/2000/svg"><g fill="#333"><path clip-rule="evenodd" d="m8 9c0-1.10457.89543-2 2-2h8c1.1046 0 2 .89543 2 2v1h4 1v1 17 1h-1-20-1v-1-17-1h1 4zm-3 3h3v2h-3zm15 0v2h3v-2zm-12 5v-1h-3v11h18v-11h-3v1c0 1.1046-.8954 2-2 2h-8c-1.10457 0-2-.8954-2-2zm5-8v3h-3v2h3v3h2v-3h3v-2h-3v-3zm27 14c0 2.7625-2.2375 5-5 5s-5-2.2375-5-5 2.2375-5 5-5 5 2.2375 5 5zm-15 12.3333c0-3.5466 6.6625-5.3333 10-5.3333s10 1.7867 10 5.3333v5.6667h-18-2-11-1v-1-6.5858l-3.29289 3.2929-1.41422-1.4142 5.00001-5 .7071-.7071.7071.7071 5 5-1.4142 1.4142-3.2929-3.2929v5.5858h10z" fill-rule="evenodd"/><path d="m11 21h6v7h-6z"/></g></svg>