<svg fill="none" height="48" viewBox="0 0 48 48" width="48" xmlns="http://www.w3.org/2000/svg"><path d="m0 0h48v48h-48z" fill="#fff"/><path clip-rule="evenodd" d="m26 12c0-1.1046-.8954-2-2-2s-2 .8954-2 2v12h4zm2 8v-8c0-2.20914-1.7909-4-4-4s-4 1.79086-4 4v8h-6v-1h4v-5c0-1.1046-.8954-2-2-2h-7c-1.10457 0-2 .8954-2 2v5h4v1h-4c-1.10457 0-2 .8954-2 2v3h-1v2h15v3h10v-3h15v-2h-1v-3c0-1.1046-.8954-2-2-2h-4v-1h4v-5c0-1.1046-.8954-2-2-2h-7c-1.1046 0-2 .8954-2 2v5h4v1zm-1 6h-6v2h6zm1 12c0 2.2091-1.7909 4-4 4s-4-1.7909-4-4c0-3.5 4-7 4-7s4 3.5 4 7zm-15-21h-1v-2h-2v2h-1v-3h7v3h-1v-2h-2zm22 0h1v-2h2v2h1v-3h-7v3h1v-2h2z" fill="#333" fill-rule="evenodd"/></svg>