<svg fill="none" height="48" viewBox="0 0 48 48" width="48" xmlns="http://www.w3.org/2000/svg"><path clip-rule="evenodd" d="m4 24c0-11.0457 8.9543-20 20-20s20 8.9543 20 20-8.9543 20-20 20-20-8.9543-20-20zm12-10c0-.5523.4477-1 1-1h6c2.7614 0 5 2.2386 5 5 0 2.6273-2.0264 4.7813-4.6016 4.9844l4.6016 4.6015 4.2929-4.2929 1.4143 1.4142-4.293 4.2929 4.2929 4.2929-1.4143 1.4142-4.2928-4.2929-4.2928 4.2929-1.4143-1.4142 4.2929-4.2929-6.0001-6.0001h-2.5857v7h-2zm7 7h-5v-6h5c1.6569 0 3 1.3431 3 3s-1.3431 3-3 3z" fill="#333" fill-rule="evenodd"/></svg>