<svg fill="none" height="48" viewBox="0 0 48 48" width="48" xmlns="http://www.w3.org/2000/svg"><g clip-rule="evenodd" fill="#333" fill-rule="evenodd"><path d="m17.5459 15.4793c-1.4358-.5606-3.0165-.6316-4.4968-.202-1.4803.4295-2.7775 1.3357-3.69011 2.5778-.91267 1.2422-1.38983 2.7508-1.35744 4.2919.03238 1.541.5725 3.0283 1.53654 4.231.96401 1.2027 2.29811 2.0535 3.79511 2.4206 1.4971.367 3.0734.2296 4.4844-.3908s2.5778-1.6893 3.3193-3.0406c.7414-1.3513 1.0162-2.9096.7815-4.433-.0841-.5458.2903-1.0565.8361-1.1406.5459-.084 1.0565.2903 1.1406.8361.3017 1.9587-.0515 3.9622-1.0048 5.6996-.9534 1.7374-2.4535 3.1116-4.2676 3.9093-1.8142.7977-3.8409.9743-5.7657.5024-1.9248-.4718-3.63997-1.5658-4.87945-3.1121-1.23948-1.5464-1.93392-3.4586-1.97556-5.4399s.57185-3.921 1.74528-5.5181c1.17342-1.597 2.84113-2.7621 4.74443-3.3144 1.9032-.5523 3.9356-.461 5.7816.2598.5145.2008.7687.7807.5678 1.2952-.2008.5144-.7807.7687-1.2952.5678z"/><path d="m14 38.9999v-8c0-.5523.4477-1 1-1s1 .4477 1 1v8c0 .5523-.4477 1-1 1s-1-.4477-1-1z"/><path d="m11 33.9999c0-.5523.4477-1 1-1h6c.5523 0 1 .4477 1 1s-.4477 1-1 1h-6c-.5523 0-1-.4477-1-1z"/><path d="m28.9016 15.2631c-1.4834-.4187-3.0636-.3361-4.4952.235-1.4317.5711-2.6348 1.5988-3.4228 2.9236-.7879 1.3248-1.1165 2.8726-.9348 4.4032.0651.5485-.3267 1.0458-.8752 1.1109-.5484.0651-1.0458-.3267-1.1109-.8751-.2335-1.968.189-3.958 1.202-5.6613s2.5599-3.0246 4.4006-3.7589c1.8408-.7343 3.8724-.8405 5.7796-.3021 1.9073.5383 3.5835 1.6911 4.7686 3.2795s1.8128 3.5236 1.7857 5.5052c-.0272 1.9815-.7076 3.8988-1.9357 5.4541-1.2281 1.5554-2.9353 2.6619-4.8565 3.1479-1.9213.486-3.9492.3242-5.7692-.4602-.5072-.2186-.7411-.8069-.5225-1.3141s.8069-.7411 1.3141-.5225c1.4155.61 2.9928.7358 4.4871.3579 1.4944-.378 2.8221-1.2386 3.7773-2.4484.9552-1.2097 1.4845-2.7009 1.5055-4.2421.0211-1.5412-.4671-3.0464-1.3888-4.2818s-2.2255-2.132-3.7089-2.5508z"/><path d="m32.7929 17.207c-.3905-.3905-.3905-1.0237 0-1.4142l7.5-7.50001c.3905-.39052 1.0237-.39052 1.4142 0s.3905 1.02369 0 1.41421l-7.5 7.5c-.3905.3905-1.0237.3905-1.4142 0z"/><path d="m40.9244 14.9998c-.5523-.0069-.9943-.4603-.9873-1.0125l.0501-3.9746-3.9746.0501c-.5522.0069-1.0056-.43509-1.0125-.98733-.007-.55224.4351-1.00556.9873-1.01252l6.0254-.07589-.0759 6.02544c-.007.5522-.4603.9943-1.0125.9873z"/></g></svg>