<svg fill="none" height="48" viewBox="0 0 48 48" width="48" xmlns="http://www.w3.org/2000/svg"><g fill="#333"><path d="m41.8515 10.2607c-.0134-.53621-.3968-.99147-.9229-1.09601l-5.7495-1.14248c-.6213-.12345-1.225.28011-1.3484.90136-.1235.62126.2801 1.22493.9013 1.34843l3.595.7143-3.2412 2.7197c-.2324-.2395-.4771-.4684-.7336-.6857-1.8111-1.535-4.0961-2.3986-6.4697-2.4455s-4.6909.7259-6.5612 2.1882c-1.8704 1.4622-3.1795 3.5245-3.7067 5.8394-.5273 2.3148-.2404 4.7406.8122 6.8686.2808.5677.9687.8003 1.5365.5195.5677-.2808.8003-.9687.5195-1.5365-.8187-1.6551-1.0418-3.5418-.6317-5.3422.41-1.8005 1.4282-3.4045 2.8829-4.5418s3.257-1.7384 5.1032-1.7019c1.8462.0364 3.6233.7082 5.032 1.902 1.4087 1.1939 2.3628 2.8369 2.7014 4.6521.3387 1.8152.0413 3.6916-.8421 5.3131s-2.2987 2.889-4.0075 3.5887c-1.7088.6998-3.6066.789-5.3736.2528-.6061-.1839-1.2465.1583-1.4305.7644-.1839.6062.1583 1.2466.7645 1.4305 2.2718.6895 4.7118.5747 6.9088-.325s4.0168-2.5292 5.1526-4.614c1.1357-2.0848 1.5181-4.4974 1.0827-6.8312-.2315-1.2406-.6865-2.4187-1.3341-3.4806l3.1319-2.628.0833 3.3115c.0159.6332.5422 1.1336 1.1754 1.1177.6332-.016 1.1336-.5422 1.1176-1.1754z"/><path d="m9.47146 16.2717c.96284-1.5756 2.43934-2.7712 4.18074-3.3852 1.7415-.6141 3.6413-.609 5.3795.0142.5962.2138 1.2529-.0962 1.4667-.6924s-.0962-1.2529-.6925-1.4667c-2.2347-.80135-4.6774-.80783-6.9164-.0183-2.239.7894-4.13743 2.3266-5.37531 4.3525-1.23789 2.0258-1.73959 4.4164-1.42055 6.769s1.43932 4.5232 3.17203 6.1462c1.62723 1.5242 3.70123 2.4778 5.90933 2.7247v2.356l-3.4408.0003c-.6334.0001-1.1468.5136-1.1468 1.147.0001.6334.5136 1.1468 1.147 1.1468l3.4406-.0003v3.441c0 .6334.5135 1.1469 1.1469 1.1469s1.1469-.5135 1.1469-1.1469v-3.4412l3.4406-.0003c.6334 0 1.1468-.5135 1.1468-1.1469-.0001-.6334-.5136-1.1469-1.147-1.1468l-3.4404.0003v-2.3559c1.7176-.1921 3.37-.8137 4.799-1.8207 1.9406-1.3676 3.3505-3.3624 3.992-5.6482s.4755-4.7228-.4702-6.9005c-.2523-.581-.9278-.8474-1.5088-.5951s-.8474.9278-.5951 1.5088c.7355 1.6937.8646 3.5892.3657 5.367-.499 1.7779-1.5955 3.3294-3.1049 4.393-1.3434.9467-2.9407 1.4555-4.5745 1.4657-.0166-.0007-.0333-.0011-.0501-.0011-.0169 0-.0336.0004-.0503.0011-.1686-.0011-.3375-.0074-.5065-.0192-1.8421-.1281-3.5837-.8872-4.9314-2.1495-1.34765-1.2624-2.21897-2.9507-2.46711-4.7804-.24814-1.8298.14206-3.6892 1.10487-5.2649z"/></g></svg>