<svg fill="none" height="48" viewBox="0 0 48 48" width="48" xmlns="http://www.w3.org/2000/svg"><g fill="#333"><path d="m37 11c0-.5523.4477-1 1-1 2.7614 0 5 2.2386 5 5v1.5909c0 1.3881-.6415 2.6264-1.6441 3.4346 1.5953 1.0784 2.6441 2.9039 2.6441 4.9745v3c0 .5523-.4477 1-1 1s-1-.4477-1-1v-3c0-2.2091-1.7909-4-4-4-.5523 0-1-.4477-1-1s.4477-1 1-1h.5909c1.3305 0 2.4091-1.0786 2.4091-2.4091v-1.5909c0-1.6569-1.3431-3-3-3-.5523 0-1-.4477-1-1z"/><path d="m34 17c-1.6569 0-3 1.3431-3 3v1.8182c0 1.6568 1.3431 3 3 3h3c1.6569 0 3 1.3431 3 3v.1818c0 .5523-.4477 1-1 1s-1-.4477-1-1v-.1818c0-.5523-.4477-1-1-1h-3c-2.7614 0-5-2.2386-5-5v-1.8182c0-2.7614 2.2386-5 5-5 .5523 0 1 .4477 1 1s-.4477 1-1 1z"/><path d="m7 31c-1.10457 0-2 .8954-2 2v2c0 1.1046.89543 2 2 2h27c1.1046 0 2-.8954 2-2v-2c0-1.1046-.8954-2-2-2z"/><path d="m40 32c0-.5523-.4477-1-1-1s-1 .4477-1 1v4c0 .5523.4477 1 1 1s1-.4477 1-1z"/><path d="m44 32c0-.5523-.4477-1-1-1s-1 .4477-1 1v4c0 .5523.4477 1 1 1s1-.4477 1-1z"/></g></svg>