<svg fill="none" height="48" viewBox="0 0 48 48" width="48" xmlns="http://www.w3.org/2000/svg"><g fill="#333"><path d="m12 29c2.21 0 4-1.79 4-4s-1.79-4-4-4-4 1.79-4 4 1.79 4 4 4z"/><path d="m9.23058 29.0172c.19552-.0682.39607.0714.48484.3298l1.58038 1.6571c.7042-.0003.7042 0 1.4083-.0002l1.5805-1.6569c.0888-.2584.2893-.398.4848-.3298 2.1016.7335 4.2306 2.2291 4.2306 4.479v1.1913c0 .7249-.5876 1.3125-1.3125 1.3125h-11.375c-.72487 0-1.3125-.5876-1.3125-1.3125v-1.1913c0-2.2499 2.12896-3.7455 4.23058-4.479z"/><path d="m36 29c2.21 0 4-1.79 4-4s-1.79-4-4-4-4 1.79-4 4 1.79 4 4 4z"/><path d="m33.2306 29.0172c.1955-.0682.396.0714.4848.3298l1.5804 1.6571c.7042-.0003.7042 0 1.4083-.0002l1.5805-1.6569c.0888-.2584.2893-.398.4848-.3298 2.1016.7335 4.2306 2.2291 4.2306 4.479v1.1913c0 .7249-.5876 1.3125-1.3125 1.3125h-11.375c-.7249 0-1.3125-.5876-1.3125-1.3125v-1.1913c0-2.2499 2.129-3.7455 4.2306-4.479z"/><g clip-rule="evenodd" fill-rule="evenodd"><path d="m39 15h-30v-2h30z"/><path d="m11.7071 10.2929c.3905.3905.3905 1.0237 0 1.4142l-2.12131 2.1214 2.12131 2.1213c.3905.3905.3905 1.0237 0 1.4142s-1.0237.3905-1.4142 0l-2.12133-2.1213c-.78105-.7811-.78105-2.0474 0-2.8285l2.12133-2.1213c.3905-.3905 1.0237-.3905 1.4142 0z"/><path d="m36.2929 17.7071c-.3905-.3905-.3905-1.0237 0-1.4142l2.1213-2.1214-2.1213-2.1213c-.3905-.3905-.3905-1.0237 0-1.4142s1.0237-.3905 1.4142 0l2.1213 2.1213c.7811.7811.7811 2.0474 0 2.8285l-2.1213 2.1213c-.3905.3905-1.0237.3905-1.4142 0z"/></g></g></svg>