<svg fill="none" height="48" viewBox="0 0 48 48" width="48" xmlns="http://www.w3.org/2000/svg"><g fill="#333"><path d="m30 25.1409v-12.6409c0-.8284-.6715-1.5-1.5-1.5-.8284 0-1.5.6716-1.5 1.5v10.5h-2v-13.5c0-.82843-.6715-1.5-1.5-1.5-.8284 0-1.5.67157-1.5 1.5v13.5h-2v-10.5c0-.8284-.6715-1.5-1.5-1.5-.8284 0-1.5.6716-1.5 1.5v12.5h-2v-8.5c0-.8284-.6715-1.5-1.5-1.5-.8284 0-1.5.6716-1.5 1.5v13.2375c0 5.6678 4.5947 10.2625 10.2625 10.2625 3.7946 0 7.2795-2.0939 9.0611-5.4443l5.9062-11.1072c.4372-.8222.18-1.842-.5948-2.3585-.8808-.5872-2.0752-.2976-2.5892.6277l-2.1716 3.9088c-.5011.902-1.8742.5462-1.8742-.4856z"/><path clip-rule="evenodd" d="m24 4c11.0457 0 20 8.9543 20 20s-8.9543 20-20 20-20-8.9543-20-20 8.9543-20 20-20zm18.0952 20c0-9.9937-8.1015-18.09524-18.0952-18.09524s-18.09524 8.10154-18.09524 18.09524 8.10154 18.0952 18.09524 18.0952 18.0952-8.1015 18.0952-18.0952z" fill-rule="evenodd"/></g></svg>