<svg fill="none" height="48" viewBox="0 0 48 48" width="48" xmlns="http://www.w3.org/2000/svg"><path clip-rule="evenodd" d="m24.157 44c11.0457 0 20-8.9543 20-20s-8.9543-20-20-20-20.00002 8.9543-20.00002 20 8.95432 20 20.00002 20zm-7.157-30c-.5523 0-1 .4477-1 1v.7231l-2.4682-2.1066-1.2984 1.5212 3.7666 3.2149v14.6474c0 .5523.4477 1 1 1s1-.4477 1-1v-12.9404l3 2.5606v10.3798c0 .5523.4477 1 1 1s1-.4477 1-1v-8.6728l3 2.5606v6.1122c0 .5523.4477 1 1 1s1-.4477 1-1v-4.4052l3 2.5606v1.8446c0 .5523.4477 1 1 1s1-.4477 1-1v-.1376l1.8208 1.5541 1.2984-1.5213-3.1192-2.6622v-15.233c0-.5523-.4477-1-1-1s-1 .4477-1 1v13.5259l-3-2.5605v-10.9654c0-.5523-.4477-1-1-1s-1 .4477-1 1v9.2583l-3-2.5605v-6.6978c0-.5523-.4477-1-1-1s-1 .4477-1 1v4.9907l-3-2.5605v-2.4302c0-.5523-.4477-1-1-1z" fill="#333" fill-rule="evenodd"/></svg>