<svg fill="none" height="48" viewBox="0 0 48 48" width="48" xmlns="http://www.w3.org/2000/svg"><g fill="#333"><path d="m42 7.5c0 .82843-.6716 1.5-1.5 1.5s-1.5-.67157-1.5-1.5.6716-1.5 1.5-1.5 1.5.67157 1.5 1.5z"/><path d="m42 12.5c0 .8284-.6716 1.5-1.5 1.5s-1.5-.6716-1.5-1.5.6716-1.5 1.5-1.5 1.5.6716 1.5 1.5z"/><path d="m42 17.5c0 .8284-.6716 1.5-1.5 1.5s-1.5-.6716-1.5-1.5.6716-1.5 1.5-1.5 1.5.6716 1.5 1.5z"/><path d="m41.5 21.3496c0 .5523-.4477 1-1 1s-1-.4477-1-1 .4477-1 1-1 1 .4477 1 1z"/><path d="m36.6868 7.92226c.1161.82025-.4547 1.57934-1.2749 1.69548-.8203.11615-1.5794-.45464-1.6955-1.27489-.1161-.82024.4546-1.57934 1.2749-1.69548.8202-.11614 1.5793.45465 1.6955 1.27489z"/><path d="m37.3879 12.8727c.1162.8202-.4546 1.5793-1.2749 1.6955-.8202.1161-1.5793-.4547-1.6954-1.2749-.1162-.8203.4546-1.5793 1.2749-1.6955.8202-.1161 1.5793.4547 1.6954 1.2749z"/><path d="m38.0889 17.8234c.1161.8202-.4547 1.5793-1.2749 1.6955-.8203.1161-1.5794-.4547-1.6955-1.2749-.1161-.8203.4546-1.5794 1.2749-1.6955.8202-.1161 1.5793.4546 1.6955 1.2749z"/><path d="m38.79 22.7741c.1162.8202-.4546 1.5793-1.2749 1.6954-.8202.1162-1.5793-.4546-1.6954-1.2748-.1162-.8203.4546-1.5794 1.2749-1.6955.8202-.1162 1.5793.4546 1.6954 1.2749z"/><path d="m30.0448 9.63063c.3396.75567.0024 1.64347-.7533 1.98307-.7556.3396-1.6434.0023-1.983-.7533-.3396-.7557-.0023-1.6435.7533-1.98309.7556-.33958 1.6435-.00231 1.983.75332z"/><path d="m32.0947 14.1912c.3395.7556.0023 1.6434-.7534 1.983-.7556.3396-1.6434.0023-1.983-.7533s-.0023-1.6435.7533-1.983c.7556-.3396 1.6435-.0024 1.9831.7533z"/><path d="m34.1442 18.7517c.3396.7556.0023 1.6435-.7533 1.9831s-1.6435.0023-1.9831-.7533c-.3395-.7557-.0023-1.6435.7534-1.9831.7556-.3396 1.6434-.0023 1.983.7533z"/><path d="m35.0767 22.2661c.2264.5038.0015 1.0957-.5022 1.3221-.5038.2264-1.0957.0015-1.3221-.5022-.2263-.5038-.0015-1.0957.5023-1.3221.5037-.2264 1.0956-.0015 1.322.5022z"/><path d="m23.0252 12.9107c.5384.6297.4644 1.5765-.1653 2.1149-.6296.5384-1.5765.4643-2.1148-.1653-.5384-.6297-.4644-1.5765.1652-2.1149.6297-.5383 1.5766-.4643 2.1149.1653z"/><path d="m26.6485 16.6817c.5384.6297.4644 1.5765-.1653 2.1149-.6296.5384-1.5765.4643-2.1149-.1653-.5383-.6297-.4643-1.5765.1653-2.1149.6297-.5383 1.5765-.4643 2.1149.1653z"/><path d="m29.8978 20.482c.5383.6297.4643 1.5765-.1653 2.1149-.6297.5383-1.5765.4643-2.1149-.1653-.5384-.6297-.4643-1.5765.1653-2.1149.6297-.5383 1.5765-.4643 2.1149.1653z"/><path d="m33.147 24.2823c.5384.6297.4644 1.5765-.1653 2.1149-.6296.5383-1.5765.4643-2.1148-.1653-.5384-.6297-.4644-1.5765.1653-2.1149.6296-.5384 1.5765-.4643 2.1148.1653z"/><path d="m27.5616 13.6911c0 .4794-.3887.868-.8681.868s-.8681-.3886-.8681-.868c0-.4795.3887-.8681.8681-.8681s.8681.3886.8681.8681z"/><path d="m30.1546 18.0338c0 .4795-.3886.8681-.8681.8681-.4794 0-.868-.3886-.868-.8681 0-.4794.3886-.868.868-.868.4795 0 .8681.3886.8681.868z"/><path d="m34.5787 15.9211c0 .4794-.3887.868-.8681.868s-.8681-.3886-.8681-.868c0-.4795.3887-.8681.8681-.8681s.8681.3886.8681.8681z"/><path d="m39.3343 15.1322c0 .4795-.3887.8681-.8681.8681s-.8681-.3886-.8681-.8681c0-.4794.3887-.868.8681-.868s.8681.3886.8681.868z"/><path d="m33.5777 11.3605c0 .4794-.3887.8681-.8681.8681s-.868-.3887-.868-.8681.3886-.8681.868-.8681.8681.3887.8681.8681z"/><path d="m39.0001 10.1317c0 .4795-.3887.8681-.8681.8681s-.8681-.3886-.8681-.8681c0-.47938.3887-.86803.8681-.86803s.8681.38865.8681.86803z"/><path clip-rule="evenodd" d="m20.7263 12.9585c-1.4801 1.0842-2.8786 2.2825-4.182 3.5859-3.3429 3.3429-5.9946 7.3115-7.80381 11.6792-1.55373 3.7511-2.45989 7.7334-2.6848 11.7776-.06133 1.1029.83989 1.9991 1.94446 1.9991h13.99995c1.1046 0 1.9886-.8982 2.111-1.9959.1873-1.6786.6103-3.3259 1.2592-4.8925.9046-2.1838 2.2305-4.1681 3.9019-5.8396 1.0104-1.0103 2.135-1.8943 3.3489-2.6354-3.8161-4.4466-8.6199-10.0019-11.8948-13.6784zm4.3695 8.7817-.7233.6905c-.5413.5167-1.0619 1.0576-1.5606 1.6208l-.663.7487-1.4973-1.326.663-.7486c.5353-.6045 1.0946-1.1857 1.6768-1.7415l.7233-.6906zm-4.4525 5.0686-.535.8449c-.799 1.2619-1.5064 2.5952-2.1144 3.9862l-.4005.9163-1.8326-.8011.4005-.9163c.6481-1.4827 1.4031-2.9061 2.2573-4.2551l.5349-.8448zm-3.8865 8.128-.262.9651c-.1967.7245-.3681 1.4594-.5132 2.2028l-.1916.9815-1.963-.3833.1916-.9814c.1544-.7908.3367-1.5725.546-2.3436l.262-.965z" fill-rule="evenodd"/></g></svg>