<svg fill="none" height="48" viewBox="0 0 48 48" width="48" xmlns="http://www.w3.org/2000/svg" xmlns:xlink="http://www.w3.org/1999/xlink"><clipPath id="a"><path d="m0 0h48v48h-48z"/></clipPath><g clip-path="url(#a)" clip-rule="evenodd" fill="#333" fill-rule="evenodd"><path d="m14.8323 13.4187c2.2206-1.9256 5.0534-3.1638 8.1674-3.3835v1.9648c0 .5523.4478 1 1 1 .5523 0 1-.4477 1-1v-1.9648c3.1139.2197 5.9466 1.4578 8.1672 3.3832l-1.389 1.389c-.3905.3905-.3905 1.0237 0 1.4142.3906.3905 1.0237.3905 1.4142 0l1.389-1.389c1.9256 2.2206 3.1637 5.0534 3.3835 8.1674h-1.9649c-.5522 0-1 .4477-1 1s.4478 1 1 1h1.9649c-.2198 3.1139-1.4579 5.9466-3.3833 8.1672l-1.3892-1.3891c-.3905-.3905-1.0236-.3905-1.4142 0-.3905.3905-.3905 1.0237 0 1.4142l1.3891 1.3891c-2.2205 1.9255-5.0533 3.1637-8.1673 3.3834v-1.9648c0-.5523-.4477-1-1-1-.5522 0-1 .4477-1 1v1.9648c-3.1138-.2197-5.9465-1.4578-8.167-3.3832l1.3889-1.3889c.3905-.3905.3905-1.0236 0-1.4142-.3905-.3905-1.0237-.3905-1.4142 0l-1.389 1.3889c-1.9255-2.2206-3.1637-5.0534-3.3835-8.1674h1.9648c.5523 0 1-.4477 1-1s-.4477-1-1-1h-1.9648c.2198-3.1139 1.4578-5.9465 3.3832-8.1671l1.3893 1.3892c.3905.3905 1.0236.3905 1.4142 0 .3905-.3905.3905-1.0237 0-1.4142zm2.6675 8.0813c0-.5523-.4478-1-1-1-.5523 0-1 .4477-1 1v5c0 .5523.4477 1 1 1 .5522 0 1-.4477 1-1v-1.5h1v1.5c0 .5523.4477 1 1 1 .5522 0 1-.4477 1-1v-5c0-.5523-.4478-1-1-1-.5523 0-1 .4477-1 1v1.5h-1zm4 0c0-.5523.4477-1 1-1h3c.5522 0 1 .4477 1 1s-.4478 1-1 1h-.5v3h.5c.5522 0 1 .4477 1 1s-.4478 1-1 1h-3c-.5523 0-1-.4477-1-1s.4477-1 1-1h.5v-3h-.5c-.5523 0-1-.4477-1-1zm9.9284 5.3714c-.1518.3796-.5195.6286-.9284.6286-.409 0-.7767-.249-.9285-.6286l-2-5c-.2051-.5128.0443-1.0948.5571-1.2999.5127-.2051 1.0947.0443 1.2998.5571l1.0716 2.6788 1.0715-2.6788c.2051-.5128.7871-.7622 1.2998-.5571.5128.2051.7622.7871.5571 1.2999z"/><path d="m20.9998 5c0-.55228.4477-1 1-1h4c.5522 0 1 .44772 1 1s-.4478 1-1 1h-1v2c0 .55228-.4478 1-1 1-.5523 0-1-.44772-1-1v-2h-1c-.5523 0-1-.44772-1-1z"/><path d="m23.9998 39c.5522 0 1 .4477 1 1v2h1c.5522 0 1 .4477 1 1s-.4478 1-1 1h-4c-.5523 0-1-.4477-1-1s.4477-1 1-1h1v-2c0-.5523.4477-1 1-1z"/><path d="m12.686 39.5567c-.3905.3905-1.0236.3905-1.4142 0l-2.82839-2.8284c-.39053-.3905-.39053-1.0237 0-1.4142.39052-.3905 1.02369-.3905 1.41421 0l.70708.7071 1.4142-1.4142c.3906-.3906 1.0237-.3906 1.4143 0 .3905.3905.3905 1.0237 0 1.4142l-1.4143 1.4142.7071.7071c.3906.3905.3906 1.0237 0 1.4142z"/><path d="m34.6064 13.3938c-.3906-.3906-.3906-1.0237 0-1.4142l1.4142-1.4143-.7071-.70707c-.3906-.39052-.3906-1.02369 0-1.41421.3905-.39052 1.0237-.39052 1.4142 0l2.8284 2.82838c.3905.3906.3905 1.0237 0 1.4143-.3905.3905-1.0237.3905-1.4142 0l-.7071-.7071-1.4142 1.4142c-.3906.3905-1.0237.3905-1.4142 0z"/><path d="m4.99976 27c-.55229 0-1-.4477-1-1v-4c0-.5523.44771-1 1-1 .55228 0 1 .4477 1 1v1h2c.55228 0 1 .4477 1 1s-.44772 1-1 1h-2v1c0 .5523-.44772 1-1 1z"/><path d="m38.9998 24c0-.5523.4477-1 1-1h2v-1c0-.5523.4477-1 1-1 .5522 0 1 .4477 1 1v4c0 .5523-.4478 1-1 1-.5523 0-1-.4477-1-1v-1h-2c-.5523 0-1-.4477-1-1z"/><path d="m8.44341 12.6866c-.39053-.3905-.39053-1.0237 0-1.4142l2.82839-2.82844c.3906-.39053 1.0237-.39053 1.4142 0 .3906.39052.3906 1.02369 0 1.41421l-.7071.70713 1.4143 1.4142c.3905.3905.3905 1.0237 0 1.4142-.3906.3905-1.0237.3905-1.4143 0l-1.4142-1.4142-.70708.7071c-.39053.3905-1.02369.3905-1.41421 0z"/><path d="m34.6064 34.6069c.3905-.3905 1.0236-.3905 1.4142 0l1.4142 1.4142.7071-.7071c.3905-.3905 1.0237-.3905 1.4142 0s.3905 1.0237 0 1.4142l-2.8284 2.8285c-.3906.3905-1.0237.3905-1.4142 0-.3906-.3906-.3906-1.0237 0-1.4143l.7071-.7071-1.4142-1.4142c-.3906-.3905-.3906-1.0237 0-1.4142z"/></g></svg>