<svg fill="none" height="48" viewBox="0 0 48 48" width="48" xmlns="http://www.w3.org/2000/svg"><g fill="#333"><path d="m30.2131 26.8182c0 3.4141-2.6863 6.1818-6 6.1818s-6-2.7677-6-6.1818c0-5.4091 6-11.8182 6-11.8182s6 6.4091 6 11.8182z"/><path clip-rule="evenodd" d="m34.1127 14.1005c-5.4673-5.46734-14.3316-5.46734-19.799 0l-1.4142-1.4142c6.2484-6.2484 16.379-6.2484 22.6274 0 3.1111 3.1111 4.6734 7.1868 4.6862 11.2631v.0032 3.6329l3.293-3.2929 1.4142 1.4142-5 5-.7071.7071-.7071-.7071-5-5 1.4142-1.4142 3.2928 3.2928v-3.6297-.0016c-.0116-3.5691-1.3782-7.1314-4.1004-9.8536zm-19.799 19.799c5.4674 5.4673 14.3317 5.4673 19.799 0l1.4142 1.4142c-6.2484 6.2484-16.379 6.2484-22.6274 0-3.12317-3.1232-4.68547-7.2183-4.68629-11.3105v-.0002-3.5891l-3.29289 3.2929-1.41422-1.4142 5-5 .70711-.7071.70711.7071 4.99998 5-1.4142 1.4142-3.2929-3.2929v3.5889.0002c.0008 3.5835 1.3674 7.1634 4.1005 9.8965z" fill-rule="evenodd"/></g></svg>